%TF.GenerationSoftware,Altium Limited,Altium Designer,21.6.4 (81)*%
G04 Layer_Color=0*
%FSLAX45Y45*%
%MOMM*%
%TF.SameCoordinates,04F12F75-4F8B-4F25-9211-7CF3C9368DE0*%
%TF.FilePolarity,Positive*%
%TF.FileFunction,Profile,NP*%
%TF.Part,Single*%
G01*
G75*
%TA.AperFunction,Profile*%
%ADD11C,0.02540*%
G36*
X17368750Y6423502D02*
Y5133502D01*
X17367372Y5121263D01*
X17363304Y5109638D01*
X17356750Y5099210D01*
X17348042Y5090501D01*
X17337613Y5083948D01*
X17325987Y5079881D01*
X17313750Y5078501D01*
X16023750D01*
X16011513Y5079881D01*
X15999887Y5083948D01*
X15989458Y5090501D01*
X15980750Y5099210D01*
X15974197Y5109638D01*
X15970129Y5121263D01*
X15968750Y5133502D01*
Y6423502D01*
X15970129Y6435740D01*
X15974197Y6447365D01*
X15980750Y6457794D01*
X15989458Y6466502D01*
X15999887Y6473055D01*
X16011513Y6477123D01*
X16023750Y6478502D01*
X17313750D01*
X17325987Y6477123D01*
X17337613Y6473055D01*
X17348042Y6466502D01*
X17356750Y6457794D01*
X17363304Y6447365D01*
X17367372Y6435740D01*
X17368750Y6423502D01*
D02*
G37*
G36*
X14511250Y8328502D02*
X14511250Y7038502D01*
X14509871Y7026263D01*
X14505804Y7014638D01*
X14499251Y7004210D01*
X14490543Y6995501D01*
X14480113Y6988948D01*
X14468489Y6984880D01*
X14456250Y6983501D01*
X13166251D01*
X13154012Y6984880D01*
X13142387Y6988948D01*
X13131958Y6995501D01*
X13123248Y7004210D01*
X13116698Y7014638D01*
X13112630Y7026263D01*
X13111250Y7038502D01*
X13111249Y8328502D01*
X13112630Y8340740D01*
X13116696Y8352365D01*
X13123248Y8362794D01*
X13131956Y8371502D01*
X13142387Y8378055D01*
X13154012Y8382122D01*
X13166251Y8383502D01*
X14456248D01*
X14468488Y8382122D01*
X14480113Y8378055D01*
X14490543Y8371502D01*
X14499251Y8362794D01*
X14505803Y8352365D01*
X14509871Y8340740D01*
X14511250Y8328502D01*
D02*
G37*
G36*
X14035001Y10233502D02*
Y8943502D01*
X14033621Y8931263D01*
X14029553Y8919638D01*
X14023001Y8909210D01*
X14014291Y8900500D01*
X14003864Y8893948D01*
X13992238Y8889880D01*
X13979999Y8888501D01*
X12690000D01*
X12677761Y8889880D01*
X12666137Y8893948D01*
X12655707Y8900500D01*
X12646999Y8909210D01*
X12640446Y8919638D01*
X12636379Y8931263D01*
X12634999Y8943502D01*
Y10233502D01*
X12636379Y10245740D01*
X12640446Y10257365D01*
X12646999Y10267794D01*
X12655707Y10276502D01*
X12666137Y10283055D01*
X12677761Y10287123D01*
X12690000Y10288502D01*
X13979999D01*
X13992238Y10287123D01*
X14003864Y10283055D01*
X14014291Y10276502D01*
X14023001Y10267794D01*
X14029553Y10257365D01*
X14033621Y10245740D01*
X14035001Y10233502D01*
D02*
G37*
G36*
X14987500Y12138502D02*
Y10848502D01*
X14986121Y10836263D01*
X14982053Y10824638D01*
X14975500Y10814210D01*
X14966792Y10805500D01*
X14956363Y10798948D01*
X14944737Y10794880D01*
X14932500Y10793501D01*
X13642500D01*
X13630261Y10794880D01*
X13618636Y10798948D01*
X13608208Y10805500D01*
X13599500Y10814210D01*
X13592946Y10824638D01*
X13588878Y10836263D01*
X13587498Y10848502D01*
Y12138502D01*
X13588878Y12150740D01*
X13592946Y12162364D01*
X13599500Y12172794D01*
X13608208Y12181502D01*
X13618636Y12188055D01*
X13630261Y12192122D01*
X13642500Y12193502D01*
X14932500D01*
X14944737Y12192122D01*
X14956363Y12188055D01*
X14966792Y12181502D01*
X14975500Y12172794D01*
X14982053Y12162364D01*
X14986121Y12150740D01*
X14987500Y12138502D01*
D02*
G37*
G36*
X13558751Y6423502D02*
Y5133502D01*
X13557372Y5121263D01*
X13553304Y5109638D01*
X13546751Y5099210D01*
X13538043Y5090501D01*
X13527612Y5083948D01*
X13515990Y5079880D01*
X13503751Y5078501D01*
X12213751Y5078501D01*
X12201512Y5079880D01*
X12189887Y5083948D01*
X12179458Y5090500D01*
X12170749Y5099209D01*
X12164197Y5109638D01*
X12160129Y5121262D01*
X12158750Y5133501D01*
Y6423501D01*
X12160129Y6435740D01*
X12164197Y6447365D01*
X12170749Y6457793D01*
X12179458Y6466502D01*
X12189887Y6473054D01*
X12201512Y6477122D01*
X12213751Y6478501D01*
X13503751Y6478502D01*
X13515990Y6477122D01*
X13527612Y6473055D01*
X13538043Y6466502D01*
X13546751Y6457794D01*
X13553304Y6447365D01*
X13557372Y6435740D01*
X13558751Y6423502D01*
D02*
G37*
G36*
X18321249Y8328502D02*
Y7038502D01*
X18319872Y7026263D01*
X18315804Y7014638D01*
X18309251Y7004210D01*
X18300542Y6995501D01*
X18290112Y6988949D01*
X18278488Y6984881D01*
X18266249Y6983502D01*
X16976251Y6983501D01*
X16964012Y6984881D01*
X16952386Y6988948D01*
X16941959Y6995501D01*
X16933249Y7004210D01*
X16926697Y7014638D01*
X16922629Y7026263D01*
X16921249Y7038502D01*
X16921249Y8328502D01*
X16922629Y8340740D01*
X16926695Y8352365D01*
X16933249Y8362794D01*
X16941957Y8371502D01*
X16952386Y8378055D01*
X16964011Y8382123D01*
X16976250Y8383502D01*
X18266249Y8383502D01*
X18278488Y8382123D01*
X18290112Y8378055D01*
X18300542Y8371503D01*
X18309251Y8362794D01*
X18315804Y8352365D01*
X18319872Y8340741D01*
X18321249Y8328502D01*
D02*
G37*
G36*
X17845000Y10233502D02*
Y8943502D01*
X17843622Y8931263D01*
X17839554Y8919638D01*
X17833002Y8909210D01*
X17824292Y8900501D01*
X17813863Y8893948D01*
X17802238Y8889880D01*
X17789999Y8888501D01*
X16500000D01*
X16487761Y8889880D01*
X16476137Y8893948D01*
X16465707Y8900501D01*
X16456999Y8909210D01*
X16450446Y8919638D01*
X16446379Y8931263D01*
X16445000Y8943502D01*
Y10233502D01*
X16446379Y10245740D01*
X16450446Y10257365D01*
X16456999Y10267794D01*
X16465707Y10276503D01*
X16476137Y10283055D01*
X16487761Y10287123D01*
X16500000Y10288502D01*
X17789999D01*
X17802238Y10287123D01*
X17813863Y10283055D01*
X17824292Y10276503D01*
X17833002Y10267794D01*
X17839554Y10257365D01*
X17843622Y10245740D01*
X17845000Y10233502D01*
D02*
G37*
G36*
X15939999D02*
Y8943502D01*
X15938622Y8931263D01*
X15934554Y8919638D01*
X15928001Y8909210D01*
X15919292Y8900501D01*
X15908862Y8893948D01*
X15897238Y8889880D01*
X15884999Y8888501D01*
X14595000D01*
X14582761Y8889880D01*
X14571136Y8893948D01*
X14560707Y8900500D01*
X14551999Y8909210D01*
X14545445Y8919638D01*
X14541379Y8931263D01*
X14539999Y8943502D01*
Y10233502D01*
X14541379Y10245740D01*
X14545445Y10257365D01*
X14551999Y10267794D01*
X14560707Y10276502D01*
X14571136Y10283055D01*
X14582761Y10287123D01*
X14595000Y10288502D01*
X15884999D01*
X15897238Y10287123D01*
X15908862Y10283055D01*
X15919292Y10276503D01*
X15928001Y10267794D01*
X15934554Y10257365D01*
X15938622Y10245740D01*
X15939999Y10233502D01*
D02*
G37*
G36*
X13082500Y12138502D02*
Y10848502D01*
X13081120Y10836263D01*
X13077052Y10824638D01*
X13070502Y10814210D01*
X13061792Y10805500D01*
X13051363Y10798948D01*
X13039738Y10794880D01*
X13027499Y10793501D01*
X11737500D01*
X11725261Y10794880D01*
X11713636Y10798948D01*
X11703207Y10805500D01*
X11694499Y10814210D01*
X11687946Y10824638D01*
X11683878Y10836263D01*
X11682499Y10848502D01*
Y12138502D01*
X11683878Y12150740D01*
X11687946Y12162364D01*
X11694499Y12172794D01*
X11703207Y12181502D01*
X11713636Y12188055D01*
X11725261Y12192122D01*
X11737500Y12193502D01*
X13027499D01*
X13039738Y12192122D01*
X13051363Y12188055D01*
X13061792Y12181502D01*
X13070502Y12172794D01*
X13077052Y12162364D01*
X13081120Y12150740D01*
X13082500Y12138502D01*
D02*
G37*
G36*
X16416251Y8328502D02*
X16416251Y7038502D01*
X16414871Y7026263D01*
X16410805Y7014638D01*
X16404251Y7004210D01*
X16395543Y6995501D01*
X16385114Y6988948D01*
X16373489Y6984881D01*
X16361250Y6983501D01*
X15071251D01*
X15059012Y6984880D01*
X15047388Y6988948D01*
X15036958Y6995501D01*
X15028249Y7004210D01*
X15021696Y7014638D01*
X15017628Y7026263D01*
X15016251Y7038502D01*
X15016249Y8328502D01*
X15017628Y8340740D01*
X15021696Y8352365D01*
X15028249Y8362794D01*
X15036957Y8371502D01*
X15047388Y8378055D01*
X15059010Y8382122D01*
X15071249Y8383502D01*
X16361249D01*
X16373488Y8382123D01*
X16385114Y8378055D01*
X16395541Y8371502D01*
X16404251Y8362794D01*
X16410803Y8352365D01*
X16414871Y8340740D01*
X16416251Y8328502D01*
D02*
G37*
G36*
X15463751Y6423502D02*
Y5133502D01*
X15462370Y5121263D01*
X15458304Y5109638D01*
X15451752Y5099210D01*
X15443044Y5090501D01*
X15432613Y5083948D01*
X15420988Y5079881D01*
X15408749Y5078501D01*
X14118752D01*
X14106512Y5079880D01*
X14094887Y5083948D01*
X14084457Y5090501D01*
X14075749Y5099210D01*
X14069197Y5109638D01*
X14065129Y5121263D01*
X14063750Y5133502D01*
Y6423502D01*
X14065129Y6435740D01*
X14069197Y6447365D01*
X14075749Y6457794D01*
X14084457Y6466502D01*
X14094887Y6473055D01*
X14106512Y6477122D01*
X14118752Y6478502D01*
X15408749D01*
X15420988Y6477123D01*
X15432613Y6473055D01*
X15443044Y6466502D01*
X15451752Y6457794D01*
X15458304Y6447365D01*
X15462370Y6435740D01*
X15463751Y6423502D01*
D02*
G37*
G36*
X18797501Y12138502D02*
Y10848502D01*
X18796120Y10836263D01*
X18792055Y10824639D01*
X18785501Y10814210D01*
X18776791Y10805501D01*
X18766364Y10798948D01*
X18754738Y10794881D01*
X18742499Y10793501D01*
X17452501D01*
X17440262Y10794880D01*
X17428638Y10798948D01*
X17418208Y10805501D01*
X17409499Y10814210D01*
X17402946Y10824638D01*
X17398878Y10836263D01*
X17397501Y10848502D01*
Y12138502D01*
X17398878Y12150740D01*
X17402946Y12162365D01*
X17409499Y12172794D01*
X17418208Y12181503D01*
X17428638Y12188055D01*
X17440262Y12192123D01*
X17452501Y12193502D01*
X18742499D01*
X18754738Y12192123D01*
X18766364Y12188055D01*
X18776791Y12181503D01*
X18785501Y12172794D01*
X18792055Y12162365D01*
X18796120Y12150740D01*
X18797501Y12138502D01*
D02*
G37*
G36*
X16892500D02*
Y10848502D01*
X16891121Y10836263D01*
X16887053Y10824638D01*
X16880501Y10814210D01*
X16871793Y10805501D01*
X16861363Y10798948D01*
X16849738Y10794880D01*
X16837498Y10793501D01*
X15547501D01*
X15535262Y10794880D01*
X15523636Y10798948D01*
X15513206Y10805501D01*
X15504498Y10814210D01*
X15497946Y10824638D01*
X15493878Y10836263D01*
X15492499Y10848502D01*
Y12138502D01*
X15493878Y12150740D01*
X15497946Y12162365D01*
X15504498Y12172794D01*
X15513206Y12181503D01*
X15523636Y12188055D01*
X15535262Y12192123D01*
X15547501Y12193502D01*
X16837498D01*
X16849738Y12192123D01*
X16861363Y12188055D01*
X16871793Y12181503D01*
X16880501Y12172794D01*
X16887053Y12162365D01*
X16891121Y12150740D01*
X16892500Y12138502D01*
D02*
G37*
G36*
X17840001Y3273502D02*
X17816635Y3276134D01*
X17794443Y3283900D01*
X17774535Y3296410D01*
X17757909Y3313036D01*
X17745399Y3332944D01*
X17737633Y3355137D01*
X17735001Y3378501D01*
Y4668502D01*
X17737633Y4691866D01*
X17745399Y4714060D01*
X17757909Y4733968D01*
X17774535Y4750594D01*
X17794443Y4763104D01*
X17816635Y4770869D01*
X17840001Y4773502D01*
X18355000D01*
X18378365Y4770869D01*
X18400558Y4763104D01*
X18420467Y4750594D01*
X18437093Y4733968D01*
X18449603Y4714060D01*
X18457367Y4691867D01*
X18460001Y4668502D01*
Y3378501D01*
X18457367Y3355137D01*
X18449603Y3332944D01*
X18437093Y3313036D01*
X18420467Y3296410D01*
X18400558Y3283900D01*
X18378365Y3276134D01*
X18355000Y3273502D01*
X17840001D01*
D02*
G37*
G36*
X12451876Y4573502D02*
X14932500D01*
X14944739Y4572122D01*
X14956364Y4568055D01*
X14966792Y4561502D01*
X14975500Y4552794D01*
X14982054Y4542365D01*
X14986122Y4530740D01*
X14987502Y4518502D01*
Y3228502D01*
X14986122Y3216263D01*
X14982054Y3204638D01*
X14975500Y3194210D01*
X14966792Y3185501D01*
X14956364Y3178948D01*
X14944739Y3174881D01*
X14932500Y3173501D01*
X12449375Y3173501D01*
X12437693Y3174817D01*
X12426596Y3178701D01*
X12416642Y3184955D01*
X12408329Y3193268D01*
X12402074Y3203223D01*
X12398192Y3214319D01*
X12396875Y3226001D01*
Y4518502D01*
X12398254Y4530740D01*
X12402322Y4542365D01*
X12408874Y4552794D01*
X12417583Y4561502D01*
X12428012Y4568055D01*
X12439637Y4572122D01*
X12451876Y4573502D01*
D02*
G37*
G36*
X19218748Y5078502D02*
X17928751Y5078501D01*
X17916512Y5079881D01*
X17904887Y5083948D01*
X17894458Y5090501D01*
X17885748Y5099210D01*
X17879196Y5109638D01*
X17875128Y5121263D01*
X17873750Y5133502D01*
Y6423502D01*
X17875128Y6435740D01*
X17879196Y6447365D01*
X17885748Y6457794D01*
X17894458Y6466502D01*
X17904887Y6473055D01*
X17916512Y6477123D01*
X17928751Y6478502D01*
X19218748Y6478502D01*
X19230988Y6477123D01*
X19242613Y6473055D01*
X19253043Y6466503D01*
X19261751Y6457794D01*
X19268304Y6447365D01*
X19272372Y6435741D01*
X19273750Y6423502D01*
Y5133502D01*
X19272372Y5121263D01*
X19268304Y5109638D01*
X19261751Y5099210D01*
X19253043Y5090501D01*
X19242613Y5083949D01*
X19230988Y5079881D01*
X19218748Y5078502D01*
D02*
G37*
G36*
X10785000Y10288502D02*
X12074999D01*
X12087238Y10287122D01*
X12098863Y10283055D01*
X12109292Y10276502D01*
X12118001Y10267794D01*
X12124553Y10257364D01*
X12128621Y10245740D01*
X12130000Y10233502D01*
Y8943502D01*
X12128621Y8931263D01*
X12124553Y8919638D01*
X12118001Y8909210D01*
X12109292Y8900500D01*
X12098863Y8893948D01*
X12087238Y8889880D01*
X12074999Y8888501D01*
X10785000D01*
X10772761Y8889880D01*
X10761137Y8893948D01*
X10750707Y8900500D01*
X10741999Y8909210D01*
X10735446Y8919638D01*
X10731379Y8931263D01*
X10729999Y8943502D01*
Y10233502D01*
X10731379Y10245740D01*
X10735446Y10257364D01*
X10741999Y10267794D01*
X10750707Y10276502D01*
X10761137Y10283055D01*
X10772761Y10287122D01*
X10785000Y10288502D01*
D02*
G37*
G36*
X11177500Y10848502D02*
X11176121Y10836263D01*
X11172053Y10824638D01*
X11165501Y10814210D01*
X11156792Y10805500D01*
X11146363Y10798948D01*
X11134738Y10794880D01*
X11122499Y10793501D01*
X9832500D01*
X9820261Y10794880D01*
X9808637Y10798948D01*
X9798207Y10805500D01*
X9789499Y10814210D01*
X9782946Y10824638D01*
X9778879Y10836263D01*
X9777499Y10848502D01*
Y12138502D01*
X9778879Y12150740D01*
X9782946Y12162364D01*
X9789499Y12172794D01*
X9798207Y12181502D01*
X9808637Y12188055D01*
X9820261Y12192122D01*
X9832500Y12193502D01*
X11122499D01*
X11134738Y12192122D01*
X11146363Y12188055D01*
X11156792Y12181502D01*
X11165501Y12172794D01*
X11172053Y12162364D01*
X11176121Y12150740D01*
X11177500Y12138502D01*
Y10848502D01*
D02*
G37*
G36*
X9748751Y6423501D02*
Y5133501D01*
X9747371Y5121262D01*
X9743304Y5109638D01*
X9736751Y5099209D01*
X9728043Y5090500D01*
X9717613Y5083948D01*
X9705989Y5079880D01*
X9693750Y5078501D01*
X8403750D01*
X8391511Y5079880D01*
X8379887Y5083948D01*
X8369458Y5090500D01*
X8360749Y5099209D01*
X8354197Y5109637D01*
X8350129Y5121262D01*
X8348750Y5133501D01*
Y6423501D01*
X8350129Y6435740D01*
X8354197Y6447364D01*
X8360749Y6457793D01*
X8369458Y6466502D01*
X8379887Y6473054D01*
X8391511Y6477122D01*
X8403750Y6478501D01*
X9693750D01*
X9705989Y6477122D01*
X9717613Y6473054D01*
X9728043Y6466502D01*
X9736751Y6457793D01*
X9743304Y6447365D01*
X9747371Y6435740D01*
X9748751Y6423501D01*
D02*
G37*
G36*
X9272500Y12138500D02*
Y10848501D01*
X9271121Y10836262D01*
X9267053Y10824638D01*
X9260501Y10814208D01*
X9251792Y10805500D01*
X9241363Y10798947D01*
X9229738Y10794880D01*
X9217499Y10793500D01*
X7927500D01*
X7915261Y10794880D01*
X7903636Y10798947D01*
X7893207Y10805500D01*
X7884499Y10814208D01*
X7877946Y10824638D01*
X7873879Y10836262D01*
X7872499Y10848501D01*
Y12138500D01*
X7873879Y12150739D01*
X7877946Y12162364D01*
X7884499Y12172793D01*
X7893207Y12181502D01*
X7903636Y12188054D01*
X7915261Y12192122D01*
X7927500Y12193501D01*
X9217499D01*
X9229738Y12192122D01*
X9241363Y12188054D01*
X9251792Y12181502D01*
X9260501Y12172793D01*
X9267053Y12162364D01*
X9271121Y12150739D01*
X9272500Y12138500D01*
D02*
G37*
G36*
X10225000Y10233502D02*
Y8943502D01*
X10223621Y8931263D01*
X10219553Y8919638D01*
X10213001Y8909210D01*
X10204292Y8900500D01*
X10193863Y8893948D01*
X10182238Y8889880D01*
X10169999Y8888501D01*
X8880000Y8888500D01*
X8867761Y8889880D01*
X8856137Y8893947D01*
X8845707Y8900500D01*
X8836999Y8909208D01*
X8830446Y8919638D01*
X8826379Y8931262D01*
X8824999Y8943501D01*
Y10233500D01*
X8826379Y10245739D01*
X8830446Y10257364D01*
X8836999Y10267793D01*
X8845707Y10276502D01*
X8856137Y10283054D01*
X8867761Y10287122D01*
X8880000Y10288501D01*
X10169999Y10288502D01*
X10182238Y10287122D01*
X10193863Y10283055D01*
X10204292Y10276502D01*
X10213001Y10267794D01*
X10219553Y10257364D01*
X10223621Y10245740D01*
X10225000Y10233502D01*
D02*
G37*
G36*
X10701250Y8328501D02*
X10701251Y7038501D01*
X10699871Y7026262D01*
X10695804Y7014638D01*
X10689251Y7004209D01*
X10680543Y6995500D01*
X10670113Y6988948D01*
X10658489Y6984880D01*
X10646250Y6983501D01*
X9356251D01*
X9344012Y6984880D01*
X9332387Y6988948D01*
X9321958Y6995500D01*
X9313249Y7004209D01*
X9306697Y7014637D01*
X9302629Y7026262D01*
X9301250Y7038501D01*
X9301249Y8328501D01*
X9302629Y8340740D01*
X9306696Y8352364D01*
X9313249Y8362793D01*
X9321957Y8371502D01*
X9332387Y8378054D01*
X9344011Y8382122D01*
X9356250Y8383501D01*
X10646249D01*
X10658488Y8382122D01*
X10670113Y8378054D01*
X10680542Y8371502D01*
X10689251Y8362793D01*
X10695803Y8352365D01*
X10699871Y8340740D01*
X10701250Y8328501D01*
D02*
G37*
G36*
X8830000Y3273501D02*
X7838750Y3273501D01*
X7815385Y3276133D01*
X7793193Y3283899D01*
X7773284Y3296409D01*
X7756658Y3313035D01*
X7744149Y3332943D01*
X7736383Y3355136D01*
X7733751Y3378500D01*
Y4668501D01*
X7736383Y4691866D01*
X7744149Y4714059D01*
X7756658Y4733967D01*
X7773284Y4750593D01*
X7793193Y4763102D01*
X7815385Y4770868D01*
X7838750Y4773501D01*
X8830000D01*
X8853365Y4770868D01*
X8875558Y4763102D01*
X8895466Y4750593D01*
X8912093Y4733967D01*
X8924602Y4714059D01*
X8932367Y4691866D01*
X8935000Y4668501D01*
Y3378501D01*
X8932367Y3355136D01*
X8924602Y3332943D01*
X8912093Y3313035D01*
X8895466Y3296409D01*
X8875558Y3283899D01*
X8853365Y3276134D01*
X8830000Y3273501D01*
D02*
G37*
G36*
X7451250Y8383501D02*
X8741249D01*
X8753488Y8382122D01*
X8765113Y8378054D01*
X8775542Y8371502D01*
X8784251Y8362793D01*
X8790803Y8352364D01*
X8794871Y8340740D01*
X8796250Y8328501D01*
X8796251Y7038501D01*
X8794871Y7026262D01*
X8790804Y7014637D01*
X8784251Y7004209D01*
X8775543Y6995500D01*
X8765113Y6988948D01*
X8753489Y6984880D01*
X8741250Y6983501D01*
X7451250D01*
X7439011Y6984880D01*
X7427387Y6988948D01*
X7416958Y6995500D01*
X7408249Y7004209D01*
X7401697Y7014637D01*
X7397629Y7026262D01*
X7396250Y7038501D01*
Y8328501D01*
X7397629Y8340740D01*
X7401697Y8352364D01*
X7408249Y8362793D01*
X7416958Y8371502D01*
X7427387Y8378054D01*
X7439011Y8382122D01*
X7451250Y8383501D01*
D02*
G37*
G36*
X10308751Y6478501D02*
X11598750D01*
X11610989Y6477122D01*
X11622613Y6473054D01*
X11633043Y6466502D01*
X11641751Y6457793D01*
X11648304Y6447365D01*
X11652371Y6435740D01*
X11653751Y6423501D01*
Y5133501D01*
X11652371Y5121262D01*
X11648304Y5109638D01*
X11641751Y5099209D01*
X11633043Y5090500D01*
X11622613Y5083948D01*
X11610989Y5079880D01*
X11598750Y5078501D01*
X10308751D01*
X10296512Y5079880D01*
X10284887Y5083948D01*
X10274458Y5090500D01*
X10265749Y5099209D01*
X10259197Y5109638D01*
X10255129Y5121262D01*
X10253750Y5133501D01*
Y6423501D01*
X10255129Y6435740D01*
X10259197Y6447365D01*
X10265749Y6457793D01*
X10274458Y6466502D01*
X10284887Y6473054D01*
X10296512Y6477122D01*
X10308751Y6478501D01*
D02*
G37*
G36*
X11261250Y8383501D02*
X12551249Y8383502D01*
X12563488Y8382122D01*
X12575113Y8378055D01*
X12585542Y8371502D01*
X12594251Y8362794D01*
X12600803Y8352365D01*
X12604871Y8340740D01*
X12606250Y8328502D01*
X12606251Y7038502D01*
X12604871Y7026263D01*
X12600804Y7014638D01*
X12594251Y7004210D01*
X12585543Y6995501D01*
X12575113Y6988948D01*
X12563489Y6984880D01*
X12551250Y6983501D01*
X11261251Y6983501D01*
X11249012Y6984880D01*
X11237387Y6988948D01*
X11226958Y6995500D01*
X11218249Y7004209D01*
X11211697Y7014638D01*
X11207629Y7026262D01*
X11206250Y7038501D01*
X11206249Y8328501D01*
X11207629Y8340740D01*
X11211696Y8352365D01*
X11218249Y8362793D01*
X11226957Y8371502D01*
X11237387Y8378054D01*
X11249011Y8382122D01*
X11261250Y8383501D01*
D02*
G37*
G36*
X30172498Y5078503D02*
X28882501Y5078502D01*
X28870261Y5079882D01*
X28858636Y5083949D01*
X28848209Y5090502D01*
X28839499Y5099211D01*
X28832947Y5109639D01*
X28828879Y5121264D01*
X28827499Y5133503D01*
Y6423503D01*
X28828879Y6435741D01*
X28832947Y6447366D01*
X28839499Y6457795D01*
X28848209Y6466503D01*
X28858636Y6473056D01*
X28870261Y6477124D01*
X28882501Y6478503D01*
X30172498Y6478503D01*
X30184738Y6477124D01*
X30196362Y6473056D01*
X30206793Y6466504D01*
X30215500Y6457795D01*
X30222055Y6447366D01*
X30226123Y6435742D01*
X30227499Y6423503D01*
Y5133503D01*
X30226123Y5121264D01*
X30222055Y5109639D01*
X30215500Y5099211D01*
X30206793Y5090502D01*
X30196362Y5083950D01*
X30184738Y5079882D01*
X30172498Y5078503D01*
D02*
G37*
G36*
Y6983503D02*
X28882501Y6983502D01*
X28870261Y6984882D01*
X28858636Y6988949D01*
X28848209Y6995502D01*
X28839499Y7004211D01*
X28832947Y7014639D01*
X28828879Y7026264D01*
X28827499Y7038503D01*
Y8328503D01*
X28828879Y8340741D01*
X28832947Y8352366D01*
X28839499Y8362795D01*
X28848209Y8371503D01*
X28858636Y8378056D01*
X28870261Y8382124D01*
X28882501Y8383503D01*
X30172498Y8383503D01*
X30184738Y8382124D01*
X30196362Y8378056D01*
X30206793Y8371504D01*
X30215500Y8362795D01*
X30222055Y8352366D01*
X30226120Y8340742D01*
X30227499Y8328503D01*
Y7038503D01*
X30226123Y7026264D01*
X30222055Y7014639D01*
X30215500Y7004211D01*
X30206793Y6995502D01*
X30196362Y6988950D01*
X30184738Y6984882D01*
X30172498Y6983503D01*
D02*
G37*
G36*
Y8888502D02*
X28882501D01*
X28870261Y8889881D01*
X28858636Y8893949D01*
X28848209Y8900502D01*
X28839499Y8909211D01*
X28832947Y8919639D01*
X28828879Y8931264D01*
X28827499Y8943503D01*
Y10233503D01*
X28828879Y10245741D01*
X28832947Y10257366D01*
X28839499Y10267795D01*
X28848209Y10276504D01*
X28858636Y10283056D01*
X28870261Y10287124D01*
X28882501Y10288503D01*
X30172498D01*
X30184738Y10287124D01*
X30196362Y10283056D01*
X30206793Y10276504D01*
X30215500Y10267795D01*
X30222055Y10257366D01*
X30226120Y10245741D01*
X30227499Y10233503D01*
Y8943503D01*
X30226120Y8931264D01*
X30222055Y8919640D01*
X30215500Y8909211D01*
X30206793Y8900502D01*
X30196362Y8893949D01*
X30184738Y8889882D01*
X30172498Y8888502D01*
D02*
G37*
G36*
Y10793502D02*
X28882501D01*
X28870261Y10794881D01*
X28858636Y10798949D01*
X28848209Y10805502D01*
X28839499Y10814211D01*
X28832947Y10824639D01*
X28828879Y10836264D01*
X28827499Y10848503D01*
Y12138503D01*
X28828879Y12150741D01*
X28832947Y12162366D01*
X28839499Y12172795D01*
X28848209Y12181504D01*
X28858636Y12188056D01*
X28870261Y12192124D01*
X28882501Y12193503D01*
X30172498D01*
X30184738Y12192124D01*
X30196362Y12188056D01*
X30206793Y12181504D01*
X30215500Y12172795D01*
X30222055Y12162366D01*
X30226120Y12150741D01*
X30227499Y12138503D01*
Y10848503D01*
X30226120Y10836264D01*
X30222055Y10824640D01*
X30215500Y10814211D01*
X30206793Y10805502D01*
X30196362Y10798949D01*
X30184738Y10794882D01*
X30172498Y10793502D01*
D02*
G37*
G36*
Y3173503D02*
X28882501D01*
X28870261Y3174882D01*
X28858636Y3178949D01*
X28848209Y3185502D01*
X28839499Y3194211D01*
X28832947Y3204640D01*
X28828879Y3216264D01*
X28827499Y3228503D01*
Y4518503D01*
X28828879Y4530741D01*
X28832947Y4542366D01*
X28839499Y4552795D01*
X28848209Y4561503D01*
X28858636Y4568056D01*
X28870261Y4572124D01*
X28882501Y4573503D01*
X30172498Y4573503D01*
X30184738Y4572124D01*
X30196362Y4568056D01*
X30206793Y4561504D01*
X30215500Y4552795D01*
X30222055Y4542366D01*
X30226123Y4530742D01*
X30227499Y4518503D01*
Y3228503D01*
X30226123Y3216264D01*
X30222055Y3204640D01*
X30215500Y3194211D01*
X30206793Y3185502D01*
X30196362Y3178949D01*
X30184738Y3174882D01*
X30172498Y3173503D01*
D02*
G37*
G36*
X22215001Y10288503D02*
X23504999D01*
X23517238Y10287123D01*
X23528864Y10283056D01*
X23539291Y10276503D01*
X23548001Y10267795D01*
X23554555Y10257365D01*
X23558620Y10245741D01*
X23560001Y10233503D01*
Y8943503D01*
X23558620Y8931264D01*
X23554555Y8919639D01*
X23548001Y8909211D01*
X23539291Y8900501D01*
X23528864Y8893949D01*
X23517238Y8889881D01*
X23504999Y8888502D01*
X22215001D01*
X22202762Y8889881D01*
X22191138Y8893949D01*
X22180708Y8900501D01*
X22171999Y8909211D01*
X22165446Y8919639D01*
X22161378Y8931264D01*
X22160001Y8943503D01*
Y10233503D01*
X22161378Y10245741D01*
X22165446Y10257365D01*
X22171999Y10267795D01*
X22180708Y10276503D01*
X22191138Y10283056D01*
X22202762Y10287123D01*
X22215001Y10288503D01*
D02*
G37*
G36*
X22691251Y8383502D02*
X23981248Y8383503D01*
X23993488Y8382123D01*
X24005113Y8378056D01*
X24015543Y8371503D01*
X24024251Y8362795D01*
X24030804Y8352366D01*
X24034869Y8340741D01*
X24036250Y8328503D01*
Y7038503D01*
X24034872Y7026264D01*
X24030804Y7014639D01*
X24024251Y7004211D01*
X24015543Y6995502D01*
X24005113Y6988949D01*
X23993488Y6984881D01*
X23981248Y6983502D01*
X22691251Y6983502D01*
X22679012Y6984881D01*
X22667387Y6988949D01*
X22656958Y6995501D01*
X22648248Y7004210D01*
X22641696Y7014639D01*
X22637630Y7026263D01*
X22636250Y7038502D01*
Y8328502D01*
X22637628Y8340741D01*
X22641696Y8352366D01*
X22648248Y8362794D01*
X22656958Y8371503D01*
X22667387Y8378055D01*
X22679012Y8382123D01*
X22691251Y8383502D01*
D02*
G37*
G36*
X21738751Y4573502D02*
X23266875D01*
X23279114Y4572123D01*
X23290739Y4568055D01*
X23301167Y4561503D01*
X23309877Y4552794D01*
X23316428Y4542366D01*
X23320496Y4530741D01*
X23321877Y4518502D01*
Y3228502D01*
X23320496Y3216264D01*
X23316428Y3204639D01*
X23309877Y3194210D01*
X23301167Y3185502D01*
X23290739Y3178949D01*
X23279114Y3174881D01*
X23266875Y3173502D01*
X21738751Y3173502D01*
X21726512Y3174881D01*
X21714886Y3178949D01*
X21704459Y3185501D01*
X21695749Y3194210D01*
X21689195Y3204639D01*
X21685130Y3216263D01*
X21683749Y3228502D01*
Y4518502D01*
X21685130Y4530741D01*
X21689195Y4542366D01*
X21695749Y4552794D01*
X21704459Y4561503D01*
X21714886Y4568055D01*
X21726512Y4572123D01*
X21738751Y4573502D01*
D02*
G37*
G36*
X23167500Y12193503D02*
X24457500D01*
X24469737Y12192123D01*
X24481363Y12188056D01*
X24491792Y12181503D01*
X24500500Y12172795D01*
X24507054Y12162365D01*
X24511121Y12150741D01*
X24512500Y12138503D01*
Y10848503D01*
X24511121Y10836264D01*
X24507054Y10824639D01*
X24500500Y10814211D01*
X24491792Y10805501D01*
X24481363Y10798949D01*
X24469737Y10794881D01*
X24457500Y10793502D01*
X23167500D01*
X23155263Y10794881D01*
X23143637Y10798949D01*
X23133208Y10805501D01*
X23124500Y10814211D01*
X23117946Y10824639D01*
X23113878Y10836264D01*
X23112500Y10848503D01*
Y12138503D01*
X23113878Y12150741D01*
X23117946Y12162365D01*
X23124500Y12172795D01*
X23133208Y12181503D01*
X23143637Y12188056D01*
X23155263Y12192123D01*
X23167500Y12193503D01*
D02*
G37*
G36*
X27498126Y10766002D02*
X27497433Y10772122D01*
X27495401Y10777934D01*
X27492126Y10783148D01*
X27487769Y10787503D01*
X27482556Y10790780D01*
X27476746Y10792814D01*
X27470624Y10793502D01*
X25869373D01*
X25863254Y10792813D01*
X25857443Y10790780D01*
X25852228Y10787503D01*
X25847876Y10783148D01*
X25844598Y10777934D01*
X25842563Y10772122D01*
X25841876Y10766002D01*
Y10698502D01*
X25839240Y10675137D01*
X25831476Y10652945D01*
X25818967Y10633036D01*
X25802341Y10616411D01*
X25782434Y10603901D01*
X25760239Y10596135D01*
X25736874Y10593503D01*
X25221875D01*
X25198509Y10596135D01*
X25176317Y10603901D01*
X25156409Y10616411D01*
X25139783Y10633036D01*
X25127274Y10652945D01*
X25119507Y10675137D01*
X25116875Y10698502D01*
Y10766002D01*
X25116183Y10772122D01*
X25114149Y10777934D01*
X25110875Y10783148D01*
X25106520Y10787503D01*
X25101306Y10790780D01*
X25095496Y10792813D01*
X25089374Y10793502D01*
X25072501D01*
X25060262Y10794881D01*
X25048637Y10798949D01*
X25038208Y10805501D01*
X25029498Y10814211D01*
X25022946Y10824639D01*
X25018878Y10836264D01*
X25017500Y10848503D01*
Y12138503D01*
X25018878Y12150741D01*
X25022946Y12162365D01*
X25029498Y12172795D01*
X25038208Y12181503D01*
X25048637Y12188056D01*
X25060262Y12192123D01*
X25072501Y12193503D01*
X28267499D01*
X28279739Y12192124D01*
X28291364Y12188056D01*
X28301791Y12181504D01*
X28310501Y12172795D01*
X28317053Y12162366D01*
X28321121Y12150741D01*
X28322501Y12138503D01*
Y10848503D01*
X28321121Y10836264D01*
X28317053Y10824639D01*
X28310501Y10814211D01*
X28301791Y10805502D01*
X28291364Y10798949D01*
X28279739Y10794881D01*
X28267499Y10793502D01*
X28250623D01*
X28244504Y10792814D01*
X28238693Y10790780D01*
X28233478Y10787503D01*
X28229126Y10783148D01*
X28225848Y10777934D01*
X28223813Y10772122D01*
X28223126Y10766002D01*
Y10698502D01*
X28220490Y10675138D01*
X28212726Y10652945D01*
X28200217Y10633036D01*
X28183591Y10616411D01*
X28163684Y10603901D01*
X28141489Y10596135D01*
X28118124Y10593503D01*
X27603125D01*
X27579758Y10596135D01*
X27557568Y10603901D01*
X27537659Y10616411D01*
X27521033Y10633036D01*
X27508524Y10652945D01*
X27500757Y10675138D01*
X27498126Y10698502D01*
Y10766002D01*
D02*
G37*
G36*
X25941251Y8328503D02*
Y7038503D01*
X25939871Y7026264D01*
X25935803Y7014639D01*
X25929251Y7004211D01*
X25920541Y6995502D01*
X25910114Y6988949D01*
X25898489Y6984881D01*
X25886249Y6983502D01*
X24596251D01*
X24584012Y6984881D01*
X24572388Y6988949D01*
X24561958Y6995502D01*
X24553249Y7004211D01*
X24546696Y7014639D01*
X24542630Y7026264D01*
X24541251Y7038503D01*
Y8328503D01*
X24542628Y8340741D01*
X24546696Y8352366D01*
X24553249Y8362795D01*
X24561958Y8371503D01*
X24572388Y8378056D01*
X24584012Y8382123D01*
X24596251Y8383503D01*
X25886249D01*
X25898489Y8382123D01*
X25910114Y8378056D01*
X25920541Y8371503D01*
X25929251Y8362795D01*
X25935803Y8352366D01*
X25939871Y8340741D01*
X25941251Y8328503D01*
D02*
G37*
G36*
X26484375Y7702878D02*
X26487006Y7726242D01*
X26494772Y7748435D01*
X26507281Y7768344D01*
X26523907Y7784970D01*
X26543817Y7797479D01*
X26566010Y7805245D01*
X26589374Y7807877D01*
X27879376Y7807878D01*
X27902740Y7805245D01*
X27924933Y7797479D01*
X27944839Y7784970D01*
X27961465Y7768344D01*
X27973978Y7748436D01*
X27981741Y7726243D01*
X27984375Y7702878D01*
Y7187877D01*
X27981744Y7164513D01*
X27973978Y7142320D01*
X27961469Y7122411D01*
X27944843Y7105785D01*
X27924933Y7093276D01*
X27902740Y7085510D01*
X27879376Y7082878D01*
X26589377Y7082877D01*
X26566010Y7085510D01*
X26543817Y7093276D01*
X26523911Y7105785D01*
X26507285Y7122411D01*
X26494775Y7142319D01*
X26487009Y7164512D01*
X26484375Y7187877D01*
Y7702878D01*
D02*
G37*
G36*
X26739374Y9336003D02*
X28029376D01*
X28041614Y9334624D01*
X28053238Y9330556D01*
X28063669Y9324004D01*
X28072375Y9315295D01*
X28078928Y9304866D01*
X28082996Y9293241D01*
X28084375Y9281003D01*
Y7991003D01*
X28082996Y7978764D01*
X28078928Y7967139D01*
X28072375Y7956711D01*
X28063669Y7948002D01*
X28053238Y7941449D01*
X28041614Y7937382D01*
X28029376Y7936002D01*
X26739374D01*
X26727136Y7937381D01*
X26715512Y7941449D01*
X26705081Y7948002D01*
X26696375Y7956711D01*
X26689822Y7967139D01*
X26685754Y7978764D01*
X26684375Y7991003D01*
Y9281003D01*
X26685754Y9293241D01*
X26689822Y9304866D01*
X26696375Y9315295D01*
X26705081Y9324003D01*
X26715512Y9330556D01*
X26727136Y9334624D01*
X26739374Y9336003D01*
D02*
G37*
G36*
X27984375Y9569128D02*
X27981741Y9545763D01*
X27973978Y9523569D01*
X27961465Y9503661D01*
X27944839Y9487035D01*
X27924933Y9474526D01*
X27902740Y9466760D01*
X27879376Y9464127D01*
X26589374D01*
X26566010Y9466760D01*
X26543817Y9474526D01*
X26523907Y9487035D01*
X26507281Y9503661D01*
X26494772Y9523569D01*
X26487006Y9545763D01*
X26484375Y9569127D01*
Y10084127D01*
X26487006Y10107492D01*
X26494772Y10129686D01*
X26507281Y10149594D01*
X26523907Y10166220D01*
X26543817Y10178729D01*
X26566010Y10186495D01*
X26589374Y10189128D01*
X27879376D01*
X27902740Y10186495D01*
X27924933Y10178729D01*
X27944839Y10166220D01*
X27961465Y10149594D01*
X27973978Y10129686D01*
X27981741Y10107492D01*
X27984375Y10084128D01*
Y9569128D01*
D02*
G37*
G36*
X25464999Y10233503D02*
Y8943503D01*
X25463620Y8931264D01*
X25459554Y8919639D01*
X25453001Y8909211D01*
X25444292Y8900501D01*
X25433862Y8893949D01*
X25422238Y8889881D01*
X25409999Y8888502D01*
X24120001D01*
X24107762Y8889881D01*
X24096136Y8893949D01*
X24085709Y8900501D01*
X24076999Y8909211D01*
X24070445Y8919639D01*
X24066377Y8931264D01*
X24064999Y8943503D01*
Y10233503D01*
X24066377Y10245741D01*
X24070445Y10257366D01*
X24076999Y10267795D01*
X24085709Y10276503D01*
X24096136Y10283056D01*
X24107762Y10287124D01*
X24120001Y10288503D01*
X25409999D01*
X25422238Y10287124D01*
X25433862Y10283056D01*
X25444292Y10276503D01*
X25453001Y10267795D01*
X25459554Y10257366D01*
X25463620Y10245741D01*
X25464999Y10233503D01*
D02*
G37*
G36*
X25703125Y6423503D02*
Y5133503D01*
X25701746Y5121264D01*
X25697678Y5109639D01*
X25691125Y5099211D01*
X25682419Y5090502D01*
X25671988Y5083949D01*
X25660364Y5079881D01*
X25648126Y5078502D01*
X24358125D01*
X24345886Y5079881D01*
X24334264Y5083949D01*
X24323833Y5090502D01*
X24315125Y5099211D01*
X24308572Y5109639D01*
X24304504Y5121264D01*
X24303123Y5133503D01*
Y6423503D01*
X24304504Y6435741D01*
X24308572Y6447366D01*
X24315125Y6457795D01*
X24323833Y6466503D01*
X24334264Y6473056D01*
X24345886Y6477123D01*
X24358125Y6478503D01*
X25648126D01*
X25660364Y6477123D01*
X25671988Y6473056D01*
X25682419Y6466503D01*
X25691125Y6457795D01*
X25697678Y6447366D01*
X25701746Y6435741D01*
X25703125Y6423503D01*
D02*
G37*
G36*
X26417499Y4518503D02*
Y3228503D01*
X26416122Y3216264D01*
X26412054Y3204639D01*
X26405502Y3194211D01*
X26396793Y3185502D01*
X26386362Y3178949D01*
X26374738Y3174882D01*
X26362500Y3173502D01*
X25072501Y3173502D01*
X25060262Y3174881D01*
X25048637Y3178949D01*
X25038208Y3185502D01*
X25029498Y3194210D01*
X25022946Y3204639D01*
X25018880Y3216264D01*
X25017500Y3228502D01*
Y4518503D01*
X25018880Y4530741D01*
X25022946Y4542366D01*
X25029498Y4552795D01*
X25038208Y4561503D01*
X25048637Y4568056D01*
X25060262Y4572123D01*
X25072501Y4573503D01*
X26362500D01*
X26374738Y4572123D01*
X26386362Y4568056D01*
X26396793Y4561503D01*
X26405502Y4552795D01*
X26412054Y4542366D01*
X26416122Y4530741D01*
X26417499Y4518503D01*
D02*
G37*
G36*
X28322501Y6423503D02*
Y5133503D01*
X28321121Y5121264D01*
X28317053Y5109639D01*
X28310501Y5099211D01*
X28301791Y5090502D01*
X28291364Y5083949D01*
X28279739Y5079882D01*
X28267499Y5078502D01*
X26977502D01*
X26965262Y5079882D01*
X26953638Y5083949D01*
X26943207Y5090502D01*
X26934500Y5099211D01*
X26927945Y5109639D01*
X26923880Y5121264D01*
X26922501Y5133503D01*
Y6423503D01*
X26923880Y6435741D01*
X26927945Y6447366D01*
X26934500Y6457795D01*
X26943207Y6466503D01*
X26953638Y6473056D01*
X26965262Y6477124D01*
X26977502Y6478503D01*
X28267499D01*
X28279739Y6477124D01*
X28291364Y6473056D01*
X28301791Y6466503D01*
X28310501Y6457795D01*
X28317053Y6447366D01*
X28321121Y6435741D01*
X28322501Y6423503D01*
D02*
G37*
G36*
Y4518503D02*
Y3228503D01*
X28321121Y3216264D01*
X28317053Y3204640D01*
X28310501Y3194211D01*
X28301791Y3185502D01*
X28291364Y3178949D01*
X28279739Y3174882D01*
X28267499Y3173502D01*
X26977502D01*
X26965262Y3174882D01*
X26953638Y3178949D01*
X26943207Y3185502D01*
X26934500Y3194211D01*
X26927945Y3204639D01*
X26923880Y3216264D01*
X26922501Y3228503D01*
Y4518503D01*
X26923880Y4530741D01*
X26927945Y4542366D01*
X26934500Y4552795D01*
X26943207Y4561503D01*
X26953638Y4568056D01*
X26965262Y4572124D01*
X26977502Y4573503D01*
X28267499D01*
X28279739Y4572124D01*
X28291364Y4568056D01*
X28301791Y4561503D01*
X28310501Y4552795D01*
X28317053Y4542366D01*
X28321121Y4530741D01*
X28322501Y4518503D01*
D02*
G37*
G36*
X23028749Y5078502D02*
X21738751D01*
X21726512Y5079881D01*
X21714886Y5083949D01*
X21704459Y5090501D01*
X21695749Y5099210D01*
X21689195Y5109639D01*
X21685130Y5121263D01*
X21683749Y5133502D01*
Y6423502D01*
X21685130Y6435741D01*
X21689195Y6447366D01*
X21695749Y6457794D01*
X21704459Y6466503D01*
X21714886Y6473055D01*
X21726512Y6477123D01*
X21738751Y6478502D01*
X23028749D01*
X23040988Y6477123D01*
X23052612Y6473055D01*
X23063042Y6466503D01*
X23071751Y6457794D01*
X23078304Y6447366D01*
X23082372Y6435741D01*
X23083749Y6423502D01*
Y5133502D01*
X23082372Y5121263D01*
X23078304Y5109639D01*
X23071751Y5099210D01*
X23063042Y5090501D01*
X23052612Y5083949D01*
X23040988Y5079881D01*
X23028749Y5078502D01*
D02*
G37*
G36*
X22607500Y12138503D02*
Y10848503D01*
X22606120Y10836264D01*
X22602054Y10824639D01*
X22595502Y10814211D01*
X22586792Y10805501D01*
X22576363Y10798949D01*
X22564738Y10794881D01*
X22552499Y10793502D01*
X21262502D01*
X21250262Y10794881D01*
X21238637Y10798949D01*
X21228207Y10805501D01*
X21219499Y10814211D01*
X21212946Y10824639D01*
X21208878Y10836264D01*
X21207500Y10848503D01*
Y12138503D01*
X21208878Y12150741D01*
X21212946Y12162365D01*
X21219499Y12172795D01*
X21228207Y12181503D01*
X21238637Y12188056D01*
X21250262Y12192123D01*
X21262502Y12193503D01*
X22552499D01*
X22564738Y12192123D01*
X22576363Y12188056D01*
X22586792Y12181503D01*
X22595502Y12172795D01*
X22602054Y12162365D01*
X22606120Y12150741D01*
X22607500Y12138503D01*
D02*
G37*
G36*
X22131250Y8328502D02*
Y7038502D01*
X22129872Y7026263D01*
X22125804Y7014639D01*
X22119250Y7004210D01*
X22110542Y6995501D01*
X22100113Y6988949D01*
X22088487Y6984881D01*
X22076250Y6983502D01*
X20786250D01*
X20774013Y6984881D01*
X20762387Y6988949D01*
X20751958Y6995501D01*
X20743250Y7004210D01*
X20736696Y7014638D01*
X20732629Y7026263D01*
X20731250Y7038502D01*
Y8328502D01*
X20732628Y8340741D01*
X20736696Y8352365D01*
X20743250Y8362794D01*
X20751958Y8371503D01*
X20762387Y8378055D01*
X20774013Y8382123D01*
X20786250Y8383502D01*
X22076250D01*
X22088487Y8382123D01*
X22100113Y8378055D01*
X22110542Y8371503D01*
X22119250Y8362794D01*
X22125804Y8352366D01*
X22129871Y8340741D01*
X22131250Y8328502D01*
D02*
G37*
G36*
X21655000Y10233503D02*
Y8943503D01*
X21653619Y8931264D01*
X21649554Y8919639D01*
X21643001Y8909211D01*
X21634293Y8900501D01*
X21623863Y8893949D01*
X21612238Y8889881D01*
X21599998Y8888502D01*
X20310001Y8888501D01*
X20297762Y8889881D01*
X20286137Y8893948D01*
X20275708Y8900501D01*
X20266998Y8909210D01*
X20260446Y8919639D01*
X20256378Y8931263D01*
X20255000Y8943502D01*
Y10233502D01*
X20256378Y10245740D01*
X20260446Y10257365D01*
X20266998Y10267794D01*
X20275708Y10276503D01*
X20286137Y10283055D01*
X20297762Y10287123D01*
X20310001Y10288502D01*
X21599998Y10288503D01*
X21612238Y10287123D01*
X21623863Y10283056D01*
X21634293Y10276503D01*
X21643001Y10267795D01*
X21649554Y10257365D01*
X21653619Y10245741D01*
X21655000Y10233503D01*
D02*
G37*
G36*
X21178751Y6423502D02*
Y5133502D01*
X21177373Y5121263D01*
X21173305Y5109639D01*
X21166751Y5099210D01*
X21158041Y5090501D01*
X21147614Y5083949D01*
X21135988Y5079881D01*
X21123749Y5078502D01*
X19833751D01*
X19821512Y5079881D01*
X19809888Y5083949D01*
X19799458Y5090501D01*
X19790749Y5099210D01*
X19784196Y5109638D01*
X19780130Y5121263D01*
X19778751Y5133502D01*
Y6423502D01*
X19780130Y6435741D01*
X19784196Y6447365D01*
X19790749Y6457794D01*
X19799458Y6466503D01*
X19809888Y6473055D01*
X19821512Y6477123D01*
X19833751Y6478502D01*
X21123749D01*
X21135988Y6477123D01*
X21147614Y6473055D01*
X21158041Y6466503D01*
X21166751Y6457794D01*
X21173305Y6447366D01*
X21177373Y6435741D01*
X21178751Y6423502D01*
D02*
G37*
G36*
X20365001Y4601002D02*
X20365691Y4594882D01*
X20367725Y4589070D01*
X20370999Y4583856D01*
X20375354Y4579502D01*
X20380568Y4576225D01*
X20386382Y4574192D01*
X20392500Y4573502D01*
X20885625D01*
X20897864Y4572123D01*
X20909489Y4568055D01*
X20919917Y4561503D01*
X20928627Y4552794D01*
X20935178Y4542365D01*
X20939246Y4530741D01*
X20940627Y4518502D01*
Y3228502D01*
X20939246Y3216263D01*
X20935178Y3204639D01*
X20928627Y3194210D01*
X20919917Y3185501D01*
X20909489Y3178949D01*
X20897864Y3174881D01*
X20885625Y3173502D01*
X19595625Y3173502D01*
X19583386Y3174881D01*
X19571764Y3178948D01*
X19561333Y3185501D01*
X19552625Y3194210D01*
X19546072Y3204638D01*
X19542004Y3216263D01*
X19540623Y3228502D01*
Y4518502D01*
X19542004Y4530741D01*
X19546072Y4542365D01*
X19552625Y4552794D01*
X19561333Y4561503D01*
X19571764Y4568055D01*
X19583386Y4572123D01*
X19595625Y4573502D01*
X19612500D01*
X19618620Y4574192D01*
X19624432Y4576225D01*
X19629646Y4579502D01*
X19634001Y4583856D01*
X19637276Y4589070D01*
X19639310Y4594882D01*
X19640001Y4601002D01*
Y4668502D01*
X19642633Y4691867D01*
X19650398Y4714060D01*
X19662907Y4733968D01*
X19679533Y4750594D01*
X19699443Y4763104D01*
X19721635Y4770869D01*
X19745001Y4773502D01*
X20260001D01*
X20283365Y4770869D01*
X20305559Y4763104D01*
X20325465Y4750594D01*
X20342091Y4733968D01*
X20354604Y4714060D01*
X20362367Y4691867D01*
X20365001Y4668502D01*
Y4601002D01*
D02*
G37*
G36*
X19302499Y12138502D02*
X19303877Y12150740D01*
X19307945Y12162365D01*
X19314499Y12172794D01*
X19323209Y12181503D01*
X19333636Y12188055D01*
X19345262Y12192123D01*
X19357501Y12193502D01*
X20647499D01*
X20659738Y12192123D01*
X20671362Y12188055D01*
X20681792Y12181503D01*
X20690501Y12172794D01*
X20697054Y12162365D01*
X20701120Y12150740D01*
X20702499Y12138502D01*
Y10848502D01*
X20701120Y10836263D01*
X20697054Y10824639D01*
X20690501Y10814210D01*
X20681792Y10805501D01*
X20671362Y10798948D01*
X20659738Y10794881D01*
X20647499Y10793501D01*
X19357501D01*
X19345262Y10794881D01*
X19333636Y10798948D01*
X19323209Y10805501D01*
X19314499Y10814210D01*
X19307945Y10824639D01*
X19303877Y10836263D01*
X19302499Y10848502D01*
Y12138502D01*
D02*
G37*
G36*
X19695000Y8888501D02*
X18405000D01*
X18392763Y8889881D01*
X18381137Y8893948D01*
X18370708Y8900501D01*
X18362000Y8909210D01*
X18355446Y8919639D01*
X18351378Y8931263D01*
X18350000Y8943502D01*
Y10233502D01*
X18351378Y10245740D01*
X18355446Y10257365D01*
X18362000Y10267794D01*
X18370708Y10276503D01*
X18381137Y10283055D01*
X18392763Y10287123D01*
X18405000Y10288502D01*
X19695000D01*
X19707237Y10287123D01*
X19718863Y10283055D01*
X19729292Y10276503D01*
X19738000Y10267794D01*
X19744554Y10257365D01*
X19748621Y10245740D01*
X19750000Y10233502D01*
Y8943502D01*
X19748621Y8931263D01*
X19744554Y8919639D01*
X19738000Y8909210D01*
X19729292Y8900501D01*
X19718863Y8893948D01*
X19707237Y8889881D01*
X19695000Y8888501D01*
D02*
G37*
G36*
X20171249Y6983502D02*
X18881252D01*
X18869012Y6984881D01*
X18857387Y6988949D01*
X18846957Y6995501D01*
X18838249Y7004210D01*
X18831696Y7014638D01*
X18827628Y7026263D01*
X18826250Y7038502D01*
Y8328502D01*
X18827628Y8340741D01*
X18831696Y8352365D01*
X18838249Y8362794D01*
X18846957Y8371503D01*
X18857387Y8378055D01*
X18869012Y8382123D01*
X18881252Y8383502D01*
X20171249D01*
X20183488Y8382123D01*
X20195113Y8378055D01*
X20205542Y8371503D01*
X20214252Y8362794D01*
X20220804Y8352365D01*
X20224870Y8340741D01*
X20226250Y8328502D01*
Y7038502D01*
X20224872Y7026263D01*
X20220804Y7014638D01*
X20214252Y7004210D01*
X20205542Y6995501D01*
X20195113Y6988949D01*
X20183488Y6984881D01*
X20171249Y6983502D01*
D02*
G37*
G36*
X11580399Y12446001D02*
X11563154Y12447945D01*
X11546774Y12453676D01*
X11532080Y12462909D01*
X11519807Y12475181D01*
X11510575Y12489875D01*
X11504843Y12506256D01*
X11502900Y12523501D01*
Y12596001D01*
X11504843Y12613247D01*
X11510575Y12629627D01*
X11519807Y12644321D01*
X11532080Y12656593D01*
X11546774Y12665826D01*
X11563154Y12671558D01*
X11580399Y12673501D01*
X15007298D01*
X15024326Y12675395D01*
X15040521Y12680984D01*
X15055093Y12689994D01*
X15067329Y12701986D01*
X15076631Y12716373D01*
X15082545Y12732453D01*
X15084782Y12749439D01*
X15083232Y12766501D01*
X15080003Y12799642D01*
X15083705Y12832733D01*
X15094176Y12864342D01*
X15110960Y12893100D01*
X15133334Y12917760D01*
X15160329Y12937254D01*
X15190775Y12950742D01*
X15223351Y12957632D01*
X15256648Y12957632D01*
X15289224Y12950742D01*
X15319670Y12937254D01*
X15346664Y12917760D01*
X15369038Y12893102D01*
X15385825Y12864343D01*
X15396294Y12832735D01*
X15399995Y12799643D01*
X15396767Y12766502D01*
X15395216Y12749440D01*
X15397453Y12732453D01*
X15403368Y12716374D01*
X15412669Y12701986D01*
X15424905Y12689994D01*
X15439478Y12680985D01*
X15455673Y12675396D01*
X15472702Y12673502D01*
X18899599D01*
X18916846Y12671559D01*
X18933224Y12665827D01*
X18947920Y12656593D01*
X18960191Y12644322D01*
X18969424Y12629628D01*
X18975157Y12613247D01*
X18977100Y12596002D01*
Y12523501D01*
X18975157Y12506257D01*
X18969424Y12489876D01*
X18960191Y12475182D01*
X18947920Y12462910D01*
X18933224Y12453677D01*
X18916846Y12447945D01*
X18899599Y12446002D01*
X11580399Y12446001D01*
D02*
G37*
G36*
X23252899Y2921002D02*
X29304599Y2921003D01*
X29321844Y2919060D01*
X29338226Y2913328D01*
X29352921Y2904095D01*
X29365192Y2891823D01*
X29374426Y2877129D01*
X29380157Y2860748D01*
X29382101Y2843503D01*
Y2771003D01*
X29380157Y2753758D01*
X29374426Y2737377D01*
X29365192Y2722683D01*
X29352921Y2710411D01*
X29338226Y2701178D01*
X29321844Y2695446D01*
X29304599Y2693503D01*
X27145200Y2693503D01*
X27128174Y2691609D01*
X27111978Y2686020D01*
X27097406Y2677010D01*
X27085172Y2665018D01*
X27075867Y2650631D01*
X27069955Y2634551D01*
X27067719Y2617565D01*
X27069269Y2600502D01*
X27072498Y2567361D01*
X27068796Y2534270D01*
X27058325Y2502661D01*
X27041537Y2473904D01*
X27019165Y2449244D01*
X26992172Y2429749D01*
X26961725Y2416263D01*
X26929150Y2409371D01*
X26895850D01*
X26863275Y2416263D01*
X26832831Y2429749D01*
X26805835Y2449244D01*
X26783463Y2473904D01*
X26766675Y2502661D01*
X26756207Y2534270D01*
X26752505Y2567361D01*
X26755731Y2600502D01*
X26757281Y2617565D01*
X26755048Y2634551D01*
X26749133Y2650631D01*
X26739828Y2665018D01*
X26727594Y2677010D01*
X26713022Y2686020D01*
X26696826Y2691609D01*
X26679797Y2693503D01*
X23252899Y2693503D01*
X23235657Y2695445D01*
X23219273Y2701177D01*
X23204581Y2710410D01*
X23192310Y2722682D01*
X23183076Y2737377D01*
X23177344Y2753757D01*
X23175401Y2771002D01*
Y2843502D01*
X23177344Y2860747D01*
X23183076Y2877128D01*
X23192310Y2891823D01*
X23204581Y2904094D01*
X23219273Y2913327D01*
X23235657Y2919059D01*
X23252899Y2921002D01*
D02*
G37*
G36*
X11580401Y2693502D02*
X11563155Y2695444D01*
X11546774Y2701176D01*
X11532080Y2710409D01*
X11519808Y2722681D01*
X11510575Y2737376D01*
X11504844Y2753756D01*
X11502900Y2771001D01*
Y2843501D01*
X11504844Y2860746D01*
X11510575Y2877127D01*
X11519808Y2891822D01*
X11532080Y2904093D01*
X11546774Y2913326D01*
X11563155Y2919058D01*
X11580401Y2921001D01*
X18899599Y2921002D01*
X18916846Y2919059D01*
X18933228Y2913327D01*
X18947920Y2904094D01*
X18960191Y2891822D01*
X18969424Y2877128D01*
X18975157Y2860747D01*
X18977100Y2843502D01*
Y2771002D01*
X18975157Y2753756D01*
X18969424Y2737376D01*
X18960191Y2722682D01*
X18947920Y2710410D01*
X18933228Y2701177D01*
X18916846Y2695445D01*
X18899599Y2693502D01*
X15472702Y2693502D01*
X15455675Y2691608D01*
X15439478Y2686019D01*
X15424907Y2677009D01*
X15412669Y2665017D01*
X15403369Y2650630D01*
X15397455Y2634550D01*
X15395216Y2617564D01*
X15396768Y2600501D01*
X15399997Y2567360D01*
X15396295Y2534269D01*
X15385825Y2502660D01*
X15369038Y2473903D01*
X15346664Y2449243D01*
X15319672Y2429748D01*
X15289226Y2416262D01*
X15256648Y2409370D01*
X15223352D01*
X15190775Y2416262D01*
X15160330Y2429748D01*
X15133336Y2449243D01*
X15110960Y2473903D01*
X15094176Y2502660D01*
X15083707Y2534269D01*
X15080003Y2567360D01*
X15083234Y2600501D01*
X15084782Y2617564D01*
X15082545Y2634550D01*
X15076633Y2650630D01*
X15067329Y2665017D01*
X15055093Y2677009D01*
X15040521Y2686019D01*
X15024327Y2691608D01*
X15007298Y2693502D01*
X11580401Y2693502D01*
D02*
G37*
G36*
X23252899Y12673502D02*
X26679797D01*
X26696826Y12675396D01*
X26713022Y12680985D01*
X26727594Y12689995D01*
X26739828Y12701987D01*
X26749133Y12716374D01*
X26755045Y12732454D01*
X26757281Y12749440D01*
X26755731Y12766502D01*
X26752502Y12799643D01*
X26756207Y12832735D01*
X26766675Y12864343D01*
X26783463Y12893102D01*
X26805835Y12917761D01*
X26832828Y12937256D01*
X26863275Y12950743D01*
X26895850Y12957634D01*
X26929150D01*
X26961725Y12950743D01*
X26992169Y12937256D01*
X27019165Y12917761D01*
X27041537Y12893102D01*
X27058325Y12864343D01*
X27068793Y12832735D01*
X27072498Y12799644D01*
X27069269Y12766503D01*
X27067719Y12749441D01*
X27069955Y12732454D01*
X27075867Y12716375D01*
X27085172Y12701987D01*
X27097406Y12689995D01*
X27111978Y12680986D01*
X27128174Y12675397D01*
X27145200Y12673503D01*
X29304599D01*
X29321844Y12671560D01*
X29338226Y12665828D01*
X29352921Y12656594D01*
X29365192Y12644323D01*
X29374426Y12629629D01*
X29380157Y12613248D01*
X29382101Y12596003D01*
Y12523503D01*
X29380157Y12506258D01*
X29374426Y12489877D01*
X29365192Y12475183D01*
X29352921Y12462911D01*
X29338226Y12453678D01*
X29321844Y12447946D01*
X29304599Y12446003D01*
X23252899Y12446002D01*
X23235654Y12447946D01*
X23219273Y12453677D01*
X23204578Y12462910D01*
X23192307Y12475182D01*
X23183073Y12489876D01*
X23177344Y12506257D01*
X23175398Y12523503D01*
Y12596002D01*
X23177344Y12613248D01*
X23183073Y12629628D01*
X23192307Y12644322D01*
X23204578Y12656594D01*
X23219273Y12665827D01*
X23235654Y12671559D01*
X23252899Y12673502D01*
D02*
G37*
G36*
X6498751Y6478501D02*
X7788750Y6478501D01*
X7800989Y6477122D01*
X7812613Y6473054D01*
X7823042Y6466502D01*
X7831751Y6457793D01*
X7838303Y6447364D01*
X7842371Y6435740D01*
X7843750Y6423501D01*
Y5133501D01*
X7842371Y5121262D01*
X7838303Y5109637D01*
X7831751Y5099209D01*
X7823042Y5090500D01*
X7812613Y5083948D01*
X7800989Y5079880D01*
X7788750Y5078501D01*
X6498751Y5078500D01*
X6486512Y5079880D01*
X6474887Y5083947D01*
X6464458Y5090500D01*
X6455749Y5099208D01*
X6449196Y5109637D01*
X6445129Y5121262D01*
X6443750Y5133501D01*
Y6423500D01*
X6445129Y6435739D01*
X6449196Y6447364D01*
X6455749Y6457793D01*
X6464458Y6466501D01*
X6474887Y6473054D01*
X6486512Y6477122D01*
X6498751Y6478501D01*
D02*
G37*
G36*
X4510000Y10233500D02*
Y8943501D01*
X4508621Y8931262D01*
X4504554Y8919637D01*
X4498001Y8909208D01*
X4489292Y8900500D01*
X4478863Y8893947D01*
X4467238Y8889879D01*
X4454999Y8888500D01*
X3165001D01*
X3152762Y8889879D01*
X3141137Y8893947D01*
X3130708Y8900499D01*
X3121999Y8909208D01*
X3115446Y8919637D01*
X3111379Y8931262D01*
X3110000Y8943501D01*
X3110000Y10233500D01*
X3111379Y10245739D01*
X3115446Y10257364D01*
X3121999Y10267793D01*
X3130708Y10276501D01*
X3141136Y10283054D01*
X3152762Y10287122D01*
X3165000Y10288501D01*
X4454999D01*
X4467238Y10287122D01*
X4478863Y10283054D01*
X4489292Y10276502D01*
X4498001Y10267793D01*
X4504554Y10257364D01*
X4508621Y10245739D01*
X4510000Y10233500D01*
D02*
G37*
G36*
X6415000D02*
Y8943501D01*
X6413621Y8931262D01*
X6409554Y8919637D01*
X6403001Y8909208D01*
X6394292Y8900500D01*
X6383863Y8893947D01*
X6372238Y8889879D01*
X6359999Y8888500D01*
X5070001D01*
X5057762Y8889879D01*
X5046137Y8893947D01*
X5035708Y8900500D01*
X5026999Y8909208D01*
X5020446Y8919637D01*
X5016379Y8931262D01*
X5015000Y8943501D01*
Y10233500D01*
X5016379Y10245739D01*
X5020446Y10257364D01*
X5026999Y10267793D01*
X5035708Y10276502D01*
X5046137Y10283054D01*
X5057762Y10287122D01*
X5070001Y10288501D01*
X6359999D01*
X6372238Y10287122D01*
X6383863Y10283054D01*
X6394292Y10276502D01*
X6403001Y10267793D01*
X6409554Y10257364D01*
X6413621Y10245739D01*
X6415000Y10233500D01*
D02*
G37*
G36*
X4986250Y8328500D02*
Y7038501D01*
X4984871Y7026262D01*
X4980804Y7014637D01*
X4974251Y7004208D01*
X4965542Y6995500D01*
X4955113Y6988947D01*
X4943488Y6984880D01*
X4931249Y6983500D01*
X3641251D01*
X3629012Y6984880D01*
X3617387Y6988947D01*
X3606958Y6995500D01*
X3598249Y7004208D01*
X3591696Y7014637D01*
X3587629Y7026262D01*
X3586250Y7038501D01*
Y8328500D01*
X3587629Y8340739D01*
X3591696Y8352364D01*
X3598249Y8362793D01*
X3606958Y8371501D01*
X3617387Y8378054D01*
X3629012Y8382122D01*
X3641251Y8383501D01*
X4931249D01*
X4943488Y8382122D01*
X4955113Y8378054D01*
X4965542Y8371501D01*
X4974251Y8362793D01*
X4980804Y8352364D01*
X4984871Y8340739D01*
X4986250Y8328500D01*
D02*
G37*
G36*
X5462499Y12138500D02*
Y10848501D01*
X5461120Y10836262D01*
X5457053Y10824637D01*
X5450500Y10814208D01*
X5441791Y10805500D01*
X5431363Y10798947D01*
X5419738Y10794879D01*
X5407499Y10793500D01*
X4117500D01*
X4105262Y10794879D01*
X4093636Y10798947D01*
X4083208Y10805500D01*
X4074499Y10814208D01*
X4067946Y10824637D01*
X4063879Y10836262D01*
X4062500Y10848501D01*
X4062500Y12138500D01*
X4063879Y12150739D01*
X4067946Y12162364D01*
X4074499Y12172793D01*
X4083208Y12181502D01*
X4093636Y12188054D01*
X4105261Y12192122D01*
X4117500Y12193501D01*
X5407499D01*
X5419738Y12192122D01*
X5431363Y12188054D01*
X5441791Y12181502D01*
X5450500Y12172793D01*
X5457053Y12162364D01*
X5461120Y12150739D01*
X5462499Y12138500D01*
D02*
G37*
G36*
X6891250Y8328501D02*
Y7038501D01*
X6889871Y7026262D01*
X6885803Y7014637D01*
X6879251Y7004209D01*
X6870542Y6995500D01*
X6860113Y6988948D01*
X6848489Y6984880D01*
X6836250Y6983501D01*
X5546251Y6983500D01*
X5534012Y6984880D01*
X5522387Y6988947D01*
X5511958Y6995500D01*
X5503249Y7004208D01*
X5496696Y7014637D01*
X5492629Y7026262D01*
X5491250Y7038501D01*
Y8328500D01*
X5492629Y8340739D01*
X5496696Y8352364D01*
X5503249Y8362793D01*
X5511958Y8371501D01*
X5522387Y8378054D01*
X5534012Y8382122D01*
X5546251Y8383501D01*
X6836250Y8383501D01*
X6848489Y8382122D01*
X6860113Y8378054D01*
X6870542Y8371502D01*
X6879251Y8362793D01*
X6885803Y8352364D01*
X6889871Y8340740D01*
X6891250Y8328501D01*
D02*
G37*
G36*
X5938750Y6423500D02*
Y5133501D01*
X5937371Y5121262D01*
X5933304Y5109637D01*
X5926751Y5099208D01*
X5918042Y5090500D01*
X5907613Y5083947D01*
X5895988Y5079880D01*
X5883749Y5078500D01*
X4593751D01*
X4581512Y5079880D01*
X4569887Y5083947D01*
X4559458Y5090500D01*
X4550749Y5099208D01*
X4544196Y5109637D01*
X4540129Y5121262D01*
X4538750Y5133501D01*
Y6423500D01*
X4540129Y6435739D01*
X4544196Y6447364D01*
X4550749Y6457793D01*
X4559458Y6466501D01*
X4569887Y6473054D01*
X4581512Y6477122D01*
X4593751Y6478501D01*
X5883749D01*
X5895988Y6477122D01*
X5907613Y6473054D01*
X5918042Y6466501D01*
X5926751Y6457793D01*
X5933304Y6447364D01*
X5937371Y6435739D01*
X5938750Y6423500D01*
D02*
G37*
G36*
X5308125Y4573501D02*
X6836250Y4573501D01*
X6848489Y4572122D01*
X6860114Y4568054D01*
X6870543Y4561502D01*
X6879251Y4552793D01*
X6885804Y4542364D01*
X6889871Y4530740D01*
X6891251Y4518501D01*
Y3228501D01*
X6889871Y3216262D01*
X6885804Y3204637D01*
X6879251Y3194209D01*
X6870543Y3185500D01*
X6860114Y3178947D01*
X6848489Y3174880D01*
X6836250Y3173501D01*
X5308125D01*
X5295886Y3174880D01*
X5284262Y3178947D01*
X5273833Y3185500D01*
X5265125Y3194209D01*
X5258573Y3204637D01*
X5254505Y3216262D01*
X5253125Y3228501D01*
Y4518500D01*
X5254505Y4530739D01*
X5258573Y4542364D01*
X5265125Y4552793D01*
X5273833Y4561501D01*
X5284262Y4568054D01*
X5295886Y4572122D01*
X5308125Y4573501D01*
D02*
G37*
G36*
X4455000Y3173500D02*
X2926875D01*
X2914636Y3174880D01*
X2903012Y3178947D01*
X2892583Y3185500D01*
X2883875Y3194208D01*
X2877323Y3204637D01*
X2873255Y3216262D01*
X2871875Y3228501D01*
X2871875Y4518500D01*
X2873254Y4530739D01*
X2877322Y4542364D01*
X2883875Y4552793D01*
X2892583Y4561501D01*
X2903012Y4568054D01*
X2914636Y4572121D01*
X2926875Y4573501D01*
X4455000D01*
X4467239Y4572122D01*
X4478864Y4568054D01*
X4489292Y4561501D01*
X4498001Y4552793D01*
X4504554Y4542364D01*
X4508621Y4530739D01*
X4510000Y4518500D01*
Y3228501D01*
X4508621Y3216262D01*
X4504554Y3204637D01*
X4498001Y3194208D01*
X4489292Y3185500D01*
X4478864Y3178947D01*
X4467239Y3174880D01*
X4455000Y3173500D01*
D02*
G37*
G36*
X3557499Y12138500D02*
X3557499Y10848501D01*
X3556121Y10836262D01*
X3552054Y10824637D01*
X3545500Y10814208D01*
X3536791Y10805499D01*
X3526363Y10798947D01*
X3514738Y10794879D01*
X3502499Y10793500D01*
X2212500D01*
X2200262Y10794879D01*
X2188636Y10798947D01*
X2178208Y10805499D01*
X2169499Y10814208D01*
X2162946Y10824637D01*
X2158879Y10836262D01*
X2157500Y10848501D01*
X2157500Y12138500D01*
X2158879Y12150739D01*
X2162946Y12162363D01*
X2169499Y12172793D01*
X2178208Y12181501D01*
X2188636Y12188054D01*
X2200261Y12192121D01*
X2212500Y12193501D01*
X3502499D01*
X3514738Y12192121D01*
X3526363Y12188054D01*
X3536791Y12181501D01*
X3545500Y12172793D01*
X3552053Y12162363D01*
X3556120Y12150739D01*
X3557499Y12138500D01*
D02*
G37*
G36*
X4033750Y6423500D02*
X4033750Y5133501D01*
X4032371Y5121262D01*
X4028304Y5109637D01*
X4021751Y5099208D01*
X4013042Y5090500D01*
X4002614Y5083947D01*
X3990988Y5079880D01*
X3978750Y5078500D01*
X2688751D01*
X2676512Y5079879D01*
X2664887Y5083947D01*
X2654459Y5090500D01*
X2645750Y5099208D01*
X2639196Y5109637D01*
X2635129Y5121262D01*
X2633751Y5133501D01*
X2633750Y6423500D01*
X2635129Y6435739D01*
X2639196Y6447364D01*
X2645749Y6457793D01*
X2654458Y6466501D01*
X2664887Y6473054D01*
X2676512Y6477121D01*
X2688751Y6478501D01*
X3978749D01*
X3990988Y6477122D01*
X4002613Y6473054D01*
X4013042Y6466501D01*
X4021751Y6457793D01*
X4028304Y6447364D01*
X4032371Y6435739D01*
X4033750Y6423500D01*
D02*
G37*
G36*
X545625Y4573500D02*
X2073750Y4573501D01*
X2085988Y4572121D01*
X2097614Y4568054D01*
X2108042Y4561501D01*
X2116751Y4552793D01*
X2123304Y4542364D01*
X2127371Y4530739D01*
X2128750Y4518500D01*
X2128750Y3228500D01*
X2127371Y3216262D01*
X2123304Y3204637D01*
X2116751Y3194208D01*
X2108042Y3185500D01*
X2097614Y3178947D01*
X2085989Y3174879D01*
X2073750Y3173500D01*
X545625D01*
X533386Y3174879D01*
X521762Y3178947D01*
X511333Y3185500D01*
X502625Y3194208D01*
X496073Y3204637D01*
X492005Y3216262D01*
X490625Y3228500D01*
X490625Y4518500D01*
X492004Y4530739D01*
X496072Y4542364D01*
X502625Y4552792D01*
X511333Y4561501D01*
X521762Y4568053D01*
X533386Y4572121D01*
X545625Y4573500D01*
D02*
G37*
G36*
X545625Y6478500D02*
X1835625Y6478501D01*
X1847864Y6477121D01*
X1859488Y6473054D01*
X1869918Y6466501D01*
X1878626Y6457793D01*
X1885178Y6447364D01*
X1889246Y6435739D01*
X1890626Y6423500D01*
X1890626Y5133501D01*
X1889246Y5121262D01*
X1885178Y5109637D01*
X1878626Y5099208D01*
X1869918Y5090500D01*
X1859489Y5083947D01*
X1847864Y5079879D01*
X1835626Y5078500D01*
X545625Y5078500D01*
X533386Y5079879D01*
X521762Y5083947D01*
X511333Y5090499D01*
X502625Y5099208D01*
X496072Y5109637D01*
X492004Y5121261D01*
X490625Y5133500D01*
X490624Y6423500D01*
X492004Y6435739D01*
X496072Y6447364D01*
X502624Y6457792D01*
X511332Y6466501D01*
X521762Y6473053D01*
X533386Y6477121D01*
X545625Y6478500D01*
D02*
G37*
G36*
Y8383500D02*
X2311875Y8383501D01*
X2324114Y8382121D01*
X2335738Y8378054D01*
X2346168Y8371501D01*
X2354876Y8362793D01*
X2361428Y8352364D01*
X2365496Y8340739D01*
X2366876Y8328500D01*
Y7038501D01*
X2365496Y7026262D01*
X2361428Y7014637D01*
X2354876Y7004208D01*
X2346168Y6995500D01*
X2335738Y6988947D01*
X2324114Y6984879D01*
X2311875Y6983500D01*
X545625Y6983500D01*
X533386Y6984879D01*
X521762Y6988947D01*
X511332Y6995499D01*
X502624Y7004208D01*
X496072Y7014637D01*
X492004Y7026261D01*
X490624Y7038500D01*
Y8328500D01*
X492004Y8340739D01*
X496072Y8352364D01*
X502624Y8362792D01*
X511332Y8371501D01*
X521762Y8378053D01*
X533386Y8382121D01*
X545625Y8383500D01*
D02*
G37*
G36*
X783750Y10288501D02*
X2073749D01*
X2085988Y10287122D01*
X2097613Y10283054D01*
X2108041Y10276501D01*
X2116750Y10267793D01*
X2123304Y10257364D01*
X2127371Y10245739D01*
X2128749Y10233500D01*
X2128750Y8943501D01*
X2127371Y8931262D01*
X2123304Y8919637D01*
X2116751Y8909208D01*
X2108042Y8900499D01*
X2097613Y8893947D01*
X2085988Y8889879D01*
X2073749Y8888500D01*
X783751D01*
X771512Y8889879D01*
X759887Y8893947D01*
X749458Y8900499D01*
X740749Y8909208D01*
X734196Y8919637D01*
X730129Y8931262D01*
X728750Y8943501D01*
X728750Y10233500D01*
X730129Y10245739D01*
X734196Y10257364D01*
X740749Y10267793D01*
X749458Y10276501D01*
X759886Y10283054D01*
X771512Y10287122D01*
X783750Y10288501D01*
D02*
G37*
G36*
X307500Y12193501D02*
X1597499D01*
X1609738Y12192121D01*
X1621363Y12188054D01*
X1631791Y12181501D01*
X1640500Y12172793D01*
X1647053Y12162363D01*
X1651120Y12150739D01*
X1652499Y12138500D01*
X1652499Y10848501D01*
X1651121Y10836262D01*
X1647054Y10824637D01*
X1640500Y10814208D01*
X1631791Y10805499D01*
X1621363Y10798947D01*
X1609738Y10794879D01*
X1597499Y10793500D01*
X307500D01*
X295262Y10794879D01*
X283636Y10798947D01*
X273208Y10805499D01*
X264499Y10814208D01*
X257946Y10824637D01*
X253879Y10836262D01*
X252500Y10848501D01*
X252500Y12138500D01*
X253879Y12150739D01*
X257946Y12162363D01*
X264499Y12172793D01*
X273208Y12181501D01*
X283636Y12188054D01*
X295261Y12192121D01*
X307500Y12193501D01*
D02*
G37*
G36*
X7304601Y2843501D02*
Y2771001D01*
X7302657Y2753755D01*
X7296926Y2737375D01*
X7287692Y2722681D01*
X7275421Y2710409D01*
X7260727Y2701176D01*
X7244346Y2695444D01*
X7227101Y2693501D01*
X3800202Y2693501D01*
X3783174Y2691607D01*
X3766979Y2686018D01*
X3752408Y2677008D01*
X3740171Y2665016D01*
X3730868Y2650629D01*
X3724954Y2634549D01*
X3722718Y2617563D01*
X3724268Y2600500D01*
X3727496Y2567359D01*
X3723795Y2534268D01*
X3713326Y2502659D01*
X3696540Y2473902D01*
X3674165Y2449242D01*
X3647171Y2429747D01*
X3616726Y2416261D01*
X3584150Y2409369D01*
X3550851D01*
X3518274Y2416261D01*
X3487830Y2429747D01*
X3460836Y2449242D01*
X3438461Y2473902D01*
X3421675Y2502659D01*
X3411205Y2534268D01*
X3407504Y2567359D01*
X3410733Y2600500D01*
X3412283Y2617563D01*
X3410046Y2634549D01*
X3404133Y2650629D01*
X3394830Y2665016D01*
X3382594Y2677008D01*
X3368022Y2686018D01*
X3351827Y2691607D01*
X3334799Y2693501D01*
X1175401Y2693501D01*
X1158155Y2695443D01*
X1141774Y2701175D01*
X1127080Y2710408D01*
X1114809Y2722680D01*
X1105575Y2737375D01*
X1099844Y2753755D01*
X1097900Y2771000D01*
Y2843500D01*
X1099844Y2860745D01*
X1105575Y2877126D01*
X1114809Y2891821D01*
X1127080Y2904092D01*
X1141774Y2913325D01*
X1158155Y2919057D01*
X1175401Y2921000D01*
X7227101Y2921001D01*
X7244346Y2919058D01*
X7260727Y2913326D01*
X7275421Y2904092D01*
X7287692Y2891821D01*
X7296926Y2877127D01*
X7302657Y2860746D01*
X7304601Y2843501D01*
D02*
G37*
G36*
X6975000Y10288501D02*
X8265000D01*
X8277239Y10287122D01*
X8288863Y10283054D01*
X8299292Y10276502D01*
X8308001Y10267793D01*
X8314553Y10257364D01*
X8318621Y10245739D01*
X8320000Y10233500D01*
Y8943501D01*
X8318621Y8931262D01*
X8314553Y8919638D01*
X8308001Y8909208D01*
X8299292Y8900500D01*
X8288863Y8893947D01*
X8277239Y8889880D01*
X8265000Y8888500D01*
X6975000D01*
X6962761Y8889880D01*
X6951137Y8893947D01*
X6940708Y8900500D01*
X6931999Y8909208D01*
X6925447Y8919638D01*
X6921379Y8931262D01*
X6920000Y8943501D01*
Y10233500D01*
X6921379Y10245739D01*
X6925447Y10257364D01*
X6931999Y10267793D01*
X6940708Y10276502D01*
X6951137Y10283054D01*
X6962761Y10287122D01*
X6975000Y10288501D01*
D02*
G37*
G36*
X6022500Y12193501D02*
X7312499D01*
X7324738Y12192122D01*
X7336363Y12188054D01*
X7346792Y12181502D01*
X7355500Y12172793D01*
X7362053Y12162364D01*
X7366120Y12150739D01*
X7367500Y12138500D01*
Y10848501D01*
X7366120Y10836262D01*
X7362053Y10824638D01*
X7355500Y10814208D01*
X7346792Y10805500D01*
X7336363Y10798947D01*
X7324738Y10794880D01*
X7312499Y10793500D01*
X6022500D01*
X6010261Y10794879D01*
X5998636Y10798947D01*
X5988208Y10805500D01*
X5979499Y10814208D01*
X5972946Y10824637D01*
X5968879Y10836262D01*
X5967500Y10848501D01*
Y12138500D01*
X5968879Y12150739D01*
X5972946Y12162364D01*
X5979499Y12172793D01*
X5988208Y12181502D01*
X5998636Y12188054D01*
X6010261Y12192122D01*
X6022500Y12193501D01*
D02*
G37*
G36*
X7227100Y12446001D02*
X1175400Y12446000D01*
X1158154Y12447944D01*
X1141773Y12453675D01*
X1127079Y12462908D01*
X1114808Y12475180D01*
X1105574Y12489874D01*
X1099843Y12506255D01*
X1097899Y12523500D01*
Y12596000D01*
X1099843Y12613246D01*
X1105574Y12629626D01*
X1114808Y12644320D01*
X1127079Y12656592D01*
X1141773Y12665825D01*
X1158154Y12671557D01*
X1175400Y12673500D01*
X3334798D01*
X3351826Y12675393D01*
X3368021Y12680983D01*
X3382593Y12689993D01*
X3394829Y12701985D01*
X3404132Y12716372D01*
X3410045Y12732452D01*
X3412282Y12749438D01*
X3410732Y12766500D01*
X3407503Y12799641D01*
X3411204Y12832732D01*
X3421674Y12864342D01*
X3438460Y12893098D01*
X3460835Y12917760D01*
X3487829Y12937254D01*
X3518273Y12950740D01*
X3550850Y12957631D01*
X3584149D01*
X3616725Y12950740D01*
X3647170Y12937254D01*
X3674164Y12917760D01*
X3696539Y12893100D01*
X3713325Y12864342D01*
X3723794Y12832733D01*
X3727495Y12799642D01*
X3724267Y12766501D01*
X3722717Y12749439D01*
X3724953Y12732452D01*
X3730867Y12716373D01*
X3740170Y12701985D01*
X3752407Y12689993D01*
X3766978Y12680984D01*
X3783173Y12675395D01*
X3800201Y12673501D01*
X7227100D01*
X7244345Y12671558D01*
X7260726Y12665826D01*
X7275420Y12656592D01*
X7287691Y12644321D01*
X7296925Y12629627D01*
X7302656Y12613246D01*
X7304600Y12596001D01*
Y12523500D01*
X7302656Y12506256D01*
X7296925Y12489875D01*
X7287691Y12475181D01*
X7275420Y12462909D01*
X7260726Y12453676D01*
X7244345Y12447944D01*
X7227100Y12446001D01*
D02*
G37*
D11*
X7687500Y2921001D02*
X11120000Y2921001D01*
X11137246Y2919058D01*
X11153627Y2913326D01*
X11168321Y2904093D01*
X11180592Y2891822D01*
X11189826Y2877127D01*
X11195557Y2860746D01*
X11197501Y2843501D01*
Y2558502D01*
X11200760Y2529574D01*
X11210374Y2502096D01*
X11225862Y2477448D01*
X11246446Y2456863D01*
X11271096Y2441375D01*
X11298572Y2431761D01*
X11327501Y2428501D01*
X14951688Y2428502D01*
X14978091Y2425791D01*
X15003398Y2417774D01*
X15026547Y2404784D01*
X15046574Y2387362D01*
X15087401Y2351849D01*
X15134589Y2325369D01*
X15186172Y2309026D01*
X15239999Y2303502D01*
X15293829Y2309026D01*
X15345412Y2325369D01*
X15392599Y2351849D01*
X15433426Y2387362D01*
X15453455Y2404784D01*
X15476604Y2417774D01*
X15501909Y2425791D01*
X15528314Y2428502D01*
X19152499Y2428502D01*
X19181429Y2431761D01*
X19208904Y2441376D01*
X19233556Y2456864D01*
X19254140Y2477448D01*
X19269627Y2502097D01*
X19279240Y2529574D01*
X19282500Y2558502D01*
Y2843502D01*
X19284444Y2860747D01*
X19290176Y2877128D01*
X19299408Y2891822D01*
X19311679Y2904094D01*
X19326373Y2913327D01*
X19342754Y2919059D01*
X19360001Y2921002D01*
X22792500Y2921002D01*
X22809747Y2919059D01*
X22826128Y2913327D01*
X22840820Y2904094D01*
X22853093Y2891823D01*
X22862325Y2877128D01*
X22868057Y2860747D01*
X22870000Y2843502D01*
Y2558503D01*
X22873259Y2529575D01*
X22882874Y2502097D01*
X22898363Y2477449D01*
X22918945Y2456864D01*
X22943596Y2441376D01*
X22971072Y2431762D01*
X23000002Y2428502D01*
X26624188Y2428503D01*
X26650592Y2425792D01*
X26675897Y2417775D01*
X26699048Y2404785D01*
X26719073Y2387363D01*
X26759900Y2351850D01*
X26807089Y2325370D01*
X26858673Y2309027D01*
X26912500Y2303503D01*
X26966330Y2309027D01*
X27017911Y2325370D01*
X27065100Y2351850D01*
X27105927Y2387363D01*
X27125955Y2404785D01*
X27149103Y2417775D01*
X27174408Y2425792D01*
X27200815Y2428503D01*
X29557501Y2428503D01*
X29586429Y2431762D01*
X29613904Y2441377D01*
X29638556Y2456865D01*
X29659140Y2477449D01*
X29674628Y2502098D01*
X29684241Y2529575D01*
X29687500Y2558503D01*
Y2843503D01*
X29689444Y2860748D01*
X29695175Y2877129D01*
X29704407Y2891823D01*
X29716678Y2904095D01*
X29731375Y2913328D01*
X29747754Y2919060D01*
X29764999Y2921003D01*
X30402499D01*
X30419745Y2922946D01*
X30436127Y2928678D01*
X30450821Y2937911D01*
X30463092Y2950182D01*
X30472324Y2964877D01*
X30478058Y2981258D01*
X30479999Y2998503D01*
Y12368503D01*
X30478058Y12385748D01*
X30472324Y12402129D01*
X30463092Y12416824D01*
X30450821Y12429095D01*
X30436124Y12438328D01*
X30419745Y12444059D01*
X30402499Y12446003D01*
X29764999D01*
X29747754Y12447946D01*
X29731375Y12453678D01*
X29716678Y12462911D01*
X29704407Y12475183D01*
X29695175Y12489877D01*
X29689441Y12506258D01*
X29687500Y12523503D01*
Y12808504D01*
X29684241Y12837430D01*
X29674625Y12864908D01*
X29659137Y12889555D01*
X29638553Y12910141D01*
X29613904Y12925629D01*
X29586429Y12935245D01*
X29557501Y12938503D01*
X27200812D01*
X27174408Y12941212D01*
X27149103Y12949229D01*
X27125955Y12962219D01*
X27105927Y12979642D01*
X27065100Y13015155D01*
X27017911Y13041635D01*
X26966327Y13057977D01*
X26912500Y13063503D01*
X26858670Y13057977D01*
X26807089Y13041635D01*
X26759900Y13015155D01*
X26719073Y12979642D01*
X26699045Y12962219D01*
X26675897Y12949229D01*
X26650592Y12941212D01*
X26624188Y12938503D01*
X22999998D01*
X22971071Y12935243D01*
X22943594Y12925629D01*
X22918945Y12910139D01*
X22898363Y12889555D01*
X22882874Y12864906D01*
X22873259Y12837430D01*
X22870000Y12808502D01*
Y12523503D01*
X22868057Y12506257D01*
X22862325Y12489876D01*
X22853091Y12475182D01*
X22840820Y12462910D01*
X22826128Y12453677D01*
X22809744Y12447946D01*
X22792499Y12446002D01*
X19360001D01*
X19342754Y12447945D01*
X19326373Y12453677D01*
X19311679Y12462910D01*
X19299408Y12475182D01*
X19290173Y12489876D01*
X19284442Y12506257D01*
X19282500Y12523501D01*
Y12808502D01*
X19279240Y12837428D01*
X19269624Y12864906D01*
X19254137Y12889555D01*
X19233553Y12910139D01*
X19208904Y12925629D01*
X19181429Y12935243D01*
X19152499Y12938503D01*
X15528313D01*
X15501907Y12941212D01*
X15476602Y12949229D01*
X15453453Y12962219D01*
X15433424Y12979642D01*
X15392599Y13015154D01*
X15345412Y13041634D01*
X15293828Y13057977D01*
X15239999Y13063501D01*
X15186171Y13057976D01*
X15134589Y13041634D01*
X15087399Y13015154D01*
X15046574Y12979642D01*
X15026546Y12962218D01*
X15003397Y12949229D01*
X14978091Y12941212D01*
X14951686Y12938501D01*
X11327500D01*
X11298572Y12935242D01*
X11271095Y12925627D01*
X11246446Y12910139D01*
X11225861Y12889555D01*
X11210373Y12864906D01*
X11200759Y12837428D01*
X11197500Y12808501D01*
Y12523501D01*
X11195557Y12506256D01*
X11189825Y12489875D01*
X11180591Y12475181D01*
X11168320Y12462909D01*
X11153626Y12453676D01*
X11137245Y12447945D01*
X11120000Y12446001D01*
X7687499D01*
X7670254Y12447944D01*
X7653873Y12453676D01*
X7639179Y12462909D01*
X7626907Y12475181D01*
X7617674Y12489875D01*
X7611943Y12506256D01*
X7610000Y12523500D01*
Y12808501D01*
X7606740Y12837428D01*
X7597125Y12864906D01*
X7581637Y12889554D01*
X7561053Y12910139D01*
X7536404Y12925627D01*
X7508927Y12935242D01*
X7480000Y12938501D01*
X3855813D01*
X3829407Y12941211D01*
X3804103Y12949228D01*
X3780953Y12962218D01*
X3760926Y12979640D01*
X3720100Y13015154D01*
X3672911Y13041634D01*
X3621327Y13057976D01*
X3567500Y13063499D01*
X3513672Y13057974D01*
X3462089Y13041634D01*
X3414899Y13015154D01*
X3374074Y12979640D01*
X3354045Y12962218D01*
X3330897Y12949228D01*
X3305592Y12941211D01*
X3279185Y12938499D01*
X922499D01*
X893571Y12935242D01*
X866095Y12925626D01*
X841446Y12910138D01*
X820861Y12889554D01*
X805374Y12864905D01*
X795759Y12837428D01*
X792500Y12808501D01*
Y12523500D01*
X790556Y12506255D01*
X784825Y12489874D01*
X775592Y12475180D01*
X763320Y12462908D01*
X748625Y12453675D01*
X732245Y12447944D01*
X714999Y12446000D01*
X77500D01*
X60254Y12444057D01*
X43873Y12438325D01*
X29179Y12429092D01*
X16908Y12416820D01*
X7674Y12402126D01*
X1942Y12385745D01*
X-1Y12368501D01*
X1Y2998500D01*
X1943Y2981255D01*
X7675Y2964874D01*
X16909Y2950180D01*
X29180Y2937909D01*
X43874Y2928675D01*
X60255Y2922943D01*
X77501Y2921000D01*
X715000D01*
X732246Y2919057D01*
X748626Y2913325D01*
X763321Y2904092D01*
X775593Y2891821D01*
X784826Y2877126D01*
X790557Y2860745D01*
X792501Y2843500D01*
Y2558501D01*
X795760Y2529573D01*
X805375Y2502095D01*
X820862Y2477447D01*
X841447Y2456862D01*
X866096Y2441374D01*
X893573Y2431760D01*
X922500Y2428500D01*
X3279186Y2428501D01*
X3305593Y2425790D01*
X3330898Y2417773D01*
X3354046Y2404783D01*
X3374075Y2387361D01*
X3414900Y2351848D01*
X3462090Y2325368D01*
X3513673Y2309025D01*
X3567501Y2303501D01*
X3621328Y2309025D01*
X3672912Y2325368D01*
X3720101Y2351848D01*
X3760927Y2387361D01*
X3780954Y2404783D01*
X3804104Y2417773D01*
X3829408Y2425790D01*
X3855814Y2428501D01*
X7480001Y2428501D01*
X7508928Y2431760D01*
X7536405Y2441375D01*
X7561054Y2456862D01*
X7581638Y2477447D01*
X7597126Y2502096D01*
X7606741Y2529573D01*
X7610001Y2558501D01*
Y2843501D01*
X7611944Y2860746D01*
X7617675Y2877127D01*
X7626908Y2891821D01*
X7639180Y2904092D01*
X7653874Y2913326D01*
X7670255Y2919058D01*
X7687500Y2921001D01*
%TF.MD5,c44d00348ddbc96bb8903c362dbc12de*%
M02*
