%TF.GenerationSoftware,Altium Limited,Altium Designer,21.6.4 (81)*%
G04 Layer_Physical_Order=1*
G04 Layer_Color=255*
%FSLAX45Y45*%
%MOMM*%
%TF.SameCoordinates,04F12F75-4F8B-4F25-9211-7CF3C9368DE0*%
%TF.FilePolarity,Positive*%
%TF.FileFunction,Copper,L1,Top,Signal*%
%TF.Part,Single*%
G01*
G75*
G36*
X26961038Y13032489D02*
X27007556Y13017751D01*
X27050110Y12993872D01*
X27088928Y12960104D01*
X27088928Y12960103D01*
X27088931Y12960103D01*
X27108960Y12942680D01*
X27111264Y12941364D01*
X27113281Y12939638D01*
X27136429Y12926646D01*
X27138953Y12925824D01*
X27141281Y12924544D01*
X27166586Y12916525D01*
X27169226Y12916232D01*
X27171765Y12915453D01*
X27198169Y12912743D01*
X27199500Y12912868D01*
X27200812Y12912607D01*
X29556046D01*
X29580630Y12909837D01*
X29602597Y12902150D01*
X29622305Y12889767D01*
X29638763Y12873308D01*
X29651147Y12853601D01*
X29658832Y12831631D01*
X29661603Y12807048D01*
Y12523503D01*
X29661890Y12522064D01*
X29661765Y12520603D01*
X29663708Y12503359D01*
X29664594Y12500586D01*
X29664999Y12497704D01*
X29670731Y12481324D01*
X29672211Y12478817D01*
X29673248Y12476099D01*
X29682480Y12461405D01*
X29684479Y12459291D01*
X29686096Y12456871D01*
X29698367Y12444600D01*
X29700787Y12442983D01*
X29702902Y12440984D01*
X29717596Y12431751D01*
X29720316Y12430713D01*
X29722821Y12429235D01*
X29739200Y12423503D01*
X29742084Y12423096D01*
X29744855Y12422212D01*
X29762100Y12420270D01*
X29763562Y12420393D01*
X29764999Y12420107D01*
X30401044D01*
X30413947Y12418653D01*
X30424817Y12414849D01*
X30434573Y12408720D01*
X30442719Y12400575D01*
X30448846Y12390822D01*
X30452652Y12379949D01*
X30454105Y12367049D01*
Y2999956D01*
X30452652Y2987057D01*
X30448846Y2976184D01*
X30442719Y2966431D01*
X30434570Y2958285D01*
X30424820Y2952157D01*
X30413947Y2948353D01*
X30401044Y2946899D01*
X29764999D01*
X29763562Y2946613D01*
X29762100Y2946736D01*
X29744855Y2944793D01*
X29742084Y2943910D01*
X29739200Y2943503D01*
X29722821Y2937771D01*
X29720316Y2936293D01*
X29717596Y2935255D01*
X29702902Y2926022D01*
X29700787Y2924023D01*
X29698367Y2922406D01*
X29686096Y2910135D01*
X29684479Y2907716D01*
X29682480Y2905601D01*
X29673248Y2890907D01*
X29672208Y2888187D01*
X29670731Y2885680D01*
X29665002Y2869299D01*
X29664594Y2866420D01*
X29663712Y2863650D01*
X29661765Y2846405D01*
X29661890Y2844942D01*
X29661603Y2843503D01*
Y2559958D01*
X29658832Y2535374D01*
X29651147Y2513404D01*
X29638763Y2493697D01*
X29622308Y2477239D01*
X29602597Y2464856D01*
X29580630Y2457169D01*
X29556046Y2454399D01*
X27200815Y2454399D01*
X27199503Y2454138D01*
X27198172Y2454264D01*
X27171765Y2451553D01*
X27169226Y2450772D01*
X27166586Y2450479D01*
X27141281Y2442462D01*
X27138956Y2441181D01*
X27136429Y2440359D01*
X27113281Y2427369D01*
X27111264Y2425642D01*
X27108957Y2424323D01*
X27088931Y2406901D01*
X27088931Y2406901D01*
X27050110Y2373133D01*
X27007993Y2349500D01*
X26817007D01*
X26774890Y2373133D01*
X26736072Y2406901D01*
X26716043Y2424323D01*
X26713739Y2425642D01*
X26711719Y2427369D01*
X26688568Y2440359D01*
X26686044Y2441182D01*
X26683719Y2442462D01*
X26658414Y2450479D01*
X26655774Y2450772D01*
X26653235Y2451553D01*
X26626831Y2454264D01*
X26625500Y2454138D01*
X26624188Y2454399D01*
X23001456Y2454399D01*
X22976872Y2457169D01*
X22954903Y2464856D01*
X22935194Y2477239D01*
X22918736Y2493697D01*
X22906354Y2513405D01*
X22898665Y2535374D01*
X22895895Y2559957D01*
Y2843502D01*
X22895610Y2844940D01*
X22895734Y2846401D01*
X22893790Y2863646D01*
X22892908Y2866418D01*
X22892500Y2869301D01*
X22886768Y2885682D01*
X22885291Y2888187D01*
X22884253Y2890904D01*
X22875021Y2905598D01*
X22873021Y2907715D01*
X22871404Y2910136D01*
X22859129Y2922407D01*
X22856712Y2924022D01*
X22854597Y2926021D01*
X22839905Y2935254D01*
X22837186Y2936292D01*
X22834680Y2937770D01*
X22818300Y2943502D01*
X22815419Y2943909D01*
X22812646Y2944793D01*
X22795401Y2946736D01*
X22793939Y2946613D01*
X22792500Y2946899D01*
X19360001Y2946898D01*
X19358562Y2946612D01*
X19357100Y2946735D01*
X19339854Y2944792D01*
X19337082Y2943909D01*
X19334201Y2943502D01*
X19317821Y2937770D01*
X19315315Y2936292D01*
X19312598Y2935254D01*
X19297902Y2926021D01*
X19295787Y2924022D01*
X19293367Y2922405D01*
X19281096Y2910134D01*
X19279478Y2907713D01*
X19277480Y2905598D01*
X19268248Y2890904D01*
X19267210Y2888187D01*
X19265733Y2885681D01*
X19260001Y2869301D01*
X19259595Y2866420D01*
X19258711Y2863649D01*
X19256766Y2846404D01*
X19256889Y2844941D01*
X19256602Y2843502D01*
Y2559957D01*
X19253833Y2535373D01*
X19246147Y2513403D01*
X19233765Y2493696D01*
X19217307Y2477238D01*
X19197598Y2464855D01*
X19175629Y2457168D01*
X19151047Y2454398D01*
X15528314Y2454398D01*
X15527002Y2454137D01*
X15525670Y2454263D01*
X15499265Y2451552D01*
X15496727Y2450771D01*
X15494087Y2450478D01*
X15468782Y2442461D01*
X15466455Y2441181D01*
X15463930Y2440358D01*
X15440782Y2427368D01*
X15438763Y2425641D01*
X15436459Y2424323D01*
X15416431Y2406901D01*
X15377609Y2373132D01*
X15335497Y2349500D01*
X15144504D01*
X15102391Y2373132D01*
X15063571Y2406901D01*
D01*
X15063571Y2406901D01*
X15043542Y2424323D01*
X15041237Y2425641D01*
X15039220Y2427368D01*
X15016071Y2440358D01*
X15013547Y2441181D01*
X15011218Y2442461D01*
X14985915Y2450478D01*
X14983275Y2450771D01*
X14980736Y2451552D01*
X14954330Y2454263D01*
X14952998Y2454137D01*
X14951688Y2454398D01*
X11328955Y2454398D01*
X11304371Y2457168D01*
X11282402Y2464855D01*
X11262695Y2477237D01*
X11246237Y2493696D01*
X11233854Y2513403D01*
X11226167Y2535373D01*
X11223397Y2559956D01*
Y2843501D01*
X11223111Y2844940D01*
X11223234Y2846402D01*
X11221290Y2863647D01*
X11220407Y2866419D01*
X11220000Y2869299D01*
X11214269Y2885680D01*
X11212790Y2888187D01*
X11211753Y2890905D01*
X11202519Y2905599D01*
X11200520Y2907714D01*
X11198904Y2910133D01*
X11186633Y2922404D01*
X11184213Y2924021D01*
X11182099Y2926020D01*
X11167405Y2935253D01*
X11164686Y2936291D01*
X11162179Y2937770D01*
X11145799Y2943501D01*
X11142917Y2943908D01*
X11140145Y2944792D01*
X11122900Y2946735D01*
X11121439Y2946612D01*
X11120000Y2946898D01*
X7687500Y2946897D01*
X7686062Y2946611D01*
X7684601Y2946734D01*
X7667356Y2944791D01*
X7664583Y2943907D01*
X7661701Y2943501D01*
X7645322Y2937769D01*
X7642816Y2936291D01*
X7640096Y2935253D01*
X7625402Y2926020D01*
X7623288Y2924021D01*
X7620869Y2922404D01*
X7608597Y2910133D01*
X7606981Y2907714D01*
X7604981Y2905598D01*
X7595748Y2890904D01*
X7594711Y2888186D01*
X7593232Y2885680D01*
X7587500Y2869299D01*
X7587094Y2866418D01*
X7586210Y2863646D01*
X7584267Y2846400D01*
X7584390Y2844939D01*
X7584104Y2843501D01*
Y2559956D01*
X7581334Y2535372D01*
X7573647Y2513404D01*
X7561264Y2493695D01*
X7544805Y2477237D01*
X7525099Y2464854D01*
X7503129Y2457167D01*
X7478546Y2454397D01*
X3855814Y2454397D01*
X3854502Y2454136D01*
X3853170Y2454262D01*
X3826764Y2451551D01*
X3824226Y2450770D01*
X3821586Y2450477D01*
X3796282Y2442460D01*
X3793956Y2441180D01*
X3791431Y2440357D01*
X3768282Y2427367D01*
X3766263Y2425640D01*
X3763958Y2424321D01*
X3743931Y2406900D01*
X3743931D01*
X3705110Y2373131D01*
X3662999Y2349500D01*
X3472003D01*
X3429892Y2373131D01*
X3391071Y2406900D01*
D01*
X3391070Y2406900D01*
X3371042Y2424322D01*
X3368737Y2425640D01*
X3366719Y2427367D01*
X3343571Y2440357D01*
X3341046Y2441179D01*
X3338719Y2442460D01*
X3313415Y2450477D01*
X3310775Y2450770D01*
X3308237Y2451551D01*
X3281830Y2454262D01*
X3280499Y2454136D01*
X3279186Y2454397D01*
X923955Y2454397D01*
X899372Y2457167D01*
X877402Y2464854D01*
X857696Y2477236D01*
X841237Y2493695D01*
X828854Y2513402D01*
X821167Y2535372D01*
X818397Y2559955D01*
Y2843500D01*
X818111Y2844939D01*
X818234Y2846401D01*
X816291Y2863646D01*
X815407Y2866418D01*
X815000Y2869298D01*
X809269Y2885679D01*
X807791Y2888185D01*
X806753Y2890904D01*
X797520Y2905598D01*
X795521Y2907713D01*
X793904Y2910132D01*
X781633Y2922403D01*
X779213Y2924020D01*
X777099Y2926019D01*
X762403Y2935252D01*
X759685Y2936290D01*
X757179Y2937768D01*
X740799Y2943500D01*
X737918Y2943907D01*
X735145Y2944791D01*
X717900Y2946734D01*
X716439Y2946611D01*
X715000Y2946897D01*
X78956D01*
X66054Y2948350D01*
X55181Y2952154D01*
X45429Y2958283D01*
X37283Y2966428D01*
X31155Y2976182D01*
X27350Y2987054D01*
X25897Y2999954D01*
X25896Y12367047D01*
X27349Y12379946D01*
X31154Y12390819D01*
X37282Y12400572D01*
X45427Y12408717D01*
X55181Y12414846D01*
X66053Y12418651D01*
X78953Y12420104D01*
X714999D01*
X716438Y12420390D01*
X717900Y12420266D01*
X735145Y12422210D01*
X737917Y12423094D01*
X740798Y12423500D01*
X757178Y12429232D01*
X759684Y12430710D01*
X762402Y12431748D01*
X777098Y12440981D01*
X779212Y12442980D01*
X781632Y12444597D01*
X793903Y12456868D01*
X795519Y12459287D01*
X797518Y12461402D01*
X806752Y12476096D01*
X807790Y12478815D01*
X809268Y12481322D01*
X815000Y12497702D01*
X815406Y12500583D01*
X816290Y12503355D01*
X818233Y12520600D01*
X818110Y12522062D01*
X818396Y12523500D01*
Y12807045D01*
X821166Y12831628D01*
X828853Y12853600D01*
X841236Y12873305D01*
X857694Y12889764D01*
X877401Y12902145D01*
X899371Y12909834D01*
X923954Y12912604D01*
X3279185D01*
X3280498Y12912865D01*
X3281830Y12912740D01*
X3308236Y12915450D01*
X3310774Y12916231D01*
X3313414Y12916524D01*
X3338718Y12924541D01*
X3341044Y12925821D01*
X3343569Y12926643D01*
X3366717Y12939635D01*
X3368736Y12941360D01*
X3371041Y12942679D01*
X3391069Y12960101D01*
D01*
X3429891Y12993871D01*
X3472443Y13017747D01*
X3518960Y13032486D01*
X3567500Y13037468D01*
X3616040Y13032487D01*
X3662556Y13017749D01*
X3705109Y12993871D01*
X3743930Y12960101D01*
X3763957Y12942680D01*
X3766262Y12941360D01*
X3768280Y12939635D01*
X3791430Y12926643D01*
X3793954Y12925822D01*
X3796281Y12924541D01*
X3821585Y12916524D01*
X3824225Y12916231D01*
X3826764Y12915450D01*
X3853169Y12912740D01*
X3854501Y12912866D01*
X3855813Y12912605D01*
X7478545D01*
X7503128Y12909834D01*
X7525098Y12902147D01*
X7544804Y12889764D01*
X7561263Y12873306D01*
X7573646Y12853600D01*
X7581333Y12831630D01*
X7584103Y12807047D01*
Y12523500D01*
X7584389Y12522062D01*
X7584266Y12520601D01*
X7586209Y12503356D01*
X7587093Y12500584D01*
X7587499Y12497703D01*
X7593231Y12481322D01*
X7594710Y12478816D01*
X7595747Y12476097D01*
X7604980Y12461403D01*
X7606979Y12459289D01*
X7608596Y12456868D01*
X7620868Y12444598D01*
X7623287Y12442982D01*
X7625401Y12440982D01*
X7640095Y12431749D01*
X7642814Y12430711D01*
X7645320Y12429233D01*
X7661700Y12423501D01*
X7664582Y12423094D01*
X7667355Y12422210D01*
X7684601Y12420268D01*
X7686061Y12420391D01*
X7687499Y12420105D01*
X11120000D01*
X11121439Y12420391D01*
X11122901Y12420268D01*
X11140145Y12422211D01*
X11142917Y12423095D01*
X11145797Y12423501D01*
X11162178Y12429232D01*
X11164685Y12430711D01*
X11167404Y12431749D01*
X11182098Y12440982D01*
X11184212Y12442981D01*
X11186632Y12444598D01*
X11198903Y12456869D01*
X11200519Y12459288D01*
X11202518Y12461403D01*
X11211752Y12476097D01*
X11212789Y12478815D01*
X11214268Y12481321D01*
X11220000Y12497702D01*
X11220407Y12500585D01*
X11221290Y12503357D01*
X11223233Y12520603D01*
X11223110Y12522063D01*
X11223396Y12523501D01*
Y12807047D01*
X11226166Y12831630D01*
X11233853Y12853600D01*
X11246235Y12873306D01*
X11262695Y12889764D01*
X11282402Y12902148D01*
X11304371Y12909834D01*
X11328954Y12912605D01*
X14951686D01*
X14952998Y12912866D01*
X14954330Y12912740D01*
X14980736Y12915451D01*
X14983273Y12916232D01*
X14985913Y12916525D01*
X15011218Y12924542D01*
X15013544Y12925822D01*
X15016071Y12926645D01*
X15039218Y12939635D01*
X15041235Y12941360D01*
X15043542Y12942680D01*
X15063570Y12960101D01*
D01*
X15102390Y12993871D01*
X15144943Y13017751D01*
X15191460Y13032487D01*
X15239999Y13037469D01*
X15288541Y13032487D01*
X15335056Y13017751D01*
X15377609Y12993871D01*
X15416429Y12960101D01*
X15416429D01*
X15416429Y12960101D01*
X15436458Y12942680D01*
X15438762Y12941362D01*
X15440781Y12939636D01*
X15463930Y12926646D01*
X15466454Y12925822D01*
X15468781Y12924542D01*
X15494086Y12916525D01*
X15496725Y12916232D01*
X15499265Y12915451D01*
X15525670Y12912741D01*
X15527000Y12912868D01*
X15528313Y12912605D01*
X19151047D01*
X19175629Y12909836D01*
X19197598Y12902148D01*
X19217303Y12889766D01*
X19233762Y12873306D01*
X19246146Y12853600D01*
X19253833Y12831630D01*
X19256602Y12807047D01*
Y12523501D01*
X19256889Y12522063D01*
X19256766Y12520602D01*
X19258708Y12503358D01*
X19259592Y12500585D01*
X19259999Y12497703D01*
X19265730Y12481323D01*
X19267210Y12478816D01*
X19268246Y12476098D01*
X19277481Y12461404D01*
X19279480Y12459290D01*
X19281096Y12456870D01*
X19293367Y12444599D01*
X19295787Y12442982D01*
X19297902Y12440983D01*
X19312598Y12431750D01*
X19315315Y12430712D01*
X19317821Y12429234D01*
X19334200Y12423502D01*
X19337082Y12423095D01*
X19339856Y12422211D01*
X19357101Y12420269D01*
X19358562Y12420392D01*
X19360001Y12420106D01*
X22792499D01*
X22793938Y12420392D01*
X22795399Y12420269D01*
X22812645Y12422212D01*
X22815417Y12423096D01*
X22818297Y12423502D01*
X22834679Y12429233D01*
X22837186Y12430712D01*
X22839905Y12431751D01*
X22854597Y12440984D01*
X22856712Y12442982D01*
X22859132Y12444599D01*
X22871404Y12456870D01*
X22873019Y12459289D01*
X22875018Y12461404D01*
X22884251Y12476098D01*
X22885289Y12478816D01*
X22886768Y12481323D01*
X22892500Y12497703D01*
X22892908Y12500586D01*
X22893790Y12503358D01*
X22895734Y12520604D01*
X22895610Y12522064D01*
X22895895Y12523503D01*
Y12807047D01*
X22898666Y12831631D01*
X22906354Y12853600D01*
X22918736Y12873308D01*
X22935194Y12889766D01*
X22954901Y12902148D01*
X22976871Y12909836D01*
X23001453Y12912605D01*
X26624188D01*
X26625500Y12912868D01*
X26626831Y12912741D01*
X26653238Y12915453D01*
X26655774Y12916232D01*
X26658414Y12916525D01*
X26683719Y12924544D01*
X26686044Y12925824D01*
X26688568Y12926646D01*
X26711719Y12939636D01*
X26713736Y12941362D01*
X26716043Y12942682D01*
X26736069Y12960104D01*
X26736069Y12960104D01*
X26774890Y12993872D01*
X26817444Y13017751D01*
X26863959Y13032487D01*
X26912500Y13037469D01*
X26961038Y13032489D01*
D02*
G37*
%LPC*%
G36*
X26929150Y12983533D02*
X26895850D01*
X26893195Y12983005D01*
X26890491Y12982971D01*
X26857913Y12976079D01*
X26855426Y12975014D01*
X26852786Y12974422D01*
X26822339Y12960934D01*
X26820126Y12959377D01*
X26817664Y12958250D01*
X26790671Y12938756D01*
X26788831Y12936774D01*
X26786655Y12935162D01*
X26764282Y12910503D01*
X26762888Y12908182D01*
X26761096Y12906155D01*
X26744308Y12877399D01*
X26743427Y12874840D01*
X26742090Y12872485D01*
X26731622Y12840877D01*
X26731287Y12838193D01*
X26730469Y12835614D01*
X26726767Y12802522D01*
X26726996Y12799826D01*
X26726727Y12797132D01*
X26729950Y12764066D01*
X26731232Y12749965D01*
X26729745Y12738690D01*
X26725821Y12728016D01*
X26719647Y12718469D01*
X26711523Y12710507D01*
X26701849Y12704526D01*
X26691101Y12700816D01*
X26678363Y12699399D01*
X23252899D01*
X23251460Y12699113D01*
X23250000Y12699236D01*
X23232755Y12697294D01*
X23229980Y12696410D01*
X23227100Y12696003D01*
X23210719Y12690271D01*
X23208215Y12688793D01*
X23205498Y12687756D01*
X23190800Y12678524D01*
X23188686Y12676524D01*
X23186266Y12674906D01*
X23173994Y12662634D01*
X23172379Y12660215D01*
X23170380Y12658101D01*
X23161147Y12643407D01*
X23160107Y12640687D01*
X23158629Y12638179D01*
X23152899Y12621799D01*
X23152492Y12618920D01*
X23151608Y12616150D01*
X23149664Y12598904D01*
X23149788Y12597442D01*
X23149501Y12596002D01*
Y12523503D01*
X23149788Y12522063D01*
X23149664Y12520601D01*
X23151608Y12503355D01*
X23152492Y12500585D01*
X23152898Y12497706D01*
X23158629Y12481325D01*
X23160107Y12478817D01*
X23161147Y12476097D01*
X23170380Y12461403D01*
X23172379Y12459289D01*
X23173994Y12456869D01*
X23186266Y12444598D01*
X23188686Y12442981D01*
X23190800Y12440982D01*
X23205496Y12431749D01*
X23208214Y12430711D01*
X23210721Y12429232D01*
X23227101Y12423501D01*
X23229980Y12423095D01*
X23232753Y12422211D01*
X23249998Y12420267D01*
X23251460Y12420390D01*
X23252899Y12420104D01*
X29304599Y12420105D01*
X29306039Y12420391D01*
X29307498Y12420268D01*
X29324744Y12422211D01*
X29327518Y12423095D01*
X29330399Y12423502D01*
X29346780Y12429234D01*
X29349286Y12430712D01*
X29352002Y12431750D01*
X29366699Y12440983D01*
X29368814Y12442982D01*
X29371234Y12444599D01*
X29383505Y12456870D01*
X29385120Y12459290D01*
X29387119Y12461404D01*
X29396353Y12476098D01*
X29397391Y12478818D01*
X29398871Y12481326D01*
X29404602Y12497707D01*
X29405008Y12500586D01*
X29405890Y12503356D01*
X29407834Y12520601D01*
X29407712Y12522063D01*
X29407999Y12523503D01*
Y12596003D01*
X29407712Y12597443D01*
X29407834Y12598905D01*
X29405890Y12616150D01*
X29405008Y12618919D01*
X29404602Y12621799D01*
X29398871Y12638180D01*
X29397391Y12640688D01*
X29396353Y12643408D01*
X29387119Y12658102D01*
X29385120Y12660216D01*
X29383505Y12662636D01*
X29371234Y12674907D01*
X29368814Y12676524D01*
X29366699Y12678523D01*
X29352002Y12687756D01*
X29349286Y12688794D01*
X29346780Y12690272D01*
X29330399Y12696004D01*
X29327518Y12696411D01*
X29324744Y12697295D01*
X29307498Y12699237D01*
X29306039Y12699114D01*
X29304599Y12699400D01*
X27146637D01*
X27133899Y12700817D01*
X27123148Y12704527D01*
X27113477Y12710507D01*
X27105353Y12718468D01*
X27099179Y12728018D01*
X27095255Y12738690D01*
X27093768Y12749966D01*
X27095056Y12764109D01*
X27098273Y12797133D01*
X27098004Y12799827D01*
X27098233Y12802524D01*
X27094531Y12835616D01*
X27093713Y12838193D01*
X27093378Y12840878D01*
X27082910Y12872485D01*
X27081573Y12874841D01*
X27080692Y12877399D01*
X27063904Y12906157D01*
X27062112Y12908183D01*
X27060718Y12910504D01*
X27038345Y12935164D01*
X27036169Y12936774D01*
X27034326Y12938756D01*
X27007333Y12958250D01*
X27004871Y12959377D01*
X27002658Y12960934D01*
X26972217Y12974422D01*
X26969574Y12975014D01*
X26967087Y12976079D01*
X26934509Y12982971D01*
X26931802Y12983005D01*
X26929150Y12983533D01*
D02*
G37*
G36*
X15256647Y12983531D02*
X15223351Y12983530D01*
X15220695Y12983002D01*
X15217992Y12982970D01*
X15185414Y12976077D01*
X15182925Y12975012D01*
X15180286Y12974419D01*
X15149841Y12960934D01*
X15147627Y12959377D01*
X15145168Y12958250D01*
X15118173Y12938754D01*
X15116330Y12936774D01*
X15114156Y12935162D01*
X15091782Y12910503D01*
X15090388Y12908182D01*
X15088596Y12906155D01*
X15071809Y12877397D01*
X15070927Y12874840D01*
X15069591Y12872485D01*
X15059122Y12840875D01*
X15058788Y12838190D01*
X15057968Y12835612D01*
X15054266Y12802521D01*
X15054495Y12799825D01*
X15054228Y12797131D01*
X15057449Y12764065D01*
X15058731Y12749964D01*
X15057245Y12738690D01*
X15053320Y12728015D01*
X15047147Y12718467D01*
X15039023Y12710506D01*
X15029350Y12704525D01*
X15018600Y12700815D01*
X15005862Y12699398D01*
X11580399D01*
X11578961Y12699112D01*
X11577501Y12699235D01*
X11560255Y12697293D01*
X11557482Y12696409D01*
X11554600Y12696002D01*
X11538220Y12690270D01*
X11535714Y12688792D01*
X11532996Y12687754D01*
X11518302Y12678522D01*
X11516187Y12676523D01*
X11513767Y12674906D01*
X11501495Y12662634D01*
X11499878Y12660213D01*
X11497879Y12658099D01*
X11488646Y12643404D01*
X11487609Y12640687D01*
X11486131Y12638181D01*
X11480399Y12621801D01*
X11479992Y12618919D01*
X11479108Y12616145D01*
X11477165Y12598900D01*
X11477288Y12597439D01*
X11477002Y12596001D01*
Y12523501D01*
X11477288Y12522063D01*
X11477165Y12520603D01*
X11479108Y12503357D01*
X11479992Y12500584D01*
X11480398Y12497702D01*
X11486131Y12481321D01*
X11487609Y12478815D01*
X11488646Y12476097D01*
X11497879Y12461403D01*
X11499878Y12459288D01*
X11501496Y12456867D01*
X11513768Y12444596D01*
X11516187Y12442980D01*
X11518301Y12440981D01*
X11532995Y12431748D01*
X11535714Y12430710D01*
X11538221Y12429231D01*
X11554601Y12423500D01*
X11557481Y12423094D01*
X11560253Y12422210D01*
X11577499Y12420266D01*
X11578961Y12420389D01*
X11580399Y12420103D01*
X18899599Y12420104D01*
X18901038Y12420390D01*
X18902498Y12420267D01*
X18919743Y12422210D01*
X18922517Y12423094D01*
X18925398Y12423501D01*
X18941779Y12429233D01*
X18944286Y12430711D01*
X18947003Y12431749D01*
X18961697Y12440982D01*
X18963812Y12442981D01*
X18966232Y12444598D01*
X18978503Y12456869D01*
X18980121Y12459289D01*
X18982120Y12461403D01*
X18991353Y12476097D01*
X18992390Y12478815D01*
X18993869Y12481322D01*
X18999602Y12497703D01*
X19000008Y12500586D01*
X19000893Y12503358D01*
X19002835Y12520603D01*
X19002711Y12522063D01*
X19002998Y12523501D01*
Y12596002D01*
X19002711Y12597440D01*
X19002835Y12598901D01*
X19000893Y12616146D01*
X19000008Y12618918D01*
X18999602Y12621801D01*
X18993869Y12638182D01*
X18992390Y12640689D01*
X18991353Y12643407D01*
X18982120Y12658101D01*
X18980121Y12660215D01*
X18978503Y12662635D01*
X18966232Y12674906D01*
X18963812Y12676523D01*
X18961697Y12678522D01*
X18947003Y12687755D01*
X18944286Y12688793D01*
X18941779Y12690271D01*
X18925398Y12696003D01*
X18922517Y12696410D01*
X18919743Y12697294D01*
X18902498Y12699236D01*
X18901038Y12699113D01*
X18899599Y12699399D01*
X15474136D01*
X15461398Y12700816D01*
X15450648Y12704526D01*
X15440976Y12710506D01*
X15432854Y12718467D01*
X15426678Y12728017D01*
X15422754Y12738689D01*
X15421269Y12749966D01*
X15422552Y12764088D01*
X15425771Y12797132D01*
X15425504Y12799826D01*
X15425732Y12802522D01*
X15422031Y12835612D01*
X15421211Y12838191D01*
X15420879Y12840877D01*
X15410410Y12872485D01*
X15409073Y12874840D01*
X15408191Y12877399D01*
X15391406Y12906155D01*
X15389610Y12908182D01*
X15388219Y12910504D01*
X15365843Y12935162D01*
X15363667Y12936774D01*
X15361826Y12938754D01*
X15334831Y12958250D01*
X15332372Y12959377D01*
X15330159Y12960934D01*
X15299715Y12974420D01*
X15297073Y12975014D01*
X15294585Y12976077D01*
X15262009Y12982970D01*
X15259302Y12983003D01*
X15256647Y12983531D01*
D02*
G37*
G36*
X3584149Y12983530D02*
X3550850D01*
X3548196Y12983002D01*
X3545490Y12982968D01*
X3512913Y12976076D01*
X3510426Y12975011D01*
X3507785Y12974419D01*
X3477341Y12960933D01*
X3475127Y12959375D01*
X3472666Y12958249D01*
X3445672Y12938754D01*
X3443830Y12936772D01*
X3441655Y12935161D01*
X3419281Y12910501D01*
X3417888Y12908180D01*
X3416095Y12906154D01*
X3399308Y12877396D01*
X3398426Y12874838D01*
X3397090Y12872484D01*
X3386620Y12840875D01*
X3386287Y12838190D01*
X3385467Y12835611D01*
X3381766Y12802521D01*
X3381996Y12799824D01*
X3381727Y12797130D01*
X3384949Y12764064D01*
X3386230Y12749963D01*
X3384745Y12738688D01*
X3380820Y12728014D01*
X3374647Y12718467D01*
X3366523Y12710505D01*
X3356850Y12704523D01*
X3346100Y12700814D01*
X3333363Y12699397D01*
X1175400D01*
X1173962Y12699111D01*
X1172501Y12699234D01*
X1155255Y12697292D01*
X1152482Y12696408D01*
X1149600Y12696001D01*
X1133219Y12690269D01*
X1130713Y12688790D01*
X1127996Y12687753D01*
X1113301Y12678521D01*
X1111186Y12676522D01*
X1108766Y12674904D01*
X1096494Y12662632D01*
X1094878Y12660213D01*
X1092880Y12658099D01*
X1083646Y12643404D01*
X1082609Y12640686D01*
X1081130Y12638179D01*
X1075398Y12621799D01*
X1074992Y12618919D01*
X1074108Y12616146D01*
X1072164Y12598901D01*
X1072288Y12597439D01*
X1072002Y12596000D01*
Y12523500D01*
X1072288Y12522062D01*
X1072164Y12520600D01*
X1074108Y12503354D01*
X1074992Y12500583D01*
X1075398Y12497702D01*
X1081129Y12481321D01*
X1082608Y12478814D01*
X1083646Y12476095D01*
X1092880Y12461401D01*
X1094879Y12459286D01*
X1096495Y12456867D01*
X1108766Y12444596D01*
X1111186Y12442979D01*
X1113300Y12440980D01*
X1127994Y12431747D01*
X1130713Y12430709D01*
X1133221Y12429230D01*
X1149602Y12423499D01*
X1152482Y12423092D01*
X1155254Y12422209D01*
X1172499Y12420265D01*
X1173961Y12420388D01*
X1175400Y12420102D01*
X7227100Y12420103D01*
X7228538Y12420389D01*
X7229999Y12420266D01*
X7247244Y12422209D01*
X7250016Y12423093D01*
X7252898Y12423499D01*
X7269280Y12429232D01*
X7271787Y12430710D01*
X7274504Y12431748D01*
X7289199Y12440981D01*
X7291313Y12442980D01*
X7293732Y12444597D01*
X7306004Y12456868D01*
X7307620Y12459288D01*
X7309619Y12461402D01*
X7318853Y12476096D01*
X7319890Y12478815D01*
X7321369Y12481322D01*
X7327101Y12497703D01*
X7327508Y12500584D01*
X7328391Y12503356D01*
X7330334Y12520601D01*
X7330211Y12522062D01*
X7330497Y12523500D01*
Y12596001D01*
X7330211Y12597439D01*
X7330334Y12598901D01*
X7328391Y12616145D01*
X7327508Y12618918D01*
X7327101Y12621799D01*
X7321369Y12638180D01*
X7319890Y12640687D01*
X7318853Y12643405D01*
X7309619Y12658100D01*
X7307620Y12660214D01*
X7306004Y12662634D01*
X7293732Y12674905D01*
X7291313Y12676521D01*
X7289199Y12678520D01*
X7274504Y12687754D01*
X7271787Y12688791D01*
X7269280Y12690270D01*
X7252899Y12696002D01*
X7250016Y12696409D01*
X7247244Y12697293D01*
X7229998Y12699235D01*
X7228538Y12699112D01*
X7227100Y12699398D01*
X3801636D01*
X3788899Y12700815D01*
X3778148Y12704525D01*
X3768477Y12710505D01*
X3760353Y12718466D01*
X3754178Y12728016D01*
X3750253Y12738688D01*
X3748769Y12749963D01*
X3750052Y12764084D01*
X3753271Y12797132D01*
X3753003Y12799825D01*
X3753232Y12802521D01*
X3749531Y12835612D01*
X3748712Y12838190D01*
X3748378Y12840875D01*
X3737909Y12872484D01*
X3736573Y12874838D01*
X3735691Y12877397D01*
X3718905Y12906155D01*
X3717111Y12908182D01*
X3715718Y12910503D01*
X3693344Y12935162D01*
X3691169Y12936774D01*
X3689327Y12938754D01*
X3662333Y12958249D01*
X3659872Y12959375D01*
X3657658Y12960933D01*
X3627213Y12974419D01*
X3624573Y12975011D01*
X3622085Y12976076D01*
X3589509Y12982968D01*
X3586803Y12983002D01*
X3584149Y12983530D01*
D02*
G37*
G36*
X30172498Y12219400D02*
X28882501D01*
X28881061Y12219114D01*
X28879602Y12219237D01*
X28867365Y12217859D01*
X28864590Y12216975D01*
X28861707Y12216568D01*
X28850082Y12212500D01*
X28847577Y12211022D01*
X28844858Y12209984D01*
X28834430Y12203432D01*
X28832315Y12201433D01*
X28829895Y12199816D01*
X28821188Y12191107D01*
X28819571Y12188688D01*
X28817572Y12186574D01*
X28811020Y12176146D01*
X28809982Y12173427D01*
X28808502Y12170920D01*
X28804434Y12159295D01*
X28804028Y12156412D01*
X28803143Y12153638D01*
X28801764Y12141399D01*
X28801889Y12139940D01*
X28801602Y12138503D01*
Y10848503D01*
X28801889Y10847065D01*
X28801764Y10845605D01*
X28803143Y10833367D01*
X28804028Y10830594D01*
X28804434Y10827710D01*
X28808502Y10816085D01*
X28809982Y10813578D01*
X28811020Y10810860D01*
X28817572Y10800431D01*
X28819571Y10798317D01*
X28821188Y10795897D01*
X28829898Y10787189D01*
X28832315Y10785573D01*
X28834430Y10783575D01*
X28844858Y10777022D01*
X28847577Y10775984D01*
X28850082Y10774505D01*
X28861707Y10770437D01*
X28864590Y10770030D01*
X28867365Y10769146D01*
X28879602Y10767768D01*
X28881061Y10767891D01*
X28882501Y10767605D01*
X30172498D01*
X30173938Y10767891D01*
X30175400Y10767768D01*
X30187640Y10769148D01*
X30190411Y10770031D01*
X30193289Y10770437D01*
X30204916Y10774504D01*
X30207422Y10775983D01*
X30210144Y10777022D01*
X30220572Y10783575D01*
X30222684Y10785573D01*
X30225104Y10787189D01*
X30233813Y10795897D01*
X30235428Y10798317D01*
X30237430Y10800432D01*
X30243982Y10810861D01*
X30245020Y10813581D01*
X30246500Y10816089D01*
X30250565Y10827713D01*
X30250970Y10830593D01*
X30251855Y10833363D01*
X30253235Y10845601D01*
X30253110Y10847063D01*
X30253397Y10848503D01*
Y12138503D01*
X30253110Y12139942D01*
X30253235Y12141404D01*
X30251855Y12153642D01*
X30250974Y12156412D01*
X30250565Y12159291D01*
X30246500Y12170916D01*
X30245020Y12173425D01*
X30243982Y12176146D01*
X30237427Y12186574D01*
X30235428Y12188688D01*
X30233813Y12191107D01*
X30225104Y12199816D01*
X30222684Y12201433D01*
X30220569Y12203432D01*
X30210141Y12209984D01*
X30207422Y12211022D01*
X30204916Y12212500D01*
X30193292Y12216568D01*
X30190411Y12216975D01*
X30187637Y12217859D01*
X30175400Y12219237D01*
X30173938Y12219114D01*
X30172498Y12219400D01*
D02*
G37*
G36*
X28267499D02*
X25072501D01*
X25071062Y12219114D01*
X25069598Y12219237D01*
X25057361Y12217857D01*
X25054588Y12216974D01*
X25051711Y12216568D01*
X25040085Y12212501D01*
X25037578Y12211022D01*
X25034857Y12209983D01*
X25024429Y12203430D01*
X25022314Y12201432D01*
X25019897Y12199816D01*
X25011188Y12191108D01*
X25009570Y12188688D01*
X25007571Y12186573D01*
X25001018Y12176144D01*
X24999982Y12173426D01*
X24998502Y12170920D01*
X24994434Y12159296D01*
X24994028Y12156412D01*
X24993143Y12153638D01*
X24991765Y12141399D01*
X24991888Y12139940D01*
X24991603Y12138503D01*
Y10848503D01*
X24991888Y10847065D01*
X24991765Y10845605D01*
X24993143Y10833367D01*
X24994028Y10830594D01*
X24994434Y10827710D01*
X24998502Y10816085D01*
X24999982Y10813578D01*
X25001019Y10810860D01*
X25007571Y10800431D01*
X25009570Y10798317D01*
X25011188Y10795898D01*
X25019896Y10787189D01*
X25022316Y10785572D01*
X25024431Y10783573D01*
X25034859Y10777021D01*
X25037576Y10775984D01*
X25040083Y10774505D01*
X25051707Y10770437D01*
X25054590Y10770030D01*
X25057362Y10769146D01*
X25069601Y10767768D01*
X25071062Y10767891D01*
X25072501Y10767605D01*
X25087920D01*
X25089696Y10767405D01*
X25089999Y10767299D01*
X25090269Y10767128D01*
X25090498Y10766900D01*
X25090669Y10766628D01*
X25090778Y10766319D01*
X25090977Y10764546D01*
Y10698502D01*
X25091264Y10697065D01*
X25091141Y10695604D01*
X25093771Y10672239D01*
X25094656Y10669466D01*
X25095062Y10666583D01*
X25102829Y10644391D01*
X25104308Y10641885D01*
X25105345Y10639167D01*
X25117854Y10619258D01*
X25119853Y10617144D01*
X25121471Y10614724D01*
X25138097Y10598098D01*
X25140515Y10596481D01*
X25142630Y10594482D01*
X25162540Y10581972D01*
X25165257Y10580934D01*
X25167764Y10579456D01*
X25189955Y10571691D01*
X25192838Y10571284D01*
X25195610Y10570401D01*
X25218974Y10567768D01*
X25220438Y10567891D01*
X25221875Y10567605D01*
X25736874D01*
X25738315Y10567891D01*
X25739774Y10567768D01*
X25763138Y10570401D01*
X25765912Y10571284D01*
X25768793Y10571691D01*
X25790985Y10579456D01*
X25793494Y10580935D01*
X25796213Y10581973D01*
X25816119Y10594483D01*
X25818234Y10596481D01*
X25820651Y10598097D01*
X25837280Y10614723D01*
X25838895Y10617142D01*
X25840897Y10619258D01*
X25853406Y10639167D01*
X25854443Y10641886D01*
X25855923Y10644393D01*
X25863687Y10666585D01*
X25864093Y10669465D01*
X25864975Y10672237D01*
X25867609Y10695602D01*
X25867487Y10697063D01*
X25867773Y10698502D01*
Y10764549D01*
X25867972Y10766323D01*
X25868076Y10766624D01*
X25868250Y10766900D01*
X25868481Y10767129D01*
X25868747Y10767298D01*
X25869052Y10767405D01*
X25870828Y10767605D01*
X27469171D01*
X27470947Y10767405D01*
X27471246Y10767300D01*
X27471521Y10767128D01*
X27471747Y10766900D01*
X27471918Y10766628D01*
X27472028Y10766319D01*
X27472229Y10764546D01*
Y10698502D01*
X27472513Y10697064D01*
X27472391Y10695604D01*
X27475021Y10672240D01*
X27475906Y10669468D01*
X27476312Y10666584D01*
X27484079Y10644391D01*
X27485556Y10641885D01*
X27486594Y10639167D01*
X27499103Y10619258D01*
X27501102Y10617144D01*
X27502719Y10614724D01*
X27519345Y10598098D01*
X27521765Y10596481D01*
X27523880Y10594482D01*
X27543790Y10581972D01*
X27546509Y10580934D01*
X27549014Y10579456D01*
X27571204Y10571691D01*
X27574088Y10571284D01*
X27576859Y10570401D01*
X27600226Y10567768D01*
X27601688Y10567891D01*
X27603125Y10567605D01*
X28118124D01*
X28119565Y10567891D01*
X28121024Y10567768D01*
X28144388Y10570401D01*
X28147162Y10571284D01*
X28150043Y10571691D01*
X28172235Y10579456D01*
X28174744Y10580935D01*
X28177463Y10581973D01*
X28197369Y10594483D01*
X28199484Y10596481D01*
X28201901Y10598097D01*
X28218530Y10614723D01*
X28220145Y10617142D01*
X28222147Y10619258D01*
X28234656Y10639167D01*
X28235693Y10641887D01*
X28237173Y10644393D01*
X28244937Y10666586D01*
X28245343Y10669467D01*
X28246225Y10672238D01*
X28248859Y10695602D01*
X28248737Y10697063D01*
X28249023Y10698502D01*
Y10764549D01*
X28249222Y10766323D01*
X28249326Y10766624D01*
X28249500Y10766900D01*
X28249731Y10767129D01*
X28250000Y10767299D01*
X28250302Y10767405D01*
X28252078Y10767605D01*
X28267499D01*
X28268939Y10767891D01*
X28270398Y10767768D01*
X28282635Y10769146D01*
X28285410Y10770030D01*
X28288293Y10770437D01*
X28299918Y10774505D01*
X28302423Y10775984D01*
X28305142Y10777022D01*
X28315570Y10783575D01*
X28317685Y10785573D01*
X28320102Y10787189D01*
X28328812Y10795897D01*
X28330429Y10798317D01*
X28332428Y10800431D01*
X28338980Y10810859D01*
X28340021Y10813580D01*
X28341498Y10816089D01*
X28345566Y10827714D01*
X28345972Y10830593D01*
X28346854Y10833363D01*
X28348233Y10845601D01*
X28348111Y10847063D01*
X28348398Y10848503D01*
Y12138503D01*
X28348111Y12139942D01*
X28348233Y12141404D01*
X28346854Y12153642D01*
X28345972Y12156412D01*
X28345566Y12159291D01*
X28341498Y12170916D01*
X28340021Y12173425D01*
X28338980Y12176146D01*
X28332428Y12186574D01*
X28330429Y12188688D01*
X28328812Y12191107D01*
X28320105Y12199816D01*
X28317685Y12201433D01*
X28315570Y12203432D01*
X28305142Y12209984D01*
X28302423Y12211022D01*
X28299918Y12212500D01*
X28288293Y12216568D01*
X28285410Y12216975D01*
X28282635Y12217859D01*
X28270398Y12219237D01*
X28268939Y12219114D01*
X28267499Y12219400D01*
D02*
G37*
G36*
X24457500D02*
X23167500D01*
X23166061Y12219114D01*
X23164600Y12219237D01*
X23152361Y12217857D01*
X23149590Y12216974D01*
X23146710Y12216568D01*
X23135085Y12212501D01*
X23132578Y12211022D01*
X23129857Y12209983D01*
X23119429Y12203430D01*
X23117316Y12201432D01*
X23114897Y12199816D01*
X23106187Y12191108D01*
X23104572Y12188688D01*
X23102571Y12186573D01*
X23096017Y12176144D01*
X23094981Y12173426D01*
X23093501Y12170920D01*
X23089433Y12159296D01*
X23089027Y12156412D01*
X23088142Y12153638D01*
X23086765Y12141399D01*
X23086890Y12139940D01*
X23086603Y12138503D01*
Y10848503D01*
X23086890Y10847065D01*
X23086765Y10845605D01*
X23088142Y10833367D01*
X23089027Y10830594D01*
X23089433Y10827710D01*
X23093501Y10816085D01*
X23094981Y10813578D01*
X23096019Y10810860D01*
X23102573Y10800431D01*
X23104572Y10798317D01*
X23106187Y10795898D01*
X23114896Y10787189D01*
X23117316Y10785572D01*
X23119431Y10783573D01*
X23129858Y10777021D01*
X23132578Y10775984D01*
X23135083Y10774505D01*
X23146709Y10770437D01*
X23149590Y10770030D01*
X23152364Y10769146D01*
X23164601Y10767768D01*
X23166061Y10767891D01*
X23167500Y10767605D01*
X24457500D01*
X24458939Y10767891D01*
X24460397Y10767768D01*
X24472636Y10769146D01*
X24475410Y10770030D01*
X24478291Y10770437D01*
X24489917Y10774505D01*
X24492424Y10775984D01*
X24495142Y10777021D01*
X24505569Y10783573D01*
X24507684Y10785572D01*
X24510104Y10787189D01*
X24518813Y10795898D01*
X24520428Y10798317D01*
X24522427Y10800431D01*
X24528981Y10810859D01*
X24530020Y10813580D01*
X24531499Y10816089D01*
X24535565Y10827714D01*
X24535973Y10830593D01*
X24536855Y10833363D01*
X24538234Y10845601D01*
X24538110Y10847063D01*
X24538397Y10848503D01*
Y12138503D01*
X24538110Y12139942D01*
X24538234Y12141404D01*
X24536855Y12153642D01*
X24535971Y12156413D01*
X24535565Y12159292D01*
X24531499Y12170916D01*
X24530020Y12173424D01*
X24528983Y12176144D01*
X24522429Y12186573D01*
X24520428Y12188688D01*
X24518813Y12191108D01*
X24510103Y12199816D01*
X24507684Y12201432D01*
X24505571Y12203430D01*
X24495143Y12209983D01*
X24492422Y12211022D01*
X24489915Y12212501D01*
X24478290Y12216568D01*
X24475410Y12216974D01*
X24472639Y12217857D01*
X24460400Y12219237D01*
X24458939Y12219114D01*
X24457500Y12219400D01*
D02*
G37*
G36*
X22552499D02*
X21262502D01*
X21261061Y12219114D01*
X21259599Y12219237D01*
X21247362Y12217857D01*
X21244589Y12216974D01*
X21241710Y12216568D01*
X21230086Y12212501D01*
X21227579Y12211022D01*
X21224857Y12209983D01*
X21214429Y12203430D01*
X21212315Y12201432D01*
X21209897Y12199816D01*
X21201189Y12191108D01*
X21199571Y12188688D01*
X21197571Y12186573D01*
X21191019Y12176144D01*
X21189981Y12173426D01*
X21188503Y12170920D01*
X21184435Y12159296D01*
X21184027Y12156412D01*
X21183144Y12153638D01*
X21181766Y12141399D01*
X21181889Y12139940D01*
X21181602Y12138503D01*
Y10848503D01*
X21181889Y10847065D01*
X21181766Y10845605D01*
X21183144Y10833367D01*
X21184027Y10830594D01*
X21184435Y10827710D01*
X21188503Y10816085D01*
X21189981Y10813578D01*
X21191019Y10810860D01*
X21197572Y10800431D01*
X21199571Y10798317D01*
X21201187Y10795898D01*
X21209895Y10787189D01*
X21212315Y10785572D01*
X21214432Y10783573D01*
X21224860Y10777021D01*
X21227577Y10775984D01*
X21230083Y10774505D01*
X21241708Y10770437D01*
X21244591Y10770030D01*
X21247363Y10769146D01*
X21259601Y10767768D01*
X21261063Y10767891D01*
X21262502Y10767605D01*
X22552499D01*
X22553938Y10767891D01*
X22555399Y10767768D01*
X22567638Y10769146D01*
X22570410Y10770030D01*
X22573293Y10770437D01*
X22584917Y10774505D01*
X22587424Y10775984D01*
X22590141Y10777021D01*
X22600569Y10783573D01*
X22602684Y10785572D01*
X22605104Y10787189D01*
X22613812Y10795898D01*
X22615430Y10798317D01*
X22617429Y10800431D01*
X22623981Y10810859D01*
X22625020Y10813580D01*
X22626498Y10816089D01*
X22630565Y10827714D01*
X22630972Y10830593D01*
X22631854Y10833363D01*
X22633234Y10845601D01*
X22633112Y10847063D01*
X22633397Y10848503D01*
Y12138503D01*
X22633112Y12139942D01*
X22633234Y12141404D01*
X22631854Y12153642D01*
X22630971Y12156413D01*
X22630565Y12159292D01*
X22626498Y12170916D01*
X22625020Y12173424D01*
X22623982Y12176144D01*
X22617429Y12186573D01*
X22615430Y12188688D01*
X22613812Y12191108D01*
X22605103Y12199816D01*
X22602684Y12201432D01*
X22600571Y12203430D01*
X22590143Y12209983D01*
X22587424Y12211022D01*
X22584915Y12212501D01*
X22573289Y12216568D01*
X22570412Y12216974D01*
X22567639Y12217857D01*
X22555402Y12219237D01*
X22553938Y12219114D01*
X22552499Y12219400D01*
D02*
G37*
G36*
X20647499Y12219399D02*
X19357501D01*
X19356062Y12219113D01*
X19354602Y12219236D01*
X19342363Y12217858D01*
X19339590Y12216974D01*
X19336708Y12216567D01*
X19325082Y12212499D01*
X19322575Y12211021D01*
X19319859Y12209983D01*
X19309431Y12203431D01*
X19307317Y12201432D01*
X19304897Y12199815D01*
X19296187Y12191106D01*
X19294571Y12188687D01*
X19292572Y12186573D01*
X19286018Y12176145D01*
X19284981Y12173426D01*
X19283502Y12170919D01*
X19279434Y12159294D01*
X19279027Y12156411D01*
X19278143Y12153637D01*
X19276765Y12141398D01*
X19276889Y12139939D01*
X19276604Y12138502D01*
Y10848502D01*
X19276889Y10847064D01*
X19276765Y10845604D01*
X19278143Y10833366D01*
X19279027Y10830592D01*
X19279434Y10827708D01*
X19283502Y10816084D01*
X19284979Y10813578D01*
X19286018Y10810860D01*
X19292570Y10800431D01*
X19294571Y10798316D01*
X19296188Y10795896D01*
X19304897Y10787188D01*
X19307317Y10785572D01*
X19309428Y10783574D01*
X19319856Y10777021D01*
X19322577Y10775982D01*
X19325085Y10774503D01*
X19336710Y10770436D01*
X19339589Y10770030D01*
X19342361Y10769147D01*
X19354599Y10767767D01*
X19356061Y10767890D01*
X19357501Y10767604D01*
X20647499D01*
X20648940Y10767890D01*
X20650401Y10767767D01*
X20662639Y10769147D01*
X20665411Y10770030D01*
X20668291Y10770436D01*
X20679915Y10774503D01*
X20682422Y10775982D01*
X20685143Y10777021D01*
X20695570Y10783574D01*
X20697685Y10785572D01*
X20700104Y10787188D01*
X20708812Y10795896D01*
X20710429Y10798316D01*
X20712428Y10800431D01*
X20718982Y10810860D01*
X20720020Y10813580D01*
X20721500Y10816088D01*
X20725565Y10827712D01*
X20725970Y10830591D01*
X20726854Y10833362D01*
X20728233Y10845600D01*
X20728111Y10847062D01*
X20728397Y10848502D01*
Y12138502D01*
X20728111Y12139941D01*
X20728233Y12141403D01*
X20726854Y12153641D01*
X20725972Y12156411D01*
X20725565Y12159290D01*
X20721500Y12170915D01*
X20720020Y12173424D01*
X20718980Y12176145D01*
X20712428Y12186573D01*
X20710429Y12188687D01*
X20708813Y12191106D01*
X20700104Y12199815D01*
X20697684Y12201432D01*
X20695569Y12203431D01*
X20685141Y12209983D01*
X20682423Y12211021D01*
X20679916Y12212499D01*
X20668292Y12216567D01*
X20665410Y12216974D01*
X20662637Y12217858D01*
X20650398Y12219236D01*
X20648938Y12219113D01*
X20647499Y12219399D01*
D02*
G37*
G36*
X18742499D02*
X17452501D01*
X17451062Y12219113D01*
X17449602Y12219236D01*
X17437363Y12217858D01*
X17434590Y12216974D01*
X17431708Y12216567D01*
X17420084Y12212499D01*
X17417577Y12211021D01*
X17414859Y12209983D01*
X17404431Y12203431D01*
X17402316Y12201432D01*
X17399896Y12199815D01*
X17391187Y12191106D01*
X17389571Y12188687D01*
X17387572Y12186573D01*
X17381020Y12176145D01*
X17379980Y12173426D01*
X17378502Y12170919D01*
X17374434Y12159294D01*
X17374026Y12156411D01*
X17373143Y12153637D01*
X17371765Y12141398D01*
X17371889Y12139939D01*
X17371603Y12138502D01*
Y10848502D01*
X17371889Y10847064D01*
X17371765Y10845604D01*
X17373143Y10833366D01*
X17374026Y10830593D01*
X17374434Y10827709D01*
X17378502Y10816084D01*
X17379980Y10813577D01*
X17381020Y10810858D01*
X17387572Y10800430D01*
X17389571Y10798316D01*
X17391188Y10795896D01*
X17399896Y10787188D01*
X17402316Y10785572D01*
X17404430Y10783574D01*
X17414857Y10777021D01*
X17417577Y10775983D01*
X17420084Y10774504D01*
X17431708Y10770436D01*
X17434590Y10770029D01*
X17437363Y10769145D01*
X17449602Y10767767D01*
X17451062Y10767890D01*
X17452501Y10767604D01*
X18742499D01*
X18743939Y10767890D01*
X18745401Y10767767D01*
X18757639Y10769147D01*
X18760411Y10770030D01*
X18763290Y10770436D01*
X18774915Y10774503D01*
X18777422Y10775982D01*
X18780144Y10777021D01*
X18790572Y10783574D01*
X18792685Y10785572D01*
X18795103Y10787188D01*
X18803812Y10795896D01*
X18805429Y10798316D01*
X18807430Y10800431D01*
X18813982Y10810860D01*
X18815021Y10813580D01*
X18816499Y10816088D01*
X18820564Y10827712D01*
X18820972Y10830591D01*
X18821854Y10833362D01*
X18823235Y10845600D01*
X18823111Y10847062D01*
X18823396Y10848502D01*
Y12138502D01*
X18823111Y12139941D01*
X18823235Y12141403D01*
X18821854Y12153641D01*
X18820972Y12156411D01*
X18820564Y12159290D01*
X18816499Y12170915D01*
X18815021Y12173424D01*
X18813982Y12176145D01*
X18807428Y12186573D01*
X18805429Y12188687D01*
X18803813Y12191106D01*
X18795103Y12199815D01*
X18792683Y12201432D01*
X18790569Y12203431D01*
X18780141Y12209983D01*
X18777423Y12211021D01*
X18774918Y12212499D01*
X18763292Y12216567D01*
X18760410Y12216974D01*
X18757637Y12217858D01*
X18745399Y12219236D01*
X18743938Y12219113D01*
X18742499Y12219399D01*
D02*
G37*
G36*
X16837498D02*
X15547501D01*
X15546062Y12219113D01*
X15544601Y12219236D01*
X15532362Y12217858D01*
X15529588Y12216974D01*
X15526707Y12216567D01*
X15515082Y12212499D01*
X15512575Y12211021D01*
X15509859Y12209983D01*
X15499429Y12203431D01*
X15497314Y12201431D01*
X15494894Y12199814D01*
X15486186Y12191105D01*
X15484570Y12188686D01*
X15482571Y12186573D01*
X15476019Y12176145D01*
X15474982Y12173426D01*
X15473502Y12170919D01*
X15469434Y12159294D01*
X15469028Y12156412D01*
X15468143Y12153639D01*
X15466765Y12141401D01*
X15466888Y12139940D01*
X15466602Y12138502D01*
Y10848502D01*
X15466888Y10847063D01*
X15466765Y10845603D01*
X15468143Y10833364D01*
X15469028Y10830591D01*
X15469434Y10827709D01*
X15473502Y10816084D01*
X15474982Y10813577D01*
X15476019Y10810858D01*
X15482571Y10800430D01*
X15484570Y10798316D01*
X15486188Y10795897D01*
X15494894Y10787189D01*
X15497314Y10785573D01*
X15499428Y10783574D01*
X15509856Y10777021D01*
X15512575Y10775983D01*
X15515082Y10774504D01*
X15526707Y10770436D01*
X15529588Y10770029D01*
X15532362Y10769145D01*
X15544600Y10767767D01*
X15546062Y10767890D01*
X15547501Y10767604D01*
X16837498D01*
X16838937Y10767890D01*
X16840398Y10767767D01*
X16852637Y10769145D01*
X16855409Y10770029D01*
X16858292Y10770436D01*
X16869917Y10774504D01*
X16872424Y10775983D01*
X16875143Y10777021D01*
X16885571Y10783574D01*
X16887685Y10785572D01*
X16890103Y10787188D01*
X16898811Y10795896D01*
X16900429Y10798317D01*
X16902429Y10800432D01*
X16908981Y10810860D01*
X16910019Y10813578D01*
X16911497Y10816084D01*
X16915565Y10827709D01*
X16915971Y10830591D01*
X16916856Y10833364D01*
X16918234Y10845602D01*
X16918111Y10847063D01*
X16918398Y10848502D01*
Y12138502D01*
X16918111Y12139940D01*
X16918234Y12141400D01*
X16916856Y12153639D01*
X16915971Y12156412D01*
X16915565Y12159294D01*
X16911497Y12170919D01*
X16910019Y12173426D01*
X16908981Y12176143D01*
X16902429Y12186572D01*
X16900430Y12188686D01*
X16898813Y12191106D01*
X16890105Y12199815D01*
X16887685Y12201432D01*
X16885568Y12203431D01*
X16875140Y12209983D01*
X16872423Y12211021D01*
X16869917Y12212499D01*
X16858292Y12216567D01*
X16855409Y12216974D01*
X16852637Y12217858D01*
X16840399Y12219236D01*
X16838937Y12219113D01*
X16837498Y12219399D01*
D02*
G37*
G36*
X14932500D02*
X13642500D01*
X13641060Y12219113D01*
X13639598Y12219236D01*
X13627361Y12217856D01*
X13624588Y12216973D01*
X13621709Y12216567D01*
X13610085Y12212500D01*
X13607578Y12211021D01*
X13604855Y12209982D01*
X13594427Y12203429D01*
X13592314Y12201431D01*
X13589896Y12199814D01*
X13581187Y12191106D01*
X13579570Y12188686D01*
X13577571Y12186572D01*
X13571017Y12176143D01*
X13569981Y12173425D01*
X13568501Y12170919D01*
X13564433Y12159295D01*
X13564027Y12156412D01*
X13563142Y12153639D01*
X13561765Y12141401D01*
X13561888Y12139940D01*
X13561601Y12138502D01*
Y10848502D01*
X13561888Y10847063D01*
X13561765Y10845603D01*
X13563142Y10833364D01*
X13564027Y10830591D01*
X13564433Y10827709D01*
X13568501Y10816084D01*
X13569981Y10813577D01*
X13571019Y10810858D01*
X13577573Y10800430D01*
X13579570Y10798316D01*
X13581186Y10795898D01*
X13589894Y10787189D01*
X13592316Y10785572D01*
X13594431Y10783572D01*
X13604858Y10777020D01*
X13607576Y10775983D01*
X13610081Y10774504D01*
X13621707Y10770436D01*
X13624590Y10770029D01*
X13627362Y10769145D01*
X13639600Y10767767D01*
X13641061Y10767890D01*
X13642500Y10767604D01*
X14932500D01*
X14933939Y10767890D01*
X14935397Y10767767D01*
X14947636Y10769145D01*
X14950410Y10770029D01*
X14953291Y10770436D01*
X14964917Y10774504D01*
X14967424Y10775983D01*
X14970142Y10777020D01*
X14980569Y10783572D01*
X14982684Y10785571D01*
X14985104Y10787188D01*
X14993813Y10795897D01*
X14995430Y10798317D01*
X14997429Y10800432D01*
X15003981Y10810860D01*
X15005019Y10813578D01*
X15006497Y10816084D01*
X15010565Y10827709D01*
X15010973Y10830591D01*
X15011856Y10833364D01*
X15013234Y10845602D01*
X15013110Y10847063D01*
X15013397Y10848502D01*
Y12138502D01*
X15013110Y12139940D01*
X15013234Y12141400D01*
X15011856Y12153639D01*
X15010973Y12156413D01*
X15010565Y12159295D01*
X15006497Y12170919D01*
X15005019Y12173424D01*
X15003983Y12176141D01*
X14997430Y12186570D01*
X14995428Y12188686D01*
X14993813Y12191107D01*
X14985103Y12199815D01*
X14982684Y12201431D01*
X14980571Y12203429D01*
X14970143Y12209982D01*
X14967422Y12211021D01*
X14964915Y12212500D01*
X14953290Y12216567D01*
X14950410Y12216973D01*
X14947639Y12217856D01*
X14935400Y12219236D01*
X14933939Y12219113D01*
X14932500Y12219399D01*
D02*
G37*
G36*
X13027499D02*
X11737500D01*
X11736060Y12219113D01*
X11734598Y12219236D01*
X11722360Y12217856D01*
X11719588Y12216973D01*
X11716709Y12216567D01*
X11705084Y12212500D01*
X11702577Y12211021D01*
X11699856Y12209982D01*
X11689428Y12203429D01*
X11687314Y12201431D01*
X11684895Y12199814D01*
X11676187Y12191106D01*
X11674570Y12188686D01*
X11672571Y12186572D01*
X11666018Y12176143D01*
X11664981Y12173425D01*
X11663502Y12170919D01*
X11659434Y12159295D01*
X11659027Y12156412D01*
X11658143Y12153639D01*
X11656765Y12141401D01*
X11656888Y12139940D01*
X11656602Y12138502D01*
Y10848502D01*
X11656888Y10847063D01*
X11656765Y10845603D01*
X11658143Y10833364D01*
X11659027Y10830591D01*
X11659434Y10827709D01*
X11663502Y10816084D01*
X11664981Y10813577D01*
X11666019Y10810858D01*
X11672572Y10800430D01*
X11674570Y10798316D01*
X11676186Y10795898D01*
X11684894Y10787189D01*
X11687315Y10785572D01*
X11689430Y10783572D01*
X11699858Y10777020D01*
X11702576Y10775983D01*
X11705082Y10774504D01*
X11716707Y10770436D01*
X11719589Y10770029D01*
X11722362Y10769145D01*
X11734600Y10767767D01*
X11736061Y10767890D01*
X11737500Y10767604D01*
X13027499D01*
X13028938Y10767890D01*
X13030399Y10767767D01*
X13042638Y10769145D01*
X13045410Y10770029D01*
X13048293Y10770436D01*
X13059917Y10774504D01*
X13062424Y10775983D01*
X13065141Y10777020D01*
X13075569Y10783572D01*
X13077684Y10785571D01*
X13080104Y10787188D01*
X13088812Y10795897D01*
X13090430Y10798317D01*
X13092429Y10800432D01*
X13098981Y10810860D01*
X13100018Y10813578D01*
X13101497Y10816084D01*
X13105565Y10827709D01*
X13105972Y10830591D01*
X13106856Y10833364D01*
X13108234Y10845602D01*
X13108112Y10847063D01*
X13108397Y10848502D01*
Y12138502D01*
X13108112Y12139940D01*
X13108234Y12141400D01*
X13106856Y12153639D01*
X13105972Y12156413D01*
X13105565Y12159295D01*
X13101497Y12170919D01*
X13100018Y12173424D01*
X13098982Y12176141D01*
X13092430Y12186570D01*
X13090430Y12188686D01*
X13088812Y12191107D01*
X13080103Y12199815D01*
X13077684Y12201431D01*
X13075571Y12203429D01*
X13065143Y12209982D01*
X13062424Y12211021D01*
X13059915Y12212500D01*
X13048289Y12216567D01*
X13045412Y12216973D01*
X13042639Y12217856D01*
X13030402Y12219236D01*
X13028938Y12219113D01*
X13027499Y12219399D01*
D02*
G37*
G36*
X11122499D02*
X9832500D01*
X9831060Y12219113D01*
X9829598Y12219236D01*
X9817360Y12217856D01*
X9814588Y12216973D01*
X9811708Y12216566D01*
X9800084Y12212499D01*
X9797578Y12211021D01*
X9794858Y12209983D01*
X9784429Y12203430D01*
X9782315Y12201431D01*
X9779895Y12199814D01*
X9771187Y12191106D01*
X9769570Y12188686D01*
X9767571Y12186572D01*
X9761018Y12176143D01*
X9759980Y12173423D01*
X9758502Y12170917D01*
X9754435Y12159293D01*
X9754028Y12156413D01*
X9753145Y12153641D01*
X9751765Y12141403D01*
X9751888Y12139941D01*
X9751602Y12138502D01*
Y10848502D01*
X9751888Y10847062D01*
X9751765Y10845600D01*
X9753145Y10833362D01*
X9754028Y10830590D01*
X9754434Y10827711D01*
X9758501Y10816086D01*
X9759980Y10813579D01*
X9761019Y10810858D01*
X9767572Y10800430D01*
X9769570Y10798316D01*
X9771186Y10795898D01*
X9779894Y10787189D01*
X9782315Y10785571D01*
X9784431Y10783571D01*
X9794860Y10777019D01*
X9797577Y10775982D01*
X9800082Y10774504D01*
X9811706Y10770436D01*
X9814589Y10770029D01*
X9817362Y10769145D01*
X9829600Y10767767D01*
X9831061Y10767890D01*
X9832500Y10767604D01*
X11122499D01*
X11123938Y10767890D01*
X11125398Y10767767D01*
X11137637Y10769145D01*
X11140410Y10770029D01*
X11143292Y10770436D01*
X11154917Y10774504D01*
X11157424Y10775983D01*
X11160141Y10777020D01*
X11170569Y10783572D01*
X11172684Y10785571D01*
X11175104Y10787188D01*
X11183813Y10795897D01*
X11185430Y10798317D01*
X11187429Y10800432D01*
X11193981Y10810860D01*
X11195019Y10813578D01*
X11196497Y10816084D01*
X11200565Y10827709D01*
X11200972Y10830591D01*
X11201856Y10833364D01*
X11203234Y10845602D01*
X11203111Y10847063D01*
X11203397Y10848502D01*
Y12138502D01*
X11203111Y12139940D01*
X11203234Y12141400D01*
X11201856Y12153639D01*
X11200972Y12156413D01*
X11200565Y12159295D01*
X11196497Y12170919D01*
X11195019Y12173424D01*
X11193982Y12176141D01*
X11187430Y12186570D01*
X11185429Y12188686D01*
X11183812Y12191107D01*
X11175103Y12199815D01*
X11172684Y12201431D01*
X11170571Y12203429D01*
X11160143Y12209982D01*
X11157423Y12211021D01*
X11154915Y12212500D01*
X11143290Y12216567D01*
X11140411Y12216973D01*
X11137639Y12217856D01*
X11125401Y12219236D01*
X11123939Y12219113D01*
X11122499Y12219399D01*
D02*
G37*
G36*
X9217499Y12219398D02*
X7927500D01*
X7926061Y12219112D01*
X7924601Y12219235D01*
X7912362Y12217857D01*
X7909588Y12216973D01*
X7906707Y12216566D01*
X7895082Y12212498D01*
X7892576Y12211020D01*
X7889859Y12209982D01*
X7879430Y12203430D01*
X7877315Y12201431D01*
X7874895Y12199814D01*
X7866186Y12191104D01*
X7864569Y12188685D01*
X7862571Y12186571D01*
X7856018Y12176143D01*
X7854980Y12173424D01*
X7853502Y12170917D01*
X7849434Y12159292D01*
X7849027Y12156412D01*
X7848144Y12153639D01*
X7846765Y12141401D01*
X7846888Y12139939D01*
X7846602Y12138500D01*
Y10848501D01*
X7846888Y10847062D01*
X7846765Y10845600D01*
X7848144Y10833362D01*
X7849028Y10830589D01*
X7849434Y10827708D01*
X7853502Y10816084D01*
X7854980Y10813579D01*
X7856018Y10810860D01*
X7862570Y10800431D01*
X7864570Y10798316D01*
X7866187Y10795896D01*
X7874896Y10787187D01*
X7877314Y10785572D01*
X7879428Y10783573D01*
X7889857Y10777019D01*
X7892577Y10775981D01*
X7895084Y10774502D01*
X7906708Y10770435D01*
X7909589Y10770029D01*
X7912360Y10769146D01*
X7924598Y10767766D01*
X7926060Y10767889D01*
X7927500Y10767603D01*
X9217499D01*
X9218939Y10767889D01*
X9220401Y10767766D01*
X9232639Y10769146D01*
X9235411Y10770029D01*
X9238290Y10770435D01*
X9249915Y10774502D01*
X9252422Y10775981D01*
X9255143Y10777020D01*
X9265571Y10783573D01*
X9267685Y10785571D01*
X9270103Y10787187D01*
X9278812Y10795895D01*
X9280430Y10798316D01*
X9282430Y10800432D01*
X9288982Y10810861D01*
X9290019Y10813578D01*
X9291497Y10816083D01*
X9295565Y10827707D01*
X9295972Y10830590D01*
X9296856Y10833363D01*
X9298234Y10845601D01*
X9298111Y10847062D01*
X9298397Y10848501D01*
Y12138500D01*
X9298111Y12139939D01*
X9298234Y12141399D01*
X9296856Y12153638D01*
X9295972Y12156411D01*
X9295565Y12159293D01*
X9291497Y12170918D01*
X9290019Y12173425D01*
X9288981Y12176142D01*
X9282429Y12186570D01*
X9280430Y12188685D01*
X9278813Y12191105D01*
X9270104Y12199814D01*
X9267684Y12201431D01*
X9265569Y12203430D01*
X9255141Y12209982D01*
X9252423Y12211020D01*
X9249917Y12212498D01*
X9238292Y12216566D01*
X9235410Y12216973D01*
X9232637Y12217857D01*
X9220399Y12219235D01*
X9218938Y12219112D01*
X9217499Y12219398D01*
D02*
G37*
G36*
X7312499D02*
X6022500D01*
X6021062Y12219112D01*
X6019601Y12219235D01*
X6007362Y12217857D01*
X6004590Y12216973D01*
X6001707Y12216566D01*
X5990082Y12212498D01*
X5987576Y12211020D01*
X5984858Y12209982D01*
X5974430Y12203430D01*
X5972315Y12201431D01*
X5969896Y12199814D01*
X5961186Y12191105D01*
X5959570Y12188686D01*
X5957572Y12186572D01*
X5951018Y12176144D01*
X5949980Y12173424D01*
X5948501Y12170916D01*
X5944434Y12159291D01*
X5944027Y12156411D01*
X5943144Y12153638D01*
X5941765Y12141400D01*
X5941888Y12139939D01*
X5941602Y12138500D01*
Y10848501D01*
X5941888Y10847062D01*
X5941765Y10845602D01*
X5943144Y10833363D01*
X5944027Y10830590D01*
X5944434Y10827710D01*
X5948501Y10816085D01*
X5949979Y10813578D01*
X5951018Y10810857D01*
X5957572Y10800429D01*
X5959571Y10798315D01*
X5961187Y10795895D01*
X5969897Y10787187D01*
X5972315Y10785571D01*
X5974428Y10783573D01*
X5984857Y10777020D01*
X5987575Y10775982D01*
X5990082Y10774503D01*
X6001707Y10770435D01*
X6004589Y10770028D01*
X6007362Y10769144D01*
X6019601Y10767766D01*
X6021062Y10767889D01*
X6022500Y10767603D01*
X7312499D01*
X7313939Y10767889D01*
X7315401Y10767766D01*
X7327639Y10769146D01*
X7330410Y10770029D01*
X7333291Y10770435D01*
X7344915Y10774502D01*
X7347422Y10775981D01*
X7350142Y10777019D01*
X7360570Y10783573D01*
X7362685Y10785571D01*
X7365103Y10787187D01*
X7373812Y10795896D01*
X7375429Y10798316D01*
X7377429Y10800431D01*
X7383981Y10810860D01*
X7385019Y10813579D01*
X7386497Y10816084D01*
X7390565Y10827708D01*
X7390971Y10830589D01*
X7391855Y10833362D01*
X7393234Y10845600D01*
X7393111Y10847062D01*
X7393397Y10848501D01*
Y12138500D01*
X7393111Y12139939D01*
X7393234Y12141401D01*
X7391855Y12153639D01*
X7390972Y12156412D01*
X7390565Y12159292D01*
X7386497Y12170917D01*
X7385019Y12173424D01*
X7383981Y12176143D01*
X7377428Y12186571D01*
X7375429Y12188685D01*
X7373813Y12191104D01*
X7365104Y12199814D01*
X7362685Y12201431D01*
X7360569Y12203431D01*
X7350140Y12209982D01*
X7347423Y12211020D01*
X7344917Y12212498D01*
X7333292Y12216566D01*
X7330411Y12216973D01*
X7327637Y12217857D01*
X7315399Y12219235D01*
X7313938Y12219112D01*
X7312499Y12219398D01*
D02*
G37*
G36*
X5407499D02*
X4117500D01*
X4116062Y12219112D01*
X4114601Y12219235D01*
X4102362Y12217857D01*
X4099590Y12216973D01*
X4096707Y12216566D01*
X4085082Y12212498D01*
X4082576Y12211020D01*
X4079858Y12209982D01*
X4069430Y12203430D01*
X4067315Y12201431D01*
X4064896Y12199814D01*
X4056186Y12191105D01*
X4054570Y12188686D01*
X4052572Y12186572D01*
X4046018Y12176144D01*
X4044980Y12173424D01*
X4043501Y12170916D01*
X4039434Y12159291D01*
X4039027Y12156411D01*
X4038144Y12153638D01*
X4036765Y12141400D01*
X4036888Y12139939D01*
X4036602Y12138500D01*
X4036603Y10848501D01*
X4036889Y10847062D01*
X4036765Y10845602D01*
X4038144Y10833363D01*
X4039028Y10830590D01*
X4039434Y10827710D01*
X4043501Y10816085D01*
X4044980Y10813578D01*
X4046018Y10810857D01*
X4052572Y10800429D01*
X4054571Y10798315D01*
X4056188Y10795895D01*
X4064897Y10787187D01*
X4067315Y10785571D01*
X4069429Y10783573D01*
X4079857Y10777020D01*
X4082576Y10775982D01*
X4085083Y10774503D01*
X4096708Y10770435D01*
X4099590Y10770028D01*
X4102362Y10769144D01*
X4114601Y10767766D01*
X4116062Y10767889D01*
X4117500Y10767603D01*
X5407499D01*
X5408937Y10767889D01*
X5410398Y10767766D01*
X5422637Y10769144D01*
X5425409Y10770028D01*
X5428292Y10770435D01*
X5439917Y10774503D01*
X5442424Y10775982D01*
X5445142Y10777020D01*
X5455570Y10783573D01*
X5457684Y10785571D01*
X5460102Y10787187D01*
X5468812Y10795895D01*
X5470429Y10798315D01*
X5472427Y10800429D01*
X5478981Y10810857D01*
X5480019Y10813577D01*
X5481498Y10816085D01*
X5485565Y10827710D01*
X5485972Y10830590D01*
X5486855Y10833363D01*
X5488234Y10845601D01*
X5488111Y10847062D01*
X5488397Y10848501D01*
Y12138500D01*
X5488111Y12139939D01*
X5488234Y12141399D01*
X5486855Y12153638D01*
X5485972Y12156411D01*
X5485565Y12159291D01*
X5481498Y12170916D01*
X5480020Y12173423D01*
X5478981Y12176144D01*
X5472427Y12186572D01*
X5470429Y12188686D01*
X5468813Y12191105D01*
X5460103Y12199814D01*
X5457684Y12201431D01*
X5455569Y12203430D01*
X5445141Y12209982D01*
X5442423Y12211020D01*
X5439917Y12212498D01*
X5428292Y12216566D01*
X5425410Y12216973D01*
X5422637Y12217857D01*
X5410398Y12219235D01*
X5408937Y12219112D01*
X5407499Y12219398D01*
D02*
G37*
G36*
X3502499D02*
X2212500D01*
X2211061Y12219112D01*
X2209599Y12219235D01*
X2197360Y12217855D01*
X2194589Y12216972D01*
X2191709Y12216566D01*
X2180084Y12212499D01*
X2177577Y12211020D01*
X2174857Y12209981D01*
X2164428Y12203428D01*
X2162315Y12201430D01*
X2159897Y12199814D01*
X2151187Y12191106D01*
X2149570Y12188686D01*
X2147571Y12186571D01*
X2141018Y12176142D01*
X2139979Y12173422D01*
X2138501Y12170916D01*
X2134434Y12159292D01*
X2134027Y12156411D01*
X2133144Y12153638D01*
X2131765Y12141400D01*
X2131888Y12139939D01*
X2131602Y12138500D01*
X2131603Y10848501D01*
X2131889Y10847062D01*
X2131765Y10845602D01*
X2133144Y10833363D01*
X2134028Y10830590D01*
X2134434Y10827710D01*
X2138501Y10816085D01*
X2139980Y10813578D01*
X2141018Y10810857D01*
X2147572Y10800429D01*
X2149570Y10798315D01*
X2151187Y10795896D01*
X2159896Y10787187D01*
X2162316Y10785570D01*
X2164431Y10783571D01*
X2174858Y10777019D01*
X2177576Y10775981D01*
X2180083Y10774503D01*
X2191708Y10770435D01*
X2194590Y10770028D01*
X2197362Y10769144D01*
X2209601Y10767766D01*
X2211062Y10767889D01*
X2212500Y10767603D01*
X3502499D01*
X3503937Y10767889D01*
X3505398Y10767766D01*
X3517637Y10769144D01*
X3520410Y10770028D01*
X3523292Y10770435D01*
X3534917Y10774503D01*
X3537423Y10775981D01*
X3540141Y10777019D01*
X3550569Y10783571D01*
X3552684Y10785570D01*
X3555104Y10787187D01*
X3563813Y10795896D01*
X3565429Y10798315D01*
X3567428Y10800429D01*
X3573981Y10810857D01*
X3575020Y10813577D01*
X3576498Y10816085D01*
X3580565Y10827710D01*
X3580972Y10830590D01*
X3581855Y10833363D01*
X3583234Y10845601D01*
X3583111Y10847062D01*
X3583397Y10848501D01*
X3583397Y12138500D01*
X3583111Y12139939D01*
X3583234Y12141399D01*
X3581855Y12153638D01*
X3580972Y12156411D01*
X3580565Y12159292D01*
X3576498Y12170916D01*
X3575020Y12173422D01*
X3573981Y12176142D01*
X3567428Y12186571D01*
X3565429Y12188686D01*
X3563812Y12191106D01*
X3555102Y12199814D01*
X3552684Y12201430D01*
X3550570Y12203428D01*
X3540142Y12209981D01*
X3537422Y12211020D01*
X3534915Y12212499D01*
X3523290Y12216566D01*
X3520410Y12216972D01*
X3517639Y12217855D01*
X3505400Y12219235D01*
X3503938Y12219112D01*
X3502499Y12219398D01*
D02*
G37*
G36*
X1597499D02*
X307500D01*
X306061Y12219112D01*
X304599Y12219235D01*
X292360Y12217855D01*
X289589Y12216972D01*
X286709Y12216566D01*
X275084Y12212499D01*
X272577Y12211020D01*
X269857Y12209981D01*
X259428Y12203428D01*
X257315Y12201430D01*
X254897Y12199814D01*
X246187Y12191106D01*
X244570Y12188686D01*
X242571Y12186571D01*
X236018Y12176142D01*
X234979Y12173422D01*
X233501Y12170916D01*
X229434Y12159292D01*
X229027Y12156411D01*
X228144Y12153638D01*
X226765Y12141400D01*
X226888Y12139939D01*
X226602Y12138500D01*
X226603Y10848501D01*
X226889Y10847062D01*
X226765Y10845602D01*
X228144Y10833363D01*
X229028Y10830590D01*
X229434Y10827710D01*
X233501Y10816085D01*
X234980Y10813578D01*
X236018Y10810857D01*
X242572Y10800429D01*
X244570Y10798315D01*
X246187Y10795896D01*
X254896Y10787187D01*
X257316Y10785570D01*
X259431Y10783571D01*
X269858Y10777019D01*
X272576Y10775981D01*
X275083Y10774503D01*
X286708Y10770435D01*
X289590Y10770028D01*
X292362Y10769144D01*
X304601Y10767766D01*
X306062Y10767889D01*
X307500Y10767603D01*
X1597499D01*
X1598937Y10767889D01*
X1600398Y10767766D01*
X1612637Y10769144D01*
X1615410Y10770028D01*
X1618292Y10770435D01*
X1629917Y10774503D01*
X1632423Y10775981D01*
X1635141Y10777019D01*
X1645569Y10783571D01*
X1647684Y10785570D01*
X1650104Y10787187D01*
X1658813Y10795896D01*
X1660429Y10798315D01*
X1662428Y10800429D01*
X1668981Y10810857D01*
X1670020Y10813577D01*
X1671498Y10816085D01*
X1675565Y10827710D01*
X1675972Y10830590D01*
X1676855Y10833363D01*
X1678234Y10845601D01*
X1678111Y10847062D01*
X1678397Y10848501D01*
X1678397Y12138500D01*
X1678111Y12139939D01*
X1678234Y12141399D01*
X1676855Y12153638D01*
X1675972Y12156411D01*
X1675565Y12159292D01*
X1671498Y12170916D01*
X1670020Y12173422D01*
X1668981Y12176142D01*
X1662428Y12186571D01*
X1660429Y12188686D01*
X1658812Y12191106D01*
X1650102Y12199814D01*
X1647684Y12201430D01*
X1645570Y12203428D01*
X1635142Y12209981D01*
X1632422Y12211020D01*
X1629915Y12212499D01*
X1618290Y12216566D01*
X1615410Y12216972D01*
X1612639Y12217855D01*
X1600400Y12219235D01*
X1598938Y12219112D01*
X1597499Y12219398D01*
D02*
G37*
G36*
X30172498Y10314400D02*
X28882501D01*
X28881061Y10314114D01*
X28879602Y10314237D01*
X28867365Y10312859D01*
X28864590Y10311975D01*
X28861707Y10311568D01*
X28850082Y10307500D01*
X28847577Y10306022D01*
X28844858Y10304984D01*
X28834430Y10298432D01*
X28832315Y10296433D01*
X28829895Y10294816D01*
X28821188Y10286107D01*
X28819571Y10283688D01*
X28817572Y10281574D01*
X28811020Y10271146D01*
X28809982Y10268427D01*
X28808502Y10265920D01*
X28804434Y10254295D01*
X28804028Y10251412D01*
X28803143Y10248638D01*
X28801764Y10236399D01*
X28801889Y10234940D01*
X28801602Y10233503D01*
Y8943503D01*
X28801889Y8942065D01*
X28801764Y8940605D01*
X28803143Y8928367D01*
X28804028Y8925594D01*
X28804434Y8922710D01*
X28808502Y8911085D01*
X28809982Y8908578D01*
X28811020Y8905860D01*
X28817572Y8895431D01*
X28819571Y8893317D01*
X28821188Y8890897D01*
X28829898Y8882189D01*
X28832315Y8880573D01*
X28834430Y8878575D01*
X28844858Y8872022D01*
X28847577Y8870984D01*
X28850082Y8869505D01*
X28861707Y8865437D01*
X28864590Y8865030D01*
X28867365Y8864146D01*
X28879602Y8862768D01*
X28881061Y8862891D01*
X28882501Y8862605D01*
X30172498D01*
X30173938Y8862891D01*
X30175400Y8862768D01*
X30187640Y8864148D01*
X30190411Y8865031D01*
X30193289Y8865437D01*
X30204916Y8869504D01*
X30207422Y8870983D01*
X30210144Y8872022D01*
X30220572Y8878575D01*
X30222684Y8880573D01*
X30225104Y8882189D01*
X30233813Y8890897D01*
X30235428Y8893317D01*
X30237430Y8895432D01*
X30243982Y8905861D01*
X30245020Y8908581D01*
X30246500Y8911089D01*
X30250565Y8922713D01*
X30250970Y8925593D01*
X30251855Y8928363D01*
X30253235Y8940601D01*
X30253110Y8942063D01*
X30253397Y8943503D01*
Y10233503D01*
X30253110Y10234942D01*
X30253235Y10236404D01*
X30251855Y10248642D01*
X30250974Y10251412D01*
X30250565Y10254291D01*
X30246500Y10265916D01*
X30245020Y10268425D01*
X30243982Y10271146D01*
X30237427Y10281574D01*
X30235428Y10283688D01*
X30233813Y10286107D01*
X30225104Y10294816D01*
X30222684Y10296433D01*
X30220569Y10298432D01*
X30210141Y10304984D01*
X30207422Y10306022D01*
X30204916Y10307500D01*
X30193292Y10311568D01*
X30190411Y10311975D01*
X30187637Y10312859D01*
X30175400Y10314237D01*
X30173938Y10314114D01*
X30172498Y10314400D01*
D02*
G37*
G36*
X25409999D02*
X24120001D01*
X24118562Y10314114D01*
X24117102Y10314237D01*
X24104863Y10312859D01*
X24102090Y10311975D01*
X24099208Y10311568D01*
X24087582Y10307500D01*
X24085075Y10306021D01*
X24082356Y10304983D01*
X24071928Y10298430D01*
X24069815Y10296432D01*
X24067397Y10294816D01*
X24058688Y10286108D01*
X24057071Y10283688D01*
X24055072Y10281574D01*
X24048518Y10271146D01*
X24047481Y10268427D01*
X24046002Y10265920D01*
X24041934Y10254295D01*
X24041527Y10251412D01*
X24040643Y10248638D01*
X24039265Y10236399D01*
X24039389Y10234940D01*
X24039104Y10233503D01*
Y8943503D01*
X24039389Y8942065D01*
X24039265Y8940605D01*
X24040643Y8928367D01*
X24041527Y8925594D01*
X24041934Y8922710D01*
X24046002Y8911085D01*
X24047481Y8908578D01*
X24048518Y8905860D01*
X24055072Y8895431D01*
X24057071Y8893317D01*
X24058687Y8890898D01*
X24067397Y8882189D01*
X24069817Y8880572D01*
X24071931Y8878573D01*
X24082359Y8872021D01*
X24085077Y8870984D01*
X24087582Y8869505D01*
X24099208Y8865437D01*
X24102090Y8865030D01*
X24104863Y8864146D01*
X24117101Y8862768D01*
X24118562Y8862891D01*
X24120001Y8862605D01*
X25409999D01*
X25411438Y8862891D01*
X25412898Y8862768D01*
X25425137Y8864146D01*
X25427910Y8865030D01*
X25430792Y8865437D01*
X25442416Y8869505D01*
X25444923Y8870984D01*
X25447641Y8872021D01*
X25458069Y8878573D01*
X25460184Y8880572D01*
X25462604Y8882189D01*
X25471313Y8890898D01*
X25472929Y8893317D01*
X25474928Y8895431D01*
X25481480Y8905859D01*
X25482520Y8908580D01*
X25484000Y8911089D01*
X25488065Y8922714D01*
X25488472Y8925593D01*
X25489354Y8928363D01*
X25490733Y8940601D01*
X25490611Y8942063D01*
X25490897Y8943503D01*
Y10233503D01*
X25490611Y10234942D01*
X25490733Y10236404D01*
X25489354Y10248642D01*
X25488472Y10251412D01*
X25488065Y10254291D01*
X25484000Y10265916D01*
X25482520Y10268425D01*
X25481480Y10271146D01*
X25474928Y10281574D01*
X25472929Y10283688D01*
X25471312Y10286108D01*
X25462604Y10294816D01*
X25460184Y10296432D01*
X25458070Y10298430D01*
X25447643Y10304983D01*
X25444923Y10306021D01*
X25442416Y10307500D01*
X25430792Y10311568D01*
X25427910Y10311975D01*
X25425137Y10312859D01*
X25412898Y10314237D01*
X25411438Y10314114D01*
X25409999Y10314400D01*
D02*
G37*
G36*
X23504999D02*
X22215001D01*
X22213560Y10314114D01*
X22212099Y10314237D01*
X22199861Y10312857D01*
X22197089Y10311974D01*
X22194209Y10311568D01*
X22182585Y10307501D01*
X22180078Y10306022D01*
X22177357Y10304983D01*
X22166930Y10298430D01*
X22164815Y10296432D01*
X22162396Y10294816D01*
X22153688Y10286108D01*
X22152071Y10283688D01*
X22150072Y10281573D01*
X22143518Y10271144D01*
X22142480Y10268426D01*
X22141002Y10265920D01*
X22136934Y10254296D01*
X22136526Y10251412D01*
X22135643Y10248638D01*
X22134265Y10236399D01*
X22134389Y10234940D01*
X22134103Y10233503D01*
Y8943503D01*
X22134389Y8942065D01*
X22134265Y8940605D01*
X22135643Y8928367D01*
X22136526Y8925594D01*
X22136934Y8922710D01*
X22141002Y8911085D01*
X22142480Y8908578D01*
X22143520Y8905860D01*
X22150072Y8895431D01*
X22152071Y8893317D01*
X22153687Y8890898D01*
X22162396Y8882189D01*
X22164816Y8880572D01*
X22166931Y8878573D01*
X22177359Y8872021D01*
X22180077Y8870984D01*
X22182584Y8869505D01*
X22194208Y8865437D01*
X22197090Y8865030D01*
X22199863Y8864146D01*
X22212102Y8862768D01*
X22213562Y8862891D01*
X22215001Y8862605D01*
X23504999D01*
X23506438Y8862891D01*
X23507898Y8862768D01*
X23520137Y8864146D01*
X23522910Y8865030D01*
X23525792Y8865437D01*
X23537418Y8869505D01*
X23539925Y8870984D01*
X23542641Y8872021D01*
X23553069Y8878573D01*
X23555183Y8880572D01*
X23557603Y8882189D01*
X23566313Y8890898D01*
X23567929Y8893317D01*
X23569928Y8895431D01*
X23576482Y8905859D01*
X23577521Y8908580D01*
X23578999Y8911089D01*
X23583064Y8922714D01*
X23583472Y8925593D01*
X23584354Y8928363D01*
X23585735Y8940601D01*
X23585611Y8942063D01*
X23585896Y8943503D01*
Y10233503D01*
X23585611Y10234942D01*
X23585735Y10236404D01*
X23584354Y10248642D01*
X23583472Y10251413D01*
X23583064Y10254292D01*
X23578999Y10265916D01*
X23577521Y10268424D01*
X23576482Y10271144D01*
X23569930Y10281573D01*
X23567929Y10283688D01*
X23566312Y10286108D01*
X23557603Y10294816D01*
X23555183Y10296432D01*
X23553072Y10298430D01*
X23542644Y10304983D01*
X23539923Y10306022D01*
X23537415Y10307501D01*
X23525790Y10311568D01*
X23522911Y10311974D01*
X23520139Y10312857D01*
X23507901Y10314237D01*
X23506439Y10314114D01*
X23504999Y10314400D01*
D02*
G37*
G36*
X21599998D02*
X20310001Y10314399D01*
X20308562Y10314113D01*
X20307101Y10314236D01*
X20294862Y10312858D01*
X20292090Y10311974D01*
X20289207Y10311567D01*
X20277583Y10307499D01*
X20275076Y10306021D01*
X20272359Y10304983D01*
X20261931Y10298431D01*
X20259816Y10296432D01*
X20257396Y10294815D01*
X20248688Y10286106D01*
X20247070Y10283687D01*
X20245071Y10281573D01*
X20238519Y10271145D01*
X20237482Y10268426D01*
X20236002Y10265919D01*
X20231934Y10254294D01*
X20231528Y10251411D01*
X20230643Y10248637D01*
X20229265Y10236398D01*
X20229388Y10234939D01*
X20229103Y10233502D01*
Y8943502D01*
X20229388Y8942064D01*
X20229265Y8940604D01*
X20230643Y8928366D01*
X20231528Y8925592D01*
X20231934Y8922708D01*
X20236002Y8911084D01*
X20237480Y8908578D01*
X20238518Y8905860D01*
X20245071Y8895431D01*
X20247070Y8893316D01*
X20248688Y8890896D01*
X20257397Y8882188D01*
X20259816Y8880572D01*
X20261929Y8878574D01*
X20272357Y8872021D01*
X20275076Y8870982D01*
X20277585Y8869503D01*
X20289211Y8865436D01*
X20292088Y8865030D01*
X20294861Y8864147D01*
X20307098Y8862767D01*
X20308562Y8862890D01*
X20310001Y8862604D01*
X21599998Y8862605D01*
X21601437Y8862891D01*
X21602898Y8862768D01*
X21615137Y8864146D01*
X21617909Y8865030D01*
X21620792Y8865437D01*
X21632417Y8869505D01*
X21634924Y8870984D01*
X21637640Y8872021D01*
X21648068Y8878573D01*
X21650185Y8880572D01*
X21652605Y8882189D01*
X21661313Y8890898D01*
X21662929Y8893317D01*
X21664928Y8895431D01*
X21671481Y8905859D01*
X21672520Y8908580D01*
X21673999Y8911089D01*
X21678065Y8922714D01*
X21678471Y8925593D01*
X21679353Y8928363D01*
X21680734Y8940601D01*
X21680611Y8942063D01*
X21680898Y8943503D01*
Y10233503D01*
X21680611Y10234942D01*
X21680734Y10236404D01*
X21679353Y10248642D01*
X21678471Y10251413D01*
X21678065Y10254292D01*
X21673999Y10265916D01*
X21672520Y10268424D01*
X21671481Y10271144D01*
X21664929Y10281573D01*
X21662929Y10283688D01*
X21661311Y10286108D01*
X21652603Y10294816D01*
X21650185Y10296432D01*
X21648071Y10298430D01*
X21637643Y10304983D01*
X21634923Y10306022D01*
X21632414Y10307501D01*
X21620790Y10311568D01*
X21617911Y10311974D01*
X21615138Y10312857D01*
X21602901Y10314237D01*
X21601439Y10314114D01*
X21599998Y10314400D01*
D02*
G37*
G36*
X19695000Y10314399D02*
X18405000D01*
X18403561Y10314113D01*
X18402103Y10314236D01*
X18389864Y10312858D01*
X18387090Y10311974D01*
X18384209Y10311567D01*
X18372583Y10307499D01*
X18370076Y10306021D01*
X18367358Y10304983D01*
X18356931Y10298431D01*
X18354816Y10296432D01*
X18352396Y10294815D01*
X18343687Y10286106D01*
X18342072Y10283687D01*
X18340073Y10281573D01*
X18333519Y10271145D01*
X18332481Y10268426D01*
X18331001Y10265919D01*
X18326933Y10254294D01*
X18326527Y10251411D01*
X18325642Y10248637D01*
X18324265Y10236398D01*
X18324390Y10234939D01*
X18324103Y10233502D01*
Y8943502D01*
X18324390Y8942064D01*
X18324265Y8940604D01*
X18325642Y8928366D01*
X18326527Y8925592D01*
X18326933Y8922708D01*
X18331001Y8911084D01*
X18332480Y8908578D01*
X18333517Y8905860D01*
X18340071Y8895431D01*
X18342072Y8893316D01*
X18343687Y8890896D01*
X18352397Y8882188D01*
X18354816Y8880572D01*
X18356929Y8878574D01*
X18367357Y8872021D01*
X18370078Y8870982D01*
X18372585Y8869503D01*
X18384210Y8865436D01*
X18387090Y8865030D01*
X18389861Y8864147D01*
X18402100Y8862767D01*
X18403561Y8862890D01*
X18405000Y8862604D01*
X19695000D01*
X19696439Y8862890D01*
X19697900Y8862767D01*
X19710139Y8864147D01*
X19712910Y8865030D01*
X19715790Y8865436D01*
X19727415Y8869503D01*
X19729922Y8870982D01*
X19732643Y8872021D01*
X19743071Y8878574D01*
X19745184Y8880572D01*
X19747603Y8882188D01*
X19756313Y8890896D01*
X19757928Y8893316D01*
X19759929Y8895431D01*
X19766483Y8905860D01*
X19767520Y8908580D01*
X19768999Y8911088D01*
X19773065Y8922712D01*
X19773471Y8925591D01*
X19774355Y8928362D01*
X19775734Y8940600D01*
X19775610Y8942062D01*
X19775897Y8943502D01*
Y10233502D01*
X19775610Y10234941D01*
X19775734Y10236403D01*
X19774355Y10248641D01*
X19773473Y10251411D01*
X19773065Y10254290D01*
X19768999Y10265915D01*
X19767520Y10268424D01*
X19766481Y10271145D01*
X19759927Y10281573D01*
X19757928Y10283687D01*
X19756313Y10286106D01*
X19747604Y10294815D01*
X19745184Y10296432D01*
X19743069Y10298431D01*
X19732642Y10304983D01*
X19729922Y10306021D01*
X19727417Y10307499D01*
X19715791Y10311567D01*
X19712910Y10311974D01*
X19710136Y10312858D01*
X19697899Y10314236D01*
X19696439Y10314113D01*
X19695000Y10314399D01*
D02*
G37*
G36*
X17789999D02*
X16500000D01*
X16498561Y10314113D01*
X16497101Y10314236D01*
X16484862Y10312858D01*
X16482088Y10311974D01*
X16479205Y10311567D01*
X16467583Y10307499D01*
X16465077Y10306021D01*
X16462360Y10304984D01*
X16451932Y10298432D01*
X16449815Y10296432D01*
X16447394Y10294814D01*
X16438686Y10286105D01*
X16437070Y10283686D01*
X16435072Y10281573D01*
X16428519Y10271145D01*
X16427480Y10268425D01*
X16426001Y10265917D01*
X16421935Y10254292D01*
X16421529Y10251413D01*
X16420645Y10248641D01*
X16419266Y10236403D01*
X16419388Y10234941D01*
X16419102Y10233502D01*
Y8943502D01*
X16419388Y8942062D01*
X16419266Y8940600D01*
X16420645Y8928362D01*
X16421529Y8925590D01*
X16421935Y8922711D01*
X16426001Y8911086D01*
X16427480Y8908579D01*
X16428519Y8905858D01*
X16435072Y8895430D01*
X16437071Y8893316D01*
X16438687Y8890897D01*
X16447395Y8882189D01*
X16449815Y8880572D01*
X16451929Y8878573D01*
X16462358Y8872020D01*
X16465076Y8870983D01*
X16467583Y8869504D01*
X16479205Y8865436D01*
X16482089Y8865029D01*
X16484862Y8864145D01*
X16497099Y8862767D01*
X16498561Y8862890D01*
X16500000Y8862604D01*
X17789999D01*
X17791438Y8862890D01*
X17792899Y8862767D01*
X17805138Y8864145D01*
X17807910Y8865029D01*
X17810793Y8865436D01*
X17822417Y8869504D01*
X17824924Y8870983D01*
X17827643Y8872021D01*
X17838071Y8878574D01*
X17840186Y8880572D01*
X17842603Y8882188D01*
X17851312Y8890896D01*
X17852930Y8893316D01*
X17854929Y8895430D01*
X17861481Y8905858D01*
X17862518Y8908577D01*
X17863998Y8911084D01*
X17868066Y8922709D01*
X17868472Y8925593D01*
X17869357Y8928366D01*
X17870735Y8940605D01*
X17870612Y8942064D01*
X17870897Y8943502D01*
Y10233502D01*
X17870612Y10234939D01*
X17870735Y10236399D01*
X17869357Y10248637D01*
X17868472Y10251411D01*
X17868066Y10254294D01*
X17863998Y10265919D01*
X17862518Y10268426D01*
X17861481Y10271145D01*
X17854929Y10281573D01*
X17852930Y10283687D01*
X17851312Y10286106D01*
X17842604Y10294815D01*
X17840184Y10296432D01*
X17838069Y10298431D01*
X17827641Y10304983D01*
X17824924Y10306021D01*
X17822417Y10307499D01*
X17810793Y10311567D01*
X17807910Y10311974D01*
X17805138Y10312858D01*
X17792899Y10314236D01*
X17791438Y10314113D01*
X17789999Y10314399D01*
D02*
G37*
G36*
X15884999D02*
X14595000D01*
X14593561Y10314113D01*
X14592101Y10314236D01*
X14579861Y10312858D01*
X14577087Y10311974D01*
X14574207Y10311567D01*
X14562582Y10307499D01*
X14560075Y10306021D01*
X14557358Y10304983D01*
X14546928Y10298430D01*
X14544815Y10296431D01*
X14542395Y10294814D01*
X14533687Y10286106D01*
X14532071Y10283687D01*
X14530072Y10281573D01*
X14523518Y10271145D01*
X14522479Y10268425D01*
X14521001Y10265917D01*
X14516934Y10254292D01*
X14516528Y10251413D01*
X14515645Y10248641D01*
X14514265Y10236403D01*
X14514388Y10234941D01*
X14514102Y10233502D01*
Y8943502D01*
X14514388Y8942062D01*
X14514265Y8940600D01*
X14515645Y8928362D01*
X14516528Y8925590D01*
X14516934Y8922711D01*
X14521001Y8911086D01*
X14522479Y8908579D01*
X14523518Y8905858D01*
X14530072Y8895430D01*
X14532069Y8893316D01*
X14533685Y8890898D01*
X14542393Y8882189D01*
X14544815Y8880571D01*
X14546931Y8878571D01*
X14557359Y8872019D01*
X14560077Y8870982D01*
X14562582Y8869504D01*
X14574207Y8865436D01*
X14577089Y8865029D01*
X14579861Y8864145D01*
X14592101Y8862767D01*
X14593561Y8862890D01*
X14595000Y8862604D01*
X15884999D01*
X15886438Y8862890D01*
X15887898Y8862767D01*
X15900137Y8864145D01*
X15902910Y8865029D01*
X15905792Y8865436D01*
X15917416Y8869504D01*
X15919923Y8870983D01*
X15922643Y8872021D01*
X15933070Y8878574D01*
X15935185Y8880572D01*
X15937604Y8882188D01*
X15946312Y8890896D01*
X15947929Y8893317D01*
X15949928Y8895432D01*
X15956480Y8905860D01*
X15957520Y8908578D01*
X15958997Y8911084D01*
X15963065Y8922709D01*
X15963472Y8925591D01*
X15964355Y8928364D01*
X15965733Y8940602D01*
X15965611Y8942063D01*
X15965897Y8943502D01*
Y10233502D01*
X15965611Y10234940D01*
X15965733Y10236400D01*
X15964355Y10248639D01*
X15963472Y10251412D01*
X15963065Y10254294D01*
X15958997Y10265919D01*
X15957520Y10268426D01*
X15956480Y10271143D01*
X15949928Y10281572D01*
X15947929Y10283686D01*
X15946313Y10286106D01*
X15937604Y10294815D01*
X15935184Y10296432D01*
X15933069Y10298431D01*
X15922641Y10304983D01*
X15919923Y10306021D01*
X15917416Y10307499D01*
X15905792Y10311567D01*
X15902910Y10311974D01*
X15900137Y10312858D01*
X15887898Y10314236D01*
X15886438Y10314113D01*
X15884999Y10314399D01*
D02*
G37*
G36*
X13979999D02*
X12690000D01*
X12688561Y10314113D01*
X12687101Y10314236D01*
X12674862Y10312858D01*
X12672088Y10311974D01*
X12669206Y10311567D01*
X12657582Y10307499D01*
X12655076Y10306021D01*
X12652358Y10304983D01*
X12641929Y10298430D01*
X12639815Y10296431D01*
X12637395Y10294814D01*
X12628687Y10286106D01*
X12627071Y10283687D01*
X12625072Y10281573D01*
X12618519Y10271145D01*
X12617480Y10268425D01*
X12616001Y10265917D01*
X12611934Y10254292D01*
X12611528Y10251413D01*
X12610645Y10248641D01*
X12609265Y10236403D01*
X12609388Y10234941D01*
X12609102Y10233502D01*
Y8943502D01*
X12609388Y8942062D01*
X12609265Y8940600D01*
X12610645Y8928362D01*
X12611528Y8925590D01*
X12611934Y8922711D01*
X12616001Y8911086D01*
X12617480Y8908579D01*
X12618519Y8905858D01*
X12625072Y8895430D01*
X12627070Y8893316D01*
X12628686Y8890898D01*
X12637394Y8882189D01*
X12639815Y8880571D01*
X12641931Y8878571D01*
X12652360Y8872019D01*
X12655077Y8870982D01*
X12657582Y8869504D01*
X12669206Y8865436D01*
X12672089Y8865029D01*
X12674862Y8864145D01*
X12687100Y8862767D01*
X12688561Y8862890D01*
X12690000Y8862604D01*
X13979999D01*
X13981438Y8862890D01*
X13982898Y8862767D01*
X13995137Y8864145D01*
X13997910Y8865029D01*
X14000792Y8865436D01*
X14012418Y8869504D01*
X14014925Y8870983D01*
X14017641Y8872020D01*
X14028069Y8878572D01*
X14030183Y8880571D01*
X14032603Y8882188D01*
X14041313Y8890897D01*
X14042931Y8893317D01*
X14044930Y8895432D01*
X14051482Y8905860D01*
X14052519Y8908578D01*
X14053996Y8911084D01*
X14058064Y8922709D01*
X14058472Y8925591D01*
X14059357Y8928364D01*
X14060735Y8940602D01*
X14060611Y8942063D01*
X14060896Y8943502D01*
Y10233502D01*
X14060611Y10234940D01*
X14060735Y10236400D01*
X14059357Y10248639D01*
X14058472Y10251412D01*
X14058064Y10254294D01*
X14053996Y10265919D01*
X14052519Y10268426D01*
X14051482Y10271143D01*
X14044930Y10281572D01*
X14042929Y10283687D01*
X14041312Y10286107D01*
X14032603Y10294815D01*
X14030183Y10296431D01*
X14028072Y10298429D01*
X14017644Y10304982D01*
X14014925Y10306020D01*
X14012418Y10307499D01*
X14000792Y10311567D01*
X13997910Y10311974D01*
X13995137Y10312858D01*
X13982899Y10314236D01*
X13981438Y10314113D01*
X13979999Y10314399D01*
D02*
G37*
G36*
X12074999D02*
X10785000D01*
X10783560Y10314113D01*
X10782098Y10314236D01*
X10769860Y10312856D01*
X10767088Y10311973D01*
X10764208Y10311566D01*
X10752584Y10307499D01*
X10750078Y10306021D01*
X10747358Y10304983D01*
X10736929Y10298430D01*
X10734815Y10296431D01*
X10732395Y10294814D01*
X10723687Y10286106D01*
X10722070Y10283686D01*
X10720071Y10281572D01*
X10713518Y10271143D01*
X10712480Y10268423D01*
X10711002Y10265917D01*
X10706935Y10254293D01*
X10706528Y10251413D01*
X10705645Y10248641D01*
X10704265Y10236403D01*
X10704388Y10234941D01*
X10704102Y10233502D01*
Y8943502D01*
X10704388Y8942062D01*
X10704265Y8940600D01*
X10705645Y8928362D01*
X10706528Y8925590D01*
X10706934Y8922711D01*
X10711001Y8911086D01*
X10712480Y8908579D01*
X10713519Y8905858D01*
X10720072Y8895430D01*
X10722070Y8893316D01*
X10723686Y8890898D01*
X10732394Y8882189D01*
X10734815Y8880571D01*
X10736931Y8878571D01*
X10747360Y8872019D01*
X10750077Y8870982D01*
X10752582Y8869504D01*
X10764206Y8865436D01*
X10767089Y8865029D01*
X10769862Y8864145D01*
X10782100Y8862767D01*
X10783561Y8862890D01*
X10785000Y8862604D01*
X12074999D01*
X12076438Y8862890D01*
X12077898Y8862767D01*
X12090137Y8864145D01*
X12092910Y8865029D01*
X12095792Y8865436D01*
X12107417Y8869504D01*
X12109924Y8870983D01*
X12112641Y8872020D01*
X12123069Y8878572D01*
X12125184Y8880571D01*
X12127604Y8882188D01*
X12136313Y8890897D01*
X12137930Y8893317D01*
X12139929Y8895432D01*
X12146481Y8905860D01*
X12147519Y8908578D01*
X12148997Y8911084D01*
X12153065Y8922709D01*
X12153472Y8925591D01*
X12154356Y8928364D01*
X12155734Y8940602D01*
X12155611Y8942063D01*
X12155897Y8943502D01*
Y10233502D01*
X12155611Y10234940D01*
X12155734Y10236400D01*
X12154356Y10248639D01*
X12153472Y10251413D01*
X12153065Y10254295D01*
X12148997Y10265919D01*
X12147519Y10268424D01*
X12146482Y10271141D01*
X12139930Y10281570D01*
X12137929Y10283686D01*
X12136312Y10286107D01*
X12127603Y10294815D01*
X12125184Y10296431D01*
X12123071Y10298429D01*
X12112643Y10304982D01*
X12109923Y10306021D01*
X12107415Y10307500D01*
X12095790Y10311567D01*
X12092911Y10311973D01*
X12090139Y10312856D01*
X12077901Y10314236D01*
X12076439Y10314113D01*
X12074999Y10314399D01*
D02*
G37*
G36*
X10169999D02*
X8880000Y10314398D01*
X8878561Y10314112D01*
X8877101Y10314235D01*
X8864862Y10312857D01*
X8862088Y10311973D01*
X8859206Y10311566D01*
X8847582Y10307498D01*
X8845077Y10306020D01*
X8842360Y10304983D01*
X8831931Y10298431D01*
X8829815Y10296431D01*
X8827394Y10294813D01*
X8818686Y10286104D01*
X8817070Y10283685D01*
X8815072Y10281572D01*
X8808519Y10271144D01*
X8807480Y10268424D01*
X8806001Y10265916D01*
X8801934Y10254291D01*
X8801528Y10251412D01*
X8800645Y10248640D01*
X8799265Y10236402D01*
X8799388Y10234940D01*
X8799102Y10233500D01*
Y8943501D01*
X8799388Y8942061D01*
X8799265Y8940599D01*
X8800645Y8928361D01*
X8801528Y8925589D01*
X8801935Y8922709D01*
X8806002Y8911085D01*
X8807480Y8908579D01*
X8808518Y8905859D01*
X8815071Y8895430D01*
X8817070Y8893316D01*
X8818687Y8890896D01*
X8827395Y8882188D01*
X8829815Y8880571D01*
X8831929Y8878572D01*
X8842358Y8872019D01*
X8845078Y8870981D01*
X8847584Y8869503D01*
X8859208Y8865436D01*
X8862088Y8865029D01*
X8864860Y8864146D01*
X8877098Y8862766D01*
X8878560Y8862889D01*
X8880000Y8862603D01*
X10169999Y8862604D01*
X10171438Y8862890D01*
X10172898Y8862767D01*
X10185137Y8864145D01*
X10187910Y8865029D01*
X10190792Y8865436D01*
X10202417Y8869504D01*
X10204924Y8870983D01*
X10207641Y8872020D01*
X10218069Y8878572D01*
X10220184Y8880571D01*
X10222604Y8882188D01*
X10231313Y8890897D01*
X10232930Y8893317D01*
X10234929Y8895432D01*
X10241481Y8905860D01*
X10242519Y8908578D01*
X10243997Y8911084D01*
X10248065Y8922709D01*
X10248472Y8925591D01*
X10249356Y8928364D01*
X10250734Y8940602D01*
X10250611Y8942063D01*
X10250897Y8943502D01*
Y10233502D01*
X10250611Y10234940D01*
X10250734Y10236400D01*
X10249356Y10248639D01*
X10248472Y10251413D01*
X10248065Y10254295D01*
X10243997Y10265919D01*
X10242519Y10268424D01*
X10241482Y10271141D01*
X10234930Y10281570D01*
X10232929Y10283686D01*
X10231312Y10286107D01*
X10222603Y10294815D01*
X10220184Y10296431D01*
X10218071Y10298429D01*
X10207643Y10304982D01*
X10204923Y10306021D01*
X10202415Y10307500D01*
X10190790Y10311567D01*
X10187911Y10311973D01*
X10185139Y10312856D01*
X10172901Y10314236D01*
X10171439Y10314113D01*
X10169999Y10314399D01*
D02*
G37*
G36*
X8265000Y10314398D02*
X6975000D01*
X6973562Y10314112D01*
X6972101Y10314235D01*
X6959862Y10312857D01*
X6957089Y10311973D01*
X6954207Y10311566D01*
X6942583Y10307498D01*
X6940077Y10306020D01*
X6937359Y10304982D01*
X6926931Y10298430D01*
X6924816Y10296431D01*
X6922395Y10294814D01*
X6913686Y10286104D01*
X6912070Y10283685D01*
X6910071Y10281571D01*
X6903519Y10271143D01*
X6902481Y10268424D01*
X6901002Y10265917D01*
X6896935Y10254292D01*
X6896528Y10251412D01*
X6895644Y10248639D01*
X6894265Y10236401D01*
X6894388Y10234939D01*
X6894102Y10233500D01*
Y8943501D01*
X6894388Y8942062D01*
X6894265Y8940600D01*
X6895644Y8928362D01*
X6896528Y8925589D01*
X6896935Y8922708D01*
X6901002Y8911084D01*
X6902480Y8908579D01*
X6903518Y8905860D01*
X6910071Y8895431D01*
X6912070Y8893316D01*
X6913687Y8890896D01*
X6922396Y8882187D01*
X6924815Y8880572D01*
X6926929Y8878573D01*
X6937358Y8872019D01*
X6940077Y8870981D01*
X6942584Y8869502D01*
X6954209Y8865435D01*
X6957089Y8865029D01*
X6959860Y8864146D01*
X6972099Y8862766D01*
X6973561Y8862889D01*
X6975000Y8862603D01*
X8265000D01*
X8266439Y8862889D01*
X8267901Y8862766D01*
X8280140Y8864146D01*
X8282911Y8865029D01*
X8285791Y8865435D01*
X8297416Y8869502D01*
X8299923Y8870981D01*
X8302642Y8872019D01*
X8313071Y8878573D01*
X8315185Y8880571D01*
X8317604Y8882187D01*
X8326313Y8890896D01*
X8327930Y8893316D01*
X8329929Y8895431D01*
X8336482Y8905860D01*
X8337520Y8908579D01*
X8338998Y8911084D01*
X8343065Y8922708D01*
X8343472Y8925589D01*
X8344356Y8928362D01*
X8345735Y8940600D01*
X8345612Y8942062D01*
X8345898Y8943501D01*
Y10233500D01*
X8345612Y10234939D01*
X8345735Y10236401D01*
X8344356Y10248639D01*
X8343472Y10251412D01*
X8343065Y10254292D01*
X8338998Y10265917D01*
X8337519Y10268424D01*
X8336481Y10271143D01*
X8329928Y10281571D01*
X8327930Y10283685D01*
X8326314Y10286104D01*
X8317605Y10294814D01*
X8315185Y10296431D01*
X8313069Y10298431D01*
X8302641Y10304982D01*
X8299924Y10306020D01*
X8297418Y10307498D01*
X8285793Y10311566D01*
X8282911Y10311973D01*
X8280138Y10312857D01*
X8267899Y10314235D01*
X8266438Y10314112D01*
X8265000Y10314398D01*
D02*
G37*
G36*
X6359999D02*
X5070001D01*
X5068562Y10314112D01*
X5067102Y10314235D01*
X5054863Y10312857D01*
X5052090Y10311973D01*
X5049208Y10311566D01*
X5037583Y10307498D01*
X5035076Y10306020D01*
X5032359Y10304982D01*
X5021931Y10298430D01*
X5019816Y10296431D01*
X5017396Y10294814D01*
X5008687Y10286105D01*
X5007071Y10283686D01*
X5005072Y10281572D01*
X4998519Y10271144D01*
X4997480Y10268424D01*
X4996001Y10265916D01*
X4991934Y10254291D01*
X4991528Y10251411D01*
X4990644Y10248638D01*
X4989266Y10236400D01*
X4989389Y10234939D01*
X4989103Y10233500D01*
Y8943501D01*
X4989389Y8942062D01*
X4989266Y8940602D01*
X4990644Y8928363D01*
X4991528Y8925590D01*
X4991934Y8922710D01*
X4996001Y8911085D01*
X4997480Y8908578D01*
X4998519Y8905857D01*
X5005072Y8895429D01*
X5007071Y8893315D01*
X5008688Y8890895D01*
X5017397Y8882187D01*
X5019816Y8880571D01*
X5021929Y8878573D01*
X5032357Y8872020D01*
X5035076Y8870982D01*
X5037583Y8869503D01*
X5049208Y8865435D01*
X5052090Y8865028D01*
X5054863Y8864144D01*
X5067101Y8862766D01*
X5068562Y8862889D01*
X5070001Y8862603D01*
X6359999D01*
X6361438Y8862889D01*
X6362898Y8862766D01*
X6375137Y8864144D01*
X6377910Y8865028D01*
X6380792Y8865435D01*
X6392417Y8869503D01*
X6394924Y8870982D01*
X6397643Y8872020D01*
X6408071Y8878573D01*
X6410185Y8880571D01*
X6412603Y8882187D01*
X6421312Y8890895D01*
X6422929Y8893315D01*
X6424928Y8895429D01*
X6431481Y8905857D01*
X6432520Y8908577D01*
X6433999Y8911085D01*
X6438066Y8922710D01*
X6438472Y8925590D01*
X6439356Y8928363D01*
X6440734Y8940601D01*
X6440611Y8942062D01*
X6440897Y8943501D01*
Y10233500D01*
X6440611Y10234939D01*
X6440734Y10236399D01*
X6439356Y10248638D01*
X6438472Y10251411D01*
X6438066Y10254291D01*
X6433999Y10265916D01*
X6432520Y10268423D01*
X6431481Y10271144D01*
X6424928Y10281572D01*
X6422929Y10283686D01*
X6421313Y10286105D01*
X6412604Y10294814D01*
X6410184Y10296431D01*
X6408069Y10298430D01*
X6397641Y10304982D01*
X6394923Y10306020D01*
X6392417Y10307498D01*
X6380792Y10311566D01*
X6377910Y10311973D01*
X6375137Y10312857D01*
X6362899Y10314235D01*
X6361438Y10314112D01*
X6359999Y10314398D01*
D02*
G37*
G36*
X4454999D02*
X3165000D01*
X3163562Y10314112D01*
X3162101Y10314235D01*
X3149862Y10312857D01*
X3147090Y10311973D01*
X3144208Y10311566D01*
X3132583Y10307498D01*
X3130076Y10306019D01*
X3127357Y10304981D01*
X3116929Y10298428D01*
X3114815Y10296430D01*
X3112397Y10294814D01*
X3103688Y10286106D01*
X3102071Y10283686D01*
X3100072Y10281572D01*
X3093519Y10271144D01*
X3092480Y10268424D01*
X3091001Y10265916D01*
X3086934Y10254291D01*
X3086528Y10251411D01*
X3085644Y10248638D01*
X3084265Y10236400D01*
X3084389Y10234939D01*
X3084103Y10233500D01*
X3084103Y8943501D01*
X3084389Y8942062D01*
X3084266Y8940602D01*
X3085644Y8928363D01*
X3086528Y8925590D01*
X3086934Y8922710D01*
X3091001Y8911085D01*
X3092480Y8908578D01*
X3093519Y8905857D01*
X3100072Y8895429D01*
X3102071Y8893315D01*
X3103687Y8890896D01*
X3112396Y8882187D01*
X3114816Y8880570D01*
X3116931Y8878571D01*
X3127359Y8872019D01*
X3130077Y8870981D01*
X3132583Y8869503D01*
X3144208Y8865435D01*
X3147090Y8865028D01*
X3149863Y8864144D01*
X3162101Y8862766D01*
X3163562Y8862889D01*
X3165001Y8862603D01*
X4454999D01*
X4456438Y8862889D01*
X4457898Y8862766D01*
X4470137Y8864144D01*
X4472910Y8865028D01*
X4475792Y8865435D01*
X4487417Y8869503D01*
X4489924Y8870982D01*
X4492643Y8872020D01*
X4503071Y8878573D01*
X4505185Y8880571D01*
X4507603Y8882187D01*
X4516312Y8890895D01*
X4517929Y8893315D01*
X4519928Y8895429D01*
X4526481Y8905857D01*
X4527520Y8908577D01*
X4528999Y8911085D01*
X4533066Y8922710D01*
X4533472Y8925590D01*
X4534356Y8928363D01*
X4535734Y8940601D01*
X4535611Y8942062D01*
X4535897Y8943501D01*
Y10233500D01*
X4535611Y10234939D01*
X4535734Y10236399D01*
X4534356Y10248638D01*
X4533472Y10251411D01*
X4533066Y10254291D01*
X4528999Y10265916D01*
X4527520Y10268423D01*
X4526481Y10271144D01*
X4519928Y10281572D01*
X4517929Y10283686D01*
X4516313Y10286105D01*
X4507604Y10294814D01*
X4505184Y10296431D01*
X4503069Y10298430D01*
X4492641Y10304982D01*
X4489923Y10306020D01*
X4487417Y10307498D01*
X4475792Y10311566D01*
X4472910Y10311973D01*
X4470137Y10312857D01*
X4457899Y10314235D01*
X4456438Y10314112D01*
X4454999Y10314398D01*
D02*
G37*
G36*
X2073749D02*
X783750D01*
X782312Y10314112D01*
X780851Y10314235D01*
X768612Y10312857D01*
X765840Y10311973D01*
X762958Y10311566D01*
X751333Y10307498D01*
X748826Y10306019D01*
X746107Y10304981D01*
X735679Y10298428D01*
X733565Y10296430D01*
X731147Y10294814D01*
X722438Y10286106D01*
X720821Y10283686D01*
X718822Y10281572D01*
X712269Y10271144D01*
X711230Y10268424D01*
X709751Y10265916D01*
X705684Y10254291D01*
X705278Y10251411D01*
X704394Y10248638D01*
X703015Y10236400D01*
X703139Y10234939D01*
X702853Y10233500D01*
X702853Y8943501D01*
X703139Y8942062D01*
X703016Y8940602D01*
X704394Y8928363D01*
X705278Y8925590D01*
X705684Y8922710D01*
X709751Y8911085D01*
X711230Y8908578D01*
X712269Y8905857D01*
X718822Y8895429D01*
X720821Y8893315D01*
X722437Y8890896D01*
X731146Y8882187D01*
X733566Y8880570D01*
X735681Y8878571D01*
X746109Y8872019D01*
X748827Y8870981D01*
X751333Y8869503D01*
X762958Y8865435D01*
X765840Y8865028D01*
X768613Y8864144D01*
X780851Y8862766D01*
X782312Y8862889D01*
X783751Y8862603D01*
X2073749D01*
X2075188Y8862889D01*
X2076648Y8862766D01*
X2088887Y8864144D01*
X2091660Y8865028D01*
X2094542Y8865435D01*
X2106167Y8869503D01*
X2108674Y8870981D01*
X2111391Y8872019D01*
X2121819Y8878571D01*
X2123934Y8880570D01*
X2126354Y8882187D01*
X2135063Y8890896D01*
X2136679Y8893315D01*
X2138678Y8895429D01*
X2145231Y8905857D01*
X2146270Y8908577D01*
X2147749Y8911085D01*
X2151816Y8922710D01*
X2152222Y8925590D01*
X2153106Y8928363D01*
X2154484Y8940601D01*
X2154361Y8942062D01*
X2154647Y8943501D01*
X2154647Y10233500D01*
X2154361Y10234939D01*
X2154484Y10236399D01*
X2153105Y10248638D01*
X2152222Y10251411D01*
X2151815Y10254291D01*
X2147748Y10265916D01*
X2146270Y10268423D01*
X2145231Y10271144D01*
X2138678Y10281572D01*
X2136679Y10283686D01*
X2135062Y10286106D01*
X2126353Y10294814D01*
X2123934Y10296430D01*
X2121821Y10298428D01*
X2111393Y10304981D01*
X2108674Y10306019D01*
X2106167Y10307498D01*
X2094542Y10311566D01*
X2091660Y10311973D01*
X2088887Y10312857D01*
X2076648Y10314235D01*
X2075187Y10314112D01*
X2073749Y10314398D01*
D02*
G37*
G36*
X27879376Y10215025D02*
X26589374D01*
X26587936Y10214739D01*
X26586475Y10214862D01*
X26563110Y10212230D01*
X26560339Y10211346D01*
X26557455Y10210939D01*
X26535263Y10203173D01*
X26532758Y10201695D01*
X26530038Y10200658D01*
X26510129Y10188149D01*
X26508014Y10186150D01*
X26505594Y10184532D01*
X26488968Y10167907D01*
X26487354Y10165487D01*
X26485352Y10163372D01*
X26472845Y10143464D01*
X26471808Y10140745D01*
X26470328Y10138239D01*
X26462561Y10116046D01*
X26462155Y10113163D01*
X26461270Y10110390D01*
X26458640Y10087026D01*
X26458762Y10085565D01*
X26458478Y10084127D01*
Y9569127D01*
X26458762Y9567689D01*
X26458640Y9566229D01*
X26461270Y9542865D01*
X26462155Y9540092D01*
X26462561Y9537209D01*
X26470328Y9515016D01*
X26471808Y9512509D01*
X26472845Y9509791D01*
X26485352Y9489883D01*
X26487354Y9487768D01*
X26488968Y9485349D01*
X26505594Y9468723D01*
X26508014Y9467106D01*
X26510129Y9465107D01*
X26530038Y9452598D01*
X26532758Y9451560D01*
X26535263Y9450082D01*
X26557455Y9442316D01*
X26560339Y9441909D01*
X26563110Y9441025D01*
X26586475Y9438393D01*
X26587936Y9438516D01*
X26589374Y9438230D01*
X27879376D01*
X27880814Y9438516D01*
X27882275Y9438393D01*
X27905640Y9441025D01*
X27908411Y9441909D01*
X27911292Y9442316D01*
X27933487Y9450082D01*
X27935995Y9451561D01*
X27938712Y9452598D01*
X27958618Y9465107D01*
X27960733Y9467106D01*
X27963153Y9468723D01*
X27979779Y9485349D01*
X27981396Y9487767D01*
X27983392Y9489881D01*
X27995905Y9509790D01*
X27996942Y9512511D01*
X27998422Y9515018D01*
X28006186Y9537211D01*
X28006592Y9540091D01*
X28007477Y9542863D01*
X28010110Y9566227D01*
X28009985Y9567689D01*
X28010272Y9569128D01*
Y10084128D01*
X28009985Y10085567D01*
X28010110Y10087029D01*
X28007477Y10110393D01*
X28006592Y10113163D01*
X28006186Y10116044D01*
X27998422Y10138238D01*
X27996942Y10140745D01*
X27995905Y10143465D01*
X27983392Y10163374D01*
X27981396Y10165488D01*
X27979779Y10167907D01*
X27963153Y10184532D01*
X27960733Y10186149D01*
X27958618Y10188148D01*
X27938712Y10200657D01*
X27935992Y10201695D01*
X27933487Y10203173D01*
X27911292Y10210939D01*
X27908411Y10211346D01*
X27905640Y10212230D01*
X27882275Y10214862D01*
X27880814Y10214739D01*
X27879376Y10215025D01*
D02*
G37*
G36*
X28029376Y9361900D02*
X26739374D01*
X26737936Y9361614D01*
X26736475Y9361737D01*
X26724237Y9360359D01*
X26721463Y9359475D01*
X26718582Y9359068D01*
X26706958Y9355000D01*
X26704449Y9353521D01*
X26701730Y9352483D01*
X26691302Y9345930D01*
X26689188Y9343932D01*
X26686771Y9342316D01*
X26678061Y9333608D01*
X26676443Y9331186D01*
X26674445Y9329071D01*
X26667892Y9318643D01*
X26666855Y9315925D01*
X26665378Y9313420D01*
X26661310Y9301795D01*
X26660904Y9298914D01*
X26660019Y9296142D01*
X26658640Y9283904D01*
X26658762Y9282442D01*
X26658478Y9281003D01*
Y7991003D01*
X26658762Y7989563D01*
X26658640Y7988101D01*
X26660019Y7975863D01*
X26660904Y7973091D01*
X26661310Y7970210D01*
X26665378Y7958585D01*
X26666855Y7956079D01*
X26667892Y7953362D01*
X26674445Y7942934D01*
X26676443Y7940819D01*
X26678061Y7938398D01*
X26686771Y7929689D01*
X26689191Y7928073D01*
X26691302Y7926074D01*
X26701733Y7919521D01*
X26704449Y7918484D01*
X26706958Y7917005D01*
X26718582Y7912937D01*
X26721463Y7912530D01*
X26724237Y7911646D01*
X26736475Y7910268D01*
X26737936Y7910391D01*
X26739374Y7910105D01*
X28029376D01*
X28030814Y7910391D01*
X28032275Y7910268D01*
X28044513Y7911647D01*
X28047287Y7912531D01*
X28050168Y7912938D01*
X28061792Y7917005D01*
X28064297Y7918483D01*
X28067014Y7919520D01*
X28077444Y7926073D01*
X28079559Y7928073D01*
X28081982Y7929691D01*
X28090689Y7938400D01*
X28092303Y7940818D01*
X28094302Y7942932D01*
X28100854Y7953360D01*
X28101895Y7956079D01*
X28103372Y7958585D01*
X28107440Y7970210D01*
X28107846Y7973090D01*
X28108731Y7975863D01*
X28110110Y7988101D01*
X28109988Y7989563D01*
X28110272Y7991003D01*
Y9281003D01*
X28109988Y9282442D01*
X28110110Y9283904D01*
X28108731Y9296142D01*
X28107846Y9298914D01*
X28107440Y9301795D01*
X28103372Y9313420D01*
X28101892Y9315927D01*
X28100854Y9318646D01*
X28094302Y9329074D01*
X28092303Y9331187D01*
X28090689Y9333605D01*
X28081982Y9342314D01*
X28079562Y9343932D01*
X28077444Y9345933D01*
X28067014Y9352485D01*
X28064297Y9353522D01*
X28061792Y9355000D01*
X28050168Y9359068D01*
X28047287Y9359475D01*
X28044513Y9360359D01*
X28032275Y9361737D01*
X28030814Y9361614D01*
X28029376Y9361900D01*
D02*
G37*
G36*
X30172498Y8409401D02*
X28882501Y8409400D01*
X28881061Y8409114D01*
X28879602Y8409237D01*
X28867365Y8407859D01*
X28864590Y8406975D01*
X28861707Y8406568D01*
X28850082Y8402500D01*
X28847577Y8401021D01*
X28844858Y8399984D01*
X28834430Y8393431D01*
X28832315Y8391433D01*
X28829898Y8389816D01*
X28821188Y8381107D01*
X28819571Y8378688D01*
X28817572Y8376574D01*
X28811020Y8366146D01*
X28809982Y8363427D01*
X28808502Y8360920D01*
X28804434Y8349295D01*
X28804028Y8346412D01*
X28803143Y8343638D01*
X28801764Y8331399D01*
X28801889Y8329940D01*
X28801602Y8328503D01*
Y7038503D01*
X28801889Y7037063D01*
X28801767Y7035601D01*
X28803146Y7023363D01*
X28804028Y7020593D01*
X28804434Y7017713D01*
X28808502Y7006089D01*
X28809979Y7003582D01*
X28811017Y7000860D01*
X28817572Y6990432D01*
X28819571Y6988317D01*
X28821188Y6985898D01*
X28829898Y6977189D01*
X28832315Y6975573D01*
X28834430Y6973574D01*
X28844858Y6967021D01*
X28847577Y6965984D01*
X28850085Y6964505D01*
X28861710Y6960437D01*
X28864590Y6960031D01*
X28867361Y6959147D01*
X28879599Y6957768D01*
X28881061Y6957891D01*
X28882501Y6957605D01*
X30172498Y6957605D01*
X30173938Y6957891D01*
X30175397Y6957768D01*
X30187637Y6959147D01*
X30190411Y6960031D01*
X30193292Y6960437D01*
X30204916Y6964506D01*
X30207425Y6965984D01*
X30210141Y6967022D01*
X30220569Y6973575D01*
X30222684Y6975573D01*
X30225104Y6977190D01*
X30233813Y6985898D01*
X30235428Y6988317D01*
X30237427Y6990432D01*
X30243982Y7000860D01*
X30245020Y7003578D01*
X30246497Y7006085D01*
X30250565Y7017710D01*
X30250974Y7020594D01*
X30251859Y7023367D01*
X30253235Y7035606D01*
X30253110Y7037066D01*
X30253397Y7038503D01*
Y8328503D01*
X30253110Y8329942D01*
X30253235Y8331404D01*
X30251855Y8343643D01*
X30250974Y8346413D01*
X30250565Y8349292D01*
X30246500Y8360917D01*
X30245020Y8363424D01*
X30243982Y8366145D01*
X30237427Y8376574D01*
X30235428Y8378689D01*
X30233813Y8381108D01*
X30225104Y8389817D01*
X30222684Y8391433D01*
X30220569Y8393432D01*
X30210141Y8399984D01*
X30207422Y8401022D01*
X30204916Y8402501D01*
X30193292Y8406568D01*
X30190411Y8406975D01*
X30187637Y8407859D01*
X30175400Y8409238D01*
X30173938Y8409115D01*
X30172498Y8409401D01*
D02*
G37*
G36*
X25886249Y8409400D02*
X24596251D01*
X24594812Y8409114D01*
X24593350Y8409237D01*
X24581113Y8407858D01*
X24578339Y8406975D01*
X24575459Y8406568D01*
X24563834Y8402500D01*
X24561327Y8401022D01*
X24558607Y8399984D01*
X24548180Y8393431D01*
X24546066Y8391433D01*
X24543646Y8389816D01*
X24534937Y8381107D01*
X24533321Y8378688D01*
X24531322Y8376574D01*
X24524768Y8366145D01*
X24523730Y8363426D01*
X24522252Y8360920D01*
X24518184Y8349295D01*
X24517776Y8346412D01*
X24516893Y8343638D01*
X24515515Y8331399D01*
X24515639Y8329940D01*
X24515353Y8328503D01*
Y7038503D01*
X24515639Y7037063D01*
X24515517Y7035601D01*
X24516896Y7023363D01*
X24517778Y7020593D01*
X24518185Y7017714D01*
X24522250Y7006089D01*
X24523730Y7003580D01*
X24524770Y7000860D01*
X24531322Y6990431D01*
X24533321Y6988317D01*
X24534937Y6985898D01*
X24543646Y6977189D01*
X24546066Y6975573D01*
X24548180Y6973574D01*
X24558607Y6967021D01*
X24561327Y6965984D01*
X24563834Y6964505D01*
X24575458Y6960437D01*
X24578340Y6960030D01*
X24581113Y6959146D01*
X24593352Y6957768D01*
X24594812Y6957891D01*
X24596251Y6957605D01*
X25886249D01*
X25887689Y6957891D01*
X25889148Y6957768D01*
X25901385Y6959146D01*
X25904160Y6960030D01*
X25907043Y6960437D01*
X25918668Y6964505D01*
X25921173Y6965984D01*
X25923892Y6967021D01*
X25934320Y6973574D01*
X25936435Y6975573D01*
X25938852Y6977189D01*
X25947562Y6985898D01*
X25949179Y6988317D01*
X25951178Y6990431D01*
X25957730Y7000859D01*
X25958768Y7003578D01*
X25960248Y7006085D01*
X25964316Y7017710D01*
X25964722Y7020594D01*
X25965607Y7023367D01*
X25966986Y7035606D01*
X25966861Y7037065D01*
X25967148Y7038503D01*
Y8328503D01*
X25966861Y8329942D01*
X25966983Y8331404D01*
X25965604Y8343642D01*
X25964722Y8346412D01*
X25964316Y8349292D01*
X25960248Y8360916D01*
X25958771Y8363423D01*
X25957733Y8366145D01*
X25951178Y8376574D01*
X25949179Y8378688D01*
X25947562Y8381107D01*
X25938852Y8389816D01*
X25936435Y8391433D01*
X25934320Y8393431D01*
X25923892Y8399984D01*
X25921173Y8401022D01*
X25918665Y8402500D01*
X25907040Y8406568D01*
X25904160Y8406975D01*
X25901389Y8407858D01*
X25889151Y8409237D01*
X25887689Y8409114D01*
X25886249Y8409400D01*
D02*
G37*
G36*
X23981248D02*
X22691251Y8409400D01*
X22689812Y8409114D01*
X22688351Y8409237D01*
X22676112Y8407858D01*
X22673340Y8406975D01*
X22670457Y8406568D01*
X22658833Y8402500D01*
X22656326Y8401021D01*
X22653609Y8399983D01*
X22643179Y8393431D01*
X22641066Y8391432D01*
X22638647Y8389816D01*
X22629938Y8381107D01*
X22628320Y8378688D01*
X22626321Y8376574D01*
X22619769Y8366145D01*
X22618732Y8363427D01*
X22617252Y8360920D01*
X22613184Y8349295D01*
X22612778Y8346411D01*
X22611893Y8343638D01*
X22610515Y8331399D01*
X22610638Y8329939D01*
X22610353Y8328502D01*
Y7038502D01*
X22610638Y7037063D01*
X22610516Y7035601D01*
X22611896Y7023362D01*
X22612778Y7020593D01*
X22613185Y7017713D01*
X22617252Y7006088D01*
X22618729Y7003581D01*
X22619768Y7000860D01*
X22626321Y6990431D01*
X22628320Y6988316D01*
X22629938Y6985897D01*
X22638647Y6977188D01*
X22641066Y6975572D01*
X22643179Y6973573D01*
X22653609Y6967021D01*
X22656326Y6965983D01*
X22658833Y6964504D01*
X22670459Y6960437D01*
X22673338Y6960030D01*
X22676112Y6959146D01*
X22688350Y6957767D01*
X22689812Y6957890D01*
X22691251Y6957604D01*
X23981248Y6957605D01*
X23982687Y6957891D01*
X23984148Y6957768D01*
X23996387Y6959146D01*
X23999159Y6960030D01*
X24002042Y6960437D01*
X24013667Y6964505D01*
X24016174Y6965984D01*
X24018892Y6967021D01*
X24029320Y6973574D01*
X24031435Y6975573D01*
X24033853Y6977189D01*
X24042563Y6985898D01*
X24044179Y6988317D01*
X24046178Y6990431D01*
X24052731Y7000859D01*
X24053769Y7003578D01*
X24055247Y7006085D01*
X24059315Y7017710D01*
X24059723Y7020594D01*
X24060606Y7023367D01*
X24061984Y7035606D01*
X24061861Y7037065D01*
X24062148Y7038503D01*
Y8328503D01*
X24061861Y8329942D01*
X24061984Y8331404D01*
X24060603Y8343642D01*
X24059721Y8346412D01*
X24059315Y8349292D01*
X24055249Y8360916D01*
X24053770Y8363423D01*
X24052731Y8366145D01*
X24046178Y8376574D01*
X24044179Y8378688D01*
X24042563Y8381107D01*
X24033853Y8389816D01*
X24031435Y8391433D01*
X24029320Y8393431D01*
X24018892Y8399984D01*
X24016173Y8401022D01*
X24013666Y8402500D01*
X24002042Y8406568D01*
X23999161Y8406975D01*
X23996388Y8407858D01*
X23984151Y8409237D01*
X23982687Y8409114D01*
X23981248Y8409400D01*
D02*
G37*
G36*
X22076250Y8409400D02*
X20786250D01*
X20784811Y8409114D01*
X20783350Y8409237D01*
X20771112Y8407858D01*
X20768340Y8406974D01*
X20765459Y8406567D01*
X20753835Y8402500D01*
X20751328Y8401021D01*
X20748608Y8399983D01*
X20738181Y8393431D01*
X20736066Y8391432D01*
X20733647Y8389816D01*
X20724937Y8381107D01*
X20723322Y8378688D01*
X20721323Y8376573D01*
X20714767Y8366144D01*
X20713730Y8363426D01*
X20712251Y8360920D01*
X20708183Y8349295D01*
X20707777Y8346412D01*
X20706892Y8343638D01*
X20705515Y8331399D01*
X20705640Y8329939D01*
X20705353Y8328502D01*
Y7038502D01*
X20705640Y7037063D01*
X20705516Y7035601D01*
X20706895Y7023362D01*
X20707777Y7020592D01*
X20708185Y7017713D01*
X20712251Y7006088D01*
X20713730Y7003580D01*
X20714769Y7000859D01*
X20721323Y6990431D01*
X20723322Y6988316D01*
X20724937Y6985897D01*
X20733647Y6977188D01*
X20736066Y6975572D01*
X20738181Y6973573D01*
X20748608Y6967021D01*
X20751326Y6965983D01*
X20753833Y6964504D01*
X20765459Y6960436D01*
X20768340Y6960030D01*
X20771114Y6959146D01*
X20783351Y6957767D01*
X20784811Y6957890D01*
X20786250Y6957604D01*
X22076250D01*
X22077689Y6957890D01*
X22079150Y6957767D01*
X22091388Y6959146D01*
X22094160Y6960030D01*
X22097041Y6960437D01*
X22108665Y6964504D01*
X22111172Y6965983D01*
X22113892Y6967021D01*
X22124319Y6973574D01*
X22126434Y6975572D01*
X22128853Y6977188D01*
X22137563Y6985897D01*
X22139178Y6988316D01*
X22141177Y6990431D01*
X22147733Y7000860D01*
X22148770Y7003578D01*
X22150249Y7006084D01*
X22154317Y7017709D01*
X22154723Y7020592D01*
X22155608Y7023366D01*
X22156985Y7035605D01*
X22156860Y7037065D01*
X22157147Y7038502D01*
Y8328502D01*
X22156860Y8329941D01*
X22156984Y8331403D01*
X22155605Y8343642D01*
X22154723Y8346412D01*
X22154315Y8349291D01*
X22150249Y8360916D01*
X22148770Y8363424D01*
X22147731Y8366145D01*
X22141177Y8376574D01*
X22139178Y8378688D01*
X22137563Y8381107D01*
X22128853Y8389816D01*
X22126434Y8391432D01*
X22124319Y8393431D01*
X22113892Y8399983D01*
X22111174Y8401021D01*
X22108667Y8402500D01*
X22097041Y8406568D01*
X22094160Y8406975D01*
X22091386Y8407858D01*
X22079149Y8409237D01*
X22077689Y8409114D01*
X22076250Y8409400D01*
D02*
G37*
G36*
X20171249D02*
X18881252D01*
X18879813Y8409114D01*
X18878349Y8409237D01*
X18866112Y8407858D01*
X18863339Y8406974D01*
X18860458Y8406567D01*
X18848834Y8402500D01*
X18846327Y8401021D01*
X18843608Y8399983D01*
X18833180Y8393431D01*
X18831065Y8391432D01*
X18828647Y8389816D01*
X18819937Y8381107D01*
X18818321Y8378688D01*
X18816322Y8376573D01*
X18809769Y8366144D01*
X18808730Y8363426D01*
X18807253Y8360920D01*
X18803185Y8349295D01*
X18802777Y8346412D01*
X18801894Y8343638D01*
X18800516Y8331399D01*
X18800639Y8329939D01*
X18800352Y8328502D01*
Y7038502D01*
X18800639Y7037065D01*
X18800516Y7035605D01*
X18801894Y7023366D01*
X18802777Y7020593D01*
X18803185Y7017709D01*
X18807253Y7006084D01*
X18808731Y7003577D01*
X18809769Y7000859D01*
X18816322Y6990431D01*
X18818321Y6988316D01*
X18819937Y6985897D01*
X18828647Y6977188D01*
X18831065Y6975572D01*
X18833180Y6973573D01*
X18843608Y6967021D01*
X18846326Y6965983D01*
X18848833Y6964504D01*
X18860458Y6960436D01*
X18863341Y6960030D01*
X18866113Y6959146D01*
X18878351Y6957767D01*
X18879813Y6957890D01*
X18881252Y6957604D01*
X20171249D01*
X20172688Y6957890D01*
X20174149Y6957767D01*
X20186388Y6959146D01*
X20189160Y6960030D01*
X20192043Y6960436D01*
X20203667Y6964504D01*
X20206174Y6965983D01*
X20208891Y6967021D01*
X20219321Y6973574D01*
X20221434Y6975572D01*
X20223853Y6977188D01*
X20232562Y6985897D01*
X20234180Y6988316D01*
X20236179Y6990431D01*
X20242731Y7000859D01*
X20243768Y7003577D01*
X20245248Y7006084D01*
X20249316Y7017709D01*
X20249722Y7020593D01*
X20250607Y7023366D01*
X20251985Y7035605D01*
X20251862Y7037065D01*
X20252147Y7038502D01*
Y8328502D01*
X20251862Y8329941D01*
X20251984Y8331403D01*
X20250604Y8343642D01*
X20249722Y8346412D01*
X20249315Y8349291D01*
X20245248Y8360916D01*
X20243771Y8363423D01*
X20242732Y8366144D01*
X20236179Y8376573D01*
X20234180Y8378688D01*
X20232562Y8381107D01*
X20223853Y8389816D01*
X20221434Y8391432D01*
X20219321Y8393431D01*
X20208891Y8399983D01*
X20206174Y8401021D01*
X20203667Y8402500D01*
X20192041Y8406567D01*
X20189162Y8406974D01*
X20186388Y8407858D01*
X20174150Y8409237D01*
X20172688Y8409114D01*
X20171249Y8409400D01*
D02*
G37*
G36*
X18266249D02*
X16976250Y8409399D01*
X16974811Y8409113D01*
X16973351Y8409236D01*
X16961111Y8407858D01*
X16958337Y8406974D01*
X16955457Y8406567D01*
X16943832Y8402499D01*
X16941325Y8401021D01*
X16938609Y8399983D01*
X16928180Y8393431D01*
X16926065Y8391431D01*
X16923645Y8389814D01*
X16914935Y8381105D01*
X16913321Y8378687D01*
X16911322Y8376573D01*
X16904768Y8366145D01*
X16903729Y8363425D01*
X16902251Y8360917D01*
X16898184Y8349292D01*
X16897778Y8346413D01*
X16896895Y8343641D01*
X16895515Y8331403D01*
X16895638Y8329941D01*
X16895352Y8328502D01*
X16895354Y7038502D01*
X16895639Y7037063D01*
X16895515Y7035603D01*
X16896893Y7023364D01*
X16897778Y7020590D01*
X16898186Y7017709D01*
X16902254Y7006084D01*
X16903731Y7003578D01*
X16904768Y7000861D01*
X16911320Y6990432D01*
X16913319Y6988317D01*
X16914937Y6985897D01*
X16923647Y6977188D01*
X16926067Y6975572D01*
X16928180Y6973573D01*
X16938608Y6967020D01*
X16941327Y6965983D01*
X16943834Y6964504D01*
X16955460Y6960436D01*
X16958339Y6960030D01*
X16961111Y6959146D01*
X16973351Y6957767D01*
X16974812Y6957890D01*
X16976251Y6957604D01*
X18266249Y6957604D01*
X18267688Y6957890D01*
X18269148Y6957767D01*
X18281387Y6959146D01*
X18284160Y6960030D01*
X18287042Y6960436D01*
X18298666Y6964504D01*
X18301173Y6965983D01*
X18303893Y6967021D01*
X18314320Y6973574D01*
X18316434Y6975572D01*
X18318854Y6977188D01*
X18327563Y6985897D01*
X18329179Y6988316D01*
X18331178Y6990431D01*
X18337730Y7000859D01*
X18338770Y7003577D01*
X18340248Y7006084D01*
X18344316Y7017709D01*
X18344724Y7020593D01*
X18345607Y7023366D01*
X18346985Y7035605D01*
X18346861Y7037065D01*
X18347147Y7038502D01*
Y8328502D01*
X18346861Y8329939D01*
X18346985Y8331399D01*
X18345607Y8343638D01*
X18344724Y8346412D01*
X18344316Y8349295D01*
X18340248Y8360920D01*
X18338770Y8363425D01*
X18337732Y8366144D01*
X18331178Y8376573D01*
X18329179Y8378688D01*
X18327563Y8381107D01*
X18318854Y8389816D01*
X18316434Y8391432D01*
X18314320Y8393431D01*
X18303893Y8399983D01*
X18301173Y8401021D01*
X18298666Y8402500D01*
X18287041Y8406567D01*
X18284161Y8406974D01*
X18281387Y8407858D01*
X18269150Y8409237D01*
X18267688Y8409114D01*
X18266249Y8409400D01*
D02*
G37*
G36*
X16361249Y8409399D02*
X15071249D01*
X15069810Y8409113D01*
X15068349Y8409236D01*
X15056111Y8407857D01*
X15053339Y8406973D01*
X15050456Y8406567D01*
X15038834Y8402499D01*
X15036328Y8401021D01*
X15033609Y8399983D01*
X15023180Y8393431D01*
X15021065Y8391431D01*
X15018645Y8389814D01*
X15009937Y8381105D01*
X15008321Y8378687D01*
X15006322Y8376573D01*
X14999768Y8366144D01*
X14998730Y8363424D01*
X14997250Y8360917D01*
X14993184Y8349293D01*
X14992778Y8346412D01*
X14991895Y8343641D01*
X14990515Y8331403D01*
X14990639Y8329941D01*
X14990352Y8328502D01*
X14990353Y7038502D01*
X14990639Y7037063D01*
X14990517Y7035603D01*
X14991895Y7023364D01*
X14992778Y7020591D01*
X14993185Y7017709D01*
X14997253Y7006084D01*
X14998730Y7003577D01*
X14999770Y7000860D01*
X15006322Y6990432D01*
X15008321Y6988316D01*
X15009937Y6985897D01*
X15018646Y6977188D01*
X15021066Y6975572D01*
X15023180Y6973573D01*
X15033607Y6967020D01*
X15036327Y6965983D01*
X15038834Y6964504D01*
X15050458Y6960436D01*
X15053340Y6960029D01*
X15056113Y6959145D01*
X15068352Y6957767D01*
X15069812Y6957890D01*
X15071251Y6957604D01*
X16361250D01*
X16362689Y6957890D01*
X16364151Y6957767D01*
X16376389Y6959146D01*
X16379163Y6960030D01*
X16382043Y6960436D01*
X16393668Y6964504D01*
X16396172Y6965982D01*
X16398891Y6967020D01*
X16409320Y6973572D01*
X16411435Y6975572D01*
X16413855Y6977189D01*
X16422565Y6985898D01*
X16424179Y6988316D01*
X16426178Y6990431D01*
X16432732Y7000859D01*
X16433771Y7003579D01*
X16435249Y7006086D01*
X16439316Y7017710D01*
X16439722Y7020591D01*
X16440605Y7023362D01*
X16441985Y7035600D01*
X16441862Y7037062D01*
X16442148Y7038502D01*
X16442146Y8328502D01*
X16441861Y8329940D01*
X16441985Y8331400D01*
X16440607Y8343639D01*
X16439722Y8346412D01*
X16439314Y8349294D01*
X16435246Y8360919D01*
X16433769Y8363426D01*
X16432732Y8366143D01*
X16426180Y8376572D01*
X16424179Y8378687D01*
X16422563Y8381106D01*
X16413853Y8389815D01*
X16411433Y8391432D01*
X16409320Y8393430D01*
X16398892Y8399983D01*
X16396175Y8401020D01*
X16393668Y8402499D01*
X16382042Y8406567D01*
X16379160Y8406974D01*
X16376387Y8407858D01*
X16364149Y8409236D01*
X16362688Y8409113D01*
X16361249Y8409399D01*
D02*
G37*
G36*
X14456248D02*
X13166251D01*
X13164812Y8409113D01*
X13163348Y8409236D01*
X13151111Y8407857D01*
X13148338Y8406973D01*
X13145457Y8406567D01*
X13133833Y8402499D01*
X13131328Y8401021D01*
X13128609Y8399983D01*
X13118179Y8393431D01*
X13116064Y8391431D01*
X13113644Y8389814D01*
X13104936Y8381105D01*
X13103320Y8378687D01*
X13101321Y8376573D01*
X13094768Y8366144D01*
X13093730Y8363424D01*
X13092252Y8360917D01*
X13088184Y8349293D01*
X13087778Y8346412D01*
X13086896Y8343641D01*
X13085515Y8331403D01*
X13085638Y8329941D01*
X13085352Y8328502D01*
X13085353Y7038502D01*
X13085638Y7037063D01*
X13085516Y7035603D01*
X13086894Y7023364D01*
X13087778Y7020591D01*
X13088185Y7017709D01*
X13092253Y7006084D01*
X13093732Y7003577D01*
X13094769Y7000860D01*
X13101321Y6990432D01*
X13103320Y6988316D01*
X13104938Y6985897D01*
X13113647Y6977188D01*
X13116066Y6975572D01*
X13118179Y6973573D01*
X13128609Y6967020D01*
X13131326Y6965983D01*
X13133833Y6964504D01*
X13145457Y6960436D01*
X13148340Y6960029D01*
X13151112Y6959145D01*
X13163351Y6957767D01*
X13164812Y6957890D01*
X13166251Y6957604D01*
X14456250D01*
X14457689Y6957890D01*
X14459149Y6957767D01*
X14471388Y6959145D01*
X14474162Y6960029D01*
X14477045Y6960436D01*
X14488667Y6964504D01*
X14491174Y6965983D01*
X14493890Y6967020D01*
X14504320Y6973572D01*
X14506435Y6975572D01*
X14508855Y6977189D01*
X14517564Y6985898D01*
X14519179Y6988316D01*
X14521178Y6990430D01*
X14527731Y7000858D01*
X14528770Y7003578D01*
X14530249Y7006086D01*
X14534315Y7017711D01*
X14534721Y7020590D01*
X14535605Y7023362D01*
X14536984Y7035600D01*
X14536862Y7037062D01*
X14537148Y7038502D01*
X14537148Y8328502D01*
X14536861Y8329940D01*
X14536984Y8331400D01*
X14535606Y8343639D01*
X14534721Y8346413D01*
X14534315Y8349294D01*
X14530247Y8360919D01*
X14528769Y8363425D01*
X14527731Y8366142D01*
X14521179Y8376571D01*
X14519180Y8378686D01*
X14517563Y8381106D01*
X14508853Y8389815D01*
X14506435Y8391432D01*
X14504320Y8393430D01*
X14493892Y8399983D01*
X14491173Y8401021D01*
X14488666Y8402499D01*
X14477042Y8406567D01*
X14474161Y8406974D01*
X14471388Y8407857D01*
X14459151Y8409236D01*
X14457687Y8409113D01*
X14456248Y8409399D01*
D02*
G37*
G36*
X12551249D02*
X11261250Y8409399D01*
X11259811Y8409113D01*
X11258351Y8409236D01*
X11246112Y8407857D01*
X11243338Y8406974D01*
X11240456Y8406566D01*
X11228832Y8402498D01*
X11226326Y8401020D01*
X11223609Y8399983D01*
X11213180Y8393430D01*
X11211065Y8391431D01*
X11208645Y8389814D01*
X11199936Y8381105D01*
X11198321Y8378686D01*
X11196322Y8376573D01*
X11189769Y8366144D01*
X11188730Y8363424D01*
X11187251Y8360917D01*
X11183184Y8349292D01*
X11182778Y8346412D01*
X11181895Y8343641D01*
X11180515Y8331402D01*
X11180638Y8329940D01*
X11180352Y8328501D01*
X11180353Y7038501D01*
X11180639Y7037063D01*
X11180516Y7035602D01*
X11181894Y7023363D01*
X11182778Y7020590D01*
X11183185Y7017708D01*
X11187253Y7006084D01*
X11188731Y7003578D01*
X11189769Y7000860D01*
X11196321Y6990432D01*
X11198320Y6988317D01*
X11199937Y6985896D01*
X11208647Y6977187D01*
X11211066Y6975571D01*
X11213180Y6973572D01*
X11223608Y6967020D01*
X11226327Y6965982D01*
X11228834Y6964503D01*
X11240459Y6960436D01*
X11243339Y6960029D01*
X11246112Y6959145D01*
X11258350Y6957766D01*
X11259812Y6957889D01*
X11261251Y6957603D01*
X12551250Y6957604D01*
X12552689Y6957890D01*
X12554149Y6957767D01*
X12566388Y6959145D01*
X12569162Y6960029D01*
X12572044Y6960436D01*
X12583668Y6964504D01*
X12586174Y6965983D01*
X12588891Y6967020D01*
X12599320Y6973572D01*
X12601435Y6975572D01*
X12603855Y6977189D01*
X12612564Y6985898D01*
X12614179Y6988316D01*
X12616178Y6990430D01*
X12622731Y7000858D01*
X12623770Y7003578D01*
X12625249Y7006086D01*
X12629316Y7017711D01*
X12629722Y7020590D01*
X12630605Y7023362D01*
X12631985Y7035600D01*
X12631862Y7037062D01*
X12632148Y7038502D01*
X12632147Y8328502D01*
X12631861Y8329940D01*
X12631984Y8331400D01*
X12630606Y8343639D01*
X12629722Y8346413D01*
X12629315Y8349294D01*
X12625247Y8360919D01*
X12623769Y8363425D01*
X12622731Y8366142D01*
X12616179Y8376571D01*
X12614180Y8378686D01*
X12612563Y8381106D01*
X12603853Y8389815D01*
X12601434Y8391432D01*
X12599320Y8393430D01*
X12588892Y8399983D01*
X12586173Y8401021D01*
X12583666Y8402499D01*
X12572041Y8406567D01*
X12569161Y8406974D01*
X12566388Y8407857D01*
X12554150Y8409236D01*
X12552688Y8409113D01*
X12551249Y8409399D01*
D02*
G37*
G36*
X10646249Y8409399D02*
X9356250D01*
X9354811Y8409113D01*
X9353349Y8409236D01*
X9341111Y8407857D01*
X9338338Y8406973D01*
X9335457Y8406566D01*
X9323833Y8402499D01*
X9321328Y8401021D01*
X9318609Y8399983D01*
X9308180Y8393430D01*
X9306065Y8391431D01*
X9303645Y8389814D01*
X9294936Y8381105D01*
X9293321Y8378686D01*
X9291322Y8376572D01*
X9284768Y8366143D01*
X9283730Y8363424D01*
X9282251Y8360917D01*
X9278184Y8349292D01*
X9277778Y8346412D01*
X9276895Y8343641D01*
X9275515Y8331402D01*
X9275638Y8329940D01*
X9275352Y8328501D01*
X9275353Y7038501D01*
X9275639Y7037063D01*
X9275516Y7035602D01*
X9276894Y7023363D01*
X9277778Y7020591D01*
X9278185Y7017708D01*
X9282253Y7006083D01*
X9283731Y7003577D01*
X9284769Y7000859D01*
X9291321Y6990431D01*
X9293321Y6988316D01*
X9294937Y6985896D01*
X9303647Y6977187D01*
X9306066Y6975571D01*
X9308180Y6973572D01*
X9318608Y6967020D01*
X9321326Y6965982D01*
X9323833Y6964503D01*
X9335458Y6960435D01*
X9338340Y6960028D01*
X9341113Y6959145D01*
X9353351Y6957766D01*
X9354812Y6957889D01*
X9356251Y6957603D01*
X10646250D01*
X10647689Y6957889D01*
X10649151Y6957766D01*
X10661389Y6959145D01*
X10664162Y6960029D01*
X10667043Y6960436D01*
X10678667Y6964503D01*
X10681172Y6965981D01*
X10683891Y6967019D01*
X10694320Y6973572D01*
X10696435Y6975571D01*
X10698855Y6977188D01*
X10707564Y6985897D01*
X10709179Y6988316D01*
X10711178Y6990430D01*
X10717732Y7000859D01*
X10718770Y7003578D01*
X10720249Y7006085D01*
X10724316Y7017710D01*
X10724722Y7020590D01*
X10725605Y7023361D01*
X10726985Y7035600D01*
X10726862Y7037062D01*
X10727148Y7038501D01*
X10727147Y8328501D01*
X10726861Y8329939D01*
X10726984Y8331400D01*
X10725606Y8343639D01*
X10724722Y8346411D01*
X10724315Y8349294D01*
X10720247Y8360919D01*
X10718769Y8363425D01*
X10717731Y8366143D01*
X10711179Y8376571D01*
X10709179Y8378686D01*
X10707563Y8381106D01*
X10698853Y8389815D01*
X10696434Y8391431D01*
X10694320Y8393430D01*
X10683892Y8399982D01*
X10681174Y8401020D01*
X10678667Y8402499D01*
X10667042Y8406567D01*
X10664160Y8406974D01*
X10661387Y8407857D01*
X10649149Y8409236D01*
X10647688Y8409113D01*
X10646249Y8409399D01*
D02*
G37*
G36*
X8741249D02*
X7451250D01*
X7449812Y8409113D01*
X7448350Y8409236D01*
X7436111Y8407857D01*
X7433339Y8406973D01*
X7430458Y8406566D01*
X7418833Y8402499D01*
X7416326Y8401020D01*
X7413608Y8399982D01*
X7403180Y8393430D01*
X7401065Y8391431D01*
X7398646Y8389814D01*
X7389937Y8381105D01*
X7388321Y8378686D01*
X7386321Y8376571D01*
X7379768Y8366143D01*
X7378730Y8363423D01*
X7377252Y8360918D01*
X7373185Y8349293D01*
X7372778Y8346412D01*
X7371894Y8343640D01*
X7370515Y8331401D01*
X7370638Y8329939D01*
X7370352Y8328501D01*
Y7038501D01*
X7370638Y7037063D01*
X7370515Y7035601D01*
X7371894Y7023362D01*
X7372778Y7020590D01*
X7373185Y7017709D01*
X7377252Y7006084D01*
X7378731Y7003577D01*
X7379769Y7000858D01*
X7386322Y6990430D01*
X7388321Y6988316D01*
X7389937Y6985897D01*
X7398646Y6977188D01*
X7401065Y6975572D01*
X7403180Y6973572D01*
X7413608Y6967019D01*
X7416327Y6965982D01*
X7418832Y6964504D01*
X7430457Y6960436D01*
X7433339Y6960029D01*
X7436112Y6959145D01*
X7448351Y6957766D01*
X7449812Y6957889D01*
X7451250Y6957603D01*
X8741250D01*
X8742689Y6957889D01*
X8744149Y6957766D01*
X8756388Y6959145D01*
X8759162Y6960028D01*
X8762044Y6960436D01*
X8773668Y6964504D01*
X8776174Y6965982D01*
X8778891Y6967019D01*
X8789320Y6973572D01*
X8791435Y6975571D01*
X8793855Y6977188D01*
X8802564Y6985897D01*
X8804179Y6988316D01*
X8806178Y6990430D01*
X8812731Y7000858D01*
X8813770Y7003578D01*
X8815249Y7006085D01*
X8819316Y7017710D01*
X8819722Y7020590D01*
X8820605Y7023361D01*
X8821985Y7035600D01*
X8821862Y7037062D01*
X8822148Y7038501D01*
X8822147Y8328501D01*
X8821861Y8329939D01*
X8821984Y8331400D01*
X8820606Y8343639D01*
X8819722Y8346412D01*
X8819315Y8349294D01*
X8815247Y8360919D01*
X8813769Y8363424D01*
X8812731Y8366142D01*
X8806179Y8376570D01*
X8804180Y8378685D01*
X8802563Y8381106D01*
X8793853Y8389815D01*
X8791434Y8391431D01*
X8789320Y8393430D01*
X8778892Y8399982D01*
X8776173Y8401020D01*
X8773666Y8402499D01*
X8762041Y8406566D01*
X8759161Y8406973D01*
X8756388Y8407857D01*
X8744150Y8409236D01*
X8742688Y8409113D01*
X8741249Y8409399D01*
D02*
G37*
G36*
X6836250D02*
X5546251Y8409398D01*
X5544812Y8409112D01*
X5543352Y8409235D01*
X5531113Y8407857D01*
X5528340Y8406973D01*
X5525458Y8406566D01*
X5513833Y8402498D01*
X5511326Y8401019D01*
X5508608Y8399982D01*
X5498180Y8393429D01*
X5496066Y8391431D01*
X5493647Y8389814D01*
X5484937Y8381105D01*
X5483321Y8378686D01*
X5481322Y8376572D01*
X5474769Y8366144D01*
X5473730Y8363424D01*
X5472251Y8360916D01*
X5468184Y8349291D01*
X5467778Y8346411D01*
X5466894Y8343638D01*
X5465516Y8331400D01*
X5465639Y8329939D01*
X5465353Y8328500D01*
Y7038501D01*
X5465639Y7037062D01*
X5465516Y7035602D01*
X5466894Y7023363D01*
X5467778Y7020590D01*
X5468184Y7017709D01*
X5472251Y7006085D01*
X5473730Y7003578D01*
X5474768Y7000858D01*
X5481322Y6990430D01*
X5483321Y6988315D01*
X5484937Y6985896D01*
X5493647Y6977187D01*
X5496066Y6975571D01*
X5498180Y6973572D01*
X5508608Y6967019D01*
X5511327Y6965981D01*
X5513834Y6964503D01*
X5525459Y6960435D01*
X5528339Y6960028D01*
X5531112Y6959145D01*
X5543350Y6957766D01*
X5544812Y6957889D01*
X5546251Y6957603D01*
X6836250Y6957603D01*
X6837688Y6957889D01*
X6839149Y6957766D01*
X6851388Y6959145D01*
X6854161Y6960029D01*
X6857043Y6960436D01*
X6868667Y6964504D01*
X6871173Y6965982D01*
X6873892Y6967020D01*
X6884320Y6973572D01*
X6886435Y6975572D01*
X6888854Y6977188D01*
X6897563Y6985897D01*
X6899180Y6988316D01*
X6901179Y6990431D01*
X6907731Y7000858D01*
X6908769Y7003577D01*
X6910248Y7006084D01*
X6914315Y7017709D01*
X6914722Y7020590D01*
X6915606Y7023362D01*
X6916985Y7035601D01*
X6916862Y7037063D01*
X6917148Y7038501D01*
Y8328501D01*
X6916862Y8329939D01*
X6916985Y8331401D01*
X6915606Y8343640D01*
X6914722Y8346412D01*
X6914315Y8349293D01*
X6910248Y8360918D01*
X6908769Y8363425D01*
X6907731Y8366143D01*
X6901179Y8376571D01*
X6899179Y8378686D01*
X6897563Y8381105D01*
X6888854Y8389814D01*
X6886435Y8391431D01*
X6884320Y8393430D01*
X6873892Y8399983D01*
X6871172Y8401021D01*
X6868667Y8402499D01*
X6857042Y8406566D01*
X6854161Y8406973D01*
X6851389Y8407857D01*
X6839150Y8409236D01*
X6837688Y8409113D01*
X6836250Y8409399D01*
D02*
G37*
G36*
X4931249Y8409398D02*
X3641251D01*
X3639812Y8409112D01*
X3638352Y8409235D01*
X3626113Y8407857D01*
X3623340Y8406973D01*
X3620458Y8406566D01*
X3608833Y8402498D01*
X3606326Y8401019D01*
X3603608Y8399982D01*
X3593180Y8393429D01*
X3591066Y8391431D01*
X3588647Y8389814D01*
X3579937Y8381105D01*
X3578321Y8378686D01*
X3576322Y8376572D01*
X3569768Y8366143D01*
X3568730Y8363423D01*
X3567251Y8360916D01*
X3563184Y8349292D01*
X3562778Y8346410D01*
X3561894Y8343638D01*
X3560516Y8331400D01*
X3560639Y8329939D01*
X3560353Y8328500D01*
Y7038501D01*
X3560639Y7037062D01*
X3560516Y7035602D01*
X3561894Y7023363D01*
X3562778Y7020590D01*
X3563184Y7017710D01*
X3567251Y7006085D01*
X3568730Y7003578D01*
X3569769Y7000857D01*
X3576322Y6990429D01*
X3578321Y6988315D01*
X3579937Y6985896D01*
X3588647Y6977187D01*
X3591066Y6975571D01*
X3593180Y6973572D01*
X3603608Y6967019D01*
X3606327Y6965981D01*
X3608834Y6964503D01*
X3620459Y6960435D01*
X3623339Y6960028D01*
X3626112Y6959145D01*
X3638350Y6957766D01*
X3639812Y6957889D01*
X3641251Y6957603D01*
X4931249D01*
X4932688Y6957889D01*
X4934150Y6957766D01*
X4946388Y6959145D01*
X4949161Y6960028D01*
X4952041Y6960435D01*
X4963666Y6964503D01*
X4966173Y6965981D01*
X4968892Y6967019D01*
X4979320Y6973572D01*
X4981434Y6975571D01*
X4983853Y6977187D01*
X4992563Y6985896D01*
X4994179Y6988315D01*
X4996178Y6990430D01*
X5002732Y7000858D01*
X5003770Y7003578D01*
X5005249Y7006085D01*
X5009316Y7017709D01*
X5009722Y7020591D01*
X5010606Y7023363D01*
X5011984Y7035601D01*
X5011861Y7037062D01*
X5012147Y7038501D01*
Y8328500D01*
X5011861Y8329939D01*
X5011984Y8331399D01*
X5010606Y8343638D01*
X5009722Y8346411D01*
X5009316Y8349291D01*
X5005249Y8360916D01*
X5003770Y8363423D01*
X5002731Y8366144D01*
X4996178Y8376572D01*
X4994179Y8378686D01*
X4992563Y8381105D01*
X4983853Y8389814D01*
X4981434Y8391431D01*
X4979320Y8393429D01*
X4968892Y8399982D01*
X4966174Y8401019D01*
X4963667Y8402498D01*
X4952042Y8406566D01*
X4949160Y8406973D01*
X4946387Y8407857D01*
X4934149Y8409235D01*
X4932688Y8409112D01*
X4931249Y8409398D01*
D02*
G37*
G36*
X2311875D02*
X545625Y8409398D01*
X544186Y8409112D01*
X542726Y8409235D01*
X530487Y8407856D01*
X527713Y8406973D01*
X524831Y8406565D01*
X513207Y8402497D01*
X510701Y8401019D01*
X507984Y8399982D01*
X497555Y8393429D01*
X495440Y8391430D01*
X493020Y8389813D01*
X484311Y8381104D01*
X482695Y8378684D01*
X480696Y8376570D01*
X474144Y8366142D01*
X473106Y8363424D01*
X471628Y8360918D01*
X467560Y8349293D01*
X467153Y8346411D01*
X466270Y8343640D01*
X464890Y8331401D01*
X465013Y8329939D01*
X464727Y8328500D01*
Y7038500D01*
X465013Y7037061D01*
X464890Y7035599D01*
X466270Y7023360D01*
X467153Y7020588D01*
X467560Y7017707D01*
X471628Y7006083D01*
X473106Y7003577D01*
X474144Y7000859D01*
X480696Y6990431D01*
X482694Y6988316D01*
X484311Y6985896D01*
X493020Y6977187D01*
X495440Y6975570D01*
X497555Y6973571D01*
X507984Y6967018D01*
X510703Y6965980D01*
X513208Y6964502D01*
X524832Y6960435D01*
X527713Y6960028D01*
X530486Y6959144D01*
X542724Y6957765D01*
X544186Y6957888D01*
X545625Y6957602D01*
X2311875Y6957603D01*
X2313314Y6957889D01*
X2314774Y6957766D01*
X2327013Y6959144D01*
X2329787Y6960028D01*
X2332669Y6960435D01*
X2344293Y6964503D01*
X2346799Y6965981D01*
X2349516Y6967019D01*
X2359945Y6973571D01*
X2362060Y6975571D01*
X2364480Y6977188D01*
X2373189Y6985897D01*
X2374805Y6988316D01*
X2376804Y6990431D01*
X2383356Y7000859D01*
X2384394Y7003577D01*
X2385872Y7006083D01*
X2389940Y7017708D01*
X2390347Y7020589D01*
X2391230Y7023361D01*
X2392610Y7035599D01*
X2392487Y7037061D01*
X2392773Y7038501D01*
Y8328500D01*
X2392487Y8329940D01*
X2392610Y8331402D01*
X2391230Y8343640D01*
X2390347Y8346413D01*
X2389940Y8349293D01*
X2385872Y8360918D01*
X2384394Y8363424D01*
X2383356Y8366141D01*
X2376804Y8376570D01*
X2374806Y8378684D01*
X2373189Y8381104D01*
X2364480Y8389813D01*
X2362060Y8391430D01*
X2359945Y8393430D01*
X2349516Y8399982D01*
X2346797Y8401020D01*
X2344292Y8402498D01*
X2332668Y8406566D01*
X2329787Y8406972D01*
X2327014Y8407856D01*
X2314776Y8409235D01*
X2313314Y8409112D01*
X2311875Y8409398D01*
D02*
G37*
G36*
X27879376Y7833775D02*
X26589374Y7833775D01*
X26587936Y7833489D01*
X26586475Y7833612D01*
X26563110Y7830980D01*
X26560339Y7830096D01*
X26557458Y7829689D01*
X26535263Y7821923D01*
X26532758Y7820445D01*
X26530038Y7819408D01*
X26510129Y7806899D01*
X26508014Y7804899D01*
X26505594Y7803282D01*
X26488968Y7786656D01*
X26487354Y7784236D01*
X26485352Y7782122D01*
X26472845Y7762213D01*
X26471808Y7759495D01*
X26470328Y7756989D01*
X26462561Y7734796D01*
X26462155Y7731913D01*
X26461270Y7729141D01*
X26458640Y7705776D01*
X26458762Y7704316D01*
X26458478Y7702878D01*
Y7187877D01*
X26458762Y7186438D01*
X26458640Y7184977D01*
X26461273Y7161612D01*
X26462158Y7158840D01*
X26462564Y7155958D01*
X26470331Y7133766D01*
X26471808Y7131260D01*
X26472845Y7128541D01*
X26485355Y7108633D01*
X26487354Y7106518D01*
X26488971Y7104099D01*
X26505597Y7087473D01*
X26508017Y7085856D01*
X26510129Y7083857D01*
X26530038Y7071348D01*
X26532758Y7070310D01*
X26535263Y7068831D01*
X26557458Y7061066D01*
X26560339Y7060659D01*
X26563110Y7059775D01*
X26586478Y7057143D01*
X26587939Y7057266D01*
X26589377Y7056980D01*
X27879376Y7056980D01*
X27880814Y7057266D01*
X27882275Y7057143D01*
X27905640Y7059776D01*
X27908411Y7060659D01*
X27911292Y7061066D01*
X27933487Y7068832D01*
X27935992Y7070310D01*
X27938708Y7071348D01*
X27958621Y7083857D01*
X27960736Y7085856D01*
X27963156Y7087473D01*
X27979782Y7104099D01*
X27981396Y7106519D01*
X27983395Y7108633D01*
X27995905Y7128542D01*
X27996942Y7131260D01*
X27998422Y7133766D01*
X28006189Y7155959D01*
X28006595Y7158842D01*
X28007477Y7161614D01*
X28010110Y7184979D01*
X28009985Y7186439D01*
X28010272Y7187877D01*
Y7702878D01*
X28009985Y7704317D01*
X28010110Y7705778D01*
X28007477Y7729143D01*
X28006592Y7731915D01*
X28006186Y7734795D01*
X27998422Y7756988D01*
X27996942Y7759495D01*
X27995905Y7762215D01*
X27983392Y7782124D01*
X27981396Y7784238D01*
X27979779Y7786657D01*
X27963153Y7803282D01*
X27960733Y7804899D01*
X27958618Y7806898D01*
X27938712Y7819407D01*
X27935992Y7820445D01*
X27933487Y7821924D01*
X27911292Y7829689D01*
X27908411Y7830096D01*
X27905640Y7830980D01*
X27882275Y7833612D01*
X27880814Y7833489D01*
X27879376Y7833775D01*
D02*
G37*
G36*
X30172498Y6504401D02*
X28882501Y6504400D01*
X28881061Y6504114D01*
X28879602Y6504237D01*
X28867365Y6502859D01*
X28864590Y6501975D01*
X28861707Y6501568D01*
X28850082Y6497500D01*
X28847577Y6496021D01*
X28844858Y6494984D01*
X28834430Y6488431D01*
X28832315Y6486433D01*
X28829898Y6484816D01*
X28821188Y6476107D01*
X28819571Y6473688D01*
X28817572Y6471574D01*
X28811020Y6461146D01*
X28809979Y6458425D01*
X28808502Y6455916D01*
X28804434Y6444291D01*
X28804028Y6441412D01*
X28803146Y6438642D01*
X28801767Y6426404D01*
X28801889Y6424942D01*
X28801602Y6423503D01*
Y5133503D01*
X28801889Y5132063D01*
X28801767Y5130601D01*
X28803146Y5118363D01*
X28804028Y5115593D01*
X28804434Y5112713D01*
X28808502Y5101089D01*
X28809979Y5098582D01*
X28811017Y5095860D01*
X28817572Y5085432D01*
X28819571Y5083317D01*
X28821188Y5080898D01*
X28829898Y5072189D01*
X28832315Y5070573D01*
X28834430Y5068574D01*
X28844858Y5062021D01*
X28847577Y5060984D01*
X28850085Y5059505D01*
X28861710Y5055437D01*
X28864590Y5055031D01*
X28867361Y5054147D01*
X28879599Y5052768D01*
X28881061Y5052891D01*
X28882501Y5052605D01*
X30172498Y5052605D01*
X30173938Y5052891D01*
X30175397Y5052768D01*
X30187637Y5054147D01*
X30190411Y5055031D01*
X30193292Y5055437D01*
X30204916Y5059506D01*
X30207425Y5060984D01*
X30210141Y5062022D01*
X30220569Y5068575D01*
X30222684Y5070573D01*
X30225104Y5072189D01*
X30233813Y5080898D01*
X30235428Y5083317D01*
X30237427Y5085432D01*
X30243982Y5095860D01*
X30245020Y5098578D01*
X30246497Y5101085D01*
X30250565Y5112710D01*
X30250974Y5115594D01*
X30251859Y5118367D01*
X30253235Y5130606D01*
X30253110Y5132066D01*
X30253397Y5133503D01*
Y6423503D01*
X30253110Y6424940D01*
X30253235Y6426400D01*
X30251859Y6438639D01*
X30250974Y6441413D01*
X30250565Y6444296D01*
X30246497Y6455921D01*
X30245020Y6458426D01*
X30243982Y6461145D01*
X30237427Y6471574D01*
X30235428Y6473689D01*
X30233813Y6476108D01*
X30225104Y6484817D01*
X30222684Y6486433D01*
X30220569Y6488432D01*
X30210141Y6494984D01*
X30207422Y6496022D01*
X30204916Y6497501D01*
X30193292Y6501568D01*
X30190411Y6501975D01*
X30187637Y6502859D01*
X30175400Y6504238D01*
X30173938Y6504115D01*
X30172498Y6504401D01*
D02*
G37*
G36*
X28267499Y6504400D02*
X26977502D01*
X26976062Y6504114D01*
X26974603Y6504237D01*
X26962363Y6502859D01*
X26959589Y6501975D01*
X26956708Y6501568D01*
X26945084Y6497500D01*
X26942575Y6496021D01*
X26939859Y6494984D01*
X26929431Y6488431D01*
X26927316Y6486433D01*
X26924896Y6484816D01*
X26916187Y6476107D01*
X26914572Y6473688D01*
X26912573Y6471574D01*
X26906018Y6461146D01*
X26904980Y6458425D01*
X26903500Y6455916D01*
X26899435Y6444291D01*
X26899026Y6441412D01*
X26898145Y6438642D01*
X26896765Y6426404D01*
X26896890Y6424942D01*
X26896603Y6423503D01*
Y5133503D01*
X26896890Y5132063D01*
X26896765Y5130601D01*
X26898145Y5118363D01*
X26899026Y5115593D01*
X26899435Y5112713D01*
X26903500Y5101089D01*
X26904980Y5098582D01*
X26906018Y5095860D01*
X26912573Y5085432D01*
X26914572Y5083317D01*
X26916187Y5080898D01*
X26924896Y5072189D01*
X26927316Y5070573D01*
X26929431Y5068574D01*
X26939859Y5062021D01*
X26942578Y5060984D01*
X26945084Y5059505D01*
X26956708Y5055437D01*
X26959589Y5055031D01*
X26962363Y5054147D01*
X26974600Y5052768D01*
X26976062Y5052891D01*
X26977502Y5052605D01*
X28267499D01*
X28268939Y5052891D01*
X28270401Y5052768D01*
X28282639Y5054147D01*
X28285410Y5055031D01*
X28288290Y5055437D01*
X28299915Y5059505D01*
X28302423Y5060984D01*
X28305142Y5062021D01*
X28315570Y5068574D01*
X28317685Y5070573D01*
X28320102Y5072189D01*
X28328812Y5080898D01*
X28330429Y5083317D01*
X28332428Y5085432D01*
X28338983Y5095860D01*
X28340021Y5098579D01*
X28341498Y5101085D01*
X28345566Y5112710D01*
X28345972Y5115593D01*
X28346857Y5118367D01*
X28348236Y5130606D01*
X28348111Y5132065D01*
X28348398Y5133503D01*
Y6423503D01*
X28348111Y6424940D01*
X28348236Y6426400D01*
X28346857Y6438638D01*
X28345972Y6441412D01*
X28345566Y6444295D01*
X28341498Y6455920D01*
X28340018Y6458427D01*
X28338980Y6461146D01*
X28332428Y6471574D01*
X28330429Y6473688D01*
X28328812Y6476107D01*
X28320102Y6484816D01*
X28317685Y6486433D01*
X28315570Y6488431D01*
X28305142Y6494984D01*
X28302423Y6496021D01*
X28299918Y6497500D01*
X28288293Y6501568D01*
X28285410Y6501975D01*
X28282635Y6502859D01*
X28270398Y6504237D01*
X28268939Y6504114D01*
X28267499Y6504400D01*
D02*
G37*
G36*
X25648126D02*
X24358125D01*
X24356686Y6504114D01*
X24355225Y6504237D01*
X24342986Y6502858D01*
X24340213Y6501974D01*
X24337331Y6501567D01*
X24325710Y6497500D01*
X24323204Y6496022D01*
X24320486Y6494985D01*
X24310056Y6488432D01*
X24307941Y6486432D01*
X24305518Y6484814D01*
X24296811Y6476105D01*
X24295197Y6473687D01*
X24293198Y6471574D01*
X24286644Y6461145D01*
X24285606Y6458426D01*
X24284128Y6455920D01*
X24280060Y6444295D01*
X24279652Y6441415D01*
X24278770Y6438642D01*
X24277390Y6426404D01*
X24277513Y6424942D01*
X24277226Y6423503D01*
Y5133503D01*
X24277513Y5132063D01*
X24277390Y5130601D01*
X24278770Y5118363D01*
X24279652Y5115591D01*
X24280060Y5112710D01*
X24284128Y5101085D01*
X24285606Y5098578D01*
X24286646Y5095860D01*
X24293198Y5085431D01*
X24295197Y5083318D01*
X24296811Y5080900D01*
X24305519Y5072191D01*
X24307941Y5070573D01*
X24310056Y5068573D01*
X24320486Y5062020D01*
X24323203Y5060983D01*
X24325708Y5059506D01*
X24337331Y5055437D01*
X24340213Y5055030D01*
X24342987Y5054146D01*
X24355225Y5052768D01*
X24356686Y5052891D01*
X24358125Y5052605D01*
X25648126D01*
X25649564Y5052891D01*
X25651025Y5052768D01*
X25663263Y5054146D01*
X25666037Y5055030D01*
X25668918Y5055437D01*
X25680542Y5059505D01*
X25683051Y5060984D01*
X25685767Y5062021D01*
X25696198Y5068574D01*
X25698309Y5070573D01*
X25700729Y5072189D01*
X25709439Y5080898D01*
X25711057Y5083319D01*
X25713055Y5085434D01*
X25719608Y5095862D01*
X25720645Y5098580D01*
X25722122Y5101085D01*
X25726190Y5112710D01*
X25726596Y5115591D01*
X25727481Y5118363D01*
X25728860Y5130601D01*
X25728738Y5132063D01*
X25729022Y5133503D01*
Y6423503D01*
X25728738Y6424942D01*
X25728860Y6426404D01*
X25727481Y6438642D01*
X25726596Y6441415D01*
X25726190Y6444295D01*
X25722122Y6455920D01*
X25720645Y6458425D01*
X25719608Y6461142D01*
X25713055Y6471570D01*
X25711057Y6473686D01*
X25709439Y6476107D01*
X25700729Y6484816D01*
X25698309Y6486433D01*
X25696198Y6488431D01*
X25685767Y6494984D01*
X25683047Y6496022D01*
X25680542Y6497500D01*
X25668918Y6501568D01*
X25666037Y6501975D01*
X25663263Y6502858D01*
X25651025Y6504237D01*
X25649564Y6504114D01*
X25648126Y6504400D01*
D02*
G37*
G36*
X23028749Y6504400D02*
X21738751D01*
X21737312Y6504114D01*
X21735852Y6504237D01*
X21723613Y6502858D01*
X21720840Y6501975D01*
X21717958Y6501568D01*
X21706332Y6497500D01*
X21703825Y6496021D01*
X21701108Y6494983D01*
X21690680Y6488431D01*
X21688567Y6486432D01*
X21686147Y6484816D01*
X21677437Y6476107D01*
X21675821Y6473688D01*
X21673822Y6471574D01*
X21667268Y6461145D01*
X21666229Y6458425D01*
X21664751Y6455916D01*
X21660686Y6444291D01*
X21660278Y6441412D01*
X21659396Y6438642D01*
X21658015Y6426403D01*
X21658139Y6424941D01*
X21657854Y6423502D01*
Y5133502D01*
X21658139Y5132063D01*
X21658015Y5130601D01*
X21659396Y5118362D01*
X21660278Y5115593D01*
X21660686Y5112713D01*
X21664751Y5101088D01*
X21666229Y5098581D01*
X21667268Y5095860D01*
X21673822Y5085431D01*
X21675821Y5083316D01*
X21677437Y5080897D01*
X21686147Y5072188D01*
X21688567Y5070572D01*
X21690680Y5068573D01*
X21701108Y5062021D01*
X21703827Y5060983D01*
X21706334Y5059504D01*
X21717960Y5055437D01*
X21720839Y5055030D01*
X21723611Y5054146D01*
X21735851Y5052767D01*
X21737312Y5052890D01*
X21738751Y5052604D01*
X23028749D01*
X23030188Y5052890D01*
X23031650Y5052767D01*
X23043887Y5054146D01*
X23046661Y5055030D01*
X23049541Y5055437D01*
X23061166Y5059504D01*
X23063673Y5060983D01*
X23066393Y5062021D01*
X23076820Y5068574D01*
X23078934Y5070572D01*
X23081354Y5072188D01*
X23090063Y5080897D01*
X23091679Y5083316D01*
X23093678Y5085431D01*
X23100232Y5095860D01*
X23101270Y5098578D01*
X23102748Y5101084D01*
X23106816Y5112709D01*
X23107224Y5115592D01*
X23108107Y5118366D01*
X23109485Y5130605D01*
X23109361Y5132065D01*
X23109647Y5133502D01*
Y6423502D01*
X23109361Y6424939D01*
X23109485Y6426399D01*
X23108107Y6438638D01*
X23107224Y6441411D01*
X23106816Y6444295D01*
X23102748Y6455920D01*
X23101270Y6458427D01*
X23100230Y6461145D01*
X23093678Y6471574D01*
X23091679Y6473688D01*
X23090063Y6476107D01*
X23081354Y6484816D01*
X23078934Y6486432D01*
X23076820Y6488431D01*
X23066393Y6494983D01*
X23063673Y6496021D01*
X23061166Y6497500D01*
X23049542Y6501568D01*
X23046660Y6501975D01*
X23043887Y6502858D01*
X23031648Y6504237D01*
X23030188Y6504114D01*
X23028749Y6504400D01*
D02*
G37*
G36*
X21123749D02*
X19833751D01*
X19832312Y6504114D01*
X19830850Y6504237D01*
X19818613Y6502858D01*
X19815839Y6501974D01*
X19812959Y6501567D01*
X19801334Y6497500D01*
X19798827Y6496021D01*
X19796107Y6494983D01*
X19785680Y6488431D01*
X19783566Y6486432D01*
X19781146Y6484816D01*
X19772437Y6476107D01*
X19770821Y6473688D01*
X19768822Y6471573D01*
X19762268Y6461144D01*
X19761229Y6458423D01*
X19759750Y6455916D01*
X19755685Y6444291D01*
X19755280Y6441413D01*
X19754396Y6438642D01*
X19753017Y6426403D01*
X19753139Y6424941D01*
X19752853Y6423502D01*
Y5133502D01*
X19753139Y5132063D01*
X19753017Y5130601D01*
X19754396Y5118362D01*
X19755278Y5115592D01*
X19755685Y5112713D01*
X19759750Y5101088D01*
X19761230Y5098580D01*
X19762270Y5095859D01*
X19768822Y5085431D01*
X19770821Y5083316D01*
X19772437Y5080897D01*
X19781146Y5072188D01*
X19783566Y5070572D01*
X19785680Y5068573D01*
X19796107Y5062021D01*
X19798827Y5060983D01*
X19801334Y5059504D01*
X19812958Y5055436D01*
X19815840Y5055030D01*
X19818613Y5054146D01*
X19830852Y5052767D01*
X19832312Y5052890D01*
X19833751Y5052604D01*
X21123749D01*
X21125188Y5052890D01*
X21126649Y5052767D01*
X21138889Y5054146D01*
X21141661Y5055030D01*
X21144540Y5055437D01*
X21156166Y5059504D01*
X21158673Y5060983D01*
X21161392Y5062021D01*
X21171820Y5068574D01*
X21173933Y5070572D01*
X21176353Y5072188D01*
X21185063Y5080897D01*
X21186679Y5083316D01*
X21188678Y5085431D01*
X21195232Y5095860D01*
X21196271Y5098578D01*
X21197748Y5101084D01*
X21201816Y5112709D01*
X21202223Y5115592D01*
X21203107Y5118366D01*
X21204485Y5130605D01*
X21204361Y5132065D01*
X21204646Y5133502D01*
Y6423502D01*
X21204361Y6424939D01*
X21204485Y6426399D01*
X21203107Y6438638D01*
X21202223Y6441411D01*
X21201816Y6444295D01*
X21197748Y6455920D01*
X21196269Y6458427D01*
X21195232Y6461145D01*
X21188678Y6471574D01*
X21186679Y6473688D01*
X21185063Y6476107D01*
X21176353Y6484816D01*
X21173933Y6486432D01*
X21171820Y6488431D01*
X21161392Y6494983D01*
X21158675Y6496021D01*
X21156168Y6497500D01*
X21144542Y6501568D01*
X21141660Y6501975D01*
X21138887Y6502858D01*
X21126649Y6504237D01*
X21125188Y6504114D01*
X21123749Y6504400D01*
D02*
G37*
G36*
X19218748D02*
X17928751Y6504399D01*
X17927312Y6504113D01*
X17925851Y6504236D01*
X17913612Y6502858D01*
X17910840Y6501974D01*
X17907957Y6501567D01*
X17896333Y6497499D01*
X17893826Y6496020D01*
X17891109Y6494983D01*
X17880679Y6488430D01*
X17878566Y6486432D01*
X17876147Y6484815D01*
X17867438Y6476106D01*
X17865820Y6473687D01*
X17863821Y6471573D01*
X17857269Y6461145D01*
X17856232Y6458426D01*
X17854752Y6455919D01*
X17850684Y6444294D01*
X17850278Y6441411D01*
X17849393Y6438637D01*
X17848015Y6426398D01*
X17848138Y6424939D01*
X17847853Y6423502D01*
Y5133502D01*
X17848138Y5132064D01*
X17848015Y5130604D01*
X17849393Y5118366D01*
X17850278Y5115591D01*
X17850684Y5112709D01*
X17854752Y5101084D01*
X17856230Y5098578D01*
X17857268Y5095859D01*
X17863821Y5085431D01*
X17865820Y5083316D01*
X17867438Y5080897D01*
X17876147Y5072188D01*
X17878566Y5070572D01*
X17880679Y5068573D01*
X17891109Y5062020D01*
X17893826Y5060983D01*
X17896333Y5059504D01*
X17907959Y5055436D01*
X17910838Y5055030D01*
X17913612Y5054146D01*
X17925850Y5052767D01*
X17927312Y5052890D01*
X17928751Y5052604D01*
X19218748Y5052604D01*
X19220187Y5052890D01*
X19221648Y5052767D01*
X19233887Y5054146D01*
X19236659Y5055030D01*
X19239542Y5055436D01*
X19251167Y5059504D01*
X19253674Y5060983D01*
X19256392Y5062021D01*
X19266820Y5068574D01*
X19268935Y5070572D01*
X19271353Y5072188D01*
X19280063Y5080897D01*
X19281679Y5083316D01*
X19283678Y5085431D01*
X19290231Y5095859D01*
X19291269Y5098577D01*
X19292747Y5101084D01*
X19296815Y5112709D01*
X19297223Y5115593D01*
X19298106Y5118366D01*
X19299484Y5130605D01*
X19299361Y5132065D01*
X19299648Y5133502D01*
Y6423502D01*
X19299361Y6424939D01*
X19299484Y6426399D01*
X19298106Y6438638D01*
X19297223Y6441412D01*
X19296815Y6444295D01*
X19292747Y6455920D01*
X19291270Y6458425D01*
X19290231Y6461144D01*
X19283678Y6471573D01*
X19281679Y6473688D01*
X19280063Y6476107D01*
X19271353Y6484816D01*
X19268935Y6486432D01*
X19266820Y6488431D01*
X19256392Y6494983D01*
X19253673Y6496021D01*
X19251166Y6497500D01*
X19239542Y6501567D01*
X19236661Y6501974D01*
X19233888Y6502858D01*
X19221651Y6504237D01*
X19220187Y6504114D01*
X19218748Y6504400D01*
D02*
G37*
G36*
X17313750Y6504399D02*
X16023750D01*
X16022311Y6504113D01*
X16020853Y6504236D01*
X16008614Y6502858D01*
X16005840Y6501974D01*
X16002959Y6501567D01*
X15991333Y6497499D01*
X15988826Y6496020D01*
X15986108Y6494983D01*
X15975681Y6488430D01*
X15973566Y6486432D01*
X15971147Y6484815D01*
X15962437Y6476106D01*
X15960820Y6473686D01*
X15958821Y6471571D01*
X15952269Y6461143D01*
X15951231Y6458425D01*
X15949753Y6455919D01*
X15945685Y6444294D01*
X15945277Y6441412D01*
X15944394Y6438639D01*
X15943016Y6426401D01*
X15943140Y6424940D01*
X15942853Y6423502D01*
Y5133502D01*
X15943140Y5132063D01*
X15943016Y5130603D01*
X15944394Y5118364D01*
X15945277Y5115590D01*
X15945685Y5112709D01*
X15949753Y5101084D01*
X15951231Y5098578D01*
X15952269Y5095861D01*
X15958821Y5085432D01*
X15960820Y5083317D01*
X15962437Y5080897D01*
X15971147Y5072188D01*
X15973566Y5070572D01*
X15975681Y5068573D01*
X15986108Y5062020D01*
X15988828Y5060983D01*
X15991335Y5059504D01*
X16002959Y5055436D01*
X16005840Y5055030D01*
X16008612Y5054146D01*
X16020850Y5052767D01*
X16022311Y5052890D01*
X16023750Y5052604D01*
X17313750D01*
X17315189Y5052890D01*
X17316650Y5052767D01*
X17328888Y5054146D01*
X17331660Y5055030D01*
X17334541Y5055436D01*
X17346165Y5059504D01*
X17348672Y5060983D01*
X17351392Y5062020D01*
X17361819Y5068573D01*
X17363934Y5070572D01*
X17366353Y5072188D01*
X17375063Y5080897D01*
X17376678Y5083316D01*
X17378677Y5085431D01*
X17385233Y5095859D01*
X17386270Y5098578D01*
X17387749Y5101084D01*
X17391817Y5112709D01*
X17392223Y5115592D01*
X17393108Y5118366D01*
X17394485Y5130605D01*
X17394360Y5132064D01*
X17394647Y5133502D01*
Y6423502D01*
X17394360Y6424939D01*
X17394485Y6426399D01*
X17393108Y6438637D01*
X17392223Y6441411D01*
X17391817Y6444294D01*
X17387749Y6455919D01*
X17386269Y6458426D01*
X17385231Y6461145D01*
X17378677Y6471573D01*
X17376678Y6473687D01*
X17375063Y6476106D01*
X17366353Y6484815D01*
X17363934Y6486432D01*
X17361819Y6488430D01*
X17351392Y6494983D01*
X17348674Y6496020D01*
X17346167Y6497499D01*
X17334541Y6501567D01*
X17331660Y6501974D01*
X17328886Y6502858D01*
X17316649Y6504236D01*
X17315189Y6504113D01*
X17313750Y6504399D01*
D02*
G37*
G36*
X15408749D02*
X14118752D01*
X14117313Y6504113D01*
X14115849Y6504236D01*
X14103612Y6502857D01*
X14100839Y6501974D01*
X14097958Y6501567D01*
X14086334Y6497499D01*
X14083827Y6496021D01*
X14081108Y6494983D01*
X14070680Y6488430D01*
X14068565Y6486432D01*
X14066147Y6484815D01*
X14057437Y6476106D01*
X14055821Y6473687D01*
X14053821Y6471571D01*
X14047269Y6461142D01*
X14046231Y6458425D01*
X14044753Y6455919D01*
X14040685Y6444294D01*
X14040279Y6441413D01*
X14039394Y6438639D01*
X14038016Y6426401D01*
X14038139Y6424940D01*
X14037852Y6423502D01*
Y5133502D01*
X14038139Y5132063D01*
X14038016Y5130603D01*
X14039394Y5118364D01*
X14040279Y5115591D01*
X14040685Y5112709D01*
X14044753Y5101084D01*
X14046231Y5098577D01*
X14047269Y5095860D01*
X14053821Y5085432D01*
X14055821Y5083316D01*
X14057437Y5080897D01*
X14066147Y5072188D01*
X14068565Y5070572D01*
X14070680Y5068573D01*
X14081108Y5062020D01*
X14083826Y5060983D01*
X14086333Y5059504D01*
X14097958Y5055436D01*
X14100841Y5055029D01*
X14103613Y5054145D01*
X14115851Y5052767D01*
X14117313Y5052890D01*
X14118752Y5052604D01*
X15408749D01*
X15410188Y5052890D01*
X15411652Y5052767D01*
X15423889Y5054146D01*
X15426662Y5055030D01*
X15429543Y5055436D01*
X15441167Y5059504D01*
X15443672Y5060982D01*
X15446391Y5062020D01*
X15456821Y5068572D01*
X15458936Y5070572D01*
X15461356Y5072189D01*
X15470064Y5080898D01*
X15471680Y5083316D01*
X15473679Y5085431D01*
X15480232Y5095859D01*
X15481270Y5098579D01*
X15482748Y5101086D01*
X15486816Y5112710D01*
X15487222Y5115591D01*
X15488104Y5118362D01*
X15489485Y5130600D01*
X15489362Y5132062D01*
X15489648Y5133502D01*
Y6423502D01*
X15489362Y6424941D01*
X15489485Y6426403D01*
X15488104Y6438641D01*
X15487222Y6441413D01*
X15486816Y6444292D01*
X15482748Y6455917D01*
X15481270Y6458424D01*
X15480231Y6461145D01*
X15473679Y6471573D01*
X15471680Y6473687D01*
X15470064Y6476105D01*
X15461356Y6484814D01*
X15458936Y6486431D01*
X15456821Y6488431D01*
X15446391Y6494983D01*
X15443674Y6496021D01*
X15441168Y6497499D01*
X15429544Y6501567D01*
X15426662Y6501974D01*
X15423888Y6502858D01*
X15411650Y6504236D01*
X15410188Y6504113D01*
X15408749Y6504399D01*
D02*
G37*
G36*
X13503751D02*
X12213751Y6504399D01*
X12212312Y6504113D01*
X12210852Y6504236D01*
X12198613Y6502857D01*
X12195840Y6501974D01*
X12192958Y6501567D01*
X12181333Y6497499D01*
X12178826Y6496020D01*
X12176108Y6494982D01*
X12165680Y6488429D01*
X12163566Y6486431D01*
X12161147Y6484815D01*
X12152437Y6476106D01*
X12150820Y6473686D01*
X12148821Y6471571D01*
X12142269Y6461143D01*
X12141231Y6458425D01*
X12139753Y6455919D01*
X12135685Y6444294D01*
X12135278Y6441412D01*
X12134394Y6438639D01*
X12133016Y6426400D01*
X12133139Y6424939D01*
X12132853Y6423501D01*
Y5133501D01*
X12133139Y5132063D01*
X12133016Y5130602D01*
X12134394Y5118363D01*
X12135278Y5115590D01*
X12135685Y5112708D01*
X12139753Y5101084D01*
X12141231Y5098578D01*
X12142269Y5095860D01*
X12148821Y5085432D01*
X12150820Y5083317D01*
X12152437Y5080896D01*
X12161147Y5072187D01*
X12163566Y5070571D01*
X12165680Y5068572D01*
X12176108Y5062020D01*
X12178827Y5060982D01*
X12181334Y5059503D01*
X12192959Y5055436D01*
X12195839Y5055029D01*
X12198612Y5054145D01*
X12210850Y5052766D01*
X12212312Y5052889D01*
X12213751Y5052603D01*
X13503751Y5052604D01*
X13505190Y5052890D01*
X13506648Y5052767D01*
X13518887Y5054145D01*
X13521661Y5055029D01*
X13524544Y5055436D01*
X13536168Y5059504D01*
X13538673Y5060983D01*
X13541391Y5062020D01*
X13551820Y5068572D01*
X13553935Y5070572D01*
X13556355Y5072189D01*
X13565063Y5080898D01*
X13566679Y5083316D01*
X13568678Y5085430D01*
X13575230Y5095858D01*
X13576270Y5098578D01*
X13577750Y5101086D01*
X13581816Y5112711D01*
X13582222Y5115590D01*
X13583105Y5118362D01*
X13584485Y5130600D01*
X13584361Y5132062D01*
X13584648Y5133502D01*
Y6423502D01*
X13584361Y6424941D01*
X13584485Y6426403D01*
X13583105Y6438641D01*
X13582222Y6441412D01*
X13581816Y6444293D01*
X13577750Y6455917D01*
X13576270Y6458424D01*
X13575232Y6461144D01*
X13568678Y6471573D01*
X13566679Y6473687D01*
X13565063Y6476105D01*
X13556355Y6484814D01*
X13553935Y6486431D01*
X13551820Y6488431D01*
X13541391Y6494983D01*
X13538672Y6496021D01*
X13536166Y6497499D01*
X13524544Y6501567D01*
X13521661Y6501973D01*
X13518889Y6502857D01*
X13506651Y6504236D01*
X13505190Y6504113D01*
X13503751Y6504399D01*
D02*
G37*
G36*
X11598750Y6504399D02*
X10308751D01*
X10307312Y6504113D01*
X10305852Y6504236D01*
X10293613Y6502857D01*
X10290840Y6501974D01*
X10287958Y6501567D01*
X10276333Y6497499D01*
X10273826Y6496020D01*
X10271108Y6494982D01*
X10260680Y6488429D01*
X10258566Y6486431D01*
X10256147Y6484815D01*
X10247437Y6476106D01*
X10245820Y6473686D01*
X10243821Y6471571D01*
X10237269Y6461143D01*
X10236231Y6458425D01*
X10234753Y6455919D01*
X10230685Y6444294D01*
X10230278Y6441412D01*
X10229394Y6438639D01*
X10228016Y6426400D01*
X10228139Y6424939D01*
X10227853Y6423501D01*
Y5133501D01*
X10228139Y5132063D01*
X10228016Y5130602D01*
X10229394Y5118363D01*
X10230278Y5115590D01*
X10230685Y5112708D01*
X10234753Y5101084D01*
X10236231Y5098578D01*
X10237269Y5095860D01*
X10243821Y5085432D01*
X10245820Y5083317D01*
X10247437Y5080896D01*
X10256147Y5072187D01*
X10258566Y5070571D01*
X10260680Y5068572D01*
X10271108Y5062020D01*
X10273827Y5060982D01*
X10276334Y5059503D01*
X10287959Y5055436D01*
X10290839Y5055029D01*
X10293612Y5054145D01*
X10305850Y5052766D01*
X10307312Y5052889D01*
X10308751Y5052603D01*
X11598750D01*
X11600189Y5052889D01*
X11601651Y5052766D01*
X11613889Y5054145D01*
X11616662Y5055029D01*
X11619543Y5055436D01*
X11631167Y5059503D01*
X11633672Y5060981D01*
X11636391Y5062019D01*
X11646820Y5068572D01*
X11648935Y5070571D01*
X11651355Y5072188D01*
X11660064Y5080897D01*
X11661679Y5083316D01*
X11663678Y5085430D01*
X11670232Y5095859D01*
X11671270Y5098578D01*
X11672749Y5101085D01*
X11676816Y5112710D01*
X11677222Y5115590D01*
X11678105Y5118361D01*
X11679485Y5130600D01*
X11679362Y5132062D01*
X11679648Y5133501D01*
Y6423501D01*
X11679362Y6424940D01*
X11679485Y6426402D01*
X11678105Y6438641D01*
X11677222Y6441412D01*
X11676816Y6444292D01*
X11672749Y6455917D01*
X11671270Y6458424D01*
X11670231Y6461144D01*
X11663678Y6471573D01*
X11661680Y6473686D01*
X11660064Y6476105D01*
X11651355Y6484814D01*
X11648935Y6486431D01*
X11646820Y6488430D01*
X11636391Y6494983D01*
X11633674Y6496020D01*
X11631168Y6497498D01*
X11619544Y6501566D01*
X11616661Y6501974D01*
X11613888Y6502857D01*
X11601650Y6504236D01*
X11600189Y6504113D01*
X11598750Y6504399D01*
D02*
G37*
G36*
X9693750D02*
X8403750D01*
X8402312Y6504113D01*
X8400850Y6504236D01*
X8388611Y6502857D01*
X8385839Y6501973D01*
X8382958Y6501566D01*
X8371333Y6497499D01*
X8368826Y6496020D01*
X8366108Y6494982D01*
X8355680Y6488430D01*
X8353565Y6486431D01*
X8351146Y6484814D01*
X8342437Y6476105D01*
X8340821Y6473686D01*
X8338821Y6471571D01*
X8332268Y6461143D01*
X8331230Y6458423D01*
X8329752Y6455918D01*
X8325685Y6444293D01*
X8325278Y6441412D01*
X8324394Y6438640D01*
X8323015Y6426401D01*
X8323138Y6424939D01*
X8322852Y6423501D01*
Y5133501D01*
X8323138Y5132063D01*
X8323015Y5130601D01*
X8324394Y5118362D01*
X8325278Y5115590D01*
X8325685Y5112709D01*
X8329752Y5101084D01*
X8331231Y5098577D01*
X8332269Y5095858D01*
X8338822Y5085430D01*
X8340821Y5083316D01*
X8342437Y5080897D01*
X8351146Y5072188D01*
X8353565Y5070572D01*
X8355680Y5068572D01*
X8366108Y5062019D01*
X8368827Y5060982D01*
X8371332Y5059504D01*
X8382957Y5055436D01*
X8385839Y5055029D01*
X8388612Y5054145D01*
X8400851Y5052766D01*
X8402312Y5052889D01*
X8403750Y5052603D01*
X9693750D01*
X9695189Y5052889D01*
X9696651Y5052766D01*
X9708889Y5054145D01*
X9711662Y5055029D01*
X9714543Y5055436D01*
X9726167Y5059503D01*
X9728672Y5060981D01*
X9731391Y5062019D01*
X9741820Y5068572D01*
X9743935Y5070571D01*
X9746355Y5072188D01*
X9755064Y5080897D01*
X9756679Y5083316D01*
X9758678Y5085430D01*
X9765232Y5095859D01*
X9766270Y5098578D01*
X9767749Y5101085D01*
X9771816Y5112710D01*
X9772222Y5115590D01*
X9773105Y5118361D01*
X9774485Y5130600D01*
X9774362Y5132062D01*
X9774648Y5133501D01*
Y6423501D01*
X9774362Y6424940D01*
X9774485Y6426402D01*
X9773105Y6438641D01*
X9772222Y6441412D01*
X9771816Y6444292D01*
X9767749Y6455917D01*
X9766270Y6458424D01*
X9765231Y6461144D01*
X9758678Y6471573D01*
X9756680Y6473686D01*
X9755064Y6476105D01*
X9746355Y6484814D01*
X9743935Y6486431D01*
X9741820Y6488430D01*
X9731391Y6494983D01*
X9728674Y6496020D01*
X9726168Y6497498D01*
X9714544Y6501566D01*
X9711661Y6501974D01*
X9708888Y6502857D01*
X9696650Y6504236D01*
X9695189Y6504113D01*
X9693750Y6504399D01*
D02*
G37*
G36*
X7788750D02*
X6498751Y6504398D01*
X6497312Y6504112D01*
X6495852Y6504235D01*
X6483613Y6502857D01*
X6480840Y6501973D01*
X6477958Y6501566D01*
X6466333Y6497498D01*
X6463826Y6496019D01*
X6461108Y6494982D01*
X6450680Y6488429D01*
X6448566Y6486431D01*
X6446147Y6484814D01*
X6437437Y6476105D01*
X6435821Y6473686D01*
X6433822Y6471572D01*
X6427269Y6461144D01*
X6426230Y6458424D01*
X6424751Y6455916D01*
X6420684Y6444291D01*
X6420278Y6441411D01*
X6419394Y6438638D01*
X6418016Y6426400D01*
X6418139Y6424939D01*
X6417853Y6423500D01*
Y5133501D01*
X6418139Y5132062D01*
X6418016Y5130602D01*
X6419394Y5118363D01*
X6420278Y5115590D01*
X6420684Y5112709D01*
X6424751Y5101085D01*
X6426230Y5098578D01*
X6427268Y5095858D01*
X6433822Y5085430D01*
X6435821Y5083315D01*
X6437437Y5080896D01*
X6446147Y5072187D01*
X6448566Y5070571D01*
X6450680Y5068572D01*
X6461108Y5062019D01*
X6463827Y5060981D01*
X6466334Y5059503D01*
X6477959Y5055435D01*
X6480839Y5055028D01*
X6483612Y5054145D01*
X6495850Y5052766D01*
X6497312Y5052889D01*
X6498751Y5052603D01*
X7788750Y5052603D01*
X7790188Y5052889D01*
X7791649Y5052766D01*
X7803888Y5054145D01*
X7806661Y5055029D01*
X7809543Y5055436D01*
X7821167Y5059504D01*
X7823673Y5060982D01*
X7826392Y5062020D01*
X7836820Y5068572D01*
X7838935Y5070572D01*
X7841354Y5072188D01*
X7850063Y5080897D01*
X7851680Y5083316D01*
X7853679Y5085431D01*
X7860231Y5095858D01*
X7861269Y5098577D01*
X7862748Y5101084D01*
X7866815Y5112709D01*
X7867222Y5115590D01*
X7868106Y5118362D01*
X7869485Y5130601D01*
X7869362Y5132063D01*
X7869648Y5133501D01*
Y6423501D01*
X7869362Y6424939D01*
X7869485Y6426401D01*
X7868106Y6438640D01*
X7867222Y6441412D01*
X7866815Y6444293D01*
X7862748Y6455918D01*
X7861269Y6458425D01*
X7860231Y6461143D01*
X7853679Y6471571D01*
X7851679Y6473686D01*
X7850063Y6476105D01*
X7841354Y6484814D01*
X7838935Y6486431D01*
X7836820Y6488430D01*
X7826392Y6494983D01*
X7823672Y6496021D01*
X7821167Y6497499D01*
X7809542Y6501566D01*
X7806661Y6501973D01*
X7803889Y6502857D01*
X7791650Y6504236D01*
X7790188Y6504113D01*
X7788750Y6504399D01*
D02*
G37*
G36*
X5883749Y6504398D02*
X4593751D01*
X4592312Y6504112D01*
X4590852Y6504235D01*
X4578613Y6502857D01*
X4575840Y6501973D01*
X4572958Y6501566D01*
X4561333Y6497498D01*
X4558826Y6496019D01*
X4556108Y6494982D01*
X4545680Y6488429D01*
X4543566Y6486431D01*
X4541147Y6484814D01*
X4532437Y6476105D01*
X4530821Y6473686D01*
X4528822Y6471572D01*
X4522269Y6461144D01*
X4521230Y6458424D01*
X4519751Y6455916D01*
X4515684Y6444291D01*
X4515278Y6441411D01*
X4514394Y6438638D01*
X4513016Y6426400D01*
X4513139Y6424939D01*
X4512853Y6423500D01*
Y5133501D01*
X4513139Y5132062D01*
X4513016Y5130602D01*
X4514394Y5118363D01*
X4515278Y5115590D01*
X4515684Y5112709D01*
X4519751Y5101085D01*
X4521230Y5098578D01*
X4522268Y5095858D01*
X4528822Y5085430D01*
X4530821Y5083315D01*
X4532437Y5080896D01*
X4541147Y5072187D01*
X4543566Y5070571D01*
X4545680Y5068572D01*
X4556108Y5062019D01*
X4558827Y5060981D01*
X4561334Y5059503D01*
X4572959Y5055435D01*
X4575839Y5055028D01*
X4578612Y5054145D01*
X4590850Y5052766D01*
X4592312Y5052889D01*
X4593751Y5052603D01*
X5883749D01*
X5885188Y5052889D01*
X5886650Y5052766D01*
X5898888Y5054145D01*
X5901661Y5055028D01*
X5904541Y5055435D01*
X5916166Y5059503D01*
X5918673Y5060981D01*
X5921392Y5062019D01*
X5931820Y5068572D01*
X5933934Y5070571D01*
X5936353Y5072187D01*
X5945063Y5080896D01*
X5946679Y5083315D01*
X5948678Y5085430D01*
X5955232Y5095858D01*
X5956270Y5098578D01*
X5957749Y5101085D01*
X5961816Y5112709D01*
X5962222Y5115591D01*
X5963106Y5118363D01*
X5964484Y5130601D01*
X5964361Y5132062D01*
X5964647Y5133501D01*
Y6423500D01*
X5964361Y6424939D01*
X5964484Y6426399D01*
X5963106Y6438638D01*
X5962222Y6441411D01*
X5961816Y6444291D01*
X5957749Y6455916D01*
X5956270Y6458423D01*
X5955231Y6461144D01*
X5948678Y6471572D01*
X5946679Y6473686D01*
X5945063Y6476105D01*
X5936353Y6484814D01*
X5933934Y6486431D01*
X5931820Y6488429D01*
X5921392Y6494982D01*
X5918674Y6496019D01*
X5916167Y6497498D01*
X5904542Y6501566D01*
X5901660Y6501973D01*
X5898887Y6502857D01*
X5886649Y6504235D01*
X5885188Y6504112D01*
X5883749Y6504398D01*
D02*
G37*
G36*
X3978749D02*
X2688751D01*
X2687312Y6504112D01*
X2685850Y6504235D01*
X2673612Y6502856D01*
X2670839Y6501973D01*
X2667959Y6501566D01*
X2656334Y6497498D01*
X2653827Y6496020D01*
X2651108Y6494982D01*
X2640680Y6488429D01*
X2638566Y6486431D01*
X2636147Y6484814D01*
X2627437Y6476105D01*
X2625821Y6473686D01*
X2623822Y6471572D01*
X2617268Y6461143D01*
X2616230Y6458423D01*
X2614751Y6455916D01*
X2610684Y6444292D01*
X2610278Y6441410D01*
X2609394Y6438638D01*
X2608016Y6426400D01*
X2608139Y6424939D01*
X2607853Y6423500D01*
X2607853Y5133501D01*
X2608139Y5132062D01*
X2608016Y5130602D01*
X2609395Y5118363D01*
X2610278Y5115590D01*
X2610685Y5112710D01*
X2614752Y5101085D01*
X2616230Y5098578D01*
X2617269Y5095857D01*
X2623822Y5085429D01*
X2625821Y5083315D01*
X2627438Y5080896D01*
X2636147Y5072187D01*
X2638566Y5070571D01*
X2640680Y5068572D01*
X2651108Y5062019D01*
X2653826Y5060982D01*
X2656333Y5059503D01*
X2667958Y5055435D01*
X2670840Y5055028D01*
X2673613Y5054144D01*
X2685852Y5052766D01*
X2687313Y5052889D01*
X2688751Y5052603D01*
X3978750D01*
X3980188Y5052889D01*
X3981650Y5052766D01*
X3993889Y5054145D01*
X3996661Y5055028D01*
X3999541Y5055435D01*
X4011166Y5059503D01*
X4013673Y5060981D01*
X4016392Y5062019D01*
X4026820Y5068572D01*
X4028935Y5070571D01*
X4031354Y5072187D01*
X4040063Y5080896D01*
X4041679Y5083315D01*
X4043679Y5085430D01*
X4050232Y5095858D01*
X4051270Y5098578D01*
X4052749Y5101085D01*
X4056816Y5112709D01*
X4057223Y5115591D01*
X4058106Y5118363D01*
X4059485Y5130601D01*
X4059361Y5132062D01*
X4059647Y5133501D01*
X4059647Y6423500D01*
X4059361Y6424939D01*
X4059484Y6426399D01*
X4058106Y6438638D01*
X4057222Y6441411D01*
X4056816Y6444291D01*
X4052749Y6455916D01*
X4051270Y6458423D01*
X4050231Y6461144D01*
X4043678Y6471572D01*
X4041679Y6473686D01*
X4040063Y6476105D01*
X4031353Y6484814D01*
X4028934Y6486431D01*
X4026820Y6488429D01*
X4016392Y6494982D01*
X4013674Y6496019D01*
X4011167Y6497498D01*
X3999542Y6501566D01*
X3996660Y6501973D01*
X3993887Y6502857D01*
X3981649Y6504235D01*
X3980188Y6504112D01*
X3978749Y6504398D01*
D02*
G37*
G36*
X1835625D02*
X545625Y6504398D01*
X544186Y6504112D01*
X542726Y6504235D01*
X530487Y6502856D01*
X527713Y6501973D01*
X524831Y6501565D01*
X513207Y6497497D01*
X510701Y6496019D01*
X507984Y6494982D01*
X497555Y6488429D01*
X495440Y6486430D01*
X493020Y6484813D01*
X484311Y6476104D01*
X482695Y6473684D01*
X480696Y6471570D01*
X474144Y6461142D01*
X473106Y6458424D01*
X471628Y6455918D01*
X467560Y6444293D01*
X467153Y6441411D01*
X466270Y6438640D01*
X464890Y6426401D01*
X465013Y6424939D01*
X464727Y6423500D01*
X464727Y5133500D01*
X465013Y5132061D01*
X464890Y5130599D01*
X466270Y5118360D01*
X467153Y5115588D01*
X467560Y5112707D01*
X471628Y5101083D01*
X473106Y5098577D01*
X474144Y5095859D01*
X480696Y5085431D01*
X482694Y5083316D01*
X484312Y5080896D01*
X493020Y5072187D01*
X495440Y5070570D01*
X497555Y5068571D01*
X507984Y5062018D01*
X510703Y5060980D01*
X513208Y5059502D01*
X524832Y5055435D01*
X527713Y5055028D01*
X530486Y5054144D01*
X542725Y5052765D01*
X544186Y5052888D01*
X545625Y5052602D01*
X1835626Y5052603D01*
X1837064Y5052889D01*
X1838525Y5052766D01*
X1850764Y5054144D01*
X1853537Y5055028D01*
X1856419Y5055435D01*
X1868043Y5059503D01*
X1870549Y5060981D01*
X1873266Y5062019D01*
X1883695Y5068571D01*
X1885811Y5070571D01*
X1888231Y5072188D01*
X1896939Y5080897D01*
X1898555Y5083316D01*
X1900554Y5085431D01*
X1907106Y5095859D01*
X1908144Y5098577D01*
X1909622Y5101083D01*
X1913690Y5112708D01*
X1914097Y5115589D01*
X1914981Y5118361D01*
X1916360Y5130599D01*
X1916237Y5132061D01*
X1916523Y5133501D01*
X1916523Y6423500D01*
X1916237Y6424940D01*
X1916360Y6426402D01*
X1914980Y6438640D01*
X1914097Y6441413D01*
X1913690Y6444293D01*
X1909622Y6455918D01*
X1908144Y6458424D01*
X1907106Y6461141D01*
X1900554Y6471570D01*
X1898556Y6473684D01*
X1896939Y6476104D01*
X1888230Y6484813D01*
X1885810Y6486430D01*
X1883695Y6488430D01*
X1873266Y6494982D01*
X1870547Y6496020D01*
X1868042Y6497498D01*
X1856418Y6501566D01*
X1853537Y6501972D01*
X1850764Y6502856D01*
X1838526Y6504235D01*
X1837064Y6504112D01*
X1835625Y6504398D01*
D02*
G37*
G36*
X20260001Y4799399D02*
X19745001D01*
X19743562Y4799113D01*
X19742101Y4799237D01*
X19718736Y4796604D01*
X19715962Y4795720D01*
X19713081Y4795313D01*
X19690889Y4787548D01*
X19688383Y4786069D01*
X19685664Y4785032D01*
X19665756Y4772522D01*
X19663641Y4770523D01*
X19661221Y4768906D01*
X19644595Y4752281D01*
X19642979Y4749861D01*
X19640981Y4747746D01*
X19628471Y4727838D01*
X19627432Y4725120D01*
X19625955Y4722614D01*
X19618188Y4700421D01*
X19617781Y4697537D01*
X19616898Y4694765D01*
X19614267Y4671400D01*
X19614391Y4669940D01*
X19614104Y4668502D01*
Y4602458D01*
X19613904Y4600686D01*
X19613795Y4600377D01*
X19613625Y4600104D01*
X19613397Y4599877D01*
X19613124Y4599705D01*
X19612822Y4599600D01*
X19611047Y4599400D01*
X19595625D01*
X19594186Y4599114D01*
X19592725Y4599237D01*
X19580486Y4597858D01*
X19577713Y4596974D01*
X19574831Y4596567D01*
X19563210Y4592499D01*
X19560704Y4591022D01*
X19557986Y4589984D01*
X19547556Y4583432D01*
X19545441Y4581432D01*
X19543018Y4579813D01*
X19534311Y4571105D01*
X19532697Y4568687D01*
X19530698Y4566573D01*
X19524144Y4556144D01*
X19523106Y4553426D01*
X19521628Y4550920D01*
X19517560Y4539295D01*
X19517152Y4536414D01*
X19516270Y4533642D01*
X19514890Y4521403D01*
X19515013Y4519941D01*
X19514726Y4518502D01*
Y3228502D01*
X19515013Y3227063D01*
X19514890Y3225601D01*
X19516270Y3213362D01*
X19517152Y3210590D01*
X19517560Y3207709D01*
X19521628Y3196084D01*
X19523106Y3193579D01*
X19524144Y3190860D01*
X19530698Y3180431D01*
X19532697Y3178317D01*
X19534311Y3175899D01*
X19543019Y3167190D01*
X19545441Y3165572D01*
X19547556Y3163572D01*
X19557986Y3157019D01*
X19560703Y3155982D01*
X19563210Y3154504D01*
X19574832Y3150437D01*
X19577711Y3150030D01*
X19580486Y3149146D01*
X19592725Y3147767D01*
X19594186Y3147890D01*
X19595625Y3147604D01*
X20885625Y3147604D01*
X20887064Y3147890D01*
X20888525Y3147767D01*
X20900764Y3149146D01*
X20903537Y3150030D01*
X20906416Y3150437D01*
X20918042Y3154504D01*
X20920549Y3155983D01*
X20923268Y3157021D01*
X20933696Y3163574D01*
X20935809Y3165572D01*
X20938229Y3167188D01*
X20946939Y3175897D01*
X20948557Y3178319D01*
X20950555Y3180434D01*
X20957108Y3190863D01*
X20958144Y3193579D01*
X20959622Y3196084D01*
X20963690Y3207709D01*
X20964098Y3210590D01*
X20964980Y3213362D01*
X20966360Y3225601D01*
X20966237Y3227063D01*
X20966524Y3228502D01*
Y4518502D01*
X20966237Y4519941D01*
X20966360Y4521403D01*
X20964980Y4533642D01*
X20964098Y4536414D01*
X20963690Y4539295D01*
X20959622Y4550920D01*
X20958144Y4553424D01*
X20957108Y4556141D01*
X20950555Y4566570D01*
X20948557Y4568686D01*
X20946939Y4571107D01*
X20938229Y4579816D01*
X20935809Y4581432D01*
X20933696Y4583431D01*
X20923268Y4589983D01*
X20920549Y4591021D01*
X20918042Y4592500D01*
X20906416Y4596567D01*
X20903537Y4596974D01*
X20900764Y4597858D01*
X20888525Y4599237D01*
X20887064Y4599114D01*
X20885625Y4599400D01*
X20393954D01*
X20392178Y4599600D01*
X20391875Y4599706D01*
X20391603Y4599877D01*
X20391376Y4600105D01*
X20391205Y4600376D01*
X20391098Y4600681D01*
X20390898Y4602455D01*
Y4668502D01*
X20390611Y4669941D01*
X20390735Y4671402D01*
X20388103Y4694767D01*
X20387218Y4697539D01*
X20386812Y4700419D01*
X20379048Y4722612D01*
X20377570Y4725119D01*
X20376530Y4727839D01*
X20364018Y4747748D01*
X20362019Y4749862D01*
X20360403Y4752281D01*
X20343777Y4768906D01*
X20341359Y4770523D01*
X20339246Y4772522D01*
X20319337Y4785031D01*
X20316618Y4786069D01*
X20314111Y4787548D01*
X20291919Y4795313D01*
X20289038Y4795720D01*
X20286266Y4796604D01*
X20262901Y4799237D01*
X20261440Y4799113D01*
X20260001Y4799399D01*
D02*
G37*
G36*
X18355000D02*
X17840001D01*
X17838564Y4799113D01*
X17837102Y4799237D01*
X17813736Y4796604D01*
X17810962Y4795720D01*
X17808081Y4795313D01*
X17785889Y4787548D01*
X17783385Y4786069D01*
X17780666Y4785032D01*
X17760756Y4772522D01*
X17758641Y4770523D01*
X17756223Y4768906D01*
X17739597Y4752281D01*
X17737979Y4749861D01*
X17735980Y4747746D01*
X17723471Y4727838D01*
X17722433Y4725119D01*
X17720955Y4722613D01*
X17713190Y4700420D01*
X17712782Y4697537D01*
X17711897Y4694765D01*
X17709267Y4671400D01*
X17709390Y4669940D01*
X17709103Y4668502D01*
Y3378501D01*
X17709390Y3377063D01*
X17709267Y3375603D01*
X17711897Y3352239D01*
X17712782Y3349465D01*
X17713190Y3346583D01*
X17720955Y3324390D01*
X17722433Y3321884D01*
X17723471Y3319166D01*
X17735980Y3299258D01*
X17737979Y3297143D01*
X17739597Y3294723D01*
X17756223Y3278097D01*
X17758641Y3276480D01*
X17760756Y3274482D01*
X17780666Y3261972D01*
X17783385Y3260934D01*
X17785890Y3259456D01*
X17808081Y3251690D01*
X17810963Y3251283D01*
X17813736Y3250400D01*
X17837102Y3247767D01*
X17838564Y3247890D01*
X17840001Y3247604D01*
X18355000D01*
X18356441Y3247890D01*
X18357901Y3247767D01*
X18381265Y3250400D01*
X18384036Y3251283D01*
X18386919Y3251690D01*
X18409113Y3259455D01*
X18411620Y3260934D01*
X18414339Y3261972D01*
X18434245Y3274482D01*
X18436359Y3276481D01*
X18438779Y3278097D01*
X18455405Y3294723D01*
X18457021Y3297142D01*
X18459019Y3299256D01*
X18471530Y3319164D01*
X18472569Y3321885D01*
X18474048Y3324392D01*
X18481812Y3346585D01*
X18482217Y3349464D01*
X18483102Y3352237D01*
X18485735Y3375601D01*
X18485612Y3377062D01*
X18485898Y3378501D01*
Y4668502D01*
X18485612Y4669941D01*
X18485735Y4671402D01*
X18483102Y4694767D01*
X18482217Y4697539D01*
X18481812Y4700419D01*
X18474048Y4722612D01*
X18472569Y4725119D01*
X18471530Y4727839D01*
X18459019Y4747748D01*
X18457021Y4749862D01*
X18455405Y4752281D01*
X18438779Y4768906D01*
X18436359Y4770523D01*
X18434245Y4772522D01*
X18414339Y4785031D01*
X18411618Y4786069D01*
X18409113Y4787548D01*
X18386919Y4795313D01*
X18384038Y4795720D01*
X18381265Y4796604D01*
X18357901Y4799237D01*
X18356441Y4799113D01*
X18355000Y4799399D01*
D02*
G37*
G36*
X8830000Y4799398D02*
X7838750D01*
X7837312Y4799112D01*
X7835851Y4799236D01*
X7812486Y4796603D01*
X7809713Y4795719D01*
X7806832Y4795312D01*
X7784639Y4787547D01*
X7782133Y4786068D01*
X7779414Y4785031D01*
X7759506Y4772521D01*
X7757392Y4770522D01*
X7754972Y4768906D01*
X7738346Y4752280D01*
X7736729Y4749860D01*
X7734730Y4747746D01*
X7722221Y4727837D01*
X7721183Y4725118D01*
X7719704Y4722612D01*
X7711939Y4700419D01*
X7711532Y4697537D01*
X7710649Y4694765D01*
X7708016Y4671400D01*
X7708139Y4669939D01*
X7707853Y4668501D01*
Y3378500D01*
X7708139Y3377062D01*
X7708016Y3375601D01*
X7710649Y3352237D01*
X7711532Y3349465D01*
X7711939Y3346583D01*
X7719704Y3324390D01*
X7721182Y3321884D01*
X7722221Y3319165D01*
X7734730Y3299256D01*
X7736729Y3297141D01*
X7738346Y3294722D01*
X7754972Y3278096D01*
X7757391Y3276480D01*
X7759505Y3274481D01*
X7779414Y3261971D01*
X7782133Y3260933D01*
X7784640Y3259454D01*
X7806832Y3251689D01*
X7809714Y3251282D01*
X7812486Y3250399D01*
X7835851Y3247766D01*
X7837312Y3247889D01*
X7838750Y3247603D01*
X8830000Y3247604D01*
X8831438Y3247890D01*
X8832900Y3247766D01*
X8856264Y3250399D01*
X8859036Y3251282D01*
X8861918Y3251689D01*
X8884111Y3259454D01*
X8886618Y3260933D01*
X8889336Y3261971D01*
X8909245Y3274481D01*
X8911359Y3276480D01*
X8913778Y3278096D01*
X8930405Y3294722D01*
X8932022Y3297141D01*
X8934021Y3299257D01*
X8946530Y3319165D01*
X8947568Y3321884D01*
X8949046Y3324390D01*
X8956812Y3346583D01*
X8957219Y3349465D01*
X8958102Y3352237D01*
X8960734Y3375601D01*
X8960611Y3377063D01*
X8960897Y3378501D01*
Y4668501D01*
X8960611Y4669939D01*
X8960734Y4671400D01*
X8958102Y4694765D01*
X8957219Y4697537D01*
X8956812Y4700419D01*
X8949046Y4722612D01*
X8947568Y4725118D01*
X8946530Y4727837D01*
X8934021Y4747745D01*
X8932022Y4749860D01*
X8930405Y4752280D01*
X8913778Y4768906D01*
X8911359Y4770522D01*
X8909245Y4772521D01*
X8889336Y4785031D01*
X8886617Y4786068D01*
X8884111Y4787547D01*
X8861919Y4795312D01*
X8859037Y4795719D01*
X8856264Y4796603D01*
X8832900Y4799236D01*
X8831438Y4799112D01*
X8830000Y4799398D01*
D02*
G37*
G36*
X30172498Y4599401D02*
X28882501Y4599400D01*
X28881061Y4599114D01*
X28879602Y4599237D01*
X28867365Y4597859D01*
X28864590Y4596975D01*
X28861707Y4596568D01*
X28850082Y4592500D01*
X28847577Y4591021D01*
X28844858Y4589984D01*
X28834430Y4583431D01*
X28832315Y4581433D01*
X28829898Y4579816D01*
X28821188Y4571107D01*
X28819571Y4568688D01*
X28817572Y4566574D01*
X28811020Y4556146D01*
X28809979Y4553425D01*
X28808502Y4550916D01*
X28804434Y4539291D01*
X28804028Y4536412D01*
X28803146Y4533642D01*
X28801767Y4521404D01*
X28801889Y4519942D01*
X28801602Y4518503D01*
Y3228503D01*
X28801889Y3227064D01*
X28801767Y3225602D01*
X28803146Y3213363D01*
X28804028Y3210593D01*
X28804434Y3207714D01*
X28808502Y3196089D01*
X28809979Y3193582D01*
X28811017Y3190861D01*
X28817572Y3180432D01*
X28819571Y3178317D01*
X28821188Y3175898D01*
X28829898Y3167189D01*
X28832315Y3165573D01*
X28834430Y3163574D01*
X28844858Y3157022D01*
X28847577Y3155984D01*
X28850085Y3154505D01*
X28861710Y3150437D01*
X28864590Y3150031D01*
X28867361Y3149147D01*
X28879599Y3147768D01*
X28881061Y3147891D01*
X28882501Y3147605D01*
X30172498D01*
X30173938Y3147891D01*
X30175400Y3147768D01*
X30187637Y3149147D01*
X30190411Y3150031D01*
X30193292Y3150437D01*
X30204916Y3154505D01*
X30207422Y3155984D01*
X30210141Y3157022D01*
X30220569Y3163574D01*
X30222684Y3165573D01*
X30225104Y3167189D01*
X30233813Y3175898D01*
X30235428Y3178317D01*
X30237427Y3180432D01*
X30243982Y3190861D01*
X30245020Y3193579D01*
X30246497Y3196085D01*
X30250565Y3207710D01*
X30250974Y3210593D01*
X30251859Y3213367D01*
X30253235Y3225606D01*
X30253110Y3227066D01*
X30253397Y3228503D01*
Y4518503D01*
X30253110Y4519940D01*
X30253235Y4521400D01*
X30251859Y4533639D01*
X30250974Y4536413D01*
X30250565Y4539296D01*
X30246497Y4550921D01*
X30245020Y4553426D01*
X30243982Y4556145D01*
X30237427Y4566574D01*
X30235428Y4568689D01*
X30233813Y4571108D01*
X30225104Y4579817D01*
X30222684Y4581433D01*
X30220569Y4583432D01*
X30210141Y4589984D01*
X30207422Y4591022D01*
X30204916Y4592501D01*
X30193292Y4596568D01*
X30190411Y4596975D01*
X30187637Y4597859D01*
X30175400Y4599238D01*
X30173938Y4599115D01*
X30172498Y4599401D01*
D02*
G37*
G36*
X28267499Y4599400D02*
X26977502D01*
X26976062Y4599114D01*
X26974603Y4599237D01*
X26962363Y4597859D01*
X26959589Y4596975D01*
X26956708Y4596568D01*
X26945084Y4592500D01*
X26942575Y4591021D01*
X26939859Y4589984D01*
X26929431Y4583431D01*
X26927316Y4581433D01*
X26924896Y4579816D01*
X26916187Y4571107D01*
X26914572Y4568688D01*
X26912573Y4566574D01*
X26906018Y4556146D01*
X26904980Y4553425D01*
X26903500Y4550916D01*
X26899435Y4539291D01*
X26899026Y4536412D01*
X26898145Y4533642D01*
X26896765Y4521404D01*
X26896890Y4519942D01*
X26896603Y4518503D01*
Y3228503D01*
X26896890Y3227063D01*
X26896765Y3225601D01*
X26898145Y3213363D01*
X26899026Y3210593D01*
X26899435Y3207713D01*
X26903500Y3196089D01*
X26904980Y3193582D01*
X26906018Y3190860D01*
X26912573Y3180432D01*
X26914572Y3178317D01*
X26916187Y3175898D01*
X26924896Y3167189D01*
X26927316Y3165573D01*
X26929431Y3163574D01*
X26939859Y3157021D01*
X26942578Y3155984D01*
X26945084Y3154505D01*
X26956708Y3150437D01*
X26959589Y3150031D01*
X26962363Y3149147D01*
X26974600Y3147768D01*
X26976062Y3147891D01*
X26977502Y3147605D01*
X28267499D01*
X28268939Y3147891D01*
X28270401Y3147768D01*
X28282639Y3149147D01*
X28285410Y3150031D01*
X28288290Y3150437D01*
X28299915Y3154505D01*
X28302423Y3155984D01*
X28305142Y3157021D01*
X28315570Y3163574D01*
X28317685Y3165573D01*
X28320102Y3167189D01*
X28328812Y3175898D01*
X28330429Y3178317D01*
X28332428Y3180432D01*
X28338983Y3190861D01*
X28340018Y3193579D01*
X28341498Y3196085D01*
X28345566Y3207710D01*
X28345972Y3210593D01*
X28346857Y3213367D01*
X28348236Y3225606D01*
X28348111Y3227066D01*
X28348398Y3228503D01*
Y4518503D01*
X28348111Y4519940D01*
X28348236Y4521400D01*
X28346857Y4533638D01*
X28345972Y4536412D01*
X28345566Y4539295D01*
X28341498Y4550920D01*
X28340018Y4553427D01*
X28338980Y4556146D01*
X28332428Y4566574D01*
X28330429Y4568688D01*
X28328812Y4571107D01*
X28320102Y4579816D01*
X28317685Y4581433D01*
X28315570Y4583431D01*
X28305142Y4589984D01*
X28302423Y4591021D01*
X28299918Y4592500D01*
X28288293Y4596568D01*
X28285410Y4596975D01*
X28282635Y4597859D01*
X28270398Y4599237D01*
X28268939Y4599114D01*
X28267499Y4599400D01*
D02*
G37*
G36*
X26362500D02*
X25072501D01*
X25071062Y4599114D01*
X25069600Y4599237D01*
X25057362Y4597858D01*
X25054588Y4596975D01*
X25051709Y4596568D01*
X25040083Y4592500D01*
X25037576Y4591022D01*
X25034859Y4589984D01*
X25024429Y4583431D01*
X25022316Y4581433D01*
X25019897Y4579816D01*
X25011188Y4571107D01*
X25009570Y4568688D01*
X25007571Y4566574D01*
X25001018Y4556145D01*
X24999979Y4553423D01*
X24998502Y4550916D01*
X24994435Y4539292D01*
X24994029Y4536413D01*
X24993146Y4533642D01*
X24991766Y4521404D01*
X24991888Y4519942D01*
X24991603Y4518503D01*
Y3228502D01*
X24991888Y3227063D01*
X24991766Y3225601D01*
X24993146Y3213362D01*
X24994028Y3210593D01*
X24994435Y3207713D01*
X24998502Y3196089D01*
X24999979Y3193581D01*
X25001018Y3190860D01*
X25007571Y3180431D01*
X25009570Y3178317D01*
X25011188Y3175897D01*
X25019897Y3167189D01*
X25022316Y3165572D01*
X25024429Y3163574D01*
X25034859Y3157021D01*
X25037576Y3155983D01*
X25040083Y3154504D01*
X25051709Y3150437D01*
X25054588Y3150030D01*
X25057362Y3149147D01*
X25069600Y3147767D01*
X25071062Y3147891D01*
X25072501Y3147605D01*
X26362500Y3147605D01*
X26363937Y3147891D01*
X26365399Y3147768D01*
X26377637Y3149147D01*
X26380411Y3150031D01*
X26383292Y3150437D01*
X26394916Y3154505D01*
X26397424Y3155984D01*
X26400143Y3157021D01*
X26410571Y3163574D01*
X26412683Y3165573D01*
X26415103Y3167189D01*
X26423813Y3175898D01*
X26425430Y3178317D01*
X26427429Y3180432D01*
X26433981Y3190860D01*
X26435019Y3193579D01*
X26436499Y3196085D01*
X26440567Y3207710D01*
X26440973Y3210593D01*
X26441858Y3213367D01*
X26443234Y3225606D01*
X26443112Y3227065D01*
X26443396Y3228503D01*
Y4518503D01*
X26443112Y4519940D01*
X26443234Y4521400D01*
X26441858Y4533638D01*
X26440973Y4536413D01*
X26440567Y4539295D01*
X26436499Y4550920D01*
X26435019Y4553426D01*
X26433981Y4556145D01*
X26427429Y4566574D01*
X26425430Y4568688D01*
X26423813Y4571107D01*
X26415103Y4579816D01*
X26412683Y4581433D01*
X26410571Y4583431D01*
X26400143Y4589984D01*
X26397424Y4591022D01*
X26394916Y4592500D01*
X26383292Y4596568D01*
X26380411Y4596975D01*
X26377637Y4597858D01*
X26365399Y4599237D01*
X26363937Y4599114D01*
X26362500Y4599400D01*
D02*
G37*
G36*
X23266875Y4599400D02*
X21738751D01*
X21737312Y4599114D01*
X21735852Y4599237D01*
X21723613Y4597858D01*
X21720840Y4596975D01*
X21717958Y4596568D01*
X21706332Y4592500D01*
X21703825Y4591021D01*
X21701108Y4589983D01*
X21690680Y4583431D01*
X21688567Y4581432D01*
X21686147Y4579816D01*
X21677437Y4571107D01*
X21675821Y4568688D01*
X21673822Y4566574D01*
X21667268Y4556145D01*
X21666229Y4553425D01*
X21664751Y4550916D01*
X21660686Y4539291D01*
X21660278Y4536412D01*
X21659396Y4533642D01*
X21658015Y4521403D01*
X21658139Y4519941D01*
X21657854Y4518502D01*
Y3228502D01*
X21658139Y3227063D01*
X21658015Y3225601D01*
X21659396Y3213362D01*
X21660278Y3210593D01*
X21660686Y3207713D01*
X21664751Y3196088D01*
X21666229Y3193581D01*
X21667268Y3190860D01*
X21673822Y3180431D01*
X21675821Y3178316D01*
X21677437Y3175897D01*
X21686147Y3167188D01*
X21688567Y3165572D01*
X21690680Y3163573D01*
X21701108Y3157021D01*
X21703827Y3155983D01*
X21706334Y3154504D01*
X21717960Y3150437D01*
X21720839Y3150030D01*
X21723611Y3149146D01*
X21735851Y3147767D01*
X21737312Y3147890D01*
X21738751Y3147604D01*
X23266875Y3147605D01*
X23268314Y3147891D01*
X23269775Y3147767D01*
X23282014Y3149147D01*
X23284787Y3150030D01*
X23287666Y3150437D01*
X23299292Y3154504D01*
X23301799Y3155983D01*
X23304518Y3157021D01*
X23314946Y3163574D01*
X23317059Y3165572D01*
X23319479Y3167189D01*
X23328189Y3175897D01*
X23329807Y3178319D01*
X23331805Y3180434D01*
X23338358Y3190863D01*
X23339394Y3193580D01*
X23340872Y3196085D01*
X23344940Y3207709D01*
X23345348Y3210590D01*
X23346230Y3213362D01*
X23347610Y3225601D01*
X23347487Y3227063D01*
X23347774Y3228502D01*
Y4518502D01*
X23347487Y4519941D01*
X23347610Y4521403D01*
X23346230Y4533642D01*
X23345348Y4536413D01*
X23344940Y4539295D01*
X23340872Y4550920D01*
X23339394Y4553425D01*
X23338358Y4556142D01*
X23331805Y4566570D01*
X23329807Y4568686D01*
X23328189Y4571107D01*
X23319479Y4579816D01*
X23317059Y4581432D01*
X23314946Y4583431D01*
X23304518Y4589983D01*
X23301801Y4591021D01*
X23299294Y4592500D01*
X23287668Y4596568D01*
X23284785Y4596975D01*
X23282013Y4597858D01*
X23269775Y4599237D01*
X23268314Y4599114D01*
X23266875Y4599400D01*
D02*
G37*
G36*
X14932500Y4599399D02*
X12451876D01*
X12450437Y4599113D01*
X12448975Y4599236D01*
X12436737Y4597857D01*
X12433964Y4596974D01*
X12431084Y4596567D01*
X12419459Y4592499D01*
X12416952Y4591021D01*
X12414233Y4589983D01*
X12403805Y4583430D01*
X12401691Y4581432D01*
X12399272Y4579815D01*
X12390562Y4571106D01*
X12388946Y4568687D01*
X12386946Y4566571D01*
X12380394Y4556142D01*
X12379356Y4553425D01*
X12377878Y4550919D01*
X12373810Y4539294D01*
X12373403Y4536413D01*
X12372519Y4533639D01*
X12371141Y4521401D01*
X12371264Y4519940D01*
X12370978Y4518502D01*
Y3226001D01*
X12371264Y3224562D01*
X12371141Y3223101D01*
X12372458Y3211418D01*
X12373341Y3208647D01*
X12373747Y3205767D01*
X12377630Y3194671D01*
X12379108Y3192164D01*
X12380146Y3189445D01*
X12386400Y3179490D01*
X12388399Y3177376D01*
X12390016Y3174956D01*
X12398329Y3166643D01*
X12400749Y3165026D01*
X12402864Y3163026D01*
X12412819Y3156772D01*
X12415536Y3155735D01*
X12418042Y3154256D01*
X12429139Y3150373D01*
X12432021Y3149966D01*
X12434794Y3149083D01*
X12446475Y3147766D01*
X12447937Y3147890D01*
X12449375Y3147604D01*
X14932500Y3147604D01*
X14933939Y3147890D01*
X14935400Y3147767D01*
X14947639Y3149146D01*
X14950412Y3150030D01*
X14953291Y3150436D01*
X14964917Y3154504D01*
X14967424Y3155983D01*
X14970143Y3157020D01*
X14980571Y3163573D01*
X14982686Y3165572D01*
X14985104Y3167189D01*
X14993814Y3175898D01*
X14995428Y3178316D01*
X14997427Y3180431D01*
X15003983Y3190859D01*
X15005020Y3193578D01*
X15006499Y3196084D01*
X15010567Y3207709D01*
X15010973Y3210590D01*
X15011858Y3213364D01*
X15013235Y3225602D01*
X15013112Y3227063D01*
X15013399Y3228502D01*
Y4518502D01*
X15013112Y4519940D01*
X15013235Y4521400D01*
X15011858Y4533639D01*
X15010973Y4536413D01*
X15010567Y4539294D01*
X15006499Y4550919D01*
X15005020Y4553425D01*
X15003983Y4556144D01*
X14997427Y4566573D01*
X14995430Y4568687D01*
X14993814Y4571105D01*
X14985104Y4579814D01*
X14982686Y4581431D01*
X14980571Y4583430D01*
X14970143Y4589983D01*
X14967424Y4591021D01*
X14964917Y4592499D01*
X14953291Y4596567D01*
X14950412Y4596974D01*
X14947639Y4597857D01*
X14935400Y4599236D01*
X14933939Y4599113D01*
X14932500Y4599399D01*
D02*
G37*
G36*
X6836250Y4599399D02*
X5308125Y4599398D01*
X5306687Y4599112D01*
X5305226Y4599235D01*
X5292987Y4597857D01*
X5290214Y4596973D01*
X5287332Y4596566D01*
X5275708Y4592498D01*
X5273202Y4591020D01*
X5270485Y4589982D01*
X5260055Y4583430D01*
X5257940Y4581430D01*
X5255520Y4579813D01*
X5246812Y4571104D01*
X5245196Y4568685D01*
X5243196Y4566570D01*
X5236644Y4556142D01*
X5235607Y4553424D01*
X5234128Y4550918D01*
X5230060Y4539293D01*
X5229653Y4536412D01*
X5228770Y4533640D01*
X5227390Y4521402D01*
X5227514Y4519940D01*
X5227227Y4518500D01*
Y3228501D01*
X5227514Y3227062D01*
X5227390Y3225600D01*
X5228770Y3213361D01*
X5229654Y3210589D01*
X5230061Y3207708D01*
X5234129Y3196083D01*
X5235607Y3193578D01*
X5236644Y3190860D01*
X5243196Y3180431D01*
X5245195Y3178317D01*
X5246812Y3175897D01*
X5255520Y3167188D01*
X5257940Y3165571D01*
X5260055Y3163572D01*
X5270485Y3157019D01*
X5273203Y3155981D01*
X5275709Y3154503D01*
X5287333Y3150436D01*
X5290213Y3150029D01*
X5292986Y3149145D01*
X5305225Y3147766D01*
X5306687Y3147889D01*
X5308125Y3147603D01*
X6836250D01*
X6837689Y3147889D01*
X6839151Y3147766D01*
X6851389Y3149145D01*
X6854161Y3150029D01*
X6857042Y3150435D01*
X6868667Y3154503D01*
X6871174Y3155982D01*
X6873892Y3157019D01*
X6884321Y3163572D01*
X6886436Y3165571D01*
X6888855Y3167188D01*
X6897564Y3175896D01*
X6899180Y3178316D01*
X6901179Y3180431D01*
X6907732Y3190859D01*
X6908770Y3193579D01*
X6910248Y3196084D01*
X6914316Y3207709D01*
X6914723Y3210590D01*
X6915606Y3213362D01*
X6916985Y3225601D01*
X6916862Y3227062D01*
X6917148Y3228501D01*
Y4518501D01*
X6916862Y4519939D01*
X6916985Y4521401D01*
X6915606Y4533640D01*
X6914723Y4536412D01*
X6914316Y4539293D01*
X6910248Y4550918D01*
X6908769Y4553425D01*
X6907732Y4556143D01*
X6901179Y4566571D01*
X6899180Y4568686D01*
X6897564Y4571105D01*
X6888855Y4579814D01*
X6886436Y4581431D01*
X6884321Y4583430D01*
X6873892Y4589983D01*
X6871173Y4591021D01*
X6868667Y4592499D01*
X6857043Y4596566D01*
X6854161Y4596973D01*
X6851389Y4597857D01*
X6839151Y4599236D01*
X6837689Y4599113D01*
X6836250Y4599399D01*
D02*
G37*
G36*
X4455000Y4599398D02*
X2926875D01*
X2925436Y4599112D01*
X2923975Y4599235D01*
X2911736Y4597856D01*
X2908963Y4596972D01*
X2906082Y4596566D01*
X2894458Y4592498D01*
X2891953Y4591020D01*
X2889234Y4589982D01*
X2878805Y4583430D01*
X2876690Y4581430D01*
X2874270Y4579813D01*
X2865562Y4571104D01*
X2863946Y4568685D01*
X2861946Y4566570D01*
X2855394Y4556141D01*
X2854357Y4553424D01*
X2852878Y4550918D01*
X2848810Y4539293D01*
X2848403Y4536413D01*
X2847520Y4533640D01*
X2846140Y4521402D01*
X2846263Y4519940D01*
X2845977Y4518500D01*
X2845977Y3228501D01*
X2846264Y3227061D01*
X2846140Y3225599D01*
X2847520Y3213361D01*
X2848404Y3210588D01*
X2848811Y3207708D01*
X2852879Y3196083D01*
X2854357Y3193577D01*
X2855394Y3190860D01*
X2861946Y3180431D01*
X2863945Y3178317D01*
X2865562Y3175897D01*
X2874270Y3167188D01*
X2876690Y3165571D01*
X2878805Y3163571D01*
X2889235Y3157019D01*
X2891953Y3155981D01*
X2894459Y3154503D01*
X2906083Y3150435D01*
X2908963Y3150029D01*
X2911736Y3149145D01*
X2923975Y3147766D01*
X2925437Y3147889D01*
X2926875Y3147603D01*
X4455000D01*
X4456438Y3147889D01*
X4457900Y3147766D01*
X4470139Y3149145D01*
X4472911Y3150028D01*
X4475792Y3150435D01*
X4487417Y3154503D01*
X4489924Y3155981D01*
X4492643Y3157019D01*
X4503071Y3163572D01*
X4505185Y3165571D01*
X4507604Y3167187D01*
X4516313Y3175896D01*
X4517930Y3178315D01*
X4519929Y3180430D01*
X4526482Y3190858D01*
X4527520Y3193578D01*
X4528999Y3196085D01*
X4533066Y3207709D01*
X4533473Y3210591D01*
X4534356Y3213363D01*
X4535735Y3225601D01*
X4535612Y3227062D01*
X4535898Y3228501D01*
Y4518500D01*
X4535612Y4519939D01*
X4535735Y4521399D01*
X4534356Y4533638D01*
X4533473Y4536411D01*
X4533066Y4539291D01*
X4528999Y4550916D01*
X4527521Y4553423D01*
X4526482Y4556144D01*
X4519928Y4566572D01*
X4517930Y4568686D01*
X4516313Y4571105D01*
X4507604Y4579814D01*
X4505185Y4581431D01*
X4503070Y4583429D01*
X4492643Y4589982D01*
X4489925Y4591019D01*
X4487418Y4592498D01*
X4475793Y4596566D01*
X4472911Y4596973D01*
X4470138Y4597857D01*
X4457899Y4599235D01*
X4456438Y4599112D01*
X4455000Y4599398D01*
D02*
G37*
G36*
X2073750D02*
X545625Y4599398D01*
X544187Y4599112D01*
X542726Y4599235D01*
X530487Y4597856D01*
X527714Y4596973D01*
X524832Y4596565D01*
X513207Y4592497D01*
X510702Y4591019D01*
X507984Y4589982D01*
X497555Y4583429D01*
X495440Y4581430D01*
X493020Y4579813D01*
X484312Y4571104D01*
X482695Y4568684D01*
X480696Y4566570D01*
X474144Y4556142D01*
X473107Y4553424D01*
X471628Y4550918D01*
X467560Y4539293D01*
X467153Y4536411D01*
X466270Y4533640D01*
X464890Y4521401D01*
X465013Y4519939D01*
X464727Y4518500D01*
X464727Y3228500D01*
X465014Y3227061D01*
X464890Y3225599D01*
X466270Y3213360D01*
X467154Y3210588D01*
X467561Y3207707D01*
X471629Y3196083D01*
X473107Y3193577D01*
X474144Y3190860D01*
X480696Y3180431D01*
X482695Y3178317D01*
X484312Y3175896D01*
X493020Y3167188D01*
X495440Y3165571D01*
X497555Y3163571D01*
X507985Y3157018D01*
X510703Y3155981D01*
X513209Y3154503D01*
X524833Y3150435D01*
X527713Y3150028D01*
X530486Y3149145D01*
X542725Y3147765D01*
X544187Y3147889D01*
X545625Y3147603D01*
X2073750D01*
X2075188Y3147889D01*
X2076650Y3147765D01*
X2088889Y3149145D01*
X2091661Y3150028D01*
X2094542Y3150435D01*
X2106167Y3154502D01*
X2108674Y3155981D01*
X2111393Y3157019D01*
X2121821Y3163572D01*
X2123935Y3165570D01*
X2126354Y3167187D01*
X2135063Y3175895D01*
X2136680Y3178315D01*
X2138679Y3180429D01*
X2145232Y3190858D01*
X2146270Y3193578D01*
X2147749Y3196085D01*
X2151816Y3207709D01*
X2152223Y3210591D01*
X2153106Y3213362D01*
X2154485Y3225601D01*
X2154362Y3227062D01*
X2154648Y3228500D01*
X2154647Y4518500D01*
X2154361Y4519939D01*
X2154485Y4521399D01*
X2153106Y4533638D01*
X2152223Y4536411D01*
X2151816Y4539292D01*
X2147749Y4550916D01*
X2146270Y4553423D01*
X2145232Y4556143D01*
X2138679Y4566572D01*
X2136679Y4568686D01*
X2135063Y4571105D01*
X2126354Y4579814D01*
X2123934Y4581431D01*
X2121820Y4583429D01*
X2111392Y4589982D01*
X2108673Y4591020D01*
X2106166Y4592498D01*
X2094541Y4596566D01*
X2091661Y4596973D01*
X2088889Y4597856D01*
X2076650Y4599235D01*
X2075188Y4599112D01*
X2073750Y4599398D01*
D02*
G37*
G36*
X29304599Y2946900D02*
X23252899Y2946900D01*
X23251460Y2946614D01*
X23249998Y2946737D01*
X23232756Y2944794D01*
X23229984Y2943910D01*
X23227103Y2943504D01*
X23210721Y2937772D01*
X23208214Y2936293D01*
X23205495Y2935255D01*
X23190800Y2926022D01*
X23188687Y2924023D01*
X23186269Y2922406D01*
X23173997Y2910135D01*
X23172380Y2907716D01*
X23170381Y2905602D01*
X23161148Y2890907D01*
X23160110Y2888189D01*
X23158632Y2885682D01*
X23152899Y2869301D01*
X23152492Y2866419D01*
X23151608Y2863646D01*
X23149666Y2846401D01*
X23149789Y2844940D01*
X23149503Y2843502D01*
Y2771002D01*
X23149789Y2769564D01*
X23149666Y2768103D01*
X23151608Y2750858D01*
X23152492Y2748086D01*
X23152899Y2745203D01*
X23158632Y2728822D01*
X23160110Y2726316D01*
X23161148Y2723598D01*
X23170381Y2708903D01*
X23172382Y2706789D01*
X23173997Y2704370D01*
X23186269Y2692099D01*
X23188686Y2690482D01*
X23190800Y2688483D01*
X23205495Y2679250D01*
X23208214Y2678212D01*
X23210721Y2676733D01*
X23227103Y2671001D01*
X23229984Y2670594D01*
X23232758Y2669710D01*
X23250000Y2667768D01*
X23251460Y2667891D01*
X23252899Y2667605D01*
X26678363Y2667605D01*
X26691101Y2666189D01*
X26701852Y2662479D01*
X26711523Y2656498D01*
X26719647Y2648537D01*
X26725821Y2638987D01*
X26729745Y2628315D01*
X26731232Y2617041D01*
X26729947Y2602911D01*
X26726730Y2569871D01*
X26726999Y2567179D01*
X26726767Y2564484D01*
X26730469Y2531392D01*
X26731287Y2528814D01*
X26731622Y2526128D01*
X26742090Y2494519D01*
X26743427Y2492165D01*
X26744308Y2489606D01*
X26761096Y2460848D01*
X26762888Y2458822D01*
X26764282Y2456502D01*
X26786655Y2431842D01*
X26788831Y2430231D01*
X26790674Y2428249D01*
X26817667Y2408754D01*
X26820129Y2407628D01*
X26822342Y2406070D01*
X26852786Y2392584D01*
X26855429Y2391992D01*
X26857916Y2390926D01*
X26890491Y2384035D01*
X26893195Y2384002D01*
X26895850Y2383474D01*
X26929150D01*
X26931802Y2384002D01*
X26934509Y2384035D01*
X26967087Y2390926D01*
X26969574Y2391992D01*
X26972214Y2392584D01*
X27002661Y2406070D01*
X27004874Y2407628D01*
X27007333Y2408754D01*
X27034326Y2428249D01*
X27036169Y2430231D01*
X27038345Y2431842D01*
X27060718Y2456502D01*
X27062112Y2458823D01*
X27063904Y2460848D01*
X27080692Y2489606D01*
X27081573Y2492163D01*
X27082910Y2494518D01*
X27093381Y2526127D01*
X27093713Y2528813D01*
X27094534Y2531392D01*
X27098233Y2564483D01*
X27098004Y2567179D01*
X27098273Y2569873D01*
X27095050Y2602939D01*
X27093768Y2617040D01*
X27095255Y2628315D01*
X27099179Y2638989D01*
X27105353Y2648537D01*
X27113477Y2656498D01*
X27123148Y2662479D01*
X27133899Y2666189D01*
X27146637Y2667605D01*
X29304599Y2667606D01*
X29306039Y2667892D01*
X29307498Y2667768D01*
X29324744Y2669711D01*
X29327518Y2670595D01*
X29330399Y2671002D01*
X29346780Y2676734D01*
X29349286Y2678212D01*
X29352005Y2679250D01*
X29366699Y2688483D01*
X29368814Y2690483D01*
X29371234Y2692099D01*
X29383505Y2704371D01*
X29385120Y2706789D01*
X29387119Y2708904D01*
X29396353Y2723598D01*
X29397391Y2726317D01*
X29398868Y2728823D01*
X29404602Y2745203D01*
X29405008Y2748085D01*
X29405893Y2750859D01*
X29407834Y2768104D01*
X29407712Y2769564D01*
X29407999Y2771003D01*
Y2843503D01*
X29407712Y2844941D01*
X29407834Y2846402D01*
X29405893Y2863647D01*
X29405008Y2866419D01*
X29404602Y2869302D01*
X29398871Y2885683D01*
X29397391Y2888190D01*
X29396353Y2890908D01*
X29387119Y2905602D01*
X29385120Y2907716D01*
X29383505Y2910136D01*
X29371234Y2922407D01*
X29368814Y2924023D01*
X29366699Y2926022D01*
X29352008Y2935255D01*
X29349286Y2936294D01*
X29346780Y2937772D01*
X29330399Y2943504D01*
X29327518Y2943911D01*
X29324744Y2944794D01*
X29307498Y2946738D01*
X29306039Y2946614D01*
X29304599Y2946900D01*
D02*
G37*
G36*
X18899599Y2946899D02*
X11580401Y2946899D01*
X11578962Y2946613D01*
X11577501Y2946736D01*
X11560255Y2944793D01*
X11557483Y2943910D01*
X11554602Y2943503D01*
X11538221Y2937771D01*
X11535714Y2936292D01*
X11532995Y2935254D01*
X11518301Y2926021D01*
X11516187Y2924022D01*
X11513767Y2922405D01*
X11501496Y2910134D01*
X11499879Y2907715D01*
X11497880Y2905600D01*
X11488647Y2890906D01*
X11487609Y2888188D01*
X11486130Y2885680D01*
X11480399Y2869299D01*
X11479992Y2866418D01*
X11479109Y2863647D01*
X11477165Y2846402D01*
X11477288Y2844940D01*
X11477002Y2843501D01*
Y2771001D01*
X11477288Y2769563D01*
X11477165Y2768101D01*
X11479109Y2750856D01*
X11479993Y2748083D01*
X11480399Y2745203D01*
X11486130Y2728823D01*
X11487609Y2726316D01*
X11488647Y2723597D01*
X11497880Y2708902D01*
X11499880Y2706788D01*
X11501496Y2704369D01*
X11513767Y2692097D01*
X11516186Y2690481D01*
X11518301Y2688481D01*
X11532996Y2679248D01*
X11535714Y2678211D01*
X11538220Y2676732D01*
X11554601Y2671000D01*
X11557484Y2670593D01*
X11560256Y2669709D01*
X11577502Y2667767D01*
X11578962Y2667890D01*
X11580401Y2667604D01*
X15005862Y2667604D01*
X15018600Y2666188D01*
X15029350Y2662478D01*
X15039024Y2656496D01*
X15047147Y2648536D01*
X15053320Y2638987D01*
X15057246Y2628314D01*
X15058731Y2617038D01*
X15057448Y2602916D01*
X15054230Y2569872D01*
X15054497Y2567177D01*
X15054266Y2564482D01*
X15057970Y2531390D01*
X15058788Y2528812D01*
X15059122Y2526126D01*
X15069591Y2494517D01*
X15070927Y2492164D01*
X15071809Y2489606D01*
X15088594Y2460848D01*
X15090388Y2458821D01*
X15091782Y2456500D01*
X15114157Y2431840D01*
X15116331Y2430229D01*
X15118175Y2428248D01*
X15145168Y2408753D01*
X15147629Y2407627D01*
X15149841Y2406069D01*
X15180286Y2392583D01*
X15182927Y2391991D01*
X15185416Y2390925D01*
X15217992Y2384034D01*
X15220699Y2384001D01*
X15223352Y2383473D01*
X15256648D01*
X15259303Y2384001D01*
X15262009Y2384034D01*
X15294586Y2390925D01*
X15297073Y2391991D01*
X15299715Y2392583D01*
X15330159Y2406069D01*
X15332372Y2407627D01*
X15334833Y2408753D01*
X15361827Y2428248D01*
X15363670Y2430230D01*
X15365845Y2431841D01*
X15388219Y2456501D01*
X15389612Y2458822D01*
X15391405Y2460847D01*
X15408191Y2489605D01*
X15409073Y2492163D01*
X15410410Y2494517D01*
X15420879Y2526126D01*
X15421213Y2528812D01*
X15422032Y2531391D01*
X15425734Y2564482D01*
X15425504Y2567177D01*
X15425772Y2569872D01*
X15422551Y2602938D01*
X15421269Y2617039D01*
X15422754Y2628313D01*
X15426682Y2638987D01*
X15432854Y2648537D01*
X15440977Y2656497D01*
X15450648Y2662477D01*
X15461400Y2666188D01*
X15474136Y2667604D01*
X18899599Y2667605D01*
X18901038Y2667891D01*
X18902498Y2667767D01*
X18919743Y2669710D01*
X18922517Y2670594D01*
X18925398Y2671000D01*
X18941782Y2676733D01*
X18944287Y2678211D01*
X18947006Y2679249D01*
X18961699Y2688482D01*
X18963814Y2690482D01*
X18966232Y2692098D01*
X18978503Y2704370D01*
X18980119Y2706788D01*
X18982120Y2708903D01*
X18991353Y2723597D01*
X18992390Y2726316D01*
X18993869Y2728822D01*
X18999602Y2745202D01*
X19000008Y2748084D01*
X19000893Y2750858D01*
X19002835Y2768103D01*
X19002711Y2769563D01*
X19002998Y2771002D01*
Y2843502D01*
X19002711Y2844940D01*
X19002835Y2846401D01*
X19000893Y2863646D01*
X19000008Y2866418D01*
X18999602Y2869301D01*
X18993869Y2885682D01*
X18992390Y2888189D01*
X18991353Y2890907D01*
X18982120Y2905601D01*
X18980121Y2907715D01*
X18978503Y2910135D01*
X18966232Y2922406D01*
X18963814Y2924022D01*
X18961700Y2926021D01*
X18947006Y2935254D01*
X18944286Y2936293D01*
X18941780Y2937771D01*
X18925398Y2943503D01*
X18922517Y2943910D01*
X18919745Y2944793D01*
X18902499Y2946737D01*
X18901038Y2946613D01*
X18899599Y2946899D01*
D02*
G37*
G36*
X7227101Y2946898D02*
X1175401Y2946898D01*
X1173963Y2946612D01*
X1172501Y2946735D01*
X1155255Y2944792D01*
X1152484Y2943909D01*
X1149602Y2943502D01*
X1133221Y2937770D01*
X1130714Y2936291D01*
X1127995Y2935253D01*
X1113301Y2926020D01*
X1111187Y2924021D01*
X1108767Y2922404D01*
X1096496Y2910133D01*
X1094880Y2907714D01*
X1092881Y2905599D01*
X1083647Y2890905D01*
X1082609Y2888187D01*
X1081130Y2885679D01*
X1075399Y2869298D01*
X1074993Y2866417D01*
X1074109Y2863646D01*
X1072165Y2846401D01*
X1072289Y2844939D01*
X1072003Y2843500D01*
Y2771000D01*
X1072289Y2769562D01*
X1072165Y2768100D01*
X1074109Y2750855D01*
X1074993Y2748082D01*
X1075399Y2745202D01*
X1081131Y2728822D01*
X1082609Y2726315D01*
X1083647Y2723596D01*
X1092881Y2708901D01*
X1094880Y2706787D01*
X1096496Y2704368D01*
X1108767Y2692096D01*
X1111186Y2690480D01*
X1113302Y2688480D01*
X1127996Y2679247D01*
X1130714Y2678210D01*
X1133220Y2676731D01*
X1149601Y2670999D01*
X1152484Y2670592D01*
X1155257Y2669708D01*
X1172502Y2667766D01*
X1173963Y2667889D01*
X1175401Y2667603D01*
X3333364Y2667603D01*
X3346101Y2666187D01*
X3356852Y2662477D01*
X3366524Y2656496D01*
X3374647Y2648535D01*
X3380821Y2638987D01*
X3384746Y2628312D01*
X3386231Y2617038D01*
X3384946Y2602894D01*
X3381728Y2569871D01*
X3381997Y2567176D01*
X3381767Y2564481D01*
X3385468Y2531389D01*
X3386288Y2528811D01*
X3386621Y2526125D01*
X3397091Y2494516D01*
X3398427Y2492163D01*
X3399309Y2489604D01*
X3416096Y2460846D01*
X3417889Y2458820D01*
X3419282Y2456500D01*
X3441656Y2431840D01*
X3443831Y2430228D01*
X3445674Y2428247D01*
X3472667Y2408752D01*
X3475129Y2407626D01*
X3477341Y2406068D01*
X3507786Y2392582D01*
X3510427Y2391990D01*
X3512914Y2390924D01*
X3545492Y2384033D01*
X3548197Y2384000D01*
X3550851Y2383472D01*
X3584150D01*
X3586804Y2384000D01*
X3589510Y2384033D01*
X3622086Y2390924D01*
X3624573Y2391990D01*
X3627214Y2392582D01*
X3657660Y2406068D01*
X3659873Y2407626D01*
X3662334Y2408752D01*
X3689328Y2428247D01*
X3691170Y2430229D01*
X3693345Y2431840D01*
X3715719Y2456500D01*
X3717112Y2458821D01*
X3718906Y2460846D01*
X3735692Y2489604D01*
X3736574Y2492162D01*
X3737910Y2494517D01*
X3748379Y2526126D01*
X3748713Y2528812D01*
X3749532Y2531390D01*
X3753233Y2564481D01*
X3753004Y2567176D01*
X3753272Y2569870D01*
X3750052Y2602925D01*
X3748770Y2617038D01*
X3750254Y2628313D01*
X3754180Y2638986D01*
X3760354Y2648535D01*
X3768478Y2656496D01*
X3778150Y2662477D01*
X3788900Y2666187D01*
X3801637Y2667603D01*
X7227101Y2667604D01*
X7228539Y2667890D01*
X7230000Y2667766D01*
X7247245Y2669709D01*
X7250017Y2670593D01*
X7252899Y2670999D01*
X7269281Y2676732D01*
X7271786Y2678210D01*
X7274505Y2679248D01*
X7289199Y2688481D01*
X7291315Y2690481D01*
X7293734Y2692097D01*
X7306005Y2704369D01*
X7307621Y2706787D01*
X7309620Y2708902D01*
X7318854Y2723596D01*
X7319891Y2726315D01*
X7321370Y2728822D01*
X7327102Y2745202D01*
X7327508Y2748083D01*
X7328392Y2750856D01*
X7330335Y2768101D01*
X7330212Y2769562D01*
X7330498Y2771001D01*
Y2843501D01*
X7330212Y2844939D01*
X7330335Y2846400D01*
X7328392Y2863646D01*
X7327509Y2866418D01*
X7327102Y2869299D01*
X7321370Y2885680D01*
X7319891Y2888187D01*
X7318854Y2890906D01*
X7309620Y2905600D01*
X7307621Y2907714D01*
X7306005Y2910134D01*
X7293733Y2922405D01*
X7291314Y2924021D01*
X7289200Y2926020D01*
X7274505Y2935254D01*
X7271787Y2936291D01*
X7269280Y2937770D01*
X7252899Y2943502D01*
X7250018Y2943909D01*
X7247245Y2944792D01*
X7230000Y2946736D01*
X7228539Y2946612D01*
X7227101Y2946898D01*
D02*
G37*
%LPD*%
%TF.MD5,5fdb07cd175fb92ff06e3f50ef84a8b3*%
M02*
