G04*
G04 #@! TF.GenerationSoftware,Altium Limited,Altium Designer,21.6.4 (81)*
G04*
G04 Layer_Color=16711935*
%FSLAX44Y44*%
%MOMM*%
G71*
G04*
G04 #@! TF.SameCoordinates,29664DF2-EE3A-4017-92EC-38E079B4CF23*
G04*
G04*
G04 #@! TF.FilePolarity,Positive*
G04*
G01*
G75*
%ADD10C,0.1000*%
D10*
X1817791Y1022106D02*
Y1151106D01*
X1817654Y1152330D02*
X1817791Y1151106D01*
X1817247Y1153493D02*
X1817654Y1152330D01*
X1816591Y1154536D02*
X1817247Y1153493D01*
X1815721Y1155406D02*
X1816591Y1154536D01*
X1814678Y1156062D02*
X1815721Y1155406D01*
X1813515Y1156468D02*
X1814678Y1156062D01*
X1812291Y1156606D02*
X1813515Y1156468D01*
X1683291Y1156606D02*
X1812291D01*
X1682068Y1156468D02*
X1683291Y1156606D01*
X1680905Y1156062D02*
X1682068Y1156468D01*
X1679862Y1155406D02*
X1680905Y1156062D01*
X1678991Y1154536D02*
X1679862Y1155406D01*
X1678336Y1153493D02*
X1678991Y1154536D01*
X1677929Y1152330D02*
X1678336Y1153493D01*
X1677791Y1151106D02*
X1677929Y1152330D01*
X1677791Y1022106D02*
Y1151106D01*
Y1022106D02*
X1677929Y1020882D01*
X1678336Y1019720D01*
X1678991Y1018677D01*
X1679862Y1017806D01*
X1680905Y1017151D01*
X1682068Y1016744D01*
X1683291Y1016606D01*
X1812291D01*
X1813515Y1016744D01*
X1814678Y1017151D01*
X1815721Y1017806D01*
X1816591Y1018677D01*
X1817247Y1019720D01*
X1817654Y1020882D01*
X1817791Y1022106D01*
X1396318Y965968D02*
X1397541Y966106D01*
X1395155Y965562D02*
X1396318Y965968D01*
X1394112Y964906D02*
X1395155Y965562D01*
X1393241Y964035D02*
X1394112Y964906D01*
X1392586Y962993D02*
X1393241Y964035D01*
X1392179Y961830D02*
X1392586Y962993D01*
X1392041Y960606D02*
X1392179Y961830D01*
X1392041Y831606D02*
Y960606D01*
Y831606D02*
X1392179Y830382D01*
X1392586Y829220D01*
X1393241Y828177D01*
X1394112Y827306D01*
X1395155Y826651D01*
X1396318Y826244D01*
X1397541Y826106D01*
X1526541D01*
X1527765Y826244D01*
X1528928Y826651D01*
X1529971Y827306D01*
X1530842Y828177D01*
X1531497Y829220D01*
X1531904Y830382D01*
X1532041Y831606D01*
Y960606D01*
X1531904Y961830D02*
X1532041Y960606D01*
X1531497Y962993D02*
X1531904Y961830D01*
X1530842Y964035D02*
X1531497Y962993D01*
X1529971Y964906D02*
X1530842Y964035D01*
X1528928Y965562D02*
X1529971Y964906D01*
X1527765Y965968D02*
X1528928Y965562D01*
X1526541Y966106D02*
X1527765Y965968D01*
X1397541Y966106D02*
X1526541D01*
X844354Y450606D02*
X844492Y449382D01*
X844899Y448220D01*
X845554Y447177D01*
X846425Y446306D01*
X847468Y445651D01*
X848630Y445244D01*
X849854Y445106D01*
X978854D01*
X980078Y445244D01*
X981240Y445651D01*
X982283Y446306D01*
X983154Y447177D01*
X983809Y448220D01*
X984216Y449382D01*
X984354Y450606D01*
X984354Y579606D02*
X984354Y450606D01*
X984216Y580830D02*
X984354Y579606D01*
X983809Y581993D02*
X984216Y580830D01*
X983154Y583036D02*
X983809Y581993D01*
X982283Y583906D02*
X983154Y583036D01*
X981240Y584562D02*
X982283Y583906D01*
X980078Y584968D02*
X981240Y584562D01*
X978854Y585106D02*
X980078Y584968D01*
X849854Y585106D02*
X978854D01*
X848630Y584968D02*
X849854Y585106D01*
X847468Y584562D02*
X848630Y584968D01*
X846425Y583906D02*
X847468Y584562D01*
X845554Y583036D02*
X846425Y583906D01*
X844899Y581993D02*
X845554Y583036D01*
X844492Y580830D02*
X844899Y581993D01*
X844354Y579606D02*
X844492Y580830D01*
X844354Y579606D02*
X844354Y450606D01*
X1145541Y254606D02*
X1146765Y254744D01*
X1147928Y255151D01*
X1148971Y255806D01*
X1149842Y256677D01*
X1150497Y257720D01*
X1150904Y258882D01*
X1151041Y260106D01*
X1151041Y389106D02*
X1151041Y260106D01*
X1150903Y390330D02*
X1151041Y389106D01*
X1150497Y391493D02*
X1150903Y390330D01*
X1149842Y392536D02*
X1150497Y391493D01*
X1148971Y393406D02*
X1149842Y392536D01*
X1147928Y394062D02*
X1148971Y393406D01*
X1146765Y394468D02*
X1147928Y394062D01*
X1145541Y394606D02*
X1146765Y394468D01*
X992729Y394606D02*
X1145541D01*
X991505Y394468D02*
X992729Y394606D01*
X990343Y394062D02*
X991505Y394468D01*
X989300Y393406D02*
X990343Y394062D01*
X988429Y392536D02*
X989300Y393406D01*
X987774Y391493D02*
X988429Y392536D01*
X987367Y390330D02*
X987774Y391493D01*
X987229Y389106D02*
X987367Y390330D01*
X987229Y389106D02*
X987229Y260106D01*
X987367Y258882D01*
X987774Y257720D01*
X988429Y256677D01*
X989300Y255806D01*
X990343Y255151D01*
X991505Y254744D01*
X992729Y254606D01*
X1145541D01*
X1293779Y580830D02*
X1293916Y579606D01*
X1293372Y581993D02*
X1293779Y580830D01*
X1292717Y583036D02*
X1293372Y581993D01*
X1291846Y583906D02*
X1292717Y583036D01*
X1290803Y584562D02*
X1291846Y583906D01*
X1289640Y584968D02*
X1290803Y584562D01*
X1288416Y585106D02*
X1289640Y584968D01*
X1159417Y585106D02*
X1288416D01*
X1158193Y584968D02*
X1159417Y585106D01*
X1157030Y584562D02*
X1158193Y584968D01*
X1155987Y583906D02*
X1157030Y584562D01*
X1155116Y583036D02*
X1155987Y583906D01*
X1154461Y581993D02*
X1155116Y583036D01*
X1154054Y580830D02*
X1154461Y581993D01*
X1153916Y579606D02*
X1154054Y580830D01*
X1153916Y579606D02*
X1153916Y450606D01*
X1154054Y449382D01*
X1154461Y448220D01*
X1155116Y447177D01*
X1155987Y446306D01*
X1157030Y445651D01*
X1158193Y445244D01*
X1159417Y445106D01*
X1288416D01*
X1289640Y445244D01*
X1290803Y445651D01*
X1291846Y446306D01*
X1292717Y447177D01*
X1293372Y448220D01*
X1293779Y449382D01*
X1293916Y450606D01*
X1293916Y579606D02*
X1293916Y450606D01*
X1246153Y1152330D02*
X1246291Y1151106D01*
X1245747Y1153493D02*
X1246153Y1152330D01*
X1245091Y1154536D02*
X1245747Y1153493D01*
X1244221Y1155406D02*
X1245091Y1154536D01*
X1243178Y1156062D02*
X1244221Y1155406D01*
X1242015Y1156468D02*
X1243178Y1156062D01*
X1240791Y1156606D02*
X1242015Y1156468D01*
X1111791Y1156606D02*
X1240791D01*
X1110568Y1156468D02*
X1111791Y1156606D01*
X1109405Y1156062D02*
X1110568Y1156468D01*
X1108362Y1155406D02*
X1109405Y1156062D01*
X1107491Y1154536D02*
X1108362Y1155406D01*
X1106836Y1153493D02*
X1107491Y1154536D01*
X1106429Y1152330D02*
X1106836Y1153493D01*
X1106291Y1151106D02*
X1106429Y1152330D01*
X1106291Y1151106D02*
X1106291Y1022106D01*
X1106429Y1020882D01*
X1106836Y1019720D01*
X1107491Y1018677D01*
X1108362Y1017806D01*
X1109405Y1017151D01*
X1110568Y1016744D01*
X1111792Y1016606D01*
X1240791D01*
X1242015Y1016744D01*
X1243178Y1017151D01*
X1244221Y1017806D01*
X1245091Y1018677D01*
X1245747Y1019720D01*
X1246153Y1020882D01*
X1246291Y1022106D01*
X1246291Y1151106D02*
X1246291Y1022106D01*
X1341404Y961830D02*
X1341541Y960606D01*
X1340997Y962993D02*
X1341404Y961830D01*
X1340341Y964035D02*
X1340997Y962993D01*
X1339471Y964906D02*
X1340341Y964035D01*
X1338428Y965562D02*
X1339471Y964906D01*
X1337265Y965968D02*
X1338428Y965562D01*
X1336041Y966106D02*
X1337265Y965968D01*
X1207041Y966106D02*
X1336041D01*
X1205818Y965968D02*
X1207041Y966106D01*
X1204655Y965562D02*
X1205818Y965968D01*
X1203612Y964906D02*
X1204655Y965562D01*
X1202741Y964035D02*
X1203612Y964906D01*
X1202086Y962993D02*
X1202741Y964035D01*
X1201679Y961830D02*
X1202086Y962993D01*
X1201541Y960606D02*
X1201679Y961830D01*
X1201541Y960606D02*
X1201542Y831606D01*
X1201679Y830382D01*
X1202086Y829220D01*
X1202741Y828177D01*
X1203612Y827306D01*
X1204655Y826651D01*
X1205818Y826244D01*
X1207041Y826106D01*
X1336041D01*
X1337265Y826244D01*
X1338428Y826651D01*
X1339471Y827306D01*
X1340341Y828177D01*
X1340997Y829220D01*
X1341404Y830382D01*
X1341541Y831606D01*
X1341541Y960606D02*
X1341541Y831606D01*
X1301068Y1156468D02*
X1302291Y1156606D01*
X1299905Y1156062D02*
X1301068Y1156468D01*
X1298862Y1155406D02*
X1299905Y1156062D01*
X1297991Y1154536D02*
X1298862Y1155406D01*
X1297336Y1153493D02*
X1297991Y1154536D01*
X1296929Y1152330D02*
X1297336Y1153493D01*
X1296791Y1151106D02*
X1296929Y1152330D01*
X1296791Y1151106D02*
X1296791Y1022106D01*
X1296929Y1020882D01*
X1297336Y1019720D01*
X1297991Y1018677D01*
X1298862Y1017806D01*
X1299905Y1017151D01*
X1301068Y1016744D01*
X1302292Y1016606D01*
X1431291D01*
X1432515Y1016744D01*
X1433678Y1017151D01*
X1434721Y1017806D01*
X1435591Y1018677D01*
X1436247Y1019720D01*
X1436653Y1020882D01*
X1436791Y1022106D01*
Y1151106D01*
X1436653Y1152330D02*
X1436791Y1151106D01*
X1436247Y1153493D02*
X1436653Y1152330D01*
X1435591Y1154536D02*
X1436247Y1153493D01*
X1434721Y1155406D02*
X1435591Y1154536D01*
X1433678Y1156062D02*
X1434721Y1155406D01*
X1432515Y1156468D02*
X1433678Y1156062D01*
X1431291Y1156606D02*
X1432515Y1156468D01*
X1302291Y1156606D02*
X1431291D01*
X1443943Y775468D02*
X1445166Y775606D01*
X1442780Y775062D02*
X1443943Y775468D01*
X1441737Y774406D02*
X1442780Y775062D01*
X1440866Y773536D02*
X1441737Y774406D01*
X1440211Y772493D02*
X1440866Y773536D01*
X1439804Y771330D02*
X1440211Y772493D01*
X1439666Y770106D02*
X1439804Y771330D01*
X1439666Y641106D02*
Y770106D01*
Y641106D02*
X1439804Y639882D01*
X1440211Y638720D01*
X1440866Y637677D01*
X1441737Y636806D01*
X1442780Y636151D01*
X1443943Y635744D01*
X1445166Y635606D01*
X1574166D01*
X1575390Y635744D01*
X1576553Y636151D01*
X1577596Y636806D01*
X1578466Y637677D01*
X1579122Y638720D01*
X1579529Y639882D01*
X1579666Y641106D01*
Y770106D01*
X1579529Y771330D02*
X1579666Y770106D01*
X1579122Y772493D02*
X1579529Y771330D01*
X1578466Y773536D02*
X1579122Y772493D01*
X1577596Y774406D02*
X1578466Y773536D01*
X1576553Y775062D02*
X1577596Y774406D01*
X1575390Y775468D02*
X1576553Y775062D01*
X1574166Y775606D02*
X1575390Y775468D01*
X1445166Y775606D02*
X1574166D01*
X2239563Y199013D02*
X2239718Y197306D01*
X2239563Y199013D02*
X2239787Y200711D01*
X2240378Y202319D01*
X2241308Y203758D01*
X2242532Y204957D01*
X2243989Y205858D01*
X2245609Y206417D01*
X2247312Y206606D01*
X2590002Y206606D01*
X2591726Y206801D01*
X2593364Y207374D01*
X2594833Y208297D01*
X2596061Y209524D01*
X2596984Y210994D01*
X2597557Y212632D01*
X2597751Y214356D01*
Y221606D01*
X2597557Y223331D02*
X2597751Y221606D01*
X2596984Y224969D02*
X2597557Y223331D01*
X2596061Y226438D02*
X2596984Y224969D01*
X2594833Y227666D02*
X2596061Y226438D01*
X2593364Y228589D02*
X2594833Y227666D01*
X2591726Y229162D02*
X2593364Y228589D01*
X2590002Y229356D02*
X2591726Y229162D01*
X1858082Y229356D02*
X2590002Y229356D01*
X1856357Y229162D02*
X1858082Y229356D01*
X1854719Y228589D02*
X1856357Y229162D01*
X1853249Y227666D02*
X1854719Y228589D01*
X1852022Y226438D02*
X1853249Y227666D01*
X1851099Y224969D02*
X1852022Y226438D01*
X1850526Y223331D02*
X1851099Y224969D01*
X1850331Y221606D02*
X1850526Y223331D01*
X1850331Y214356D02*
Y221606D01*
Y214356D02*
X1850526Y212632D01*
X1851099Y210994D01*
X1852022Y209524D01*
X1853249Y208297D01*
X1854719Y207374D01*
X1856357Y206801D01*
X1858082Y206606D01*
X2200771Y206606D01*
X2202474Y206417D01*
X2204094Y205858D01*
X2205551Y204957D01*
X2206774Y203758D01*
X2207705Y202319D01*
X2208296Y200711D01*
X2208520Y199013D01*
X2208365Y197306D02*
X2208520Y199013D01*
X2208042Y193992D02*
X2208365Y197306D01*
X2208042Y193992D02*
X2208412Y190683D01*
X2209459Y187522D01*
X2211138Y184646D01*
X2213375Y182181D01*
X2216075Y180231D01*
X2219119Y178882D01*
X2222377Y178193D01*
X2225706D01*
X2228964Y178882D01*
X2232009Y180231D01*
X2234708Y182181D01*
X2236945Y184646D01*
X2238624Y187522D01*
X2239671Y190683D01*
X2240041Y193992D01*
X2239718Y197306D02*
X2240041Y193992D01*
X3406813Y199013D02*
X3406968Y197306D01*
X3406813Y199013D02*
X3407037Y200711D01*
X3407628Y202319D01*
X3408558Y203758D01*
X3409782Y204957D01*
X3411239Y205858D01*
X3412859Y206417D01*
X3414561Y206607D01*
X3630501Y206607D01*
X3632226Y206801D01*
X3633864Y207374D01*
X3635334Y208297D01*
X3636561Y209524D01*
X3637484Y210994D01*
X3638057Y212632D01*
X3638251Y214356D01*
Y221607D01*
X3638057Y223331D02*
X3638251Y221607D01*
X3637484Y224969D02*
X3638057Y223331D01*
X3636561Y226439D02*
X3637484Y224969D01*
X3635334Y227666D02*
X3636561Y226439D01*
X3633864Y228589D02*
X3635334Y227666D01*
X3632226Y229162D02*
X3633864Y228589D01*
X3630501Y229356D02*
X3632226Y229162D01*
X3025331Y229356D02*
X3630501Y229356D01*
X3023607Y229162D02*
X3025331Y229356D01*
X3021969Y228589D02*
X3023607Y229162D01*
X3020500Y227666D02*
X3021969Y228589D01*
X3019272Y226439D02*
X3020500Y227666D01*
X3018349Y224969D02*
X3019272Y226439D01*
X3017776Y223331D02*
X3018349Y224969D01*
X3017581Y221606D02*
X3017776Y223331D01*
X3017581Y214356D02*
Y221606D01*
Y214356D02*
X3017776Y212632D01*
X3018349Y210994D01*
X3019272Y209524D01*
X3020500Y208297D01*
X3021969Y207374D01*
X3023607Y206801D01*
X3025331Y206607D01*
X3368021Y206607D01*
X3369724Y206417D01*
X3371344Y205858D01*
X3372801Y204957D01*
X3374024Y203758D01*
X3374955Y202319D01*
X3375546Y200711D01*
X3375770Y199013D01*
X3375615Y197306D02*
X3375770Y199013D01*
X3375292Y193992D02*
X3375615Y197306D01*
X3375292Y193992D02*
X3375662Y190683D01*
X3376709Y187522D01*
X3378387Y184647D01*
X3380625Y182181D01*
X3383324Y180231D01*
X3386369Y178883D01*
X3389626Y178193D01*
X3392956D01*
X3396214Y178883D01*
X3399259Y180231D01*
X3401958Y182181D01*
X3404195Y184647D01*
X3405874Y187522D01*
X3406921Y190683D01*
X3407291Y193992D01*
X3406968Y197306D02*
X3407291Y193992D01*
X2208365Y1213906D02*
X2208520Y1212200D01*
X2208296Y1210501D02*
X2208520Y1212200D01*
X2207705Y1208894D02*
X2208296Y1210501D01*
X2206774Y1207455D02*
X2207705Y1208894D01*
X2205551Y1206256D02*
X2206774Y1207455D01*
X2204094Y1205355D02*
X2205551Y1206256D01*
X2202474Y1204796D02*
X2204094Y1205355D01*
X2200771Y1204606D02*
X2202474Y1204796D01*
X1858081Y1204606D02*
X2200771D01*
X1856357Y1204412D02*
X1858081Y1204606D01*
X1854719Y1203839D02*
X1856357Y1204412D01*
X1853249Y1202916D02*
X1854719Y1203839D01*
X1852022Y1201688D02*
X1853249Y1202916D01*
X1851099Y1200219D02*
X1852022Y1201688D01*
X1850526Y1198581D02*
X1851099Y1200219D01*
X1850331Y1196856D02*
X1850526Y1198581D01*
X1850331Y1189606D02*
Y1196856D01*
Y1189606D02*
X1850526Y1187882D01*
X1851099Y1186244D01*
X1852022Y1184774D01*
X1853249Y1183547D01*
X1854719Y1182624D01*
X1856357Y1182051D01*
X1858081Y1181856D01*
X2590002Y1181856D01*
X2591726Y1182051D01*
X2593364Y1182624D01*
X2594833Y1183547D01*
X2596060Y1184774D01*
X2596984Y1186244D01*
X2597557Y1187882D01*
X2597751Y1189606D01*
Y1196856D01*
X2597557Y1198581D02*
X2597751Y1196856D01*
X2596984Y1200219D02*
X2597557Y1198581D01*
X2596060Y1201688D02*
X2596984Y1200219D01*
X2594833Y1202916D02*
X2596060Y1201688D01*
X2593364Y1203839D02*
X2594833Y1202916D01*
X2591726Y1204412D02*
X2593364Y1203839D01*
X2590002Y1204606D02*
X2591726Y1204412D01*
X2247312Y1204606D02*
X2590002D01*
X2245609Y1204796D02*
X2247312Y1204606D01*
X2243989Y1205355D02*
X2245609Y1204796D01*
X2242532Y1206256D02*
X2243989Y1205355D01*
X2241308Y1207455D02*
X2242532Y1206256D01*
X2240378Y1208894D02*
X2241308Y1207455D01*
X2239787Y1210501D02*
X2240378Y1208894D01*
X2239563Y1212200D02*
X2239787Y1210501D01*
X2239563Y1212200D02*
X2239718Y1213906D01*
X2240041Y1217221D01*
X2239671Y1220530D02*
X2240041Y1217221D01*
X2238624Y1223690D02*
X2239671Y1220530D01*
X2236945Y1226566D02*
X2238624Y1223690D01*
X2234708Y1229032D02*
X2236945Y1226566D01*
X2232008Y1230982D02*
X2234708Y1229032D01*
X2228964Y1232330D02*
X2232008Y1230982D01*
X2225706Y1233019D02*
X2228964Y1232330D01*
X2222377Y1233019D02*
X2225706Y1233019D01*
X2219119Y1232330D02*
X2222377Y1233019D01*
X2216074Y1230982D02*
X2219119Y1232330D01*
X2213375Y1229032D02*
X2216074Y1230982D01*
X2211138Y1226566D02*
X2213375Y1229032D01*
X2209459Y1223690D02*
X2211138Y1226566D01*
X2208412Y1220529D02*
X2209459Y1223690D01*
X2208042Y1217220D02*
X2208412Y1220529D01*
X2208042Y1217220D02*
X2208365Y1213906D01*
X3002916Y445106D02*
X3004140Y445244D01*
X3005303Y445651D01*
X3006346Y446306D01*
X3007216Y447177D01*
X3007872Y448220D01*
X3008279Y449383D01*
X3008416Y450606D01*
Y579606D01*
X3008279Y580830D02*
X3008416Y579606D01*
X3007872Y581993D02*
X3008279Y580830D01*
X3007216Y583036D02*
X3007872Y581993D01*
X3006346Y583907D02*
X3007216Y583036D01*
X3005303Y584562D02*
X3006346Y583907D01*
X3004140Y584969D02*
X3005303Y584562D01*
X3002916Y585106D02*
X3004140Y584969D01*
X2873917Y585106D02*
X3002916D01*
X2872693Y584969D02*
X2873917Y585106D01*
X2871530Y584562D02*
X2872693Y584969D01*
X2870487Y583907D02*
X2871530Y584562D01*
X2869616Y583036D02*
X2870487Y583907D01*
X2868961Y581993D02*
X2869616Y583036D01*
X2868554Y580830D02*
X2868961Y581993D01*
X2868416Y579606D02*
X2868554Y580830D01*
X2868416Y450606D02*
Y579606D01*
Y450606D02*
X2868554Y449383D01*
X2868961Y448220D01*
X2869616Y447177D01*
X2870487Y446306D01*
X2871530Y445651D01*
X2872693Y445244D01*
X2873917Y445106D01*
X3002916D01*
X3050541Y826106D02*
X3051765Y826244D01*
X3052928Y826651D01*
X3053971Y827306D01*
X3054842Y828177D01*
X3055497Y829220D01*
X3055903Y830383D01*
X3056041Y831607D01*
Y960607D01*
X3055903Y961830D02*
X3056041Y960607D01*
X3055497Y962993D02*
X3055903Y961830D01*
X3054842Y964036D02*
X3055497Y962993D01*
X3053971Y964906D02*
X3054842Y964036D01*
X3052928Y965562D02*
X3053971Y964906D01*
X3051765Y965968D02*
X3052928Y965562D01*
X3050541Y966106D02*
X3051765Y965968D01*
X2921541Y966106D02*
X3050541D01*
X2920318Y965968D02*
X2921541Y966106D01*
X2919155Y965562D02*
X2920318Y965968D01*
X2918112Y964906D02*
X2919155Y965562D01*
X2917242Y964036D02*
X2918112Y964906D01*
X2916586Y962993D02*
X2917242Y964036D01*
X2916179Y961830D02*
X2916586Y962993D01*
X2916042Y960607D02*
X2916179Y961830D01*
X2916042Y831607D02*
Y960607D01*
Y831607D02*
X2916179Y830383D01*
X2916586Y829220D01*
X2917242Y828177D01*
X2918112Y827306D01*
X2919155Y826651D01*
X2920318Y826244D01*
X2921541Y826106D01*
X3050541D01*
X3015568Y1156469D02*
X3016791Y1156607D01*
X3014405Y1156062D02*
X3015568Y1156469D01*
X3013362Y1155406D02*
X3014405Y1156062D01*
X3012491Y1154536D02*
X3013362Y1155406D01*
X3011836Y1153493D02*
X3012491Y1154536D01*
X3011429Y1152330D02*
X3011836Y1153493D01*
X3011292Y1151106D02*
X3011429Y1152330D01*
X3011292Y1022106D02*
Y1151106D01*
Y1022106D02*
X3011429Y1020883D01*
X3011836Y1019720D01*
X3012491Y1018677D01*
X3013362Y1017806D01*
X3014405Y1017151D01*
X3015568Y1016744D01*
X3016791Y1016607D01*
X3145791D01*
X3147015Y1016744D01*
X3148178Y1017151D01*
X3149221Y1017806D01*
X3150092Y1018677D01*
X3150747Y1019720D01*
X3151153Y1020883D01*
X3151292Y1022106D01*
Y1151106D01*
X3151153Y1152330D02*
X3151292Y1151106D01*
X3150747Y1153493D02*
X3151153Y1152330D01*
X3150092Y1154536D02*
X3150747Y1153493D01*
X3149221Y1155406D02*
X3150092Y1154536D01*
X3148178Y1156062D02*
X3149221Y1155406D01*
X3147015Y1156469D02*
X3148178Y1156062D01*
X3145791Y1156607D02*
X3147015Y1156469D01*
X3016791Y1156607D02*
X3145791D01*
X3436541Y615606D02*
X3488041D01*
X3490378Y615870D01*
X3492597Y616646D01*
X3494588Y617897D01*
X3496251Y619560D01*
X3497502Y621551D01*
X3498278Y623770D01*
X3498542Y626106D01*
X3498541Y755107D02*
X3498542Y626106D01*
X3498278Y757443D02*
X3498541Y755107D01*
X3497502Y759662D02*
X3498278Y757443D01*
X3496251Y761653D02*
X3497502Y759662D01*
X3494588Y763316D02*
X3496251Y761653D01*
X3492597Y764567D02*
X3494588Y763316D01*
X3490378Y765343D02*
X3492597Y764567D01*
X3488041Y765607D02*
X3490378Y765343D01*
X3436541Y765607D02*
X3488041D01*
X3434205Y765343D02*
X3436541Y765607D01*
X3431985Y764567D02*
X3434205Y765343D01*
X3429995Y763316D02*
X3431985Y764567D01*
X3428332Y761653D02*
X3429995Y763316D01*
X3427081Y759662D02*
X3428332Y761653D01*
X3426305Y757443D02*
X3427081Y759662D01*
X3426041Y755107D02*
X3426305Y757443D01*
X3426041Y755107D02*
X3426042Y626106D01*
X3426305Y623770D01*
X3427081Y621551D01*
X3428332Y619560D01*
X3429995Y617897D01*
X3431986Y616646D01*
X3434205Y615870D01*
X3436541Y615606D01*
X3198416Y765606D02*
X3249916D01*
X3196080Y765343D02*
X3198416Y765606D01*
X3193860Y764567D02*
X3196080Y765343D01*
X3191870Y763316D02*
X3193860Y764567D01*
X3190207Y761653D02*
X3191870Y763316D01*
X3188956Y759662D02*
X3190207Y761653D01*
X3188180Y757443D02*
X3188956Y759662D01*
X3187916Y755106D02*
X3188180Y757443D01*
X3187916Y755106D02*
X3187917Y626106D01*
X3188180Y623770D01*
X3188956Y621551D01*
X3190207Y619560D01*
X3191870Y617897D01*
X3193861Y616646D01*
X3196080Y615870D01*
X3198416Y615606D01*
X3249916D01*
X3252253Y615870D01*
X3254472Y616646D01*
X3256463Y617897D01*
X3258126Y619560D01*
X3259377Y621551D01*
X3260153Y623770D01*
X3260417Y626106D01*
X3260416Y755106D02*
X3260417Y626106D01*
X3260153Y757443D02*
X3260416Y755106D01*
X3259377Y759662D02*
X3260153Y757443D01*
X3258126Y761653D02*
X3259377Y759662D01*
X3256463Y763316D02*
X3258126Y761653D01*
X3254472Y764567D02*
X3256463Y763316D01*
X3252253Y765343D02*
X3254472Y764567D01*
X3249916Y765606D02*
X3252253Y765343D01*
X3484529Y961830D02*
X3484666Y960607D01*
X3484122Y962993D02*
X3484529Y961830D01*
X3483466Y964036D02*
X3484122Y962993D01*
X3482596Y964907D02*
X3483466Y964036D01*
X3481553Y965562D02*
X3482596Y964907D01*
X3480390Y965969D02*
X3481553Y965562D01*
X3479166Y966106D02*
X3480390Y965969D01*
X3350167Y966106D02*
X3479166D01*
X3348943Y965969D02*
X3350167Y966106D01*
X3347780Y965562D02*
X3348943Y965969D01*
X3346737Y964906D02*
X3347780Y965562D01*
X3345866Y964036D02*
X3346737Y964906D01*
X3345211Y962993D02*
X3345866Y964036D01*
X3344804Y961830D02*
X3345211Y962993D01*
X3344666Y960607D02*
X3344804Y961830D01*
X3344666Y831607D02*
Y960607D01*
Y831607D02*
X3344804Y830383D01*
X3345211Y829220D01*
X3345866Y828177D01*
X3346737Y827306D01*
X3347780Y826651D01*
X3348943Y826244D01*
X3350167Y826106D01*
X3479166D01*
X3480390Y826244D01*
X3481553Y826651D01*
X3482596Y827306D01*
X3483466Y828177D01*
X3484122Y829220D01*
X3484529Y830383D01*
X3484666Y831607D01*
Y960607D01*
X3341654Y390330D02*
X3341791Y389106D01*
X3341247Y391493D02*
X3341654Y390330D01*
X3340591Y392536D02*
X3341247Y391493D01*
X3339720Y393406D02*
X3340591Y392536D01*
X3338678Y394062D02*
X3339720Y393406D01*
X3337515Y394469D02*
X3338678Y394062D01*
X3336292Y394607D02*
X3337515Y394469D01*
X3207292Y394607D02*
X3336292D01*
X3206068Y394469D02*
X3207292Y394607D01*
X3204905Y394062D02*
X3206068Y394469D01*
X3203862Y393406D02*
X3204905Y394062D01*
X3202991Y392536D02*
X3203862Y393406D01*
X3202336Y391493D02*
X3202991Y392536D01*
X3201929Y390330D02*
X3202336Y391493D01*
X3201791Y389106D02*
X3201929Y390330D01*
X3201791Y260106D02*
Y389106D01*
Y260106D02*
X3201929Y258883D01*
X3202336Y257720D01*
X3202991Y256677D01*
X3203862Y255806D01*
X3204905Y255151D01*
X3206068Y254744D01*
X3207292Y254606D01*
X3336292Y254606D01*
X3337515Y254744D01*
X3338678Y255151D01*
X3339720Y255806D01*
X3340591Y256677D01*
X3341247Y257720D01*
X3341654Y258883D01*
X3341791Y260107D01*
Y389106D01*
X3532154Y390330D02*
X3532291Y389106D01*
X3531747Y391493D02*
X3532154Y390330D01*
X3531092Y392536D02*
X3531747Y391493D01*
X3530221Y393406D02*
X3531092Y392536D01*
X3529178Y394062D02*
X3530221Y393406D01*
X3528015Y394469D02*
X3529178Y394062D01*
X3526791Y394607D02*
X3528015Y394469D01*
X3397791Y394607D02*
X3526791D01*
X3396568Y394469D02*
X3397791Y394607D01*
X3395405Y394062D02*
X3396568Y394469D01*
X3394362Y393406D02*
X3395405Y394062D01*
X3393492Y392536D02*
X3394362Y393406D01*
X3392836Y391493D02*
X3393492Y392536D01*
X3392430Y390330D02*
X3392836Y391493D01*
X3392292Y389106D02*
X3392430Y390330D01*
X3392292Y260107D02*
Y389106D01*
Y260107D02*
X3392430Y258883D01*
X3392836Y257720D01*
X3393492Y256677D01*
X3394362Y255806D01*
X3395405Y255151D01*
X3396568Y254744D01*
X3397791Y254606D01*
X3526791D01*
X3528015Y254744D01*
X3529178Y255151D01*
X3530221Y255806D01*
X3531092Y256677D01*
X3531747Y257720D01*
X3532154Y258883D01*
X3532291Y260107D01*
Y389106D01*
X3587068Y584969D02*
X3588292Y585107D01*
X3585905Y584562D02*
X3587068Y584969D01*
X3584862Y583907D02*
X3585905Y584562D01*
X3583991Y583036D02*
X3584862Y583907D01*
X3583336Y581993D02*
X3583991Y583036D01*
X3582929Y580830D02*
X3583336Y581993D01*
X3582791Y579607D02*
X3582929Y580830D01*
X3582791Y450606D02*
Y579607D01*
Y450606D02*
X3582929Y449383D01*
X3583336Y448220D01*
X3583991Y447177D01*
X3584862Y446306D01*
X3585905Y445651D01*
X3587068Y445244D01*
X3588292Y445107D01*
X3717291Y445107D01*
X3718515Y445244D01*
X3719678Y445651D01*
X3720721Y446306D01*
X3721591Y447177D01*
X3722247Y448220D01*
X3722654Y449383D01*
X3722791Y450606D01*
Y579607D01*
X3722654Y580830D02*
X3722791Y579607D01*
X3722247Y581993D02*
X3722654Y580830D01*
X3721591Y583036D02*
X3722247Y581993D01*
X3720721Y583907D02*
X3721591Y583036D01*
X3719678Y584562D02*
X3720721Y583907D01*
X3718515Y584969D02*
X3719678Y584562D01*
X3717291Y585107D02*
X3718515Y584969D01*
X3588292Y585107D02*
X3717291Y585107D01*
X3587068Y965969D02*
X3588292Y966106D01*
X3585905Y965562D02*
X3587068Y965969D01*
X3584862Y964907D02*
X3585905Y965562D01*
X3583991Y964036D02*
X3584862Y964907D01*
X3583336Y962993D02*
X3583991Y964036D01*
X3582929Y961830D02*
X3583336Y962993D01*
X3582791Y960607D02*
X3582929Y961830D01*
X3582791Y831607D02*
Y960607D01*
Y831607D02*
X3582929Y830383D01*
X3583336Y829220D01*
X3583991Y828177D01*
X3584862Y827306D01*
X3585905Y826651D01*
X3587068Y826244D01*
X3588292Y826106D01*
X3717291D01*
X3718515Y826244D01*
X3719678Y826651D01*
X3720721Y827306D01*
X3721591Y828177D01*
X3722247Y829220D01*
X3722654Y830383D01*
X3722791Y831607D01*
Y960607D01*
X3722654Y961830D02*
X3722791Y960607D01*
X3722247Y962993D02*
X3722654Y961830D01*
X3721591Y964036D02*
X3722247Y962993D01*
X3720721Y964907D02*
X3721591Y964036D01*
X3719678Y965562D02*
X3720721Y964907D01*
X3718515Y965969D02*
X3719678Y965562D01*
X3717291Y966106D02*
X3718515Y965969D01*
X3588292Y966106D02*
X3717291D01*
X821041Y425106D02*
X823378Y425369D01*
X825597Y426146D01*
X827588Y427397D01*
X829251Y429060D01*
X830502Y431050D01*
X831278Y433270D01*
X831541Y435606D01*
X831541Y564606D02*
X831541Y435606D01*
X831278Y566943D02*
X831541Y564606D01*
X830502Y569162D02*
X831278Y566943D01*
X829251Y571153D02*
X830502Y569162D01*
X827588Y572816D02*
X829251Y571153D01*
X825597Y574066D02*
X827588Y572816D01*
X823378Y574843D02*
X825597Y574066D01*
X821041Y575106D02*
X823378Y574843D01*
X769541Y575106D02*
X821041D01*
X767205Y574843D02*
X769541Y575106D01*
X764986Y574066D02*
X767205Y574843D01*
X762995Y572816D02*
X764986Y574066D01*
X761332Y571153D02*
X762995Y572816D01*
X760081Y569162D02*
X761332Y571153D01*
X759305Y566943D02*
X760081Y569162D01*
X759042Y564606D02*
X759305Y566943D01*
X759042Y564606D02*
X759042Y435606D01*
X759305Y433270D01*
X760081Y431050D01*
X761332Y429060D01*
X762995Y427397D01*
X764986Y426146D01*
X767205Y425369D01*
X769541Y425106D01*
X821041D01*
X778417Y826106D02*
X907416D01*
X908640Y826244D01*
X909803Y826651D01*
X910846Y827306D01*
X911717Y828177D01*
X912372Y829220D01*
X912778Y830382D01*
X912916Y831606D01*
X912916Y960606D02*
X912916Y831606D01*
X912778Y961830D02*
X912916Y960606D01*
X912372Y962993D02*
X912778Y961830D01*
X911717Y964035D02*
X912372Y962993D01*
X910845Y964906D02*
X911717Y964035D01*
X909803Y965562D02*
X910845Y964906D01*
X908640Y965968D02*
X909803Y965562D01*
X907416Y966106D02*
X908640Y965968D01*
X778417Y966106D02*
X907416D01*
X777193Y965968D02*
X778417Y966106D01*
X776030Y965562D02*
X777193Y965968D01*
X774987Y964906D02*
X776030Y965562D01*
X774116Y964035D02*
X774987Y964906D01*
X773461Y962993D02*
X774116Y964035D01*
X773054Y961830D02*
X773461Y962993D01*
X772916Y960606D02*
X773054Y961830D01*
X772916Y960606D02*
X772916Y831606D01*
X773054Y830382D01*
X773461Y829220D01*
X774116Y828177D01*
X774987Y827306D01*
X776030Y826651D01*
X777193Y826244D01*
X778417Y826106D01*
X1859917Y445106D02*
X1861140Y445244D01*
X1862303Y445651D01*
X1863346Y446306D01*
X1864216Y447177D01*
X1864872Y448220D01*
X1865278Y449382D01*
X1865417Y450606D01*
Y579606D01*
X1865278Y580830D02*
X1865417Y579606D01*
X1864872Y581993D02*
X1865278Y580830D01*
X1864216Y583036D02*
X1864872Y581993D01*
X1863346Y583906D02*
X1864216Y583036D01*
X1862303Y584562D02*
X1863346Y583906D01*
X1861140Y584968D02*
X1862303Y584562D01*
X1859917Y585106D02*
X1861140Y584968D01*
X1730916Y585106D02*
X1859917D01*
X1729693Y584968D02*
X1730916Y585106D01*
X1728530Y584562D02*
X1729693Y584968D01*
X1727487Y583906D02*
X1728530Y584562D01*
X1726616Y583036D02*
X1727487Y583906D01*
X1725961Y581993D02*
X1726616Y583036D01*
X1725554Y580830D02*
X1725961Y581993D01*
X1725416Y579606D02*
X1725554Y580830D01*
X1725416Y450606D02*
Y579606D01*
Y450606D02*
X1725554Y449382D01*
X1725961Y448220D01*
X1726616Y447177D01*
X1727487Y446306D01*
X1728530Y445651D01*
X1729693Y445244D01*
X1730916Y445106D01*
X1859917D01*
X1770029Y771330D02*
X1770166Y770106D01*
X1769622Y772493D02*
X1770029Y771330D01*
X1768967Y773536D02*
X1769622Y772493D01*
X1768096Y774406D02*
X1768967Y773536D01*
X1767053Y775062D02*
X1768096Y774406D01*
X1765890Y775468D02*
X1767053Y775062D01*
X1764666Y775606D02*
X1765890Y775468D01*
X1635666Y775606D02*
X1764666Y775606D01*
X1634443Y775468D02*
X1635666Y775606D01*
X1633280Y775062D02*
X1634443Y775468D01*
X1632237Y774406D02*
X1633280Y775062D01*
X1631366Y773536D02*
X1632237Y774406D01*
X1630711Y772493D02*
X1631366Y773536D01*
X1630304Y771330D02*
X1630711Y772493D01*
X1630166Y770106D02*
X1630304Y771330D01*
X1630166Y641106D02*
Y770106D01*
Y641106D02*
X1630304Y639882D01*
X1630711Y638720D01*
X1631366Y637677D01*
X1632237Y636806D01*
X1633280Y636151D01*
X1634443Y635744D01*
X1635666Y635606D01*
X1764666D01*
X1765890Y635744D01*
X1767053Y636151D01*
X1768096Y636806D01*
X1768967Y637677D01*
X1769622Y638720D01*
X1770029Y639882D01*
X1770166Y641106D01*
Y770106D01*
X1627153Y1152330D02*
X1627291Y1151106D01*
X1626747Y1153493D02*
X1627153Y1152330D01*
X1626091Y1154536D02*
X1626747Y1153493D01*
X1625221Y1155406D02*
X1626091Y1154536D01*
X1624178Y1156062D02*
X1625221Y1155406D01*
X1623015Y1156468D02*
X1624178Y1156062D01*
X1621791Y1156606D02*
X1623015Y1156468D01*
X1492791Y1156606D02*
X1621791D01*
X1491568Y1156468D02*
X1492791Y1156606D01*
X1490405Y1156062D02*
X1491568Y1156468D01*
X1489362Y1155406D02*
X1490405Y1156062D01*
X1488491Y1154536D02*
X1489362Y1155406D01*
X1487836Y1153493D02*
X1488491Y1154536D01*
X1487429Y1152330D02*
X1487836Y1153493D01*
X1487291Y1151106D02*
X1487429Y1152330D01*
X1487291Y1022106D02*
Y1151106D01*
Y1022106D02*
X1487429Y1020882D01*
X1487836Y1019720D01*
X1488491Y1018677D01*
X1489362Y1017806D01*
X1490405Y1017151D01*
X1491568Y1016744D01*
X1492791Y1016606D01*
X1621791D01*
X1623015Y1016744D01*
X1624178Y1017151D01*
X1625221Y1017806D01*
X1626091Y1018677D01*
X1626747Y1019720D01*
X1627153Y1020882D01*
X1627291Y1022106D01*
Y1151106D01*
X2630291Y1022106D02*
Y1151106D01*
Y1022106D02*
X2630429Y1020882D01*
X2630836Y1019720D01*
X2631491Y1018677D01*
X2632362Y1017806D01*
X2633405Y1017151D01*
X2634568Y1016744D01*
X2635791Y1016606D01*
X2764791D01*
X2766015Y1016744D01*
X2767178Y1017151D01*
X2768221Y1017806D01*
X2769091Y1018677D01*
X2769747Y1019720D01*
X2770154Y1020882D01*
X2770291Y1022106D01*
Y1151106D01*
X2770154Y1152330D02*
X2770291Y1151106D01*
X2769747Y1153493D02*
X2770154Y1152330D01*
X2769091Y1154536D02*
X2769747Y1153493D01*
X2768221Y1155406D02*
X2769091Y1154536D01*
X2767178Y1156062D02*
X2768221Y1155406D01*
X2766015Y1156469D02*
X2767178Y1156062D01*
X2764791Y1156606D02*
X2766015Y1156469D01*
X2635791Y1156606D02*
X2764791D01*
X2634568Y1156469D02*
X2635791Y1156606D01*
X2633405Y1156062D02*
X2634568Y1156469D01*
X2632362Y1155406D02*
X2633405Y1156062D01*
X2631491Y1154536D02*
X2632362Y1155406D01*
X2630836Y1153493D02*
X2631491Y1154536D01*
X2630429Y1152330D02*
X2630836Y1153493D01*
X2630291Y1151106D02*
X2630429Y1152330D01*
X2491693Y584968D02*
X2492917Y585106D01*
X2490530Y584562D02*
X2491693Y584968D01*
X2489487Y583906D02*
X2490530Y584562D01*
X2488616Y583036D02*
X2489487Y583906D01*
X2487961Y581993D02*
X2488616Y583036D01*
X2487554Y580830D02*
X2487961Y581993D01*
X2487417Y579606D02*
X2487554Y580830D01*
X2487417Y450606D02*
Y579606D01*
Y450606D02*
X2487554Y449383D01*
X2487961Y448220D01*
X2488616Y447177D01*
X2489487Y446306D01*
X2490530Y445651D01*
X2491693Y445244D01*
X2492917Y445106D01*
X2621917Y445106D01*
X2623140Y445244D01*
X2624303Y445651D01*
X2625346Y446306D01*
X2626216Y447177D01*
X2626872Y448220D01*
X2627278Y449383D01*
X2627416Y450606D01*
Y579606D01*
X2627278Y580830D02*
X2627416Y579606D01*
X2626872Y581993D02*
X2627278Y580830D01*
X2626216Y583036D02*
X2626872Y581993D01*
X2625346Y583907D02*
X2626216Y583036D01*
X2624303Y584562D02*
X2625346Y583907D01*
X2623140Y584968D02*
X2624303Y584562D01*
X2621917Y585106D02*
X2623140Y584968D01*
X2492917Y585106D02*
X2621917Y585106D01*
X2436779Y580830D02*
X2436917Y579606D01*
X2436372Y581993D02*
X2436779Y580830D01*
X2435717Y583036D02*
X2436372Y581993D01*
X2434846Y583906D02*
X2435717Y583036D01*
X2433803Y584562D02*
X2434846Y583906D01*
X2432640Y584968D02*
X2433803Y584562D01*
X2431416Y585106D02*
X2432640Y584968D01*
X2302417Y585106D02*
X2431416D01*
X2301193Y584968D02*
X2302417Y585106D01*
X2300030Y584562D02*
X2301193Y584968D01*
X2298987Y583906D02*
X2300030Y584562D01*
X2298116Y583036D02*
X2298987Y583906D01*
X2297461Y581993D02*
X2298116Y583036D01*
X2297054Y580830D02*
X2297461Y581993D01*
X2296917Y579606D02*
X2297054Y580830D01*
X2296917Y450606D02*
Y579606D01*
Y450606D02*
X2297054Y449383D01*
X2297461Y448220D01*
X2298116Y447177D01*
X2298987Y446306D01*
X2300030Y445651D01*
X2301193Y445244D01*
X2302417Y445106D01*
X2431416D01*
X2432640Y445244D01*
X2433803Y445651D01*
X2434846Y446306D01*
X2435717Y447177D01*
X2436372Y448220D01*
X2436779Y449383D01*
X2436917Y450606D01*
Y579606D01*
X2103403Y961830D02*
X2103541Y960606D01*
X2102997Y962993D02*
X2103403Y961830D01*
X2102341Y964036D02*
X2102997Y962993D01*
X2101471Y964906D02*
X2102341Y964036D01*
X2100428Y965562D02*
X2101471Y964906D01*
X2099265Y965968D02*
X2100428Y965562D01*
X2098041Y966106D02*
X2099265Y965968D01*
X1969041Y966106D02*
X2098041D01*
X1967818Y965968D02*
X1969041Y966106D01*
X1966655Y965562D02*
X1967818Y965968D01*
X1965612Y964906D02*
X1966655Y965562D01*
X1964741Y964036D02*
X1965612Y964906D01*
X1964086Y962993D02*
X1964741Y964036D01*
X1963679Y961830D02*
X1964086Y962993D01*
X1963541Y960606D02*
X1963679Y961830D01*
X1963541Y831606D02*
Y960606D01*
Y831606D02*
X1963679Y830383D01*
X1964086Y829220D01*
X1964741Y828177D01*
X1965612Y827306D01*
X1966655Y826651D01*
X1967818Y826244D01*
X1969041Y826106D01*
X2098041D01*
X2099265Y826244D01*
X2100428Y826651D01*
X2101471Y827306D01*
X2102341Y828177D01*
X2102997Y829220D01*
X2103403Y830383D01*
X2103541Y831606D01*
Y960606D01*
X2055779Y580830D02*
X2055916Y579606D01*
X2055372Y581993D02*
X2055779Y580830D01*
X2054716Y583036D02*
X2055372Y581993D01*
X2053846Y583906D02*
X2054716Y583036D01*
X2052803Y584562D02*
X2053846Y583906D01*
X2051640Y584968D02*
X2052803Y584562D01*
X2050417Y585106D02*
X2051640Y584968D01*
X1921416Y585106D02*
X2050417Y585106D01*
X1920193Y584968D02*
X1921416Y585106D01*
X1919030Y584562D02*
X1920193Y584968D01*
X1917987Y583906D02*
X1919030Y584562D01*
X1917116Y583036D02*
X1917987Y583906D01*
X1916461Y581993D02*
X1917116Y583036D01*
X1916054Y580830D02*
X1916461Y581993D01*
X1915916Y579606D02*
X1916054Y580830D01*
X1915916Y450606D02*
Y579606D01*
Y450606D02*
X1916054Y449382D01*
X1916461Y448220D01*
X1917116Y447177D01*
X1917987Y446306D01*
X1919030Y445651D01*
X1920193Y445244D01*
X1921416Y445106D01*
X2050417Y445106D01*
X2051640Y445244D01*
X2052803Y445651D01*
X2053846Y446306D01*
X2054716Y447177D01*
X2055372Y448220D01*
X2055779Y449383D01*
X2055916Y450606D01*
Y579606D01*
X2484404Y961830D02*
X2484541Y960606D01*
X2483997Y962993D02*
X2484404Y961830D01*
X2483342Y964036D02*
X2483997Y962993D01*
X2482471Y964906D02*
X2483342Y964036D01*
X2481428Y965562D02*
X2482471Y964906D01*
X2480265Y965968D02*
X2481428Y965562D01*
X2479041Y966106D02*
X2480265Y965968D01*
X2350041Y966106D02*
X2479041D01*
X2348817Y965968D02*
X2350041Y966106D01*
X2347655Y965562D02*
X2348817Y965968D01*
X2346612Y964906D02*
X2347655Y965562D01*
X2345741Y964036D02*
X2346612Y964906D01*
X2345086Y962993D02*
X2345741Y964036D01*
X2344679Y961830D02*
X2345086Y962993D01*
X2344541Y960606D02*
X2344679Y961830D01*
X2344541Y831606D02*
Y960606D01*
Y831606D02*
X2344679Y830383D01*
X2345086Y829220D01*
X2345741Y828177D01*
X2346612Y827306D01*
X2347655Y826651D01*
X2348817Y826244D01*
X2350041Y826106D01*
X2479041D01*
X2480265Y826244D01*
X2481428Y826651D01*
X2482471Y827306D01*
X2483342Y828177D01*
X2483997Y829220D01*
X2484404Y830383D01*
X2484541Y831606D01*
Y960606D01*
X2008154Y1152330D02*
X2008291Y1151106D01*
X2007747Y1153493D02*
X2008154Y1152330D01*
X2007092Y1154536D02*
X2007747Y1153493D01*
X2006221Y1155406D02*
X2007092Y1154536D01*
X2005178Y1156062D02*
X2006221Y1155406D01*
X2004015Y1156468D02*
X2005178Y1156062D01*
X2002791Y1156606D02*
X2004015Y1156468D01*
X1873791Y1156606D02*
X2002791D01*
X1872567Y1156468D02*
X1873791Y1156606D01*
X1871405Y1156062D02*
X1872567Y1156468D01*
X1870362Y1155406D02*
X1871405Y1156062D01*
X1869491Y1154536D02*
X1870362Y1155406D01*
X1868836Y1153493D02*
X1869491Y1154536D01*
X1868429Y1152330D02*
X1868836Y1153493D01*
X1868291Y1151106D02*
X1868429Y1152330D01*
X1868291Y1022106D02*
Y1151106D01*
Y1022106D02*
X1868429Y1020882D01*
X1868836Y1019720D01*
X1869491Y1018677D01*
X1870362Y1017806D01*
X1871405Y1017151D01*
X1872567Y1016744D01*
X1873791Y1016606D01*
X2002791D01*
X2004015Y1016744D01*
X2005178Y1017151D01*
X2006221Y1017806D01*
X2007092Y1018677D01*
X2007747Y1019720D01*
X2008154Y1020882D01*
X2008291Y1022106D01*
Y1151106D01*
X2246279Y580830D02*
X2246416Y579606D01*
X2245872Y581993D02*
X2246279Y580830D01*
X2245217Y583036D02*
X2245872Y581993D01*
X2244346Y583906D02*
X2245217Y583036D01*
X2243303Y584562D02*
X2244346Y583906D01*
X2242140Y584968D02*
X2243303Y584562D01*
X2240916Y585106D02*
X2242140Y584968D01*
X2111917Y585106D02*
X2240916D01*
X2110693Y584968D02*
X2111917Y585106D01*
X2109530Y584562D02*
X2110693Y584968D01*
X2108487Y583906D02*
X2109530Y584562D01*
X2107616Y583036D02*
X2108487Y583906D01*
X2106961Y581993D02*
X2107616Y583036D01*
X2106554Y580830D02*
X2106961Y581993D01*
X2106416Y579606D02*
X2106554Y580830D01*
X2106416Y450606D02*
Y579606D01*
Y450606D02*
X2106554Y449383D01*
X2106961Y448220D01*
X2107616Y447177D01*
X2108487Y446306D01*
X2109530Y445651D01*
X2110693Y445244D01*
X2111917Y445106D01*
X2240916D01*
X2242140Y445244D01*
X2243303Y445651D01*
X2244346Y446306D01*
X2245217Y447177D01*
X2245872Y448220D01*
X2246279Y449383D01*
X2246416Y450606D01*
Y579606D01*
X2389153Y1152330D02*
X2389291Y1151106D01*
X2388747Y1153493D02*
X2389153Y1152330D01*
X2388091Y1154536D02*
X2388747Y1153493D01*
X2387221Y1155406D02*
X2388091Y1154536D01*
X2386178Y1156062D02*
X2387221Y1155406D01*
X2385015Y1156469D02*
X2386178Y1156062D01*
X2383791Y1156606D02*
X2385015Y1156469D01*
X2254791Y1156606D02*
X2383791D01*
X2253568Y1156469D02*
X2254791Y1156606D01*
X2252405Y1156062D02*
X2253568Y1156469D01*
X2251362Y1155406D02*
X2252405Y1156062D01*
X2250491Y1154536D02*
X2251362Y1155406D01*
X2249836Y1153493D02*
X2250491Y1154536D01*
X2249429Y1152330D02*
X2249836Y1153493D01*
X2249291Y1151106D02*
X2249429Y1152330D01*
X2249291Y1022106D02*
Y1151106D01*
Y1022106D02*
X2249429Y1020882D01*
X2249836Y1019720D01*
X2250491Y1018677D01*
X2251362Y1017806D01*
X2252405Y1017151D01*
X2253568Y1016744D01*
X2254791Y1016606D01*
X2383791D01*
X2385015Y1016744D01*
X2386178Y1017151D01*
X2387221Y1017806D01*
X2388091Y1018677D01*
X2388747Y1019720D01*
X2389153Y1020882D01*
X2389291Y1022106D01*
Y1151106D01*
X1944005Y394468D02*
X1945229Y394606D01*
X1942843Y394062D02*
X1944005Y394468D01*
X1941800Y393406D02*
X1942843Y394062D01*
X1940929Y392536D02*
X1941800Y393406D01*
X1940274Y391493D02*
X1940929Y392536D01*
X1939867Y390330D02*
X1940274Y391493D01*
X1939729Y389106D02*
X1939867Y390330D01*
X1939729Y259856D02*
Y389106D01*
Y259856D02*
X1939861Y258688D01*
X1940249Y257579D01*
X1940874Y256583D01*
X1941706Y255752D01*
X1942701Y255126D01*
X1943811Y254738D01*
X1944979Y254606D01*
X2193291Y254606D01*
X2194515Y254744D01*
X2195678Y255151D01*
X2196721Y255806D01*
X2197592Y256677D01*
X2198247Y257720D01*
X2198654Y258883D01*
X2198792Y260106D01*
Y389106D01*
X2198654Y390330D02*
X2198792Y389106D01*
X2198247Y391493D02*
X2198654Y390330D01*
X2197592Y392536D02*
X2198247Y391493D01*
X2196721Y393406D02*
X2197592Y392536D01*
X2195678Y394062D02*
X2196721Y393406D01*
X2194515Y394468D02*
X2195678Y394062D01*
X2193291Y394606D02*
X2194515Y394468D01*
X1945229Y394606D02*
X2193291D01*
X2960653Y1152330D02*
X2960791Y1151106D01*
X2960247Y1153493D02*
X2960653Y1152330D01*
X2959591Y1154536D02*
X2960247Y1153493D01*
X2958721Y1155406D02*
X2959591Y1154536D01*
X2957678Y1156062D02*
X2958721Y1155406D01*
X2956515Y1156469D02*
X2957678Y1156062D01*
X2955291Y1156607D02*
X2956515Y1156469D01*
X2826292Y1156607D02*
X2955291D01*
X2825068Y1156469D02*
X2826292Y1156607D01*
X2823905Y1156062D02*
X2825068Y1156469D01*
X2822862Y1155406D02*
X2823905Y1156062D01*
X2821991Y1154536D02*
X2822862Y1155406D01*
X2821336Y1153493D02*
X2821991Y1154536D01*
X2820929Y1152330D02*
X2821336Y1153493D01*
X2820792Y1151106D02*
X2820929Y1152330D01*
X2820792Y1022106D02*
Y1151106D01*
Y1022106D02*
X2820929Y1020883D01*
X2821336Y1019720D01*
X2821991Y1018677D01*
X2822862Y1017806D01*
X2823905Y1017151D01*
X2825068Y1016744D01*
X2826292Y1016607D01*
X2955291D01*
X2956515Y1016744D01*
X2957678Y1017151D01*
X2958721Y1017806D01*
X2959591Y1018677D01*
X2960247Y1019720D01*
X2960653Y1020883D01*
X2960791Y1022106D01*
Y1151106D01*
X2865403Y961830D02*
X2865541Y960607D01*
X2864997Y962993D02*
X2865403Y961830D01*
X2864341Y964036D02*
X2864997Y962993D01*
X2863470Y964906D02*
X2864341Y964036D01*
X2862428Y965562D02*
X2863470Y964906D01*
X2861265Y965968D02*
X2862428Y965562D01*
X2860042Y966106D02*
X2861265Y965968D01*
X2731042Y966106D02*
X2860042Y966106D01*
X2729818Y965968D02*
X2731042Y966106D01*
X2728655Y965562D02*
X2729818Y965968D01*
X2727612Y964906D02*
X2728655Y965562D01*
X2726741Y964036D02*
X2727612Y964906D01*
X2726086Y962993D02*
X2726741Y964036D01*
X2725679Y961830D02*
X2726086Y962993D01*
X2725541Y960606D02*
X2725679Y961830D01*
X2725541Y831606D02*
Y960606D01*
Y831606D02*
X2725679Y830383D01*
X2726086Y829220D01*
X2726741Y828177D01*
X2727612Y827306D01*
X2728655Y826651D01*
X2729818Y826244D01*
X2731042Y826106D01*
X2860042Y826106D01*
X2861265Y826244D01*
X2862428Y826651D01*
X2863470Y827306D01*
X2864341Y828177D01*
X2864997Y829220D01*
X2865403Y830383D01*
X2865541Y831607D01*
Y960607D01*
X2736541Y397356D02*
Y404106D01*
X2736278Y406443D02*
X2736541Y404106D01*
X2735502Y408662D02*
X2736278Y406443D01*
X2734250Y410653D02*
X2735502Y408662D01*
X2732588Y412316D02*
X2734250Y410653D01*
X2730597Y413567D02*
X2732588Y412316D01*
X2728378Y414343D02*
X2730597Y413567D01*
X2726042Y414606D02*
X2728378Y414343D01*
X2674542Y414606D02*
X2726042D01*
X2672205Y414343D02*
X2674542Y414606D01*
X2669986Y413567D02*
X2672205Y414343D01*
X2667995Y412316D02*
X2669986Y413567D01*
X2666332Y410653D02*
X2667995Y412316D01*
X2665081Y408662D02*
X2666332Y410653D01*
X2664305Y406443D02*
X2665081Y408662D01*
X2664042Y404106D02*
X2664305Y406443D01*
X2664042Y397356D02*
Y404106D01*
X2663972Y396744D02*
X2664042Y397356D01*
X2663769Y396163D02*
X2663972Y396744D01*
X2663441Y395642D02*
X2663769Y396163D01*
X2663006Y395206D02*
X2663441Y395642D01*
X2662485Y394879D02*
X2663006Y395206D01*
X2661903Y394675D02*
X2662485Y394879D01*
X2661292Y394606D02*
X2661903Y394675D01*
X2659604Y394606D02*
X2661292D01*
X2658380Y394468D02*
X2659604Y394606D01*
X2657218Y394062D02*
X2658380Y394468D01*
X2656175Y393406D02*
X2657218Y394062D01*
X2655304Y392536D02*
X2656175Y393406D01*
X2654649Y391493D02*
X2655304Y392536D01*
X2654242Y390330D02*
X2654649Y391493D01*
X2654104Y389106D02*
X2654242Y390330D01*
X2654104Y260106D02*
Y389106D01*
Y260106D02*
X2654242Y258883D01*
X2654649Y257720D01*
X2655304Y256677D01*
X2656175Y255806D01*
X2657218Y255151D01*
X2658380Y254744D01*
X2659604Y254606D01*
X2788604Y254606D01*
X2789828Y254744D01*
X2790990Y255151D01*
X2792033Y255806D01*
X2792904Y256677D01*
X2793559Y257720D01*
X2793966Y258883D01*
X2794104Y260106D01*
Y389106D01*
X2793966Y390330D02*
X2794104Y389106D01*
X2793559Y391493D02*
X2793966Y390330D01*
X2792904Y392536D02*
X2793559Y391493D01*
X2792033Y393406D02*
X2792904Y392536D01*
X2790990Y394062D02*
X2792033Y393406D01*
X2789828Y394468D02*
X2790990Y394062D01*
X2788604Y394606D02*
X2789828Y394468D01*
X2739291Y394606D02*
X2788604D01*
X2738680Y394675D02*
X2739291Y394606D01*
X2738098Y394879D02*
X2738680Y394675D01*
X2737577Y395206D02*
X2738098Y394879D01*
X2737141Y395642D02*
X2737577Y395206D01*
X2736814Y396163D02*
X2737141Y395642D01*
X2736610Y396744D02*
X2736814Y396163D01*
X2736541Y397356D02*
X2736610Y396744D01*
X1072313Y199013D02*
X1072468Y197306D01*
X1072313Y199013D02*
X1072537Y200711D01*
X1073128Y202319D01*
X1074059Y203758D01*
X1075282Y204957D01*
X1076739Y205858D01*
X1078359Y206417D01*
X1080062Y206606D01*
X1422751Y206606D01*
X1424476Y206801D01*
X1426114Y207374D01*
X1427583Y208297D01*
X1428811Y209524D01*
X1429734Y210994D01*
X1430307Y212632D01*
X1430502Y214356D01*
Y221606D01*
X1430307Y223331D02*
X1430502Y221606D01*
X1429734Y224969D02*
X1430307Y223331D01*
X1428811Y226438D02*
X1429734Y224969D01*
X1427583Y227666D02*
X1428811Y226438D01*
X1426114Y228589D02*
X1427583Y227666D01*
X1424476Y229162D02*
X1426114Y228589D01*
X1422751Y229356D02*
X1424476Y229162D01*
X817581Y229356D02*
X1422751Y229356D01*
X815857Y229162D02*
X817581Y229356D01*
X814219Y228589D02*
X815857Y229162D01*
X812749Y227665D02*
X814219Y228589D01*
X811522Y226438D02*
X812749Y227665D01*
X810599Y224969D02*
X811522Y226438D01*
X810026Y223331D02*
X810599Y224969D01*
X809831Y221606D02*
X810026Y223331D01*
X809831Y214356D02*
Y221606D01*
Y214356D02*
X810026Y212632D01*
X810599Y210994D01*
X811522Y209524D01*
X812749Y208297D01*
X814219Y207374D01*
X815857Y206800D01*
X817581Y206606D01*
X1033521Y206606D01*
X1035224Y206417D01*
X1036844Y205858D01*
X1038301Y204957D01*
X1039525Y203758D01*
X1040455Y202319D01*
X1041046Y200711D01*
X1041270Y199013D01*
X1041115Y197306D02*
X1041270Y199013D01*
X1040792Y193992D02*
X1041115Y197306D01*
X1040792Y193992D02*
X1041162Y190683D01*
X1042209Y187522D01*
X1043888Y184646D01*
X1046125Y182180D01*
X1048824Y180231D01*
X1051869Y178882D01*
X1055127Y178193D01*
X1058456D01*
X1061714Y178882D01*
X1064759Y180231D01*
X1067458Y182180D01*
X1069695Y184646D01*
X1071374Y187522D01*
X1072421Y190683D01*
X1072791Y193992D01*
X1072468Y197306D02*
X1072791Y193992D01*
X1907541Y826106D02*
X1908765Y826244D01*
X1909928Y826651D01*
X1910971Y827306D01*
X1911841Y828177D01*
X1912497Y829220D01*
X1912903Y830383D01*
X1913041Y831606D01*
Y960606D01*
X1912903Y961830D02*
X1913041Y960606D01*
X1912497Y962993D02*
X1912903Y961830D01*
X1911841Y964036D02*
X1912497Y962993D01*
X1910971Y964906D02*
X1911841Y964036D01*
X1909928Y965562D02*
X1910971Y964906D01*
X1908765Y965968D02*
X1909928Y965562D01*
X1907541Y966106D02*
X1908765Y965968D01*
X1778541Y966106D02*
X1907541D01*
X1777318Y965968D02*
X1778541Y966106D01*
X1776155Y965562D02*
X1777318Y965968D01*
X1775112Y964906D02*
X1776155Y965562D01*
X1774241Y964036D02*
X1775112Y964906D01*
X1773586Y962993D02*
X1774241Y964036D01*
X1773179Y961830D02*
X1773586Y962993D01*
X1773041Y960606D02*
X1773179Y961830D01*
X1773041Y831606D02*
Y960606D01*
Y831606D02*
X1773179Y830383D01*
X1773586Y829220D01*
X1774241Y828177D01*
X1775112Y827306D01*
X1776155Y826651D01*
X1777318Y826244D01*
X1778541Y826106D01*
X1907541D01*
X1007666Y425106D02*
X1059166D01*
X1061503Y425369D01*
X1063722Y426146D01*
X1065713Y427397D01*
X1067376Y429060D01*
X1068627Y431050D01*
X1069403Y433270D01*
X1069666Y435606D01*
X1069666Y564606D02*
X1069666Y435606D01*
X1069403Y566943D02*
X1069666Y564606D01*
X1068627Y569162D02*
X1069403Y566943D01*
X1067376Y571153D02*
X1068627Y569162D01*
X1065713Y572816D02*
X1067376Y571153D01*
X1063722Y574067D02*
X1065713Y572816D01*
X1061503Y574843D02*
X1063722Y574067D01*
X1059166Y575106D02*
X1061503Y574843D01*
X1007666Y575106D02*
X1059166D01*
X1005330Y574843D02*
X1007666Y575106D01*
X1003111Y574066D02*
X1005330Y574843D01*
X1001120Y572816D02*
X1003111Y574066D01*
X999457Y571153D02*
X1001120Y572816D01*
X998206Y569162D02*
X999457Y571153D01*
X997430Y566943D02*
X998206Y569162D01*
X997167Y564606D02*
X997430Y566943D01*
X997167Y564606D02*
X997167Y435606D01*
X997430Y433270D01*
X998206Y431050D01*
X999457Y429060D01*
X1001120Y427397D01*
X1003111Y426146D01*
X1005330Y425369D01*
X1007666Y425106D01*
X1055654Y1152330D02*
X1055791Y1151106D01*
X1055247Y1153493D02*
X1055654Y1152330D01*
X1054591Y1154536D02*
X1055247Y1153493D01*
X1053720Y1155406D02*
X1054591Y1154536D01*
X1052678Y1156062D02*
X1053720Y1155406D01*
X1051515Y1156468D02*
X1052678Y1156062D01*
X1050291Y1156606D02*
X1051515Y1156468D01*
X921291Y1156606D02*
X1050291D01*
X920068Y1156468D02*
X921291Y1156606D01*
X918905Y1156062D02*
X920068Y1156468D01*
X917862Y1155406D02*
X918905Y1156062D01*
X916991Y1154536D02*
X917862Y1155406D01*
X916336Y1153493D02*
X916991Y1154536D01*
X915929Y1152330D02*
X916336Y1153493D01*
X915791Y1151106D02*
X915929Y1152330D01*
X915791Y1151106D02*
X915791Y1022106D01*
X915929Y1020882D01*
X916336Y1019720D01*
X916991Y1018677D01*
X917862Y1017806D01*
X918905Y1017151D01*
X920068Y1016744D01*
X921292Y1016606D01*
X1050291D01*
X1051515Y1016744D01*
X1052678Y1017151D01*
X1053720Y1017806D01*
X1054592Y1018677D01*
X1055247Y1019720D01*
X1055654Y1020882D01*
X1055791Y1022106D01*
X1055791Y1151106D02*
X1055791Y1022106D01*
X1229630Y394468D02*
X1230854Y394606D01*
X1228468Y394062D02*
X1229630Y394468D01*
X1227425Y393406D02*
X1228468Y394062D01*
X1226554Y392536D02*
X1227425Y393406D01*
X1225899Y391493D02*
X1226554Y392536D01*
X1225492Y390330D02*
X1225899Y391493D01*
X1225354Y389106D02*
X1225492Y390330D01*
X1225354Y389106D02*
X1225354Y260106D01*
X1225492Y258882D01*
X1225899Y257720D01*
X1226554Y256677D01*
X1227425Y255806D01*
X1228468Y255151D01*
X1229630Y254744D01*
X1230854Y254606D01*
X1383667D01*
X1384890Y254744D01*
X1386053Y255151D01*
X1387096Y255806D01*
X1387966Y256677D01*
X1388622Y257720D01*
X1389029Y258882D01*
X1389167Y260106D01*
Y389106D01*
X1389029Y390330D02*
X1389167Y389106D01*
X1388622Y391493D02*
X1389029Y390330D01*
X1387966Y392536D02*
X1388622Y391493D01*
X1387096Y393406D02*
X1387966Y392536D01*
X1386053Y394062D02*
X1387096Y393406D01*
X1384890Y394468D02*
X1386053Y394062D01*
X1383667Y394606D02*
X1384890Y394468D01*
X1230854Y394606D02*
X1383667Y394606D01*
X1389028Y771330D02*
X1389166Y770106D01*
X1388622Y772493D02*
X1389028Y771330D01*
X1387966Y773536D02*
X1388622Y772493D01*
X1387096Y774406D02*
X1387966Y773536D01*
X1386053Y775062D02*
X1387096Y774406D01*
X1384890Y775468D02*
X1386053Y775062D01*
X1383666Y775606D02*
X1384890Y775468D01*
X1254667Y775606D02*
X1383666D01*
X1253443Y775468D02*
X1254667Y775606D01*
X1252280Y775062D02*
X1253443Y775468D01*
X1251237Y774406D02*
X1252280Y775062D01*
X1250366Y773536D02*
X1251237Y774406D01*
X1249711Y772493D02*
X1250366Y773536D01*
X1249304Y771330D02*
X1249711Y772493D01*
X1249166Y770106D02*
X1249304Y771330D01*
X1249166Y641106D02*
Y770106D01*
Y641106D02*
X1249304Y639882D01*
X1249711Y638720D01*
X1250366Y637677D01*
X1251237Y636806D01*
X1252280Y636151D01*
X1253443Y635744D01*
X1254667Y635606D01*
X1383666Y635606D01*
X1384890Y635744D01*
X1386053Y636151D01*
X1387096Y636806D01*
X1387966Y637677D01*
X1388622Y638720D01*
X1389028Y639882D01*
X1389166Y641106D01*
Y770106D01*
X1198529Y771330D02*
X1198666Y770106D01*
X1198122Y772493D02*
X1198529Y771330D01*
X1197467Y773536D02*
X1198122Y772493D01*
X1196596Y774406D02*
X1197467Y773536D01*
X1195553Y775062D02*
X1196596Y774406D01*
X1194390Y775468D02*
X1195553Y775062D01*
X1193166Y775606D02*
X1194390Y775468D01*
X1064166Y775606D02*
X1193166D01*
X1062943Y775468D02*
X1064166Y775606D01*
X1061780Y775062D02*
X1062943Y775468D01*
X1060737Y774406D02*
X1061780Y775062D01*
X1059866Y773536D02*
X1060737Y774406D01*
X1059211Y772493D02*
X1059866Y773536D01*
X1058804Y771330D02*
X1059211Y772493D01*
X1058667Y770106D02*
X1058804Y771330D01*
X1058667Y641106D02*
Y770106D01*
Y641106D02*
X1058804Y639882D01*
X1059211Y638720D01*
X1059866Y637677D01*
X1060737Y636806D01*
X1061780Y636151D01*
X1062943Y635744D01*
X1064166Y635606D01*
X1193166D01*
X1194390Y635744D01*
X1195553Y636151D01*
X1196596Y636806D01*
X1197467Y637677D01*
X1198122Y638720D01*
X1198529Y639882D01*
X1198666Y641106D01*
Y770106D01*
X1150903Y961830D02*
X1151041Y960606D01*
X1150497Y962993D02*
X1150903Y961830D01*
X1149842Y964035D02*
X1150497Y962993D01*
X1148970Y964906D02*
X1149842Y964035D01*
X1147928Y965562D02*
X1148970Y964906D01*
X1146765Y965968D02*
X1147928Y965562D01*
X1145541Y966106D02*
X1146765Y965968D01*
X1016542Y966106D02*
X1145541D01*
X1015318Y965968D02*
X1016542Y966106D01*
X1014155Y965562D02*
X1015318Y965968D01*
X1013112Y964906D02*
X1014155Y965562D01*
X1012241Y964035D02*
X1013112Y964906D01*
X1011586Y962993D02*
X1012241Y964035D01*
X1011179Y961830D02*
X1011586Y962993D01*
X1011041Y960606D02*
X1011179Y961830D01*
X1011041Y960606D02*
X1011041Y831606D01*
X1011179Y830382D01*
X1011586Y829220D01*
X1012241Y828177D01*
X1013112Y827306D01*
X1014155Y826651D01*
X1015318Y826244D01*
X1016542Y826106D01*
X1145541D01*
X1146765Y826244D01*
X1147928Y826651D01*
X1148971Y827306D01*
X1149842Y828177D01*
X1150497Y829220D01*
X1150903Y830382D01*
X1151041Y831606D01*
X1151041Y960606D02*
X1151041Y831606D01*
X1348693Y584968D02*
X1349917Y585106D01*
X1347530Y584562D02*
X1348693Y584968D01*
X1346487Y583906D02*
X1347530Y584562D01*
X1345616Y583036D02*
X1346487Y583906D01*
X1344961Y581993D02*
X1345616Y583036D01*
X1344554Y580830D02*
X1344961Y581993D01*
X1344417Y579606D02*
X1344554Y580830D01*
X1344417Y579606D02*
X1344417Y450606D01*
X1344554Y449382D01*
X1344961Y448220D01*
X1345616Y447177D01*
X1346487Y446306D01*
X1347530Y445651D01*
X1348693Y445244D01*
X1349917Y445106D01*
X1478916Y445106D01*
X1480140Y445244D01*
X1481303Y445651D01*
X1482346Y446306D01*
X1483217Y447177D01*
X1483872Y448220D01*
X1484279Y449382D01*
X1484416Y450606D01*
Y579606D01*
X1484279Y580830D02*
X1484416Y579606D01*
X1483872Y581993D02*
X1484279Y580830D01*
X1483217Y583036D02*
X1483872Y581993D01*
X1482346Y583906D02*
X1483217Y583036D01*
X1481303Y584562D02*
X1482346Y583906D01*
X1480140Y584968D02*
X1481303Y584562D01*
X1478916Y585106D02*
X1480140Y584968D01*
X1349917Y585106D02*
X1478916Y585106D01*
X907416Y254606D02*
X908640Y254744D01*
X909803Y255151D01*
X910846Y255806D01*
X911717Y256677D01*
X912372Y257720D01*
X912779Y258882D01*
X912916Y260106D01*
X912916Y389106D02*
X912916Y260106D01*
X912778Y390330D02*
X912916Y389106D01*
X912372Y391493D02*
X912778Y390330D01*
X911717Y392536D02*
X912372Y391493D01*
X910846Y393406D02*
X911717Y392536D01*
X909803Y394062D02*
X910846Y393406D01*
X908640Y394468D02*
X909803Y394062D01*
X907416Y394606D02*
X908640Y394468D01*
X754604Y394606D02*
X907416Y394606D01*
X753380Y394468D02*
X754604Y394606D01*
X752218Y394062D02*
X753380Y394468D01*
X751175Y393406D02*
X752218Y394062D01*
X750304Y392535D02*
X751175Y393406D01*
X749649Y391493D02*
X750304Y392535D01*
X749242Y390330D02*
X749649Y391493D01*
X749104Y389106D02*
X749242Y390330D01*
X749104Y389106D02*
X749104Y260106D01*
X749242Y258882D01*
X749649Y257720D01*
X750304Y256677D01*
X751175Y255806D01*
X752218Y255151D01*
X753380Y254744D01*
X754604Y254606D01*
X907416D01*
X1041115Y1213906D02*
X1041270Y1212200D01*
X1041046Y1210501D02*
X1041270Y1212200D01*
X1040455Y1208893D02*
X1041046Y1210501D01*
X1039524Y1207455D02*
X1040455Y1208893D01*
X1038301Y1206256D02*
X1039524Y1207455D01*
X1036843Y1205355D02*
X1038301Y1206256D01*
X1035224Y1204796D02*
X1036843Y1205355D01*
X1033521Y1204606D02*
X1035224Y1204796D01*
X817581Y1204606D02*
X1033521D01*
X815857Y1204412D02*
X817581Y1204606D01*
X814219Y1203839D02*
X815857Y1204412D01*
X812749Y1202915D02*
X814219Y1203839D01*
X811522Y1201688D02*
X812749Y1202915D01*
X810599Y1200219D02*
X811522Y1201688D01*
X810026Y1198581D02*
X810599Y1200219D01*
X809831Y1196856D02*
X810026Y1198581D01*
X809831Y1189606D02*
Y1196856D01*
Y1189606D02*
X810026Y1187882D01*
X810599Y1186244D01*
X811522Y1184774D01*
X812749Y1183547D01*
X814219Y1182624D01*
X815857Y1182051D01*
X817581Y1181856D01*
X1422751Y1181856D01*
X1424476Y1182051D01*
X1426114Y1182624D01*
X1427583Y1183547D01*
X1428811Y1184774D01*
X1429734Y1186244D01*
X1430307Y1187882D01*
X1430501Y1189606D01*
Y1196856D01*
X1430307Y1198581D02*
X1430501Y1196856D01*
X1429734Y1200219D02*
X1430307Y1198581D01*
X1428811Y1201688D02*
X1429734Y1200219D01*
X1427583Y1202915D02*
X1428811Y1201688D01*
X1426114Y1203839D02*
X1427583Y1202915D01*
X1424476Y1204412D02*
X1426114Y1203839D01*
X1422751Y1204606D02*
X1424476Y1204412D01*
X1080061Y1204606D02*
X1422751D01*
X1078359Y1204796D02*
X1080061Y1204606D01*
X1076739Y1205355D02*
X1078359Y1204796D01*
X1075282Y1206256D02*
X1076739Y1205355D01*
X1074058Y1207455D02*
X1075282Y1206256D01*
X1073128Y1208894D02*
X1074058Y1207455D01*
X1072537Y1210501D02*
X1073128Y1208894D01*
X1072313Y1212200D02*
X1072537Y1210501D01*
X1072313Y1212200D02*
X1072468Y1213906D01*
X1072791Y1217220D01*
X1072421Y1220529D02*
X1072791Y1217220D01*
X1071374Y1223690D02*
X1072421Y1220529D01*
X1069695Y1226566D02*
X1071374Y1223690D01*
X1067458Y1229032D02*
X1069695Y1226566D01*
X1064758Y1230982D02*
X1067458Y1229032D01*
X1061714Y1232330D02*
X1064758Y1230982D01*
X1058456Y1233019D02*
X1061714Y1232330D01*
X1055126Y1233019D02*
X1058456D01*
X1051869Y1232330D02*
X1055126Y1233019D01*
X1048824Y1230982D02*
X1051869Y1232330D01*
X1046125Y1229032D02*
X1048824Y1230982D01*
X1043887Y1226566D02*
X1046125Y1229032D01*
X1042209Y1223690D02*
X1043887Y1226566D01*
X1041162Y1220529D02*
X1042209Y1223690D01*
X1040792Y1217220D02*
X1041162Y1220529D01*
X1040792Y1217220D02*
X1041115Y1213906D01*
X3375615Y1213906D02*
X3375770Y1212200D01*
X3375546Y1210502D02*
X3375770Y1212200D01*
X3374955Y1208894D02*
X3375546Y1210502D01*
X3374024Y1207455D02*
X3374955Y1208894D01*
X3372801Y1206256D02*
X3374024Y1207455D01*
X3371344Y1205355D02*
X3372801Y1206256D01*
X3369724Y1204796D02*
X3371344Y1205355D01*
X3368021Y1204606D02*
X3369724Y1204796D01*
X3025331Y1204606D02*
X3368021D01*
X3023607Y1204412D02*
X3025331Y1204606D01*
X3021969Y1203839D02*
X3023607Y1204412D01*
X3020499Y1202916D02*
X3021969Y1203839D01*
X3019272Y1201688D02*
X3020499Y1202916D01*
X3018349Y1200219D02*
X3019272Y1201688D01*
X3017776Y1198581D02*
X3018349Y1200219D01*
X3017581Y1196856D02*
X3017776Y1198581D01*
X3017581Y1189606D02*
Y1196856D01*
Y1189606D02*
X3017776Y1187882D01*
X3018349Y1186244D01*
X3019272Y1184774D01*
X3020499Y1183547D01*
X3021969Y1182624D01*
X3023607Y1182051D01*
X3025331Y1181856D01*
X3630501Y1181857D01*
X3632226Y1182051D01*
X3633864Y1182624D01*
X3635334Y1183547D01*
X3636561Y1184774D01*
X3637484Y1186244D01*
X3638057Y1187882D01*
X3638251Y1189606D01*
Y1196857D01*
X3638057Y1198581D02*
X3638251Y1196857D01*
X3637484Y1200219D02*
X3638057Y1198581D01*
X3636561Y1201689D02*
X3637484Y1200219D01*
X3635334Y1202916D02*
X3636561Y1201689D01*
X3633864Y1203839D02*
X3635334Y1202916D01*
X3632226Y1204412D02*
X3633864Y1203839D01*
X3630501Y1204606D02*
X3632226Y1204412D01*
X3414561Y1204606D02*
X3630501D01*
X3412859Y1204796D02*
X3414561Y1204606D01*
X3411239Y1205355D02*
X3412859Y1204796D01*
X3409782Y1206256D02*
X3411239Y1205355D01*
X3408558Y1207455D02*
X3409782Y1206256D01*
X3407628Y1208894D02*
X3408558Y1207455D01*
X3407037Y1210502D02*
X3407628Y1208894D01*
X3406813Y1212200D02*
X3407037Y1210502D01*
X3406813Y1212200D02*
X3406968Y1213906D01*
X3407291Y1217221D01*
X3406921Y1220530D02*
X3407291Y1217221D01*
X3405874Y1223691D02*
X3406921Y1220530D01*
X3404195Y1226566D02*
X3405874Y1223691D01*
X3401958Y1229032D02*
X3404195Y1226566D01*
X3399258Y1230982D02*
X3401958Y1229032D01*
X3396214Y1232330D02*
X3399258Y1230982D01*
X3392956Y1233020D02*
X3396214Y1232330D01*
X3389626Y1233020D02*
X3392956D01*
X3386369Y1232330D02*
X3389626Y1233020D01*
X3383324Y1230982D02*
X3386369Y1232330D01*
X3380625Y1229032D02*
X3383324Y1230982D01*
X3378387Y1226566D02*
X3380625Y1229032D01*
X3376709Y1223690D02*
X3378387Y1226566D01*
X3375662Y1220530D02*
X3376709Y1223690D01*
X3375292Y1217221D02*
X3375662Y1220530D01*
X3375292Y1217221D02*
X3375615Y1213906D01*
X3098167Y635606D02*
X3099390Y635744D01*
X3100553Y636151D01*
X3101595Y636806D01*
X3102466Y637677D01*
X3103122Y638720D01*
X3103529Y639883D01*
X3103666Y641106D01*
Y770107D01*
X3103528Y771330D02*
X3103666Y770107D01*
X3103122Y772493D02*
X3103528Y771330D01*
X3102466Y773536D02*
X3103122Y772493D01*
X3101595Y774407D02*
X3102466Y773536D01*
X3100553Y775062D02*
X3101595Y774407D01*
X3099390Y775469D02*
X3100553Y775062D01*
X3098167Y775607D02*
X3099390Y775469D01*
X2969167Y775607D02*
X3098167D01*
X2967943Y775469D02*
X2969167Y775607D01*
X2966780Y775062D02*
X2967943Y775469D01*
X2965737Y774407D02*
X2966780Y775062D01*
X2964866Y773536D02*
X2965737Y774407D01*
X2964211Y772493D02*
X2964866Y773536D01*
X2963804Y771330D02*
X2964211Y772493D01*
X2963666Y770106D02*
X2963804Y771330D01*
X2963666Y641106D02*
Y770106D01*
Y641106D02*
X2963804Y639883D01*
X2964211Y638720D01*
X2964866Y637677D01*
X2965737Y636806D01*
X2966780Y636151D01*
X2967943Y635744D01*
X2969167Y635606D01*
X3098167Y635606D01*
X3587068Y1156469D02*
X3588292Y1156607D01*
X3585905Y1156062D02*
X3587068Y1156469D01*
X3584862Y1155407D02*
X3585905Y1156062D01*
X3583991Y1154536D02*
X3584862Y1155407D01*
X3583336Y1153493D02*
X3583991Y1154536D01*
X3582929Y1152330D02*
X3583336Y1153493D01*
X3582791Y1151106D02*
X3582929Y1152330D01*
X3582791Y1022106D02*
Y1151106D01*
Y1022106D02*
X3582929Y1020883D01*
X3583336Y1019720D01*
X3583991Y1018677D01*
X3584862Y1017806D01*
X3585905Y1017151D01*
X3587068Y1016744D01*
X3588292Y1016607D01*
X3717291D01*
X3718515Y1016744D01*
X3719678Y1017151D01*
X3720721Y1017806D01*
X3721591Y1018677D01*
X3722247Y1019720D01*
X3722654Y1020883D01*
X3722791Y1022106D01*
Y1151106D01*
X3722654Y1152330D02*
X3722791Y1151106D01*
X3722247Y1153493D02*
X3722654Y1152330D01*
X3721591Y1154536D02*
X3722247Y1153493D01*
X3720721Y1155407D02*
X3721591Y1154536D01*
X3719678Y1156062D02*
X3720721Y1155407D01*
X3718515Y1156469D02*
X3719678Y1156062D01*
X3717291Y1156607D02*
X3718515Y1156469D01*
X3588292Y1156607D02*
X3717291D01*
X3449854Y1007106D02*
Y1013856D01*
Y1007106D02*
X3450117Y1004770D01*
X3450894Y1002551D01*
X3452144Y1000560D01*
X3453807Y998897D01*
X3455798Y997646D01*
X3458017Y996870D01*
X3460354Y996607D01*
X3511854D01*
X3514190Y996870D01*
X3516410Y997646D01*
X3518400Y998897D01*
X3520063Y1000560D01*
X3521314Y1002551D01*
X3522090Y1004770D01*
X3522354Y1007106D01*
Y1013856D01*
X3522423Y1014468D01*
X3522626Y1015050D01*
X3522954Y1015571D01*
X3523389Y1016006D01*
X3523911Y1016334D01*
X3524492Y1016538D01*
X3525104Y1016607D01*
X3526791D01*
X3528015Y1016744D01*
X3529178Y1017151D01*
X3530221Y1017806D01*
X3531092Y1018677D01*
X3531747Y1019720D01*
X3532153Y1020883D01*
X3532291Y1022106D01*
Y1151106D01*
X3532153Y1152330D02*
X3532291Y1151106D01*
X3531747Y1153493D02*
X3532153Y1152330D01*
X3531092Y1154536D02*
X3531747Y1153493D01*
X3530221Y1155407D02*
X3531092Y1154536D01*
X3529178Y1156062D02*
X3530221Y1155407D01*
X3528015Y1156469D02*
X3529178Y1156062D01*
X3526791Y1156607D02*
X3528015Y1156469D01*
X3207292Y1156607D02*
X3526791D01*
X3206068Y1156469D02*
X3207292Y1156607D01*
X3204905Y1156062D02*
X3206068Y1156469D01*
X3203862Y1155406D02*
X3204905Y1156062D01*
X3202991Y1154536D02*
X3203862Y1155406D01*
X3202336Y1153493D02*
X3202991Y1154536D01*
X3201929Y1152330D02*
X3202336Y1153493D01*
X3201791Y1151106D02*
X3201929Y1152330D01*
X3201791Y1022106D02*
Y1151106D01*
Y1022106D02*
X3201929Y1020883D01*
X3202336Y1019720D01*
X3202991Y1018677D01*
X3203862Y1017806D01*
X3204905Y1017151D01*
X3206068Y1016744D01*
X3207292Y1016607D01*
X3208979D01*
X3209591Y1016537D01*
X3210172Y1016334D01*
X3210693Y1016006D01*
X3211129Y1015571D01*
X3211457Y1015050D01*
X3211660Y1014468D01*
X3211729Y1013856D01*
Y1007106D02*
Y1013856D01*
Y1007106D02*
X3211992Y1004770D01*
X3212769Y1002551D01*
X3214019Y1000560D01*
X3215682Y998897D01*
X3217673Y997646D01*
X3219892Y996870D01*
X3222229Y996607D01*
X3273729D01*
X3276065Y996870D01*
X3278285Y997646D01*
X3280275Y998897D01*
X3281938Y1000560D01*
X3283189Y1002551D01*
X3283965Y1004770D01*
X3284229Y1007106D01*
Y1013856D01*
X3284298Y1014468D01*
X3284501Y1015050D01*
X3284829Y1015571D01*
X3285264Y1016006D01*
X3285786Y1016334D01*
X3286367Y1016537D01*
X3286979Y1016607D01*
X3447104D01*
X3447716Y1016538D01*
X3448297Y1016334D01*
X3448818Y1016006D01*
X3449254Y1015571D01*
X3449582Y1015050D01*
X3449785Y1014468D01*
X3449854Y1013856D01*
X3273229Y641106D02*
X3273367Y639883D01*
X3273773Y638720D01*
X3274429Y637677D01*
X3275300Y636806D01*
X3276343Y636151D01*
X3277505Y635744D01*
X3278729Y635606D01*
X3407729D01*
X3408953Y635744D01*
X3410115Y636151D01*
X3411158Y636806D01*
X3412029Y637677D01*
X3412684Y638720D01*
X3413091Y639883D01*
X3413229Y641106D01*
Y770107D01*
X3413091Y771330D02*
X3413229Y770107D01*
X3412684Y772493D02*
X3413091Y771330D01*
X3412029Y773536D02*
X3412684Y772493D01*
X3411158Y774407D02*
X3412029Y773536D01*
X3410115Y775062D02*
X3411158Y774407D01*
X3408953Y775469D02*
X3410115Y775062D01*
X3407729Y775607D02*
X3408953Y775469D01*
X3278729Y775607D02*
X3407729D01*
X3277505Y775469D02*
X3278729Y775607D01*
X3276342Y775062D02*
X3277505Y775469D01*
X3275300Y774407D02*
X3276342Y775062D01*
X3274429Y773536D02*
X3275300Y774407D01*
X3273773Y772493D02*
X3274429Y773536D01*
X3273367Y771330D02*
X3273773Y772493D01*
X3273229Y770107D02*
X3273367Y771330D01*
X3273229Y641106D02*
Y770107D01*
X3246404Y961830D02*
X3246541Y960607D01*
X3245997Y962993D02*
X3246404Y961830D01*
X3245341Y964036D02*
X3245997Y962993D01*
X3244471Y964906D02*
X3245341Y964036D01*
X3243428Y965562D02*
X3244471Y964906D01*
X3242265Y965969D02*
X3243428Y965562D01*
X3241041Y966106D02*
X3242265Y965969D01*
X3112042Y966106D02*
X3241041D01*
X3110818Y965969D02*
X3112042Y966106D01*
X3109655Y965562D02*
X3110818Y965969D01*
X3108612Y964906D02*
X3109655Y965562D01*
X3107741Y964036D02*
X3108612Y964906D01*
X3107086Y962993D02*
X3107741Y964036D01*
X3106679Y961830D02*
X3107086Y962993D01*
X3106541Y960607D02*
X3106679Y961830D01*
X3106541Y831607D02*
Y960607D01*
Y831607D02*
X3106679Y830383D01*
X3107086Y829220D01*
X3107741Y828177D01*
X3108612Y827306D01*
X3109655Y826651D01*
X3110818Y826244D01*
X3112042Y826106D01*
X3241041D01*
X3242265Y826244D01*
X3243428Y826651D01*
X3244471Y827306D01*
X3245341Y828177D01*
X3245997Y829220D01*
X3246404Y830383D01*
X3246541Y831607D01*
Y960607D01*
X3270216Y580830D02*
X3270354Y579607D01*
X3269809Y581993D02*
X3270216Y580830D01*
X3269154Y583036D02*
X3269809Y581993D01*
X3268283Y583907D02*
X3269154Y583036D01*
X3267240Y584562D02*
X3268283Y583907D01*
X3266078Y584969D02*
X3267240Y584562D01*
X3264854Y585107D02*
X3266078Y584969D01*
X3135854Y585107D02*
X3264854D01*
X3134630Y584969D02*
X3135854Y585107D01*
X3133468Y584562D02*
X3134630Y584969D01*
X3132425Y583907D02*
X3133468Y584562D01*
X3131554Y583036D02*
X3132425Y583907D01*
X3130899Y581993D02*
X3131554Y583036D01*
X3130492Y580830D02*
X3130899Y581993D01*
X3130354Y579607D02*
X3130492Y580830D01*
X3130354Y450606D02*
Y579607D01*
Y450606D02*
X3130492Y449383D01*
X3130899Y448220D01*
X3131554Y447177D01*
X3132425Y446306D01*
X3133468Y445651D01*
X3134630Y445244D01*
X3135854Y445107D01*
X3264854D01*
X3266078Y445244D01*
X3267240Y445651D01*
X3268283Y446306D01*
X3269154Y447177D01*
X3269809Y448220D01*
X3270216Y449383D01*
X3270354Y450606D01*
Y579607D01*
X3532154Y580830D02*
X3532291Y579607D01*
X3531747Y581993D02*
X3532154Y580830D01*
X3531092Y583036D02*
X3531747Y581993D01*
X3530221Y583907D02*
X3531092Y583036D01*
X3529178Y584562D02*
X3530221Y583907D01*
X3528015Y584969D02*
X3529178Y584562D01*
X3526791Y585107D02*
X3528015Y584969D01*
X3397791Y585107D02*
X3526791D01*
X3396568Y584969D02*
X3397791Y585107D01*
X3395405Y584562D02*
X3396568Y584969D01*
X3394362Y583907D02*
X3395405Y584562D01*
X3393492Y583036D02*
X3394362Y583907D01*
X3392836Y581993D02*
X3393492Y583036D01*
X3392430Y580830D02*
X3392836Y581993D01*
X3392292Y579607D02*
X3392430Y580830D01*
X3392292Y450606D02*
Y579607D01*
Y450606D02*
X3392430Y449383D01*
X3392836Y448220D01*
X3393492Y447177D01*
X3394362Y446306D01*
X3395405Y445651D01*
X3396568Y445244D01*
X3397791Y445107D01*
X3526791D01*
X3528015Y445244D01*
X3529178Y445651D01*
X3530221Y446306D01*
X3531092Y447177D01*
X3531747Y448220D01*
X3532154Y449383D01*
X3532291Y450606D01*
Y579607D01*
X3587068Y394469D02*
X3588292Y394607D01*
X3585905Y394062D02*
X3587068Y394469D01*
X3584862Y393406D02*
X3585905Y394062D01*
X3583991Y392536D02*
X3584862Y393406D01*
X3583336Y391493D02*
X3583991Y392536D01*
X3582929Y390330D02*
X3583336Y391493D01*
X3582791Y389106D02*
X3582929Y390330D01*
X3582791Y260107D02*
Y389106D01*
Y260107D02*
X3582929Y258883D01*
X3583336Y257720D01*
X3583991Y256677D01*
X3584862Y255806D01*
X3585905Y255151D01*
X3587068Y254744D01*
X3588292Y254606D01*
X3717291D01*
X3718515Y254744D01*
X3719678Y255151D01*
X3720721Y255806D01*
X3721591Y256677D01*
X3722247Y257720D01*
X3722654Y258883D01*
X3722791Y260107D01*
Y389106D01*
X3722654Y390330D02*
X3722791Y389106D01*
X3722247Y391493D02*
X3722654Y390330D01*
X3721591Y392536D02*
X3722247Y391493D01*
X3720721Y393407D02*
X3721591Y392536D01*
X3719678Y394062D02*
X3720721Y393407D01*
X3718515Y394469D02*
X3719678Y394062D01*
X3717291Y394607D02*
X3718515Y394469D01*
X3588292Y394607D02*
X3717291Y394607D01*
X3587068Y775469D02*
X3588292Y775607D01*
X3585905Y775062D02*
X3587068Y775469D01*
X3584862Y774407D02*
X3585905Y775062D01*
X3583991Y773536D02*
X3584862Y774407D01*
X3583336Y772493D02*
X3583991Y773536D01*
X3582929Y771330D02*
X3583336Y772493D01*
X3582791Y770107D02*
X3582929Y771330D01*
X3582791Y641106D02*
Y770107D01*
Y641106D02*
X3582929Y639883D01*
X3583336Y638720D01*
X3583991Y637677D01*
X3584862Y636806D01*
X3585905Y636151D01*
X3587068Y635744D01*
X3588292Y635606D01*
X3717291Y635606D01*
X3718515Y635744D01*
X3719678Y636151D01*
X3720721Y636806D01*
X3721591Y637677D01*
X3722247Y638720D01*
X3722654Y639883D01*
X3722791Y641106D01*
Y770107D01*
X3722654Y771330D02*
X3722791Y770107D01*
X3722247Y772493D02*
X3722654Y771330D01*
X3721591Y773536D02*
X3722247Y772493D01*
X3720721Y774407D02*
X3721591Y773536D01*
X3719678Y775062D02*
X3720721Y774407D01*
X3718515Y775469D02*
X3719678Y775062D01*
X3717291Y775607D02*
X3718515Y775469D01*
X3588292Y775607D02*
X3717291D01*
X3026729Y254606D02*
X3027953Y254744D01*
X3029115Y255151D01*
X3030158Y255806D01*
X3031029Y256677D01*
X3031684Y257720D01*
X3032091Y258883D01*
X3032229Y260106D01*
Y389106D01*
X3032091Y390330D02*
X3032229Y389106D01*
X3031684Y391493D02*
X3032091Y390330D01*
X3031029Y392536D02*
X3031684Y391493D01*
X3030158Y393406D02*
X3031029Y392536D01*
X3029115Y394062D02*
X3030158Y393406D01*
X3027953Y394469D02*
X3029115Y394062D01*
X3026729Y394606D02*
X3027953Y394469D01*
X2873917Y394606D02*
X3026729D01*
X2872693Y394469D02*
X2873917Y394606D01*
X2871530Y394062D02*
X2872693Y394469D01*
X2870487Y393406D02*
X2871530Y394062D01*
X2869616Y392536D02*
X2870487Y393406D01*
X2868961Y391493D02*
X2869616Y392536D01*
X2868554Y390330D02*
X2868961Y391493D01*
X2868416Y389106D02*
X2868554Y390330D01*
X2868416Y260106D02*
Y389106D01*
Y260106D02*
X2868554Y258883D01*
X2868961Y257720D01*
X2869616Y256677D01*
X2870487Y255806D01*
X2871530Y255151D01*
X2872693Y254744D01*
X2873917Y254606D01*
X3026729Y254606D01*
X931229Y635606D02*
X932453Y635744D01*
X933615Y636151D01*
X934658Y636806D01*
X935529Y637677D01*
X936184Y638720D01*
X936591Y639882D01*
X936729Y641106D01*
Y770106D01*
X936591Y771330D02*
X936729Y770106D01*
X936184Y772493D02*
X936591Y771330D01*
X935529Y773536D02*
X936184Y772493D01*
X934658Y774406D02*
X935529Y773536D01*
X933615Y775062D02*
X934658Y774406D01*
X932453Y775468D02*
X933615Y775062D01*
X931229Y775606D02*
X932453Y775468D01*
X754604Y775606D02*
X931229D01*
X753380Y775468D02*
X754604Y775606D01*
X752218Y775062D02*
X753380Y775468D01*
X751175Y774406D02*
X752218Y775062D01*
X750304Y773536D02*
X751175Y774406D01*
X749649Y772493D02*
X750304Y773536D01*
X749242Y771330D02*
X749649Y772493D01*
X749104Y770106D02*
X749242Y771330D01*
X749104Y641106D02*
Y770106D01*
Y641106D02*
X749242Y639882D01*
X749649Y638720D01*
X750304Y637677D01*
X751175Y636806D01*
X752218Y636151D01*
X753380Y635744D01*
X754604Y635606D01*
X931229Y635606D01*
X859791Y1016606D02*
X861015Y1016744D01*
X862178Y1017151D01*
X863221Y1017806D01*
X864091Y1018677D01*
X864747Y1019720D01*
X865154Y1020882D01*
X865291Y1022106D01*
X865291Y1151106D02*
X865291Y1022106D01*
X865154Y1152330D02*
X865291Y1151106D01*
X864747Y1153493D02*
X865154Y1152330D01*
X864091Y1154536D02*
X864747Y1153493D01*
X863221Y1155406D02*
X864091Y1154536D01*
X862178Y1156062D02*
X863221Y1155406D01*
X861015Y1156468D02*
X862178Y1156062D01*
X859791Y1156606D02*
X861015Y1156468D01*
X730791Y1156606D02*
X859791D01*
X729568Y1156468D02*
X730791Y1156606D01*
X728405Y1156062D02*
X729568Y1156468D01*
X727362Y1155406D02*
X728405Y1156062D01*
X726491Y1154536D02*
X727362Y1155406D01*
X725836Y1153493D02*
X726491Y1154536D01*
X725429Y1152330D02*
X725836Y1153493D01*
X725291Y1151106D02*
X725429Y1152330D01*
X725291Y1151106D02*
X725291Y1022106D01*
X725429Y1020882D01*
X725836Y1019720D01*
X726491Y1018677D01*
X727362Y1017806D01*
X728405Y1017151D01*
X729568Y1016744D01*
X730791Y1016606D01*
X859791D01*
X1583042Y264606D02*
X1585378Y264870D01*
X1587597Y265646D01*
X1589588Y266897D01*
X1591251Y268560D01*
X1592502Y270550D01*
X1593278Y272770D01*
X1593541Y275106D01*
Y404106D01*
X1593278Y406443D02*
X1593541Y404106D01*
X1592502Y408662D02*
X1593278Y406443D01*
X1591251Y410653D02*
X1592502Y408662D01*
X1589588Y412315D02*
X1591251Y410653D01*
X1587597Y413567D02*
X1589588Y412315D01*
X1585378Y414343D02*
X1587597Y413567D01*
X1583042Y414606D02*
X1585378Y414343D01*
X1483916Y414606D02*
X1583042D01*
X1481580Y414343D02*
X1483916Y414606D01*
X1479361Y413567D02*
X1481580Y414343D01*
X1477370Y412315D02*
X1479361Y413567D01*
X1475707Y410653D02*
X1477370Y412315D01*
X1474456Y408662D02*
X1475707Y410653D01*
X1473680Y406443D02*
X1474456Y408662D01*
X1473416Y404106D02*
X1473680Y406443D01*
X1473416Y275106D02*
Y404106D01*
Y275106D02*
X1473680Y272770D01*
X1474456Y270550D01*
X1475707Y268560D01*
X1477370Y266897D01*
X1479361Y265646D01*
X1481580Y264869D01*
X1483916Y264606D01*
X1583042Y264606D01*
X1722404Y961830D02*
X1722541Y960606D01*
X1721997Y962993D02*
X1722404Y961830D01*
X1721342Y964036D02*
X1721997Y962993D01*
X1720471Y964906D02*
X1721342Y964036D01*
X1719428Y965562D02*
X1720471Y964906D01*
X1718265Y965968D02*
X1719428Y965562D01*
X1717041Y966106D02*
X1718265Y965968D01*
X1588041Y966106D02*
X1717041Y966106D01*
X1586818Y965968D02*
X1588041Y966106D01*
X1585655Y965562D02*
X1586818Y965968D01*
X1584612Y964906D02*
X1585655Y965562D01*
X1583741Y964035D02*
X1584612Y964906D01*
X1583086Y962993D02*
X1583741Y964035D01*
X1582679Y961830D02*
X1583086Y962993D01*
X1582541Y960606D02*
X1582679Y961830D01*
X1582541Y831606D02*
Y960606D01*
Y831606D02*
X1582679Y830382D01*
X1583086Y829220D01*
X1583741Y828177D01*
X1584612Y827306D01*
X1585655Y826651D01*
X1586818Y826244D01*
X1588041Y826106D01*
X1717041Y826106D01*
X1718265Y826244D01*
X1719428Y826651D01*
X1720471Y827306D01*
X1721342Y828177D01*
X1721997Y829220D01*
X1722404Y830383D01*
X1722541Y831606D01*
Y960606D01*
X1674778Y580830D02*
X1674916Y579606D01*
X1674372Y581993D02*
X1674778Y580830D01*
X1673716Y583036D02*
X1674372Y581993D01*
X1672846Y583906D02*
X1673716Y583036D01*
X1671803Y584562D02*
X1672846Y583906D01*
X1670640Y584968D02*
X1671803Y584562D01*
X1669416Y585106D02*
X1670640Y584968D01*
X1540416Y585106D02*
X1669416D01*
X1539193Y584968D02*
X1540416Y585106D01*
X1538030Y584562D02*
X1539193Y584968D01*
X1536987Y583906D02*
X1538030Y584562D01*
X1536116Y583036D02*
X1536987Y583906D01*
X1535461Y581993D02*
X1536116Y583036D01*
X1535054Y580830D02*
X1535461Y581993D01*
X1534916Y579606D02*
X1535054Y580830D01*
X1534916Y450606D02*
Y579606D01*
Y450606D02*
X1535054Y449382D01*
X1535461Y448220D01*
X1536116Y447177D01*
X1536987Y446306D01*
X1538030Y445651D01*
X1539193Y445244D01*
X1540416Y445106D01*
X1669416D01*
X1670640Y445244D01*
X1671803Y445651D01*
X1672846Y446306D01*
X1673716Y447177D01*
X1674372Y448220D01*
X1674778Y449382D01*
X1674916Y450606D01*
Y579606D01*
X2586942Y775469D02*
X2588167Y775606D01*
X2585780Y775062D02*
X2586942Y775469D01*
X2584737Y774407D02*
X2585780Y775062D01*
X2583866Y773536D02*
X2584737Y774407D01*
X2583211Y772493D02*
X2583866Y773536D01*
X2582804Y771330D02*
X2583211Y772493D01*
X2582666Y770106D02*
X2582804Y771330D01*
X2582666Y770106D02*
X2582667Y641106D01*
X2582804Y639883D01*
X2583211Y638720D01*
X2583866Y637677D01*
X2584737Y636806D01*
X2585780Y636151D01*
X2586943Y635744D01*
X2588167Y635606D01*
X2717166D01*
X2718390Y635744D01*
X2719553Y636151D01*
X2720596Y636806D01*
X2721466Y637677D01*
X2722122Y638720D01*
X2722529Y639883D01*
X2722666Y641106D01*
Y770106D01*
X2722528Y771330D02*
X2722666Y770106D01*
X2722122Y772493D02*
X2722528Y771330D01*
X2721466Y773536D02*
X2722122Y772493D01*
X2720596Y774407D02*
X2721466Y773536D01*
X2719553Y775062D02*
X2720596Y774407D01*
X2718390Y775469D02*
X2719553Y775062D01*
X2717166Y775606D02*
X2718390Y775469D01*
X2588167Y775606D02*
X2717166D01*
X1955166Y635606D02*
X1956390Y635744D01*
X1957553Y636151D01*
X1958596Y636806D01*
X1959467Y637677D01*
X1960122Y638720D01*
X1960529Y639883D01*
X1960667Y641106D01*
X1960666Y770106D02*
X1960667Y641106D01*
X1960529Y771330D02*
X1960666Y770106D01*
X1960122Y772493D02*
X1960529Y771330D01*
X1959467Y773536D02*
X1960122Y772493D01*
X1958596Y774406D02*
X1959467Y773536D01*
X1957553Y775062D02*
X1958596Y774406D01*
X1956390Y775469D02*
X1957553Y775062D01*
X1955166Y775606D02*
X1956390Y775469D01*
X1826166Y775606D02*
X1955166D01*
X1824942Y775468D02*
X1826166Y775606D01*
X1823780Y775062D02*
X1824942Y775468D01*
X1822737Y774406D02*
X1823780Y775062D01*
X1821866Y773536D02*
X1822737Y774406D01*
X1821211Y772493D02*
X1821866Y773536D01*
X1820804Y771330D02*
X1821211Y772493D01*
X1820666Y770106D02*
X1820804Y771330D01*
X1820666Y770106D02*
X1820667Y641106D01*
X1820804Y639882D01*
X1821211Y638720D01*
X1821866Y637677D01*
X1822737Y636806D01*
X1823780Y636151D01*
X1824943Y635744D01*
X1826167Y635606D01*
X1955166Y635606D01*
X2151028Y771330D02*
X2151166Y770106D01*
X2150622Y772493D02*
X2151028Y771330D01*
X2149966Y773536D02*
X2150622Y772493D01*
X2149096Y774406D02*
X2149966Y773536D01*
X2148053Y775062D02*
X2149096Y774406D01*
X2146890Y775469D02*
X2148053Y775062D01*
X2145666Y775606D02*
X2146890Y775469D01*
X2016666Y775606D02*
X2145666D01*
X2015443Y775469D02*
X2016666Y775606D01*
X2014280Y775062D02*
X2015443Y775469D01*
X2013237Y774406D02*
X2014280Y775062D01*
X2012366Y773536D02*
X2013237Y774406D01*
X2011711Y772493D02*
X2012366Y773536D01*
X2011304Y771330D02*
X2011711Y772493D01*
X2011166Y770106D02*
X2011304Y771330D01*
X2011166Y770106D02*
X2011167Y641106D01*
X2011304Y639883D01*
X2011711Y638720D01*
X2012366Y637677D01*
X2013237Y636806D01*
X2014280Y636151D01*
X2015443Y635744D01*
X2016667Y635606D01*
X2145667D01*
X2146890Y635744D01*
X2148053Y636151D01*
X2149096Y636806D01*
X2149966Y637677D01*
X2150622Y638720D01*
X2151028Y639883D01*
X2151167Y641106D01*
X2151166Y770106D02*
X2151167Y641106D01*
X2198654Y1152330D02*
X2198791Y1151106D01*
X2198247Y1153493D02*
X2198654Y1152330D01*
X2197592Y1154536D02*
X2198247Y1153493D01*
X2196721Y1155406D02*
X2197592Y1154536D01*
X2195678Y1156062D02*
X2196721Y1155406D01*
X2194515Y1156468D02*
X2195678Y1156062D01*
X2193291Y1156606D02*
X2194515Y1156468D01*
X2064291Y1156606D02*
X2193291D01*
X2063067Y1156468D02*
X2064291Y1156606D01*
X2061905Y1156062D02*
X2063067Y1156468D01*
X2060862Y1155406D02*
X2061905Y1156062D01*
X2059991Y1154536D02*
X2060862Y1155406D01*
X2059336Y1153493D02*
X2059991Y1154536D01*
X2058929Y1152330D02*
X2059336Y1153493D01*
X2058791Y1151106D02*
X2058929Y1152330D01*
X2058791Y1022106D02*
Y1151106D01*
Y1022106D02*
X2058929Y1020882D01*
X2059336Y1019720D01*
X2059991Y1018677D01*
X2060862Y1017806D01*
X2061905Y1017151D01*
X2063067Y1016744D01*
X2064291Y1016606D01*
X2193291D01*
X2194515Y1016744D01*
X2195678Y1017151D01*
X2196721Y1017806D01*
X2197592Y1018677D01*
X2198247Y1019720D01*
X2198654Y1020882D01*
X2198791Y1022106D01*
Y1151106D01*
X2532029Y771330D02*
X2532166Y770106D01*
X2531622Y772493D02*
X2532029Y771330D01*
X2530966Y773536D02*
X2531622Y772493D01*
X2530096Y774407D02*
X2530966Y773536D01*
X2529053Y775062D02*
X2530096Y774407D01*
X2527890Y775469D02*
X2529053Y775062D01*
X2526666Y775606D02*
X2527890Y775469D01*
X2397666Y775606D02*
X2526666D01*
X2396443Y775469D02*
X2397666Y775606D01*
X2395280Y775062D02*
X2396443Y775469D01*
X2394237Y774407D02*
X2395280Y775062D01*
X2393366Y773536D02*
X2394237Y774407D01*
X2392711Y772493D02*
X2393366Y773536D01*
X2392304Y771330D02*
X2392711Y772493D01*
X2392166Y770106D02*
X2392304Y771330D01*
X2392166Y770106D02*
X2392166Y641106D01*
X2392304Y639883D01*
X2392711Y638720D01*
X2393366Y637677D01*
X2394237Y636806D01*
X2395280Y636151D01*
X2396443Y635744D01*
X2397666Y635606D01*
X2526667Y635606D01*
X2527890Y635744D01*
X2529053Y636151D01*
X2530096Y636806D01*
X2530966Y637677D01*
X2531622Y638720D01*
X2532029Y639883D01*
X2532166Y641106D01*
X2532166Y770106D02*
X2532166Y641106D01*
X2293904Y961830D02*
X2294041Y960606D01*
X2293497Y962993D02*
X2293904Y961830D01*
X2292841Y964036D02*
X2293497Y962993D01*
X2291971Y964906D02*
X2292841Y964036D01*
X2290928Y965562D02*
X2291971Y964906D01*
X2289765Y965968D02*
X2290928Y965562D01*
X2288541Y966106D02*
X2289765Y965968D01*
X2159541Y966106D02*
X2288541D01*
X2158318Y965968D02*
X2159541Y966106D01*
X2157155Y965562D02*
X2158318Y965968D01*
X2156112Y964906D02*
X2157155Y965562D01*
X2155241Y964036D02*
X2156112Y964906D01*
X2154586Y962993D02*
X2155241Y964036D01*
X2154179Y961830D02*
X2154586Y962993D01*
X2154041Y960606D02*
X2154179Y961830D01*
X2154041Y831606D02*
Y960606D01*
Y831606D02*
X2154179Y830383D01*
X2154586Y829220D01*
X2155241Y828177D01*
X2156112Y827306D01*
X2157155Y826651D01*
X2158318Y826244D01*
X2159541Y826106D01*
X2288541D01*
X2289765Y826244D01*
X2290928Y826651D01*
X2291971Y827306D01*
X2292841Y828177D01*
X2293497Y829220D01*
X2293904Y830383D01*
X2294041Y831606D01*
Y960606D01*
X2341528Y771330D02*
X2341666Y770106D01*
X2341122Y772493D02*
X2341528Y771330D01*
X2340466Y773536D02*
X2341122Y772493D01*
X2339596Y774407D02*
X2340466Y773536D01*
X2338553Y775062D02*
X2339596Y774407D01*
X2337390Y775469D02*
X2338553Y775062D01*
X2336166Y775606D02*
X2337390Y775469D01*
X2207166Y775606D02*
X2336166D01*
X2205943Y775469D02*
X2207166Y775606D01*
X2204780Y775062D02*
X2205943Y775469D01*
X2203737Y774406D02*
X2204780Y775062D01*
X2202866Y773536D02*
X2203737Y774406D01*
X2202211Y772493D02*
X2202866Y773536D01*
X2201804Y771330D02*
X2202211Y772493D01*
X2201666Y770106D02*
X2201804Y771330D01*
X2201666Y770106D02*
X2201667Y641106D01*
X2201804Y639883D01*
X2202211Y638720D01*
X2202866Y637677D01*
X2203737Y636806D01*
X2204780Y636151D01*
X2205943Y635744D01*
X2207166Y635606D01*
X2336167D01*
X2337390Y635744D01*
X2338553Y636151D01*
X2339596Y636806D01*
X2340466Y637677D01*
X2341122Y638720D01*
X2341528Y639883D01*
X2341667Y641106D01*
X2341666Y770106D02*
X2341667Y641106D01*
X2579654Y1152330D02*
X2579791Y1151106D01*
X2579247Y1153493D02*
X2579654Y1152330D01*
X2578592Y1154536D02*
X2579247Y1153493D01*
X2577721Y1155406D02*
X2578592Y1154536D01*
X2576678Y1156062D02*
X2577721Y1155406D01*
X2575515Y1156469D02*
X2576678Y1156062D01*
X2574291Y1156606D02*
X2575515Y1156469D01*
X2445291Y1156606D02*
X2574291D01*
X2444068Y1156469D02*
X2445291Y1156606D01*
X2442905Y1156062D02*
X2444068Y1156469D01*
X2441862Y1155406D02*
X2442905Y1156062D01*
X2440991Y1154536D02*
X2441862Y1155406D01*
X2440336Y1153493D02*
X2440991Y1154536D01*
X2439929Y1152330D02*
X2440336Y1153493D01*
X2439791Y1151106D02*
X2439929Y1152330D01*
X2439791Y1022106D02*
Y1151106D01*
Y1022106D02*
X2439929Y1020882D01*
X2440336Y1019720D01*
X2440991Y1018677D01*
X2441862Y1017806D01*
X2442905Y1017151D01*
X2444068Y1016744D01*
X2445291Y1016606D01*
X2574291D01*
X2575515Y1016744D01*
X2576678Y1017151D01*
X2577721Y1017806D01*
X2578592Y1018677D01*
X2579247Y1019720D01*
X2579654Y1020882D01*
X2579791Y1022106D01*
Y1151106D01*
X2484041Y264606D02*
X2535541D01*
X2537878Y264870D01*
X2540097Y265646D01*
X2542088Y266897D01*
X2543751Y268560D01*
X2545002Y270551D01*
X2545778Y272770D01*
X2546042Y275106D01*
Y404106D01*
X2545778Y406443D02*
X2546042Y404106D01*
X2545002Y408662D02*
X2545778Y406443D01*
X2543751Y410653D02*
X2545002Y408662D01*
X2542088Y412316D02*
X2543751Y410653D01*
X2540097Y413567D02*
X2542088Y412316D01*
X2537878Y414343D02*
X2540097Y413567D01*
X2535541Y414606D02*
X2537878Y414343D01*
X2484041Y414606D02*
X2535541D01*
X2481705Y414343D02*
X2484041Y414606D01*
X2479486Y413567D02*
X2481705Y414343D01*
X2477495Y412316D02*
X2479486Y413567D01*
X2475832Y410653D02*
X2477495Y412316D01*
X2474581Y408662D02*
X2475832Y410653D01*
X2473805Y406443D02*
X2474581Y408662D01*
X2473542Y404106D02*
X2473805Y406443D01*
X2473542Y275106D02*
Y404106D01*
Y275106D02*
X2473805Y272770D01*
X2474581Y270551D01*
X2475832Y268560D01*
X2477495Y266897D01*
X2479486Y265646D01*
X2481705Y264870D01*
X2484041Y264606D01*
X2539317Y965968D02*
X2540541Y966106D01*
X2538155Y965562D02*
X2539317Y965968D01*
X2537112Y964906D02*
X2538155Y965562D01*
X2536241Y964036D02*
X2537112Y964906D01*
X2535586Y962993D02*
X2536241Y964036D01*
X2535179Y961830D02*
X2535586Y962993D01*
X2535041Y960606D02*
X2535179Y961830D01*
X2535041Y831606D02*
Y960606D01*
Y831606D02*
X2535179Y830383D01*
X2535586Y829220D01*
X2536241Y828177D01*
X2537112Y827306D01*
X2538155Y826651D01*
X2539317Y826244D01*
X2540541Y826106D01*
X2669541D01*
X2670765Y826244D01*
X2671928Y826651D01*
X2672971Y827306D01*
X2673842Y828177D01*
X2674497Y829220D01*
X2674903Y830383D01*
X2675042Y831606D01*
Y960606D01*
X2674903Y961830D02*
X2675042Y960606D01*
X2674497Y962993D02*
X2674903Y961830D01*
X2673842Y964036D02*
X2674497Y962993D01*
X2672971Y964906D02*
X2673842Y964036D01*
X2671928Y965562D02*
X2672971Y964906D01*
X2670765Y965968D02*
X2671928Y965562D01*
X2669541Y966106D02*
X2670765Y965968D01*
X2540541Y966106D02*
X2669541D01*
X2913028Y771330D02*
X2913167Y770106D01*
X2912622Y772493D02*
X2913028Y771330D01*
X2911967Y773536D02*
X2912622Y772493D01*
X2911096Y774407D02*
X2911967Y773536D01*
X2910053Y775062D02*
X2911096Y774407D01*
X2908890Y775469D02*
X2910053Y775062D01*
X2907666Y775607D02*
X2908890Y775469D01*
X2778666Y775606D02*
X2907666Y775607D01*
X2777443Y775469D02*
X2778666Y775606D01*
X2776280Y775062D02*
X2777443Y775469D01*
X2775237Y774407D02*
X2776280Y775062D01*
X2774366Y773536D02*
X2775237Y774407D01*
X2773711Y772493D02*
X2774366Y773536D01*
X2773304Y771330D02*
X2773711Y772493D01*
X2773167Y770106D02*
X2773304Y771330D01*
X2773167Y641106D02*
Y770106D01*
Y641106D02*
X2773304Y639883D01*
X2773711Y638720D01*
X2774366Y637677D01*
X2775237Y636806D01*
X2776280Y636151D01*
X2777443Y635744D01*
X2778666Y635606D01*
X2907666D01*
X2908890Y635744D01*
X2910053Y636151D01*
X2911096Y636806D01*
X2911967Y637677D01*
X2912622Y638720D01*
X2913029Y639883D01*
X2913167Y641106D01*
Y770106D01*
X2817779Y580830D02*
X2817916Y579606D01*
X2817372Y581993D02*
X2817779Y580830D01*
X2816717Y583036D02*
X2817372Y581993D01*
X2815846Y583907D02*
X2816717Y583036D01*
X2814803Y584562D02*
X2815846Y583907D01*
X2813640Y584969D02*
X2814803Y584562D01*
X2812416Y585106D02*
X2813640Y584969D01*
X2683416Y585106D02*
X2812416D01*
X2682193Y584968D02*
X2683416Y585106D01*
X2681030Y584562D02*
X2682193Y584968D01*
X2679987Y583907D02*
X2681030Y584562D01*
X2679117Y583036D02*
X2679987Y583907D01*
X2678461Y581993D02*
X2679117Y583036D01*
X2678055Y580830D02*
X2678461Y581993D01*
X2677917Y579606D02*
X2678055Y580830D01*
X2677917Y450606D02*
Y579606D01*
Y450606D02*
X2678055Y449383D01*
X2678461Y448220D01*
X2679117Y447177D01*
X2679987Y446306D01*
X2681030Y445651D01*
X2682193Y445244D01*
X2683416Y445106D01*
X2812416D01*
X2813640Y445244D01*
X2814803Y445651D01*
X2815846Y446306D01*
X2816717Y447177D01*
X2817372Y448220D01*
X2817779Y449383D01*
X2817916Y450606D01*
Y579606D01*
X2250232Y179835D02*
X2252873Y180106D01*
X2247702Y179034D02*
X2250232Y179835D01*
X2245387Y177735D02*
X2247702Y179034D01*
X2243384Y175992D02*
X2245387Y177735D01*
X2239301Y172441D02*
X2243384Y175992D01*
X2234583Y169793D02*
X2239301Y172441D01*
X2229424Y168159D02*
X2234583Y169793D01*
X2224041Y167606D02*
X2229424Y168159D01*
X2218659D02*
X2224041Y167606D01*
X2213500Y169793D02*
X2218659Y168159D01*
X2208781Y172441D02*
X2213500Y169793D01*
X2204699Y175992D02*
X2208781Y172441D01*
X2202696Y177735D02*
X2204699Y175992D01*
X2200381Y179034D02*
X2202696Y177735D01*
X2197851Y179835D02*
X2200381Y179034D01*
X2195210Y180106D02*
X2197851Y179835D01*
X1832791Y180106D02*
X2195210Y180106D01*
X1829899Y180432D02*
X1832791Y180106D01*
X1827151Y181394D02*
X1829899Y180432D01*
X1824686Y182943D02*
X1827151Y181394D01*
X1822628Y185001D02*
X1824686Y182943D01*
X1821079Y187466D02*
X1822628Y185001D01*
X1820117Y190214D02*
X1821079Y187466D01*
X1819792Y193106D02*
X1820117Y190214D01*
X1819792Y193106D02*
Y221606D01*
X1819597Y223331D02*
X1819792Y221606D01*
X1819024Y224969D02*
X1819597Y223331D01*
X1818101Y226438D02*
X1819024Y224969D01*
X1816873Y227666D02*
X1818101Y226438D01*
X1815404Y228589D02*
X1816873Y227666D01*
X1813766Y229162D02*
X1815404Y228589D01*
X1812041Y229356D02*
X1813766Y229162D01*
X1468792Y229356D02*
X1812041Y229356D01*
X1467067Y229162D02*
X1468792Y229356D01*
X1465429Y228589D02*
X1467067Y229162D01*
X1463959Y227666D02*
X1465429Y228589D01*
X1462732Y226438D02*
X1463959Y227666D01*
X1461809Y224969D02*
X1462732Y226438D01*
X1461236Y223331D02*
X1461809Y224969D01*
X1461042Y221606D02*
X1461236Y223331D01*
X1461042Y193106D02*
Y221606D01*
X1460715Y190214D02*
X1461042Y193106D01*
X1459754Y187466D02*
X1460715Y190214D01*
X1458205Y185001D02*
X1459754Y187466D01*
X1456147Y182943D02*
X1458205Y185001D01*
X1453682Y181394D02*
X1456147Y182943D01*
X1450934Y180432D02*
X1453682Y181394D01*
X1448042Y180106D02*
X1450934Y180432D01*
X1085623Y180106D02*
X1448042Y180106D01*
X1082982Y179835D02*
X1085623Y180106D01*
X1080452Y179034D02*
X1082982Y179835D01*
X1078137Y177735D02*
X1080452Y179034D01*
X1076134Y175992D02*
X1078137Y177735D01*
X1072051Y172441D02*
X1076134Y175992D01*
X1067333Y169793D02*
X1072051Y172441D01*
X1062174Y168159D02*
X1067333Y169793D01*
X1056792Y167606D02*
X1062174Y168159D01*
X1051409D02*
X1056792Y167606D01*
X1046250Y169793D02*
X1051409Y168159D01*
X1041532Y172441D02*
X1046250Y169793D01*
X1037449Y175992D02*
X1041532Y172441D01*
X1035446Y177735D02*
X1037449Y175992D01*
X1033131Y179034D02*
X1035446Y177735D01*
X1030601Y179835D02*
X1033131Y179034D01*
X1027960Y180106D02*
X1030601Y179835D01*
X792291Y180106D02*
X1027960Y180106D01*
X789399Y180432D02*
X792291Y180106D01*
X786651Y181394D02*
X789399Y180432D01*
X784186Y182942D02*
X786651Y181394D01*
X782128Y185001D02*
X784186Y182942D01*
X780579Y187466D02*
X782128Y185001D01*
X779617Y190214D02*
X780579Y187466D01*
X779292Y193106D02*
X779617Y190214D01*
X779292Y193106D02*
Y221606D01*
X779097Y223331D02*
X779292Y221606D01*
X778524Y224969D02*
X779097Y223331D01*
X777601Y226438D02*
X778524Y224969D01*
X776374Y227665D02*
X777601Y226438D01*
X774904Y228589D02*
X776374Y227665D01*
X773266Y229162D02*
X774904Y228589D01*
X771542Y229356D02*
X773266Y229162D01*
X707792Y229356D02*
X771542D01*
X706067Y229550D02*
X707792Y229356D01*
X704429Y230124D02*
X706067Y229550D01*
X702959Y231047D02*
X704429Y230124D01*
X701732Y232274D02*
X702959Y231047D01*
X700809Y233744D02*
X701732Y232274D01*
X700236Y235382D02*
X700809Y233744D01*
X700042Y237106D02*
X700236Y235382D01*
X700041Y1174106D02*
X700042Y237106D01*
X700041Y1174106D02*
X700236Y1175831D01*
X700809Y1177469D01*
X701732Y1178938D01*
X702959Y1180165D01*
X704429Y1181089D01*
X706067Y1181662D01*
X707791Y1181856D01*
X771541D01*
X773266Y1182051D01*
X774904Y1182624D01*
X776374Y1183547D01*
X777601Y1184774D01*
X778524Y1186244D01*
X779097Y1187882D01*
X779291Y1189606D01*
Y1218106D01*
X779617Y1220999D01*
X780579Y1223747D01*
X782128Y1226212D01*
X784186Y1228270D01*
X786651Y1229819D01*
X789399Y1230780D01*
X792291Y1231106D01*
X1027960D01*
X1030601Y1231377D01*
X1033131Y1232179D01*
X1035446Y1233478D01*
X1037449Y1235220D01*
X1041531Y1238772D01*
X1046250Y1241420D01*
X1051409Y1243054D01*
X1056791Y1243606D01*
X1062174Y1243054D01*
X1067333Y1241420D01*
X1072051Y1238772D01*
X1076134Y1235220D01*
X1078137Y1233478D01*
X1080452Y1232179D01*
X1082982Y1231377D01*
X1085623Y1231106D01*
X1448041D01*
X1450934Y1230780D01*
X1453682Y1229819D01*
X1456147Y1228270D01*
X1458205Y1226212D01*
X1459754Y1223747D01*
X1460715Y1220999D01*
X1461041Y1218106D01*
Y1189606D02*
Y1218106D01*
Y1189606D02*
X1461236Y1187882D01*
X1461809Y1186244D01*
X1462732Y1184774D01*
X1463959Y1183547D01*
X1465429Y1182624D01*
X1467067Y1182051D01*
X1468791Y1181856D01*
X1812041D01*
X1813766Y1182051D01*
X1815404Y1182624D01*
X1816873Y1183547D01*
X1818101Y1184774D01*
X1819024Y1186244D01*
X1819597Y1187882D01*
X1819791Y1189606D01*
Y1218106D01*
X1820117Y1220999D01*
X1821079Y1223747D01*
X1822628Y1226212D01*
X1824686Y1228270D01*
X1827151Y1229819D01*
X1829899Y1230780D01*
X1832791Y1231106D01*
X2195210D01*
X2197851Y1231377D01*
X2200381Y1232179D01*
X2202696Y1233478D01*
X2204699Y1235220D01*
X2208781Y1238772D01*
X2213500Y1241420D01*
X2218659Y1243054D01*
X2224041Y1243606D01*
X2229424Y1243054D01*
X2234583Y1241420D01*
X2239301Y1238772D01*
X2243384Y1235220D01*
X2245387Y1233478D01*
X2247702Y1232179D01*
X2250232Y1231377D01*
X2252873Y1231106D01*
X2615291D01*
X2618184Y1230780D01*
X2620932Y1229819D01*
X2623397Y1228270D01*
X2625455Y1226212D01*
X2627004Y1223747D01*
X2627965Y1220999D01*
X2628291Y1218106D01*
Y1189606D02*
Y1218106D01*
Y1189606D02*
X2628486Y1187882D01*
X2629059Y1186244D01*
X2629982Y1184774D01*
X2631209Y1183547D01*
X2632679Y1182624D01*
X2634317Y1182051D01*
X2636041Y1181856D01*
X2979291D01*
X2981016Y1182051D01*
X2982654Y1182624D01*
X2984124Y1183547D01*
X2985351Y1184774D01*
X2986274Y1186244D01*
X2986847Y1187882D01*
X2987041Y1189606D01*
Y1218106D01*
X2987367Y1220999D01*
X2988329Y1223747D01*
X2989878Y1226212D01*
X2991936Y1228270D01*
X2994401Y1229819D01*
X2997148Y1230780D01*
X3000041Y1231106D01*
X3362460D01*
X3365101Y1231377D01*
X3367631Y1232179D01*
X3369946Y1233478D01*
X3371949Y1235220D01*
X3376031Y1238772D01*
X3380750Y1241420D01*
X3385909Y1243054D01*
X3391291Y1243606D01*
X3396674Y1243054D01*
X3401833Y1241420D01*
X3406552Y1238772D01*
X3410634Y1235220D01*
X3412637Y1233478D01*
X3414952Y1232179D01*
X3417482Y1231377D01*
X3420123Y1231106D01*
X3655792D01*
X3658684Y1230781D01*
X3661432Y1229819D01*
X3663897Y1228270D01*
X3665955Y1226212D01*
X3667504Y1223747D01*
X3668466Y1220999D01*
X3668792Y1218107D01*
Y1189606D02*
Y1218107D01*
Y1189606D02*
X3668986Y1187882D01*
X3669559Y1186244D01*
X3670482Y1184774D01*
X3671709Y1183547D01*
X3673179Y1182624D01*
X3674817Y1182051D01*
X3676541Y1181857D01*
X3740291D01*
X3742016Y1181662D01*
X3743654Y1181089D01*
X3745124Y1180166D01*
X3746351Y1178939D01*
X3747274Y1177469D01*
X3747847Y1175831D01*
X3748041Y1174107D01*
Y237106D02*
Y1174107D01*
X3747847Y235382D02*
X3748041Y237106D01*
X3747274Y233744D02*
X3747847Y235382D01*
X3746351Y232274D02*
X3747274Y233744D01*
X3745124Y231047D02*
X3746351Y232274D01*
X3743654Y230124D02*
X3745124Y231047D01*
X3742016Y229551D02*
X3743654Y230124D01*
X3740291Y229356D02*
X3742016Y229551D01*
X3676541Y229356D02*
X3740291D01*
X3674817Y229162D02*
X3676541Y229356D01*
X3673179Y228589D02*
X3674817Y229162D01*
X3671709Y227666D02*
X3673179Y228589D01*
X3670482Y226439D02*
X3671709Y227666D01*
X3669559Y224969D02*
X3670482Y226439D01*
X3668986Y223331D02*
X3669559Y224969D01*
X3668792Y221607D02*
X3668986Y223331D01*
X3668792Y193106D02*
Y221607D01*
X3668466Y190214D02*
X3668792Y193106D01*
X3667504Y187466D02*
X3668466Y190214D01*
X3665955Y185001D02*
X3667504Y187466D01*
X3663897Y182943D02*
X3665955Y185001D01*
X3661432Y181394D02*
X3663897Y182943D01*
X3658684Y180432D02*
X3661432Y181394D01*
X3655792Y180107D02*
X3658684Y180432D01*
X3420123Y180107D02*
X3655792Y180107D01*
X3417482Y179835D02*
X3420123Y180107D01*
X3414952Y179034D02*
X3417482Y179835D01*
X3412637Y177735D02*
X3414952Y179034D01*
X3410634Y175993D02*
X3412637Y177735D01*
X3406552Y172441D02*
X3410634Y175993D01*
X3401833Y169793D02*
X3406552Y172441D01*
X3396674Y168159D02*
X3401833Y169793D01*
X3391292Y167607D02*
X3396674Y168159D01*
X3385909D02*
X3391292Y167607D01*
X3380750Y169793D02*
X3385909Y168159D01*
X3376031Y172441D02*
X3380750Y169793D01*
X3371949Y175993D02*
X3376031Y172441D01*
X3369946Y177735D02*
X3371949Y175993D01*
X3367631Y179034D02*
X3369946Y177735D01*
X3365101Y179835D02*
X3367631Y179034D01*
X3362460Y180107D02*
X3365101Y179835D01*
X3000042Y180106D02*
X3362460Y180107D01*
X2997149Y180432D02*
X3000042Y180106D01*
X2994401Y181394D02*
X2997149Y180432D01*
X2991936Y182943D02*
X2994401Y181394D01*
X2989878Y185001D02*
X2991936Y182943D01*
X2988329Y187466D02*
X2989878Y185001D01*
X2987367Y190214D02*
X2988329Y187466D01*
X2987041Y193106D02*
X2987367Y190214D01*
X2987041Y193106D02*
Y221606D01*
X2986847Y223331D02*
X2987041Y221606D01*
X2986274Y224969D02*
X2986847Y223331D01*
X2985351Y226439D02*
X2986274Y224969D01*
X2984124Y227666D02*
X2985351Y226439D01*
X2982654Y228589D02*
X2984124Y227666D01*
X2981016Y229162D02*
X2982654Y228589D01*
X2979291Y229356D02*
X2981016Y229162D01*
X2636041Y229356D02*
X2979291Y229356D01*
X2634317Y229162D02*
X2636041Y229356D01*
X2632679Y228589D02*
X2634317Y229162D01*
X2631209Y227666D02*
X2632679Y228589D01*
X2629982Y226438D02*
X2631209Y227666D01*
X2629059Y224969D02*
X2629982Y226438D01*
X2628486Y223331D02*
X2629059Y224969D01*
X2628292Y221606D02*
X2628486Y223331D01*
X2628292Y193106D02*
Y221606D01*
X2627965Y190214D02*
X2628292Y193106D01*
X2627004Y187466D02*
X2627965Y190214D01*
X2625455Y185001D02*
X2627004Y187466D01*
X2623397Y182943D02*
X2625455Y185001D01*
X2620932Y181394D02*
X2623397Y182943D01*
X2618184Y180432D02*
X2620932Y181394D01*
X2615291Y180106D02*
X2618184Y180432D01*
X2252873Y180106D02*
X2615291Y180106D01*
M02*
