G04*
G04 #@! TF.GenerationSoftware,Altium Limited,Altium Designer,21.6.4 (81)*
G04*
G04 Layer_Color=16711935*
%FSLAX44Y44*%
%MOMM*%
G71*
G04*
G04 #@! TF.SameCoordinates,F6558B57-25BB-4E69-8CAA-7F32FDA90766*
G04*
G04*
G04 #@! TF.FilePolarity,Positive*
G04*
G01*
G75*
%ADD10C,0.1000*%
D10*
X722710Y1244600D02*
X724435Y1244794D01*
X726073Y1245368D01*
X727542Y1246291D01*
X728769Y1247518D01*
X729693Y1248988D01*
X730266Y1250626D01*
X730460Y1252350D01*
Y1259600D01*
X730266Y1261325D02*
X730460Y1259600D01*
X729693Y1262963D02*
X730266Y1261325D01*
X728769Y1264432D02*
X729693Y1262963D01*
X727542Y1265659D02*
X728769Y1264432D01*
X726073Y1266583D02*
X727542Y1265659D01*
X724435Y1267156D02*
X726073Y1266583D01*
X722710Y1267350D02*
X724435Y1267156D01*
X380020Y1267350D02*
X722710D01*
X378317Y1267540D02*
X380020Y1267350D01*
X376698Y1268098D02*
X378317Y1267540D01*
X375241Y1268999D02*
X376698Y1268098D01*
X374017Y1270199D02*
X375241Y1268999D01*
X373087Y1271637D02*
X374017Y1270199D01*
X372495Y1273245D02*
X373087Y1271637D01*
X372272Y1274944D02*
X372495Y1273245D01*
X372272Y1274944D02*
X372427Y1276650D01*
X372749Y1279964D01*
X372379Y1283273D02*
X372749Y1279964D01*
X371333Y1286434D02*
X372379Y1283273D01*
X369654Y1289310D02*
X371333Y1286434D01*
X367416Y1291776D02*
X369654Y1289310D01*
X364717Y1293725D02*
X367416Y1291776D01*
X361673Y1295074D02*
X364717Y1293725D01*
X358415Y1295763D02*
X361673Y1295074D01*
X355085Y1295763D02*
X358415D01*
X351827Y1295074D02*
X355085Y1295763D01*
X348783Y1293725D02*
X351827Y1295074D01*
X346083Y1291776D02*
X348783Y1293725D01*
X343846Y1289310D02*
X346083Y1291776D01*
X342167Y1286434D02*
X343846Y1289310D01*
X341120Y1283273D02*
X342167Y1286434D01*
X340750Y1279964D02*
X341120Y1283273D01*
X340750Y1279964D02*
X341073Y1276650D01*
X341228Y1274944D01*
X341004Y1273245D02*
X341228Y1274944D01*
X340413Y1271637D02*
X341004Y1273245D01*
X339483Y1270199D02*
X340413Y1271637D01*
X338259Y1268999D02*
X339483Y1270199D01*
X336802Y1268098D02*
X338259Y1268999D01*
X335183Y1267539D02*
X336802Y1268098D01*
X333480Y1267350D02*
X335183Y1267539D01*
X117540Y1267350D02*
X333480D01*
X115815Y1267156D02*
X117540Y1267350D01*
X114177Y1266582D02*
X115815Y1267156D01*
X112708Y1265659D02*
X114177Y1266582D01*
X111481Y1264432D02*
X112708Y1265659D01*
X110557Y1262963D02*
X111481Y1264432D01*
X109984Y1261325D02*
X110557Y1262963D01*
X109790Y1259600D02*
X109984Y1261325D01*
X109790Y1252350D02*
Y1259600D01*
Y1252350D02*
X109984Y1250626D01*
X110557Y1248987D01*
X111481Y1247518D01*
X112708Y1246291D01*
X114177Y1245368D01*
X115815Y1244794D01*
X117540Y1244600D01*
X722710Y1244600D01*
X601026Y1219212D02*
X602250Y1219350D01*
X599864Y1218805D02*
X601026Y1219212D01*
X598821Y1218150D02*
X599864Y1218805D01*
X597950Y1217279D02*
X598821Y1218150D01*
X597295Y1216236D02*
X597950Y1217279D01*
X596888Y1215074D02*
X597295Y1216236D01*
X596750Y1213850D02*
X596888Y1215074D01*
X596750Y1084850D02*
Y1213850D01*
Y1084850D02*
X596888Y1083626D01*
X597295Y1082464D01*
X597950Y1081421D01*
X598821Y1080550D01*
X599864Y1079895D01*
X601026Y1079488D01*
X602250Y1079350D01*
X731250D01*
X732474Y1079488D01*
X733636Y1079895D01*
X734679Y1080550D01*
X735550Y1081421D01*
X736205Y1082464D01*
X736612Y1083626D01*
X736750Y1084850D01*
Y1213850D01*
X736612Y1215074D02*
X736750Y1213850D01*
X736205Y1216236D02*
X736612Y1215074D01*
X735550Y1217279D02*
X736205Y1216236D01*
X734679Y1218150D02*
X735550Y1217279D01*
X733636Y1218805D02*
X734679Y1218150D01*
X732474Y1219212D02*
X733636Y1218805D01*
X731250Y1219350D02*
X732474Y1219212D01*
X602250Y1219350D02*
X731250D01*
X696276Y1028712D02*
X697500Y1028850D01*
X695114Y1028305D02*
X696276Y1028712D01*
X694071Y1027650D02*
X695114Y1028305D01*
X693200Y1026779D02*
X694071Y1027650D01*
X692545Y1025736D02*
X693200Y1026779D01*
X692138Y1024574D02*
X692545Y1025736D01*
X692000Y1023350D02*
X692138Y1024574D01*
X692000Y894350D02*
Y1023350D01*
Y894350D02*
X692138Y893126D01*
X692545Y891964D01*
X693200Y890921D01*
X694071Y890050D01*
X695114Y889395D01*
X696276Y888988D01*
X697500Y888850D01*
X826500D01*
X827724Y888988D01*
X828886Y889395D01*
X829929Y890050D01*
X830800Y890921D01*
X831455Y891964D01*
X831862Y893126D01*
X832000Y894350D01*
Y1023350D01*
X831862Y1024574D02*
X832000Y1023350D01*
X831455Y1025736D02*
X831862Y1024574D01*
X830800Y1026779D02*
X831455Y1025736D01*
X829929Y1027650D02*
X830800Y1026779D01*
X828886Y1028305D02*
X829929Y1027650D01*
X827724Y1028712D02*
X828886Y1028305D01*
X826500Y1028850D02*
X827724Y1028712D01*
X697500Y1028850D02*
X826500D01*
X730266Y286075D02*
X730460Y284350D01*
X729693Y287713D02*
X730266Y286075D01*
X728769Y289182D02*
X729693Y287713D01*
X727542Y290409D02*
X728769Y289182D01*
X726073Y291333D02*
X727542Y290409D01*
X724435Y291906D02*
X726073Y291333D01*
X722710Y292100D02*
X724435Y291906D01*
X117540Y292100D02*
X722710Y292100D01*
X115815Y291906D02*
X117540Y292100D01*
X114177Y291332D02*
X115815Y291906D01*
X112708Y290409D02*
X114177Y291332D01*
X111481Y289182D02*
X112708Y290409D01*
X110557Y287713D02*
X111481Y289182D01*
X109984Y286075D02*
X110557Y287713D01*
X109790Y284350D02*
X109984Y286075D01*
X109790Y277100D02*
Y284350D01*
Y277100D02*
X109984Y275375D01*
X110557Y273738D01*
X111481Y272268D01*
X112708Y271041D01*
X114177Y270117D01*
X115815Y269544D01*
X117540Y269350D01*
X333480Y269350D01*
X335183Y269161D01*
X336802Y268602D01*
X338259Y267701D01*
X339483Y266502D01*
X340413Y265063D01*
X341005Y263455D01*
X341228Y261756D01*
X341073Y260050D02*
X341228Y261756D01*
X340750Y256736D02*
X341073Y260050D01*
X340750Y256736D02*
X341120Y253427D01*
X342168Y250266D01*
X343846Y247390D01*
X346084Y244924D01*
X348783Y242975D01*
X351827Y241626D01*
X355085Y240937D01*
X358415D01*
X361673Y241626D01*
X364717Y242975D01*
X367416Y244924D01*
X369654Y247390D01*
X371333Y250266D01*
X372379Y253427D01*
X372750Y256736D01*
X372427Y260050D02*
X372750Y256736D01*
X372272Y261756D02*
X372427Y260050D01*
X372272Y261756D02*
X372495Y263455D01*
X373087Y265063D01*
X374017Y266502D01*
X375241Y267701D01*
X376698Y268602D01*
X378317Y269161D01*
X380020Y269350D01*
X722710Y269350D01*
X724435Y269544D01*
X726073Y270118D01*
X727542Y271041D01*
X728769Y272268D01*
X729693Y273738D01*
X730266Y275375D01*
X730460Y277100D01*
Y284350D01*
X29526Y1219212D02*
X30750Y1219350D01*
X28364Y1218805D02*
X29526Y1219212D01*
X27321Y1218150D02*
X28364Y1218805D01*
X26450Y1217279D02*
X27321Y1218150D01*
X25795Y1216236D02*
X26450Y1217279D01*
X25388Y1215074D02*
X25795Y1216236D01*
X25250Y1213850D02*
X25388Y1215074D01*
X25250Y1213850D02*
X25250Y1084850D01*
X25388Y1083626D01*
X25795Y1082464D01*
X26450Y1081421D01*
X27321Y1080550D01*
X28364Y1079895D01*
X29526Y1079488D01*
X30750Y1079350D01*
X159750D01*
X160974Y1079488D01*
X162136Y1079895D01*
X163179Y1080550D01*
X164050Y1081421D01*
X164705Y1082464D01*
X165112Y1083626D01*
X165250Y1084850D01*
X165250Y1213850D02*
X165250Y1084850D01*
X165112Y1215074D02*
X165250Y1213850D01*
X164705Y1216236D02*
X165112Y1215074D01*
X164050Y1217279D02*
X164705Y1216236D01*
X163179Y1218150D02*
X164050Y1217279D01*
X162136Y1218805D02*
X163179Y1218150D01*
X160974Y1219212D02*
X162136Y1218805D01*
X159750Y1219350D02*
X160974Y1219212D01*
X30750Y1219350D02*
X159750D01*
X77151Y1028712D02*
X78375Y1028850D01*
X75989Y1028305D02*
X77151Y1028712D01*
X74946Y1027650D02*
X75989Y1028305D01*
X74075Y1026779D02*
X74946Y1027650D01*
X73420Y1025736D02*
X74075Y1026779D01*
X73013Y1024574D02*
X73420Y1025736D01*
X72875Y1023350D02*
X73013Y1024574D01*
X72875Y1023350D02*
X72875Y894350D01*
X73013Y893126D01*
X73420Y891964D01*
X74075Y890921D01*
X74946Y890050D01*
X75989Y889395D01*
X77151Y888988D01*
X78375Y888850D01*
X207375D01*
X208599Y888988D01*
X209761Y889395D01*
X210804Y890050D01*
X211675Y890921D01*
X212330Y891964D01*
X212737Y893126D01*
X212875Y894350D01*
X212875Y1023350D02*
X212875Y894350D01*
X212737Y1024574D02*
X212875Y1023350D01*
X212330Y1025736D02*
X212737Y1024574D01*
X211675Y1026779D02*
X212330Y1025736D01*
X210804Y1027650D02*
X211675Y1026779D01*
X209761Y1028305D02*
X210804Y1027650D01*
X208599Y1028712D02*
X209761Y1028305D01*
X207375Y1028850D02*
X208599Y1028712D01*
X78375Y1028850D02*
X207375D01*
X53339Y838212D02*
X54563Y838350D01*
X52176Y837805D02*
X53339Y838212D01*
X51133Y837150D02*
X52176Y837805D01*
X50262Y836279D02*
X51133Y837150D01*
X49607Y835236D02*
X50262Y836279D01*
X49200Y834074D02*
X49607Y835236D01*
X49062Y832850D02*
X49200Y834074D01*
X49062Y703850D02*
Y832850D01*
Y703850D02*
X49200Y702626D01*
X49607Y701464D01*
X50262Y700421D01*
X51133Y699550D01*
X52176Y698895D01*
X53339Y698488D01*
X54563Y698350D01*
X231187Y698350D01*
X232411Y698488D01*
X233574Y698895D01*
X234617Y699550D01*
X235488Y700421D01*
X236143Y701464D01*
X236550Y702626D01*
X236688Y703850D01*
Y832850D01*
X236550Y834074D02*
X236688Y832850D01*
X236143Y835236D02*
X236550Y834074D01*
X235488Y836279D02*
X236143Y835236D01*
X234617Y837150D02*
X235488Y836279D01*
X233574Y837805D02*
X234617Y837150D01*
X232411Y838212D02*
X233574Y837805D01*
X231187Y838350D02*
X232411Y838212D01*
X54563Y838350D02*
X231187Y838350D01*
X53339Y647712D02*
X54563Y647850D01*
X52176Y647305D02*
X53339Y647712D01*
X51133Y646650D02*
X52176Y647305D01*
X50262Y645779D02*
X51133Y646650D01*
X49607Y644736D02*
X50262Y645779D01*
X49200Y643574D02*
X49607Y644736D01*
X49062Y642350D02*
X49200Y643574D01*
X49062Y642350D02*
X49062Y513350D01*
X49200Y512126D01*
X49607Y510964D01*
X50262Y509921D01*
X51133Y509050D01*
X52176Y508395D01*
X53339Y507988D01*
X54563Y507850D01*
X183563Y507850D01*
X184786Y507988D01*
X185949Y508395D01*
X186992Y509050D01*
X187863Y509921D01*
X188518Y510964D01*
X188925Y512126D01*
X189063Y513350D01*
X189063Y642350D02*
X189063Y513350D01*
X188925Y643574D02*
X189063Y642350D01*
X188518Y644736D02*
X188925Y643574D01*
X187863Y645779D02*
X188518Y644736D01*
X186992Y646650D02*
X187863Y645779D01*
X185949Y647305D02*
X186992Y646650D01*
X184786Y647712D02*
X185949Y647305D01*
X183563Y647850D02*
X184786Y647712D01*
X54563Y647850D02*
X183563Y647850D01*
X53339Y457212D02*
X54563Y457350D01*
X52176Y456805D02*
X53339Y457212D01*
X51133Y456150D02*
X52176Y456805D01*
X50262Y455279D02*
X51133Y456150D01*
X49607Y454236D02*
X50262Y455279D01*
X49200Y453074D02*
X49607Y454236D01*
X49062Y451850D02*
X49200Y453074D01*
X49062Y451850D02*
X49062Y322850D01*
X49201Y321626D01*
X49607Y320464D01*
X50262Y319421D01*
X51133Y318550D01*
X52176Y317895D01*
X53339Y317488D01*
X54563Y317350D01*
X207375D01*
X208599Y317488D01*
X209761Y317895D01*
X210804Y318550D01*
X211675Y319421D01*
X212330Y320464D01*
X212737Y321626D01*
X212875Y322850D01*
X212875Y451850D02*
X212875Y322850D01*
X212737Y453074D02*
X212875Y451850D01*
X212330Y454236D02*
X212737Y453074D01*
X211675Y455279D02*
X212330Y454236D01*
X210804Y456150D02*
X211675Y455279D01*
X209761Y456805D02*
X210804Y456150D01*
X208599Y457212D02*
X209761Y456805D01*
X207375Y457350D02*
X208599Y457212D01*
X54563Y457350D02*
X207375Y457350D01*
X403237Y643574D02*
X403375Y642350D01*
X402830Y644736D02*
X403237Y643574D01*
X402175Y645779D02*
X402830Y644736D01*
X401304Y646650D02*
X402175Y645779D01*
X400261Y647305D02*
X401304Y646650D01*
X399099Y647712D02*
X400261Y647305D01*
X397875Y647850D02*
X399099Y647712D01*
X268875Y647850D02*
X397875D01*
X267651Y647712D02*
X268875Y647850D01*
X266489Y647305D02*
X267651Y647712D01*
X265446Y646650D02*
X266489Y647305D01*
X264575Y645779D02*
X265446Y646650D01*
X263920Y644736D02*
X264575Y645779D01*
X263513Y643574D02*
X263920Y644736D01*
X263375Y642350D02*
X263513Y643574D01*
X263375Y642350D02*
X263375Y513350D01*
X263513Y512126D01*
X263920Y510964D01*
X264575Y509921D01*
X265446Y509050D01*
X266489Y508395D01*
X267651Y507988D01*
X268875Y507850D01*
X397875D01*
X399099Y507988D01*
X400261Y508395D01*
X401304Y509050D01*
X402175Y509921D01*
X402830Y510964D01*
X403237Y512126D01*
X403375Y513350D01*
X403375Y642350D02*
X403375Y513350D01*
X355612Y1215074D02*
X355750Y1213850D01*
X355205Y1216236D02*
X355612Y1215074D01*
X354550Y1217279D02*
X355205Y1216236D01*
X353679Y1218150D02*
X354550Y1217279D01*
X352636Y1218805D02*
X353679Y1218150D01*
X351474Y1219212D02*
X352636Y1218805D01*
X350250Y1219350D02*
X351474Y1219212D01*
X221250Y1219350D02*
X350250D01*
X220026Y1219212D02*
X221250Y1219350D01*
X218864Y1218805D02*
X220026Y1219212D01*
X217821Y1218150D02*
X218864Y1218805D01*
X216950Y1217279D02*
X217821Y1218150D01*
X216295Y1216236D02*
X216950Y1217279D01*
X215888Y1215074D02*
X216295Y1216236D01*
X215750Y1213850D02*
X215888Y1215074D01*
X215750Y1213850D02*
X215750Y1084850D01*
X215888Y1083626D01*
X216295Y1082464D01*
X216950Y1081421D01*
X217821Y1080550D01*
X218864Y1079895D01*
X220026Y1079488D01*
X221250Y1079350D01*
X350250D01*
X351474Y1079488D01*
X352636Y1079895D01*
X353679Y1080550D01*
X354550Y1081421D01*
X355205Y1082464D01*
X355612Y1083626D01*
X355750Y1084850D01*
X355750Y1213850D02*
X355750Y1084850D01*
X445500Y317350D02*
X446724Y317488D01*
X447886Y317895D01*
X448929Y318550D01*
X449800Y319421D01*
X450455Y320464D01*
X450862Y321626D01*
X451000Y322850D01*
Y451850D01*
X450862Y453074D02*
X451000Y451850D01*
X450455Y454236D02*
X450862Y453074D01*
X449800Y455279D02*
X450455Y454236D01*
X448929Y456150D02*
X449800Y455279D01*
X447886Y456805D02*
X448929Y456150D01*
X446724Y457212D02*
X447886Y456805D01*
X445500Y457350D02*
X446724Y457212D01*
X292687Y457350D02*
X445500D01*
X291464Y457212D02*
X292687Y457350D01*
X290301Y456805D02*
X291464Y457212D01*
X289258Y456150D02*
X290301Y456805D01*
X288388Y455279D02*
X289258Y456150D01*
X287732Y454236D02*
X288388Y455279D01*
X287325Y453074D02*
X287732Y454236D01*
X287188Y451850D02*
X287325Y453074D01*
X287188Y451850D02*
X287188Y322850D01*
X287325Y321626D01*
X287732Y320464D01*
X288388Y319421D01*
X289258Y318550D01*
X290301Y317895D01*
X291464Y317488D01*
X292687Y317350D01*
X445500D01*
X529589Y457212D02*
X530812Y457350D01*
X528426Y456805D02*
X529589Y457212D01*
X527383Y456150D02*
X528426Y456805D01*
X526512Y455279D02*
X527383Y456150D01*
X525857Y454236D02*
X526512Y455279D01*
X525451Y453074D02*
X525857Y454236D01*
X525312Y451850D02*
X525451Y453074D01*
X525312Y322850D02*
Y451850D01*
Y322850D02*
X525451Y321626D01*
X525857Y320464D01*
X526512Y319421D01*
X527383Y318550D01*
X528426Y317895D01*
X529589Y317488D01*
X530812Y317350D01*
X683625D01*
X684849Y317488D01*
X686011Y317895D01*
X687054Y318550D01*
X687925Y319421D01*
X688580Y320464D01*
X688987Y321626D01*
X689125Y322850D01*
Y451850D01*
X688987Y453074D02*
X689125Y451850D01*
X688580Y454236D02*
X688987Y453074D01*
X687925Y455279D02*
X688580Y454236D01*
X687054Y456150D02*
X687925Y455279D01*
X686011Y456805D02*
X687054Y456150D01*
X684849Y457212D02*
X686011Y456805D01*
X683625Y457350D02*
X684849Y457212D01*
X530812Y457350D02*
X683625Y457350D01*
X593737Y643574D02*
X593875Y642350D01*
X593330Y644736D02*
X593737Y643574D01*
X592675Y645779D02*
X593330Y644736D01*
X591804Y646650D02*
X592675Y645779D01*
X590761Y647305D02*
X591804Y646650D01*
X589599Y647712D02*
X590761Y647305D01*
X588375Y647850D02*
X589599Y647712D01*
X459375Y647850D02*
X588375D01*
X458151Y647712D02*
X459375Y647850D01*
X456989Y647305D02*
X458151Y647712D01*
X455946Y646650D02*
X456989Y647305D01*
X455075Y645779D02*
X455946Y646650D01*
X454420Y644736D02*
X455075Y645779D01*
X454013Y643574D02*
X454420Y644736D01*
X453875Y642350D02*
X454013Y643574D01*
X453875Y513350D02*
Y642350D01*
Y513350D02*
X454013Y512126D01*
X454420Y510964D01*
X455075Y509921D01*
X455946Y509050D01*
X456989Y508395D01*
X458151Y507988D01*
X459375Y507850D01*
X588375D01*
X589599Y507988D01*
X590761Y508395D01*
X591804Y509050D01*
X592675Y509921D01*
X593330Y510964D01*
X593737Y512126D01*
X593875Y513350D01*
Y642350D01*
X688987Y834074D02*
X689125Y832850D01*
X688580Y835236D02*
X688987Y834074D01*
X687925Y836279D02*
X688580Y835236D01*
X687054Y837150D02*
X687925Y836279D01*
X686011Y837805D02*
X687054Y837150D01*
X684849Y838212D02*
X686011Y837805D01*
X683625Y838350D02*
X684849Y838212D01*
X554625Y838350D02*
X683625Y838350D01*
X553401Y838212D02*
X554625Y838350D01*
X552239Y837805D02*
X553401Y838212D01*
X551196Y837150D02*
X552239Y837805D01*
X550325Y836279D02*
X551196Y837150D01*
X549670Y835236D02*
X550325Y836279D01*
X549263Y834074D02*
X549670Y835236D01*
X549125Y832850D02*
X549263Y834074D01*
X549125Y703850D02*
Y832850D01*
Y703850D02*
X549263Y702626D01*
X549670Y701464D01*
X550325Y700421D01*
X551196Y699550D01*
X552239Y698895D01*
X553401Y698488D01*
X554625Y698350D01*
X683625Y698350D01*
X684849Y698488D01*
X686011Y698895D01*
X687054Y699550D01*
X687925Y700421D01*
X688580Y701464D01*
X688987Y702626D01*
X689125Y703850D01*
Y832850D01*
X546112Y1215074D02*
X546250Y1213850D01*
X545705Y1216236D02*
X546112Y1215074D01*
X545050Y1217279D02*
X545705Y1216236D01*
X544179Y1218150D02*
X545050Y1217279D01*
X543136Y1218805D02*
X544179Y1218150D01*
X541974Y1219212D02*
X543136Y1218805D01*
X540750Y1219350D02*
X541974Y1219212D01*
X411750Y1219350D02*
X540750D01*
X410526Y1219212D02*
X411750Y1219350D01*
X409364Y1218805D02*
X410526Y1219212D01*
X408321Y1218150D02*
X409364Y1218805D01*
X407450Y1217279D02*
X408321Y1218150D01*
X406795Y1216236D02*
X407450Y1217279D01*
X406388Y1215074D02*
X406795Y1216236D01*
X406250Y1213850D02*
X406388Y1215074D01*
X406250Y1213850D02*
X406250Y1084850D01*
X406388Y1083626D01*
X406795Y1082464D01*
X407450Y1081421D01*
X408321Y1080550D01*
X409364Y1079895D01*
X410526Y1079488D01*
X411750Y1079350D01*
X540750D01*
X541974Y1079488D01*
X543136Y1079895D01*
X544179Y1080550D01*
X545050Y1081421D01*
X545705Y1082464D01*
X546112Y1083626D01*
X546250Y1084850D01*
Y1213850D01*
X498487Y834074D02*
X498625Y832850D01*
X498080Y835236D02*
X498487Y834074D01*
X497425Y836279D02*
X498080Y835236D01*
X496554Y837150D02*
X497425Y836279D01*
X495511Y837805D02*
X496554Y837150D01*
X494349Y838212D02*
X495511Y837805D01*
X493125Y838350D02*
X494349Y838212D01*
X364125Y838350D02*
X493125D01*
X362901Y838212D02*
X364125Y838350D01*
X361739Y837805D02*
X362901Y838212D01*
X360696Y837150D02*
X361739Y837805D01*
X359825Y836279D02*
X360696Y837150D01*
X359170Y835236D02*
X359825Y836279D01*
X358763Y834074D02*
X359170Y835236D01*
X358625Y832850D02*
X358763Y834074D01*
X358625Y703850D02*
Y832850D01*
Y703850D02*
X358763Y702626D01*
X359170Y701464D01*
X359825Y700421D01*
X360696Y699550D01*
X361739Y698895D01*
X362901Y698488D01*
X364125Y698350D01*
X493125D01*
X494349Y698488D01*
X495511Y698895D01*
X496554Y699550D01*
X497425Y700421D01*
X498080Y701464D01*
X498487Y702626D01*
X498625Y703850D01*
Y832850D01*
X641362Y1024574D02*
X641500Y1023350D01*
X640955Y1025736D02*
X641362Y1024574D01*
X640300Y1026779D02*
X640955Y1025736D01*
X639429Y1027650D02*
X640300Y1026779D01*
X638386Y1028305D02*
X639429Y1027650D01*
X637224Y1028712D02*
X638386Y1028305D01*
X636000Y1028850D02*
X637224Y1028712D01*
X507000Y1028850D02*
X636000D01*
X505776Y1028712D02*
X507000Y1028850D01*
X504614Y1028305D02*
X505776Y1028712D01*
X503571Y1027650D02*
X504614Y1028305D01*
X502700Y1026779D02*
X503571Y1027650D01*
X502045Y1025736D02*
X502700Y1026779D01*
X501638Y1024574D02*
X502045Y1025736D01*
X501500Y1023350D02*
X501638Y1024574D01*
X501500Y894350D02*
Y1023350D01*
Y894350D02*
X501638Y893126D01*
X502045Y891964D01*
X502700Y890921D01*
X503571Y890050D01*
X504614Y889395D01*
X505776Y888988D01*
X507000Y888850D01*
X636000D01*
X637224Y888988D01*
X638386Y889395D01*
X639429Y890050D01*
X640300Y890921D01*
X640955Y891964D01*
X641362Y893126D01*
X641500Y894350D01*
Y1023350D01*
X450862Y1024574D02*
X451000Y1023350D01*
X450455Y1025736D02*
X450862Y1024574D01*
X449800Y1026779D02*
X450455Y1025736D01*
X448929Y1027650D02*
X449800Y1026779D01*
X447886Y1028305D02*
X448929Y1027650D01*
X446724Y1028712D02*
X447886Y1028305D01*
X445500Y1028850D02*
X446724Y1028712D01*
X316500Y1028850D02*
X445500D01*
X315276Y1028712D02*
X316500Y1028850D01*
X314114Y1028305D02*
X315276Y1028712D01*
X313071Y1027650D02*
X314114Y1028305D01*
X312200Y1026779D02*
X313071Y1027650D01*
X311545Y1025736D02*
X312200Y1026779D01*
X311138Y1024574D02*
X311545Y1025736D01*
X311000Y1023350D02*
X311138Y1024574D01*
X311000Y1023350D02*
X311000Y894350D01*
X311138Y893126D01*
X311545Y891964D01*
X312200Y890921D01*
X313071Y890050D01*
X314114Y889395D01*
X315276Y888988D01*
X316500Y888850D01*
X445500D01*
X446724Y888988D01*
X447886Y889395D01*
X448929Y890050D01*
X449800Y890921D01*
X450455Y891964D01*
X450862Y893126D01*
X451000Y894350D01*
Y1023350D01*
X648651Y647712D02*
X649875Y647850D01*
X647489Y647305D02*
X648651Y647712D01*
X646446Y646650D02*
X647489Y647305D01*
X645575Y645779D02*
X646446Y646650D01*
X644920Y644736D02*
X645575Y645779D01*
X644513Y643574D02*
X644920Y644736D01*
X644375Y642350D02*
X644513Y643574D01*
X644375Y513350D02*
Y642350D01*
Y513350D02*
X644513Y512126D01*
X644920Y510964D01*
X645575Y509921D01*
X646446Y509050D01*
X647489Y508395D01*
X648651Y507988D01*
X649875Y507850D01*
X778875Y507850D01*
X780099Y507988D01*
X781261Y508395D01*
X782304Y509050D01*
X783175Y509921D01*
X783830Y510964D01*
X784237Y512126D01*
X784375Y513350D01*
Y642350D01*
X784237Y643574D02*
X784375Y642350D01*
X783830Y644736D02*
X784237Y643574D01*
X783175Y645779D02*
X783830Y644736D01*
X782304Y646650D02*
X783175Y645779D01*
X781261Y647305D02*
X782304Y646650D01*
X780099Y647712D02*
X781261Y647305D01*
X778875Y647850D02*
X780099Y647712D01*
X649875Y647850D02*
X778875Y647850D01*
X2323565Y1267156D02*
X2325290Y1267350D01*
X2321927Y1266583D02*
X2323565Y1267156D01*
X2320458Y1265659D02*
X2321927Y1266583D01*
X2319231Y1264432D02*
X2320458Y1265659D01*
X2318307Y1262963D02*
X2319231Y1264432D01*
X2317734Y1261325D02*
X2318307Y1262963D01*
X2317540Y1259600D02*
X2317734Y1261325D01*
X2317540Y1252350D02*
Y1259600D01*
Y1252350D02*
X2317734Y1250626D01*
X2318307Y1248988D01*
X2319231Y1247518D01*
X2320458Y1246291D01*
X2321927Y1245368D01*
X2323565Y1244795D01*
X2325290Y1244600D01*
X2930460Y1244600D01*
X2932184Y1244795D01*
X2933823Y1245368D01*
X2935292Y1246291D01*
X2936519Y1247518D01*
X2937443Y1248988D01*
X2938016Y1250626D01*
X2938210Y1252350D01*
Y1259600D01*
X2938016Y1261325D02*
X2938210Y1259600D01*
X2937443Y1262963D02*
X2938016Y1261325D01*
X2936519Y1264432D02*
X2937443Y1262963D01*
X2935292Y1265659D02*
X2936519Y1264432D01*
X2933823Y1266583D02*
X2935292Y1265659D01*
X2932184Y1267156D02*
X2933823Y1266583D01*
X2930460Y1267350D02*
X2932184Y1267156D01*
X2714520Y1267350D02*
X2930460D01*
X2712817Y1267540D02*
X2714520Y1267350D01*
X2711198Y1268099D02*
X2712817Y1267540D01*
X2709741Y1268999D02*
X2711198Y1268099D01*
X2708517Y1270199D02*
X2709741Y1268999D01*
X2707587Y1271637D02*
X2708517Y1270199D01*
X2706996Y1273245D02*
X2707587Y1271637D01*
X2706772Y1274944D02*
X2706996Y1273245D01*
X2706772Y1274944D02*
X2706927Y1276650D01*
X2707250Y1279964D01*
X2706879Y1283273D02*
X2707250Y1279964D01*
X2705833Y1286434D02*
X2706879Y1283273D01*
X2704154Y1289310D02*
X2705833Y1286434D01*
X2701917Y1291776D02*
X2704154Y1289310D01*
X2699217Y1293726D02*
X2701917Y1291776D01*
X2696172Y1295074D02*
X2699217Y1293726D01*
X2692915Y1295763D02*
X2696172Y1295074D01*
X2689585Y1295763D02*
X2692915D01*
X2686328Y1295074D02*
X2689585Y1295763D01*
X2683283Y1293726D02*
X2686328Y1295074D01*
X2680583Y1291776D02*
X2683283Y1293726D01*
X2678346Y1289310D02*
X2680583Y1291776D01*
X2676667Y1286434D02*
X2678346Y1289310D01*
X2675621Y1283273D02*
X2676667Y1286434D01*
X2675250Y1279964D02*
X2675621Y1283273D01*
X2675250Y1279964D02*
X2675573Y1276650D01*
X2675728Y1274944D01*
X2675504Y1273245D02*
X2675728Y1274944D01*
X2674913Y1271637D02*
X2675504Y1273245D01*
X2673983Y1270199D02*
X2674913Y1271637D01*
X2672759Y1268999D02*
X2673983Y1270199D01*
X2671302Y1268099D02*
X2672759Y1268999D01*
X2669683Y1267540D02*
X2671302Y1268099D01*
X2667980Y1267350D02*
X2669683Y1267540D01*
X2325290Y1267350D02*
X2667980D01*
X1158040Y269350D02*
X1500730Y269350D01*
X1502433Y269161D01*
X1504052Y268602D01*
X1505509Y267701D01*
X1506733Y266502D01*
X1507663Y265063D01*
X1508255Y263455D01*
X1508478Y261756D01*
X1508323Y260050D02*
X1508478Y261756D01*
X1508000Y256736D02*
X1508323Y260050D01*
X1508000Y256736D02*
X1508371Y253427D01*
X1509418Y250266D01*
X1511096Y247390D01*
X1513334Y244924D01*
X1516033Y242975D01*
X1519077Y241626D01*
X1522335Y240937D01*
X1525665D01*
X1528923Y241626D01*
X1531967Y242975D01*
X1534666Y244924D01*
X1536904Y247390D01*
X1538582Y250266D01*
X1539630Y253427D01*
X1540000Y256736D01*
X1539677Y260050D02*
X1540000Y256736D01*
X1539522Y261756D02*
X1539677Y260050D01*
X1539522Y261756D02*
X1539745Y263455D01*
X1540337Y265063D01*
X1541267Y266502D01*
X1542491Y267701D01*
X1543948Y268602D01*
X1545567Y269161D01*
X1547270Y269350D01*
X1889960Y269350D01*
X1891685Y269545D01*
X1893323Y270118D01*
X1894792Y271041D01*
X1896019Y272268D01*
X1896942Y273738D01*
X1897516Y275376D01*
X1897710Y277100D01*
Y284350D01*
X1897516Y286075D02*
X1897710Y284350D01*
X1896942Y287713D02*
X1897516Y286075D01*
X1896019Y289182D02*
X1896942Y287713D01*
X1894792Y290409D02*
X1896019Y289182D01*
X1893323Y291333D02*
X1894792Y290409D01*
X1891685Y291906D02*
X1893323Y291333D01*
X1889960Y292100D02*
X1891685Y291906D01*
X1158040Y292100D02*
X1889960Y292100D01*
X1156316Y291906D02*
X1158040Y292100D01*
X1154677Y291333D02*
X1156316Y291906D01*
X1153208Y290409D02*
X1154677Y291333D01*
X1151981Y289182D02*
X1153208Y290409D01*
X1151058Y287713D02*
X1151981Y289182D01*
X1150484Y286075D02*
X1151058Y287713D01*
X1150290Y284350D02*
X1150484Y286075D01*
X1150290Y277100D02*
Y284350D01*
Y277100D02*
X1150484Y275376D01*
X1151058Y273738D01*
X1151981Y272268D01*
X1153208Y271041D01*
X1154677Y270118D01*
X1156316Y269544D01*
X1158040Y269350D01*
X2323566Y291906D02*
X2325290Y292100D01*
X2321927Y291333D02*
X2323566Y291906D01*
X2320458Y290409D02*
X2321927Y291333D01*
X2319231Y289182D02*
X2320458Y290409D01*
X2318308Y287713D02*
X2319231Y289182D01*
X2317734Y286075D02*
X2318308Y287713D01*
X2317540Y284350D02*
X2317734Y286075D01*
X2317540Y277100D02*
Y284350D01*
Y277100D02*
X2317734Y275376D01*
X2318308Y273738D01*
X2319231Y272268D01*
X2320458Y271041D01*
X2321927Y270118D01*
X2323566Y269545D01*
X2325290Y269350D01*
X2667980Y269350D01*
X2669683Y269161D01*
X2671302Y268602D01*
X2672759Y267701D01*
X2673983Y266502D01*
X2674913Y265063D01*
X2675505Y263455D01*
X2675728Y261756D01*
X2675573Y260050D02*
X2675728Y261756D01*
X2675251Y256736D02*
X2675573Y260050D01*
X2675251Y256736D02*
X2675621Y253427D01*
X2676667Y250266D01*
X2678346Y247390D01*
X2680583Y244924D01*
X2683283Y242975D01*
X2686328Y241626D01*
X2689585Y240937D01*
X2692915D01*
X2696172Y241626D01*
X2699217Y242975D01*
X2701917Y244924D01*
X2704154Y247390D01*
X2705833Y250266D01*
X2706880Y253427D01*
X2707250Y256736D01*
X2706927Y260050D02*
X2707250Y256736D01*
X2706772Y261756D02*
X2706927Y260050D01*
X2706772Y261756D02*
X2706996Y263455D01*
X2707587Y265063D01*
X2708517Y266502D01*
X2709741Y267701D01*
X2711198Y268602D01*
X2712817Y269161D01*
X2714520Y269350D01*
X2930460Y269350D01*
X2932184Y269545D01*
X2933823Y270118D01*
X2935292Y271041D01*
X2936519Y272268D01*
X2937443Y273738D01*
X2938016Y275376D01*
X2938210Y277100D01*
Y284350D01*
X2938016Y286075D02*
X2938210Y284350D01*
X2937443Y287713D02*
X2938016Y286075D01*
X2936519Y289182D02*
X2937443Y287713D01*
X2935292Y290410D02*
X2936519Y289182D01*
X2933823Y291333D02*
X2935292Y290410D01*
X2932184Y291906D02*
X2933823Y291333D01*
X2930460Y292100D02*
X2932184Y291906D01*
X2325290Y292100D02*
X2930460Y292100D01*
X1158040Y1244600D02*
X1889960Y1244600D01*
X1891685Y1244794D01*
X1893322Y1245368D01*
X1894792Y1246291D01*
X1896019Y1247518D01*
X1896942Y1248988D01*
X1897516Y1250626D01*
X1897710Y1252350D01*
Y1259600D01*
X1897516Y1261325D02*
X1897710Y1259600D01*
X1896942Y1262963D02*
X1897516Y1261325D01*
X1896019Y1264432D02*
X1896942Y1262963D01*
X1894792Y1265659D02*
X1896019Y1264432D01*
X1893322Y1266583D02*
X1894792Y1265659D01*
X1891685Y1267156D02*
X1893322Y1266583D01*
X1889960Y1267350D02*
X1891685Y1267156D01*
X1547270Y1267350D02*
X1889960D01*
X1545567Y1267540D02*
X1547270Y1267350D01*
X1543948Y1268099D02*
X1545567Y1267540D01*
X1542491Y1268999D02*
X1543948Y1268099D01*
X1541267Y1270199D02*
X1542491Y1268999D01*
X1540337Y1271637D02*
X1541267Y1270199D01*
X1539745Y1273245D02*
X1540337Y1271637D01*
X1539522Y1274944D02*
X1539745Y1273245D01*
X1539522Y1274944D02*
X1539677Y1276650D01*
X1540000Y1279964D01*
X1539629Y1283273D02*
X1540000Y1279964D01*
X1538582Y1286434D02*
X1539629Y1283273D01*
X1536904Y1289310D02*
X1538582Y1286434D01*
X1534666Y1291776D02*
X1536904Y1289310D01*
X1531967Y1293725D02*
X1534666Y1291776D01*
X1528922Y1295074D02*
X1531967Y1293725D01*
X1525665Y1295763D02*
X1528922Y1295074D01*
X1522335Y1295763D02*
X1525665Y1295763D01*
X1519077Y1295074D02*
X1522335Y1295763D01*
X1516033Y1293725D02*
X1519077Y1295074D01*
X1513333Y1291776D02*
X1516033Y1293725D01*
X1511096Y1289310D02*
X1513333Y1291776D01*
X1509418Y1286434D02*
X1511096Y1289310D01*
X1508371Y1283273D02*
X1509418Y1286434D01*
X1508000Y1279964D02*
X1508371Y1283273D01*
X1508000Y1279964D02*
X1508323Y1276650D01*
X1508478Y1274944D01*
X1508255Y1273245D02*
X1508478Y1274944D01*
X1507663Y1271637D02*
X1508255Y1273245D01*
X1506733Y1270199D02*
X1507663Y1271637D01*
X1505509Y1268999D02*
X1506733Y1270199D01*
X1504052Y1268098D02*
X1505509Y1268999D01*
X1502433Y1267540D02*
X1504052Y1268098D01*
X1500730Y1267350D02*
X1502433Y1267540D01*
X1158040Y1267350D02*
X1500730D01*
X1156315Y1267156D02*
X1158040Y1267350D01*
X1154677Y1266583D02*
X1156315Y1267156D01*
X1153208Y1265659D02*
X1154677Y1266583D01*
X1151981Y1264432D02*
X1153208Y1265659D01*
X1151058Y1262963D02*
X1151981Y1264432D01*
X1150484Y1261325D02*
X1151058Y1262963D01*
X1150290Y1259600D02*
X1150484Y1261325D01*
X1150290Y1252350D02*
Y1259600D01*
Y1252350D02*
X1150484Y1250626D01*
X1151058Y1248988D01*
X1151981Y1247518D01*
X1153208Y1246291D01*
X1154677Y1245368D01*
X1156315Y1244794D01*
X1158040Y1244600D01*
X2017125Y698350D02*
X2018349Y698488D01*
X2019511Y698895D01*
X2020554Y699550D01*
X2021425Y700421D01*
X2022080Y701464D01*
X2022487Y702626D01*
X2022625Y703850D01*
Y832850D01*
X2022487Y834074D02*
X2022625Y832850D01*
X2022080Y835237D02*
X2022487Y834074D01*
X2021425Y836279D02*
X2022080Y835237D01*
X2020554Y837150D02*
X2021425Y836279D01*
X2019511Y837805D02*
X2020554Y837150D01*
X2018349Y838212D02*
X2019511Y837805D01*
X2017125Y838350D02*
X2018349Y838212D01*
X1888125Y838350D02*
X2017125D01*
X1886901Y838212D02*
X1888125Y838350D01*
X1885739Y837805D02*
X1886901Y838212D01*
X1884696Y837150D02*
X1885739Y837805D01*
X1883825Y836279D02*
X1884696Y837150D01*
X1883170Y835237D02*
X1883825Y836279D01*
X1882763Y834074D02*
X1883170Y835237D01*
X1882625Y832850D02*
X1882763Y834074D01*
X1882625Y703850D02*
Y832850D01*
Y703850D02*
X1882763Y702626D01*
X1883170Y701464D01*
X1883825Y700421D01*
X1884696Y699550D01*
X1885739Y698895D01*
X1886901Y698488D01*
X1888125Y698350D01*
X2017125D01*
X1969500Y888850D02*
X1970724Y888988D01*
X1971886Y889395D01*
X1972929Y890050D01*
X1973800Y890921D01*
X1974455Y891964D01*
X1974862Y893126D01*
X1975000Y894350D01*
Y1023350D01*
X1974862Y1024574D02*
X1975000Y1023350D01*
X1974455Y1025736D02*
X1974862Y1024574D01*
X1973800Y1026779D02*
X1974455Y1025736D01*
X1972929Y1027650D02*
X1973800Y1026779D01*
X1971886Y1028306D02*
X1972929Y1027650D01*
X1970724Y1028712D02*
X1971886Y1028306D01*
X1969500Y1028850D02*
X1970724Y1028712D01*
X1840500Y1028850D02*
X1969500D01*
X1839276Y1028712D02*
X1840500Y1028850D01*
X1838114Y1028306D02*
X1839276Y1028712D01*
X1837071Y1027650D02*
X1838114Y1028306D01*
X1836200Y1026779D02*
X1837071Y1027650D01*
X1835545Y1025736D02*
X1836200Y1026779D01*
X1835138Y1024574D02*
X1835545Y1025736D01*
X1835000Y1023350D02*
X1835138Y1024574D01*
X1835000Y894350D02*
Y1023350D01*
Y894350D02*
X1835138Y893126D01*
X1835545Y891964D01*
X1836200Y890921D01*
X1837071Y890050D01*
X1838114Y889395D01*
X1839276Y888988D01*
X1840500Y888850D01*
X1969500D01*
X1930250Y1084850D02*
Y1213850D01*
Y1084850D02*
X1930388Y1083626D01*
X1930795Y1082464D01*
X1931450Y1081421D01*
X1932321Y1080550D01*
X1933364Y1079895D01*
X1934526Y1079488D01*
X1935750Y1079350D01*
X2064750D01*
X2065974Y1079488D01*
X2067136Y1079895D01*
X2068179Y1080550D01*
X2069050Y1081421D01*
X2069705Y1082464D01*
X2070112Y1083626D01*
X2070250Y1084850D01*
Y1213850D01*
X2070112Y1215074D02*
X2070250Y1213850D01*
X2069705Y1216236D02*
X2070112Y1215074D01*
X2069050Y1217279D02*
X2069705Y1216236D01*
X2068179Y1218150D02*
X2069050Y1217279D01*
X2067136Y1218805D02*
X2068179Y1218150D01*
X2065974Y1219212D02*
X2067136Y1218805D01*
X2064750Y1219350D02*
X2065974Y1219212D01*
X1935750Y1219350D02*
X2064750D01*
X1934526Y1219212D02*
X1935750Y1219350D01*
X1933364Y1218805D02*
X1934526Y1219212D01*
X1932321Y1218150D02*
X1933364Y1218805D01*
X1931450Y1217279D02*
X1932321Y1218150D01*
X1930795Y1216236D02*
X1931450Y1217279D01*
X1930388Y1215074D02*
X1930795Y1216236D01*
X1930250Y1213850D02*
X1930388Y1215074D01*
X2036500Y460100D02*
Y466850D01*
X2036237Y469187D02*
X2036500Y466850D01*
X2035460Y471406D02*
X2036237Y469187D01*
X2034209Y473397D02*
X2035460Y471406D01*
X2032547Y475059D02*
X2034209Y473397D01*
X2030556Y476310D02*
X2032547Y475059D01*
X2028336Y477087D02*
X2030556Y476310D01*
X2026000Y477350D02*
X2028336Y477087D01*
X1974500Y477350D02*
X2026000D01*
X1972164Y477087D02*
X1974500Y477350D01*
X1969944Y476310D02*
X1972164Y477087D01*
X1967953Y475059D02*
X1969944Y476310D01*
X1966291Y473397D02*
X1967953Y475059D01*
X1965040Y471406D02*
X1966291Y473397D01*
X1964263Y469187D02*
X1965040Y471406D01*
X1964000Y466850D02*
X1964263Y469187D01*
X1964000Y460100D02*
Y466850D01*
X1963931Y459488D02*
X1964000Y460100D01*
X1963728Y458907D02*
X1963931Y459488D01*
X1963400Y458386D02*
X1963728Y458907D01*
X1962965Y457950D02*
X1963400Y458386D01*
X1962443Y457622D02*
X1962965Y457950D01*
X1961862Y457419D02*
X1962443Y457622D01*
X1961250Y457350D02*
X1961862Y457419D01*
X1959563Y457350D02*
X1961250D01*
X1958339Y457212D02*
X1959563Y457350D01*
X1957176Y456805D02*
X1958339Y457212D01*
X1956133Y456150D02*
X1957176Y456805D01*
X1955262Y455279D02*
X1956133Y456150D01*
X1954607Y454236D02*
X1955262Y455279D01*
X1954200Y453074D02*
X1954607Y454236D01*
X1954062Y451850D02*
X1954200Y453074D01*
X1954062Y322850D02*
Y451850D01*
Y322850D02*
X1954200Y321626D01*
X1954607Y320464D01*
X1955262Y319421D01*
X1956133Y318550D01*
X1957176Y317895D01*
X1958339Y317488D01*
X1959563Y317350D01*
X2088562Y317350D01*
X2089786Y317488D01*
X2090949Y317895D01*
X2091992Y318550D01*
X2092863Y319421D01*
X2093518Y320464D01*
X2093925Y321626D01*
X2094063Y322850D01*
Y451850D01*
X2093925Y453074D02*
X2094063Y451850D01*
X2093518Y454236D02*
X2093925Y453074D01*
X2092863Y455279D02*
X2093518Y454236D01*
X2091992Y456150D02*
X2092863Y455279D01*
X2090949Y456805D02*
X2091992Y456150D01*
X2089786Y457212D02*
X2090949Y456805D01*
X2088562Y457350D02*
X2089786Y457212D01*
X2039250Y457350D02*
X2088562D01*
X2038638Y457419D02*
X2039250Y457350D01*
X2038057Y457622D02*
X2038638Y457419D01*
X2037535Y457950D02*
X2038057Y457622D01*
X2037100Y458386D02*
X2037535Y457950D01*
X2036772Y458907D02*
X2037100Y458386D01*
X2036569Y459488D02*
X2036772Y458907D01*
X2036500Y460100D02*
X2036569Y459488D01*
X2117737Y643574D02*
X2117875Y642350D01*
X2117330Y644737D02*
X2117737Y643574D01*
X2116675Y645779D02*
X2117330Y644737D01*
X2115804Y646650D02*
X2116675Y645779D01*
X2114761Y647306D02*
X2115804Y646650D01*
X2113599Y647712D02*
X2114761Y647306D01*
X2112375Y647850D02*
X2113599Y647712D01*
X1983375Y647850D02*
X2112375D01*
X1982151Y647712D02*
X1983375Y647850D01*
X1980989Y647306D02*
X1982151Y647712D01*
X1979946Y646650D02*
X1980989Y647306D01*
X1979075Y645779D02*
X1979946Y646650D01*
X1978420Y644736D02*
X1979075Y645779D01*
X1978013Y643574D02*
X1978420Y644736D01*
X1977875Y642350D02*
X1978013Y643574D01*
X1977875Y513350D02*
Y642350D01*
Y513350D02*
X1978013Y512126D01*
X1978420Y510964D01*
X1979075Y509921D01*
X1979946Y509050D01*
X1980989Y508395D01*
X1982151Y507988D01*
X1983375Y507850D01*
X2112375D01*
X2113599Y507988D01*
X2114761Y508395D01*
X2115804Y509050D01*
X2116675Y509921D01*
X2117330Y510964D01*
X2117737Y512126D01*
X2117875Y513350D01*
Y642350D01*
X2165362Y1024574D02*
X2165500Y1023350D01*
X2164955Y1025736D02*
X2165362Y1024574D01*
X2164300Y1026779D02*
X2164955Y1025736D01*
X2163429Y1027650D02*
X2164300Y1026779D01*
X2162386Y1028306D02*
X2163429Y1027650D01*
X2161224Y1028712D02*
X2162386Y1028306D01*
X2160000Y1028850D02*
X2161224Y1028712D01*
X2031000Y1028850D02*
X2160000Y1028850D01*
X2029776Y1028712D02*
X2031000Y1028850D01*
X2028614Y1028306D02*
X2029776Y1028712D01*
X2027571Y1027650D02*
X2028614Y1028306D01*
X2026700Y1026779D02*
X2027571Y1027650D01*
X2026045Y1025736D02*
X2026700Y1026779D01*
X2025638Y1024574D02*
X2026045Y1025736D01*
X2025500Y1023350D02*
X2025638Y1024574D01*
X2025500Y894350D02*
Y1023350D01*
Y894350D02*
X2025638Y893126D01*
X2026045Y891964D01*
X2026700Y890921D01*
X2027571Y890050D01*
X2028614Y889395D01*
X2029776Y888988D01*
X2031000Y888850D01*
X2160000Y888850D01*
X2161224Y888988D01*
X2162386Y889395D01*
X2163429Y890050D01*
X2164300Y890921D01*
X2164955Y891964D01*
X2165362Y893126D01*
X2165500Y894350D01*
Y1023350D01*
X2212987Y834074D02*
X2213125Y832850D01*
X2212580Y835237D02*
X2212987Y834074D01*
X2211925Y836279D02*
X2212580Y835237D01*
X2211054Y837150D02*
X2211925Y836279D01*
X2210011Y837805D02*
X2211054Y837150D01*
X2208849Y838212D02*
X2210011Y837805D01*
X2207625Y838350D02*
X2208849Y838212D01*
X2078625Y838350D02*
X2207625D01*
X2077401Y838212D02*
X2078625Y838350D01*
X2076239Y837805D02*
X2077401Y838212D01*
X2075196Y837150D02*
X2076239Y837805D01*
X2074325Y836279D02*
X2075196Y837150D01*
X2073670Y835237D02*
X2074325Y836279D01*
X2073263Y834074D02*
X2073670Y835237D01*
X2073125Y832850D02*
X2073263Y834074D01*
X2073125Y703850D02*
Y832850D01*
Y703850D02*
X2073263Y702626D01*
X2073670Y701464D01*
X2074325Y700421D01*
X2075196Y699550D01*
X2076239Y698895D01*
X2077401Y698488D01*
X2078625Y698350D01*
X2207625D01*
X2208849Y698488D01*
X2210011Y698895D01*
X2211054Y699550D01*
X2211925Y700421D01*
X2212580Y701464D01*
X2212987Y702626D01*
X2213125Y703850D01*
Y832850D01*
X2260612Y1215074D02*
X2260750Y1213850D01*
X2260205Y1216236D02*
X2260612Y1215074D01*
X2259550Y1217280D02*
X2260205Y1216236D01*
X2258679Y1218150D02*
X2259550Y1217280D01*
X2257636Y1218806D02*
X2258679Y1218150D01*
X2256474Y1219212D02*
X2257636Y1218806D01*
X2255250Y1219350D02*
X2256474Y1219212D01*
X2126250Y1219350D02*
X2255250D01*
X2125026Y1219212D02*
X2126250Y1219350D01*
X2123864Y1218806D02*
X2125026Y1219212D01*
X2122821Y1218150D02*
X2123864Y1218806D01*
X2121950Y1217280D02*
X2122821Y1218150D01*
X2121295Y1216236D02*
X2121950Y1217280D01*
X2120888Y1215074D02*
X2121295Y1216236D01*
X2120750Y1213850D02*
X2120888Y1215074D01*
X2120750Y1084850D02*
Y1213850D01*
Y1084850D02*
X2120888Y1083626D01*
X2121295Y1082464D01*
X2121950Y1081421D01*
X2122821Y1080550D01*
X2123864Y1079895D01*
X2125026Y1079488D01*
X2126250Y1079350D01*
X2255250D01*
X2256474Y1079488D01*
X2257636Y1079895D01*
X2258679Y1080550D01*
X2259550Y1081421D01*
X2260205Y1082464D01*
X2260612Y1083626D01*
X2260750Y1084850D01*
Y1213850D01*
X2302875Y507850D02*
X2304099Y507988D01*
X2305261Y508395D01*
X2306304Y509050D01*
X2307175Y509921D01*
X2307830Y510964D01*
X2308237Y512126D01*
X2308375Y513350D01*
Y642350D01*
X2308237Y643574D02*
X2308375Y642350D01*
X2307830Y644737D02*
X2308237Y643574D01*
X2307175Y645779D02*
X2307830Y644737D01*
X2306304Y646650D02*
X2307175Y645779D01*
X2305261Y647306D02*
X2306304Y646650D01*
X2304099Y647712D02*
X2305261Y647306D01*
X2302875Y647850D02*
X2304099Y647712D01*
X2173875Y647850D02*
X2302875D01*
X2172651Y647712D02*
X2173875Y647850D01*
X2171489Y647306D02*
X2172651Y647712D01*
X2170446Y646650D02*
X2171489Y647306D01*
X2169575Y645779D02*
X2170446Y646650D01*
X2168920Y644737D02*
X2169575Y645779D01*
X2168513Y643574D02*
X2168920Y644737D01*
X2168375Y642350D02*
X2168513Y643574D01*
X2168375Y513350D02*
Y642350D01*
Y513350D02*
X2168513Y512126D01*
X2168920Y510964D01*
X2169575Y509921D01*
X2170446Y509050D01*
X2171489Y508395D01*
X2172651Y507988D01*
X2173875Y507850D01*
X2302875D01*
X2832112Y453074D02*
X2832250Y451850D01*
X2831705Y454237D02*
X2832112Y453074D01*
X2831050Y455280D02*
X2831705Y454237D01*
X2830179Y456150D02*
X2831050Y455280D01*
X2829136Y456806D02*
X2830179Y456150D01*
X2827974Y457212D02*
X2829136Y456806D01*
X2826750Y457350D02*
X2827974Y457212D01*
X2697750Y457350D02*
X2826750D01*
X2696526Y457212D02*
X2697750Y457350D01*
X2695364Y456806D02*
X2696526Y457212D01*
X2694321Y456150D02*
X2695364Y456806D01*
X2693450Y455280D02*
X2694321Y456150D01*
X2692794Y454237D02*
X2693450Y455280D01*
X2692388Y453074D02*
X2692794Y454237D01*
X2692250Y451850D02*
X2692388Y453074D01*
X2692250Y322850D02*
Y451850D01*
Y322850D02*
X2692388Y321626D01*
X2692794Y320464D01*
X2693450Y319421D01*
X2694321Y318550D01*
X2695364Y317895D01*
X2696526Y317488D01*
X2697750Y317350D01*
X2826750D01*
X2827974Y317488D01*
X2829136Y317895D01*
X2830179Y318550D01*
X2831050Y319421D01*
X2831705Y320464D01*
X2832112Y321626D01*
X2832250Y322850D01*
Y451850D01*
X2832112Y643574D02*
X2832250Y642350D01*
X2831705Y644737D02*
X2832112Y643574D01*
X2831050Y645779D02*
X2831705Y644737D01*
X2830179Y646650D02*
X2831050Y645779D01*
X2829136Y647306D02*
X2830179Y646650D01*
X2827974Y647712D02*
X2829136Y647306D01*
X2826750Y647850D02*
X2827974Y647712D01*
X2697750Y647850D02*
X2826750D01*
X2696526Y647712D02*
X2697750Y647850D01*
X2695364Y647306D02*
X2696526Y647712D01*
X2694321Y646650D02*
X2695364Y647306D01*
X2693450Y645779D02*
X2694321Y646650D01*
X2692794Y644737D02*
X2693450Y645779D01*
X2692388Y643574D02*
X2692794Y644737D01*
X2692250Y642350D02*
X2692388Y643574D01*
X2692250Y513350D02*
Y642350D01*
Y513350D02*
X2692388Y512126D01*
X2692794Y510964D01*
X2693450Y509921D01*
X2694321Y509050D01*
X2695364Y508395D01*
X2696526Y507988D01*
X2697750Y507850D01*
X2826750D01*
X2827974Y507988D01*
X2829136Y508395D01*
X2830179Y509050D01*
X2831050Y509921D01*
X2831705Y510964D01*
X2832112Y512126D01*
X2832250Y513350D01*
Y642350D01*
X2641612Y453074D02*
X2641750Y451850D01*
X2641205Y454237D02*
X2641612Y453074D01*
X2640550Y455280D02*
X2641205Y454237D01*
X2639679Y456150D02*
X2640550Y455280D01*
X2638636Y456806D02*
X2639679Y456150D01*
X2637474Y457212D02*
X2638636Y456806D01*
X2636250Y457350D02*
X2637474Y457212D01*
X2507250Y457350D02*
X2636250D01*
X2506026Y457212D02*
X2507250Y457350D01*
X2504864Y456806D02*
X2506026Y457212D01*
X2503821Y456150D02*
X2504864Y456806D01*
X2502950Y455280D02*
X2503821Y456150D01*
X2502295Y454237D02*
X2502950Y455280D01*
X2501888Y453074D02*
X2502295Y454237D01*
X2501750Y451850D02*
X2501888Y453074D01*
X2501750Y322850D02*
Y451850D01*
Y322850D02*
X2501888Y321626D01*
X2502295Y320464D01*
X2502950Y319421D01*
X2503821Y318550D01*
X2504864Y317895D01*
X2506026Y317488D01*
X2507250Y317350D01*
X2636250Y317350D01*
X2637474Y317488D01*
X2638636Y317895D01*
X2639679Y318550D01*
X2640550Y319421D01*
X2641205Y320464D01*
X2641612Y321626D01*
X2641750Y322850D01*
Y451850D01*
X2570175Y643574D02*
X2570312Y642350D01*
X2569768Y644737D02*
X2570175Y643574D01*
X2569113Y645779D02*
X2569768Y644737D01*
X2568242Y646650D02*
X2569113Y645779D01*
X2567199Y647306D02*
X2568242Y646650D01*
X2566036Y647712D02*
X2567199Y647306D01*
X2564813Y647850D02*
X2566036Y647712D01*
X2435813Y647850D02*
X2564813D01*
X2434589Y647712D02*
X2435813Y647850D01*
X2433426Y647306D02*
X2434589Y647712D01*
X2432383Y646650D02*
X2433426Y647306D01*
X2431512Y645779D02*
X2432383Y646650D01*
X2430857Y644737D02*
X2431512Y645779D01*
X2430450Y643574D02*
X2430857Y644737D01*
X2430312Y642350D02*
X2430450Y643574D01*
X2430312Y513350D02*
Y642350D01*
Y513350D02*
X2430450Y512126D01*
X2430857Y510964D01*
X2431512Y509921D01*
X2432383Y509050D01*
X2433426Y508395D01*
X2434589Y507988D01*
X2435813Y507850D01*
X2564813D01*
X2566036Y507988D01*
X2567199Y508395D01*
X2568242Y509050D01*
X2569113Y509921D01*
X2569768Y510964D01*
X2570175Y512126D01*
X2570312Y513350D01*
Y642350D01*
X2546362Y1024574D02*
X2546500Y1023350D01*
X2545955Y1025737D02*
X2546362Y1024574D01*
X2545300Y1026779D02*
X2545955Y1025737D01*
X2544429Y1027650D02*
X2545300Y1026779D01*
X2543386Y1028306D02*
X2544429Y1027650D01*
X2542224Y1028712D02*
X2543386Y1028306D01*
X2541000Y1028850D02*
X2542224Y1028712D01*
X2412000Y1028850D02*
X2541000D01*
X2410776Y1028712D02*
X2412000Y1028850D01*
X2409614Y1028306D02*
X2410776Y1028712D01*
X2408571Y1027650D02*
X2409614Y1028306D01*
X2407700Y1026779D02*
X2408571Y1027650D01*
X2407045Y1025737D02*
X2407700Y1026779D01*
X2406638Y1024574D02*
X2407045Y1025737D01*
X2406500Y1023350D02*
X2406638Y1024574D01*
X2406500Y894350D02*
Y1023350D01*
Y894350D02*
X2406638Y893126D01*
X2407045Y891964D01*
X2407700Y890921D01*
X2408571Y890050D01*
X2409614Y889395D01*
X2410776Y888988D01*
X2412000Y888850D01*
X2541000D01*
X2542224Y888988D01*
X2543386Y889395D01*
X2544429Y890050D01*
X2545300Y890921D01*
X2545955Y891964D01*
X2546362Y893126D01*
X2546500Y894350D01*
Y1023350D01*
X2798438Y956913D02*
Y1008413D01*
X2798174Y1010749D02*
X2798438Y1008413D01*
X2797398Y1012969D02*
X2798174Y1010749D01*
X2796147Y1014959D02*
X2797398Y1012969D01*
X2794484Y1016622D02*
X2796147Y1014959D01*
X2792493Y1017873D02*
X2794484Y1016622D01*
X2790274Y1018650D02*
X2792493Y1017873D01*
X2787938Y1018913D02*
X2790274Y1018650D01*
X2658937Y1018913D02*
X2787938D01*
X2656601Y1018650D02*
X2658937Y1018913D01*
X2654382Y1017873D02*
X2656601Y1018650D01*
X2652391Y1016622D02*
X2654382Y1017873D01*
X2650728Y1014959D02*
X2652391Y1016622D01*
X2649477Y1012969D02*
X2650728Y1014959D01*
X2648701Y1010749D02*
X2649477Y1012969D01*
X2648438Y1008413D02*
X2648701Y1010749D01*
X2648438Y956913D02*
Y1008413D01*
Y956913D02*
X2648701Y954576D01*
X2649477Y952357D01*
X2650728Y950366D01*
X2652391Y948704D01*
X2654382Y947453D01*
X2656601Y946676D01*
X2658937Y946413D01*
X2787938D01*
X2790274Y946676D01*
X2792493Y947453D01*
X2794484Y948704D01*
X2796147Y950366D01*
X2797398Y952357D01*
X2798174Y954576D01*
X2798438Y956913D01*
X2672714Y933462D02*
X2673937Y933600D01*
X2671551Y933056D02*
X2672714Y933462D01*
X2670508Y932400D02*
X2671551Y933056D01*
X2669637Y931529D02*
X2670508Y932400D01*
X2668982Y930487D02*
X2669637Y931529D01*
X2668575Y929324D02*
X2668982Y930487D01*
X2668438Y928100D02*
X2668575Y929324D01*
X2668438Y799100D02*
Y928100D01*
Y799100D02*
X2668575Y797876D01*
X2668982Y796714D01*
X2669637Y795671D01*
X2670508Y794800D01*
X2671551Y794145D01*
X2672714Y793738D01*
X2673937Y793600D01*
X2802938D01*
X2804161Y793738D01*
X2805324Y794145D01*
X2806367Y794800D01*
X2807238Y795671D01*
X2807893Y796714D01*
X2808300Y797876D01*
X2808438Y799100D01*
Y928100D01*
X2808300Y929324D02*
X2808438Y928100D01*
X2807893Y930487D02*
X2808300Y929324D01*
X2807238Y931529D02*
X2807893Y930487D01*
X2806367Y932400D02*
X2807238Y931529D01*
X2805324Y933056D02*
X2806367Y932400D01*
X2804161Y933462D02*
X2805324Y933056D01*
X2802938Y933600D02*
X2804161Y933462D01*
X2673937Y933600D02*
X2802938D01*
X2648438Y718788D02*
Y770288D01*
Y718788D02*
X2648701Y716451D01*
X2649478Y714232D01*
X2650728Y712241D01*
X2652391Y710579D01*
X2654382Y709328D01*
X2656601Y708551D01*
X2658938Y708288D01*
X2787938Y708288D01*
X2790274Y708551D01*
X2792493Y709328D01*
X2794484Y710579D01*
X2796147Y712241D01*
X2797398Y714232D01*
X2798174Y716451D01*
X2798438Y718788D01*
Y770288D01*
X2798174Y772624D02*
X2798438Y770288D01*
X2797398Y774844D02*
X2798174Y772624D01*
X2796147Y776834D02*
X2797398Y774844D01*
X2794484Y778497D02*
X2796147Y776834D01*
X2792493Y779748D02*
X2794484Y778497D01*
X2790274Y780525D02*
X2792493Y779748D01*
X2787938Y780788D02*
X2790274Y780525D01*
X2658937Y780788D02*
X2787938Y780788D01*
X2656601Y780525D02*
X2658937Y780788D01*
X2654382Y779748D02*
X2656601Y780525D01*
X2652391Y778497D02*
X2654382Y779748D01*
X2650728Y776834D02*
X2652391Y778497D01*
X2649477Y774844D02*
X2650728Y776834D01*
X2648701Y772624D02*
X2649477Y774844D01*
X2648438Y770288D02*
X2648701Y772624D01*
X2593987Y834074D02*
X2594125Y832850D01*
X2593580Y835237D02*
X2593987Y834074D01*
X2592925Y836280D02*
X2593580Y835237D01*
X2592054Y837150D02*
X2592925Y836280D01*
X2591011Y837806D02*
X2592054Y837150D01*
X2589849Y838212D02*
X2591011Y837806D01*
X2588625Y838350D02*
X2589849Y838212D01*
X2459625Y838350D02*
X2588625D01*
X2458401Y838212D02*
X2459625Y838350D01*
X2457239Y837806D02*
X2458401Y838212D01*
X2456196Y837150D02*
X2457239Y837806D01*
X2455325Y836280D02*
X2456196Y837150D01*
X2454670Y835237D02*
X2455325Y836280D01*
X2454263Y834074D02*
X2454670Y835237D01*
X2454125Y832850D02*
X2454263Y834074D01*
X2454125Y703850D02*
Y832850D01*
Y703850D02*
X2454263Y702626D01*
X2454670Y701464D01*
X2455325Y700421D01*
X2456196Y699550D01*
X2457239Y698895D01*
X2458401Y698488D01*
X2459625Y698350D01*
X2588625D01*
X2589849Y698488D01*
X2591011Y698895D01*
X2592054Y699550D01*
X2592925Y700421D01*
X2593580Y701464D01*
X2593987Y702626D01*
X2594125Y703850D01*
Y832850D01*
X2749813Y1069850D02*
Y1076600D01*
Y1069850D02*
X2750076Y1067514D01*
X2750852Y1065294D01*
X2752103Y1063304D01*
X2753766Y1061641D01*
X2755757Y1060390D01*
X2757976Y1059613D01*
X2760312Y1059350D01*
X2811812D01*
X2814149Y1059613D01*
X2816368Y1060390D01*
X2818359Y1061641D01*
X2820022Y1063304D01*
X2821273Y1065294D01*
X2822049Y1067514D01*
X2822313Y1069850D01*
Y1076600D01*
X2822381Y1077212D01*
X2822585Y1077793D01*
X2822913Y1078315D01*
X2823348Y1078750D01*
X2823869Y1079078D01*
X2824450Y1079281D01*
X2825062Y1079350D01*
X2826750D01*
X2827974Y1079488D01*
X2829136Y1079895D01*
X2830179Y1080550D01*
X2831050Y1081421D01*
X2831705Y1082464D01*
X2832112Y1083626D01*
X2832250Y1084850D01*
Y1213850D01*
X2832112Y1215074D02*
X2832250Y1213850D01*
X2831705Y1216237D02*
X2832112Y1215074D01*
X2831050Y1217280D02*
X2831705Y1216237D01*
X2830179Y1218150D02*
X2831050Y1217280D01*
X2829136Y1218806D02*
X2830179Y1218150D01*
X2827974Y1219212D02*
X2829136Y1218806D01*
X2826750Y1219350D02*
X2827974Y1219212D01*
X2507250Y1219350D02*
X2826750D01*
X2506026Y1219212D02*
X2507250Y1219350D01*
X2504864Y1218806D02*
X2506026Y1219212D01*
X2503821Y1218150D02*
X2504864Y1218806D01*
X2502950Y1217280D02*
X2503821Y1218150D01*
X2502295Y1216236D02*
X2502950Y1217280D01*
X2501888Y1215074D02*
X2502295Y1216236D01*
X2501750Y1213850D02*
X2501888Y1215074D01*
X2501750Y1084850D02*
Y1213850D01*
Y1084850D02*
X2501888Y1083626D01*
X2502295Y1082464D01*
X2502950Y1081421D01*
X2503821Y1080550D01*
X2504864Y1079895D01*
X2506026Y1079488D01*
X2507250Y1079350D01*
X2508937D01*
X2509550Y1079281D01*
X2510131Y1079078D01*
X2510652Y1078750D01*
X2511087Y1078315D01*
X2511415Y1077793D01*
X2511618Y1077212D01*
X2511687Y1076600D01*
Y1069850D02*
Y1076600D01*
Y1069850D02*
X2511951Y1067514D01*
X2512727Y1065294D01*
X2513978Y1063304D01*
X2515641Y1061641D01*
X2517632Y1060390D01*
X2519851Y1059613D01*
X2522188Y1059350D01*
X2573687D01*
X2576024Y1059613D01*
X2578243Y1060390D01*
X2580234Y1061641D01*
X2581897Y1063304D01*
X2583148Y1065294D01*
X2583924Y1067514D01*
X2584188Y1069850D01*
Y1076600D01*
X2584256Y1077212D01*
X2584460Y1077793D01*
X2584788Y1078315D01*
X2585223Y1078750D01*
X2585744Y1079078D01*
X2586325Y1079281D01*
X2586937Y1079350D01*
X2747062D01*
X2747675Y1079281D01*
X2748256Y1079078D01*
X2748777Y1078750D01*
X2749213Y1078315D01*
X2749540Y1077793D01*
X2749743Y1077212D01*
X2749813Y1076600D01*
X2315526Y1219212D02*
X2316750Y1219350D01*
X2314364Y1218806D02*
X2315526Y1219212D01*
X2313321Y1218150D02*
X2314364Y1218806D01*
X2312450Y1217280D02*
X2313321Y1218150D01*
X2311795Y1216236D02*
X2312450Y1217280D01*
X2311388Y1215074D02*
X2311795Y1216236D01*
X2311250Y1213850D02*
X2311388Y1215074D01*
X2311250Y1084850D02*
Y1213850D01*
Y1084850D02*
X2311388Y1083626D01*
X2311795Y1082464D01*
X2312450Y1081421D01*
X2313321Y1080550D01*
X2314364Y1079895D01*
X2315526Y1079488D01*
X2316750Y1079350D01*
X2445750D01*
X2446974Y1079488D01*
X2448136Y1079895D01*
X2449179Y1080550D01*
X2450050Y1081421D01*
X2450705Y1082464D01*
X2451112Y1083626D01*
X2451250Y1084850D01*
Y1213850D01*
X2451112Y1215074D02*
X2451250Y1213850D01*
X2450705Y1216236D02*
X2451112Y1215074D01*
X2450050Y1217280D02*
X2450705Y1216236D01*
X2449179Y1218150D02*
X2450050Y1217280D01*
X2448136Y1218806D02*
X2449179Y1218150D01*
X2446974Y1219212D02*
X2448136Y1218806D01*
X2445750Y1219350D02*
X2446974Y1219212D01*
X2316750Y1219350D02*
X2445750D01*
X2172651Y457212D02*
X2173875Y457350D01*
X2171489Y456805D02*
X2172651Y457212D01*
X2170446Y456150D02*
X2171489Y456805D01*
X2169575Y455279D02*
X2170446Y456150D01*
X2168920Y454237D02*
X2169575Y455279D01*
X2168513Y453074D02*
X2168920Y454237D01*
X2168375Y451850D02*
X2168513Y453074D01*
X2168375Y322850D02*
Y451850D01*
Y322850D02*
X2168513Y321626D01*
X2168920Y320464D01*
X2169575Y319421D01*
X2170446Y318550D01*
X2171489Y317895D01*
X2172651Y317488D01*
X2173875Y317350D01*
X2326687Y317350D01*
X2327911Y317488D01*
X2329074Y317895D01*
X2330117Y318550D01*
X2330988Y319421D01*
X2331643Y320464D01*
X2332050Y321626D01*
X2332188Y322850D01*
Y451850D01*
X2332050Y453074D02*
X2332188Y451850D01*
X2331643Y454237D02*
X2332050Y453074D01*
X2330988Y455279D02*
X2331643Y454237D01*
X2330117Y456150D02*
X2330988Y455279D01*
X2329074Y456805D02*
X2330117Y456150D01*
X2327911Y457212D02*
X2329074Y456805D01*
X2326687Y457350D02*
X2327911Y457212D01*
X2173875Y457350D02*
X2326687D01*
X2267901Y838212D02*
X2269125Y838350D01*
X2266739Y837805D02*
X2267901Y838212D01*
X2265696Y837150D02*
X2266739Y837805D01*
X2264825Y836279D02*
X2265696Y837150D01*
X2264170Y835237D02*
X2264825Y836279D01*
X2263763Y834074D02*
X2264170Y835237D01*
X2263625Y832850D02*
X2263763Y834074D01*
X2263625Y703850D02*
Y832850D01*
Y703850D02*
X2263763Y702626D01*
X2264170Y701464D01*
X2264825Y700421D01*
X2265696Y699550D01*
X2266739Y698895D01*
X2267901Y698488D01*
X2269125Y698350D01*
X2398125Y698350D01*
X2399349Y698488D01*
X2400511Y698895D01*
X2401554Y699550D01*
X2402425Y700421D01*
X2403080Y701464D01*
X2403487Y702626D01*
X2403625Y703850D01*
Y832850D01*
X2403487Y834074D02*
X2403625Y832850D01*
X2403080Y835237D02*
X2403487Y834074D01*
X2402425Y836280D02*
X2403080Y835237D01*
X2401554Y837150D02*
X2402425Y836280D01*
X2400511Y837806D02*
X2401554Y837150D01*
X2399349Y838212D02*
X2400511Y837806D01*
X2398125Y838350D02*
X2399349Y838212D01*
X2269125Y838350D02*
X2398125Y838350D01*
X2220276Y1028712D02*
X2221500Y1028850D01*
X2219114Y1028306D02*
X2220276Y1028712D01*
X2218071Y1027650D02*
X2219114Y1028306D01*
X2217200Y1026779D02*
X2218071Y1027650D01*
X2216545Y1025736D02*
X2217200Y1026779D01*
X2216138Y1024574D02*
X2216545Y1025736D01*
X2216000Y1023350D02*
X2216138Y1024574D01*
X2216000Y894350D02*
Y1023350D01*
Y894350D02*
X2216138Y893126D01*
X2216545Y891964D01*
X2217200Y890921D01*
X2218071Y890050D01*
X2219114Y889395D01*
X2220276Y888988D01*
X2221500Y888850D01*
X2350500D01*
X2351724Y888988D01*
X2352886Y889395D01*
X2353929Y890050D01*
X2354800Y890921D01*
X2355455Y891964D01*
X2355862Y893126D01*
X2356000Y894350D01*
Y1023350D01*
X2355862Y1024574D02*
X2356000Y1023350D01*
X2355455Y1025736D02*
X2355862Y1024574D01*
X2354800Y1026779D02*
X2355455Y1025736D01*
X2353929Y1027650D02*
X2354800Y1026779D01*
X2352886Y1028306D02*
X2353929Y1027650D01*
X2351724Y1028712D02*
X2352886Y1028306D01*
X2350500Y1028850D02*
X2351724Y1028712D01*
X2221500Y1028850D02*
X2350500D01*
X3017250Y317350D02*
X3018474Y317488D01*
X3019636Y317895D01*
X3020679Y318550D01*
X3021550Y319421D01*
X3022206Y320464D01*
X3022612Y321626D01*
X3022750Y322850D01*
Y451850D01*
X3022612Y453074D02*
X3022750Y451850D01*
X3022206Y454237D02*
X3022612Y453074D01*
X3021550Y455280D02*
X3022206Y454237D01*
X3020679Y456150D02*
X3021550Y455280D01*
X3019636Y456806D02*
X3020679Y456150D01*
X3018474Y457212D02*
X3019636Y456806D01*
X3017250Y457350D02*
X3018474Y457212D01*
X2888250Y457350D02*
X3017250Y457350D01*
X2887026Y457212D02*
X2888250Y457350D01*
X2885864Y456806D02*
X2887026Y457212D01*
X2884821Y456150D02*
X2885864Y456806D01*
X2883950Y455280D02*
X2884821Y456150D01*
X2883295Y454237D02*
X2883950Y455280D01*
X2882888Y453074D02*
X2883295Y454237D01*
X2882750Y451850D02*
X2882888Y453074D01*
X2882750Y322850D02*
Y451850D01*
Y322850D02*
X2882888Y321626D01*
X2883295Y320464D01*
X2883950Y319421D01*
X2884821Y318550D01*
X2885864Y317895D01*
X2887026Y317488D01*
X2888250Y317350D01*
X3017250D01*
Y1079350D02*
X3018474Y1079488D01*
X3019636Y1079895D01*
X3020679Y1080550D01*
X3021550Y1081421D01*
X3022206Y1082464D01*
X3022612Y1083626D01*
X3022750Y1084850D01*
Y1213850D01*
X3022612Y1215074D02*
X3022750Y1213850D01*
X3022206Y1216237D02*
X3022612Y1215074D01*
X3021550Y1217280D02*
X3022206Y1216237D01*
X3020679Y1218150D02*
X3021550Y1217280D01*
X3019636Y1218806D02*
X3020679Y1218150D01*
X3018474Y1219212D02*
X3019636Y1218806D01*
X3017250Y1219350D02*
X3018474Y1219212D01*
X2888250Y1219350D02*
X3017250D01*
X2887026Y1219212D02*
X2888250Y1219350D01*
X2885864Y1218806D02*
X2887026Y1219212D01*
X2884821Y1218150D02*
X2885864Y1218806D01*
X2883950Y1217280D02*
X2884821Y1218150D01*
X2883295Y1216237D02*
X2883950Y1217280D01*
X2882888Y1215074D02*
X2883295Y1216237D01*
X2882750Y1213850D02*
X2882888Y1215074D01*
X2882750Y1084850D02*
Y1213850D01*
Y1084850D02*
X2882888Y1083626D01*
X2883295Y1082464D01*
X2883950Y1081421D01*
X2884821Y1080550D01*
X2885864Y1079895D01*
X2887026Y1079488D01*
X2888250Y1079350D01*
X3017250D01*
Y888850D02*
X3018474Y888988D01*
X3019636Y889395D01*
X3020679Y890050D01*
X3021550Y890921D01*
X3022206Y891964D01*
X3022612Y893126D01*
X3022750Y894350D01*
Y1023350D01*
X3022612Y1024574D02*
X3022750Y1023350D01*
X3022206Y1025737D02*
X3022612Y1024574D01*
X3021550Y1026779D02*
X3022206Y1025737D01*
X3020679Y1027650D02*
X3021550Y1026779D01*
X3019636Y1028306D02*
X3020679Y1027650D01*
X3018474Y1028712D02*
X3019636Y1028306D01*
X3017250Y1028850D02*
X3018474Y1028712D01*
X2888250Y1028850D02*
X3017250D01*
X2887026Y1028712D02*
X2888250Y1028850D01*
X2885864Y1028306D02*
X2887026Y1028712D01*
X2884821Y1027650D02*
X2885864Y1028306D01*
X2883950Y1026779D02*
X2884821Y1027650D01*
X2883295Y1025737D02*
X2883950Y1026779D01*
X2882888Y1024574D02*
X2883295Y1025737D01*
X2882750Y1023350D02*
X2882888Y1024574D01*
X2882750Y894350D02*
Y1023350D01*
Y894350D02*
X2882888Y893126D01*
X2883295Y891964D01*
X2883950Y890921D01*
X2884821Y890050D01*
X2885864Y889395D01*
X2887026Y888988D01*
X2888250Y888850D01*
X3017250D01*
Y698350D02*
X3018474Y698488D01*
X3019636Y698895D01*
X3020679Y699550D01*
X3021550Y700421D01*
X3022206Y701464D01*
X3022612Y702626D01*
X3022750Y703850D01*
Y832850D01*
X3022612Y834074D02*
X3022750Y832850D01*
X3022206Y835237D02*
X3022612Y834074D01*
X3021550Y836280D02*
X3022206Y835237D01*
X3020679Y837150D02*
X3021550Y836280D01*
X3019636Y837806D02*
X3020679Y837150D01*
X3018474Y838212D02*
X3019636Y837806D01*
X3017250Y838350D02*
X3018474Y838212D01*
X2888250Y838350D02*
X3017250Y838350D01*
X2887026Y838212D02*
X2888250Y838350D01*
X2885864Y837806D02*
X2887026Y838212D01*
X2884821Y837150D02*
X2885864Y837806D01*
X2883950Y836280D02*
X2884821Y837150D01*
X2883295Y835237D02*
X2883950Y836280D01*
X2882888Y834074D02*
X2883295Y835237D01*
X2882750Y832850D02*
X2882888Y834074D01*
X2882750Y703850D02*
Y832850D01*
Y703850D02*
X2882888Y702626D01*
X2883295Y701464D01*
X2883950Y700421D01*
X2884821Y699550D01*
X2885864Y698895D01*
X2887026Y698488D01*
X2888250Y698350D01*
X3017250Y698350D01*
Y507850D02*
X3018474Y507988D01*
X3019636Y508395D01*
X3020679Y509050D01*
X3021550Y509921D01*
X3022206Y510964D01*
X3022612Y512126D01*
X3022750Y513350D01*
Y642350D01*
X3022612Y643574D02*
X3022750Y642350D01*
X3022206Y644737D02*
X3022612Y643574D01*
X3021550Y645779D02*
X3022206Y644737D01*
X3020679Y646650D02*
X3021550Y645779D01*
X3019636Y647306D02*
X3020679Y646650D01*
X3018474Y647712D02*
X3019636Y647306D01*
X3017250Y647850D02*
X3018474Y647712D01*
X2888250Y647850D02*
X3017250Y647850D01*
X2887026Y647712D02*
X2888250Y647850D01*
X2885864Y647306D02*
X2887026Y647712D01*
X2884821Y646650D02*
X2885864Y647306D01*
X2883950Y645779D02*
X2884821Y646650D01*
X2883295Y644737D02*
X2883950Y645779D01*
X2882888Y643574D02*
X2883295Y644737D01*
X2882750Y642350D02*
X2882888Y643574D01*
X2882750Y513350D02*
Y642350D01*
Y513350D02*
X2882888Y512126D01*
X2883295Y510964D01*
X2883950Y509921D01*
X2884821Y509050D01*
X2885864Y508395D01*
X2887026Y507988D01*
X2888250Y507850D01*
X3017250Y507850D01*
X1124901Y838212D02*
X1126125Y838350D01*
X1123739Y837805D02*
X1124901Y838212D01*
X1122696Y837150D02*
X1123739Y837805D01*
X1121825Y836279D02*
X1122696Y837150D01*
X1121170Y835237D02*
X1121825Y836279D01*
X1120763Y834074D02*
X1121170Y835237D01*
X1120625Y832850D02*
X1120763Y834074D01*
X1120625Y832850D02*
X1120625Y703850D01*
X1120763Y702626D01*
X1121170Y701464D01*
X1121825Y700421D01*
X1122696Y699550D01*
X1123739Y698895D01*
X1124901Y698488D01*
X1126125Y698350D01*
X1255125Y698350D01*
X1256349Y698488D01*
X1257511Y698895D01*
X1258554Y699550D01*
X1259425Y700421D01*
X1260080Y701464D01*
X1260487Y702626D01*
X1260625Y703850D01*
X1260625Y832850D02*
X1260625Y703850D01*
X1260487Y834074D02*
X1260625Y832850D01*
X1260080Y835237D02*
X1260487Y834074D01*
X1259425Y836279D02*
X1260080Y835237D01*
X1258554Y837150D02*
X1259425Y836279D01*
X1257511Y837805D02*
X1258554Y837150D01*
X1256349Y838212D02*
X1257511Y837805D01*
X1255125Y838350D02*
X1256349Y838212D01*
X1126125Y838350D02*
X1255125Y838350D01*
X1029651Y647712D02*
X1030875Y647850D01*
X1028489Y647305D02*
X1029651Y647712D01*
X1027446Y646650D02*
X1028489Y647305D01*
X1026575Y645779D02*
X1027446Y646650D01*
X1025920Y644736D02*
X1026575Y645779D01*
X1025513Y643574D02*
X1025920Y644736D01*
X1025375Y642350D02*
X1025513Y643574D01*
X1025375Y513350D02*
Y642350D01*
Y513350D02*
X1025513Y512126D01*
X1025920Y510964D01*
X1026575Y509921D01*
X1027446Y509050D01*
X1028489Y508395D01*
X1029651Y507988D01*
X1030875Y507850D01*
X1159875D01*
X1161099Y507988D01*
X1162261Y508395D01*
X1163304Y509050D01*
X1164175Y509921D01*
X1164830Y510964D01*
X1165237Y512126D01*
X1165375Y513350D01*
Y642350D01*
X1165237Y643574D02*
X1165375Y642350D01*
X1164830Y644736D02*
X1165237Y643574D01*
X1164175Y645779D02*
X1164830Y644736D01*
X1163304Y646650D02*
X1164175Y645779D01*
X1162261Y647305D02*
X1163304Y646650D01*
X1161099Y647712D02*
X1162261Y647305D01*
X1159875Y647850D02*
X1161099Y647712D01*
X1030875Y647850D02*
X1159875D01*
X743901Y838212D02*
X745125Y838350D01*
X742739Y837805D02*
X743901Y838212D01*
X741696Y837150D02*
X742739Y837805D01*
X740825Y836279D02*
X741696Y837150D01*
X740170Y835236D02*
X740825Y836279D01*
X739763Y834074D02*
X740170Y835236D01*
X739625Y832850D02*
X739763Y834074D01*
X739625Y703850D02*
Y832850D01*
Y703850D02*
X739763Y702626D01*
X740170Y701464D01*
X740825Y700421D01*
X741696Y699550D01*
X742739Y698895D01*
X743901Y698488D01*
X745125Y698350D01*
X874125D01*
X875349Y698488D01*
X876511Y698895D01*
X877554Y699550D01*
X878425Y700421D01*
X879080Y701464D01*
X879487Y702626D01*
X879625Y703850D01*
X879625Y832850D02*
X879625Y703850D01*
X879487Y834074D02*
X879625Y832850D01*
X879080Y835236D02*
X879487Y834074D01*
X878425Y836279D02*
X879080Y835236D01*
X877554Y837150D02*
X878425Y836279D01*
X876511Y837805D02*
X877554Y837150D01*
X875349Y838212D02*
X876511Y837805D01*
X874125Y838350D02*
X875349Y838212D01*
X745125Y838350D02*
X874125D01*
X883000Y327350D02*
X885337Y327613D01*
X887556Y328390D01*
X889547Y329641D01*
X891209Y331303D01*
X892460Y333294D01*
X893237Y335514D01*
X893500Y337850D01*
Y466850D01*
X893237Y469187D02*
X893500Y466850D01*
X892460Y471406D02*
X893237Y469187D01*
X891209Y473397D02*
X892460Y471406D01*
X889547Y475059D02*
X891209Y473397D01*
X887556Y476310D02*
X889547Y475059D01*
X885337Y477087D02*
X887556Y476310D01*
X883000Y477350D02*
X885337Y477087D01*
X783875Y477350D02*
X883000D01*
X781538Y477087D02*
X783875Y477350D01*
X779319Y476310D02*
X781538Y477087D01*
X777328Y475059D02*
X779319Y476310D01*
X775666Y473397D02*
X777328Y475059D01*
X774415Y471406D02*
X775666Y473397D01*
X773638Y469187D02*
X774415Y471406D01*
X773375Y466850D02*
X773638Y469187D01*
X773375Y337850D02*
Y466850D01*
Y337850D02*
X773638Y335514D01*
X774415Y333294D01*
X775666Y331303D01*
X777328Y329641D01*
X779319Y328390D01*
X781538Y327613D01*
X783875Y327350D01*
X883000Y327350D01*
X1069987Y834074D02*
X1070125Y832850D01*
X1069580Y835237D02*
X1069987Y834074D01*
X1068925Y836279D02*
X1069580Y835237D01*
X1068054Y837150D02*
X1068925Y836279D01*
X1067011Y837805D02*
X1068054Y837150D01*
X1065849Y838212D02*
X1067011Y837805D01*
X1064625Y838350D02*
X1065849Y838212D01*
X935625Y838350D02*
X1064625D01*
X934401Y838212D02*
X935625Y838350D01*
X933239Y837805D02*
X934401Y838212D01*
X932196Y837150D02*
X933239Y837805D01*
X931325Y836279D02*
X932196Y837150D01*
X930670Y835236D02*
X931325Y836279D01*
X930263Y834074D02*
X930670Y835236D01*
X930125Y832850D02*
X930263Y834074D01*
X930125Y832850D02*
X930125Y703850D01*
X930263Y702626D01*
X930670Y701464D01*
X931325Y700421D01*
X932196Y699550D01*
X933239Y698895D01*
X934401Y698488D01*
X935625Y698350D01*
X1064625D01*
X1065849Y698488D01*
X1067011Y698895D01*
X1068054Y699550D01*
X1068925Y700421D01*
X1069580Y701464D01*
X1069987Y702626D01*
X1070125Y703850D01*
X1070125Y832850D02*
X1070125Y703850D01*
X1022362Y1024574D02*
X1022500Y1023350D01*
X1021955Y1025736D02*
X1022362Y1024574D01*
X1021300Y1026779D02*
X1021955Y1025736D01*
X1020429Y1027650D02*
X1021300Y1026779D01*
X1019386Y1028306D02*
X1020429Y1027650D01*
X1018224Y1028712D02*
X1019386Y1028306D01*
X1017000Y1028850D02*
X1018224Y1028712D01*
X888000Y1028850D02*
X1017000Y1028850D01*
X886776Y1028712D02*
X888000Y1028850D01*
X885614Y1028305D02*
X886776Y1028712D01*
X884571Y1027650D02*
X885614Y1028305D01*
X883700Y1026779D02*
X884571Y1027650D01*
X883045Y1025736D02*
X883700Y1026779D01*
X882638Y1024574D02*
X883045Y1025736D01*
X882500Y1023350D02*
X882638Y1024574D01*
X882500Y894350D02*
Y1023350D01*
Y894350D02*
X882638Y893126D01*
X883045Y891964D01*
X883700Y890921D01*
X884571Y890050D01*
X885614Y889395D01*
X886776Y888988D01*
X888000Y888850D01*
X1017000Y888850D01*
X1018224Y888988D01*
X1019386Y889395D01*
X1020429Y890050D01*
X1021300Y890921D01*
X1021955Y891964D01*
X1022362Y893126D01*
X1022500Y894350D01*
Y1023350D01*
X927112Y1215074D02*
X927250Y1213850D01*
X926705Y1216236D02*
X927112Y1215074D01*
X926050Y1217279D02*
X926705Y1216236D01*
X925179Y1218150D02*
X926050Y1217279D01*
X924136Y1218805D02*
X925179Y1218150D01*
X922974Y1219212D02*
X924136Y1218805D01*
X921750Y1219350D02*
X922974Y1219212D01*
X792750Y1219350D02*
X921750D01*
X791526Y1219212D02*
X792750Y1219350D01*
X790364Y1218805D02*
X791526Y1219212D01*
X789321Y1218150D02*
X790364Y1218805D01*
X788450Y1217279D02*
X789321Y1218150D01*
X787795Y1216236D02*
X788450Y1217279D01*
X787388Y1215074D02*
X787795Y1216236D01*
X787250Y1213850D02*
X787388Y1215074D01*
X787250Y1084850D02*
Y1213850D01*
Y1084850D02*
X787388Y1083626D01*
X787795Y1082464D01*
X788450Y1081421D01*
X789321Y1080550D01*
X790364Y1079895D01*
X791526Y1079488D01*
X792750Y1079350D01*
X921750D01*
X922974Y1079488D01*
X924136Y1079895D01*
X925179Y1080550D01*
X926050Y1081421D01*
X926705Y1082464D01*
X927112Y1083626D01*
X927250Y1084850D01*
Y1213850D01*
X974737Y643574D02*
X974875Y642350D01*
X974330Y644736D02*
X974737Y643574D01*
X973675Y645779D02*
X974330Y644736D01*
X972804Y646650D02*
X973675Y645779D01*
X971761Y647305D02*
X972804Y646650D01*
X970599Y647712D02*
X971761Y647305D01*
X969375Y647850D02*
X970599Y647712D01*
X840375Y647850D02*
X969375D01*
X839151Y647712D02*
X840375Y647850D01*
X837989Y647305D02*
X839151Y647712D01*
X836946Y646650D02*
X837989Y647305D01*
X836075Y645779D02*
X836946Y646650D01*
X835420Y644736D02*
X836075Y645779D01*
X835013Y643574D02*
X835420Y644736D01*
X834875Y642350D02*
X835013Y643574D01*
X834875Y513350D02*
Y642350D01*
Y513350D02*
X835013Y512126D01*
X835420Y510964D01*
X836075Y509921D01*
X836946Y509050D01*
X837989Y508395D01*
X839151Y507988D01*
X840375Y507850D01*
X969375D01*
X970599Y507988D01*
X971761Y508395D01*
X972804Y509050D01*
X973675Y509921D01*
X974330Y510964D01*
X974737Y512126D01*
X974875Y513350D01*
Y642350D01*
X1117750Y1084850D02*
Y1213850D01*
X1117612Y1215074D02*
X1117750Y1213850D01*
X1117205Y1216236D02*
X1117612Y1215074D01*
X1116550Y1217279D02*
X1117205Y1216236D01*
X1115679Y1218150D02*
X1116550Y1217279D01*
X1114636Y1218805D02*
X1115679Y1218150D01*
X1113474Y1219212D02*
X1114636Y1218805D01*
X1112250Y1219350D02*
X1113474Y1219212D01*
X983250Y1219350D02*
X1112250D01*
X982026Y1219212D02*
X983250Y1219350D01*
X980864Y1218805D02*
X982026Y1219212D01*
X979821Y1218150D02*
X980864Y1218805D01*
X978950Y1217279D02*
X979821Y1218150D01*
X978295Y1216236D02*
X978950Y1217279D01*
X977888Y1215074D02*
X978295Y1216236D01*
X977750Y1213850D02*
X977888Y1215074D01*
X977750Y1084850D02*
Y1213850D01*
Y1084850D02*
X977888Y1083626D01*
X978295Y1082464D01*
X978950Y1081421D01*
X979821Y1080550D01*
X980864Y1079895D01*
X982026Y1079488D01*
X983250Y1079350D01*
X1112250D01*
X1113474Y1079488D01*
X1114636Y1079895D01*
X1115679Y1080550D01*
X1116550Y1081421D01*
X1117205Y1082464D01*
X1117612Y1083626D01*
X1117750Y1084850D01*
X1077276Y1028712D02*
X1078500Y1028850D01*
X1076114Y1028306D02*
X1077276Y1028712D01*
X1075071Y1027650D02*
X1076114Y1028306D01*
X1074200Y1026779D02*
X1075071Y1027650D01*
X1073545Y1025736D02*
X1074200Y1026779D01*
X1073138Y1024574D02*
X1073545Y1025736D01*
X1073000Y1023350D02*
X1073138Y1024574D01*
X1073000Y894350D02*
Y1023350D01*
Y894350D02*
X1073138Y893126D01*
X1073545Y891964D01*
X1074200Y890921D01*
X1075071Y890050D01*
X1076114Y889395D01*
X1077276Y888988D01*
X1078500Y888850D01*
X1207500D01*
X1208724Y888988D01*
X1209886Y889395D01*
X1210929Y890050D01*
X1211800Y890921D01*
X1212455Y891964D01*
X1212862Y893126D01*
X1213000Y894350D01*
Y1023350D01*
X1212862Y1024574D02*
X1213000Y1023350D01*
X1212455Y1025736D02*
X1212862Y1024574D01*
X1211800Y1026779D02*
X1212455Y1025736D01*
X1210929Y1027650D02*
X1211800Y1026779D01*
X1209886Y1028306D02*
X1210929Y1027650D01*
X1208724Y1028712D02*
X1209886Y1028306D01*
X1207500Y1028850D02*
X1208724Y1028712D01*
X1078500Y1028850D02*
X1207500D01*
X1921875Y507850D02*
X1923099Y507988D01*
X1924261Y508395D01*
X1925304Y509050D01*
X1926175Y509921D01*
X1926830Y510964D01*
X1927237Y512126D01*
X1927375Y513350D01*
Y642350D01*
X1927237Y643574D02*
X1927375Y642350D01*
X1926830Y644736D02*
X1927237Y643574D01*
X1926175Y645779D02*
X1926830Y644736D01*
X1925304Y646650D02*
X1926175Y645779D01*
X1924261Y647306D02*
X1925304Y646650D01*
X1923099Y647712D02*
X1924261Y647306D01*
X1921875Y647850D02*
X1923099Y647712D01*
X1792875Y647850D02*
X1921875Y647850D01*
X1791651Y647712D02*
X1792875Y647850D01*
X1790489Y647306D02*
X1791651Y647712D01*
X1789446Y646650D02*
X1790489Y647306D01*
X1788575Y645779D02*
X1789446Y646650D01*
X1787920Y644736D02*
X1788575Y645779D01*
X1787513Y643574D02*
X1787920Y644736D01*
X1787375Y642350D02*
X1787513Y643574D01*
X1787375Y513350D02*
Y642350D01*
Y513350D02*
X1787513Y512126D01*
X1787920Y510964D01*
X1788575Y509921D01*
X1789446Y509050D01*
X1790489Y508395D01*
X1791651Y507988D01*
X1792875Y507850D01*
X1921875Y507850D01*
X1243964Y457212D02*
X1245188Y457350D01*
X1242801Y456805D02*
X1243964Y457212D01*
X1241758Y456150D02*
X1242801Y456805D01*
X1240887Y455279D02*
X1241758Y456150D01*
X1240232Y454236D02*
X1240887Y455279D01*
X1239825Y453074D02*
X1240232Y454236D01*
X1239688Y451850D02*
X1239825Y453074D01*
X1239688Y322600D02*
Y451850D01*
Y322600D02*
X1239819Y321432D01*
X1240207Y320322D01*
X1240833Y319327D01*
X1241664Y318496D01*
X1242660Y317870D01*
X1243769Y317482D01*
X1244938Y317350D01*
X1493250Y317350D01*
X1494474Y317488D01*
X1495636Y317895D01*
X1496679Y318550D01*
X1497550Y319421D01*
X1498205Y320464D01*
X1498612Y321626D01*
X1498750Y322850D01*
Y451850D01*
X1498612Y453074D02*
X1498750Y451850D01*
X1498205Y454236D02*
X1498612Y453074D01*
X1497550Y455279D02*
X1498205Y454236D01*
X1496679Y456150D02*
X1497550Y455279D01*
X1495636Y456805D02*
X1496679Y456150D01*
X1494474Y457212D02*
X1495636Y456805D01*
X1493250Y457350D02*
X1494474Y457212D01*
X1245188Y457350D02*
X1493250D01*
X1784000Y327350D02*
X1835500D01*
X1837836Y327613D01*
X1840056Y328390D01*
X1842047Y329641D01*
X1843709Y331304D01*
X1844960Y333294D01*
X1845737Y335514D01*
X1846000Y337850D01*
Y466850D01*
X1845737Y469187D02*
X1846000Y466850D01*
X1844960Y471406D02*
X1845737Y469187D01*
X1843709Y473397D02*
X1844960Y471406D01*
X1842047Y475059D02*
X1843709Y473397D01*
X1840056Y476310D02*
X1842047Y475059D01*
X1837836Y477087D02*
X1840056Y476310D01*
X1835500Y477350D02*
X1837836Y477087D01*
X1784000Y477350D02*
X1835500D01*
X1781664Y477087D02*
X1784000Y477350D01*
X1779444Y476310D02*
X1781664Y477087D01*
X1777453Y475059D02*
X1779444Y476310D01*
X1775791Y473397D02*
X1777453Y475059D01*
X1774540Y471406D02*
X1775791Y473397D01*
X1773763Y469187D02*
X1774540Y471406D01*
X1773500Y466850D02*
X1773763Y469187D01*
X1773500Y337850D02*
Y466850D01*
Y337850D02*
X1773763Y335514D01*
X1774540Y333294D01*
X1775791Y331304D01*
X1777453Y329641D01*
X1779444Y328390D01*
X1781664Y327613D01*
X1784000Y327350D01*
X1689112Y1215074D02*
X1689250Y1213850D01*
X1688705Y1216236D02*
X1689112Y1215074D01*
X1688050Y1217279D02*
X1688705Y1216236D01*
X1687179Y1218150D02*
X1688050Y1217279D01*
X1686136Y1218805D02*
X1687179Y1218150D01*
X1684974Y1219212D02*
X1686136Y1218805D01*
X1683750Y1219350D02*
X1684974Y1219212D01*
X1554750Y1219350D02*
X1683750D01*
X1553526Y1219212D02*
X1554750Y1219350D01*
X1552364Y1218805D02*
X1553526Y1219212D01*
X1551321Y1218150D02*
X1552364Y1218805D01*
X1550450Y1217279D02*
X1551321Y1218150D01*
X1549795Y1216236D02*
X1550450Y1217279D01*
X1549388Y1215074D02*
X1549795Y1216236D01*
X1549250Y1213850D02*
X1549388Y1215074D01*
X1549250Y1084850D02*
Y1213850D01*
Y1084850D02*
X1549388Y1083626D01*
X1549795Y1082464D01*
X1550450Y1081421D01*
X1551321Y1080550D01*
X1552364Y1079895D01*
X1553526Y1079488D01*
X1554750Y1079350D01*
X1683750D01*
X1684974Y1079488D01*
X1686136Y1079895D01*
X1687179Y1080550D01*
X1688050Y1081421D01*
X1688705Y1082464D01*
X1689112Y1083626D01*
X1689250Y1084850D01*
Y1213850D01*
X1879612Y1215074D02*
X1879750Y1213850D01*
X1879205Y1216236D02*
X1879612Y1215074D01*
X1878550Y1217279D02*
X1879205Y1216236D01*
X1877679Y1218150D02*
X1878550Y1217279D01*
X1876636Y1218805D02*
X1877679Y1218150D01*
X1875474Y1219212D02*
X1876636Y1218805D01*
X1874250Y1219350D02*
X1875474Y1219212D01*
X1745250Y1219350D02*
X1874250D01*
X1744026Y1219212D02*
X1745250Y1219350D01*
X1742864Y1218805D02*
X1744026Y1219212D01*
X1741821Y1218150D02*
X1742864Y1218805D01*
X1740950Y1217279D02*
X1741821Y1218150D01*
X1740295Y1216236D02*
X1740950Y1217279D01*
X1739888Y1215074D02*
X1740295Y1216236D01*
X1739750Y1213850D02*
X1739888Y1215074D01*
X1739750Y1084850D02*
Y1213850D01*
Y1084850D02*
X1739888Y1083626D01*
X1740295Y1082464D01*
X1740950Y1081421D01*
X1741821Y1080550D01*
X1742864Y1079895D01*
X1744026Y1079488D01*
X1745250Y1079350D01*
X1874250D01*
X1875474Y1079488D01*
X1876636Y1079895D01*
X1877679Y1080550D01*
X1878550Y1081421D01*
X1879205Y1082464D01*
X1879612Y1083626D01*
X1879750Y1084850D01*
Y1213850D01*
X1546237Y643574D02*
X1546375Y642350D01*
X1545830Y644736D02*
X1546237Y643574D01*
X1545175Y645779D02*
X1545830Y644736D01*
X1544304Y646650D02*
X1545175Y645779D01*
X1543261Y647306D02*
X1544304Y646650D01*
X1542099Y647712D02*
X1543261Y647306D01*
X1540875Y647850D02*
X1542099Y647712D01*
X1411875Y647850D02*
X1540875D01*
X1410651Y647712D02*
X1411875Y647850D01*
X1409489Y647306D02*
X1410651Y647712D01*
X1408446Y646650D02*
X1409489Y647306D01*
X1407575Y645779D02*
X1408446Y646650D01*
X1406920Y644736D02*
X1407575Y645779D01*
X1406513Y643574D02*
X1406920Y644736D01*
X1406375Y642350D02*
X1406513Y643574D01*
X1406375Y513350D02*
Y642350D01*
Y513350D02*
X1406513Y512126D01*
X1406920Y510964D01*
X1407575Y509921D01*
X1408446Y509050D01*
X1409489Y508395D01*
X1410651Y507988D01*
X1411875Y507850D01*
X1540875D01*
X1542099Y507988D01*
X1543261Y508395D01*
X1544304Y509050D01*
X1545175Y509921D01*
X1545830Y510964D01*
X1546237Y512126D01*
X1546375Y513350D01*
Y642350D01*
X1641487Y834074D02*
X1641625Y832850D01*
X1641080Y835237D02*
X1641487Y834074D01*
X1640425Y836279D02*
X1641080Y835237D01*
X1639554Y837150D02*
X1640425Y836279D01*
X1638511Y837805D02*
X1639554Y837150D01*
X1637349Y838212D02*
X1638511Y837805D01*
X1636125Y838350D02*
X1637349Y838212D01*
X1507125Y838350D02*
X1636125D01*
X1505901Y838212D02*
X1507125Y838350D01*
X1504739Y837805D02*
X1505901Y838212D01*
X1503696Y837150D02*
X1504739Y837805D01*
X1502825Y836279D02*
X1503696Y837150D01*
X1502170Y835237D02*
X1502825Y836279D01*
X1501763Y834074D02*
X1502170Y835237D01*
X1501625Y832850D02*
X1501763Y834074D01*
X1501625Y832850D02*
X1501625Y703850D01*
X1501763Y702626D01*
X1502170Y701464D01*
X1502825Y700421D01*
X1503696Y699550D01*
X1504739Y698895D01*
X1505901Y698488D01*
X1507125Y698350D01*
X1636125D01*
X1637349Y698488D01*
X1638511Y698895D01*
X1639554Y699550D01*
X1640425Y700421D01*
X1641080Y701464D01*
X1641487Y702626D01*
X1641625Y703850D01*
X1641625Y832850D02*
X1641625Y703850D01*
X1308112Y1215074D02*
X1308250Y1213850D01*
X1307705Y1216236D02*
X1308112Y1215074D01*
X1307050Y1217279D02*
X1307705Y1216236D01*
X1306179Y1218150D02*
X1307050Y1217279D01*
X1305136Y1218805D02*
X1306179Y1218150D01*
X1303974Y1219212D02*
X1305136Y1218805D01*
X1302750Y1219350D02*
X1303974Y1219212D01*
X1173750Y1219350D02*
X1302750D01*
X1172526Y1219212D02*
X1173750Y1219350D01*
X1171364Y1218805D02*
X1172526Y1219212D01*
X1170321Y1218150D02*
X1171364Y1218805D01*
X1169450Y1217279D02*
X1170321Y1218150D01*
X1168795Y1216236D02*
X1169450Y1217279D01*
X1168388Y1215074D02*
X1168795Y1216236D01*
X1168250Y1213850D02*
X1168388Y1215074D01*
X1168250Y1084850D02*
Y1213850D01*
Y1084850D02*
X1168388Y1083626D01*
X1168795Y1082464D01*
X1169450Y1081421D01*
X1170321Y1080550D01*
X1171364Y1079895D01*
X1172526Y1079488D01*
X1173750Y1079350D01*
X1302750D01*
X1303974Y1079488D01*
X1305136Y1079895D01*
X1306179Y1080550D01*
X1307050Y1081421D01*
X1307705Y1082464D01*
X1308112Y1083626D01*
X1308250Y1084850D01*
Y1213850D01*
X1593862Y1024574D02*
X1594000Y1023350D01*
X1593455Y1025736D02*
X1593862Y1024574D01*
X1592800Y1026779D02*
X1593455Y1025736D01*
X1591929Y1027650D02*
X1592800Y1026779D01*
X1590886Y1028306D02*
X1591929Y1027650D01*
X1589724Y1028712D02*
X1590886Y1028306D01*
X1588500Y1028850D02*
X1589724Y1028712D01*
X1459500Y1028850D02*
X1588500D01*
X1458276Y1028712D02*
X1459500Y1028850D01*
X1457114Y1028306D02*
X1458276Y1028712D01*
X1456071Y1027650D02*
X1457114Y1028306D01*
X1455200Y1026779D02*
X1456071Y1027650D01*
X1454545Y1025736D02*
X1455200Y1026779D01*
X1454138Y1024574D02*
X1454545Y1025736D01*
X1454000Y1023350D02*
X1454138Y1024574D01*
X1454000Y894350D02*
Y1023350D01*
Y894350D02*
X1454138Y893126D01*
X1454545Y891964D01*
X1455200Y890921D01*
X1456071Y890050D01*
X1457114Y889395D01*
X1458276Y888988D01*
X1459500Y888850D01*
X1588500D01*
X1589724Y888988D01*
X1590886Y889395D01*
X1591929Y890050D01*
X1592800Y890921D01*
X1593455Y891964D01*
X1593862Y893126D01*
X1594000Y894350D01*
Y1023350D01*
X1784362Y1024574D02*
X1784500Y1023350D01*
X1783955Y1025736D02*
X1784362Y1024574D01*
X1783300Y1026779D02*
X1783955Y1025736D01*
X1782429Y1027650D02*
X1783300Y1026779D01*
X1781386Y1028306D02*
X1782429Y1027650D01*
X1780224Y1028712D02*
X1781386Y1028306D01*
X1779000Y1028850D02*
X1780224Y1028712D01*
X1650000Y1028850D02*
X1779000D01*
X1648776Y1028712D02*
X1650000Y1028850D01*
X1647614Y1028306D02*
X1648776Y1028712D01*
X1646571Y1027650D02*
X1647614Y1028306D01*
X1645700Y1026779D02*
X1646571Y1027650D01*
X1645045Y1025736D02*
X1645700Y1026779D01*
X1644638Y1024574D02*
X1645045Y1025736D01*
X1644500Y1023350D02*
X1644638Y1024574D01*
X1644500Y894350D02*
Y1023350D01*
Y894350D02*
X1644638Y893126D01*
X1645045Y891964D01*
X1645700Y890921D01*
X1646571Y890050D01*
X1647614Y889395D01*
X1648776Y888988D01*
X1650000Y888850D01*
X1779000D01*
X1780224Y888988D01*
X1781386Y889395D01*
X1782429Y890050D01*
X1783300Y890921D01*
X1783955Y891964D01*
X1784362Y893126D01*
X1784500Y894350D01*
Y1023350D01*
X1831987Y834074D02*
X1832125Y832850D01*
X1831580Y835237D02*
X1831987Y834074D01*
X1830925Y836279D02*
X1831580Y835237D01*
X1830054Y837150D02*
X1830925Y836279D01*
X1829011Y837805D02*
X1830054Y837150D01*
X1827849Y838212D02*
X1829011Y837805D01*
X1826625Y838350D02*
X1827849Y838212D01*
X1697625Y838350D02*
X1826625Y838350D01*
X1696401Y838212D02*
X1697625Y838350D01*
X1695239Y837805D02*
X1696401Y838212D01*
X1694196Y837150D02*
X1695239Y837805D01*
X1693325Y836279D02*
X1694196Y837150D01*
X1692670Y835237D02*
X1693325Y836279D01*
X1692263Y834074D02*
X1692670Y835237D01*
X1692125Y832850D02*
X1692263Y834074D01*
X1692125Y832850D02*
X1692125Y703850D01*
X1692263Y702626D01*
X1692670Y701464D01*
X1693325Y700421D01*
X1694196Y699550D01*
X1695239Y698895D01*
X1696401Y698488D01*
X1697625Y698350D01*
X1826625Y698350D01*
X1827849Y698488D01*
X1829011Y698895D01*
X1830054Y699550D01*
X1830925Y700421D01*
X1831580Y701464D01*
X1831987Y702626D01*
X1832125Y703850D01*
Y832850D01*
X1355737Y643574D02*
X1355875Y642350D01*
X1355330Y644736D02*
X1355737Y643574D01*
X1354675Y645779D02*
X1355330Y644736D01*
X1353804Y646650D02*
X1354675Y645779D01*
X1352761Y647306D02*
X1353804Y646650D01*
X1351599Y647712D02*
X1352761Y647306D01*
X1350375Y647850D02*
X1351599Y647712D01*
X1221375Y647850D02*
X1350375Y647850D01*
X1220151Y647712D02*
X1221375Y647850D01*
X1218989Y647305D02*
X1220151Y647712D01*
X1217946Y646650D02*
X1218989Y647305D01*
X1217075Y645779D02*
X1217946Y646650D01*
X1216420Y644736D02*
X1217075Y645779D01*
X1216013Y643574D02*
X1216420Y644736D01*
X1215875Y642350D02*
X1216013Y643574D01*
X1215875Y513350D02*
Y642350D01*
Y513350D02*
X1216013Y512126D01*
X1216420Y510964D01*
X1217075Y509921D01*
X1217946Y509050D01*
X1218989Y508395D01*
X1220151Y507988D01*
X1221375Y507850D01*
X1350375Y507850D01*
X1351599Y507988D01*
X1352761Y508395D01*
X1353804Y509050D01*
X1354675Y509921D01*
X1355330Y510964D01*
X1355737Y512126D01*
X1355875Y513350D01*
Y642350D01*
X1498612Y1215074D02*
X1498750Y1213850D01*
X1498205Y1216236D02*
X1498612Y1215074D01*
X1497550Y1217279D02*
X1498205Y1216236D01*
X1496679Y1218150D02*
X1497550Y1217279D01*
X1495636Y1218805D02*
X1496679Y1218150D01*
X1494474Y1219212D02*
X1495636Y1218805D01*
X1493250Y1219350D02*
X1494474Y1219212D01*
X1364250Y1219350D02*
X1493250D01*
X1363026Y1219212D02*
X1364250Y1219350D01*
X1361864Y1218805D02*
X1363026Y1219212D01*
X1360821Y1218150D02*
X1361864Y1218805D01*
X1359950Y1217279D02*
X1360821Y1218150D01*
X1359295Y1216236D02*
X1359950Y1217279D01*
X1358888Y1215074D02*
X1359295Y1216236D01*
X1358750Y1213850D02*
X1358888Y1215074D01*
X1358750Y1084850D02*
Y1213850D01*
Y1084850D02*
X1358888Y1083626D01*
X1359295Y1082464D01*
X1359950Y1081421D01*
X1360821Y1080550D01*
X1361864Y1079895D01*
X1363026Y1079488D01*
X1364250Y1079350D01*
X1493250D01*
X1494474Y1079488D01*
X1495636Y1079895D01*
X1496679Y1080550D01*
X1497550Y1081421D01*
X1498205Y1082464D01*
X1498612Y1083626D01*
X1498750Y1084850D01*
Y1213850D01*
X1403362Y1024574D02*
X1403500Y1023350D01*
X1402955Y1025736D02*
X1403362Y1024574D01*
X1402300Y1026779D02*
X1402955Y1025736D01*
X1401429Y1027650D02*
X1402300Y1026779D01*
X1400386Y1028306D02*
X1401429Y1027650D01*
X1399224Y1028712D02*
X1400386Y1028306D01*
X1398000Y1028850D02*
X1399224Y1028712D01*
X1269000Y1028850D02*
X1398000D01*
X1267776Y1028712D02*
X1269000Y1028850D01*
X1266614Y1028306D02*
X1267776Y1028712D01*
X1265571Y1027650D02*
X1266614Y1028306D01*
X1264700Y1026779D02*
X1265571Y1027650D01*
X1264045Y1025736D02*
X1264700Y1026779D01*
X1263638Y1024574D02*
X1264045Y1025736D01*
X1263500Y1023350D02*
X1263638Y1024574D01*
X1263500Y894350D02*
Y1023350D01*
Y894350D02*
X1263638Y893126D01*
X1264045Y891964D01*
X1264700Y890921D01*
X1265571Y890050D01*
X1266614Y889395D01*
X1267776Y888988D01*
X1269000Y888850D01*
X1398000D01*
X1399224Y888988D01*
X1400386Y889395D01*
X1401429Y890050D01*
X1402300Y890921D01*
X1402955Y891964D01*
X1403362Y893126D01*
X1403500Y894350D01*
Y1023350D01*
X1450987Y834074D02*
X1451125Y832850D01*
X1450580Y835237D02*
X1450987Y834074D01*
X1449925Y836279D02*
X1450580Y835237D01*
X1449054Y837150D02*
X1449925Y836279D01*
X1448011Y837805D02*
X1449054Y837150D01*
X1446849Y838212D02*
X1448011Y837805D01*
X1445625Y838350D02*
X1446849Y838212D01*
X1316625Y838350D02*
X1445625D01*
X1315401Y838212D02*
X1316625Y838350D01*
X1314239Y837805D02*
X1315401Y838212D01*
X1313196Y837150D02*
X1314239Y837805D01*
X1312325Y836279D02*
X1313196Y837150D01*
X1311670Y835237D02*
X1312325Y836279D01*
X1311263Y834074D02*
X1311670Y835237D01*
X1311125Y832850D02*
X1311263Y834074D01*
X1311125Y832850D02*
X1311125Y703850D01*
X1311263Y702626D01*
X1311670Y701464D01*
X1312325Y700421D01*
X1313196Y699550D01*
X1314239Y698895D01*
X1315401Y698488D01*
X1316625Y698350D01*
X1445625D01*
X1446849Y698488D01*
X1448011Y698895D01*
X1449054Y699550D01*
X1449925Y700421D01*
X1450580Y701464D01*
X1450987Y702626D01*
X1451125Y703850D01*
X1451125Y832850D02*
X1451125Y703850D01*
X1736737Y643574D02*
X1736875Y642350D01*
X1736330Y644736D02*
X1736737Y643574D01*
X1735675Y645779D02*
X1736330Y644736D01*
X1734804Y646650D02*
X1735675Y645779D01*
X1733761Y647306D02*
X1734804Y646650D01*
X1732599Y647712D02*
X1733761Y647306D01*
X1731375Y647850D02*
X1732599Y647712D01*
X1602375Y647850D02*
X1731375D01*
X1601151Y647712D02*
X1602375Y647850D01*
X1599989Y647306D02*
X1601151Y647712D01*
X1598946Y646650D02*
X1599989Y647306D01*
X1598075Y645779D02*
X1598946Y646650D01*
X1597420Y644736D02*
X1598075Y645779D01*
X1597013Y643574D02*
X1597420Y644736D01*
X1596875Y642350D02*
X1597013Y643574D01*
X1596875Y513350D02*
Y642350D01*
Y513350D02*
X1597013Y512126D01*
X1597420Y510964D01*
X1598075Y509921D01*
X1598946Y509050D01*
X1599989Y508395D01*
X1601151Y507988D01*
X1602375Y507850D01*
X1731375D01*
X1732599Y507988D01*
X1733761Y508395D01*
X1734804Y509050D01*
X1735675Y509921D01*
X1736330Y510964D01*
X1736737Y512126D01*
X1736875Y513350D01*
Y642350D01*
X767026Y291906D02*
X768750Y292100D01*
X765387Y291333D02*
X767026Y291906D01*
X763918Y290409D02*
X765387Y291333D01*
X762691Y289182D02*
X763918Y290409D01*
X761768Y287713D02*
X762691Y289182D01*
X761194Y286075D02*
X761768Y287713D01*
X761000Y284350D02*
X761194Y286075D01*
X761000Y255850D02*
Y284350D01*
X760674Y252957D02*
X761000Y255850D01*
X759713Y250210D02*
X760674Y252957D01*
X758164Y247745D02*
X759713Y250210D01*
X756105Y245686D02*
X758164Y247745D01*
X753641Y244137D02*
X756105Y245686D01*
X750893Y243176D02*
X753641Y244137D01*
X748000Y242850D02*
X750893Y243176D01*
X385581Y242850D02*
X748000Y242850D01*
X382941Y242579D02*
X385581Y242850D01*
X380410Y241777D02*
X382941Y242579D01*
X378095Y240478D02*
X380410Y241777D01*
X376093Y238736D02*
X378095Y240478D01*
X372010Y235185D02*
X376093Y238736D01*
X367291Y232537D02*
X372010Y235185D01*
X362133Y230903D02*
X367291Y232537D01*
X356750Y230350D02*
X362133Y230903D01*
X351367D02*
X356750Y230350D01*
X346209Y232537D02*
X351367Y230903D01*
X341490Y235185D02*
X346209Y232537D01*
X337407Y238736D02*
X341490Y235185D01*
X335405Y240478D02*
X337407Y238736D01*
X333090Y241777D02*
X335405Y240478D01*
X330559Y242579D02*
X333090Y241777D01*
X327919Y242850D02*
X330559Y242579D01*
X92250Y242850D02*
X327919Y242850D01*
X89357Y243176D02*
X92250Y242850D01*
X86610Y244137D02*
X89357Y243176D01*
X84145Y245686D02*
X86610Y244137D01*
X82086Y247745D02*
X84145Y245686D01*
X80538Y250210D02*
X82086Y247745D01*
X79576Y252957D02*
X80538Y250210D01*
X79250Y255850D02*
X79576Y252957D01*
X79250Y255850D02*
Y284350D01*
X79056Y286075D02*
X79250Y284350D01*
X78483Y287713D02*
X79056Y286075D01*
X77559Y289182D02*
X78483Y287713D01*
X76332Y290409D02*
X77559Y289182D01*
X74863Y291332D02*
X76332Y290409D01*
X73225Y291906D02*
X74863Y291332D01*
X71500Y292100D02*
X73225Y291906D01*
X7750Y292100D02*
X71500D01*
X6026Y292294D02*
X7750Y292100D01*
X4387Y292868D02*
X6026Y292294D01*
X2918Y293791D02*
X4387Y292868D01*
X1691Y295018D02*
X2918Y293791D01*
X768Y296487D02*
X1691Y295018D01*
X194Y298125D02*
X768Y296487D01*
X0Y299850D02*
X194Y298125D01*
X-0Y1236850D02*
X0Y299850D01*
X-0Y1236850D02*
X194Y1238575D01*
X767Y1240213D01*
X1691Y1241682D01*
X2918Y1242909D01*
X4387Y1243832D01*
X6025Y1244406D01*
X7750Y1244600D01*
X71500D01*
X73225Y1244794D01*
X74862Y1245368D01*
X76332Y1246291D01*
X77559Y1247518D01*
X78482Y1248987D01*
X79056Y1250626D01*
X79250Y1252350D01*
Y1280850D01*
X79576Y1283743D01*
X80537Y1286490D01*
X82086Y1288955D01*
X84145Y1291014D01*
X86609Y1292563D01*
X89357Y1293524D01*
X92250Y1293850D01*
X327919D01*
X330559Y1294121D01*
X333090Y1294923D01*
X335405Y1296222D01*
X337407Y1297964D01*
X341490Y1301515D01*
X346209Y1304163D01*
X351367Y1305797D01*
X356750Y1306350D01*
X362133Y1305798D01*
X367291Y1304163D01*
X372010Y1301515D01*
X376093Y1297964D01*
X378095Y1296222D01*
X380410Y1294923D01*
X382941Y1294121D01*
X385581Y1293850D01*
X748000D01*
X750893Y1293524D01*
X753640Y1292563D01*
X756105Y1291014D01*
X758164Y1288955D01*
X759713Y1286491D01*
X760674Y1283743D01*
X761000Y1280850D01*
Y1252350D02*
Y1280850D01*
Y1252350D02*
X761194Y1250626D01*
X761767Y1248988D01*
X762691Y1247518D01*
X763918Y1246291D01*
X765387Y1245368D01*
X767025Y1244794D01*
X768750Y1244600D01*
X1112000D01*
X1113725Y1244794D01*
X1115363Y1245368D01*
X1116832Y1246291D01*
X1118059Y1247518D01*
X1118982Y1248988D01*
X1119556Y1250626D01*
X1119750Y1252350D01*
Y1280850D01*
X1120076Y1283743D01*
X1121037Y1286491D01*
X1122586Y1288956D01*
X1124645Y1291014D01*
X1127110Y1292563D01*
X1129857Y1293524D01*
X1132750Y1293850D01*
X1495169D01*
X1497809Y1294121D01*
X1500340Y1294923D01*
X1502655Y1296222D01*
X1504657Y1297964D01*
X1508740Y1301515D01*
X1513459Y1304163D01*
X1518617Y1305798D01*
X1524000Y1306350D01*
X1529383Y1305798D01*
X1534541Y1304163D01*
X1539260Y1301515D01*
X1543342Y1297964D01*
X1545345Y1296222D01*
X1547660Y1294923D01*
X1550191Y1294121D01*
X1552831Y1293850D01*
X1915250D01*
X1918143Y1293524D01*
X1920890Y1292563D01*
X1923355Y1291014D01*
X1925414Y1288956D01*
X1926962Y1286491D01*
X1927924Y1283743D01*
X1928250Y1280850D01*
Y1252350D02*
Y1280850D01*
Y1252350D02*
X1928444Y1250626D01*
X1929017Y1248988D01*
X1929941Y1247518D01*
X1931168Y1246291D01*
X1932637Y1245368D01*
X1934275Y1244794D01*
X1936000Y1244600D01*
X2279250D01*
X2280974Y1244795D01*
X2282613Y1245368D01*
X2284082Y1246291D01*
X2285309Y1247518D01*
X2286232Y1248988D01*
X2286806Y1250626D01*
X2287000Y1252350D01*
Y1280850D01*
X2287326Y1283743D01*
X2288287Y1286491D01*
X2289836Y1288956D01*
X2291895Y1291014D01*
X2294359Y1292563D01*
X2297107Y1293524D01*
X2300000Y1293850D01*
X2662419D01*
X2665059Y1294121D01*
X2667590Y1294923D01*
X2669904Y1296222D01*
X2671907Y1297964D01*
X2675990Y1301516D01*
X2680709Y1304164D01*
X2685867Y1305798D01*
X2691250Y1306350D01*
X2696633Y1305798D01*
X2701791Y1304164D01*
X2706510Y1301516D01*
X2710593Y1297964D01*
X2712596Y1296222D01*
X2714910Y1294923D01*
X2717441Y1294121D01*
X2720081Y1293850D01*
X2955750D01*
X2958643Y1293524D01*
X2961390Y1292563D01*
X2963855Y1291014D01*
X2965914Y1288956D01*
X2967462Y1286491D01*
X2968424Y1283743D01*
X2968750Y1280850D01*
Y1252350D02*
Y1280850D01*
Y1252350D02*
X2968944Y1250626D01*
X2969518Y1248988D01*
X2970441Y1247518D01*
X2971668Y1246291D01*
X2973138Y1245368D01*
X2974775Y1244795D01*
X2976500Y1244600D01*
X3040250D01*
X3041974Y1244406D01*
X3043612Y1243833D01*
X3045082Y1242909D01*
X3046309Y1241682D01*
X3047232Y1240213D01*
X3047806Y1238575D01*
X3048000Y1236850D01*
Y299850D02*
Y1236850D01*
X3047806Y298126D02*
X3048000Y299850D01*
X3047232Y296488D02*
X3047806Y298126D01*
X3046309Y295018D02*
X3047232Y296488D01*
X3045082Y293791D02*
X3046309Y295018D01*
X3043613Y292868D02*
X3045082Y293791D01*
X3041974Y292295D02*
X3043613Y292868D01*
X3040250Y292100D02*
X3041974Y292295D01*
X2976500Y292100D02*
X3040250D01*
X2974775Y291906D02*
X2976500Y292100D01*
X2973138Y291333D02*
X2974775Y291906D01*
X2971668Y290410D02*
X2973138Y291333D01*
X2970441Y289182D02*
X2971668Y290410D01*
X2969518Y287713D02*
X2970441Y289182D01*
X2968944Y286075D02*
X2969518Y287713D01*
X2968750Y284350D02*
X2968944Y286075D01*
X2968750Y255850D02*
Y284350D01*
X2968424Y252957D02*
X2968750Y255850D01*
X2967463Y250210D02*
X2968424Y252957D01*
X2965914Y247745D02*
X2967463Y250210D01*
X2963856Y245686D02*
X2965914Y247745D01*
X2961390Y244138D02*
X2963856Y245686D01*
X2958643Y243176D02*
X2961390Y244138D01*
X2955750Y242850D02*
X2958643Y243176D01*
X2720081Y242850D02*
X2955750Y242850D01*
X2717441Y242579D02*
X2720081Y242850D01*
X2714910Y241777D02*
X2717441Y242579D01*
X2712596Y240478D02*
X2714910Y241777D01*
X2710593Y238736D02*
X2712596Y240478D01*
X2706510Y235185D02*
X2710593Y238736D01*
X2701791Y232537D02*
X2706510Y235185D01*
X2696633Y230903D02*
X2701791Y232537D01*
X2691250Y230350D02*
X2696633Y230903D01*
X2685867D02*
X2691250Y230350D01*
X2680709Y232537D02*
X2685867Y230903D01*
X2675990Y235185D02*
X2680709Y232537D01*
X2671907Y238736D02*
X2675990Y235185D01*
X2669905Y240478D02*
X2671907Y238736D01*
X2667590Y241777D02*
X2669905Y240478D01*
X2665059Y242579D02*
X2667590Y241777D01*
X2662419Y242850D02*
X2665059Y242579D01*
X2300000Y242850D02*
X2662419Y242850D01*
X2297107Y243176D02*
X2300000Y242850D01*
X2294360Y244138D02*
X2297107Y243176D01*
X2291895Y245686D02*
X2294360Y244138D01*
X2289836Y247745D02*
X2291895Y245686D01*
X2288287Y250210D02*
X2289836Y247745D01*
X2287326Y252957D02*
X2288287Y250210D01*
X2287000Y255850D02*
X2287326Y252957D01*
X2287000Y255850D02*
Y284350D01*
X2286806Y286075D02*
X2287000Y284350D01*
X2286232Y287713D02*
X2286806Y286075D01*
X2285309Y289182D02*
X2286232Y287713D01*
X2284082Y290409D02*
X2285309Y289182D01*
X2282613Y291333D02*
X2284082Y290409D01*
X2280975Y291906D02*
X2282613Y291333D01*
X2279250Y292100D02*
X2280975Y291906D01*
X1936000Y292100D02*
X2279250Y292100D01*
X1934275Y291906D02*
X1936000Y292100D01*
X1932637Y291333D02*
X1934275Y291906D01*
X1931168Y290409D02*
X1932637Y291333D01*
X1929941Y289182D02*
X1931168Y290409D01*
X1929018Y287713D02*
X1929941Y289182D01*
X1928444Y286075D02*
X1929018Y287713D01*
X1928250Y284350D02*
X1928444Y286075D01*
X1928250Y255850D02*
Y284350D01*
X1927924Y252957D02*
X1928250Y255850D01*
X1926963Y250210D02*
X1927924Y252957D01*
X1925414Y247745D02*
X1926963Y250210D01*
X1923356Y245686D02*
X1925414Y247745D01*
X1920890Y244138D02*
X1923356Y245686D01*
X1918143Y243176D02*
X1920890Y244138D01*
X1915250Y242850D02*
X1918143Y243176D01*
X1552831Y242850D02*
X1915250Y242850D01*
X1550191Y242579D02*
X1552831Y242850D01*
X1547660Y241777D02*
X1550191Y242579D01*
X1545345Y240478D02*
X1547660Y241777D01*
X1543343Y238736D02*
X1545345Y240478D01*
X1539260Y235185D02*
X1543343Y238736D01*
X1534541Y232537D02*
X1539260Y235185D01*
X1529383Y230903D02*
X1534541Y232537D01*
X1524000Y230350D02*
X1529383Y230903D01*
X1518617D02*
X1524000Y230350D01*
X1513459Y232537D02*
X1518617Y230903D01*
X1508740Y235185D02*
X1513459Y232537D01*
X1504657Y238736D02*
X1508740Y235185D01*
X1502655Y240478D02*
X1504657Y238736D01*
X1500340Y241777D02*
X1502655Y240478D01*
X1497809Y242579D02*
X1500340Y241777D01*
X1495169Y242850D02*
X1497809Y242579D01*
X1132750Y242850D02*
X1495169Y242850D01*
X1129857Y243176D02*
X1132750Y242850D01*
X1127110Y244137D02*
X1129857Y243176D01*
X1124645Y245686D02*
X1127110Y244137D01*
X1122586Y247745D02*
X1124645Y245686D01*
X1121037Y250210D02*
X1122586Y247745D01*
X1120076Y252957D02*
X1121037Y250210D01*
X1119750Y255850D02*
X1120076Y252957D01*
X1119750Y255850D02*
Y284350D01*
X1119556Y286075D02*
X1119750Y284350D01*
X1118983Y287713D02*
X1119556Y286075D01*
X1118059Y289182D02*
X1118983Y287713D01*
X1116832Y290409D02*
X1118059Y289182D01*
X1115363Y291333D02*
X1116832Y290409D01*
X1113725Y291906D02*
X1115363Y291333D01*
X1112000Y292100D02*
X1113725Y291906D01*
X768750Y292100D02*
X1112000Y292100D01*
M02*
