G04*
G04 #@! TF.GenerationSoftware,Altium Limited,Altium Designer,21.6.4 (81)*
G04*
G04 Layer_Physical_Order=1*
G04 Layer_Color=255*
%FSLAX44Y44*%
%MOMM*%
G71*
G04*
G04 #@! TF.SameCoordinates,F6558B57-25BB-4E69-8CAA-7F32FDA90766*
G04*
G04*
G04 #@! TF.FilePolarity,Positive*
G04*
G01*
G75*
G36*
X2696104Y1303249D02*
X2700756Y1301775D01*
X2705011Y1299387D01*
X2708893Y1296010D01*
X2708893Y1296010D01*
X2708893Y1296010D01*
X2710896Y1294268D01*
X2711126Y1294136D01*
X2711328Y1293964D01*
X2713643Y1292665D01*
X2713895Y1292582D01*
X2714128Y1292454D01*
X2716659Y1291653D01*
X2716923Y1291623D01*
X2717177Y1291545D01*
X2719817Y1291274D01*
X2719950Y1291287D01*
X2720081Y1291261D01*
X2955605D01*
X2958063Y1290984D01*
X2960260Y1290215D01*
X2962231Y1288977D01*
X2963876Y1287331D01*
X2965115Y1285360D01*
X2965883Y1283163D01*
X2966160Y1280705D01*
Y1252350D01*
X2966189Y1252206D01*
X2966176Y1252060D01*
X2966371Y1250336D01*
X2966459Y1250059D01*
X2966500Y1249770D01*
X2967073Y1248132D01*
X2967221Y1247882D01*
X2967325Y1247610D01*
X2968248Y1246141D01*
X2968448Y1245929D01*
X2968610Y1245687D01*
X2969837Y1244460D01*
X2970079Y1244298D01*
X2970290Y1244098D01*
X2971760Y1243175D01*
X2972032Y1243071D01*
X2972282Y1242924D01*
X2973920Y1242350D01*
X2974208Y1242310D01*
X2974485Y1242221D01*
X2976210Y1242027D01*
X2976356Y1242039D01*
X2976500Y1242011D01*
X3040104D01*
X3041395Y1241865D01*
X3042482Y1241485D01*
X3043457Y1240872D01*
X3044272Y1240058D01*
X3044885Y1239082D01*
X3045265Y1237995D01*
X3045410Y1236705D01*
Y299996D01*
X3045265Y298706D01*
X3044885Y297618D01*
X3044272Y296643D01*
X3043457Y295828D01*
X3042482Y295216D01*
X3041395Y294835D01*
X3040104Y294690D01*
X2976500D01*
X2976356Y294661D01*
X2976210Y294674D01*
X2974485Y294479D01*
X2974208Y294391D01*
X2973920Y294350D01*
X2972282Y293777D01*
X2972032Y293629D01*
X2971760Y293526D01*
X2970290Y292602D01*
X2970079Y292402D01*
X2969837Y292241D01*
X2968610Y291014D01*
X2968448Y290772D01*
X2968248Y290560D01*
X2967325Y289091D01*
X2967221Y288819D01*
X2967073Y288568D01*
X2966500Y286930D01*
X2966459Y286642D01*
X2966371Y286365D01*
X2966176Y284641D01*
X2966189Y284494D01*
X2966160Y284350D01*
Y255996D01*
X2965883Y253537D01*
X2965115Y251340D01*
X2963876Y249370D01*
X2962231Y247724D01*
X2960260Y246486D01*
X2958063Y245717D01*
X2955605Y245440D01*
X2720081Y245440D01*
X2719950Y245414D01*
X2719817Y245426D01*
X2717177Y245155D01*
X2716923Y245077D01*
X2716659Y245048D01*
X2714128Y244246D01*
X2713896Y244118D01*
X2713643Y244036D01*
X2711328Y242737D01*
X2711126Y242564D01*
X2710896Y242432D01*
X2708893Y240690D01*
X2708893Y240690D01*
X2705011Y237313D01*
X2700799Y234950D01*
X2681701D01*
X2677489Y237313D01*
X2673607Y240690D01*
X2671604Y242432D01*
X2671374Y242564D01*
X2671172Y242737D01*
X2668857Y244036D01*
X2668604Y244118D01*
X2668372Y244246D01*
X2665841Y245048D01*
X2665577Y245077D01*
X2665323Y245155D01*
X2662683Y245426D01*
X2662550Y245414D01*
X2662419Y245440D01*
X2300146Y245440D01*
X2297687Y245717D01*
X2295490Y246486D01*
X2293519Y247724D01*
X2291874Y249370D01*
X2290635Y251341D01*
X2289866Y253537D01*
X2289590Y255996D01*
Y284350D01*
X2289561Y284494D01*
X2289573Y284640D01*
X2289379Y286365D01*
X2289291Y286642D01*
X2289250Y286930D01*
X2288677Y288568D01*
X2288529Y288819D01*
X2288425Y289090D01*
X2287502Y290560D01*
X2287302Y290772D01*
X2287140Y291014D01*
X2285913Y292241D01*
X2285671Y292402D01*
X2285460Y292602D01*
X2283990Y293525D01*
X2283719Y293629D01*
X2283468Y293777D01*
X2281830Y294350D01*
X2281542Y294391D01*
X2281265Y294479D01*
X2279540Y294674D01*
X2279394Y294661D01*
X2279250Y294690D01*
X1936000Y294690D01*
X1935856Y294661D01*
X1935710Y294674D01*
X1933985Y294479D01*
X1933708Y294391D01*
X1933420Y294350D01*
X1931782Y293777D01*
X1931532Y293629D01*
X1931260Y293525D01*
X1929790Y292602D01*
X1929579Y292402D01*
X1929337Y292241D01*
X1928110Y291013D01*
X1927948Y290771D01*
X1927748Y290560D01*
X1926825Y289090D01*
X1926721Y288819D01*
X1926573Y288568D01*
X1926000Y286930D01*
X1925959Y286642D01*
X1925871Y286365D01*
X1925677Y284640D01*
X1925689Y284494D01*
X1925660Y284350D01*
Y255996D01*
X1925383Y253537D01*
X1924615Y251340D01*
X1923376Y249370D01*
X1921731Y247724D01*
X1919760Y246486D01*
X1917563Y245717D01*
X1915105Y245440D01*
X1552831Y245440D01*
X1552700Y245414D01*
X1552567Y245426D01*
X1549926Y245155D01*
X1549673Y245077D01*
X1549409Y245048D01*
X1546878Y244246D01*
X1546646Y244118D01*
X1546393Y244036D01*
X1544078Y242737D01*
X1543876Y242564D01*
X1543646Y242432D01*
X1541643Y240690D01*
X1537761Y237313D01*
X1533550Y234950D01*
X1514450D01*
X1510239Y237313D01*
X1506357Y240690D01*
D01*
X1506357Y240690D01*
X1504354Y242432D01*
X1504124Y242564D01*
X1503922Y242737D01*
X1501607Y244036D01*
X1501355Y244118D01*
X1501122Y244246D01*
X1498591Y245048D01*
X1498327Y245077D01*
X1498074Y245155D01*
X1495433Y245426D01*
X1495300Y245414D01*
X1495169Y245440D01*
X1132896Y245440D01*
X1130437Y245717D01*
X1128240Y246486D01*
X1126270Y247724D01*
X1124624Y249370D01*
X1123385Y251340D01*
X1122617Y253537D01*
X1122340Y255996D01*
Y284350D01*
X1122311Y284494D01*
X1122323Y284640D01*
X1122129Y286365D01*
X1122041Y286642D01*
X1122000Y286930D01*
X1121427Y288568D01*
X1121279Y288819D01*
X1121175Y289090D01*
X1120252Y290560D01*
X1120052Y290771D01*
X1119890Y291013D01*
X1118663Y292240D01*
X1118421Y292402D01*
X1118210Y292602D01*
X1116740Y293525D01*
X1116469Y293629D01*
X1116218Y293777D01*
X1114580Y294350D01*
X1114292Y294391D01*
X1114015Y294479D01*
X1112290Y294674D01*
X1112144Y294661D01*
X1112000Y294690D01*
X768750Y294690D01*
X768606Y294661D01*
X768460Y294673D01*
X766736Y294479D01*
X766458Y294391D01*
X766170Y294350D01*
X764532Y293777D01*
X764282Y293629D01*
X764010Y293525D01*
X762540Y292602D01*
X762329Y292402D01*
X762087Y292240D01*
X760860Y291013D01*
X760698Y290771D01*
X760498Y290560D01*
X759575Y289090D01*
X759471Y288819D01*
X759323Y288568D01*
X758750Y286930D01*
X758709Y286642D01*
X758621Y286365D01*
X758427Y284640D01*
X758439Y284494D01*
X758410Y284350D01*
Y255996D01*
X758133Y253537D01*
X757365Y251340D01*
X756126Y249370D01*
X754481Y247724D01*
X752510Y246485D01*
X750313Y245717D01*
X747855Y245440D01*
X385581Y245440D01*
X385450Y245414D01*
X385317Y245426D01*
X382676Y245155D01*
X382423Y245077D01*
X382159Y245048D01*
X379628Y244246D01*
X379396Y244118D01*
X379143Y244036D01*
X376828Y242737D01*
X376626Y242564D01*
X376396Y242432D01*
X374393Y240690D01*
X374393D01*
X370511Y237313D01*
X366300Y234950D01*
X347200D01*
X342989Y237313D01*
X339107Y240690D01*
D01*
X339107Y240690D01*
X337104Y242432D01*
X336874Y242564D01*
X336672Y242737D01*
X334357Y244036D01*
X334105Y244118D01*
X333872Y244246D01*
X331342Y245048D01*
X331077Y245077D01*
X330824Y245155D01*
X328183Y245426D01*
X328050Y245414D01*
X327919Y245440D01*
X92395Y245440D01*
X89937Y245717D01*
X87740Y246485D01*
X85770Y247724D01*
X84124Y249370D01*
X82885Y251340D01*
X82117Y253537D01*
X81840Y255996D01*
Y284350D01*
X81811Y284494D01*
X81823Y284640D01*
X81629Y286365D01*
X81541Y286642D01*
X81500Y286930D01*
X80927Y288568D01*
X80779Y288818D01*
X80675Y289090D01*
X79752Y290560D01*
X79552Y290771D01*
X79390Y291013D01*
X78163Y292240D01*
X77921Y292402D01*
X77710Y292602D01*
X76240Y293525D01*
X75968Y293629D01*
X75718Y293777D01*
X74080Y294350D01*
X73792Y294391D01*
X73514Y294479D01*
X71790Y294673D01*
X71644Y294661D01*
X71500Y294690D01*
X7896D01*
X6605Y294835D01*
X5518Y295215D01*
X4543Y295828D01*
X3728Y296643D01*
X3115Y297618D01*
X2735Y298705D01*
X2590Y299995D01*
X2590Y1236705D01*
X2735Y1237995D01*
X3115Y1239082D01*
X3728Y1240057D01*
X4543Y1240872D01*
X5518Y1241485D01*
X6605Y1241865D01*
X7895Y1242010D01*
X71500D01*
X71644Y1242039D01*
X71790Y1242027D01*
X73514Y1242221D01*
X73792Y1242309D01*
X74080Y1242350D01*
X75718Y1242923D01*
X75968Y1243071D01*
X76240Y1243175D01*
X77710Y1244098D01*
X77921Y1244298D01*
X78163Y1244460D01*
X79390Y1245687D01*
X79552Y1245929D01*
X79752Y1246140D01*
X80675Y1247610D01*
X80779Y1247881D01*
X80927Y1248132D01*
X81500Y1249770D01*
X81541Y1250058D01*
X81629Y1250335D01*
X81823Y1252060D01*
X81811Y1252206D01*
X81840Y1252350D01*
Y1280704D01*
X82117Y1283163D01*
X82885Y1285360D01*
X84124Y1287330D01*
X85769Y1288976D01*
X87740Y1290215D01*
X89937Y1290983D01*
X92395Y1291260D01*
X327919D01*
X328050Y1291286D01*
X328183Y1291274D01*
X330824Y1291545D01*
X331077Y1291623D01*
X331341Y1291652D01*
X333872Y1292454D01*
X334104Y1292582D01*
X334357Y1292664D01*
X336672Y1293963D01*
X336874Y1294136D01*
X337104Y1294268D01*
X339107Y1296010D01*
D01*
X342989Y1299387D01*
X347244Y1301775D01*
X351896Y1303249D01*
X356750Y1303747D01*
X361604Y1303249D01*
X366256Y1301775D01*
X370511Y1299387D01*
X374393Y1296010D01*
X376396Y1294268D01*
X376626Y1294136D01*
X376828Y1293963D01*
X379143Y1292664D01*
X379395Y1292582D01*
X379628Y1292454D01*
X382159Y1291652D01*
X382422Y1291623D01*
X382676Y1291545D01*
X385317Y1291274D01*
X385450Y1291287D01*
X385581Y1291261D01*
X747855D01*
X750313Y1290983D01*
X752510Y1290215D01*
X754480Y1288976D01*
X756126Y1287331D01*
X757365Y1285360D01*
X758133Y1283163D01*
X758410Y1280705D01*
Y1252350D01*
X758439Y1252206D01*
X758427Y1252060D01*
X758621Y1250336D01*
X758709Y1250058D01*
X758750Y1249770D01*
X759323Y1248132D01*
X759471Y1247882D01*
X759575Y1247610D01*
X760498Y1246140D01*
X760698Y1245929D01*
X760860Y1245687D01*
X762087Y1244460D01*
X762329Y1244298D01*
X762540Y1244098D01*
X764009Y1243175D01*
X764281Y1243071D01*
X764532Y1242923D01*
X766170Y1242350D01*
X766458Y1242309D01*
X766736Y1242221D01*
X768460Y1242027D01*
X768606Y1242039D01*
X768750Y1242010D01*
X1112000D01*
X1112144Y1242039D01*
X1112290Y1242027D01*
X1114015Y1242221D01*
X1114292Y1242309D01*
X1114580Y1242350D01*
X1116218Y1242923D01*
X1116469Y1243071D01*
X1116740Y1243175D01*
X1118210Y1244098D01*
X1118421Y1244298D01*
X1118663Y1244460D01*
X1119890Y1245687D01*
X1120052Y1245929D01*
X1120252Y1246140D01*
X1121175Y1247610D01*
X1121279Y1247881D01*
X1121427Y1248132D01*
X1122000Y1249770D01*
X1122041Y1250059D01*
X1122129Y1250336D01*
X1122323Y1252060D01*
X1122311Y1252206D01*
X1122340Y1252350D01*
Y1280705D01*
X1122617Y1283163D01*
X1123385Y1285360D01*
X1124623Y1287331D01*
X1126270Y1288976D01*
X1128240Y1290215D01*
X1130437Y1290983D01*
X1132895Y1291261D01*
X1495169D01*
X1495300Y1291287D01*
X1495433Y1291274D01*
X1498074Y1291545D01*
X1498327Y1291623D01*
X1498591Y1291653D01*
X1501122Y1292454D01*
X1501354Y1292582D01*
X1501607Y1292664D01*
X1503922Y1293963D01*
X1504124Y1294136D01*
X1504354Y1294268D01*
X1506357Y1296010D01*
D01*
X1510239Y1299387D01*
X1514494Y1301775D01*
X1519146Y1303249D01*
X1524000Y1303747D01*
X1528854Y1303249D01*
X1533506Y1301775D01*
X1537761Y1299387D01*
X1541643Y1296010D01*
X1541643D01*
X1541643Y1296010D01*
X1543646Y1294268D01*
X1543876Y1294136D01*
X1544078Y1293964D01*
X1546393Y1292665D01*
X1546645Y1292582D01*
X1546878Y1292454D01*
X1549409Y1291653D01*
X1549673Y1291623D01*
X1549926Y1291545D01*
X1552567Y1291274D01*
X1552700Y1291287D01*
X1552831Y1291261D01*
X1915105D01*
X1917563Y1290984D01*
X1919760Y1290215D01*
X1921730Y1288977D01*
X1923376Y1287331D01*
X1924615Y1285360D01*
X1925383Y1283163D01*
X1925660Y1280705D01*
Y1252350D01*
X1925689Y1252206D01*
X1925677Y1252060D01*
X1925871Y1250336D01*
X1925959Y1250059D01*
X1926000Y1249770D01*
X1926573Y1248132D01*
X1926721Y1247882D01*
X1926825Y1247610D01*
X1927748Y1246140D01*
X1927948Y1245929D01*
X1928110Y1245687D01*
X1929337Y1244460D01*
X1929579Y1244298D01*
X1929790Y1244098D01*
X1931260Y1243175D01*
X1931532Y1243071D01*
X1931782Y1242923D01*
X1933420Y1242350D01*
X1933708Y1242309D01*
X1933986Y1242221D01*
X1935710Y1242027D01*
X1935856Y1242039D01*
X1936000Y1242011D01*
X2279250D01*
X2279394Y1242039D01*
X2279540Y1242027D01*
X2281264Y1242221D01*
X2281542Y1242310D01*
X2281830Y1242350D01*
X2283468Y1242923D01*
X2283719Y1243071D01*
X2283990Y1243175D01*
X2285460Y1244098D01*
X2285671Y1244298D01*
X2285913Y1244460D01*
X2287140Y1245687D01*
X2287302Y1245929D01*
X2287502Y1246140D01*
X2288425Y1247610D01*
X2288529Y1247882D01*
X2288677Y1248132D01*
X2289250Y1249770D01*
X2289291Y1250059D01*
X2289379Y1250336D01*
X2289573Y1252060D01*
X2289561Y1252206D01*
X2289590Y1252350D01*
Y1280705D01*
X2289867Y1283163D01*
X2290635Y1285360D01*
X2291874Y1287331D01*
X2293519Y1288977D01*
X2295490Y1290215D01*
X2297687Y1290984D01*
X2300145Y1291261D01*
X2662419D01*
X2662550Y1291287D01*
X2662683Y1291274D01*
X2665324Y1291545D01*
X2665577Y1291623D01*
X2665841Y1291653D01*
X2668372Y1292454D01*
X2668604Y1292582D01*
X2668857Y1292665D01*
X2671172Y1293964D01*
X2671374Y1294136D01*
X2671604Y1294268D01*
X2673607Y1296010D01*
X2673607Y1296010D01*
X2677489Y1299387D01*
X2681744Y1301775D01*
X2686396Y1303249D01*
X2691250Y1303747D01*
X2696104Y1303249D01*
D02*
G37*
%LPC*%
G36*
X2692915Y1298353D02*
X2689585D01*
X2689319Y1298300D01*
X2689049Y1298297D01*
X2685791Y1297608D01*
X2685543Y1297501D01*
X2685279Y1297442D01*
X2682234Y1296093D01*
X2682013Y1295938D01*
X2681766Y1295825D01*
X2679067Y1293876D01*
X2678883Y1293677D01*
X2678665Y1293516D01*
X2676428Y1291050D01*
X2676289Y1290818D01*
X2676110Y1290616D01*
X2674431Y1287740D01*
X2674343Y1287484D01*
X2674209Y1287249D01*
X2673162Y1284088D01*
X2673129Y1283819D01*
X2673047Y1283561D01*
X2672677Y1280252D01*
X2672700Y1279983D01*
X2672673Y1279713D01*
X2672995Y1276407D01*
X2673123Y1274996D01*
X2672975Y1273869D01*
X2672582Y1272802D01*
X2671965Y1271847D01*
X2671152Y1271051D01*
X2670185Y1270453D01*
X2669110Y1270082D01*
X2667836Y1269940D01*
X2325290D01*
X2325146Y1269911D01*
X2325000Y1269924D01*
X2323275Y1269729D01*
X2322998Y1269641D01*
X2322710Y1269600D01*
X2321072Y1269027D01*
X2320822Y1268879D01*
X2320550Y1268776D01*
X2319080Y1267852D01*
X2318869Y1267652D01*
X2318627Y1267491D01*
X2317399Y1266263D01*
X2317238Y1266021D01*
X2317038Y1265810D01*
X2316115Y1264341D01*
X2316011Y1264069D01*
X2315863Y1263818D01*
X2315290Y1262180D01*
X2315249Y1261892D01*
X2315161Y1261615D01*
X2314966Y1259890D01*
X2314979Y1259744D01*
X2314950Y1259600D01*
Y1252350D01*
X2314979Y1252206D01*
X2314966Y1252060D01*
X2315161Y1250335D01*
X2315249Y1250059D01*
X2315290Y1249771D01*
X2315863Y1248132D01*
X2316011Y1247882D01*
X2316115Y1247610D01*
X2317038Y1246140D01*
X2317238Y1245929D01*
X2317399Y1245687D01*
X2318627Y1244460D01*
X2318869Y1244298D01*
X2319080Y1244098D01*
X2320550Y1243175D01*
X2320821Y1243071D01*
X2321072Y1242923D01*
X2322710Y1242350D01*
X2322998Y1242309D01*
X2323275Y1242221D01*
X2325000Y1242027D01*
X2325146Y1242039D01*
X2325290Y1242010D01*
X2930460Y1242010D01*
X2930604Y1242039D01*
X2930750Y1242027D01*
X2932474Y1242221D01*
X2932752Y1242309D01*
X2933040Y1242350D01*
X2934678Y1242923D01*
X2934929Y1243071D01*
X2935200Y1243175D01*
X2936670Y1244098D01*
X2936881Y1244298D01*
X2937123Y1244460D01*
X2938351Y1245687D01*
X2938512Y1245929D01*
X2938712Y1246140D01*
X2939635Y1247610D01*
X2939739Y1247882D01*
X2939887Y1248133D01*
X2940460Y1249771D01*
X2940501Y1250059D01*
X2940589Y1250336D01*
X2940783Y1252060D01*
X2940771Y1252206D01*
X2940800Y1252350D01*
Y1259600D01*
X2940771Y1259744D01*
X2940783Y1259891D01*
X2940589Y1261615D01*
X2940501Y1261892D01*
X2940460Y1262180D01*
X2939887Y1263818D01*
X2939739Y1264069D01*
X2939635Y1264341D01*
X2938712Y1265810D01*
X2938512Y1266022D01*
X2938351Y1266264D01*
X2937123Y1267491D01*
X2936881Y1267652D01*
X2936670Y1267852D01*
X2935200Y1268776D01*
X2934929Y1268879D01*
X2934678Y1269027D01*
X2933040Y1269600D01*
X2932752Y1269641D01*
X2932474Y1269730D01*
X2930750Y1269924D01*
X2930604Y1269911D01*
X2930460Y1269940D01*
X2714664D01*
X2713390Y1270082D01*
X2712315Y1270453D01*
X2711348Y1271051D01*
X2710535Y1271847D01*
X2709918Y1272802D01*
X2709525Y1273869D01*
X2709377Y1274997D01*
X2709506Y1276411D01*
X2709827Y1279713D01*
X2709800Y1279983D01*
X2709823Y1280252D01*
X2709453Y1283562D01*
X2709371Y1283819D01*
X2709338Y1284088D01*
X2708291Y1287249D01*
X2708157Y1287484D01*
X2708069Y1287740D01*
X2706390Y1290616D01*
X2706211Y1290818D01*
X2706072Y1291050D01*
X2703835Y1293516D01*
X2703617Y1293677D01*
X2703433Y1293876D01*
X2700733Y1295825D01*
X2700487Y1295938D01*
X2700266Y1296093D01*
X2697222Y1297442D01*
X2696957Y1297501D01*
X2696709Y1297608D01*
X2693451Y1298297D01*
X2693180Y1298300D01*
X2692915Y1298353D01*
D02*
G37*
G36*
X1525665Y1298353D02*
X1522335Y1298353D01*
X1522070Y1298300D01*
X1521799Y1298297D01*
X1518541Y1297608D01*
X1518293Y1297501D01*
X1518029Y1297442D01*
X1514984Y1296093D01*
X1514763Y1295938D01*
X1514517Y1295825D01*
X1511817Y1293875D01*
X1511633Y1293677D01*
X1511416Y1293516D01*
X1509178Y1291050D01*
X1509039Y1290818D01*
X1508860Y1290616D01*
X1507181Y1287740D01*
X1507093Y1287484D01*
X1506959Y1287249D01*
X1505912Y1284088D01*
X1505879Y1283819D01*
X1505797Y1283561D01*
X1505427Y1280252D01*
X1505450Y1279983D01*
X1505423Y1279713D01*
X1505745Y1276406D01*
X1505873Y1274996D01*
X1505724Y1273869D01*
X1505332Y1272802D01*
X1504715Y1271847D01*
X1503902Y1271051D01*
X1502935Y1270452D01*
X1501860Y1270081D01*
X1500586Y1269940D01*
X1158040D01*
X1157896Y1269911D01*
X1157750Y1269923D01*
X1156025Y1269729D01*
X1155748Y1269641D01*
X1155460Y1269600D01*
X1153822Y1269027D01*
X1153571Y1268879D01*
X1153300Y1268775D01*
X1151830Y1267852D01*
X1151619Y1267652D01*
X1151377Y1267491D01*
X1150150Y1266263D01*
X1149988Y1266021D01*
X1149788Y1265810D01*
X1148865Y1264340D01*
X1148761Y1264069D01*
X1148613Y1263818D01*
X1148040Y1262180D01*
X1147999Y1261892D01*
X1147911Y1261615D01*
X1147717Y1259890D01*
X1147729Y1259744D01*
X1147700Y1259600D01*
Y1252350D01*
X1147729Y1252206D01*
X1147717Y1252060D01*
X1147911Y1250336D01*
X1147999Y1250058D01*
X1148040Y1249770D01*
X1148613Y1248132D01*
X1148761Y1247881D01*
X1148865Y1247610D01*
X1149788Y1246140D01*
X1149988Y1245929D01*
X1150150Y1245687D01*
X1151377Y1244460D01*
X1151619Y1244298D01*
X1151830Y1244098D01*
X1153299Y1243175D01*
X1153571Y1243071D01*
X1153822Y1242923D01*
X1155460Y1242350D01*
X1155748Y1242309D01*
X1156025Y1242221D01*
X1157750Y1242027D01*
X1157896Y1242039D01*
X1158040Y1242010D01*
X1889960Y1242010D01*
X1890104Y1242039D01*
X1890250Y1242027D01*
X1891974Y1242221D01*
X1892252Y1242309D01*
X1892540Y1242350D01*
X1894178Y1242923D01*
X1894429Y1243071D01*
X1894700Y1243175D01*
X1896170Y1244098D01*
X1896381Y1244298D01*
X1896623Y1244460D01*
X1897850Y1245687D01*
X1898012Y1245929D01*
X1898212Y1246140D01*
X1899135Y1247610D01*
X1899239Y1247881D01*
X1899387Y1248132D01*
X1899960Y1249770D01*
X1900001Y1250059D01*
X1900089Y1250336D01*
X1900284Y1252060D01*
X1900271Y1252206D01*
X1900300Y1252350D01*
Y1259600D01*
X1900271Y1259744D01*
X1900284Y1259890D01*
X1900089Y1261615D01*
X1900001Y1261892D01*
X1899960Y1262180D01*
X1899387Y1263818D01*
X1899239Y1264069D01*
X1899135Y1264341D01*
X1898212Y1265810D01*
X1898012Y1266021D01*
X1897850Y1266264D01*
X1896623Y1267491D01*
X1896381Y1267652D01*
X1896170Y1267852D01*
X1894700Y1268775D01*
X1894429Y1268879D01*
X1894178Y1269027D01*
X1892540Y1269600D01*
X1892252Y1269641D01*
X1891974Y1269729D01*
X1890250Y1269924D01*
X1890104Y1269911D01*
X1889960Y1269940D01*
X1547414D01*
X1546140Y1270082D01*
X1545065Y1270453D01*
X1544098Y1271051D01*
X1543285Y1271847D01*
X1542668Y1272802D01*
X1542275Y1273869D01*
X1542127Y1274997D01*
X1542255Y1276409D01*
X1542577Y1279713D01*
X1542550Y1279983D01*
X1542573Y1280252D01*
X1542203Y1283561D01*
X1542121Y1283819D01*
X1542088Y1284088D01*
X1541041Y1287249D01*
X1540907Y1287484D01*
X1540819Y1287740D01*
X1539141Y1290616D01*
X1538961Y1290818D01*
X1538822Y1291050D01*
X1536584Y1293516D01*
X1536367Y1293677D01*
X1536183Y1293875D01*
X1533483Y1295825D01*
X1533237Y1295938D01*
X1533016Y1296093D01*
X1529971Y1297442D01*
X1529707Y1297501D01*
X1529458Y1297608D01*
X1526201Y1298297D01*
X1525930Y1298300D01*
X1525665Y1298353D01*
D02*
G37*
G36*
X358415Y1298353D02*
X355085D01*
X354820Y1298300D01*
X354549Y1298297D01*
X351291Y1297608D01*
X351043Y1297501D01*
X350779Y1297442D01*
X347734Y1296093D01*
X347513Y1295938D01*
X347267Y1295825D01*
X344567Y1293875D01*
X344383Y1293677D01*
X344165Y1293516D01*
X341928Y1291050D01*
X341789Y1290818D01*
X341609Y1290615D01*
X339931Y1287740D01*
X339843Y1287484D01*
X339709Y1287248D01*
X338662Y1284088D01*
X338629Y1283819D01*
X338547Y1283561D01*
X338177Y1280252D01*
X338200Y1279982D01*
X338173Y1279713D01*
X338495Y1276406D01*
X338623Y1274996D01*
X338475Y1273869D01*
X338082Y1272801D01*
X337465Y1271847D01*
X336652Y1271050D01*
X335685Y1270452D01*
X334610Y1270081D01*
X333336Y1269940D01*
X117540D01*
X117396Y1269911D01*
X117250Y1269923D01*
X115526Y1269729D01*
X115248Y1269641D01*
X114960Y1269600D01*
X113322Y1269027D01*
X113071Y1268879D01*
X112800Y1268775D01*
X111330Y1267852D01*
X111119Y1267652D01*
X110877Y1267490D01*
X109649Y1266263D01*
X109488Y1266021D01*
X109288Y1265810D01*
X108365Y1264340D01*
X108261Y1264069D01*
X108113Y1263818D01*
X107540Y1262180D01*
X107499Y1261892D01*
X107411Y1261615D01*
X107216Y1259890D01*
X107229Y1259744D01*
X107200Y1259600D01*
Y1252350D01*
X107229Y1252206D01*
X107216Y1252060D01*
X107411Y1250335D01*
X107499Y1250058D01*
X107540Y1249770D01*
X108113Y1248132D01*
X108261Y1247881D01*
X108365Y1247609D01*
X109288Y1246140D01*
X109488Y1245929D01*
X109649Y1245687D01*
X110877Y1244460D01*
X111119Y1244298D01*
X111330Y1244098D01*
X112799Y1243175D01*
X113071Y1243071D01*
X113322Y1242923D01*
X114960Y1242350D01*
X115248Y1242309D01*
X115525Y1242221D01*
X117250Y1242027D01*
X117396Y1242039D01*
X117540Y1242010D01*
X722710Y1242010D01*
X722854Y1242039D01*
X723000Y1242027D01*
X724724Y1242221D01*
X725002Y1242309D01*
X725290Y1242350D01*
X726928Y1242923D01*
X727179Y1243071D01*
X727450Y1243175D01*
X728920Y1244098D01*
X729131Y1244298D01*
X729373Y1244460D01*
X730600Y1245687D01*
X730762Y1245929D01*
X730962Y1246140D01*
X731885Y1247610D01*
X731989Y1247881D01*
X732137Y1248132D01*
X732710Y1249770D01*
X732751Y1250058D01*
X732839Y1250336D01*
X733033Y1252060D01*
X733021Y1252206D01*
X733050Y1252350D01*
Y1259600D01*
X733021Y1259744D01*
X733033Y1259890D01*
X732839Y1261615D01*
X732751Y1261892D01*
X732710Y1262180D01*
X732137Y1263818D01*
X731989Y1264069D01*
X731885Y1264341D01*
X730962Y1265810D01*
X730762Y1266021D01*
X730600Y1266263D01*
X729373Y1267490D01*
X729131Y1267652D01*
X728920Y1267852D01*
X727450Y1268775D01*
X727179Y1268879D01*
X726928Y1269027D01*
X725290Y1269600D01*
X725002Y1269641D01*
X724724Y1269729D01*
X723000Y1269923D01*
X722854Y1269911D01*
X722710Y1269940D01*
X380164D01*
X378890Y1270081D01*
X377815Y1270452D01*
X376848Y1271050D01*
X376035Y1271847D01*
X375418Y1272802D01*
X375025Y1273869D01*
X374877Y1274996D01*
X375005Y1276408D01*
X375327Y1279713D01*
X375300Y1279983D01*
X375323Y1280252D01*
X374953Y1283561D01*
X374871Y1283819D01*
X374838Y1284088D01*
X373791Y1287248D01*
X373657Y1287484D01*
X373569Y1287740D01*
X371890Y1290616D01*
X371711Y1290818D01*
X371572Y1291050D01*
X369334Y1293516D01*
X369117Y1293677D01*
X368933Y1293875D01*
X366233Y1295825D01*
X365987Y1295938D01*
X365766Y1296093D01*
X362721Y1297442D01*
X362457Y1297501D01*
X362209Y1297608D01*
X358951Y1298297D01*
X358680Y1298300D01*
X358415Y1298353D01*
D02*
G37*
G36*
X3017250Y1221940D02*
X2888250D01*
X2888106Y1221911D01*
X2887960Y1221924D01*
X2886736Y1221786D01*
X2886459Y1221697D01*
X2886171Y1221657D01*
X2885008Y1221250D01*
X2884758Y1221102D01*
X2884486Y1220998D01*
X2883443Y1220343D01*
X2883232Y1220143D01*
X2882990Y1219982D01*
X2882119Y1219111D01*
X2881957Y1218869D01*
X2881757Y1218657D01*
X2881102Y1217615D01*
X2880998Y1217343D01*
X2880850Y1217092D01*
X2880443Y1215929D01*
X2880403Y1215641D01*
X2880314Y1215364D01*
X2880176Y1214140D01*
X2880189Y1213994D01*
X2880160Y1213850D01*
Y1084850D01*
X2880189Y1084706D01*
X2880176Y1084560D01*
X2880314Y1083337D01*
X2880403Y1083059D01*
X2880443Y1082771D01*
X2880850Y1081609D01*
X2880998Y1081358D01*
X2881102Y1081086D01*
X2881757Y1080043D01*
X2881957Y1079832D01*
X2882119Y1079590D01*
X2882990Y1078719D01*
X2883232Y1078557D01*
X2883443Y1078357D01*
X2884486Y1077702D01*
X2884758Y1077598D01*
X2885008Y1077450D01*
X2886171Y1077044D01*
X2886459Y1077003D01*
X2886736Y1076915D01*
X2887960Y1076777D01*
X2888106Y1076789D01*
X2888250Y1076760D01*
X3017250D01*
X3017394Y1076789D01*
X3017540Y1076777D01*
X3018764Y1076915D01*
X3019041Y1077003D01*
X3019329Y1077044D01*
X3020492Y1077450D01*
X3020742Y1077598D01*
X3021014Y1077702D01*
X3022057Y1078357D01*
X3022268Y1078557D01*
X3022510Y1078719D01*
X3023381Y1079590D01*
X3023543Y1079832D01*
X3023743Y1080043D01*
X3024398Y1081086D01*
X3024502Y1081358D01*
X3024650Y1081609D01*
X3025056Y1082771D01*
X3025097Y1083059D01*
X3025186Y1083336D01*
X3025323Y1084560D01*
X3025311Y1084706D01*
X3025340Y1084850D01*
Y1213850D01*
X3025311Y1213994D01*
X3025323Y1214140D01*
X3025186Y1215364D01*
X3025097Y1215641D01*
X3025056Y1215929D01*
X3024650Y1217092D01*
X3024502Y1217343D01*
X3024398Y1217615D01*
X3023743Y1218657D01*
X3023543Y1218869D01*
X3023381Y1219111D01*
X3022510Y1219982D01*
X3022268Y1220143D01*
X3022057Y1220343D01*
X3021014Y1220998D01*
X3020742Y1221102D01*
X3020492Y1221250D01*
X3019329Y1221657D01*
X3019041Y1221697D01*
X3018764Y1221786D01*
X3017540Y1221924D01*
X3017394Y1221911D01*
X3017250Y1221940D01*
D02*
G37*
G36*
X2826750D02*
X2507250D01*
X2507106Y1221911D01*
X2506960Y1221924D01*
X2505736Y1221786D01*
X2505459Y1221697D01*
X2505171Y1221657D01*
X2504008Y1221250D01*
X2503758Y1221102D01*
X2503486Y1220998D01*
X2502443Y1220343D01*
X2502231Y1220143D01*
X2501990Y1219982D01*
X2501119Y1219111D01*
X2500957Y1218869D01*
X2500757Y1218657D01*
X2500102Y1217614D01*
X2499998Y1217343D01*
X2499850Y1217092D01*
X2499443Y1215930D01*
X2499403Y1215641D01*
X2499314Y1215364D01*
X2499176Y1214140D01*
X2499189Y1213994D01*
X2499160Y1213850D01*
Y1084850D01*
X2499189Y1084706D01*
X2499176Y1084560D01*
X2499314Y1083337D01*
X2499403Y1083059D01*
X2499443Y1082771D01*
X2499850Y1081609D01*
X2499998Y1081358D01*
X2500102Y1081086D01*
X2500757Y1080043D01*
X2500957Y1079832D01*
X2501119Y1079590D01*
X2501990Y1078719D01*
X2502232Y1078557D01*
X2502443Y1078357D01*
X2503486Y1077702D01*
X2503758Y1077598D01*
X2504008Y1077450D01*
X2505171Y1077044D01*
X2505459Y1077003D01*
X2505736Y1076915D01*
X2506960Y1076777D01*
X2507106Y1076789D01*
X2507250Y1076760D01*
X2508792D01*
X2508970Y1076740D01*
X2509000Y1076730D01*
X2509027Y1076713D01*
X2509050Y1076690D01*
X2509067Y1076663D01*
X2509078Y1076632D01*
X2509098Y1076455D01*
Y1069850D01*
X2509126Y1069706D01*
X2509114Y1069560D01*
X2509377Y1067224D01*
X2509466Y1066947D01*
X2509506Y1066658D01*
X2510283Y1064439D01*
X2510431Y1064189D01*
X2510535Y1063917D01*
X2511785Y1061926D01*
X2511985Y1061714D01*
X2512147Y1061472D01*
X2513810Y1059810D01*
X2514052Y1059648D01*
X2514263Y1059448D01*
X2516254Y1058197D01*
X2516526Y1058093D01*
X2516776Y1057946D01*
X2518996Y1057169D01*
X2519284Y1057128D01*
X2519561Y1057040D01*
X2521897Y1056777D01*
X2522044Y1056789D01*
X2522188Y1056760D01*
X2573687D01*
X2573831Y1056789D01*
X2573977Y1056777D01*
X2576314Y1057040D01*
X2576591Y1057128D01*
X2576879Y1057169D01*
X2579099Y1057946D01*
X2579349Y1058093D01*
X2579621Y1058197D01*
X2581612Y1059448D01*
X2581823Y1059648D01*
X2582065Y1059810D01*
X2583728Y1061472D01*
X2583889Y1061714D01*
X2584090Y1061926D01*
X2585341Y1063917D01*
X2585444Y1064189D01*
X2585592Y1064439D01*
X2586369Y1066658D01*
X2586409Y1066946D01*
X2586497Y1067224D01*
X2586761Y1069560D01*
X2586749Y1069706D01*
X2586777Y1069850D01*
Y1076455D01*
X2586797Y1076632D01*
X2586808Y1076662D01*
X2586825Y1076690D01*
X2586848Y1076713D01*
X2586875Y1076730D01*
X2586905Y1076740D01*
X2587083Y1076760D01*
X2746917D01*
X2747095Y1076740D01*
X2747125Y1076730D01*
X2747152Y1076713D01*
X2747175Y1076690D01*
X2747192Y1076663D01*
X2747203Y1076632D01*
X2747223Y1076455D01*
Y1069850D01*
X2747251Y1069706D01*
X2747239Y1069560D01*
X2747502Y1067224D01*
X2747591Y1066947D01*
X2747631Y1066658D01*
X2748408Y1064439D01*
X2748556Y1064189D01*
X2748659Y1063917D01*
X2749910Y1061926D01*
X2750110Y1061714D01*
X2750272Y1061472D01*
X2751935Y1059810D01*
X2752177Y1059648D01*
X2752388Y1059448D01*
X2754379Y1058197D01*
X2754651Y1058093D01*
X2754901Y1057946D01*
X2757120Y1057169D01*
X2757409Y1057128D01*
X2757686Y1057040D01*
X2760023Y1056777D01*
X2760169Y1056789D01*
X2760312Y1056760D01*
X2811812D01*
X2811956Y1056789D01*
X2812102Y1056777D01*
X2814439Y1057040D01*
X2814716Y1057128D01*
X2815004Y1057169D01*
X2817224Y1057946D01*
X2817474Y1058093D01*
X2817746Y1058197D01*
X2819737Y1059448D01*
X2819948Y1059648D01*
X2820190Y1059810D01*
X2821853Y1061472D01*
X2822014Y1061714D01*
X2822215Y1061926D01*
X2823466Y1063917D01*
X2823569Y1064189D01*
X2823717Y1064439D01*
X2824494Y1066659D01*
X2824534Y1066947D01*
X2824622Y1067224D01*
X2824886Y1069560D01*
X2824874Y1069706D01*
X2824902Y1069850D01*
Y1076455D01*
X2824922Y1076632D01*
X2824933Y1076662D01*
X2824950Y1076690D01*
X2824973Y1076713D01*
X2825000Y1076730D01*
X2825030Y1076740D01*
X2825208Y1076760D01*
X2826750D01*
X2826894Y1076789D01*
X2827040Y1076777D01*
X2828264Y1076915D01*
X2828541Y1077003D01*
X2828829Y1077044D01*
X2829992Y1077450D01*
X2830242Y1077598D01*
X2830514Y1077702D01*
X2831557Y1078357D01*
X2831768Y1078557D01*
X2832010Y1078719D01*
X2832881Y1079590D01*
X2833043Y1079832D01*
X2833243Y1080043D01*
X2833898Y1081086D01*
X2834002Y1081358D01*
X2834150Y1081609D01*
X2834557Y1082771D01*
X2834597Y1083059D01*
X2834685Y1083336D01*
X2834823Y1084560D01*
X2834811Y1084706D01*
X2834840Y1084850D01*
Y1213850D01*
X2834811Y1213994D01*
X2834823Y1214140D01*
X2834685Y1215364D01*
X2834597Y1215641D01*
X2834557Y1215929D01*
X2834150Y1217092D01*
X2834002Y1217343D01*
X2833898Y1217615D01*
X2833243Y1218657D01*
X2833043Y1218869D01*
X2832881Y1219111D01*
X2832010Y1219982D01*
X2831768Y1220143D01*
X2831557Y1220343D01*
X2830514Y1220998D01*
X2830242Y1221102D01*
X2829992Y1221250D01*
X2828829Y1221657D01*
X2828541Y1221697D01*
X2828264Y1221786D01*
X2827040Y1221924D01*
X2826894Y1221911D01*
X2826750Y1221940D01*
D02*
G37*
G36*
X2445750D02*
X2316750D01*
X2316606Y1221911D01*
X2316460Y1221924D01*
X2315236Y1221786D01*
X2314959Y1221697D01*
X2314671Y1221657D01*
X2313508Y1221250D01*
X2313258Y1221102D01*
X2312986Y1220998D01*
X2311943Y1220343D01*
X2311732Y1220143D01*
X2311490Y1219982D01*
X2310619Y1219111D01*
X2310457Y1218869D01*
X2310257Y1218657D01*
X2309602Y1217614D01*
X2309498Y1217343D01*
X2309350Y1217092D01*
X2308943Y1215930D01*
X2308903Y1215641D01*
X2308814Y1215364D01*
X2308676Y1214140D01*
X2308689Y1213994D01*
X2308660Y1213850D01*
Y1084850D01*
X2308689Y1084706D01*
X2308676Y1084560D01*
X2308814Y1083337D01*
X2308903Y1083059D01*
X2308943Y1082771D01*
X2309350Y1081609D01*
X2309498Y1081358D01*
X2309602Y1081086D01*
X2310257Y1080043D01*
X2310457Y1079832D01*
X2310619Y1079590D01*
X2311490Y1078719D01*
X2311732Y1078557D01*
X2311943Y1078357D01*
X2312986Y1077702D01*
X2313258Y1077598D01*
X2313508Y1077450D01*
X2314671Y1077044D01*
X2314959Y1077003D01*
X2315236Y1076915D01*
X2316460Y1076777D01*
X2316606Y1076789D01*
X2316750Y1076760D01*
X2445750D01*
X2445894Y1076789D01*
X2446040Y1076777D01*
X2447264Y1076915D01*
X2447541Y1077003D01*
X2447829Y1077044D01*
X2448992Y1077450D01*
X2449242Y1077598D01*
X2449514Y1077702D01*
X2450557Y1078357D01*
X2450768Y1078557D01*
X2451010Y1078719D01*
X2451881Y1079590D01*
X2452043Y1079832D01*
X2452243Y1080043D01*
X2452898Y1081086D01*
X2453002Y1081358D01*
X2453150Y1081609D01*
X2453557Y1082771D01*
X2453597Y1083059D01*
X2453685Y1083336D01*
X2453823Y1084560D01*
X2453811Y1084706D01*
X2453840Y1084850D01*
Y1213850D01*
X2453811Y1213994D01*
X2453823Y1214140D01*
X2453685Y1215364D01*
X2453597Y1215641D01*
X2453557Y1215929D01*
X2453150Y1217092D01*
X2453002Y1217342D01*
X2452898Y1217614D01*
X2452243Y1218657D01*
X2452043Y1218869D01*
X2451881Y1219111D01*
X2451010Y1219982D01*
X2450768Y1220143D01*
X2450557Y1220343D01*
X2449514Y1220998D01*
X2449242Y1221102D01*
X2448992Y1221250D01*
X2447829Y1221657D01*
X2447541Y1221697D01*
X2447264Y1221786D01*
X2446040Y1221924D01*
X2445894Y1221911D01*
X2445750Y1221940D01*
D02*
G37*
G36*
X2255250D02*
X2126250D01*
X2126106Y1221911D01*
X2125960Y1221924D01*
X2124736Y1221786D01*
X2124459Y1221697D01*
X2124171Y1221657D01*
X2123009Y1221250D01*
X2122758Y1221102D01*
X2122486Y1220998D01*
X2121443Y1220343D01*
X2121232Y1220143D01*
X2120990Y1219982D01*
X2120119Y1219111D01*
X2119957Y1218869D01*
X2119757Y1218657D01*
X2119102Y1217614D01*
X2118998Y1217343D01*
X2118850Y1217092D01*
X2118443Y1215930D01*
X2118403Y1215641D01*
X2118314Y1215364D01*
X2118177Y1214140D01*
X2118189Y1213994D01*
X2118160Y1213850D01*
Y1084850D01*
X2118189Y1084706D01*
X2118177Y1084560D01*
X2118314Y1083337D01*
X2118403Y1083059D01*
X2118443Y1082771D01*
X2118850Y1081609D01*
X2118998Y1081358D01*
X2119102Y1081086D01*
X2119757Y1080043D01*
X2119957Y1079832D01*
X2120119Y1079590D01*
X2120990Y1078719D01*
X2121232Y1078557D01*
X2121443Y1078357D01*
X2122486Y1077702D01*
X2122758Y1077598D01*
X2123008Y1077450D01*
X2124171Y1077044D01*
X2124459Y1077003D01*
X2124736Y1076915D01*
X2125960Y1076777D01*
X2126106Y1076789D01*
X2126250Y1076760D01*
X2255250D01*
X2255394Y1076789D01*
X2255540Y1076777D01*
X2256764Y1076915D01*
X2257041Y1077003D01*
X2257329Y1077044D01*
X2258492Y1077450D01*
X2258742Y1077598D01*
X2259014Y1077702D01*
X2260057Y1078357D01*
X2260268Y1078557D01*
X2260510Y1078719D01*
X2261381Y1079590D01*
X2261543Y1079832D01*
X2261743Y1080043D01*
X2262398Y1081086D01*
X2262502Y1081358D01*
X2262650Y1081609D01*
X2263056Y1082771D01*
X2263097Y1083059D01*
X2263185Y1083336D01*
X2263323Y1084560D01*
X2263311Y1084706D01*
X2263340Y1084850D01*
Y1213850D01*
X2263311Y1213994D01*
X2263323Y1214140D01*
X2263185Y1215364D01*
X2263097Y1215641D01*
X2263056Y1215929D01*
X2262650Y1217092D01*
X2262502Y1217342D01*
X2262398Y1217614D01*
X2261743Y1218657D01*
X2261543Y1218869D01*
X2261381Y1219111D01*
X2260510Y1219982D01*
X2260268Y1220143D01*
X2260057Y1220343D01*
X2259014Y1220998D01*
X2258742Y1221102D01*
X2258492Y1221250D01*
X2257329Y1221657D01*
X2257041Y1221697D01*
X2256764Y1221786D01*
X2255540Y1221924D01*
X2255394Y1221911D01*
X2255250Y1221940D01*
D02*
G37*
G36*
X2064750Y1221940D02*
X1935750D01*
X1935606Y1221911D01*
X1935460Y1221924D01*
X1934236Y1221786D01*
X1933959Y1221697D01*
X1933671Y1221657D01*
X1932508Y1221250D01*
X1932258Y1221102D01*
X1931986Y1220998D01*
X1930943Y1220343D01*
X1930732Y1220143D01*
X1930490Y1219982D01*
X1929619Y1219111D01*
X1929457Y1218869D01*
X1929257Y1218657D01*
X1928602Y1217615D01*
X1928498Y1217343D01*
X1928350Y1217092D01*
X1927943Y1215929D01*
X1927903Y1215641D01*
X1927814Y1215364D01*
X1927677Y1214140D01*
X1927689Y1213994D01*
X1927660Y1213850D01*
Y1084850D01*
X1927689Y1084706D01*
X1927677Y1084560D01*
X1927814Y1083337D01*
X1927903Y1083059D01*
X1927943Y1082771D01*
X1928350Y1081608D01*
X1928498Y1081358D01*
X1928602Y1081086D01*
X1929257Y1080043D01*
X1929457Y1079832D01*
X1929619Y1079590D01*
X1930490Y1078719D01*
X1930732Y1078557D01*
X1930943Y1078357D01*
X1931986Y1077702D01*
X1932258Y1077598D01*
X1932509Y1077450D01*
X1933671Y1077044D01*
X1933959Y1077003D01*
X1934236Y1076915D01*
X1935460Y1076777D01*
X1935606Y1076789D01*
X1935750Y1076760D01*
X2064750D01*
X2064894Y1076789D01*
X2065040Y1076777D01*
X2066264Y1076915D01*
X2066541Y1077003D01*
X2066829Y1077044D01*
X2067991Y1077450D01*
X2068242Y1077598D01*
X2068514Y1077702D01*
X2069557Y1078357D01*
X2069769Y1078557D01*
X2070010Y1078719D01*
X2070881Y1079590D01*
X2071043Y1079832D01*
X2071243Y1080043D01*
X2071898Y1081086D01*
X2072002Y1081358D01*
X2072150Y1081609D01*
X2072556Y1082771D01*
X2072597Y1083059D01*
X2072685Y1083336D01*
X2072823Y1084560D01*
X2072811Y1084706D01*
X2072840Y1084850D01*
Y1213850D01*
X2072811Y1213994D01*
X2072823Y1214140D01*
X2072685Y1215364D01*
X2072597Y1215641D01*
X2072556Y1215929D01*
X2072150Y1217092D01*
X2072002Y1217342D01*
X2071898Y1217615D01*
X2071243Y1218657D01*
X2071043Y1218869D01*
X2070881Y1219111D01*
X2070010Y1219982D01*
X2069768Y1220143D01*
X2069557Y1220343D01*
X2068514Y1220998D01*
X2068242Y1221102D01*
X2067992Y1221250D01*
X2066829Y1221657D01*
X2066541Y1221697D01*
X2066264Y1221786D01*
X2065040Y1221924D01*
X2064894Y1221911D01*
X2064750Y1221940D01*
D02*
G37*
G36*
X1874250D02*
X1745250D01*
X1745106Y1221911D01*
X1744960Y1221924D01*
X1743736Y1221786D01*
X1743459Y1221697D01*
X1743171Y1221657D01*
X1742008Y1221250D01*
X1741758Y1221102D01*
X1741486Y1220998D01*
X1740443Y1220343D01*
X1740232Y1220143D01*
X1739990Y1219982D01*
X1739119Y1219111D01*
X1738957Y1218869D01*
X1738757Y1218657D01*
X1738102Y1217615D01*
X1737998Y1217343D01*
X1737850Y1217092D01*
X1737443Y1215929D01*
X1737403Y1215641D01*
X1737314Y1215364D01*
X1737177Y1214140D01*
X1737189Y1213994D01*
X1737160Y1213850D01*
Y1084850D01*
X1737189Y1084706D01*
X1737177Y1084560D01*
X1737314Y1083337D01*
X1737403Y1083059D01*
X1737443Y1082771D01*
X1737850Y1081608D01*
X1737998Y1081358D01*
X1738102Y1081086D01*
X1738757Y1080043D01*
X1738957Y1079832D01*
X1739119Y1079590D01*
X1739990Y1078719D01*
X1740232Y1078557D01*
X1740443Y1078357D01*
X1741486Y1077702D01*
X1741758Y1077598D01*
X1742008Y1077450D01*
X1743171Y1077044D01*
X1743459Y1077003D01*
X1743736Y1076915D01*
X1744960Y1076777D01*
X1745106Y1076789D01*
X1745250Y1076760D01*
X1874250D01*
X1874394Y1076789D01*
X1874540Y1076777D01*
X1875764Y1076915D01*
X1876041Y1077003D01*
X1876329Y1077044D01*
X1877491Y1077450D01*
X1877742Y1077598D01*
X1878014Y1077702D01*
X1879057Y1078357D01*
X1879268Y1078557D01*
X1879510Y1078719D01*
X1880381Y1079590D01*
X1880543Y1079832D01*
X1880743Y1080043D01*
X1881398Y1081086D01*
X1881502Y1081358D01*
X1881650Y1081609D01*
X1882056Y1082771D01*
X1882097Y1083059D01*
X1882185Y1083336D01*
X1882323Y1084560D01*
X1882311Y1084706D01*
X1882340Y1084850D01*
Y1213850D01*
X1882311Y1213994D01*
X1882323Y1214140D01*
X1882185Y1215364D01*
X1882097Y1215641D01*
X1882056Y1215929D01*
X1881650Y1217092D01*
X1881502Y1217342D01*
X1881398Y1217615D01*
X1880743Y1218657D01*
X1880543Y1218869D01*
X1880381Y1219111D01*
X1879510Y1219982D01*
X1879268Y1220143D01*
X1879057Y1220343D01*
X1878014Y1220998D01*
X1877742Y1221102D01*
X1877492Y1221250D01*
X1876329Y1221657D01*
X1876041Y1221697D01*
X1875764Y1221786D01*
X1874540Y1221924D01*
X1874394Y1221911D01*
X1874250Y1221940D01*
D02*
G37*
G36*
X1683750D02*
X1554750D01*
X1554606Y1221911D01*
X1554460Y1221924D01*
X1553236Y1221786D01*
X1552959Y1221697D01*
X1552671Y1221657D01*
X1551508Y1221250D01*
X1551257Y1221102D01*
X1550986Y1220998D01*
X1549943Y1220343D01*
X1549731Y1220143D01*
X1549489Y1219981D01*
X1548619Y1219110D01*
X1548457Y1218869D01*
X1548257Y1218657D01*
X1547602Y1217615D01*
X1547498Y1217343D01*
X1547350Y1217092D01*
X1546943Y1215929D01*
X1546903Y1215641D01*
X1546814Y1215364D01*
X1546676Y1214140D01*
X1546689Y1213994D01*
X1546660Y1213850D01*
Y1084850D01*
X1546689Y1084706D01*
X1546676Y1084560D01*
X1546814Y1083336D01*
X1546903Y1083059D01*
X1546943Y1082771D01*
X1547350Y1081608D01*
X1547498Y1081358D01*
X1547602Y1081086D01*
X1548257Y1080043D01*
X1548457Y1079832D01*
X1548619Y1079590D01*
X1549489Y1078719D01*
X1549731Y1078557D01*
X1549943Y1078357D01*
X1550986Y1077702D01*
X1551257Y1077598D01*
X1551508Y1077450D01*
X1552671Y1077044D01*
X1552959Y1077003D01*
X1553236Y1076915D01*
X1554460Y1076777D01*
X1554606Y1076789D01*
X1554750Y1076760D01*
X1683750D01*
X1683894Y1076789D01*
X1684040Y1076777D01*
X1685264Y1076915D01*
X1685541Y1077003D01*
X1685829Y1077044D01*
X1686992Y1077450D01*
X1687242Y1077598D01*
X1687514Y1077702D01*
X1688557Y1078357D01*
X1688768Y1078557D01*
X1689010Y1078719D01*
X1689881Y1079590D01*
X1690043Y1079832D01*
X1690243Y1080043D01*
X1690898Y1081086D01*
X1691002Y1081358D01*
X1691150Y1081608D01*
X1691557Y1082771D01*
X1691597Y1083059D01*
X1691686Y1083336D01*
X1691823Y1084560D01*
X1691811Y1084706D01*
X1691840Y1084850D01*
Y1213850D01*
X1691811Y1213994D01*
X1691823Y1214140D01*
X1691686Y1215364D01*
X1691597Y1215641D01*
X1691557Y1215929D01*
X1691150Y1217092D01*
X1691002Y1217343D01*
X1690898Y1217614D01*
X1690243Y1218657D01*
X1690043Y1218869D01*
X1689881Y1219111D01*
X1689010Y1219982D01*
X1688768Y1220143D01*
X1688557Y1220343D01*
X1687514Y1220998D01*
X1687242Y1221102D01*
X1686992Y1221250D01*
X1685829Y1221657D01*
X1685541Y1221697D01*
X1685264Y1221786D01*
X1684040Y1221924D01*
X1683894Y1221911D01*
X1683750Y1221940D01*
D02*
G37*
G36*
X1493250D02*
X1364250D01*
X1364106Y1221911D01*
X1363960Y1221924D01*
X1362736Y1221786D01*
X1362459Y1221697D01*
X1362171Y1221657D01*
X1361008Y1221250D01*
X1360758Y1221102D01*
X1360486Y1220998D01*
X1359443Y1220343D01*
X1359231Y1220143D01*
X1358990Y1219981D01*
X1358119Y1219111D01*
X1357957Y1218869D01*
X1357757Y1218657D01*
X1357102Y1217614D01*
X1356998Y1217343D01*
X1356850Y1217092D01*
X1356443Y1215929D01*
X1356403Y1215641D01*
X1356314Y1215364D01*
X1356176Y1214140D01*
X1356189Y1213994D01*
X1356160Y1213850D01*
Y1084850D01*
X1356189Y1084706D01*
X1356176Y1084560D01*
X1356314Y1083336D01*
X1356403Y1083059D01*
X1356443Y1082771D01*
X1356850Y1081608D01*
X1356998Y1081358D01*
X1357102Y1081086D01*
X1357757Y1080043D01*
X1357957Y1079832D01*
X1358119Y1079590D01*
X1358989Y1078719D01*
X1359232Y1078557D01*
X1359443Y1078357D01*
X1360486Y1077702D01*
X1360758Y1077598D01*
X1361008Y1077450D01*
X1362171Y1077044D01*
X1362459Y1077003D01*
X1362736Y1076915D01*
X1363960Y1076777D01*
X1364106Y1076789D01*
X1364250Y1076760D01*
X1493250D01*
X1493394Y1076789D01*
X1493540Y1076777D01*
X1494764Y1076915D01*
X1495041Y1077003D01*
X1495329Y1077044D01*
X1496492Y1077450D01*
X1496742Y1077598D01*
X1497014Y1077702D01*
X1498057Y1078357D01*
X1498268Y1078557D01*
X1498510Y1078719D01*
X1499381Y1079590D01*
X1499543Y1079832D01*
X1499743Y1080043D01*
X1500398Y1081086D01*
X1500502Y1081358D01*
X1500650Y1081608D01*
X1501057Y1082771D01*
X1501097Y1083059D01*
X1501186Y1083336D01*
X1501323Y1084560D01*
X1501311Y1084706D01*
X1501340Y1084850D01*
Y1213850D01*
X1501311Y1213994D01*
X1501323Y1214140D01*
X1501186Y1215364D01*
X1501097Y1215641D01*
X1501057Y1215929D01*
X1500650Y1217092D01*
X1500502Y1217342D01*
X1500398Y1217614D01*
X1499743Y1218657D01*
X1499543Y1218869D01*
X1499381Y1219111D01*
X1498510Y1219982D01*
X1498268Y1220143D01*
X1498057Y1220343D01*
X1497014Y1220998D01*
X1496742Y1221102D01*
X1496492Y1221250D01*
X1495329Y1221657D01*
X1495041Y1221697D01*
X1494764Y1221786D01*
X1493540Y1221924D01*
X1493394Y1221911D01*
X1493250Y1221940D01*
D02*
G37*
G36*
X1302750D02*
X1173750D01*
X1173606Y1221911D01*
X1173460Y1221924D01*
X1172236Y1221786D01*
X1171959Y1221697D01*
X1171671Y1221657D01*
X1170508Y1221250D01*
X1170258Y1221102D01*
X1169986Y1220998D01*
X1168943Y1220343D01*
X1168731Y1220143D01*
X1168490Y1219981D01*
X1167619Y1219111D01*
X1167457Y1218869D01*
X1167257Y1218657D01*
X1166602Y1217614D01*
X1166498Y1217343D01*
X1166350Y1217092D01*
X1165943Y1215929D01*
X1165903Y1215641D01*
X1165814Y1215364D01*
X1165676Y1214140D01*
X1165689Y1213994D01*
X1165660Y1213850D01*
Y1084850D01*
X1165689Y1084706D01*
X1165676Y1084560D01*
X1165814Y1083336D01*
X1165903Y1083059D01*
X1165943Y1082771D01*
X1166350Y1081608D01*
X1166498Y1081358D01*
X1166602Y1081086D01*
X1167257Y1080043D01*
X1167457Y1079832D01*
X1167619Y1079590D01*
X1168489Y1078719D01*
X1168732Y1078557D01*
X1168943Y1078357D01*
X1169986Y1077702D01*
X1170258Y1077598D01*
X1170508Y1077450D01*
X1171671Y1077044D01*
X1171959Y1077003D01*
X1172236Y1076915D01*
X1173460Y1076777D01*
X1173606Y1076789D01*
X1173750Y1076760D01*
X1302750D01*
X1302894Y1076789D01*
X1303040Y1076777D01*
X1304264Y1076915D01*
X1304541Y1077003D01*
X1304829Y1077044D01*
X1305992Y1077450D01*
X1306242Y1077598D01*
X1306514Y1077702D01*
X1307557Y1078357D01*
X1307768Y1078557D01*
X1308010Y1078719D01*
X1308881Y1079590D01*
X1309043Y1079832D01*
X1309243Y1080043D01*
X1309898Y1081086D01*
X1310002Y1081358D01*
X1310150Y1081608D01*
X1310556Y1082771D01*
X1310597Y1083059D01*
X1310686Y1083336D01*
X1310823Y1084560D01*
X1310811Y1084706D01*
X1310840Y1084850D01*
Y1213850D01*
X1310811Y1213994D01*
X1310823Y1214140D01*
X1310686Y1215364D01*
X1310597Y1215641D01*
X1310556Y1215929D01*
X1310150Y1217092D01*
X1310002Y1217342D01*
X1309898Y1217614D01*
X1309243Y1218657D01*
X1309043Y1218869D01*
X1308881Y1219111D01*
X1308010Y1219982D01*
X1307768Y1220143D01*
X1307557Y1220343D01*
X1306514Y1220998D01*
X1306242Y1221102D01*
X1305992Y1221250D01*
X1304829Y1221657D01*
X1304541Y1221697D01*
X1304264Y1221786D01*
X1303040Y1221924D01*
X1302894Y1221911D01*
X1302750Y1221940D01*
D02*
G37*
G36*
X1112250D02*
X983250D01*
X983106Y1221911D01*
X982960Y1221924D01*
X981736Y1221786D01*
X981459Y1221697D01*
X981171Y1221657D01*
X980008Y1221250D01*
X979758Y1221102D01*
X979486Y1220998D01*
X978443Y1220343D01*
X978232Y1220143D01*
X977990Y1219981D01*
X977119Y1219111D01*
X976957Y1218869D01*
X976757Y1218657D01*
X976102Y1217614D01*
X975998Y1217342D01*
X975850Y1217092D01*
X975443Y1215929D01*
X975403Y1215641D01*
X975314Y1215364D01*
X975176Y1214140D01*
X975189Y1213994D01*
X975160Y1213850D01*
Y1084850D01*
X975189Y1084706D01*
X975176Y1084560D01*
X975314Y1083336D01*
X975403Y1083059D01*
X975443Y1082771D01*
X975850Y1081609D01*
X975998Y1081358D01*
X976102Y1081086D01*
X976757Y1080043D01*
X976957Y1079832D01*
X977119Y1079590D01*
X977989Y1078719D01*
X978232Y1078557D01*
X978443Y1078357D01*
X979486Y1077702D01*
X979758Y1077598D01*
X980008Y1077450D01*
X981171Y1077044D01*
X981459Y1077003D01*
X981736Y1076915D01*
X982960Y1076777D01*
X983106Y1076789D01*
X983250Y1076760D01*
X1112250D01*
X1112394Y1076789D01*
X1112540Y1076777D01*
X1113764Y1076915D01*
X1114041Y1077003D01*
X1114329Y1077044D01*
X1115492Y1077450D01*
X1115742Y1077598D01*
X1116014Y1077702D01*
X1117057Y1078357D01*
X1117268Y1078557D01*
X1117510Y1078719D01*
X1118381Y1079590D01*
X1118543Y1079832D01*
X1118743Y1080043D01*
X1119398Y1081086D01*
X1119502Y1081358D01*
X1119650Y1081608D01*
X1120057Y1082771D01*
X1120097Y1083059D01*
X1120186Y1083336D01*
X1120323Y1084560D01*
X1120311Y1084706D01*
X1120340Y1084850D01*
Y1213850D01*
X1120311Y1213994D01*
X1120323Y1214140D01*
X1120186Y1215364D01*
X1120097Y1215641D01*
X1120057Y1215929D01*
X1119650Y1217092D01*
X1119502Y1217342D01*
X1119398Y1217614D01*
X1118743Y1218657D01*
X1118543Y1218869D01*
X1118381Y1219111D01*
X1117510Y1219982D01*
X1117268Y1220143D01*
X1117057Y1220343D01*
X1116014Y1220998D01*
X1115742Y1221102D01*
X1115491Y1221250D01*
X1114329Y1221657D01*
X1114041Y1221697D01*
X1113764Y1221786D01*
X1112540Y1221924D01*
X1112394Y1221911D01*
X1112250Y1221940D01*
D02*
G37*
G36*
X921750Y1221940D02*
X792750D01*
X792606Y1221911D01*
X792460Y1221924D01*
X791236Y1221786D01*
X790959Y1221697D01*
X790671Y1221657D01*
X789508Y1221250D01*
X789258Y1221102D01*
X788986Y1220998D01*
X787943Y1220343D01*
X787731Y1220143D01*
X787489Y1219981D01*
X786619Y1219110D01*
X786457Y1218868D01*
X786257Y1218657D01*
X785602Y1217614D01*
X785498Y1217342D01*
X785350Y1217092D01*
X784943Y1215929D01*
X784903Y1215641D01*
X784814Y1215364D01*
X784677Y1214140D01*
X784689Y1213994D01*
X784660Y1213850D01*
Y1084850D01*
X784689Y1084706D01*
X784677Y1084560D01*
X784814Y1083336D01*
X784903Y1083059D01*
X784943Y1082771D01*
X785350Y1081608D01*
X785498Y1081358D01*
X785602Y1081086D01*
X786257Y1080043D01*
X786457Y1079832D01*
X786619Y1079590D01*
X787490Y1078719D01*
X787731Y1078557D01*
X787943Y1078357D01*
X788986Y1077702D01*
X789258Y1077598D01*
X789508Y1077450D01*
X790671Y1077044D01*
X790959Y1077003D01*
X791236Y1076915D01*
X792460Y1076777D01*
X792606Y1076789D01*
X792750Y1076760D01*
X921750D01*
X921894Y1076789D01*
X922040Y1076777D01*
X923264Y1076915D01*
X923541Y1077003D01*
X923829Y1077044D01*
X924992Y1077450D01*
X925242Y1077598D01*
X925514Y1077702D01*
X926557Y1078357D01*
X926768Y1078557D01*
X927010Y1078719D01*
X927881Y1079589D01*
X928043Y1079832D01*
X928243Y1080043D01*
X928898Y1081086D01*
X929002Y1081358D01*
X929150Y1081608D01*
X929557Y1082771D01*
X929597Y1083059D01*
X929686Y1083336D01*
X929823Y1084560D01*
X929811Y1084706D01*
X929840Y1084850D01*
Y1213850D01*
X929811Y1213994D01*
X929823Y1214140D01*
X929686Y1215364D01*
X929597Y1215641D01*
X929557Y1215929D01*
X929150Y1217092D01*
X929002Y1217343D01*
X928898Y1217614D01*
X928243Y1218657D01*
X928043Y1218868D01*
X927881Y1219110D01*
X927010Y1219981D01*
X926768Y1220143D01*
X926557Y1220343D01*
X925514Y1220998D01*
X925242Y1221102D01*
X924992Y1221250D01*
X923829Y1221657D01*
X923541Y1221697D01*
X923264Y1221786D01*
X922040Y1221924D01*
X921894Y1221911D01*
X921750Y1221940D01*
D02*
G37*
G36*
X731250D02*
X602250D01*
X602106Y1221911D01*
X601960Y1221924D01*
X600736Y1221786D01*
X600459Y1221697D01*
X600171Y1221657D01*
X599008Y1221250D01*
X598758Y1221102D01*
X598486Y1220998D01*
X597443Y1220343D01*
X597231Y1220143D01*
X596990Y1219981D01*
X596119Y1219110D01*
X595957Y1218869D01*
X595757Y1218657D01*
X595102Y1217614D01*
X594998Y1217342D01*
X594850Y1217092D01*
X594443Y1215929D01*
X594403Y1215641D01*
X594314Y1215364D01*
X594176Y1214140D01*
X594189Y1213994D01*
X594160Y1213850D01*
Y1084850D01*
X594189Y1084706D01*
X594176Y1084560D01*
X594314Y1083336D01*
X594403Y1083059D01*
X594443Y1082771D01*
X594850Y1081609D01*
X594998Y1081358D01*
X595102Y1081086D01*
X595757Y1080043D01*
X595957Y1079831D01*
X596119Y1079589D01*
X596990Y1078719D01*
X597231Y1078557D01*
X597443Y1078357D01*
X598486Y1077702D01*
X598758Y1077598D01*
X599008Y1077450D01*
X600171Y1077044D01*
X600459Y1077003D01*
X600736Y1076914D01*
X601960Y1076777D01*
X602106Y1076789D01*
X602250Y1076760D01*
X731250D01*
X731394Y1076789D01*
X731540Y1076777D01*
X732764Y1076915D01*
X733041Y1077003D01*
X733329Y1077044D01*
X734492Y1077450D01*
X734742Y1077598D01*
X735014Y1077702D01*
X736057Y1078357D01*
X736268Y1078557D01*
X736510Y1078719D01*
X737381Y1079590D01*
X737543Y1079832D01*
X737743Y1080043D01*
X738398Y1081086D01*
X738502Y1081358D01*
X738650Y1081608D01*
X739056Y1082771D01*
X739097Y1083059D01*
X739185Y1083336D01*
X739323Y1084560D01*
X739311Y1084706D01*
X739340Y1084850D01*
Y1213850D01*
X739311Y1213994D01*
X739323Y1214140D01*
X739185Y1215364D01*
X739097Y1215641D01*
X739056Y1215929D01*
X738650Y1217092D01*
X738502Y1217342D01*
X738398Y1217614D01*
X737743Y1218657D01*
X737543Y1218868D01*
X737381Y1219110D01*
X736510Y1219981D01*
X736268Y1220143D01*
X736057Y1220343D01*
X735014Y1220998D01*
X734742Y1221102D01*
X734492Y1221250D01*
X733329Y1221657D01*
X733041Y1221697D01*
X732764Y1221786D01*
X731540Y1221924D01*
X731394Y1221911D01*
X731250Y1221940D01*
D02*
G37*
G36*
X540750D02*
X411750D01*
X411606Y1221911D01*
X411460Y1221924D01*
X410236Y1221786D01*
X409959Y1221697D01*
X409671Y1221657D01*
X408508Y1221250D01*
X408258Y1221102D01*
X407986Y1220998D01*
X406943Y1220343D01*
X406731Y1220143D01*
X406490Y1219981D01*
X405619Y1219110D01*
X405457Y1218869D01*
X405257Y1218657D01*
X404602Y1217614D01*
X404498Y1217342D01*
X404350Y1217092D01*
X403943Y1215929D01*
X403903Y1215641D01*
X403814Y1215364D01*
X403676Y1214140D01*
X403689Y1213994D01*
X403660Y1213850D01*
X403660Y1084850D01*
X403689Y1084706D01*
X403676Y1084560D01*
X403814Y1083336D01*
X403903Y1083059D01*
X403943Y1082771D01*
X404350Y1081609D01*
X404498Y1081358D01*
X404602Y1081086D01*
X405257Y1080043D01*
X405457Y1079831D01*
X405619Y1079589D01*
X406490Y1078719D01*
X406731Y1078557D01*
X406943Y1078357D01*
X407986Y1077702D01*
X408258Y1077598D01*
X408508Y1077450D01*
X409671Y1077044D01*
X409959Y1077003D01*
X410236Y1076914D01*
X411460Y1076777D01*
X411606Y1076789D01*
X411750Y1076760D01*
X540750D01*
X540894Y1076789D01*
X541040Y1076777D01*
X542264Y1076914D01*
X542541Y1077003D01*
X542829Y1077044D01*
X543992Y1077450D01*
X544242Y1077598D01*
X544514Y1077702D01*
X545557Y1078357D01*
X545768Y1078557D01*
X546010Y1078719D01*
X546881Y1079589D01*
X547043Y1079831D01*
X547243Y1080043D01*
X547898Y1081086D01*
X548002Y1081358D01*
X548150Y1081609D01*
X548557Y1082771D01*
X548597Y1083059D01*
X548685Y1083336D01*
X548823Y1084560D01*
X548811Y1084706D01*
X548840Y1084850D01*
Y1213850D01*
X548811Y1213994D01*
X548823Y1214140D01*
X548685Y1215364D01*
X548597Y1215641D01*
X548557Y1215929D01*
X548150Y1217092D01*
X548002Y1217342D01*
X547898Y1217614D01*
X547243Y1218657D01*
X547043Y1218869D01*
X546881Y1219110D01*
X546010Y1219981D01*
X545768Y1220143D01*
X545557Y1220343D01*
X544514Y1220998D01*
X544242Y1221102D01*
X543992Y1221250D01*
X542829Y1221657D01*
X542541Y1221697D01*
X542264Y1221786D01*
X541040Y1221924D01*
X540894Y1221911D01*
X540750Y1221940D01*
D02*
G37*
G36*
X350250D02*
X221250D01*
X221106Y1221911D01*
X220960Y1221924D01*
X219736Y1221786D01*
X219459Y1221697D01*
X219171Y1221657D01*
X218008Y1221250D01*
X217758Y1221102D01*
X217486Y1220998D01*
X216443Y1220343D01*
X216231Y1220143D01*
X215990Y1219981D01*
X215119Y1219111D01*
X214957Y1218869D01*
X214757Y1218657D01*
X214102Y1217614D01*
X213998Y1217342D01*
X213850Y1217092D01*
X213443Y1215929D01*
X213403Y1215641D01*
X213314Y1215364D01*
X213176Y1214140D01*
X213189Y1213994D01*
X213160Y1213850D01*
X213160Y1084850D01*
X213189Y1084706D01*
X213176Y1084560D01*
X213314Y1083336D01*
X213403Y1083059D01*
X213443Y1082771D01*
X213850Y1081609D01*
X213998Y1081358D01*
X214102Y1081086D01*
X214757Y1080043D01*
X214957Y1079831D01*
X215119Y1079590D01*
X215990Y1078719D01*
X216232Y1078557D01*
X216443Y1078357D01*
X217486Y1077702D01*
X217758Y1077598D01*
X218008Y1077450D01*
X219171Y1077044D01*
X219459Y1077003D01*
X219736Y1076914D01*
X220960Y1076777D01*
X221106Y1076789D01*
X221250Y1076760D01*
X350250D01*
X350394Y1076789D01*
X350540Y1076777D01*
X351764Y1076914D01*
X352041Y1077003D01*
X352329Y1077044D01*
X353492Y1077450D01*
X353742Y1077598D01*
X354014Y1077702D01*
X355057Y1078357D01*
X355268Y1078557D01*
X355510Y1078719D01*
X356381Y1079590D01*
X356543Y1079831D01*
X356743Y1080043D01*
X357398Y1081086D01*
X357502Y1081358D01*
X357650Y1081609D01*
X358056Y1082771D01*
X358097Y1083059D01*
X358186Y1083336D01*
X358323Y1084560D01*
X358311Y1084706D01*
X358340Y1084850D01*
X358340Y1213850D01*
X358311Y1213994D01*
X358323Y1214140D01*
X358186Y1215364D01*
X358097Y1215641D01*
X358056Y1215929D01*
X357650Y1217092D01*
X357502Y1217342D01*
X357398Y1217614D01*
X356743Y1218657D01*
X356543Y1218869D01*
X356381Y1219111D01*
X355510Y1219981D01*
X355268Y1220143D01*
X355057Y1220343D01*
X354014Y1220998D01*
X353742Y1221102D01*
X353492Y1221250D01*
X352329Y1221657D01*
X352041Y1221697D01*
X351764Y1221786D01*
X350540Y1221924D01*
X350394Y1221911D01*
X350250Y1221940D01*
D02*
G37*
G36*
X159750D02*
X30750D01*
X30606Y1221911D01*
X30460Y1221924D01*
X29236Y1221786D01*
X28959Y1221697D01*
X28671Y1221657D01*
X27508Y1221250D01*
X27258Y1221102D01*
X26986Y1220998D01*
X25943Y1220343D01*
X25731Y1220143D01*
X25490Y1219981D01*
X24619Y1219111D01*
X24457Y1218869D01*
X24257Y1218657D01*
X23602Y1217614D01*
X23498Y1217342D01*
X23350Y1217092D01*
X22943Y1215929D01*
X22903Y1215641D01*
X22814Y1215364D01*
X22676Y1214140D01*
X22689Y1213994D01*
X22660Y1213850D01*
X22660Y1084850D01*
X22689Y1084706D01*
X22676Y1084560D01*
X22814Y1083336D01*
X22903Y1083059D01*
X22943Y1082771D01*
X23350Y1081609D01*
X23498Y1081358D01*
X23602Y1081086D01*
X24257Y1080043D01*
X24457Y1079831D01*
X24619Y1079590D01*
X25490Y1078719D01*
X25732Y1078557D01*
X25943Y1078357D01*
X26986Y1077702D01*
X27258Y1077598D01*
X27508Y1077450D01*
X28671Y1077044D01*
X28959Y1077003D01*
X29236Y1076914D01*
X30460Y1076777D01*
X30606Y1076789D01*
X30750Y1076760D01*
X159750D01*
X159894Y1076789D01*
X160040Y1076777D01*
X161264Y1076914D01*
X161541Y1077003D01*
X161829Y1077044D01*
X162992Y1077450D01*
X163242Y1077598D01*
X163514Y1077702D01*
X164557Y1078357D01*
X164768Y1078557D01*
X165010Y1078719D01*
X165881Y1079590D01*
X166043Y1079831D01*
X166243Y1080043D01*
X166898Y1081086D01*
X167002Y1081358D01*
X167150Y1081609D01*
X167556Y1082771D01*
X167597Y1083059D01*
X167686Y1083336D01*
X167823Y1084560D01*
X167811Y1084706D01*
X167840Y1084850D01*
X167840Y1213850D01*
X167811Y1213994D01*
X167823Y1214140D01*
X167686Y1215364D01*
X167597Y1215641D01*
X167556Y1215929D01*
X167150Y1217092D01*
X167002Y1217342D01*
X166898Y1217614D01*
X166243Y1218657D01*
X166043Y1218869D01*
X165881Y1219111D01*
X165010Y1219981D01*
X164768Y1220143D01*
X164557Y1220343D01*
X163514Y1220998D01*
X163242Y1221102D01*
X162992Y1221250D01*
X161829Y1221657D01*
X161541Y1221697D01*
X161264Y1221786D01*
X160040Y1221924D01*
X159894Y1221911D01*
X159750Y1221940D01*
D02*
G37*
G36*
X3017250Y1031440D02*
X2888250D01*
X2888106Y1031411D01*
X2887960Y1031424D01*
X2886736Y1031286D01*
X2886459Y1031198D01*
X2886171Y1031157D01*
X2885008Y1030750D01*
X2884758Y1030602D01*
X2884486Y1030498D01*
X2883443Y1029843D01*
X2883232Y1029643D01*
X2882990Y1029482D01*
X2882119Y1028611D01*
X2881957Y1028369D01*
X2881757Y1028157D01*
X2881102Y1027115D01*
X2880998Y1026843D01*
X2880850Y1026592D01*
X2880443Y1025430D01*
X2880403Y1025141D01*
X2880314Y1024864D01*
X2880176Y1023640D01*
X2880189Y1023494D01*
X2880160Y1023350D01*
Y894350D01*
X2880189Y894206D01*
X2880176Y894061D01*
X2880314Y892837D01*
X2880403Y892559D01*
X2880443Y892271D01*
X2880850Y891108D01*
X2880998Y890858D01*
X2881102Y890586D01*
X2881757Y889543D01*
X2881957Y889332D01*
X2882119Y889090D01*
X2882990Y888219D01*
X2883232Y888057D01*
X2883443Y887858D01*
X2884486Y887202D01*
X2884758Y887098D01*
X2885008Y886951D01*
X2886171Y886544D01*
X2886459Y886503D01*
X2886736Y886415D01*
X2887960Y886277D01*
X2888106Y886289D01*
X2888250Y886261D01*
X3017250D01*
X3017394Y886289D01*
X3017540Y886277D01*
X3018764Y886415D01*
X3019041Y886503D01*
X3019329Y886544D01*
X3020492Y886950D01*
X3020742Y887098D01*
X3021014Y887202D01*
X3022057Y887858D01*
X3022268Y888057D01*
X3022510Y888219D01*
X3023381Y889090D01*
X3023543Y889332D01*
X3023743Y889543D01*
X3024398Y890586D01*
X3024502Y890858D01*
X3024650Y891109D01*
X3025056Y892271D01*
X3025097Y892559D01*
X3025186Y892836D01*
X3025323Y894060D01*
X3025311Y894206D01*
X3025340Y894350D01*
Y1023350D01*
X3025311Y1023494D01*
X3025323Y1023640D01*
X3025186Y1024864D01*
X3025097Y1025141D01*
X3025056Y1025429D01*
X3024650Y1026592D01*
X3024502Y1026842D01*
X3024398Y1027115D01*
X3023743Y1028157D01*
X3023543Y1028369D01*
X3023381Y1028611D01*
X3022510Y1029482D01*
X3022268Y1029643D01*
X3022057Y1029843D01*
X3021014Y1030498D01*
X3020742Y1030602D01*
X3020492Y1030750D01*
X3019329Y1031157D01*
X3019041Y1031198D01*
X3018764Y1031286D01*
X3017540Y1031424D01*
X3017394Y1031411D01*
X3017250Y1031440D01*
D02*
G37*
G36*
X2541000D02*
X2412000D01*
X2411856Y1031411D01*
X2411710Y1031424D01*
X2410486Y1031286D01*
X2410209Y1031198D01*
X2409921Y1031157D01*
X2408758Y1030750D01*
X2408508Y1030602D01*
X2408236Y1030498D01*
X2407193Y1029843D01*
X2406982Y1029643D01*
X2406740Y1029482D01*
X2405869Y1028611D01*
X2405707Y1028369D01*
X2405507Y1028157D01*
X2404852Y1027115D01*
X2404748Y1026843D01*
X2404600Y1026592D01*
X2404193Y1025430D01*
X2404153Y1025141D01*
X2404064Y1024864D01*
X2403927Y1023640D01*
X2403939Y1023494D01*
X2403910Y1023350D01*
Y894350D01*
X2403939Y894206D01*
X2403927Y894061D01*
X2404064Y892837D01*
X2404153Y892559D01*
X2404193Y892271D01*
X2404600Y891108D01*
X2404748Y890858D01*
X2404852Y890586D01*
X2405507Y889543D01*
X2405707Y889332D01*
X2405869Y889090D01*
X2406740Y888219D01*
X2406982Y888057D01*
X2407193Y887857D01*
X2408236Y887202D01*
X2408508Y887098D01*
X2408758Y886951D01*
X2409921Y886544D01*
X2410209Y886503D01*
X2410486Y886415D01*
X2411710Y886277D01*
X2411856Y886289D01*
X2412000Y886261D01*
X2541000D01*
X2541144Y886289D01*
X2541290Y886277D01*
X2542514Y886415D01*
X2542791Y886503D01*
X2543079Y886544D01*
X2544242Y886951D01*
X2544492Y887098D01*
X2544764Y887202D01*
X2545807Y887857D01*
X2546018Y888057D01*
X2546260Y888219D01*
X2547131Y889090D01*
X2547293Y889332D01*
X2547493Y889543D01*
X2548148Y890586D01*
X2548252Y890858D01*
X2548400Y891109D01*
X2548806Y892271D01*
X2548847Y892559D01*
X2548935Y892836D01*
X2549073Y894060D01*
X2549061Y894206D01*
X2549090Y894350D01*
Y1023350D01*
X2549061Y1023494D01*
X2549073Y1023640D01*
X2548935Y1024864D01*
X2548847Y1025141D01*
X2548806Y1025429D01*
X2548400Y1026592D01*
X2548252Y1026842D01*
X2548148Y1027115D01*
X2547493Y1028157D01*
X2547293Y1028369D01*
X2547131Y1028611D01*
X2546260Y1029482D01*
X2546018Y1029643D01*
X2545807Y1029843D01*
X2544764Y1030498D01*
X2544492Y1030602D01*
X2544242Y1030750D01*
X2543079Y1031157D01*
X2542791Y1031198D01*
X2542514Y1031286D01*
X2541290Y1031424D01*
X2541144Y1031411D01*
X2541000Y1031440D01*
D02*
G37*
G36*
X2350500D02*
X2221500D01*
X2221356Y1031411D01*
X2221210Y1031424D01*
X2219986Y1031286D01*
X2219709Y1031197D01*
X2219421Y1031157D01*
X2218259Y1030750D01*
X2218008Y1030602D01*
X2217736Y1030498D01*
X2216693Y1029843D01*
X2216481Y1029643D01*
X2216240Y1029482D01*
X2215369Y1028611D01*
X2215207Y1028369D01*
X2215007Y1028157D01*
X2214352Y1027114D01*
X2214248Y1026843D01*
X2214100Y1026592D01*
X2213693Y1025430D01*
X2213653Y1025141D01*
X2213564Y1024864D01*
X2213427Y1023640D01*
X2213439Y1023494D01*
X2213410Y1023350D01*
Y894350D01*
X2213439Y894206D01*
X2213427Y894061D01*
X2213564Y892837D01*
X2213653Y892559D01*
X2213693Y892271D01*
X2214100Y891108D01*
X2214248Y890858D01*
X2214352Y890586D01*
X2215007Y889543D01*
X2215207Y889332D01*
X2215369Y889090D01*
X2216240Y888219D01*
X2216482Y888057D01*
X2216693Y887857D01*
X2217736Y887202D01*
X2218008Y887098D01*
X2218258Y886951D01*
X2219421Y886544D01*
X2219709Y886503D01*
X2219986Y886415D01*
X2221210Y886277D01*
X2221356Y886289D01*
X2221500Y886261D01*
X2350500D01*
X2350644Y886289D01*
X2350790Y886277D01*
X2352014Y886415D01*
X2352291Y886503D01*
X2352579Y886544D01*
X2353742Y886951D01*
X2353992Y887098D01*
X2354264Y887202D01*
X2355307Y887857D01*
X2355518Y888057D01*
X2355760Y888219D01*
X2356631Y889090D01*
X2356793Y889332D01*
X2356993Y889543D01*
X2357648Y890586D01*
X2357752Y890858D01*
X2357900Y891109D01*
X2358306Y892271D01*
X2358347Y892559D01*
X2358435Y892836D01*
X2358573Y894060D01*
X2358561Y894206D01*
X2358590Y894350D01*
Y1023350D01*
X2358561Y1023494D01*
X2358573Y1023640D01*
X2358435Y1024864D01*
X2358347Y1025141D01*
X2358306Y1025429D01*
X2357900Y1026592D01*
X2357752Y1026842D01*
X2357648Y1027114D01*
X2356993Y1028157D01*
X2356793Y1028369D01*
X2356631Y1028611D01*
X2355760Y1029482D01*
X2355518Y1029643D01*
X2355307Y1029843D01*
X2354264Y1030498D01*
X2353992Y1030602D01*
X2353741Y1030750D01*
X2352579Y1031157D01*
X2352291Y1031197D01*
X2352014Y1031286D01*
X2350790Y1031424D01*
X2350644Y1031411D01*
X2350500Y1031440D01*
D02*
G37*
G36*
X2160000D02*
X2031000Y1031440D01*
X2030856Y1031411D01*
X2030710Y1031424D01*
X2029486Y1031286D01*
X2029209Y1031197D01*
X2028921Y1031157D01*
X2027758Y1030750D01*
X2027508Y1030602D01*
X2027236Y1030498D01*
X2026193Y1029843D01*
X2025982Y1029643D01*
X2025740Y1029482D01*
X2024869Y1028611D01*
X2024707Y1028369D01*
X2024507Y1028157D01*
X2023852Y1027114D01*
X2023748Y1026843D01*
X2023600Y1026592D01*
X2023193Y1025429D01*
X2023153Y1025141D01*
X2023064Y1024864D01*
X2022926Y1023640D01*
X2022939Y1023494D01*
X2022910Y1023350D01*
Y894350D01*
X2022939Y894206D01*
X2022926Y894060D01*
X2023064Y892837D01*
X2023153Y892559D01*
X2023193Y892271D01*
X2023600Y891108D01*
X2023748Y890858D01*
X2023852Y890586D01*
X2024507Y889543D01*
X2024707Y889332D01*
X2024869Y889090D01*
X2025740Y888219D01*
X2025982Y888057D01*
X2026193Y887857D01*
X2027236Y887202D01*
X2027508Y887098D01*
X2027758Y886950D01*
X2028921Y886544D01*
X2029209Y886503D01*
X2029486Y886415D01*
X2030710Y886277D01*
X2030856Y886289D01*
X2031000Y886260D01*
X2160000Y886261D01*
X2160144Y886289D01*
X2160290Y886277D01*
X2161514Y886415D01*
X2161791Y886503D01*
X2162079Y886544D01*
X2163242Y886951D01*
X2163492Y887098D01*
X2163764Y887202D01*
X2164807Y887857D01*
X2165018Y888057D01*
X2165260Y888219D01*
X2166131Y889090D01*
X2166293Y889332D01*
X2166493Y889543D01*
X2167148Y890586D01*
X2167252Y890858D01*
X2167400Y891109D01*
X2167807Y892271D01*
X2167847Y892559D01*
X2167935Y892836D01*
X2168073Y894060D01*
X2168061Y894206D01*
X2168090Y894350D01*
Y1023350D01*
X2168061Y1023494D01*
X2168073Y1023640D01*
X2167935Y1024864D01*
X2167847Y1025141D01*
X2167807Y1025429D01*
X2167400Y1026592D01*
X2167252Y1026842D01*
X2167148Y1027114D01*
X2166493Y1028157D01*
X2166293Y1028369D01*
X2166131Y1028611D01*
X2165260Y1029482D01*
X2165018Y1029643D01*
X2164807Y1029843D01*
X2163764Y1030498D01*
X2163492Y1030602D01*
X2163241Y1030750D01*
X2162079Y1031157D01*
X2161791Y1031197D01*
X2161514Y1031286D01*
X2160290Y1031424D01*
X2160144Y1031411D01*
X2160000Y1031440D01*
D02*
G37*
G36*
X1969500Y1031440D02*
X1840500D01*
X1840356Y1031411D01*
X1840210Y1031424D01*
X1838986Y1031286D01*
X1838709Y1031197D01*
X1838421Y1031157D01*
X1837258Y1030750D01*
X1837008Y1030602D01*
X1836736Y1030498D01*
X1835693Y1029843D01*
X1835482Y1029643D01*
X1835240Y1029482D01*
X1834369Y1028611D01*
X1834207Y1028369D01*
X1834007Y1028157D01*
X1833352Y1027114D01*
X1833248Y1026843D01*
X1833100Y1026592D01*
X1832693Y1025429D01*
X1832653Y1025141D01*
X1832564Y1024864D01*
X1832426Y1023640D01*
X1832439Y1023494D01*
X1832410Y1023350D01*
Y894350D01*
X1832439Y894206D01*
X1832426Y894060D01*
X1832564Y892837D01*
X1832653Y892559D01*
X1832693Y892271D01*
X1833100Y891108D01*
X1833248Y890858D01*
X1833352Y890586D01*
X1834007Y889543D01*
X1834207Y889332D01*
X1834369Y889090D01*
X1835240Y888219D01*
X1835482Y888057D01*
X1835693Y887857D01*
X1836736Y887202D01*
X1837008Y887098D01*
X1837258Y886950D01*
X1838421Y886544D01*
X1838709Y886503D01*
X1838986Y886415D01*
X1840210Y886277D01*
X1840356Y886289D01*
X1840500Y886260D01*
X1969500D01*
X1969644Y886289D01*
X1969790Y886277D01*
X1971014Y886415D01*
X1971291Y886503D01*
X1971579Y886544D01*
X1972742Y886950D01*
X1972992Y887098D01*
X1973264Y887202D01*
X1974307Y887857D01*
X1974518Y888057D01*
X1974760Y888219D01*
X1975631Y889090D01*
X1975793Y889332D01*
X1975993Y889543D01*
X1976648Y890586D01*
X1976752Y890858D01*
X1976900Y891109D01*
X1977307Y892271D01*
X1977347Y892559D01*
X1977435Y892836D01*
X1977573Y894060D01*
X1977561Y894206D01*
X1977590Y894350D01*
Y1023350D01*
X1977561Y1023494D01*
X1977573Y1023640D01*
X1977435Y1024864D01*
X1977347Y1025141D01*
X1977307Y1025429D01*
X1976900Y1026591D01*
X1976752Y1026842D01*
X1976648Y1027114D01*
X1975993Y1028157D01*
X1975793Y1028369D01*
X1975631Y1028611D01*
X1974760Y1029482D01*
X1974518Y1029643D01*
X1974307Y1029843D01*
X1973264Y1030498D01*
X1972992Y1030602D01*
X1972742Y1030750D01*
X1971579Y1031157D01*
X1971291Y1031197D01*
X1971014Y1031286D01*
X1969790Y1031424D01*
X1969644Y1031411D01*
X1969500Y1031440D01*
D02*
G37*
G36*
X1779000D02*
X1650000D01*
X1649856Y1031411D01*
X1649710Y1031424D01*
X1648486Y1031286D01*
X1648209Y1031197D01*
X1647921Y1031157D01*
X1646758Y1030750D01*
X1646508Y1030602D01*
X1646236Y1030498D01*
X1645193Y1029843D01*
X1644982Y1029643D01*
X1644739Y1029481D01*
X1643869Y1028611D01*
X1643707Y1028369D01*
X1643507Y1028157D01*
X1642852Y1027114D01*
X1642748Y1026842D01*
X1642600Y1026592D01*
X1642193Y1025429D01*
X1642153Y1025141D01*
X1642065Y1024864D01*
X1641927Y1023640D01*
X1641939Y1023494D01*
X1641910Y1023350D01*
Y894350D01*
X1641939Y894206D01*
X1641927Y894060D01*
X1642065Y892836D01*
X1642153Y892559D01*
X1642193Y892271D01*
X1642600Y891109D01*
X1642748Y890858D01*
X1642852Y890586D01*
X1643507Y889543D01*
X1643707Y889332D01*
X1643869Y889090D01*
X1644740Y888219D01*
X1644982Y888057D01*
X1645193Y887857D01*
X1646236Y887202D01*
X1646508Y887098D01*
X1646758Y886950D01*
X1647921Y886544D01*
X1648209Y886503D01*
X1648486Y886414D01*
X1649710Y886277D01*
X1649856Y886289D01*
X1650000Y886260D01*
X1779000D01*
X1779144Y886289D01*
X1779290Y886277D01*
X1780514Y886414D01*
X1780791Y886503D01*
X1781079Y886544D01*
X1782242Y886950D01*
X1782492Y887098D01*
X1782764Y887202D01*
X1783807Y887857D01*
X1784019Y888057D01*
X1784260Y888219D01*
X1785131Y889090D01*
X1785293Y889332D01*
X1785493Y889543D01*
X1786148Y890586D01*
X1786252Y890858D01*
X1786400Y891108D01*
X1786807Y892271D01*
X1786847Y892559D01*
X1786936Y892837D01*
X1787074Y894061D01*
X1787061Y894206D01*
X1787090Y894350D01*
Y1023350D01*
X1787061Y1023494D01*
X1787074Y1023640D01*
X1786936Y1024864D01*
X1786847Y1025141D01*
X1786807Y1025429D01*
X1786400Y1026592D01*
X1786252Y1026843D01*
X1786148Y1027114D01*
X1785493Y1028157D01*
X1785293Y1028369D01*
X1785131Y1028611D01*
X1784260Y1029482D01*
X1784018Y1029643D01*
X1783807Y1029843D01*
X1782764Y1030498D01*
X1782492Y1030602D01*
X1782242Y1030750D01*
X1781079Y1031157D01*
X1780791Y1031197D01*
X1780514Y1031286D01*
X1779290Y1031424D01*
X1779144Y1031411D01*
X1779000Y1031440D01*
D02*
G37*
G36*
X1588500D02*
X1459500D01*
X1459356Y1031411D01*
X1459210Y1031424D01*
X1457986Y1031286D01*
X1457709Y1031197D01*
X1457421Y1031157D01*
X1456258Y1030750D01*
X1456008Y1030602D01*
X1455736Y1030498D01*
X1454693Y1029843D01*
X1454482Y1029643D01*
X1454240Y1029481D01*
X1453369Y1028611D01*
X1453207Y1028369D01*
X1453007Y1028157D01*
X1452352Y1027114D01*
X1452248Y1026842D01*
X1452100Y1026592D01*
X1451693Y1025429D01*
X1451653Y1025141D01*
X1451564Y1024864D01*
X1451427Y1023640D01*
X1451439Y1023494D01*
X1451410Y1023350D01*
Y894350D01*
X1451439Y894206D01*
X1451427Y894060D01*
X1451564Y892836D01*
X1451653Y892559D01*
X1451693Y892271D01*
X1452100Y891109D01*
X1452248Y890858D01*
X1452352Y890586D01*
X1453007Y889543D01*
X1453207Y889332D01*
X1453369Y889090D01*
X1454239Y888219D01*
X1454482Y888057D01*
X1454693Y887857D01*
X1455736Y887202D01*
X1456008Y887098D01*
X1456258Y886950D01*
X1457421Y886544D01*
X1457709Y886503D01*
X1457986Y886414D01*
X1459210Y886277D01*
X1459356Y886289D01*
X1459500Y886260D01*
X1588500D01*
X1588644Y886289D01*
X1588790Y886277D01*
X1590014Y886414D01*
X1590291Y886503D01*
X1590579Y886544D01*
X1591742Y886950D01*
X1591992Y887098D01*
X1592264Y887202D01*
X1593307Y887857D01*
X1593519Y888057D01*
X1593760Y888219D01*
X1594631Y889090D01*
X1594793Y889332D01*
X1594993Y889543D01*
X1595648Y890586D01*
X1595752Y890858D01*
X1595900Y891108D01*
X1596306Y892271D01*
X1596347Y892559D01*
X1596436Y892836D01*
X1596573Y894060D01*
X1596561Y894206D01*
X1596590Y894350D01*
Y1023350D01*
X1596561Y1023494D01*
X1596573Y1023640D01*
X1596436Y1024864D01*
X1596347Y1025141D01*
X1596306Y1025429D01*
X1595900Y1026592D01*
X1595752Y1026843D01*
X1595648Y1027114D01*
X1594993Y1028157D01*
X1594793Y1028369D01*
X1594631Y1028611D01*
X1593760Y1029482D01*
X1593518Y1029643D01*
X1593307Y1029843D01*
X1592264Y1030498D01*
X1591992Y1030602D01*
X1591742Y1030750D01*
X1590579Y1031157D01*
X1590291Y1031197D01*
X1590014Y1031286D01*
X1588790Y1031424D01*
X1588644Y1031411D01*
X1588500Y1031440D01*
D02*
G37*
G36*
X1398000D02*
X1269000D01*
X1268856Y1031411D01*
X1268710Y1031424D01*
X1267486Y1031286D01*
X1267209Y1031197D01*
X1266921Y1031157D01*
X1265758Y1030750D01*
X1265508Y1030602D01*
X1265236Y1030498D01*
X1264193Y1029843D01*
X1263981Y1029643D01*
X1263739Y1029481D01*
X1262869Y1028611D01*
X1262707Y1028369D01*
X1262507Y1028157D01*
X1261852Y1027114D01*
X1261748Y1026842D01*
X1261600Y1026592D01*
X1261193Y1025429D01*
X1261153Y1025141D01*
X1261065Y1024864D01*
X1260927Y1023640D01*
X1260939Y1023494D01*
X1260910Y1023350D01*
Y894350D01*
X1260939Y894206D01*
X1260927Y894060D01*
X1261065Y892836D01*
X1261153Y892559D01*
X1261193Y892271D01*
X1261600Y891109D01*
X1261748Y890858D01*
X1261852Y890586D01*
X1262507Y889543D01*
X1262707Y889332D01*
X1262869Y889090D01*
X1263739Y888219D01*
X1263981Y888057D01*
X1264193Y887857D01*
X1265236Y887202D01*
X1265508Y887098D01*
X1265758Y886950D01*
X1266921Y886544D01*
X1267209Y886503D01*
X1267486Y886414D01*
X1268710Y886277D01*
X1268856Y886289D01*
X1269000Y886260D01*
X1398000D01*
X1398144Y886289D01*
X1398290Y886277D01*
X1399514Y886414D01*
X1399791Y886503D01*
X1400079Y886544D01*
X1401242Y886950D01*
X1401492Y887098D01*
X1401764Y887202D01*
X1402807Y887857D01*
X1403018Y888057D01*
X1403260Y888219D01*
X1404131Y889090D01*
X1404293Y889332D01*
X1404493Y889543D01*
X1405148Y890586D01*
X1405252Y890858D01*
X1405400Y891108D01*
X1405806Y892271D01*
X1405847Y892559D01*
X1405936Y892836D01*
X1406073Y894060D01*
X1406061Y894206D01*
X1406090Y894350D01*
Y1023350D01*
X1406061Y1023494D01*
X1406073Y1023640D01*
X1405936Y1024864D01*
X1405847Y1025141D01*
X1405806Y1025429D01*
X1405400Y1026592D01*
X1405252Y1026843D01*
X1405148Y1027114D01*
X1404493Y1028157D01*
X1404293Y1028369D01*
X1404131Y1028611D01*
X1403260Y1029482D01*
X1403018Y1029643D01*
X1402807Y1029843D01*
X1401764Y1030498D01*
X1401492Y1030602D01*
X1401242Y1030750D01*
X1400079Y1031157D01*
X1399791Y1031197D01*
X1399514Y1031286D01*
X1398290Y1031424D01*
X1398144Y1031411D01*
X1398000Y1031440D01*
D02*
G37*
G36*
X1207500D02*
X1078500D01*
X1078356Y1031411D01*
X1078210Y1031424D01*
X1076986Y1031286D01*
X1076709Y1031197D01*
X1076421Y1031157D01*
X1075258Y1030750D01*
X1075008Y1030602D01*
X1074736Y1030498D01*
X1073693Y1029843D01*
X1073482Y1029643D01*
X1073240Y1029481D01*
X1072369Y1028611D01*
X1072207Y1028369D01*
X1072007Y1028157D01*
X1071352Y1027114D01*
X1071248Y1026842D01*
X1071100Y1026592D01*
X1070694Y1025429D01*
X1070653Y1025141D01*
X1070564Y1024864D01*
X1070426Y1023640D01*
X1070439Y1023494D01*
X1070410Y1023350D01*
Y894350D01*
X1070439Y894206D01*
X1070426Y894060D01*
X1070564Y892836D01*
X1070653Y892559D01*
X1070693Y892271D01*
X1071100Y891109D01*
X1071248Y890858D01*
X1071352Y890586D01*
X1072007Y889543D01*
X1072207Y889332D01*
X1072369Y889090D01*
X1073239Y888219D01*
X1073482Y888057D01*
X1073693Y887857D01*
X1074736Y887202D01*
X1075008Y887098D01*
X1075258Y886950D01*
X1076421Y886544D01*
X1076709Y886503D01*
X1076986Y886414D01*
X1078210Y886277D01*
X1078356Y886289D01*
X1078500Y886260D01*
X1207500D01*
X1207644Y886289D01*
X1207790Y886277D01*
X1209014Y886414D01*
X1209291Y886503D01*
X1209579Y886544D01*
X1210742Y886950D01*
X1210992Y887098D01*
X1211264Y887202D01*
X1212307Y887857D01*
X1212518Y888057D01*
X1212760Y888219D01*
X1213631Y889090D01*
X1213793Y889332D01*
X1213993Y889543D01*
X1214648Y890586D01*
X1214752Y890858D01*
X1214900Y891108D01*
X1215306Y892271D01*
X1215347Y892559D01*
X1215436Y892836D01*
X1215573Y894060D01*
X1215561Y894206D01*
X1215590Y894350D01*
Y1023350D01*
X1215561Y1023494D01*
X1215573Y1023640D01*
X1215436Y1024864D01*
X1215347Y1025141D01*
X1215306Y1025430D01*
X1214900Y1026592D01*
X1214752Y1026842D01*
X1214648Y1027114D01*
X1213993Y1028157D01*
X1213793Y1028369D01*
X1213631Y1028611D01*
X1212760Y1029482D01*
X1212518Y1029643D01*
X1212307Y1029843D01*
X1211264Y1030498D01*
X1210992Y1030602D01*
X1210742Y1030750D01*
X1209579Y1031157D01*
X1209291Y1031197D01*
X1209014Y1031286D01*
X1207790Y1031424D01*
X1207644Y1031411D01*
X1207500Y1031440D01*
D02*
G37*
G36*
X1017000D02*
X888000Y1031440D01*
X887856Y1031411D01*
X887710Y1031423D01*
X886486Y1031286D01*
X886209Y1031197D01*
X885921Y1031157D01*
X884758Y1030750D01*
X884508Y1030602D01*
X884236Y1030498D01*
X883193Y1029843D01*
X882981Y1029643D01*
X882739Y1029481D01*
X881869Y1028610D01*
X881707Y1028369D01*
X881507Y1028157D01*
X880852Y1027114D01*
X880748Y1026842D01*
X880600Y1026592D01*
X880193Y1025429D01*
X880153Y1025141D01*
X880064Y1024864D01*
X879927Y1023640D01*
X879939Y1023494D01*
X879910Y1023350D01*
Y894350D01*
X879939Y894206D01*
X879927Y894060D01*
X880064Y892836D01*
X880153Y892559D01*
X880193Y892271D01*
X880600Y891108D01*
X880748Y890858D01*
X880852Y890586D01*
X881507Y889543D01*
X881707Y889332D01*
X881869Y889090D01*
X882739Y888219D01*
X882981Y888057D01*
X883193Y887857D01*
X884236Y887202D01*
X884508Y887098D01*
X884758Y886950D01*
X885921Y886544D01*
X886209Y886503D01*
X886486Y886415D01*
X887710Y886277D01*
X887856Y886289D01*
X888000Y886260D01*
X1017000Y886260D01*
X1017144Y886289D01*
X1017290Y886277D01*
X1018514Y886414D01*
X1018791Y886503D01*
X1019079Y886544D01*
X1020242Y886950D01*
X1020492Y887098D01*
X1020764Y887202D01*
X1021807Y887857D01*
X1022018Y888057D01*
X1022260Y888219D01*
X1023131Y889090D01*
X1023293Y889332D01*
X1023493Y889543D01*
X1024148Y890586D01*
X1024252Y890858D01*
X1024400Y891108D01*
X1024807Y892271D01*
X1024847Y892559D01*
X1024936Y892836D01*
X1025073Y894060D01*
X1025061Y894206D01*
X1025090Y894350D01*
Y1023350D01*
X1025061Y1023494D01*
X1025073Y1023640D01*
X1024936Y1024864D01*
X1024847Y1025141D01*
X1024807Y1025430D01*
X1024400Y1026592D01*
X1024252Y1026842D01*
X1024148Y1027114D01*
X1023493Y1028157D01*
X1023293Y1028369D01*
X1023131Y1028611D01*
X1022260Y1029482D01*
X1022018Y1029643D01*
X1021807Y1029843D01*
X1020764Y1030498D01*
X1020492Y1030602D01*
X1020241Y1030750D01*
X1019079Y1031157D01*
X1018791Y1031197D01*
X1018514Y1031286D01*
X1017290Y1031424D01*
X1017144Y1031411D01*
X1017000Y1031440D01*
D02*
G37*
G36*
X826500Y1031440D02*
X697500D01*
X697356Y1031411D01*
X697210Y1031423D01*
X695986Y1031286D01*
X695709Y1031197D01*
X695421Y1031157D01*
X694258Y1030750D01*
X694008Y1030602D01*
X693736Y1030498D01*
X692693Y1029843D01*
X692482Y1029643D01*
X692240Y1029481D01*
X691369Y1028610D01*
X691207Y1028369D01*
X691007Y1028157D01*
X690352Y1027114D01*
X690248Y1026842D01*
X690100Y1026592D01*
X689694Y1025429D01*
X689653Y1025141D01*
X689564Y1024864D01*
X689426Y1023640D01*
X689439Y1023494D01*
X689410Y1023350D01*
Y894350D01*
X689439Y894206D01*
X689426Y894060D01*
X689564Y892836D01*
X689653Y892559D01*
X689694Y892271D01*
X690100Y891108D01*
X690248Y890858D01*
X690352Y890586D01*
X691007Y889543D01*
X691207Y889332D01*
X691369Y889090D01*
X692240Y888219D01*
X692482Y888057D01*
X692693Y887857D01*
X693736Y887202D01*
X694008Y887098D01*
X694258Y886950D01*
X695421Y886544D01*
X695709Y886503D01*
X695986Y886415D01*
X697210Y886277D01*
X697356Y886289D01*
X697500Y886260D01*
X826500D01*
X826644Y886289D01*
X826790Y886277D01*
X828014Y886415D01*
X828291Y886503D01*
X828579Y886544D01*
X829742Y886950D01*
X829992Y887098D01*
X830264Y887202D01*
X831307Y887857D01*
X831518Y888057D01*
X831760Y888219D01*
X832631Y889090D01*
X832793Y889332D01*
X832993Y889543D01*
X833648Y890586D01*
X833752Y890858D01*
X833900Y891108D01*
X834306Y892271D01*
X834347Y892559D01*
X834436Y892836D01*
X834574Y894060D01*
X834561Y894206D01*
X834590Y894350D01*
Y1023350D01*
X834561Y1023494D01*
X834574Y1023640D01*
X834436Y1024864D01*
X834347Y1025141D01*
X834306Y1025429D01*
X833900Y1026592D01*
X833752Y1026842D01*
X833648Y1027114D01*
X832993Y1028157D01*
X832793Y1028369D01*
X832631Y1028610D01*
X831760Y1029481D01*
X831518Y1029643D01*
X831307Y1029843D01*
X830264Y1030498D01*
X829992Y1030602D01*
X829742Y1030750D01*
X828579Y1031157D01*
X828291Y1031197D01*
X828014Y1031286D01*
X826790Y1031423D01*
X826644Y1031411D01*
X826500Y1031440D01*
D02*
G37*
G36*
X636000D02*
X507000D01*
X506856Y1031411D01*
X506710Y1031423D01*
X505486Y1031286D01*
X505209Y1031197D01*
X504921Y1031157D01*
X503758Y1030750D01*
X503508Y1030602D01*
X503236Y1030498D01*
X502193Y1029843D01*
X501982Y1029643D01*
X501740Y1029481D01*
X500869Y1028611D01*
X500707Y1028369D01*
X500507Y1028157D01*
X499852Y1027114D01*
X499748Y1026842D01*
X499600Y1026592D01*
X499193Y1025429D01*
X499153Y1025141D01*
X499064Y1024864D01*
X498927Y1023640D01*
X498939Y1023494D01*
X498910Y1023350D01*
Y894350D01*
X498939Y894206D01*
X498927Y894060D01*
X499064Y892836D01*
X499153Y892559D01*
X499193Y892271D01*
X499600Y891108D01*
X499748Y890858D01*
X499852Y890586D01*
X500507Y889543D01*
X500707Y889332D01*
X500869Y889090D01*
X501740Y888219D01*
X501982Y888057D01*
X502193Y887857D01*
X503236Y887202D01*
X503508Y887098D01*
X503758Y886950D01*
X504921Y886544D01*
X505209Y886503D01*
X505486Y886414D01*
X506710Y886277D01*
X506856Y886289D01*
X507000Y886260D01*
X636000D01*
X636144Y886289D01*
X636290Y886277D01*
X637514Y886414D01*
X637791Y886503D01*
X638079Y886544D01*
X639242Y886950D01*
X639492Y887098D01*
X639764Y887202D01*
X640807Y887857D01*
X641019Y888057D01*
X641260Y888219D01*
X642131Y889090D01*
X642293Y889332D01*
X642493Y889543D01*
X643148Y890586D01*
X643252Y890858D01*
X643400Y891108D01*
X643807Y892271D01*
X643847Y892559D01*
X643936Y892836D01*
X644073Y894060D01*
X644061Y894206D01*
X644090Y894350D01*
Y1023350D01*
X644061Y1023494D01*
X644073Y1023640D01*
X643936Y1024864D01*
X643847Y1025141D01*
X643807Y1025429D01*
X643400Y1026592D01*
X643252Y1026842D01*
X643148Y1027114D01*
X642493Y1028157D01*
X642293Y1028369D01*
X642131Y1028611D01*
X641260Y1029481D01*
X641018Y1029643D01*
X640807Y1029843D01*
X639764Y1030498D01*
X639492Y1030602D01*
X639242Y1030750D01*
X638079Y1031157D01*
X637791Y1031197D01*
X637514Y1031286D01*
X636290Y1031423D01*
X636144Y1031411D01*
X636000Y1031440D01*
D02*
G37*
G36*
X445500D02*
X316500D01*
X316356Y1031411D01*
X316210Y1031423D01*
X314986Y1031286D01*
X314709Y1031197D01*
X314421Y1031157D01*
X313258Y1030750D01*
X313008Y1030602D01*
X312736Y1030498D01*
X311693Y1029843D01*
X311481Y1029643D01*
X311240Y1029481D01*
X310369Y1028611D01*
X310207Y1028369D01*
X310007Y1028157D01*
X309352Y1027114D01*
X309248Y1026842D01*
X309100Y1026592D01*
X308693Y1025429D01*
X308653Y1025141D01*
X308564Y1024864D01*
X308426Y1023640D01*
X308439Y1023494D01*
X308410Y1023350D01*
X308410Y894350D01*
X308439Y894206D01*
X308427Y894060D01*
X308564Y892836D01*
X308653Y892559D01*
X308693Y892271D01*
X309100Y891108D01*
X309248Y890858D01*
X309352Y890586D01*
X310007Y889543D01*
X310207Y889332D01*
X310369Y889090D01*
X311240Y888219D01*
X311482Y888057D01*
X311693Y887857D01*
X312736Y887202D01*
X313008Y887098D01*
X313258Y886950D01*
X314421Y886544D01*
X314709Y886503D01*
X314986Y886414D01*
X316210Y886277D01*
X316356Y886289D01*
X316500Y886260D01*
X445500D01*
X445644Y886289D01*
X445790Y886277D01*
X447014Y886414D01*
X447291Y886503D01*
X447579Y886544D01*
X448742Y886950D01*
X448992Y887098D01*
X449264Y887202D01*
X450307Y887857D01*
X450518Y888057D01*
X450760Y888219D01*
X451631Y889090D01*
X451793Y889332D01*
X451993Y889543D01*
X452648Y890586D01*
X452752Y890858D01*
X452900Y891108D01*
X453307Y892271D01*
X453347Y892559D01*
X453436Y892836D01*
X453573Y894060D01*
X453561Y894206D01*
X453590Y894350D01*
Y1023350D01*
X453561Y1023494D01*
X453573Y1023640D01*
X453436Y1024864D01*
X453347Y1025141D01*
X453307Y1025429D01*
X452900Y1026592D01*
X452752Y1026842D01*
X452648Y1027114D01*
X451993Y1028157D01*
X451793Y1028369D01*
X451631Y1028611D01*
X450760Y1029481D01*
X450518Y1029643D01*
X450307Y1029843D01*
X449264Y1030498D01*
X448992Y1030602D01*
X448742Y1030750D01*
X447579Y1031157D01*
X447291Y1031197D01*
X447014Y1031286D01*
X445790Y1031423D01*
X445644Y1031411D01*
X445500Y1031440D01*
D02*
G37*
G36*
X207375D02*
X78375D01*
X78231Y1031411D01*
X78085Y1031423D01*
X76861Y1031286D01*
X76584Y1031197D01*
X76296Y1031157D01*
X75133Y1030750D01*
X74883Y1030602D01*
X74611Y1030498D01*
X73568Y1029843D01*
X73356Y1029643D01*
X73115Y1029481D01*
X72244Y1028611D01*
X72082Y1028369D01*
X71882Y1028157D01*
X71227Y1027114D01*
X71123Y1026842D01*
X70975Y1026592D01*
X70568Y1025429D01*
X70528Y1025141D01*
X70439Y1024864D01*
X70301Y1023640D01*
X70314Y1023494D01*
X70285Y1023350D01*
X70285Y894350D01*
X70314Y894206D01*
X70302Y894060D01*
X70439Y892836D01*
X70528Y892559D01*
X70568Y892271D01*
X70975Y891108D01*
X71123Y890858D01*
X71227Y890586D01*
X71882Y889543D01*
X72082Y889332D01*
X72244Y889090D01*
X73115Y888219D01*
X73357Y888057D01*
X73568Y887857D01*
X74611Y887202D01*
X74883Y887098D01*
X75133Y886950D01*
X76296Y886544D01*
X76584Y886503D01*
X76861Y886414D01*
X78085Y886277D01*
X78231Y886289D01*
X78375Y886260D01*
X207375D01*
X207519Y886289D01*
X207665Y886277D01*
X208889Y886414D01*
X209166Y886503D01*
X209454Y886544D01*
X210617Y886950D01*
X210867Y887098D01*
X211139Y887202D01*
X212182Y887857D01*
X212393Y888057D01*
X212635Y888219D01*
X213506Y889090D01*
X213668Y889332D01*
X213868Y889543D01*
X214523Y890586D01*
X214627Y890858D01*
X214775Y891108D01*
X215182Y892271D01*
X215222Y892559D01*
X215311Y892836D01*
X215448Y894060D01*
X215436Y894206D01*
X215465Y894350D01*
X215465Y1023350D01*
X215436Y1023494D01*
X215448Y1023640D01*
X215310Y1024864D01*
X215222Y1025141D01*
X215182Y1025429D01*
X214775Y1026592D01*
X214627Y1026842D01*
X214523Y1027114D01*
X213868Y1028157D01*
X213668Y1028369D01*
X213506Y1028611D01*
X212635Y1029481D01*
X212393Y1029643D01*
X212182Y1029843D01*
X211139Y1030498D01*
X210867Y1030602D01*
X210617Y1030750D01*
X209454Y1031157D01*
X209166Y1031197D01*
X208889Y1031286D01*
X207665Y1031423D01*
X207519Y1031411D01*
X207375Y1031440D01*
D02*
G37*
G36*
X2787938Y1021503D02*
X2658937D01*
X2658794Y1021474D01*
X2658647Y1021486D01*
X2656311Y1021223D01*
X2656034Y1021135D01*
X2655746Y1021094D01*
X2653526Y1020317D01*
X2653276Y1020170D01*
X2653004Y1020066D01*
X2651013Y1018815D01*
X2650801Y1018615D01*
X2650559Y1018453D01*
X2648897Y1016791D01*
X2648735Y1016549D01*
X2648535Y1016337D01*
X2647285Y1014346D01*
X2647181Y1014074D01*
X2647033Y1013824D01*
X2646256Y1011605D01*
X2646216Y1011316D01*
X2646127Y1011039D01*
X2645864Y1008703D01*
X2645876Y1008557D01*
X2645848Y1008413D01*
Y956913D01*
X2645876Y956769D01*
X2645864Y956623D01*
X2646127Y954286D01*
X2646216Y954009D01*
X2646256Y953721D01*
X2647033Y951502D01*
X2647181Y951251D01*
X2647285Y950979D01*
X2648535Y948988D01*
X2648735Y948777D01*
X2648897Y948535D01*
X2650559Y946872D01*
X2650801Y946711D01*
X2651013Y946511D01*
X2653004Y945260D01*
X2653276Y945156D01*
X2653526Y945008D01*
X2655746Y944232D01*
X2656034Y944191D01*
X2656311Y944102D01*
X2658647Y943839D01*
X2658794Y943852D01*
X2658937Y943823D01*
X2787938D01*
X2788081Y943852D01*
X2788228Y943839D01*
X2790564Y944102D01*
X2790841Y944191D01*
X2791129Y944232D01*
X2793349Y945008D01*
X2793600Y945156D01*
X2793871Y945260D01*
X2795862Y946511D01*
X2796073Y946711D01*
X2796315Y946872D01*
X2797978Y948535D01*
X2798140Y948777D01*
X2798339Y948988D01*
X2799590Y950979D01*
X2799694Y951251D01*
X2799842Y951502D01*
X2800619Y953721D01*
X2800659Y954009D01*
X2800748Y954286D01*
X2801011Y956623D01*
X2800999Y956769D01*
X2801027Y956913D01*
Y1008413D01*
X2800999Y1008557D01*
X2801011Y1008703D01*
X2800748Y1011039D01*
X2800659Y1011316D01*
X2800619Y1011604D01*
X2799842Y1013824D01*
X2799694Y1014074D01*
X2799590Y1014346D01*
X2798339Y1016337D01*
X2798140Y1016549D01*
X2797978Y1016791D01*
X2796315Y1018453D01*
X2796073Y1018615D01*
X2795862Y1018815D01*
X2793871Y1020066D01*
X2793599Y1020170D01*
X2793349Y1020317D01*
X2791129Y1021094D01*
X2790841Y1021135D01*
X2790564Y1021223D01*
X2788228Y1021486D01*
X2788081Y1021474D01*
X2787938Y1021503D01*
D02*
G37*
G36*
X2802938Y936190D02*
X2673937D01*
X2673794Y936161D01*
X2673647Y936174D01*
X2672424Y936036D01*
X2672146Y935947D01*
X2671858Y935907D01*
X2670696Y935500D01*
X2670445Y935352D01*
X2670173Y935248D01*
X2669130Y934593D01*
X2668919Y934393D01*
X2668677Y934232D01*
X2667806Y933361D01*
X2667644Y933119D01*
X2667444Y932907D01*
X2666789Y931864D01*
X2666685Y931592D01*
X2666538Y931342D01*
X2666131Y930180D01*
X2666090Y929891D01*
X2666002Y929614D01*
X2665864Y928390D01*
X2665876Y928244D01*
X2665848Y928100D01*
Y799100D01*
X2665876Y798956D01*
X2665864Y798810D01*
X2666002Y797586D01*
X2666090Y797309D01*
X2666131Y797021D01*
X2666538Y795859D01*
X2666685Y795608D01*
X2666789Y795336D01*
X2667444Y794293D01*
X2667644Y794082D01*
X2667806Y793840D01*
X2668677Y792969D01*
X2668919Y792807D01*
X2669130Y792607D01*
X2670173Y791952D01*
X2670445Y791848D01*
X2670696Y791701D01*
X2671858Y791294D01*
X2672146Y791253D01*
X2672424Y791165D01*
X2673647Y791027D01*
X2673794Y791039D01*
X2673937Y791011D01*
X2802938D01*
X2803081Y791039D01*
X2803228Y791027D01*
X2804451Y791165D01*
X2804729Y791253D01*
X2805017Y791294D01*
X2806179Y791701D01*
X2806430Y791848D01*
X2806701Y791952D01*
X2807744Y792607D01*
X2807956Y792807D01*
X2808198Y792969D01*
X2809069Y793840D01*
X2809230Y794082D01*
X2809430Y794293D01*
X2810085Y795336D01*
X2810190Y795608D01*
X2810337Y795859D01*
X2810744Y797021D01*
X2810785Y797309D01*
X2810873Y797586D01*
X2811011Y798810D01*
X2810999Y798956D01*
X2811027Y799100D01*
Y928100D01*
X2810999Y928244D01*
X2811011Y928390D01*
X2810873Y929614D01*
X2810785Y929891D01*
X2810744Y930180D01*
X2810337Y931342D01*
X2810189Y931593D01*
X2810085Y931865D01*
X2809430Y932907D01*
X2809230Y933119D01*
X2809069Y933361D01*
X2808198Y934231D01*
X2807956Y934393D01*
X2807744Y934593D01*
X2806701Y935248D01*
X2806430Y935352D01*
X2806179Y935500D01*
X2805017Y935907D01*
X2804729Y935947D01*
X2804451Y936036D01*
X2803228Y936174D01*
X2803081Y936161D01*
X2802938Y936190D01*
D02*
G37*
G36*
X3017250Y840940D02*
X2888250Y840940D01*
X2888106Y840911D01*
X2887960Y840924D01*
X2886736Y840786D01*
X2886459Y840697D01*
X2886171Y840657D01*
X2885008Y840250D01*
X2884758Y840102D01*
X2884486Y839998D01*
X2883443Y839343D01*
X2883232Y839143D01*
X2882990Y838982D01*
X2882119Y838111D01*
X2881957Y837869D01*
X2881757Y837657D01*
X2881102Y836615D01*
X2880998Y836343D01*
X2880850Y836092D01*
X2880443Y834930D01*
X2880403Y834641D01*
X2880314Y834364D01*
X2880176Y833140D01*
X2880189Y832994D01*
X2880160Y832850D01*
Y703850D01*
X2880189Y703706D01*
X2880177Y703560D01*
X2880315Y702336D01*
X2880403Y702059D01*
X2880443Y701771D01*
X2880850Y700609D01*
X2880998Y700358D01*
X2881102Y700086D01*
X2881757Y699043D01*
X2881957Y698832D01*
X2882119Y698590D01*
X2882990Y697719D01*
X2883232Y697557D01*
X2883443Y697357D01*
X2884486Y696702D01*
X2884758Y696598D01*
X2885009Y696451D01*
X2886171Y696044D01*
X2886459Y696003D01*
X2886736Y695915D01*
X2887960Y695777D01*
X2888106Y695789D01*
X2888250Y695760D01*
X3017250Y695760D01*
X3017394Y695789D01*
X3017540Y695777D01*
X3018764Y695915D01*
X3019041Y696003D01*
X3019329Y696044D01*
X3020492Y696451D01*
X3020742Y696598D01*
X3021014Y696702D01*
X3022057Y697357D01*
X3022268Y697557D01*
X3022510Y697719D01*
X3023381Y698590D01*
X3023543Y698832D01*
X3023743Y699043D01*
X3024398Y700086D01*
X3024502Y700358D01*
X3024650Y700609D01*
X3025056Y701771D01*
X3025097Y702059D01*
X3025186Y702337D01*
X3025323Y703561D01*
X3025311Y703707D01*
X3025340Y703850D01*
Y832850D01*
X3025311Y832994D01*
X3025323Y833140D01*
X3025186Y834364D01*
X3025097Y834641D01*
X3025056Y834929D01*
X3024650Y836092D01*
X3024502Y836342D01*
X3024398Y836615D01*
X3023743Y837657D01*
X3023543Y837869D01*
X3023381Y838111D01*
X3022510Y838982D01*
X3022268Y839143D01*
X3022057Y839343D01*
X3021014Y839998D01*
X3020742Y840102D01*
X3020492Y840250D01*
X3019329Y840657D01*
X3019041Y840697D01*
X3018764Y840786D01*
X3017540Y840924D01*
X3017394Y840911D01*
X3017250Y840940D01*
D02*
G37*
G36*
X2588625Y840940D02*
X2459625D01*
X2459481Y840911D01*
X2459335Y840924D01*
X2458111Y840786D01*
X2457834Y840697D01*
X2457546Y840657D01*
X2456383Y840250D01*
X2456133Y840102D01*
X2455861Y839998D01*
X2454818Y839343D01*
X2454607Y839143D01*
X2454365Y838982D01*
X2453494Y838111D01*
X2453332Y837869D01*
X2453132Y837657D01*
X2452477Y836615D01*
X2452373Y836343D01*
X2452225Y836092D01*
X2451818Y834930D01*
X2451778Y834641D01*
X2451689Y834364D01*
X2451552Y833140D01*
X2451564Y832994D01*
X2451535Y832850D01*
Y703850D01*
X2451564Y703706D01*
X2451552Y703560D01*
X2451690Y702336D01*
X2451778Y702059D01*
X2451819Y701771D01*
X2452225Y700609D01*
X2452373Y700358D01*
X2452477Y700086D01*
X2453132Y699043D01*
X2453332Y698832D01*
X2453494Y698590D01*
X2454365Y697719D01*
X2454607Y697557D01*
X2454818Y697357D01*
X2455861Y696702D01*
X2456133Y696598D01*
X2456383Y696451D01*
X2457546Y696044D01*
X2457834Y696003D01*
X2458111Y695915D01*
X2459335Y695777D01*
X2459481Y695789D01*
X2459625Y695760D01*
X2588625D01*
X2588769Y695789D01*
X2588915Y695777D01*
X2590139Y695915D01*
X2590416Y696003D01*
X2590704Y696044D01*
X2591867Y696451D01*
X2592117Y696598D01*
X2592389Y696702D01*
X2593432Y697357D01*
X2593643Y697557D01*
X2593885Y697719D01*
X2594756Y698590D01*
X2594918Y698832D01*
X2595118Y699043D01*
X2595773Y700086D01*
X2595877Y700358D01*
X2596025Y700609D01*
X2596432Y701771D01*
X2596472Y702059D01*
X2596561Y702337D01*
X2596699Y703561D01*
X2596686Y703707D01*
X2596715Y703850D01*
Y832850D01*
X2596686Y832994D01*
X2596698Y833140D01*
X2596560Y834364D01*
X2596472Y834641D01*
X2596432Y834929D01*
X2596025Y836092D01*
X2595877Y836342D01*
X2595773Y836615D01*
X2595118Y837657D01*
X2594918Y837869D01*
X2594756Y838111D01*
X2593885Y838982D01*
X2593643Y839143D01*
X2593432Y839343D01*
X2592389Y839998D01*
X2592117Y840102D01*
X2591866Y840250D01*
X2590704Y840657D01*
X2590416Y840697D01*
X2590139Y840786D01*
X2588915Y840924D01*
X2588769Y840911D01*
X2588625Y840940D01*
D02*
G37*
G36*
X2398125D02*
X2269125Y840940D01*
X2268981Y840911D01*
X2268835Y840924D01*
X2267611Y840786D01*
X2267334Y840697D01*
X2267046Y840657D01*
X2265883Y840250D01*
X2265633Y840102D01*
X2265361Y839998D01*
X2264318Y839343D01*
X2264107Y839143D01*
X2263865Y838982D01*
X2262994Y838111D01*
X2262832Y837869D01*
X2262632Y837657D01*
X2261977Y836615D01*
X2261873Y836343D01*
X2261725Y836092D01*
X2261318Y834930D01*
X2261278Y834641D01*
X2261189Y834364D01*
X2261051Y833140D01*
X2261064Y832994D01*
X2261035Y832850D01*
Y703850D01*
X2261064Y703706D01*
X2261052Y703560D01*
X2261190Y702336D01*
X2261278Y702059D01*
X2261319Y701771D01*
X2261725Y700609D01*
X2261873Y700358D01*
X2261977Y700086D01*
X2262632Y699043D01*
X2262832Y698832D01*
X2262994Y698590D01*
X2263865Y697719D01*
X2264107Y697557D01*
X2264318Y697357D01*
X2265361Y696702D01*
X2265633Y696598D01*
X2265883Y696450D01*
X2267046Y696044D01*
X2267334Y696003D01*
X2267611Y695915D01*
X2268835Y695777D01*
X2268981Y695789D01*
X2269125Y695760D01*
X2398125Y695760D01*
X2398269Y695789D01*
X2398415Y695777D01*
X2399639Y695915D01*
X2399916Y696003D01*
X2400204Y696044D01*
X2401367Y696451D01*
X2401617Y696598D01*
X2401889Y696702D01*
X2402932Y697357D01*
X2403143Y697557D01*
X2403385Y697719D01*
X2404256Y698590D01*
X2404418Y698832D01*
X2404618Y699043D01*
X2405273Y700086D01*
X2405377Y700358D01*
X2405525Y700609D01*
X2405932Y701771D01*
X2405972Y702059D01*
X2406061Y702337D01*
X2406198Y703561D01*
X2406186Y703707D01*
X2406215Y703850D01*
Y832850D01*
X2406186Y832994D01*
X2406198Y833140D01*
X2406060Y834364D01*
X2405972Y834641D01*
X2405932Y834929D01*
X2405525Y836092D01*
X2405377Y836342D01*
X2405273Y836615D01*
X2404618Y837657D01*
X2404418Y837869D01*
X2404256Y838111D01*
X2403385Y838982D01*
X2403143Y839143D01*
X2402932Y839343D01*
X2401889Y839998D01*
X2401617Y840102D01*
X2401367Y840250D01*
X2400204Y840657D01*
X2399916Y840697D01*
X2399639Y840786D01*
X2398415Y840924D01*
X2398269Y840911D01*
X2398125Y840940D01*
D02*
G37*
G36*
X2207625Y840940D02*
X2078625D01*
X2078481Y840911D01*
X2078335Y840924D01*
X2077111Y840786D01*
X2076834Y840697D01*
X2076546Y840657D01*
X2075383Y840250D01*
X2075133Y840102D01*
X2074861Y839998D01*
X2073818Y839343D01*
X2073607Y839143D01*
X2073365Y838982D01*
X2072494Y838111D01*
X2072332Y837869D01*
X2072132Y837657D01*
X2071477Y836614D01*
X2071373Y836343D01*
X2071225Y836092D01*
X2070818Y834930D01*
X2070778Y834641D01*
X2070689Y834364D01*
X2070551Y833140D01*
X2070564Y832994D01*
X2070535Y832850D01*
Y703850D01*
X2070564Y703706D01*
X2070552Y703560D01*
X2070690Y702336D01*
X2070778Y702059D01*
X2070818Y701771D01*
X2071225Y700609D01*
X2071373Y700358D01*
X2071477Y700086D01*
X2072132Y699043D01*
X2072332Y698832D01*
X2072494Y698590D01*
X2073365Y697719D01*
X2073607Y697557D01*
X2073818Y697357D01*
X2074861Y696702D01*
X2075133Y696598D01*
X2075383Y696450D01*
X2076546Y696044D01*
X2076834Y696003D01*
X2077111Y695915D01*
X2078335Y695777D01*
X2078481Y695789D01*
X2078625Y695760D01*
X2207625D01*
X2207769Y695789D01*
X2207915Y695777D01*
X2209139Y695915D01*
X2209416Y696003D01*
X2209704Y696044D01*
X2210867Y696450D01*
X2211117Y696598D01*
X2211389Y696702D01*
X2212432Y697357D01*
X2212643Y697557D01*
X2212885Y697719D01*
X2213756Y698590D01*
X2213918Y698832D01*
X2214118Y699043D01*
X2214773Y700086D01*
X2214877Y700358D01*
X2215025Y700608D01*
X2215432Y701771D01*
X2215472Y702059D01*
X2215561Y702337D01*
X2215699Y703560D01*
X2215686Y703707D01*
X2215715Y703850D01*
Y832850D01*
X2215686Y832994D01*
X2215698Y833140D01*
X2215560Y834364D01*
X2215472Y834641D01*
X2215432Y834929D01*
X2215025Y836092D01*
X2214877Y836342D01*
X2214773Y836615D01*
X2214118Y837657D01*
X2213918Y837869D01*
X2213756Y838111D01*
X2212885Y838982D01*
X2212643Y839143D01*
X2212432Y839343D01*
X2211389Y839998D01*
X2211117Y840102D01*
X2210867Y840250D01*
X2209704Y840657D01*
X2209416Y840697D01*
X2209139Y840786D01*
X2207915Y840924D01*
X2207769Y840911D01*
X2207625Y840940D01*
D02*
G37*
G36*
X2017125D02*
X1888125D01*
X1887981Y840911D01*
X1887835Y840924D01*
X1886611Y840786D01*
X1886334Y840697D01*
X1886046Y840657D01*
X1884883Y840250D01*
X1884633Y840102D01*
X1884361Y839998D01*
X1883318Y839343D01*
X1883107Y839143D01*
X1882865Y838982D01*
X1881994Y838111D01*
X1881832Y837869D01*
X1881632Y837657D01*
X1880977Y836614D01*
X1880873Y836343D01*
X1880725Y836092D01*
X1880318Y834930D01*
X1880278Y834641D01*
X1880189Y834364D01*
X1880052Y833140D01*
X1880064Y832994D01*
X1880035Y832850D01*
Y703850D01*
X1880064Y703707D01*
X1880052Y703560D01*
X1880189Y702337D01*
X1880278Y702059D01*
X1880318Y701771D01*
X1880725Y700608D01*
X1880873Y700358D01*
X1880977Y700086D01*
X1881632Y699043D01*
X1881832Y698832D01*
X1881994Y698590D01*
X1882865Y697719D01*
X1883107Y697557D01*
X1883318Y697357D01*
X1884361Y696702D01*
X1884633Y696598D01*
X1884883Y696450D01*
X1886046Y696044D01*
X1886334Y696003D01*
X1886611Y695915D01*
X1887835Y695777D01*
X1887981Y695789D01*
X1888125Y695760D01*
X2017125D01*
X2017269Y695789D01*
X2017415Y695777D01*
X2018639Y695915D01*
X2018916Y696003D01*
X2019204Y696044D01*
X2020367Y696450D01*
X2020617Y696598D01*
X2020889Y696702D01*
X2021932Y697357D01*
X2022143Y697557D01*
X2022385Y697719D01*
X2023256Y698590D01*
X2023418Y698832D01*
X2023618Y699043D01*
X2024273Y700086D01*
X2024377Y700358D01*
X2024525Y700608D01*
X2024932Y701771D01*
X2024972Y702059D01*
X2025061Y702337D01*
X2025199Y703560D01*
X2025186Y703707D01*
X2025215Y703850D01*
Y832850D01*
X2025186Y832994D01*
X2025198Y833140D01*
X2025060Y834364D01*
X2024972Y834641D01*
X2024931Y834929D01*
X2024525Y836092D01*
X2024377Y836342D01*
X2024273Y836614D01*
X2023618Y837657D01*
X2023418Y837869D01*
X2023256Y838111D01*
X2022385Y838982D01*
X2022143Y839143D01*
X2021932Y839343D01*
X2020889Y839998D01*
X2020617Y840102D01*
X2020367Y840250D01*
X2019204Y840657D01*
X2018916Y840697D01*
X2018639Y840786D01*
X2017415Y840924D01*
X2017269Y840911D01*
X2017125Y840940D01*
D02*
G37*
G36*
X1826625D02*
X1697625Y840940D01*
X1697481Y840911D01*
X1697335Y840924D01*
X1696111Y840786D01*
X1695834Y840697D01*
X1695546Y840657D01*
X1694383Y840250D01*
X1694133Y840102D01*
X1693861Y839998D01*
X1692818Y839343D01*
X1692607Y839143D01*
X1692365Y838981D01*
X1691494Y838111D01*
X1691332Y837869D01*
X1691132Y837657D01*
X1690477Y836615D01*
X1690373Y836342D01*
X1690225Y836092D01*
X1689818Y834929D01*
X1689778Y834641D01*
X1689689Y834364D01*
X1689552Y833140D01*
X1689564Y832994D01*
X1689535Y832850D01*
X1689535Y703850D01*
X1689564Y703706D01*
X1689552Y703560D01*
X1689689Y702336D01*
X1689778Y702059D01*
X1689819Y701771D01*
X1690225Y700608D01*
X1690373Y700358D01*
X1690477Y700086D01*
X1691132Y699043D01*
X1691332Y698832D01*
X1691494Y698590D01*
X1692365Y697719D01*
X1692607Y697557D01*
X1692818Y697357D01*
X1693861Y696702D01*
X1694133Y696598D01*
X1694383Y696450D01*
X1695546Y696044D01*
X1695834Y696003D01*
X1696111Y695915D01*
X1697335Y695777D01*
X1697481Y695789D01*
X1697625Y695760D01*
X1826625Y695760D01*
X1826769Y695789D01*
X1826915Y695777D01*
X1828139Y695915D01*
X1828416Y696003D01*
X1828704Y696044D01*
X1829867Y696450D01*
X1830117Y696598D01*
X1830389Y696702D01*
X1831432Y697357D01*
X1831643Y697557D01*
X1831885Y697719D01*
X1832756Y698590D01*
X1832918Y698832D01*
X1833118Y699043D01*
X1833773Y700086D01*
X1833877Y700358D01*
X1834025Y700608D01*
X1834432Y701771D01*
X1834472Y702059D01*
X1834561Y702337D01*
X1834698Y703560D01*
X1834686Y703707D01*
X1834715Y703850D01*
Y832850D01*
X1834686Y832994D01*
X1834698Y833140D01*
X1834561Y834364D01*
X1834472Y834641D01*
X1834432Y834930D01*
X1834025Y836092D01*
X1833877Y836342D01*
X1833773Y836614D01*
X1833118Y837657D01*
X1832918Y837869D01*
X1832756Y838111D01*
X1831885Y838982D01*
X1831643Y839143D01*
X1831432Y839343D01*
X1830389Y839998D01*
X1830117Y840102D01*
X1829867Y840250D01*
X1828704Y840657D01*
X1828416Y840697D01*
X1828139Y840786D01*
X1826915Y840924D01*
X1826769Y840911D01*
X1826625Y840940D01*
D02*
G37*
G36*
X1636125Y840940D02*
X1507125D01*
X1506981Y840911D01*
X1506835Y840924D01*
X1505611Y840786D01*
X1505334Y840697D01*
X1505046Y840657D01*
X1503883Y840250D01*
X1503633Y840102D01*
X1503361Y839998D01*
X1502318Y839343D01*
X1502106Y839143D01*
X1501864Y838981D01*
X1500994Y838111D01*
X1500832Y837869D01*
X1500632Y837657D01*
X1499977Y836614D01*
X1499873Y836342D01*
X1499725Y836092D01*
X1499318Y834929D01*
X1499278Y834641D01*
X1499189Y834364D01*
X1499052Y833140D01*
X1499064Y832994D01*
X1499035Y832850D01*
X1499035Y703850D01*
X1499064Y703706D01*
X1499052Y703560D01*
X1499189Y702336D01*
X1499278Y702059D01*
X1499319Y701771D01*
X1499725Y700608D01*
X1499873Y700358D01*
X1499977Y700086D01*
X1500632Y699043D01*
X1500832Y698832D01*
X1500994Y698590D01*
X1501865Y697719D01*
X1502107Y697557D01*
X1502318Y697357D01*
X1503361Y696702D01*
X1503633Y696598D01*
X1503883Y696450D01*
X1505046Y696044D01*
X1505334Y696003D01*
X1505611Y695915D01*
X1506835Y695777D01*
X1506981Y695789D01*
X1507125Y695760D01*
X1636125D01*
X1636269Y695789D01*
X1636415Y695777D01*
X1637639Y695915D01*
X1637916Y696003D01*
X1638204Y696044D01*
X1639367Y696450D01*
X1639617Y696598D01*
X1639889Y696702D01*
X1640932Y697357D01*
X1641143Y697557D01*
X1641385Y697719D01*
X1642256Y698590D01*
X1642418Y698832D01*
X1642618Y699043D01*
X1643273Y700086D01*
X1643377Y700358D01*
X1643525Y700609D01*
X1643932Y701771D01*
X1643972Y702059D01*
X1644061Y702336D01*
X1644198Y703560D01*
X1644186Y703706D01*
X1644215Y703850D01*
X1644215Y832850D01*
X1644186Y832994D01*
X1644198Y833140D01*
X1644061Y834364D01*
X1643972Y834641D01*
X1643931Y834929D01*
X1643525Y836092D01*
X1643377Y836343D01*
X1643273Y836614D01*
X1642618Y837657D01*
X1642418Y837869D01*
X1642256Y838111D01*
X1641385Y838981D01*
X1641143Y839143D01*
X1640932Y839343D01*
X1639889Y839998D01*
X1639617Y840102D01*
X1639367Y840250D01*
X1638204Y840657D01*
X1637916Y840697D01*
X1637639Y840786D01*
X1636415Y840924D01*
X1636269Y840911D01*
X1636125Y840940D01*
D02*
G37*
G36*
X1445625D02*
X1316625D01*
X1316481Y840911D01*
X1316335Y840924D01*
X1315111Y840786D01*
X1314834Y840697D01*
X1314546Y840657D01*
X1313383Y840250D01*
X1313133Y840102D01*
X1312861Y839998D01*
X1311818Y839343D01*
X1311606Y839143D01*
X1311364Y838981D01*
X1310494Y838111D01*
X1310332Y837869D01*
X1310132Y837657D01*
X1309477Y836614D01*
X1309373Y836342D01*
X1309225Y836092D01*
X1308818Y834929D01*
X1308778Y834641D01*
X1308690Y834364D01*
X1308551Y833140D01*
X1308564Y832994D01*
X1308535Y832850D01*
X1308535Y703850D01*
X1308564Y703706D01*
X1308552Y703560D01*
X1308689Y702336D01*
X1308778Y702059D01*
X1308819Y701771D01*
X1309225Y700608D01*
X1309373Y700358D01*
X1309477Y700086D01*
X1310132Y699043D01*
X1310332Y698832D01*
X1310494Y698590D01*
X1311365Y697719D01*
X1311607Y697557D01*
X1311818Y697357D01*
X1312861Y696702D01*
X1313133Y696598D01*
X1313383Y696450D01*
X1314546Y696044D01*
X1314834Y696003D01*
X1315111Y695915D01*
X1316335Y695777D01*
X1316481Y695789D01*
X1316625Y695760D01*
X1445625D01*
X1445769Y695789D01*
X1445915Y695777D01*
X1447139Y695915D01*
X1447416Y696003D01*
X1447704Y696044D01*
X1448867Y696450D01*
X1449117Y696598D01*
X1449389Y696702D01*
X1450432Y697357D01*
X1450643Y697557D01*
X1450885Y697719D01*
X1451756Y698590D01*
X1451918Y698832D01*
X1452118Y699043D01*
X1452773Y700086D01*
X1452877Y700358D01*
X1453025Y700609D01*
X1453432Y701771D01*
X1453472Y702059D01*
X1453560Y702336D01*
X1453698Y703560D01*
X1453686Y703706D01*
X1453715Y703850D01*
X1453715Y832850D01*
X1453686Y832994D01*
X1453698Y833140D01*
X1453561Y834364D01*
X1453472Y834641D01*
X1453432Y834929D01*
X1453025Y836092D01*
X1452877Y836342D01*
X1452773Y836614D01*
X1452118Y837657D01*
X1451918Y837869D01*
X1451756Y838111D01*
X1450885Y838981D01*
X1450643Y839143D01*
X1450432Y839343D01*
X1449389Y839998D01*
X1449117Y840102D01*
X1448867Y840250D01*
X1447704Y840657D01*
X1447416Y840697D01*
X1447139Y840786D01*
X1445915Y840924D01*
X1445769Y840911D01*
X1445625Y840940D01*
D02*
G37*
G36*
X1255125D02*
X1126125Y840940D01*
X1125981Y840911D01*
X1125835Y840924D01*
X1124611Y840786D01*
X1124334Y840697D01*
X1124046Y840657D01*
X1122883Y840250D01*
X1122633Y840102D01*
X1122361Y839998D01*
X1121318Y839343D01*
X1121106Y839143D01*
X1120864Y838981D01*
X1119994Y838111D01*
X1119832Y837869D01*
X1119632Y837657D01*
X1118977Y836614D01*
X1118873Y836342D01*
X1118725Y836092D01*
X1118318Y834929D01*
X1118278Y834641D01*
X1118189Y834364D01*
X1118052Y833140D01*
X1118064Y832994D01*
X1118035Y832850D01*
X1118035Y703850D01*
X1118064Y703706D01*
X1118052Y703560D01*
X1118189Y702336D01*
X1118278Y702059D01*
X1118318Y701771D01*
X1118725Y700608D01*
X1118873Y700358D01*
X1118977Y700086D01*
X1119632Y699043D01*
X1119832Y698832D01*
X1119994Y698590D01*
X1120865Y697719D01*
X1121107Y697557D01*
X1121318Y697357D01*
X1122361Y696702D01*
X1122633Y696598D01*
X1122883Y696450D01*
X1124046Y696044D01*
X1124334Y696003D01*
X1124611Y695915D01*
X1125835Y695777D01*
X1125981Y695789D01*
X1126125Y695760D01*
X1255125Y695760D01*
X1255269Y695789D01*
X1255415Y695777D01*
X1256639Y695915D01*
X1256916Y696003D01*
X1257204Y696044D01*
X1258367Y696450D01*
X1258617Y696598D01*
X1258889Y696702D01*
X1259932Y697357D01*
X1260144Y697557D01*
X1260386Y697719D01*
X1261256Y698590D01*
X1261418Y698832D01*
X1261618Y699043D01*
X1262273Y700086D01*
X1262377Y700358D01*
X1262525Y700609D01*
X1262932Y701771D01*
X1262972Y702059D01*
X1263061Y702336D01*
X1263198Y703560D01*
X1263186Y703706D01*
X1263215Y703850D01*
X1263215Y832850D01*
X1263186Y832994D01*
X1263198Y833140D01*
X1263061Y834364D01*
X1262972Y834641D01*
X1262932Y834929D01*
X1262525Y836092D01*
X1262377Y836342D01*
X1262273Y836614D01*
X1261618Y837657D01*
X1261418Y837869D01*
X1261256Y838111D01*
X1260385Y838981D01*
X1260143Y839143D01*
X1259932Y839343D01*
X1258889Y839998D01*
X1258617Y840102D01*
X1258367Y840250D01*
X1257204Y840657D01*
X1256916Y840697D01*
X1256639Y840786D01*
X1255415Y840924D01*
X1255269Y840911D01*
X1255125Y840940D01*
D02*
G37*
G36*
X1064625Y840940D02*
X935625D01*
X935481Y840911D01*
X935335Y840924D01*
X934111Y840786D01*
X933834Y840697D01*
X933546Y840657D01*
X932383Y840250D01*
X932133Y840102D01*
X931861Y839998D01*
X930818Y839343D01*
X930607Y839143D01*
X930365Y838981D01*
X929494Y838111D01*
X929332Y837869D01*
X929132Y837657D01*
X928477Y836614D01*
X928373Y836342D01*
X928225Y836092D01*
X927818Y834929D01*
X927778Y834641D01*
X927690Y834364D01*
X927551Y833140D01*
X927564Y832994D01*
X927535Y832850D01*
X927535Y703850D01*
X927564Y703706D01*
X927552Y703560D01*
X927689Y702336D01*
X927778Y702059D01*
X927819Y701771D01*
X928225Y700608D01*
X928373Y700358D01*
X928477Y700086D01*
X929132Y699043D01*
X929332Y698832D01*
X929494Y698590D01*
X930365Y697719D01*
X930607Y697557D01*
X930818Y697357D01*
X931861Y696702D01*
X932133Y696598D01*
X932383Y696450D01*
X933546Y696043D01*
X933834Y696003D01*
X934111Y695915D01*
X935335Y695777D01*
X935481Y695789D01*
X935625Y695760D01*
X1064625D01*
X1064769Y695789D01*
X1064915Y695777D01*
X1066139Y695915D01*
X1066416Y696003D01*
X1066704Y696044D01*
X1067867Y696450D01*
X1068117Y696598D01*
X1068389Y696702D01*
X1069432Y697357D01*
X1069643Y697557D01*
X1069885Y697719D01*
X1070756Y698590D01*
X1070918Y698832D01*
X1071118Y699043D01*
X1071773Y700086D01*
X1071877Y700358D01*
X1072025Y700609D01*
X1072432Y701771D01*
X1072472Y702059D01*
X1072561Y702336D01*
X1072699Y703560D01*
X1072686Y703706D01*
X1072715Y703850D01*
X1072715Y832850D01*
X1072686Y832994D01*
X1072698Y833140D01*
X1072561Y834364D01*
X1072472Y834641D01*
X1072431Y834929D01*
X1072025Y836092D01*
X1071877Y836342D01*
X1071773Y836614D01*
X1071118Y837657D01*
X1070918Y837869D01*
X1070756Y838111D01*
X1069885Y838981D01*
X1069643Y839143D01*
X1069432Y839343D01*
X1068389Y839998D01*
X1068117Y840102D01*
X1067867Y840250D01*
X1066704Y840657D01*
X1066416Y840697D01*
X1066139Y840786D01*
X1064915Y840924D01*
X1064769Y840911D01*
X1064625Y840940D01*
D02*
G37*
G36*
X874125D02*
X745125D01*
X744981Y840911D01*
X744835Y840924D01*
X743611Y840786D01*
X743334Y840697D01*
X743046Y840657D01*
X741883Y840250D01*
X741633Y840102D01*
X741361Y839998D01*
X740318Y839343D01*
X740107Y839143D01*
X739865Y838981D01*
X738994Y838111D01*
X738832Y837869D01*
X738632Y837657D01*
X737977Y836614D01*
X737873Y836342D01*
X737725Y836092D01*
X737318Y834929D01*
X737278Y834641D01*
X737189Y834364D01*
X737051Y833140D01*
X737064Y832994D01*
X737035Y832850D01*
Y703850D01*
X737064Y703706D01*
X737051Y703560D01*
X737189Y702336D01*
X737278Y702059D01*
X737318Y701771D01*
X737725Y700608D01*
X737873Y700358D01*
X737977Y700086D01*
X738632Y699043D01*
X738832Y698832D01*
X738994Y698590D01*
X739865Y697719D01*
X740107Y697557D01*
X740318Y697357D01*
X741361Y696702D01*
X741633Y696598D01*
X741883Y696450D01*
X743046Y696044D01*
X743334Y696003D01*
X743611Y695915D01*
X744835Y695777D01*
X744981Y695789D01*
X745125Y695760D01*
X874125D01*
X874269Y695789D01*
X874415Y695777D01*
X875639Y695915D01*
X875916Y696003D01*
X876204Y696044D01*
X877367Y696450D01*
X877617Y696598D01*
X877889Y696702D01*
X878932Y697357D01*
X879144Y697557D01*
X879386Y697719D01*
X880256Y698590D01*
X880418Y698832D01*
X880618Y699043D01*
X881273Y700086D01*
X881377Y700358D01*
X881525Y700609D01*
X881932Y701771D01*
X881972Y702059D01*
X882060Y702336D01*
X882198Y703560D01*
X882186Y703706D01*
X882215Y703850D01*
X882215Y832850D01*
X882186Y832994D01*
X882198Y833140D01*
X882061Y834364D01*
X881972Y834641D01*
X881932Y834929D01*
X881525Y836092D01*
X881377Y836342D01*
X881273Y836614D01*
X880618Y837657D01*
X880418Y837868D01*
X880256Y838111D01*
X879385Y838981D01*
X879143Y839143D01*
X878932Y839343D01*
X877889Y839998D01*
X877617Y840102D01*
X877367Y840250D01*
X876204Y840657D01*
X875916Y840697D01*
X875639Y840786D01*
X874415Y840924D01*
X874269Y840911D01*
X874125Y840940D01*
D02*
G37*
G36*
X683625D02*
X554625Y840940D01*
X554481Y840911D01*
X554335Y840923D01*
X553111Y840786D01*
X552834Y840697D01*
X552546Y840657D01*
X551383Y840250D01*
X551133Y840102D01*
X550861Y839998D01*
X549818Y839343D01*
X549607Y839143D01*
X549365Y838981D01*
X548494Y838111D01*
X548332Y837869D01*
X548132Y837657D01*
X547477Y836614D01*
X547373Y836342D01*
X547225Y836092D01*
X546818Y834929D01*
X546778Y834641D01*
X546689Y834364D01*
X546552Y833140D01*
X546564Y832994D01*
X546535Y832850D01*
Y703850D01*
X546564Y703706D01*
X546552Y703560D01*
X546689Y702336D01*
X546778Y702059D01*
X546818Y701771D01*
X547225Y700609D01*
X547373Y700358D01*
X547477Y700086D01*
X548132Y699043D01*
X548332Y698831D01*
X548494Y698590D01*
X549365Y697719D01*
X549607Y697557D01*
X549818Y697357D01*
X550861Y696702D01*
X551133Y696598D01*
X551383Y696450D01*
X552546Y696043D01*
X552834Y696003D01*
X553111Y695915D01*
X554335Y695777D01*
X554481Y695789D01*
X554625Y695760D01*
X683625Y695760D01*
X683769Y695789D01*
X683915Y695777D01*
X685139Y695915D01*
X685416Y696003D01*
X685704Y696044D01*
X686867Y696450D01*
X687117Y696598D01*
X687389Y696702D01*
X688432Y697357D01*
X688643Y697557D01*
X688885Y697719D01*
X689756Y698590D01*
X689918Y698832D01*
X690118Y699043D01*
X690773Y700086D01*
X690877Y700358D01*
X691025Y700608D01*
X691432Y701771D01*
X691472Y702059D01*
X691561Y702336D01*
X691699Y703560D01*
X691686Y703706D01*
X691715Y703850D01*
Y832850D01*
X691686Y832994D01*
X691699Y833140D01*
X691561Y834364D01*
X691472Y834641D01*
X691432Y834929D01*
X691025Y836092D01*
X690877Y836342D01*
X690773Y836614D01*
X690118Y837657D01*
X689918Y837869D01*
X689756Y838111D01*
X688885Y838981D01*
X688643Y839143D01*
X688432Y839343D01*
X687389Y839998D01*
X687117Y840102D01*
X686867Y840250D01*
X685704Y840657D01*
X685416Y840697D01*
X685139Y840786D01*
X683915Y840924D01*
X683769Y840911D01*
X683625Y840940D01*
D02*
G37*
G36*
X493125Y840940D02*
X364125D01*
X363981Y840911D01*
X363835Y840923D01*
X362611Y840786D01*
X362334Y840697D01*
X362046Y840657D01*
X360883Y840250D01*
X360633Y840102D01*
X360361Y839998D01*
X359318Y839343D01*
X359107Y839143D01*
X358865Y838981D01*
X357994Y838111D01*
X357832Y837869D01*
X357632Y837657D01*
X356977Y836614D01*
X356873Y836342D01*
X356725Y836092D01*
X356318Y834929D01*
X356278Y834641D01*
X356189Y834364D01*
X356052Y833140D01*
X356064Y832994D01*
X356035Y832850D01*
Y703850D01*
X356064Y703706D01*
X356052Y703560D01*
X356189Y702336D01*
X356278Y702059D01*
X356318Y701771D01*
X356725Y700609D01*
X356873Y700358D01*
X356977Y700086D01*
X357632Y699043D01*
X357832Y698831D01*
X357994Y698590D01*
X358865Y697719D01*
X359107Y697557D01*
X359318Y697357D01*
X360361Y696702D01*
X360633Y696598D01*
X360883Y696450D01*
X362046Y696043D01*
X362334Y696003D01*
X362611Y695915D01*
X363835Y695777D01*
X363981Y695789D01*
X364125Y695760D01*
X493125D01*
X493269Y695789D01*
X493415Y695777D01*
X494639Y695915D01*
X494916Y696003D01*
X495204Y696043D01*
X496367Y696450D01*
X496617Y696598D01*
X496889Y696702D01*
X497932Y697357D01*
X498143Y697557D01*
X498385Y697719D01*
X499256Y698590D01*
X499418Y698831D01*
X499618Y699043D01*
X500273Y700086D01*
X500377Y700358D01*
X500525Y700609D01*
X500932Y701771D01*
X500972Y702059D01*
X501061Y702336D01*
X501198Y703560D01*
X501186Y703706D01*
X501215Y703850D01*
Y832850D01*
X501186Y832994D01*
X501198Y833140D01*
X501061Y834364D01*
X500972Y834641D01*
X500932Y834929D01*
X500525Y836092D01*
X500377Y836342D01*
X500273Y836614D01*
X499618Y837657D01*
X499418Y837869D01*
X499256Y838111D01*
X498385Y838981D01*
X498143Y839143D01*
X497932Y839343D01*
X496889Y839998D01*
X496617Y840102D01*
X496367Y840250D01*
X495204Y840657D01*
X494916Y840697D01*
X494639Y840786D01*
X493415Y840923D01*
X493269Y840911D01*
X493125Y840940D01*
D02*
G37*
G36*
X231187D02*
X54563Y840940D01*
X54419Y840911D01*
X54273Y840923D01*
X53049Y840786D01*
X52771Y840697D01*
X52483Y840657D01*
X51321Y840250D01*
X51070Y840102D01*
X50798Y839998D01*
X49756Y839343D01*
X49544Y839143D01*
X49302Y838981D01*
X48431Y838110D01*
X48270Y837868D01*
X48070Y837657D01*
X47414Y836614D01*
X47311Y836342D01*
X47163Y836092D01*
X46756Y834929D01*
X46715Y834641D01*
X46627Y834364D01*
X46489Y833140D01*
X46501Y832994D01*
X46473Y832850D01*
Y703850D01*
X46501Y703706D01*
X46489Y703560D01*
X46627Y702336D01*
X46715Y702059D01*
X46756Y701771D01*
X47163Y700608D01*
X47311Y700358D01*
X47414Y700086D01*
X48070Y699043D01*
X48269Y698832D01*
X48431Y698590D01*
X49302Y697719D01*
X49544Y697557D01*
X49756Y697357D01*
X50798Y696702D01*
X51070Y696598D01*
X51321Y696450D01*
X52483Y696043D01*
X52771Y696003D01*
X53049Y695914D01*
X54272Y695777D01*
X54419Y695789D01*
X54563Y695760D01*
X231187Y695760D01*
X231331Y695789D01*
X231477Y695777D01*
X232701Y695914D01*
X232979Y696003D01*
X233267Y696043D01*
X234429Y696450D01*
X234680Y696598D01*
X234952Y696702D01*
X235994Y697357D01*
X236206Y697557D01*
X236448Y697719D01*
X237319Y698590D01*
X237481Y698832D01*
X237680Y699043D01*
X238336Y700086D01*
X238439Y700358D01*
X238587Y700608D01*
X238994Y701771D01*
X239035Y702059D01*
X239123Y702336D01*
X239261Y703560D01*
X239249Y703706D01*
X239277Y703850D01*
Y832850D01*
X239249Y832994D01*
X239261Y833140D01*
X239123Y834364D01*
X239035Y834641D01*
X238994Y834929D01*
X238587Y836092D01*
X238439Y836342D01*
X238336Y836614D01*
X237680Y837657D01*
X237481Y837868D01*
X237319Y838110D01*
X236448Y838981D01*
X236206Y839143D01*
X235994Y839343D01*
X234952Y839998D01*
X234680Y840102D01*
X234429Y840250D01*
X233267Y840657D01*
X232979Y840697D01*
X232701Y840786D01*
X231478Y840923D01*
X231331Y840911D01*
X231187Y840940D01*
D02*
G37*
G36*
X2787938Y783378D02*
X2658937Y783378D01*
X2658794Y783349D01*
X2658647Y783361D01*
X2656311Y783098D01*
X2656034Y783010D01*
X2655746Y782969D01*
X2653526Y782192D01*
X2653276Y782045D01*
X2653004Y781941D01*
X2651013Y780690D01*
X2650801Y780490D01*
X2650559Y780328D01*
X2648897Y778666D01*
X2648735Y778424D01*
X2648535Y778212D01*
X2647285Y776221D01*
X2647181Y775949D01*
X2647033Y775699D01*
X2646256Y773480D01*
X2646216Y773191D01*
X2646127Y772914D01*
X2645864Y770578D01*
X2645876Y770432D01*
X2645848Y770288D01*
Y718788D01*
X2645876Y718644D01*
X2645864Y718498D01*
X2646127Y716161D01*
X2646216Y715884D01*
X2646256Y715596D01*
X2647033Y713377D01*
X2647181Y713126D01*
X2647285Y712854D01*
X2648535Y710863D01*
X2648735Y710652D01*
X2648897Y710410D01*
X2650560Y708747D01*
X2650802Y708586D01*
X2651013Y708386D01*
X2653004Y707135D01*
X2653276Y707031D01*
X2653526Y706883D01*
X2655746Y706107D01*
X2656034Y706066D01*
X2656311Y705977D01*
X2658648Y705714D01*
X2658794Y705727D01*
X2658938Y705698D01*
X2787938Y705698D01*
X2788081Y705727D01*
X2788228Y705714D01*
X2790564Y705978D01*
X2790841Y706066D01*
X2791129Y706107D01*
X2793349Y706883D01*
X2793599Y707031D01*
X2793871Y707135D01*
X2795862Y708386D01*
X2796074Y708586D01*
X2796316Y708747D01*
X2797978Y710410D01*
X2798140Y710652D01*
X2798340Y710863D01*
X2799590Y712854D01*
X2799694Y713126D01*
X2799842Y713377D01*
X2800619Y715596D01*
X2800659Y715884D01*
X2800748Y716161D01*
X2801011Y718498D01*
X2800999Y718644D01*
X2801027Y718788D01*
Y770288D01*
X2800999Y770432D01*
X2801011Y770578D01*
X2800748Y772914D01*
X2800659Y773192D01*
X2800619Y773480D01*
X2799842Y775699D01*
X2799694Y775949D01*
X2799590Y776221D01*
X2798339Y778212D01*
X2798140Y778424D01*
X2797978Y778666D01*
X2796315Y780328D01*
X2796073Y780490D01*
X2795862Y780690D01*
X2793871Y781941D01*
X2793599Y782045D01*
X2793349Y782192D01*
X2791129Y782969D01*
X2790841Y783010D01*
X2790564Y783098D01*
X2788228Y783361D01*
X2788081Y783349D01*
X2787938Y783378D01*
D02*
G37*
G36*
X3017250Y650440D02*
X2888250Y650440D01*
X2888106Y650411D01*
X2887960Y650424D01*
X2886736Y650286D01*
X2886459Y650198D01*
X2886171Y650157D01*
X2885008Y649750D01*
X2884758Y649602D01*
X2884486Y649498D01*
X2883443Y648843D01*
X2883232Y648643D01*
X2882990Y648482D01*
X2882119Y647611D01*
X2881957Y647369D01*
X2881757Y647157D01*
X2881102Y646115D01*
X2880998Y645843D01*
X2880850Y645592D01*
X2880443Y644429D01*
X2880403Y644141D01*
X2880315Y643864D01*
X2880177Y642640D01*
X2880189Y642494D01*
X2880160Y642350D01*
Y513350D01*
X2880189Y513206D01*
X2880177Y513060D01*
X2880315Y511836D01*
X2880403Y511559D01*
X2880443Y511271D01*
X2880850Y510109D01*
X2880998Y509858D01*
X2881102Y509586D01*
X2881757Y508543D01*
X2881957Y508332D01*
X2882119Y508090D01*
X2882990Y507219D01*
X2883232Y507057D01*
X2883443Y506857D01*
X2884486Y506202D01*
X2884758Y506098D01*
X2885009Y505951D01*
X2886171Y505544D01*
X2886459Y505503D01*
X2886736Y505415D01*
X2887960Y505277D01*
X2888106Y505289D01*
X2888250Y505261D01*
X3017250Y505261D01*
X3017394Y505289D01*
X3017540Y505277D01*
X3018764Y505415D01*
X3019041Y505503D01*
X3019329Y505544D01*
X3020492Y505951D01*
X3020742Y506098D01*
X3021014Y506202D01*
X3022057Y506857D01*
X3022268Y507057D01*
X3022510Y507219D01*
X3023381Y508090D01*
X3023543Y508332D01*
X3023743Y508543D01*
X3024398Y509586D01*
X3024502Y509858D01*
X3024650Y510108D01*
X3025056Y511271D01*
X3025097Y511559D01*
X3025186Y511837D01*
X3025323Y513061D01*
X3025311Y513207D01*
X3025340Y513350D01*
Y642350D01*
X3025311Y642494D01*
X3025323Y642640D01*
X3025186Y643864D01*
X3025097Y644141D01*
X3025056Y644430D01*
X3024650Y645592D01*
X3024502Y645843D01*
X3024398Y646115D01*
X3023743Y647157D01*
X3023543Y647369D01*
X3023381Y647611D01*
X3022510Y648482D01*
X3022268Y648643D01*
X3022057Y648843D01*
X3021014Y649498D01*
X3020742Y649602D01*
X3020492Y649750D01*
X3019329Y650157D01*
X3019041Y650198D01*
X3018764Y650286D01*
X3017540Y650424D01*
X3017394Y650412D01*
X3017250Y650440D01*
D02*
G37*
G36*
X2826750Y650440D02*
X2697750D01*
X2697606Y650411D01*
X2697460Y650424D01*
X2696236Y650286D01*
X2695959Y650198D01*
X2695671Y650157D01*
X2694508Y649750D01*
X2694258Y649602D01*
X2693986Y649498D01*
X2692943Y648843D01*
X2692732Y648643D01*
X2692490Y648482D01*
X2691619Y647611D01*
X2691457Y647369D01*
X2691257Y647157D01*
X2690602Y646115D01*
X2690498Y645843D01*
X2690350Y645592D01*
X2689944Y644429D01*
X2689903Y644141D01*
X2689814Y643864D01*
X2689677Y642640D01*
X2689689Y642494D01*
X2689660Y642350D01*
Y513350D01*
X2689689Y513206D01*
X2689677Y513060D01*
X2689814Y511836D01*
X2689903Y511559D01*
X2689944Y511271D01*
X2690350Y510109D01*
X2690498Y509858D01*
X2690602Y509586D01*
X2691257Y508543D01*
X2691457Y508332D01*
X2691619Y508090D01*
X2692490Y507219D01*
X2692732Y507057D01*
X2692943Y506857D01*
X2693986Y506202D01*
X2694258Y506098D01*
X2694508Y505951D01*
X2695671Y505544D01*
X2695959Y505503D01*
X2696236Y505415D01*
X2697460Y505277D01*
X2697606Y505289D01*
X2697750Y505261D01*
X2826750D01*
X2826894Y505289D01*
X2827040Y505277D01*
X2828264Y505415D01*
X2828541Y505503D01*
X2828829Y505544D01*
X2829991Y505951D01*
X2830242Y506098D01*
X2830514Y506202D01*
X2831557Y506857D01*
X2831768Y507057D01*
X2832010Y507219D01*
X2832881Y508090D01*
X2833043Y508332D01*
X2833243Y508543D01*
X2833898Y509586D01*
X2834002Y509858D01*
X2834150Y510108D01*
X2834557Y511271D01*
X2834597Y511559D01*
X2834686Y511837D01*
X2834824Y513061D01*
X2834811Y513206D01*
X2834840Y513350D01*
Y642350D01*
X2834811Y642494D01*
X2834824Y642640D01*
X2834686Y643864D01*
X2834597Y644141D01*
X2834557Y644429D01*
X2834150Y645592D01*
X2834002Y645843D01*
X2833898Y646115D01*
X2833243Y647157D01*
X2833043Y647369D01*
X2832881Y647611D01*
X2832010Y648482D01*
X2831768Y648643D01*
X2831557Y648843D01*
X2830514Y649498D01*
X2830242Y649602D01*
X2829992Y649750D01*
X2828829Y650157D01*
X2828541Y650198D01*
X2828264Y650286D01*
X2827040Y650424D01*
X2826894Y650411D01*
X2826750Y650440D01*
D02*
G37*
G36*
X2564813D02*
X2435813D01*
X2435669Y650411D01*
X2435522Y650424D01*
X2434299Y650286D01*
X2434021Y650197D01*
X2433733Y650157D01*
X2432571Y649750D01*
X2432320Y649602D01*
X2432049Y649499D01*
X2431006Y648843D01*
X2430794Y648643D01*
X2430552Y648481D01*
X2429681Y647610D01*
X2429520Y647369D01*
X2429320Y647157D01*
X2428664Y646115D01*
X2428561Y645843D01*
X2428413Y645592D01*
X2428006Y644429D01*
X2427965Y644141D01*
X2427877Y643864D01*
X2427739Y642640D01*
X2427751Y642494D01*
X2427723Y642350D01*
Y513350D01*
X2427751Y513206D01*
X2427739Y513060D01*
X2427877Y511836D01*
X2427965Y511559D01*
X2428006Y511271D01*
X2428413Y510108D01*
X2428561Y509858D01*
X2428665Y509586D01*
X2429320Y508543D01*
X2429520Y508332D01*
X2429681Y508090D01*
X2430552Y507219D01*
X2430794Y507057D01*
X2431006Y506857D01*
X2432049Y506202D01*
X2432320Y506098D01*
X2432571Y505951D01*
X2433733Y505544D01*
X2434021Y505503D01*
X2434299Y505415D01*
X2435522Y505277D01*
X2435669Y505289D01*
X2435813Y505261D01*
X2564813D01*
X2564956Y505289D01*
X2565103Y505277D01*
X2566326Y505415D01*
X2566604Y505503D01*
X2566892Y505544D01*
X2568054Y505951D01*
X2568305Y506098D01*
X2568577Y506202D01*
X2569620Y506857D01*
X2569831Y507057D01*
X2570073Y507219D01*
X2570944Y508090D01*
X2571106Y508332D01*
X2571306Y508543D01*
X2571961Y509586D01*
X2572065Y509858D01*
X2572212Y510108D01*
X2572619Y511271D01*
X2572660Y511559D01*
X2572748Y511836D01*
X2572886Y513060D01*
X2572874Y513206D01*
X2572902Y513350D01*
Y642350D01*
X2572874Y642494D01*
X2572886Y642640D01*
X2572748Y643864D01*
X2572660Y644141D01*
X2572619Y644429D01*
X2572212Y645592D01*
X2572065Y645843D01*
X2571961Y646114D01*
X2571306Y647157D01*
X2571106Y647369D01*
X2570944Y647611D01*
X2570073Y648482D01*
X2569831Y648643D01*
X2569620Y648843D01*
X2568577Y649498D01*
X2568305Y649602D01*
X2568054Y649750D01*
X2566892Y650157D01*
X2566604Y650198D01*
X2566326Y650286D01*
X2565103Y650424D01*
X2564956Y650411D01*
X2564813Y650440D01*
D02*
G37*
G36*
X2302875Y650440D02*
X2173875D01*
X2173731Y650411D01*
X2173585Y650424D01*
X2172361Y650286D01*
X2172084Y650198D01*
X2171796Y650157D01*
X2170633Y649750D01*
X2170383Y649602D01*
X2170111Y649498D01*
X2169068Y648843D01*
X2168857Y648643D01*
X2168615Y648482D01*
X2167744Y647611D01*
X2167582Y647369D01*
X2167382Y647157D01*
X2166727Y646115D01*
X2166623Y645843D01*
X2166475Y645592D01*
X2166069Y644429D01*
X2166028Y644141D01*
X2165940Y643864D01*
X2165802Y642640D01*
X2165814Y642494D01*
X2165785Y642350D01*
Y513350D01*
X2165814Y513206D01*
X2165802Y513060D01*
X2165940Y511836D01*
X2166028Y511559D01*
X2166069Y511271D01*
X2166475Y510109D01*
X2166623Y509858D01*
X2166727Y509586D01*
X2167382Y508543D01*
X2167582Y508332D01*
X2167744Y508090D01*
X2168615Y507219D01*
X2168857Y507057D01*
X2169068Y506857D01*
X2170111Y506202D01*
X2170383Y506098D01*
X2170633Y505950D01*
X2171796Y505544D01*
X2172084Y505503D01*
X2172361Y505415D01*
X2173585Y505277D01*
X2173731Y505289D01*
X2173875Y505260D01*
X2302875D01*
X2303019Y505289D01*
X2303165Y505277D01*
X2304389Y505415D01*
X2304666Y505503D01*
X2304954Y505544D01*
X2306117Y505950D01*
X2306367Y506098D01*
X2306639Y506202D01*
X2307682Y506857D01*
X2307893Y507057D01*
X2308135Y507219D01*
X2309006Y508090D01*
X2309168Y508332D01*
X2309368Y508543D01*
X2310023Y509586D01*
X2310127Y509858D01*
X2310275Y510108D01*
X2310682Y511271D01*
X2310722Y511559D01*
X2310811Y511837D01*
X2310948Y513060D01*
X2310936Y513206D01*
X2310965Y513350D01*
Y642350D01*
X2310936Y642494D01*
X2310948Y642640D01*
X2310811Y643864D01*
X2310722Y644141D01*
X2310682Y644429D01*
X2310275Y645592D01*
X2310127Y645843D01*
X2310023Y646115D01*
X2309368Y647157D01*
X2309168Y647369D01*
X2309006Y647611D01*
X2308135Y648482D01*
X2307893Y648643D01*
X2307682Y648843D01*
X2306639Y649498D01*
X2306367Y649602D01*
X2306117Y649750D01*
X2304954Y650157D01*
X2304666Y650198D01*
X2304389Y650286D01*
X2303165Y650424D01*
X2303019Y650411D01*
X2302875Y650440D01*
D02*
G37*
G36*
X2112375D02*
X1983375D01*
X1983231Y650411D01*
X1983085Y650424D01*
X1981861Y650286D01*
X1981584Y650197D01*
X1981296Y650157D01*
X1980133Y649750D01*
X1979883Y649602D01*
X1979611Y649498D01*
X1978568Y648843D01*
X1978357Y648643D01*
X1978115Y648482D01*
X1977244Y647611D01*
X1977082Y647369D01*
X1976882Y647157D01*
X1976227Y646114D01*
X1976123Y645842D01*
X1975975Y645592D01*
X1975569Y644429D01*
X1975528Y644141D01*
X1975440Y643864D01*
X1975302Y642640D01*
X1975314Y642494D01*
X1975285Y642350D01*
Y513350D01*
X1975314Y513206D01*
X1975302Y513060D01*
X1975440Y511836D01*
X1975528Y511559D01*
X1975569Y511271D01*
X1975975Y510109D01*
X1976123Y509858D01*
X1976227Y509586D01*
X1976882Y508543D01*
X1977082Y508332D01*
X1977244Y508090D01*
X1978115Y507219D01*
X1978357Y507057D01*
X1978568Y506857D01*
X1979611Y506202D01*
X1979883Y506098D01*
X1980133Y505950D01*
X1981296Y505544D01*
X1981584Y505503D01*
X1981861Y505415D01*
X1983085Y505277D01*
X1983231Y505289D01*
X1983375Y505260D01*
X2112375D01*
X2112519Y505289D01*
X2112665Y505277D01*
X2113889Y505415D01*
X2114166Y505503D01*
X2114454Y505544D01*
X2115617Y505950D01*
X2115867Y506098D01*
X2116139Y506202D01*
X2117182Y506857D01*
X2117393Y507057D01*
X2117635Y507219D01*
X2118506Y508090D01*
X2118668Y508332D01*
X2118868Y508543D01*
X2119523Y509586D01*
X2119627Y509858D01*
X2119775Y510108D01*
X2120182Y511271D01*
X2120222Y511559D01*
X2120311Y511837D01*
X2120448Y513060D01*
X2120436Y513206D01*
X2120465Y513350D01*
Y642350D01*
X2120436Y642494D01*
X2120448Y642640D01*
X2120311Y643864D01*
X2120222Y644141D01*
X2120182Y644429D01*
X2119775Y645592D01*
X2119627Y645843D01*
X2119523Y646115D01*
X2118868Y647157D01*
X2118668Y647369D01*
X2118506Y647611D01*
X2117635Y648482D01*
X2117393Y648643D01*
X2117182Y648843D01*
X2116139Y649498D01*
X2115867Y649602D01*
X2115617Y649750D01*
X2114454Y650157D01*
X2114166Y650198D01*
X2113889Y650286D01*
X2112665Y650424D01*
X2112519Y650411D01*
X2112375Y650440D01*
D02*
G37*
G36*
X1921875D02*
X1792875Y650440D01*
X1792731Y650411D01*
X1792585Y650424D01*
X1791361Y650286D01*
X1791084Y650197D01*
X1790796Y650157D01*
X1789633Y649750D01*
X1789383Y649602D01*
X1789111Y649498D01*
X1788068Y648843D01*
X1787857Y648643D01*
X1787615Y648482D01*
X1786744Y647611D01*
X1786582Y647369D01*
X1786382Y647157D01*
X1785727Y646115D01*
X1785623Y645843D01*
X1785475Y645592D01*
X1785068Y644429D01*
X1785028Y644141D01*
X1784939Y643864D01*
X1784801Y642640D01*
X1784814Y642494D01*
X1784785Y642350D01*
Y513350D01*
X1784814Y513206D01*
X1784801Y513060D01*
X1784939Y511837D01*
X1785028Y511559D01*
X1785068Y511271D01*
X1785475Y510108D01*
X1785623Y509858D01*
X1785727Y509586D01*
X1786382Y508543D01*
X1786582Y508332D01*
X1786744Y508090D01*
X1787615Y507219D01*
X1787857Y507057D01*
X1788068Y506857D01*
X1789111Y506202D01*
X1789383Y506098D01*
X1789633Y505950D01*
X1790796Y505544D01*
X1791084Y505503D01*
X1791361Y505415D01*
X1792585Y505277D01*
X1792731Y505289D01*
X1792875Y505260D01*
X1921875Y505260D01*
X1922019Y505289D01*
X1922165Y505277D01*
X1923389Y505415D01*
X1923666Y505503D01*
X1923954Y505544D01*
X1925117Y505950D01*
X1925367Y506098D01*
X1925639Y506202D01*
X1926682Y506857D01*
X1926893Y507057D01*
X1927135Y507219D01*
X1928006Y508090D01*
X1928168Y508332D01*
X1928368Y508543D01*
X1929023Y509586D01*
X1929127Y509858D01*
X1929275Y510108D01*
X1929682Y511271D01*
X1929722Y511559D01*
X1929811Y511837D01*
X1929948Y513060D01*
X1929936Y513206D01*
X1929965Y513350D01*
Y642350D01*
X1929936Y642494D01*
X1929948Y642640D01*
X1929811Y643864D01*
X1929722Y644141D01*
X1929682Y644429D01*
X1929275Y645592D01*
X1929127Y645843D01*
X1929023Y646114D01*
X1928368Y647157D01*
X1928168Y647369D01*
X1928006Y647611D01*
X1927135Y648482D01*
X1926893Y648643D01*
X1926682Y648843D01*
X1925639Y649498D01*
X1925367Y649602D01*
X1925117Y649750D01*
X1923954Y650157D01*
X1923666Y650197D01*
X1923389Y650286D01*
X1922165Y650424D01*
X1922019Y650411D01*
X1921875Y650440D01*
D02*
G37*
G36*
X1731375Y650440D02*
X1602375D01*
X1602231Y650411D01*
X1602085Y650424D01*
X1600861Y650286D01*
X1600584Y650197D01*
X1600296Y650157D01*
X1599133Y649750D01*
X1598883Y649602D01*
X1598611Y649498D01*
X1597568Y648843D01*
X1597357Y648643D01*
X1597115Y648482D01*
X1596244Y647611D01*
X1596082Y647369D01*
X1595882Y647157D01*
X1595227Y646114D01*
X1595123Y645843D01*
X1594975Y645592D01*
X1594568Y644429D01*
X1594528Y644141D01*
X1594439Y643864D01*
X1594302Y642640D01*
X1594314Y642494D01*
X1594285Y642350D01*
Y513350D01*
X1594314Y513206D01*
X1594302Y513060D01*
X1594439Y511836D01*
X1594528Y511559D01*
X1594568Y511271D01*
X1594975Y510108D01*
X1595123Y509858D01*
X1595227Y509586D01*
X1595882Y508543D01*
X1596082Y508332D01*
X1596244Y508090D01*
X1597115Y507219D01*
X1597357Y507057D01*
X1597568Y506857D01*
X1598611Y506202D01*
X1598883Y506098D01*
X1599133Y505950D01*
X1600296Y505544D01*
X1600584Y505503D01*
X1600861Y505415D01*
X1602085Y505277D01*
X1602231Y505289D01*
X1602375Y505260D01*
X1731375D01*
X1731519Y505289D01*
X1731665Y505277D01*
X1732889Y505415D01*
X1733166Y505503D01*
X1733454Y505544D01*
X1734617Y505950D01*
X1734867Y506098D01*
X1735139Y506202D01*
X1736182Y506857D01*
X1736393Y507057D01*
X1736635Y507219D01*
X1737506Y508090D01*
X1737668Y508332D01*
X1737868Y508543D01*
X1738523Y509586D01*
X1738627Y509858D01*
X1738775Y510108D01*
X1739182Y511271D01*
X1739222Y511559D01*
X1739311Y511837D01*
X1739449Y513060D01*
X1739436Y513206D01*
X1739465Y513350D01*
Y642350D01*
X1739436Y642494D01*
X1739449Y642640D01*
X1739311Y643864D01*
X1739222Y644141D01*
X1739182Y644429D01*
X1738775Y645592D01*
X1738627Y645843D01*
X1738523Y646115D01*
X1737868Y647157D01*
X1737668Y647369D01*
X1737506Y647611D01*
X1736635Y648482D01*
X1736393Y648643D01*
X1736182Y648843D01*
X1735139Y649498D01*
X1734867Y649602D01*
X1734617Y649750D01*
X1733454Y650157D01*
X1733166Y650197D01*
X1732889Y650286D01*
X1731665Y650424D01*
X1731519Y650411D01*
X1731375Y650440D01*
D02*
G37*
G36*
X1540875D02*
X1411875D01*
X1411731Y650411D01*
X1411585Y650424D01*
X1410361Y650286D01*
X1410084Y650197D01*
X1409796Y650157D01*
X1408633Y649750D01*
X1408383Y649602D01*
X1408111Y649498D01*
X1407068Y648843D01*
X1406857Y648643D01*
X1406615Y648482D01*
X1405744Y647611D01*
X1405582Y647369D01*
X1405382Y647157D01*
X1404727Y646114D01*
X1404623Y645843D01*
X1404475Y645592D01*
X1404068Y644429D01*
X1404028Y644141D01*
X1403939Y643864D01*
X1403802Y642640D01*
X1403814Y642494D01*
X1403785Y642350D01*
Y513350D01*
X1403814Y513206D01*
X1403802Y513060D01*
X1403939Y511836D01*
X1404028Y511559D01*
X1404068Y511271D01*
X1404475Y510108D01*
X1404623Y509858D01*
X1404727Y509586D01*
X1405382Y508543D01*
X1405582Y508332D01*
X1405744Y508090D01*
X1406615Y507219D01*
X1406857Y507057D01*
X1407068Y506857D01*
X1408111Y506202D01*
X1408383Y506098D01*
X1408633Y505950D01*
X1409796Y505544D01*
X1410084Y505503D01*
X1410361Y505415D01*
X1411585Y505277D01*
X1411731Y505289D01*
X1411875Y505260D01*
X1540875D01*
X1541019Y505289D01*
X1541165Y505277D01*
X1542389Y505415D01*
X1542666Y505503D01*
X1542954Y505544D01*
X1544117Y505950D01*
X1544367Y506098D01*
X1544639Y506202D01*
X1545682Y506857D01*
X1545894Y507057D01*
X1546136Y507219D01*
X1547006Y508090D01*
X1547168Y508332D01*
X1547368Y508543D01*
X1548023Y509586D01*
X1548127Y509858D01*
X1548275Y510109D01*
X1548682Y511271D01*
X1548722Y511559D01*
X1548810Y511836D01*
X1548949Y513060D01*
X1548936Y513206D01*
X1548965Y513350D01*
Y642350D01*
X1548936Y642494D01*
X1548949Y642640D01*
X1548810Y643864D01*
X1548722Y644141D01*
X1548682Y644429D01*
X1548275Y645592D01*
X1548127Y645842D01*
X1548023Y646115D01*
X1547368Y647157D01*
X1547168Y647369D01*
X1547006Y647610D01*
X1546136Y648481D01*
X1545894Y648643D01*
X1545682Y648843D01*
X1544639Y649498D01*
X1544367Y649602D01*
X1544117Y649750D01*
X1542954Y650157D01*
X1542666Y650197D01*
X1542389Y650286D01*
X1541165Y650424D01*
X1541019Y650411D01*
X1540875Y650440D01*
D02*
G37*
G36*
X1350375D02*
X1221375Y650440D01*
X1221231Y650411D01*
X1221085Y650424D01*
X1219861Y650286D01*
X1219584Y650197D01*
X1219296Y650157D01*
X1218133Y649750D01*
X1217883Y649602D01*
X1217611Y649498D01*
X1216568Y648843D01*
X1216357Y648643D01*
X1216115Y648482D01*
X1215244Y647611D01*
X1215082Y647369D01*
X1214882Y647157D01*
X1214227Y646114D01*
X1214123Y645843D01*
X1213975Y645592D01*
X1213568Y644429D01*
X1213528Y644141D01*
X1213439Y643864D01*
X1213302Y642640D01*
X1213314Y642494D01*
X1213285Y642350D01*
Y513350D01*
X1213314Y513206D01*
X1213302Y513060D01*
X1213439Y511836D01*
X1213528Y511559D01*
X1213568Y511271D01*
X1213975Y510108D01*
X1214123Y509858D01*
X1214227Y509586D01*
X1214882Y508543D01*
X1215082Y508332D01*
X1215244Y508090D01*
X1216115Y507219D01*
X1216357Y507057D01*
X1216568Y506857D01*
X1217611Y506202D01*
X1217883Y506098D01*
X1218133Y505950D01*
X1219296Y505544D01*
X1219584Y505503D01*
X1219861Y505415D01*
X1221085Y505277D01*
X1221231Y505289D01*
X1221375Y505260D01*
X1350375Y505260D01*
X1350519Y505289D01*
X1350665Y505277D01*
X1351889Y505415D01*
X1352166Y505503D01*
X1352454Y505544D01*
X1353617Y505950D01*
X1353867Y506098D01*
X1354139Y506202D01*
X1355182Y506857D01*
X1355394Y507057D01*
X1355636Y507219D01*
X1356506Y508090D01*
X1356668Y508332D01*
X1356868Y508543D01*
X1357523Y509586D01*
X1357627Y509858D01*
X1357775Y510109D01*
X1358182Y511271D01*
X1358222Y511559D01*
X1358311Y511836D01*
X1358448Y513060D01*
X1358436Y513206D01*
X1358465Y513350D01*
Y642350D01*
X1358436Y642494D01*
X1358448Y642640D01*
X1358311Y643864D01*
X1358222Y644141D01*
X1358182Y644429D01*
X1357775Y645592D01*
X1357627Y645842D01*
X1357523Y646114D01*
X1356868Y647157D01*
X1356668Y647369D01*
X1356506Y647610D01*
X1355636Y648481D01*
X1355394Y648643D01*
X1355182Y648843D01*
X1354139Y649498D01*
X1353867Y649602D01*
X1353617Y649750D01*
X1352454Y650157D01*
X1352166Y650197D01*
X1351889Y650286D01*
X1350665Y650424D01*
X1350519Y650411D01*
X1350375Y650440D01*
D02*
G37*
G36*
X1159875Y650440D02*
X1030875D01*
X1030731Y650411D01*
X1030585Y650424D01*
X1029361Y650286D01*
X1029084Y650197D01*
X1028796Y650157D01*
X1027633Y649750D01*
X1027383Y649602D01*
X1027111Y649498D01*
X1026068Y648843D01*
X1025857Y648643D01*
X1025615Y648482D01*
X1024744Y647611D01*
X1024582Y647369D01*
X1024382Y647157D01*
X1023727Y646114D01*
X1023623Y645843D01*
X1023475Y645592D01*
X1023068Y644429D01*
X1023028Y644141D01*
X1022939Y643864D01*
X1022802Y642640D01*
X1022814Y642494D01*
X1022785Y642350D01*
Y513350D01*
X1022814Y513206D01*
X1022802Y513060D01*
X1022939Y511836D01*
X1023028Y511559D01*
X1023068Y511271D01*
X1023475Y510108D01*
X1023623Y509858D01*
X1023727Y509586D01*
X1024382Y508543D01*
X1024582Y508332D01*
X1024744Y508090D01*
X1025615Y507219D01*
X1025857Y507057D01*
X1026068Y506857D01*
X1027111Y506202D01*
X1027383Y506098D01*
X1027633Y505950D01*
X1028796Y505544D01*
X1029084Y505503D01*
X1029361Y505415D01*
X1030585Y505277D01*
X1030731Y505289D01*
X1030875Y505260D01*
X1159875D01*
X1160019Y505289D01*
X1160165Y505277D01*
X1161389Y505415D01*
X1161666Y505503D01*
X1161954Y505544D01*
X1163117Y505950D01*
X1163367Y506098D01*
X1163639Y506202D01*
X1164682Y506857D01*
X1164893Y507057D01*
X1165135Y507219D01*
X1166006Y508090D01*
X1166168Y508332D01*
X1166368Y508543D01*
X1167023Y509586D01*
X1167127Y509858D01*
X1167275Y510108D01*
X1167682Y511271D01*
X1167722Y511559D01*
X1167811Y511836D01*
X1167949Y513060D01*
X1167936Y513206D01*
X1167965Y513350D01*
Y642350D01*
X1167936Y642494D01*
X1167949Y642640D01*
X1167811Y643864D01*
X1167722Y644141D01*
X1167682Y644429D01*
X1167275Y645592D01*
X1167127Y645842D01*
X1167023Y646114D01*
X1166368Y647157D01*
X1166168Y647369D01*
X1166006Y647610D01*
X1165135Y648481D01*
X1164893Y648643D01*
X1164682Y648843D01*
X1163639Y649498D01*
X1163367Y649602D01*
X1163117Y649750D01*
X1161954Y650157D01*
X1161666Y650197D01*
X1161389Y650286D01*
X1160165Y650424D01*
X1160019Y650411D01*
X1159875Y650440D01*
D02*
G37*
G36*
X969375D02*
X840375D01*
X840231Y650411D01*
X840085Y650424D01*
X838861Y650286D01*
X838584Y650197D01*
X838296Y650157D01*
X837133Y649750D01*
X836883Y649602D01*
X836611Y649498D01*
X835568Y648843D01*
X835357Y648643D01*
X835115Y648481D01*
X834244Y647610D01*
X834082Y647369D01*
X833882Y647157D01*
X833227Y646114D01*
X833123Y645842D01*
X832975Y645592D01*
X832569Y644429D01*
X832528Y644141D01*
X832439Y643864D01*
X832301Y642640D01*
X832314Y642494D01*
X832285Y642350D01*
Y513350D01*
X832314Y513206D01*
X832301Y513060D01*
X832439Y511836D01*
X832528Y511559D01*
X832569Y511271D01*
X832975Y510108D01*
X833123Y509858D01*
X833227Y509586D01*
X833882Y508543D01*
X834082Y508332D01*
X834244Y508090D01*
X835115Y507219D01*
X835357Y507057D01*
X835568Y506857D01*
X836611Y506202D01*
X836883Y506098D01*
X837133Y505950D01*
X838296Y505544D01*
X838584Y505503D01*
X838861Y505415D01*
X840085Y505277D01*
X840231Y505289D01*
X840375Y505260D01*
X969375D01*
X969519Y505289D01*
X969665Y505277D01*
X970889Y505415D01*
X971166Y505503D01*
X971454Y505544D01*
X972617Y505950D01*
X972867Y506098D01*
X973139Y506202D01*
X974182Y506857D01*
X974393Y507057D01*
X974635Y507219D01*
X975506Y508090D01*
X975668Y508332D01*
X975868Y508543D01*
X976523Y509586D01*
X976627Y509858D01*
X976775Y510108D01*
X977182Y511271D01*
X977222Y511559D01*
X977310Y511836D01*
X977449Y513060D01*
X977436Y513206D01*
X977465Y513350D01*
Y642350D01*
X977436Y642494D01*
X977449Y642640D01*
X977310Y643864D01*
X977222Y644141D01*
X977182Y644429D01*
X976775Y645592D01*
X976627Y645842D01*
X976523Y646114D01*
X975868Y647157D01*
X975668Y647369D01*
X975506Y647610D01*
X974635Y648481D01*
X974393Y648643D01*
X974182Y648843D01*
X973139Y649498D01*
X972867Y649602D01*
X972617Y649750D01*
X971454Y650157D01*
X971166Y650197D01*
X970889Y650286D01*
X969665Y650424D01*
X969519Y650411D01*
X969375Y650440D01*
D02*
G37*
G36*
X778875D02*
X649875Y650440D01*
X649731Y650411D01*
X649585Y650424D01*
X648361Y650286D01*
X648084Y650197D01*
X647796Y650157D01*
X646633Y649750D01*
X646383Y649602D01*
X646111Y649498D01*
X645068Y648843D01*
X644857Y648643D01*
X644615Y648481D01*
X643744Y647610D01*
X643582Y647369D01*
X643382Y647157D01*
X642727Y646114D01*
X642623Y645842D01*
X642475Y645592D01*
X642068Y644429D01*
X642028Y644141D01*
X641939Y643864D01*
X641802Y642640D01*
X641814Y642494D01*
X641785Y642350D01*
Y513350D01*
X641814Y513206D01*
X641802Y513060D01*
X641939Y511836D01*
X642028Y511559D01*
X642068Y511271D01*
X642475Y510108D01*
X642623Y509858D01*
X642727Y509586D01*
X643382Y508543D01*
X643582Y508331D01*
X643744Y508090D01*
X644615Y507219D01*
X644857Y507057D01*
X645068Y506857D01*
X646111Y506202D01*
X646383Y506098D01*
X646633Y505950D01*
X647796Y505544D01*
X648084Y505503D01*
X648361Y505415D01*
X649585Y505277D01*
X649731Y505289D01*
X649875Y505260D01*
X778875Y505260D01*
X779019Y505289D01*
X779165Y505277D01*
X780389Y505415D01*
X780666Y505503D01*
X780954Y505544D01*
X782117Y505950D01*
X782367Y506098D01*
X782639Y506202D01*
X783682Y506857D01*
X783894Y507057D01*
X784135Y507219D01*
X785006Y508090D01*
X785168Y508332D01*
X785368Y508543D01*
X786023Y509586D01*
X786127Y509858D01*
X786275Y510108D01*
X786682Y511271D01*
X786722Y511559D01*
X786811Y511836D01*
X786948Y513060D01*
X786936Y513206D01*
X786965Y513350D01*
Y642350D01*
X786936Y642494D01*
X786948Y642640D01*
X786811Y643864D01*
X786722Y644141D01*
X786682Y644429D01*
X786275Y645592D01*
X786127Y645843D01*
X786023Y646114D01*
X785368Y647157D01*
X785168Y647369D01*
X785006Y647610D01*
X784135Y648481D01*
X783894Y648643D01*
X783682Y648843D01*
X782639Y649498D01*
X782367Y649602D01*
X782117Y649750D01*
X780954Y650157D01*
X780666Y650197D01*
X780389Y650286D01*
X779165Y650424D01*
X779019Y650411D01*
X778875Y650440D01*
D02*
G37*
G36*
X588375Y650440D02*
X459375D01*
X459231Y650411D01*
X459085Y650424D01*
X457861Y650286D01*
X457584Y650197D01*
X457296Y650157D01*
X456133Y649750D01*
X455883Y649602D01*
X455611Y649498D01*
X454568Y648843D01*
X454357Y648643D01*
X454115Y648481D01*
X453244Y647610D01*
X453082Y647369D01*
X452882Y647157D01*
X452227Y646114D01*
X452123Y645842D01*
X451975Y645592D01*
X451568Y644429D01*
X451528Y644141D01*
X451439Y643864D01*
X451302Y642640D01*
X451314Y642494D01*
X451285Y642350D01*
Y513350D01*
X451314Y513206D01*
X451302Y513060D01*
X451439Y511836D01*
X451528Y511559D01*
X451568Y511271D01*
X451975Y510108D01*
X452123Y509858D01*
X452227Y509586D01*
X452882Y508543D01*
X453082Y508331D01*
X453244Y508090D01*
X454115Y507219D01*
X454357Y507057D01*
X454568Y506857D01*
X455611Y506202D01*
X455883Y506098D01*
X456133Y505950D01*
X457296Y505544D01*
X457584Y505503D01*
X457861Y505415D01*
X459085Y505277D01*
X459231Y505289D01*
X459375Y505260D01*
X588375D01*
X588519Y505289D01*
X588665Y505277D01*
X589889Y505415D01*
X590166Y505503D01*
X590454Y505544D01*
X591617Y505950D01*
X591867Y506098D01*
X592139Y506202D01*
X593182Y506857D01*
X593393Y507057D01*
X593635Y507219D01*
X594506Y508090D01*
X594668Y508331D01*
X594868Y508543D01*
X595523Y509586D01*
X595627Y509858D01*
X595775Y510108D01*
X596182Y511271D01*
X596222Y511559D01*
X596311Y511836D01*
X596448Y513060D01*
X596436Y513206D01*
X596465Y513350D01*
Y642350D01*
X596436Y642494D01*
X596448Y642640D01*
X596311Y643864D01*
X596222Y644141D01*
X596182Y644429D01*
X595775Y645592D01*
X595627Y645842D01*
X595523Y646114D01*
X594868Y647157D01*
X594668Y647369D01*
X594506Y647610D01*
X593635Y648481D01*
X593393Y648643D01*
X593182Y648843D01*
X592139Y649498D01*
X591867Y649602D01*
X591617Y649750D01*
X590454Y650157D01*
X590166Y650197D01*
X589889Y650286D01*
X588665Y650424D01*
X588519Y650411D01*
X588375Y650440D01*
D02*
G37*
G36*
X397875D02*
X268875D01*
X268731Y650411D01*
X268585Y650424D01*
X267361Y650286D01*
X267084Y650197D01*
X266796Y650157D01*
X265633Y649750D01*
X265383Y649602D01*
X265111Y649498D01*
X264068Y648843D01*
X263857Y648643D01*
X263615Y648481D01*
X262744Y647610D01*
X262582Y647369D01*
X262382Y647157D01*
X261727Y646114D01*
X261623Y645842D01*
X261475Y645592D01*
X261068Y644429D01*
X261028Y644141D01*
X260939Y643864D01*
X260802Y642640D01*
X260814Y642494D01*
X260785Y642350D01*
X260785Y513350D01*
X260814Y513206D01*
X260802Y513060D01*
X260940Y511836D01*
X261028Y511559D01*
X261068Y511271D01*
X261475Y510108D01*
X261623Y509858D01*
X261727Y509586D01*
X262382Y508543D01*
X262582Y508331D01*
X262744Y508090D01*
X263615Y507219D01*
X263857Y507057D01*
X264068Y506857D01*
X265111Y506202D01*
X265383Y506098D01*
X265633Y505950D01*
X266796Y505544D01*
X267084Y505503D01*
X267361Y505414D01*
X268585Y505277D01*
X268731Y505289D01*
X268875Y505260D01*
X397875D01*
X398019Y505289D01*
X398165Y505277D01*
X399389Y505415D01*
X399666Y505503D01*
X399954Y505544D01*
X401117Y505950D01*
X401367Y506098D01*
X401639Y506202D01*
X402682Y506857D01*
X402893Y507057D01*
X403135Y507219D01*
X404006Y508090D01*
X404168Y508331D01*
X404368Y508543D01*
X405023Y509586D01*
X405127Y509858D01*
X405275Y510108D01*
X405682Y511271D01*
X405722Y511559D01*
X405811Y511836D01*
X405948Y513060D01*
X405936Y513206D01*
X405965Y513350D01*
X405965Y642350D01*
X405936Y642494D01*
X405948Y642640D01*
X405811Y643864D01*
X405722Y644141D01*
X405682Y644429D01*
X405275Y645592D01*
X405127Y645842D01*
X405023Y646114D01*
X404368Y647157D01*
X404168Y647369D01*
X404006Y647610D01*
X403135Y648481D01*
X402893Y648643D01*
X402682Y648843D01*
X401639Y649498D01*
X401367Y649602D01*
X401117Y649750D01*
X399954Y650157D01*
X399666Y650197D01*
X399389Y650286D01*
X398165Y650424D01*
X398019Y650411D01*
X397875Y650440D01*
D02*
G37*
G36*
X183563D02*
X54563Y650440D01*
X54419Y650411D01*
X54273Y650424D01*
X53049Y650286D01*
X52771Y650197D01*
X52483Y650156D01*
X51321Y649750D01*
X51070Y649602D01*
X50798Y649498D01*
X49756Y648843D01*
X49544Y648643D01*
X49302Y648481D01*
X48431Y647610D01*
X48270Y647368D01*
X48070Y647157D01*
X47414Y646114D01*
X47311Y645842D01*
X47163Y645592D01*
X46756Y644429D01*
X46715Y644141D01*
X46627Y643864D01*
X46489Y642640D01*
X46501Y642494D01*
X46473Y642350D01*
X46473Y513350D01*
X46501Y513206D01*
X46489Y513060D01*
X46627Y511836D01*
X46715Y511559D01*
X46756Y511271D01*
X47163Y510108D01*
X47311Y509858D01*
X47414Y509586D01*
X48070Y508543D01*
X48269Y508332D01*
X48431Y508090D01*
X49302Y507219D01*
X49544Y507057D01*
X49756Y506857D01*
X50798Y506202D01*
X51070Y506098D01*
X51321Y505950D01*
X52483Y505544D01*
X52771Y505503D01*
X53049Y505414D01*
X54272Y505276D01*
X54419Y505289D01*
X54563Y505260D01*
X183563Y505260D01*
X183706Y505289D01*
X183853Y505277D01*
X185076Y505414D01*
X185354Y505503D01*
X185642Y505544D01*
X186804Y505950D01*
X187055Y506098D01*
X187327Y506202D01*
X188370Y506857D01*
X188581Y507057D01*
X188823Y507219D01*
X189694Y508090D01*
X189855Y508332D01*
X190055Y508543D01*
X190711Y509586D01*
X190814Y509858D01*
X190962Y510108D01*
X191369Y511271D01*
X191410Y511559D01*
X191498Y511836D01*
X191636Y513060D01*
X191624Y513206D01*
X191652Y513350D01*
X191652Y642350D01*
X191624Y642494D01*
X191636Y642640D01*
X191498Y643864D01*
X191410Y644141D01*
X191369Y644429D01*
X190962Y645592D01*
X190814Y645842D01*
X190711Y646114D01*
X190055Y647157D01*
X189856Y647368D01*
X189694Y647610D01*
X188823Y648481D01*
X188581Y648643D01*
X188370Y648843D01*
X187327Y649498D01*
X187055Y649602D01*
X186804Y649750D01*
X185642Y650157D01*
X185354Y650197D01*
X185076Y650286D01*
X183853Y650424D01*
X183706Y650411D01*
X183563Y650440D01*
D02*
G37*
G36*
X2026000Y479940D02*
X1974500D01*
X1974356Y479911D01*
X1974210Y479924D01*
X1971874Y479660D01*
X1971596Y479572D01*
X1971308Y479531D01*
X1969089Y478755D01*
X1968838Y478607D01*
X1968566Y478503D01*
X1966576Y477252D01*
X1966364Y477052D01*
X1966122Y476891D01*
X1964460Y475228D01*
X1964298Y474986D01*
X1964098Y474775D01*
X1962847Y472784D01*
X1962743Y472512D01*
X1962596Y472261D01*
X1961819Y470042D01*
X1961778Y469754D01*
X1961690Y469477D01*
X1961427Y467140D01*
X1961439Y466994D01*
X1961410Y466850D01*
Y460246D01*
X1961390Y460069D01*
X1961380Y460038D01*
X1961362Y460010D01*
X1961340Y459988D01*
X1961312Y459971D01*
X1961282Y459960D01*
X1961105Y459940D01*
X1959563D01*
X1959419Y459911D01*
X1959272Y459924D01*
X1958049Y459786D01*
X1957771Y459697D01*
X1957483Y459657D01*
X1956321Y459250D01*
X1956070Y459102D01*
X1955799Y458998D01*
X1954756Y458343D01*
X1954544Y458143D01*
X1954302Y457981D01*
X1953431Y457110D01*
X1953270Y456869D01*
X1953070Y456657D01*
X1952414Y455614D01*
X1952311Y455343D01*
X1952163Y455092D01*
X1951756Y453929D01*
X1951715Y453641D01*
X1951627Y453364D01*
X1951489Y452140D01*
X1951501Y451994D01*
X1951473Y451850D01*
Y322850D01*
X1951501Y322706D01*
X1951489Y322560D01*
X1951627Y321336D01*
X1951715Y321059D01*
X1951756Y320771D01*
X1952163Y319608D01*
X1952311Y319358D01*
X1952414Y319086D01*
X1953070Y318043D01*
X1953270Y317832D01*
X1953431Y317590D01*
X1954302Y316719D01*
X1954544Y316557D01*
X1954756Y316357D01*
X1955799Y315702D01*
X1956070Y315598D01*
X1956321Y315450D01*
X1957483Y315044D01*
X1957771Y315003D01*
X1958049Y314915D01*
X1959272Y314777D01*
X1959419Y314789D01*
X1959563Y314760D01*
X2088562Y314760D01*
X2088706Y314789D01*
X2088853Y314777D01*
X2090076Y314915D01*
X2090354Y315003D01*
X2090642Y315044D01*
X2091804Y315450D01*
X2092055Y315598D01*
X2092327Y315702D01*
X2093370Y316357D01*
X2093581Y316557D01*
X2093823Y316719D01*
X2094694Y317590D01*
X2094856Y317832D01*
X2095056Y318043D01*
X2095711Y319086D01*
X2095814Y319358D01*
X2095962Y319608D01*
X2096369Y320771D01*
X2096410Y321059D01*
X2096498Y321336D01*
X2096636Y322560D01*
X2096624Y322706D01*
X2096652Y322850D01*
Y451850D01*
X2096624Y451994D01*
X2096636Y452140D01*
X2096498Y453364D01*
X2096410Y453641D01*
X2096369Y453929D01*
X2095962Y455092D01*
X2095814Y455342D01*
X2095711Y455614D01*
X2095056Y456657D01*
X2094856Y456869D01*
X2094694Y457111D01*
X2093823Y457982D01*
X2093581Y458143D01*
X2093370Y458343D01*
X2092327Y458998D01*
X2092055Y459102D01*
X2091804Y459250D01*
X2090642Y459657D01*
X2090354Y459697D01*
X2090076Y459786D01*
X2088853Y459924D01*
X2088706Y459911D01*
X2088562Y459940D01*
X2039395D01*
X2039218Y459960D01*
X2039187Y459971D01*
X2039160Y459988D01*
X2039138Y460010D01*
X2039120Y460038D01*
X2039110Y460068D01*
X2039090Y460246D01*
Y466850D01*
X2039061Y466994D01*
X2039073Y467140D01*
X2038810Y469477D01*
X2038722Y469754D01*
X2038681Y470042D01*
X2037905Y472261D01*
X2037757Y472512D01*
X2037653Y472784D01*
X2036402Y474775D01*
X2036202Y474986D01*
X2036040Y475228D01*
X2034378Y476891D01*
X2034136Y477052D01*
X2033925Y477252D01*
X2031934Y478503D01*
X2031662Y478607D01*
X2031411Y478755D01*
X2029192Y479531D01*
X2028904Y479572D01*
X2028627Y479660D01*
X2026290Y479924D01*
X2026144Y479911D01*
X2026000Y479940D01*
D02*
G37*
G36*
X1835500D02*
X1784000D01*
X1783856Y479911D01*
X1783710Y479924D01*
X1781374Y479660D01*
X1781096Y479572D01*
X1780808Y479531D01*
X1778589Y478755D01*
X1778338Y478607D01*
X1778067Y478503D01*
X1776076Y477252D01*
X1775864Y477052D01*
X1775622Y476891D01*
X1773960Y475228D01*
X1773798Y474986D01*
X1773598Y474775D01*
X1772347Y472784D01*
X1772243Y472512D01*
X1772095Y472261D01*
X1771319Y470042D01*
X1771278Y469754D01*
X1771190Y469477D01*
X1770927Y467140D01*
X1770939Y466994D01*
X1770910Y466850D01*
Y337850D01*
X1770939Y337706D01*
X1770927Y337560D01*
X1771190Y335224D01*
X1771278Y334947D01*
X1771319Y334658D01*
X1772095Y332439D01*
X1772243Y332188D01*
X1772347Y331917D01*
X1773598Y329926D01*
X1773798Y329714D01*
X1773960Y329472D01*
X1775622Y327810D01*
X1775864Y327648D01*
X1776076Y327448D01*
X1778067Y326197D01*
X1778338Y326093D01*
X1778589Y325946D01*
X1780808Y325169D01*
X1781096Y325128D01*
X1781374Y325040D01*
X1783710Y324777D01*
X1783856Y324789D01*
X1784000Y324760D01*
X1835500D01*
X1835644Y324789D01*
X1835790Y324777D01*
X1838127Y325040D01*
X1838404Y325128D01*
X1838692Y325169D01*
X1840911Y325946D01*
X1841162Y326093D01*
X1841434Y326197D01*
X1843425Y327448D01*
X1843636Y327648D01*
X1843878Y327810D01*
X1845540Y329472D01*
X1845702Y329714D01*
X1845902Y329926D01*
X1847153Y331916D01*
X1847257Y332188D01*
X1847405Y332439D01*
X1848181Y334659D01*
X1848222Y334946D01*
X1848310Y335224D01*
X1848573Y337560D01*
X1848561Y337706D01*
X1848590Y337850D01*
Y466850D01*
X1848561Y466994D01*
X1848573Y467140D01*
X1848310Y469477D01*
X1848222Y469754D01*
X1848181Y470042D01*
X1847405Y472261D01*
X1847257Y472512D01*
X1847153Y472784D01*
X1845902Y474775D01*
X1845702Y474986D01*
X1845540Y475228D01*
X1843878Y476891D01*
X1843636Y477052D01*
X1843425Y477252D01*
X1841434Y478503D01*
X1841162Y478607D01*
X1840911Y478755D01*
X1838692Y479531D01*
X1838404Y479572D01*
X1838127Y479660D01*
X1835790Y479924D01*
X1835644Y479911D01*
X1835500Y479940D01*
D02*
G37*
G36*
X883000Y479940D02*
X783875D01*
X783731Y479911D01*
X783585Y479924D01*
X781249Y479660D01*
X780971Y479572D01*
X780683Y479531D01*
X778464Y478755D01*
X778213Y478607D01*
X777941Y478503D01*
X775951Y477252D01*
X775739Y477052D01*
X775497Y476891D01*
X773835Y475228D01*
X773673Y474986D01*
X773473Y474775D01*
X772222Y472784D01*
X772118Y472512D01*
X771970Y472261D01*
X771194Y470042D01*
X771153Y469754D01*
X771065Y469477D01*
X770802Y467140D01*
X770814Y466994D01*
X770785Y466850D01*
Y337850D01*
X770814Y337706D01*
X770802Y337560D01*
X771065Y335224D01*
X771153Y334947D01*
X771194Y334658D01*
X771970Y332439D01*
X772118Y332188D01*
X772222Y331917D01*
X773473Y329926D01*
X773673Y329714D01*
X773835Y329472D01*
X775497Y327810D01*
X775739Y327648D01*
X775950Y327448D01*
X777941Y326197D01*
X778213Y326093D01*
X778464Y325945D01*
X780683Y325169D01*
X780971Y325128D01*
X781249Y325040D01*
X783585Y324777D01*
X783731Y324789D01*
X783875Y324760D01*
X883000Y324760D01*
X883144Y324789D01*
X883290Y324777D01*
X885626Y325040D01*
X885904Y325128D01*
X886192Y325169D01*
X888411Y325945D01*
X888662Y326093D01*
X888934Y326197D01*
X890925Y327448D01*
X891136Y327648D01*
X891378Y327810D01*
X893040Y329472D01*
X893202Y329714D01*
X893402Y329926D01*
X894653Y331917D01*
X894757Y332188D01*
X894905Y332439D01*
X895681Y334658D01*
X895722Y334947D01*
X895810Y335224D01*
X896073Y337560D01*
X896061Y337706D01*
X896090Y337850D01*
Y466850D01*
X896061Y466994D01*
X896073Y467140D01*
X895810Y469477D01*
X895722Y469754D01*
X895681Y470042D01*
X894905Y472261D01*
X894757Y472512D01*
X894653Y472784D01*
X893402Y474775D01*
X893202Y474986D01*
X893040Y475228D01*
X891378Y476891D01*
X891136Y477052D01*
X890925Y477252D01*
X888934Y478503D01*
X888662Y478607D01*
X888411Y478755D01*
X886192Y479531D01*
X885904Y479572D01*
X885626Y479660D01*
X883290Y479924D01*
X883144Y479911D01*
X883000Y479940D01*
D02*
G37*
G36*
X3017250Y459940D02*
X2888250Y459940D01*
X2888106Y459911D01*
X2887960Y459924D01*
X2886736Y459786D01*
X2886459Y459697D01*
X2886171Y459657D01*
X2885008Y459250D01*
X2884758Y459102D01*
X2884486Y458998D01*
X2883443Y458343D01*
X2883232Y458143D01*
X2882990Y457982D01*
X2882119Y457111D01*
X2881957Y456869D01*
X2881757Y456657D01*
X2881102Y455615D01*
X2880998Y455342D01*
X2880850Y455092D01*
X2880443Y453929D01*
X2880403Y453641D01*
X2880315Y453364D01*
X2880177Y452140D01*
X2880189Y451994D01*
X2880160Y451850D01*
Y322850D01*
X2880189Y322706D01*
X2880177Y322560D01*
X2880315Y321336D01*
X2880403Y321059D01*
X2880443Y320771D01*
X2880850Y319609D01*
X2880998Y319358D01*
X2881102Y319086D01*
X2881757Y318043D01*
X2881957Y317832D01*
X2882119Y317590D01*
X2882990Y316719D01*
X2883232Y316557D01*
X2883443Y316357D01*
X2884486Y315702D01*
X2884758Y315598D01*
X2885009Y315450D01*
X2886171Y315044D01*
X2886459Y315003D01*
X2886736Y314915D01*
X2887960Y314777D01*
X2888106Y314789D01*
X2888250Y314760D01*
X3017250D01*
X3017394Y314789D01*
X3017540Y314777D01*
X3018764Y314915D01*
X3019041Y315003D01*
X3019329Y315044D01*
X3020492Y315450D01*
X3020742Y315598D01*
X3021014Y315702D01*
X3022057Y316357D01*
X3022268Y316557D01*
X3022510Y316719D01*
X3023381Y317590D01*
X3023543Y317832D01*
X3023743Y318043D01*
X3024398Y319086D01*
X3024502Y319358D01*
X3024650Y319608D01*
X3025056Y320771D01*
X3025097Y321059D01*
X3025186Y321337D01*
X3025323Y322561D01*
X3025311Y322707D01*
X3025340Y322850D01*
Y451850D01*
X3025311Y451994D01*
X3025323Y452140D01*
X3025186Y453364D01*
X3025097Y453641D01*
X3025056Y453930D01*
X3024650Y455092D01*
X3024502Y455343D01*
X3024398Y455615D01*
X3023743Y456657D01*
X3023543Y456869D01*
X3023381Y457111D01*
X3022510Y457982D01*
X3022268Y458143D01*
X3022057Y458343D01*
X3021014Y458998D01*
X3020742Y459102D01*
X3020492Y459250D01*
X3019329Y459657D01*
X3019041Y459697D01*
X3018764Y459786D01*
X3017540Y459924D01*
X3017394Y459911D01*
X3017250Y459940D01*
D02*
G37*
G36*
X2826750Y459940D02*
X2697750D01*
X2697606Y459911D01*
X2697460Y459924D01*
X2696236Y459786D01*
X2695959Y459697D01*
X2695671Y459657D01*
X2694508Y459250D01*
X2694258Y459102D01*
X2693986Y458998D01*
X2692943Y458343D01*
X2692732Y458143D01*
X2692490Y457982D01*
X2691619Y457111D01*
X2691457Y456869D01*
X2691257Y456657D01*
X2690602Y455615D01*
X2690498Y455342D01*
X2690350Y455092D01*
X2689944Y453929D01*
X2689903Y453641D01*
X2689814Y453364D01*
X2689677Y452140D01*
X2689689Y451994D01*
X2689660Y451850D01*
Y322850D01*
X2689689Y322706D01*
X2689677Y322560D01*
X2689814Y321336D01*
X2689903Y321059D01*
X2689944Y320771D01*
X2690350Y319609D01*
X2690498Y319358D01*
X2690602Y319086D01*
X2691257Y318043D01*
X2691457Y317832D01*
X2691619Y317590D01*
X2692490Y316719D01*
X2692732Y316557D01*
X2692943Y316357D01*
X2693986Y315702D01*
X2694258Y315598D01*
X2694508Y315450D01*
X2695671Y315044D01*
X2695959Y315003D01*
X2696236Y314915D01*
X2697460Y314777D01*
X2697606Y314789D01*
X2697750Y314760D01*
X2826750D01*
X2826894Y314789D01*
X2827040Y314777D01*
X2828264Y314915D01*
X2828541Y315003D01*
X2828829Y315044D01*
X2829991Y315450D01*
X2830242Y315598D01*
X2830514Y315702D01*
X2831557Y316357D01*
X2831768Y316557D01*
X2832010Y316719D01*
X2832881Y317590D01*
X2833043Y317832D01*
X2833243Y318043D01*
X2833898Y319086D01*
X2834002Y319358D01*
X2834150Y319608D01*
X2834557Y320771D01*
X2834597Y321059D01*
X2834686Y321337D01*
X2834824Y322561D01*
X2834811Y322707D01*
X2834840Y322850D01*
Y451850D01*
X2834811Y451994D01*
X2834824Y452140D01*
X2834686Y453364D01*
X2834597Y453641D01*
X2834557Y453929D01*
X2834150Y455092D01*
X2834002Y455343D01*
X2833898Y455615D01*
X2833243Y456657D01*
X2833043Y456869D01*
X2832881Y457111D01*
X2832010Y457982D01*
X2831768Y458143D01*
X2831557Y458343D01*
X2830514Y458998D01*
X2830242Y459102D01*
X2829992Y459250D01*
X2828829Y459657D01*
X2828541Y459697D01*
X2828264Y459786D01*
X2827040Y459924D01*
X2826894Y459911D01*
X2826750Y459940D01*
D02*
G37*
G36*
X2636250D02*
X2507250D01*
X2507106Y459911D01*
X2506960Y459924D01*
X2505736Y459786D01*
X2505459Y459697D01*
X2505171Y459657D01*
X2504008Y459250D01*
X2503758Y459102D01*
X2503486Y458998D01*
X2502443Y458343D01*
X2502232Y458143D01*
X2501990Y457982D01*
X2501119Y457111D01*
X2500957Y456869D01*
X2500757Y456657D01*
X2500102Y455615D01*
X2499998Y455342D01*
X2499850Y455092D01*
X2499444Y453929D01*
X2499403Y453641D01*
X2499315Y453364D01*
X2499177Y452140D01*
X2499189Y451994D01*
X2499160Y451850D01*
Y322850D01*
X2499189Y322706D01*
X2499177Y322560D01*
X2499315Y321336D01*
X2499403Y321059D01*
X2499444Y320771D01*
X2499850Y319609D01*
X2499998Y319358D01*
X2500102Y319086D01*
X2500757Y318043D01*
X2500957Y317832D01*
X2501119Y317590D01*
X2501990Y316719D01*
X2502232Y316557D01*
X2502443Y316357D01*
X2503486Y315702D01*
X2503758Y315598D01*
X2504008Y315450D01*
X2505171Y315044D01*
X2505459Y315003D01*
X2505736Y314915D01*
X2506960Y314777D01*
X2507106Y314789D01*
X2507250Y314760D01*
X2636250Y314760D01*
X2636394Y314789D01*
X2636540Y314777D01*
X2637764Y314915D01*
X2638041Y315003D01*
X2638329Y315044D01*
X2639492Y315450D01*
X2639742Y315598D01*
X2640014Y315702D01*
X2641057Y316357D01*
X2641268Y316557D01*
X2641510Y316719D01*
X2642381Y317590D01*
X2642543Y317832D01*
X2642743Y318043D01*
X2643398Y319086D01*
X2643502Y319358D01*
X2643650Y319608D01*
X2644057Y320771D01*
X2644097Y321059D01*
X2644186Y321337D01*
X2644323Y322561D01*
X2644311Y322706D01*
X2644340Y322850D01*
Y451850D01*
X2644311Y451994D01*
X2644323Y452140D01*
X2644186Y453364D01*
X2644097Y453641D01*
X2644057Y453929D01*
X2643650Y455092D01*
X2643502Y455343D01*
X2643398Y455615D01*
X2642743Y456657D01*
X2642543Y456869D01*
X2642381Y457111D01*
X2641510Y457982D01*
X2641268Y458143D01*
X2641057Y458343D01*
X2640014Y458998D01*
X2639742Y459102D01*
X2639492Y459250D01*
X2638329Y459657D01*
X2638041Y459697D01*
X2637764Y459786D01*
X2636540Y459924D01*
X2636394Y459911D01*
X2636250Y459940D01*
D02*
G37*
G36*
X2326687Y459940D02*
X2173875D01*
X2173731Y459911D01*
X2173585Y459924D01*
X2172361Y459786D01*
X2172084Y459697D01*
X2171796Y459657D01*
X2170633Y459250D01*
X2170383Y459102D01*
X2170111Y458998D01*
X2169068Y458343D01*
X2168857Y458143D01*
X2168615Y457982D01*
X2167744Y457111D01*
X2167582Y456869D01*
X2167382Y456657D01*
X2166727Y455615D01*
X2166623Y455342D01*
X2166475Y455092D01*
X2166069Y453929D01*
X2166028Y453641D01*
X2165940Y453364D01*
X2165802Y452140D01*
X2165814Y451994D01*
X2165785Y451850D01*
Y322850D01*
X2165814Y322706D01*
X2165802Y322560D01*
X2165940Y321336D01*
X2166028Y321059D01*
X2166069Y320771D01*
X2166475Y319609D01*
X2166623Y319358D01*
X2166727Y319086D01*
X2167382Y318043D01*
X2167582Y317832D01*
X2167744Y317590D01*
X2168615Y316719D01*
X2168857Y316557D01*
X2169068Y316357D01*
X2170111Y315702D01*
X2170383Y315598D01*
X2170633Y315450D01*
X2171796Y315044D01*
X2172084Y315003D01*
X2172361Y314915D01*
X2173585Y314777D01*
X2173731Y314789D01*
X2173875Y314760D01*
X2326687Y314760D01*
X2326831Y314789D01*
X2326978Y314777D01*
X2328201Y314915D01*
X2328479Y315003D01*
X2328767Y315044D01*
X2329929Y315450D01*
X2330180Y315598D01*
X2330452Y315702D01*
X2331495Y316357D01*
X2331706Y316557D01*
X2331948Y316719D01*
X2332819Y317590D01*
X2332981Y317832D01*
X2333181Y318043D01*
X2333836Y319086D01*
X2333939Y319358D01*
X2334087Y319608D01*
X2334494Y320771D01*
X2334535Y321059D01*
X2334623Y321336D01*
X2334761Y322560D01*
X2334749Y322706D01*
X2334777Y322850D01*
Y451850D01*
X2334749Y451994D01*
X2334761Y452140D01*
X2334623Y453364D01*
X2334535Y453641D01*
X2334494Y453929D01*
X2334087Y455092D01*
X2333939Y455342D01*
X2333836Y455614D01*
X2333181Y456657D01*
X2332981Y456869D01*
X2332819Y457111D01*
X2331948Y457982D01*
X2331706Y458143D01*
X2331495Y458343D01*
X2330452Y458998D01*
X2330180Y459102D01*
X2329929Y459250D01*
X2328767Y459657D01*
X2328479Y459697D01*
X2328201Y459786D01*
X2326978Y459924D01*
X2326831Y459911D01*
X2326687Y459940D01*
D02*
G37*
G36*
X1493250Y459940D02*
X1245188D01*
X1245044Y459911D01*
X1244898Y459924D01*
X1243674Y459786D01*
X1243396Y459697D01*
X1243108Y459657D01*
X1241946Y459250D01*
X1241695Y459102D01*
X1241423Y458998D01*
X1240380Y458343D01*
X1240169Y458143D01*
X1239927Y457981D01*
X1239056Y457111D01*
X1238895Y456869D01*
X1238695Y456657D01*
X1238039Y455614D01*
X1237936Y455342D01*
X1237788Y455092D01*
X1237381Y453929D01*
X1237340Y453641D01*
X1237252Y453364D01*
X1237114Y452140D01*
X1237126Y451994D01*
X1237098Y451850D01*
Y322600D01*
X1237126Y322456D01*
X1237114Y322310D01*
X1237246Y321142D01*
X1237334Y320865D01*
X1237375Y320577D01*
X1237763Y319467D01*
X1237911Y319216D01*
X1238015Y318944D01*
X1238640Y317949D01*
X1238840Y317738D01*
X1239002Y317496D01*
X1239833Y316664D01*
X1240075Y316503D01*
X1240286Y316303D01*
X1241282Y315677D01*
X1241554Y315574D01*
X1241804Y315426D01*
X1242914Y315037D01*
X1243202Y314997D01*
X1243479Y314908D01*
X1244648Y314777D01*
X1244794Y314789D01*
X1244938Y314760D01*
X1493250Y314760D01*
X1493394Y314789D01*
X1493540Y314777D01*
X1494764Y314915D01*
X1495041Y315003D01*
X1495329Y315044D01*
X1496492Y315450D01*
X1496742Y315598D01*
X1497014Y315702D01*
X1498057Y316357D01*
X1498269Y316557D01*
X1498510Y316719D01*
X1499381Y317590D01*
X1499543Y317832D01*
X1499743Y318043D01*
X1500398Y319086D01*
X1500502Y319358D01*
X1500650Y319608D01*
X1501057Y320771D01*
X1501097Y321059D01*
X1501186Y321336D01*
X1501324Y322560D01*
X1501311Y322706D01*
X1501340Y322850D01*
Y451850D01*
X1501311Y451994D01*
X1501324Y452140D01*
X1501186Y453364D01*
X1501097Y453641D01*
X1501057Y453929D01*
X1500650Y455092D01*
X1500502Y455342D01*
X1500398Y455614D01*
X1499743Y456657D01*
X1499543Y456869D01*
X1499381Y457110D01*
X1498510Y457981D01*
X1498269Y458143D01*
X1498057Y458343D01*
X1497014Y458998D01*
X1496742Y459102D01*
X1496492Y459250D01*
X1495329Y459657D01*
X1495041Y459697D01*
X1494764Y459786D01*
X1493540Y459924D01*
X1493394Y459911D01*
X1493250Y459940D01*
D02*
G37*
G36*
X683625Y459940D02*
X530812Y459940D01*
X530669Y459911D01*
X530523Y459924D01*
X529299Y459786D01*
X529021Y459697D01*
X528733Y459657D01*
X527571Y459250D01*
X527320Y459102D01*
X527048Y458998D01*
X526006Y458343D01*
X525794Y458143D01*
X525552Y457981D01*
X524681Y457110D01*
X524520Y456869D01*
X524320Y456657D01*
X523664Y455614D01*
X523561Y455342D01*
X523413Y455092D01*
X523006Y453929D01*
X522965Y453641D01*
X522877Y453364D01*
X522739Y452140D01*
X522751Y451994D01*
X522723Y451850D01*
Y322850D01*
X522751Y322706D01*
X522739Y322560D01*
X522877Y321336D01*
X522965Y321059D01*
X523006Y320771D01*
X523413Y319608D01*
X523561Y319358D01*
X523664Y319086D01*
X524320Y318043D01*
X524520Y317832D01*
X524681Y317590D01*
X525552Y316719D01*
X525794Y316557D01*
X526006Y316357D01*
X527048Y315702D01*
X527320Y315598D01*
X527571Y315450D01*
X528733Y315044D01*
X529021Y315003D01*
X529299Y314914D01*
X530522Y314777D01*
X530669Y314789D01*
X530812Y314760D01*
X683625D01*
X683769Y314789D01*
X683915Y314777D01*
X685139Y314914D01*
X685416Y315003D01*
X685704Y315044D01*
X686867Y315450D01*
X687117Y315598D01*
X687389Y315702D01*
X688432Y316357D01*
X688644Y316557D01*
X688885Y316719D01*
X689756Y317590D01*
X689918Y317832D01*
X690118Y318043D01*
X690773Y319086D01*
X690877Y319358D01*
X691025Y319608D01*
X691432Y320771D01*
X691472Y321059D01*
X691561Y321336D01*
X691699Y322560D01*
X691686Y322706D01*
X691715Y322850D01*
Y451850D01*
X691686Y451994D01*
X691699Y452140D01*
X691561Y453364D01*
X691472Y453641D01*
X691432Y453929D01*
X691025Y455092D01*
X690877Y455342D01*
X690773Y455614D01*
X690118Y456657D01*
X689918Y456869D01*
X689756Y457110D01*
X688885Y457981D01*
X688644Y458143D01*
X688432Y458343D01*
X687389Y458998D01*
X687117Y459102D01*
X686867Y459250D01*
X685704Y459657D01*
X685416Y459697D01*
X685139Y459786D01*
X683915Y459924D01*
X683769Y459911D01*
X683625Y459940D01*
D02*
G37*
G36*
X445500Y459940D02*
X292687D01*
X292544Y459911D01*
X292397Y459924D01*
X291174Y459786D01*
X290896Y459697D01*
X290608Y459657D01*
X289446Y459250D01*
X289195Y459102D01*
X288923Y458998D01*
X287880Y458343D01*
X287669Y458143D01*
X287427Y457981D01*
X286556Y457110D01*
X286395Y456869D01*
X286195Y456657D01*
X285539Y455614D01*
X285436Y455342D01*
X285288Y455092D01*
X284881Y453929D01*
X284840Y453641D01*
X284752Y453364D01*
X284614Y452140D01*
X284626Y451994D01*
X284598Y451850D01*
X284598Y322850D01*
X284626Y322706D01*
X284614Y322560D01*
X284752Y321336D01*
X284840Y321059D01*
X284881Y320771D01*
X285288Y319608D01*
X285436Y319358D01*
X285539Y319086D01*
X286195Y318043D01*
X286395Y317832D01*
X286556Y317590D01*
X287427Y316719D01*
X287669Y316557D01*
X287880Y316357D01*
X288923Y315702D01*
X289195Y315598D01*
X289446Y315450D01*
X290608Y315044D01*
X290896Y315003D01*
X291174Y314914D01*
X292397Y314777D01*
X292544Y314789D01*
X292687Y314760D01*
X445500D01*
X445644Y314789D01*
X445790Y314777D01*
X447014Y314914D01*
X447291Y315003D01*
X447579Y315044D01*
X448742Y315450D01*
X448992Y315598D01*
X449264Y315702D01*
X450307Y316357D01*
X450518Y316557D01*
X450760Y316719D01*
X451631Y317590D01*
X451793Y317831D01*
X451993Y318043D01*
X452648Y319086D01*
X452752Y319358D01*
X452900Y319608D01*
X453307Y320771D01*
X453347Y321059D01*
X453436Y321336D01*
X453573Y322560D01*
X453561Y322706D01*
X453590Y322850D01*
Y451850D01*
X453561Y451994D01*
X453573Y452140D01*
X453436Y453364D01*
X453347Y453641D01*
X453307Y453929D01*
X452900Y455092D01*
X452752Y455342D01*
X452648Y455614D01*
X451993Y456657D01*
X451793Y456869D01*
X451631Y457110D01*
X450760Y457981D01*
X450518Y458143D01*
X450307Y458343D01*
X449264Y458998D01*
X448993Y459102D01*
X448742Y459250D01*
X447579Y459657D01*
X447291Y459697D01*
X447014Y459786D01*
X445790Y459924D01*
X445644Y459911D01*
X445500Y459940D01*
D02*
G37*
G36*
X207375D02*
X54563Y459940D01*
X54419Y459911D01*
X54273Y459924D01*
X53049Y459786D01*
X52771Y459697D01*
X52483Y459656D01*
X51321Y459250D01*
X51070Y459102D01*
X50798Y458998D01*
X49756Y458343D01*
X49544Y458143D01*
X49302Y457981D01*
X48431Y457110D01*
X48270Y456868D01*
X48070Y456657D01*
X47414Y455614D01*
X47311Y455342D01*
X47163Y455092D01*
X46756Y453929D01*
X46715Y453641D01*
X46627Y453364D01*
X46489Y452140D01*
X46501Y451994D01*
X46473Y451850D01*
X46473Y322850D01*
X46501Y322706D01*
X46489Y322560D01*
X46627Y321336D01*
X46715Y321059D01*
X46756Y320771D01*
X47163Y319608D01*
X47311Y319358D01*
X47414Y319086D01*
X48070Y318043D01*
X48270Y317832D01*
X48431Y317590D01*
X49302Y316719D01*
X49544Y316557D01*
X49756Y316357D01*
X50799Y315702D01*
X51070Y315598D01*
X51321Y315450D01*
X52483Y315044D01*
X52771Y315003D01*
X53049Y314914D01*
X54272Y314776D01*
X54419Y314789D01*
X54563Y314760D01*
X207375D01*
X207519Y314789D01*
X207665Y314776D01*
X208889Y314914D01*
X209166Y315003D01*
X209454Y315044D01*
X210617Y315450D01*
X210867Y315598D01*
X211139Y315702D01*
X212182Y316357D01*
X212393Y316557D01*
X212635Y316719D01*
X213506Y317589D01*
X213668Y317831D01*
X213868Y318043D01*
X214523Y319086D01*
X214627Y319358D01*
X214775Y319608D01*
X215182Y320771D01*
X215222Y321059D01*
X215311Y321336D01*
X215448Y322560D01*
X215436Y322706D01*
X215465Y322850D01*
X215465Y451850D01*
X215436Y451994D01*
X215448Y452140D01*
X215311Y453364D01*
X215222Y453641D01*
X215182Y453929D01*
X214775Y455092D01*
X214627Y455342D01*
X214523Y455614D01*
X213868Y456657D01*
X213668Y456869D01*
X213506Y457110D01*
X212635Y457981D01*
X212393Y458143D01*
X212182Y458343D01*
X211139Y458998D01*
X210867Y459102D01*
X210617Y459250D01*
X209454Y459657D01*
X209166Y459697D01*
X208889Y459786D01*
X207665Y459924D01*
X207519Y459911D01*
X207375Y459940D01*
D02*
G37*
G36*
X2930460Y294690D02*
X2325290Y294690D01*
X2325146Y294661D01*
X2325000Y294674D01*
X2323276Y294479D01*
X2322998Y294391D01*
X2322710Y294350D01*
X2321072Y293777D01*
X2320821Y293629D01*
X2320549Y293526D01*
X2319080Y292602D01*
X2318869Y292402D01*
X2318627Y292241D01*
X2317400Y291014D01*
X2317238Y290772D01*
X2317038Y290560D01*
X2316115Y289091D01*
X2316011Y288819D01*
X2315863Y288568D01*
X2315290Y286930D01*
X2315249Y286642D01*
X2315161Y286365D01*
X2314967Y284640D01*
X2314979Y284494D01*
X2314950Y284350D01*
Y277100D01*
X2314979Y276956D01*
X2314967Y276810D01*
X2315161Y275086D01*
X2315249Y274809D01*
X2315290Y274520D01*
X2315863Y272882D01*
X2316011Y272632D01*
X2316115Y272360D01*
X2317038Y270890D01*
X2317238Y270679D01*
X2317400Y270437D01*
X2318627Y269210D01*
X2318869Y269048D01*
X2319080Y268848D01*
X2320549Y267925D01*
X2320821Y267821D01*
X2321072Y267673D01*
X2322710Y267100D01*
X2322998Y267059D01*
X2323276Y266971D01*
X2325000Y266777D01*
X2325146Y266789D01*
X2325290Y266761D01*
X2667836Y266761D01*
X2669110Y266619D01*
X2670185Y266248D01*
X2671152Y265650D01*
X2671965Y264854D01*
X2672582Y263899D01*
X2672975Y262831D01*
X2673123Y261704D01*
X2672995Y260291D01*
X2672673Y256987D01*
X2672700Y256718D01*
X2672677Y256448D01*
X2673047Y253139D01*
X2673129Y252881D01*
X2673162Y252613D01*
X2674209Y249452D01*
X2674343Y249216D01*
X2674431Y248961D01*
X2676110Y246085D01*
X2676289Y245882D01*
X2676428Y245650D01*
X2678665Y243184D01*
X2678883Y243023D01*
X2679067Y242825D01*
X2681767Y240875D01*
X2682013Y240763D01*
X2682234Y240607D01*
X2685279Y239258D01*
X2685543Y239199D01*
X2685792Y239093D01*
X2689049Y238403D01*
X2689319Y238400D01*
X2689585Y238347D01*
X2692915D01*
X2693180Y238400D01*
X2693451Y238403D01*
X2696709Y239093D01*
X2696957Y239199D01*
X2697221Y239258D01*
X2700266Y240607D01*
X2700487Y240763D01*
X2700733Y240875D01*
X2703433Y242825D01*
X2703617Y243023D01*
X2703835Y243184D01*
X2706072Y245650D01*
X2706211Y245882D01*
X2706390Y246085D01*
X2708069Y248961D01*
X2708157Y249216D01*
X2708291Y249452D01*
X2709338Y252613D01*
X2709371Y252881D01*
X2709453Y253139D01*
X2709823Y256448D01*
X2709800Y256718D01*
X2709827Y256987D01*
X2709505Y260294D01*
X2709377Y261704D01*
X2709525Y262831D01*
X2709918Y263899D01*
X2710535Y264854D01*
X2711348Y265650D01*
X2712315Y266248D01*
X2713390Y266619D01*
X2714664Y266761D01*
X2930460Y266761D01*
X2930604Y266789D01*
X2930750Y266777D01*
X2932474Y266971D01*
X2932752Y267059D01*
X2933040Y267100D01*
X2934678Y267673D01*
X2934929Y267821D01*
X2935201Y267925D01*
X2936670Y268848D01*
X2936881Y269048D01*
X2937123Y269210D01*
X2938351Y270437D01*
X2938512Y270679D01*
X2938712Y270890D01*
X2939635Y272360D01*
X2939739Y272632D01*
X2939887Y272882D01*
X2940460Y274520D01*
X2940501Y274809D01*
X2940589Y275086D01*
X2940783Y276810D01*
X2940771Y276956D01*
X2940800Y277100D01*
Y284350D01*
X2940771Y284494D01*
X2940783Y284640D01*
X2940589Y286365D01*
X2940501Y286642D01*
X2940460Y286930D01*
X2939887Y288568D01*
X2939739Y288819D01*
X2939635Y289091D01*
X2938712Y290560D01*
X2938512Y290772D01*
X2938351Y291014D01*
X2937123Y292241D01*
X2936881Y292402D01*
X2936670Y292602D01*
X2935201Y293526D01*
X2934929Y293629D01*
X2934678Y293777D01*
X2933040Y294350D01*
X2932752Y294391D01*
X2932474Y294479D01*
X2930750Y294674D01*
X2930604Y294661D01*
X2930460Y294690D01*
D02*
G37*
G36*
X1889960Y294690D02*
X1158040Y294690D01*
X1157896Y294661D01*
X1157750Y294674D01*
X1156025Y294479D01*
X1155748Y294391D01*
X1155460Y294350D01*
X1153822Y293777D01*
X1153571Y293629D01*
X1153299Y293525D01*
X1151830Y292602D01*
X1151619Y292402D01*
X1151377Y292241D01*
X1150150Y291013D01*
X1149988Y290772D01*
X1149788Y290560D01*
X1148865Y289091D01*
X1148761Y288819D01*
X1148613Y288568D01*
X1148040Y286930D01*
X1147999Y286642D01*
X1147911Y286365D01*
X1147717Y284640D01*
X1147729Y284494D01*
X1147700Y284350D01*
Y277100D01*
X1147729Y276956D01*
X1147717Y276810D01*
X1147911Y275086D01*
X1147999Y274808D01*
X1148040Y274520D01*
X1148613Y272882D01*
X1148761Y272632D01*
X1148865Y272360D01*
X1149788Y270890D01*
X1149988Y270679D01*
X1150150Y270437D01*
X1151377Y269210D01*
X1151619Y269048D01*
X1151830Y268848D01*
X1153300Y267925D01*
X1153571Y267821D01*
X1153822Y267673D01*
X1155460Y267100D01*
X1155748Y267059D01*
X1156026Y266971D01*
X1157750Y266777D01*
X1157896Y266789D01*
X1158040Y266760D01*
X1500586Y266760D01*
X1501860Y266619D01*
X1502935Y266248D01*
X1503902Y265650D01*
X1504715Y264854D01*
X1505332Y263899D01*
X1505725Y262831D01*
X1505873Y261704D01*
X1505745Y260292D01*
X1505423Y256987D01*
X1505450Y256718D01*
X1505427Y256448D01*
X1505797Y253139D01*
X1505879Y252881D01*
X1505912Y252613D01*
X1506959Y249452D01*
X1507093Y249216D01*
X1507181Y248961D01*
X1508859Y246085D01*
X1509039Y245882D01*
X1509178Y245650D01*
X1511416Y243184D01*
X1511633Y243023D01*
X1511817Y242825D01*
X1514517Y240875D01*
X1514763Y240763D01*
X1514984Y240607D01*
X1518029Y239258D01*
X1518293Y239199D01*
X1518542Y239093D01*
X1521799Y238403D01*
X1522070Y238400D01*
X1522335Y238347D01*
X1525665D01*
X1525930Y238400D01*
X1526201Y238403D01*
X1529459Y239093D01*
X1529707Y239199D01*
X1529971Y239258D01*
X1533016Y240607D01*
X1533237Y240763D01*
X1533483Y240875D01*
X1536183Y242825D01*
X1536367Y243023D01*
X1536584Y243184D01*
X1538822Y245650D01*
X1538961Y245882D01*
X1539140Y246085D01*
X1540819Y248960D01*
X1540907Y249216D01*
X1541041Y249452D01*
X1542088Y252613D01*
X1542121Y252881D01*
X1542203Y253139D01*
X1542573Y256448D01*
X1542550Y256718D01*
X1542577Y256987D01*
X1542255Y260294D01*
X1542127Y261704D01*
X1542275Y262831D01*
X1542668Y263899D01*
X1543285Y264854D01*
X1544098Y265650D01*
X1545065Y266248D01*
X1546140Y266619D01*
X1547414Y266760D01*
X1889960Y266761D01*
X1890104Y266789D01*
X1890250Y266777D01*
X1891974Y266971D01*
X1892252Y267059D01*
X1892540Y267100D01*
X1894178Y267673D01*
X1894429Y267821D01*
X1894701Y267925D01*
X1896170Y268848D01*
X1896381Y269048D01*
X1896623Y269210D01*
X1897850Y270437D01*
X1898012Y270679D01*
X1898212Y270890D01*
X1899135Y272360D01*
X1899239Y272632D01*
X1899387Y272882D01*
X1899960Y274520D01*
X1900001Y274808D01*
X1900089Y275086D01*
X1900284Y276810D01*
X1900271Y276956D01*
X1900300Y277100D01*
Y284350D01*
X1900271Y284494D01*
X1900284Y284640D01*
X1900089Y286365D01*
X1900001Y286642D01*
X1899960Y286930D01*
X1899387Y288568D01*
X1899239Y288819D01*
X1899135Y289091D01*
X1898212Y290560D01*
X1898012Y290772D01*
X1897850Y291014D01*
X1896623Y292241D01*
X1896381Y292402D01*
X1896170Y292602D01*
X1894701Y293525D01*
X1894429Y293629D01*
X1894178Y293777D01*
X1892540Y294350D01*
X1892252Y294391D01*
X1891974Y294479D01*
X1890250Y294674D01*
X1890104Y294661D01*
X1889960Y294690D01*
D02*
G37*
G36*
X722710Y294690D02*
X117540Y294690D01*
X117396Y294661D01*
X117250Y294674D01*
X115526Y294479D01*
X115248Y294391D01*
X114960Y294350D01*
X113322Y293777D01*
X113071Y293629D01*
X112800Y293525D01*
X111330Y292602D01*
X111119Y292402D01*
X110877Y292240D01*
X109650Y291013D01*
X109488Y290771D01*
X109288Y290560D01*
X108365Y289090D01*
X108261Y288819D01*
X108113Y288568D01*
X107540Y286930D01*
X107499Y286642D01*
X107411Y286365D01*
X107217Y284640D01*
X107229Y284494D01*
X107200Y284350D01*
Y277100D01*
X107229Y276956D01*
X107217Y276810D01*
X107411Y275086D01*
X107499Y274808D01*
X107540Y274520D01*
X108113Y272882D01*
X108261Y272631D01*
X108365Y272360D01*
X109288Y270890D01*
X109488Y270679D01*
X109650Y270437D01*
X110877Y269210D01*
X111119Y269048D01*
X111330Y268848D01*
X112800Y267925D01*
X113071Y267821D01*
X113322Y267673D01*
X114960Y267100D01*
X115248Y267059D01*
X115526Y266971D01*
X117250Y266777D01*
X117396Y266789D01*
X117540Y266760D01*
X333336Y266760D01*
X334610Y266619D01*
X335685Y266248D01*
X336652Y265650D01*
X337465Y264853D01*
X338082Y263899D01*
X338475Y262831D01*
X338623Y261704D01*
X338495Y260289D01*
X338173Y256987D01*
X338200Y256718D01*
X338177Y256448D01*
X338547Y253139D01*
X338629Y252881D01*
X338662Y252612D01*
X339709Y249452D01*
X339843Y249216D01*
X339931Y248960D01*
X341610Y246085D01*
X341789Y245882D01*
X341928Y245650D01*
X344166Y243184D01*
X344383Y243023D01*
X344567Y242825D01*
X347267Y240875D01*
X347513Y240763D01*
X347734Y240607D01*
X350779Y239258D01*
X351043Y239199D01*
X351291Y239092D01*
X354549Y238403D01*
X354820Y238400D01*
X355085Y238347D01*
X358415D01*
X358680Y238400D01*
X358951Y238403D01*
X362209Y239092D01*
X362457Y239199D01*
X362721Y239258D01*
X365766Y240607D01*
X365987Y240763D01*
X366233Y240875D01*
X368933Y242825D01*
X369117Y243023D01*
X369334Y243184D01*
X371572Y245650D01*
X371711Y245882D01*
X371891Y246085D01*
X373569Y248960D01*
X373657Y249216D01*
X373791Y249452D01*
X374838Y252613D01*
X374871Y252881D01*
X374953Y253139D01*
X375323Y256448D01*
X375300Y256718D01*
X375327Y256987D01*
X375005Y260292D01*
X374877Y261704D01*
X375025Y262831D01*
X375418Y263899D01*
X376035Y264853D01*
X376848Y265650D01*
X377815Y266248D01*
X378890Y266619D01*
X380164Y266760D01*
X722710Y266760D01*
X722854Y266789D01*
X723000Y266777D01*
X724725Y266971D01*
X725002Y267059D01*
X725290Y267100D01*
X726928Y267673D01*
X727179Y267821D01*
X727450Y267925D01*
X728920Y268848D01*
X729131Y269048D01*
X729373Y269210D01*
X730601Y270437D01*
X730762Y270679D01*
X730962Y270890D01*
X731885Y272360D01*
X731989Y272631D01*
X732137Y272882D01*
X732710Y274520D01*
X732751Y274808D01*
X732839Y275086D01*
X733034Y276810D01*
X733021Y276956D01*
X733050Y277100D01*
Y284350D01*
X733021Y284494D01*
X733034Y284640D01*
X732839Y286365D01*
X732751Y286642D01*
X732710Y286930D01*
X732137Y288568D01*
X731989Y288819D01*
X731885Y289091D01*
X730962Y290560D01*
X730762Y290771D01*
X730601Y291013D01*
X729373Y292241D01*
X729131Y292402D01*
X728920Y292602D01*
X727450Y293525D01*
X727179Y293629D01*
X726928Y293777D01*
X725290Y294350D01*
X725002Y294391D01*
X724725Y294479D01*
X723000Y294674D01*
X722854Y294661D01*
X722710Y294690D01*
D02*
G37*
%LPD*%
M02*
