%TF.GenerationSoftware,Altium Limited,Altium Designer,21.6.4 (81)*%
G04 Layer_Color=0*
%FSLAX45Y45*%
%MOMM*%
%TF.SameCoordinates,9FA947FD-24AC-44E9-AB3F-4C708A796988*%
%TF.FilePolarity,Positive*%
%TF.FileFunction,Profile,NP*%
%TF.Part,Single*%
G01*
G75*
%TA.AperFunction,Profile*%
%ADD11C,0.02540*%
G36*
X28179163Y5796064D02*
Y4506064D01*
X28177786Y4493825D01*
X28173718Y4482201D01*
X28167166Y4471772D01*
X28158456Y4463063D01*
X28148029Y4456511D01*
X28136401Y4452443D01*
X28124164Y4451064D01*
X26834164D01*
X26821927Y4452443D01*
X26810300Y4456511D01*
X26799872Y4463063D01*
X26791165Y4471772D01*
X26784610Y4482200D01*
X26780545Y4493825D01*
X26779166Y4506064D01*
Y5796064D01*
X26780545Y5808303D01*
X26784610Y5819927D01*
X26791165Y5830356D01*
X26799872Y5839065D01*
X26810300Y5845617D01*
X26821927Y5849685D01*
X26834164Y5851064D01*
X28124164D01*
X28136401Y5849686D01*
X28148029Y5845617D01*
X28158456Y5839065D01*
X28167166Y5830356D01*
X28173718Y5819928D01*
X28177786Y5808303D01*
X28179163Y5796064D01*
D02*
G37*
G36*
X29131665Y7701064D02*
Y6411064D01*
X29130286Y6398825D01*
X29126218Y6387201D01*
X29119666Y6376772D01*
X29110956Y6368063D01*
X29100528Y6361511D01*
X29088901Y6357443D01*
X29076663Y6356064D01*
X27786664D01*
X27774426Y6357443D01*
X27762802Y6361511D01*
X27752374Y6368063D01*
X27743665Y6376772D01*
X27737109Y6387200D01*
X27733044Y6398825D01*
X27731665Y6411064D01*
Y7701064D01*
X27733041Y7713302D01*
X27737109Y7724927D01*
X27743665Y7735356D01*
X27752374Y7744065D01*
X27762802Y7750617D01*
X27774426Y7754685D01*
X27786664Y7756064D01*
X29076663Y7756065D01*
X29088901Y7754685D01*
X29100528Y7750618D01*
X29110956Y7744065D01*
X29119666Y7735357D01*
X29126218Y7724927D01*
X29130283Y7713303D01*
X29131665Y7701064D01*
D02*
G37*
G36*
X25405414Y9661064D02*
X26695413D01*
X26707651Y9659685D01*
X26719278Y9655617D01*
X26729706Y9649065D01*
X26738416Y9640356D01*
X26744968Y9629927D01*
X26749033Y9618302D01*
X26750415Y9606064D01*
Y8316064D01*
X26749033Y8303825D01*
X26744968Y8292201D01*
X26738416Y8281772D01*
X26729706Y8273063D01*
X26719278Y8266510D01*
X26707651Y8262443D01*
X26695413Y8261063D01*
X25405414D01*
X25393175Y8262443D01*
X25381551Y8266510D01*
X25371123Y8273063D01*
X25362415Y8281772D01*
X25355859Y8292201D01*
X25351793Y8303825D01*
X25350414Y8316064D01*
Y9606064D01*
X25351793Y9618302D01*
X25355859Y9629927D01*
X25362415Y9640356D01*
X25371123Y9649065D01*
X25381551Y9655617D01*
X25393175Y9659685D01*
X25405414Y9661064D01*
D02*
G37*
G36*
X24840414Y2646064D02*
X24817050Y2648697D01*
X24794856Y2656462D01*
X24774948Y2668972D01*
X24758322Y2685598D01*
X24745813Y2705506D01*
X24738046Y2727699D01*
X24735416Y2751064D01*
Y4041064D01*
X24738046Y4064428D01*
X24745813Y4086622D01*
X24758322Y4106530D01*
X24774948Y4123156D01*
X24794856Y4135666D01*
X24817050Y4143431D01*
X24840414Y4146064D01*
X25355414D01*
X25378780Y4143431D01*
X25400974Y4135666D01*
X25420882Y4123156D01*
X25437508Y4106530D01*
X25450015Y4086622D01*
X25457782Y4064429D01*
X25460416Y4041064D01*
Y2751064D01*
X25457782Y2727699D01*
X25450015Y2705506D01*
X25437508Y2685598D01*
X25420882Y2668972D01*
X25400974Y2656462D01*
X25378780Y2648697D01*
X25355414Y2646064D01*
X24840414D01*
D02*
G37*
G36*
X25797913Y11511064D02*
Y10221064D01*
X25796536Y10208825D01*
X25792468Y10197201D01*
X25785916Y10186772D01*
X25777206Y10178063D01*
X25766779Y10171510D01*
X25755151Y10167443D01*
X25742914Y10166063D01*
X24452914D01*
X24440675Y10167442D01*
X24429050Y10171510D01*
X24418622Y10178063D01*
X24409914Y10186772D01*
X24403360Y10197200D01*
X24399292Y10208825D01*
X24397914Y10221064D01*
Y11511064D01*
X24399292Y11523302D01*
X24403360Y11534927D01*
X24409914Y11545356D01*
X24418622Y11554065D01*
X24429050Y11560617D01*
X24440675Y11564685D01*
X24452914Y11566064D01*
X25742914D01*
X25755151Y11564685D01*
X25766779Y11560617D01*
X25777206Y11554065D01*
X25785916Y11545356D01*
X25792468Y11534927D01*
X25796536Y11523302D01*
X25797913Y11511064D01*
D02*
G37*
G36*
X23416664Y7701064D02*
X23416666Y6411064D01*
X23415285Y6398825D01*
X23411218Y6387200D01*
X23404665Y6376772D01*
X23395956Y6368063D01*
X23385529Y6361510D01*
X23373903Y6357443D01*
X23361665Y6356063D01*
X22071664D01*
X22059425Y6357442D01*
X22047801Y6361510D01*
X22037373Y6368063D01*
X22028664Y6376772D01*
X22022112Y6387200D01*
X22018044Y6398825D01*
X22016666Y6411064D01*
X22016664Y7701064D01*
X22018044Y7713302D01*
X22022110Y7724927D01*
X22028664Y7735356D01*
X22037372Y7744064D01*
X22047801Y7750617D01*
X22059425Y7754685D01*
X22071664Y7756064D01*
X23361664D01*
X23373901Y7754685D01*
X23385529Y7750617D01*
X23395956Y7744065D01*
X23404665Y7735356D01*
X23411217Y7724927D01*
X23415285Y7713302D01*
X23416664Y7701064D01*
D02*
G37*
G36*
X22940414Y9606064D02*
Y8316064D01*
X22939035Y8303825D01*
X22934967Y8292200D01*
X22928415Y8281772D01*
X22919707Y8273063D01*
X22909277Y8266510D01*
X22897652Y8262442D01*
X22885414Y8261063D01*
X21595415D01*
X21583176Y8262442D01*
X21571552Y8266510D01*
X21561122Y8273062D01*
X21552414Y8281772D01*
X21545860Y8292200D01*
X21541792Y8303825D01*
X21540414Y8316064D01*
Y9606064D01*
X21541792Y9618302D01*
X21545860Y9629927D01*
X21552414Y9640356D01*
X21561122Y9649064D01*
X21571552Y9655617D01*
X21583176Y9659685D01*
X21595415Y9661064D01*
X22885414D01*
X22897652Y9659685D01*
X22909277Y9655617D01*
X22919707Y9649065D01*
X22928415Y9640356D01*
X22934967Y9629927D01*
X22939035Y9618302D01*
X22940414Y9606064D01*
D02*
G37*
G36*
X25321664Y7701064D02*
X25321664Y6411064D01*
X25320285Y6398825D01*
X25316219Y6387200D01*
X25309665Y6376772D01*
X25300957Y6368063D01*
X25290527Y6361511D01*
X25278903Y6357443D01*
X25266666Y6356064D01*
X23976665Y6356063D01*
X23964426Y6357443D01*
X23952802Y6361510D01*
X23942374Y6368063D01*
X23933664Y6376772D01*
X23927110Y6387200D01*
X23923042Y6398825D01*
X23921664Y6411064D01*
X23921664Y7701064D01*
X23923042Y7713302D01*
X23927110Y7724927D01*
X23933664Y7735356D01*
X23942372Y7744065D01*
X23952802Y7750617D01*
X23964426Y7754685D01*
X23976665Y7756064D01*
X25266664D01*
X25278902Y7754685D01*
X25290527Y7750617D01*
X25300957Y7744065D01*
X25309665Y7735356D01*
X25316217Y7724927D01*
X25320285Y7713302D01*
X25321664Y7701064D01*
D02*
G37*
G36*
X21987914Y11511064D02*
Y10221064D01*
X21986536Y10208825D01*
X21982468Y10197200D01*
X21975916Y10186772D01*
X21967206Y10178062D01*
X21956778Y10171510D01*
X21945152Y10167442D01*
X21932915Y10166063D01*
X20642914D01*
X20630675Y10167442D01*
X20619051Y10171510D01*
X20608623Y10178062D01*
X20599915Y10186772D01*
X20593359Y10197200D01*
X20589291Y10208825D01*
X20587914Y10221064D01*
Y11511064D01*
X20589291Y11523302D01*
X20593359Y11534926D01*
X20599915Y11545356D01*
X20608623Y11554064D01*
X20619051Y11560617D01*
X20630675Y11564684D01*
X20642914Y11566064D01*
X21932915D01*
X21945152Y11564684D01*
X21956778Y11560617D01*
X21967206Y11554064D01*
X21975916Y11545356D01*
X21982468Y11534926D01*
X21986536Y11523302D01*
X21987914Y11511064D01*
D02*
G37*
G36*
X21511664Y7701064D02*
X21511665Y6411064D01*
X21510284Y6398825D01*
X21506218Y6387200D01*
X21499664Y6376772D01*
X21490958Y6368063D01*
X21480528Y6361510D01*
X21468903Y6357442D01*
X21456665Y6356063D01*
X20166666D01*
X20154427Y6357442D01*
X20142801Y6361510D01*
X20132373Y6368063D01*
X20123663Y6376772D01*
X20117111Y6387200D01*
X20113043Y6398825D01*
X20111665Y6411064D01*
X20111664Y7701064D01*
X20113043Y7713302D01*
X20117110Y7724927D01*
X20123663Y7735356D01*
X20132372Y7744064D01*
X20142801Y7750617D01*
X20154425Y7754685D01*
X20166664Y7756064D01*
X21456664D01*
X21468903Y7754685D01*
X21480528Y7750617D01*
X21490956Y7744064D01*
X21499664Y7735356D01*
X21506216Y7724927D01*
X21510284Y7713302D01*
X21511664Y7701064D01*
D02*
G37*
G36*
X19551665Y6356063D02*
X18261665Y6356063D01*
X18249426Y6357442D01*
X18237801Y6361510D01*
X18227373Y6368062D01*
X18218665Y6376771D01*
X18212111Y6387200D01*
X18208043Y6398824D01*
X18206665Y6411063D01*
X18206664Y7701063D01*
X18208043Y7713302D01*
X18212109Y7724926D01*
X18218665Y7735356D01*
X18227373Y7744064D01*
X18237801Y7750617D01*
X18249425Y7754684D01*
X18261664Y7756064D01*
X19551665D01*
X19563902Y7754685D01*
X19575528Y7750617D01*
X19585956Y7744064D01*
X19594666Y7735356D01*
X19601218Y7724927D01*
X19605286Y7713302D01*
X19606664Y7701064D01*
X19606665Y6411064D01*
X19605286Y6398825D01*
X19601218Y6387200D01*
X19594666Y6376772D01*
X19585957Y6368063D01*
X19575528Y6361510D01*
X19563902Y6357442D01*
X19551665Y6356063D01*
D02*
G37*
G36*
X25881665Y7756064D02*
X27171664D01*
X27183902Y7754685D01*
X27195529Y7750617D01*
X27205957Y7744065D01*
X27214664Y7735356D01*
X27221219Y7724927D01*
X27225284Y7713302D01*
X27226663Y7701064D01*
Y6411064D01*
X27225287Y6398825D01*
X27221219Y6387200D01*
X27214664Y6376772D01*
X27205957Y6368063D01*
X27195529Y6361511D01*
X27183902Y6357443D01*
X27171664Y6356064D01*
X25881665D01*
X25869427Y6357443D01*
X25857800Y6361511D01*
X25847372Y6368063D01*
X25838663Y6376772D01*
X25832111Y6387200D01*
X25828043Y6398825D01*
X25826666Y6411064D01*
X25826663Y7701064D01*
X25828043Y7713302D01*
X25832111Y7724927D01*
X25838663Y7735356D01*
X25847372Y7744065D01*
X25857800Y7750617D01*
X25869424Y7754685D01*
X25881665Y7756064D01*
D02*
G37*
G36*
X16749164Y5796063D02*
Y4506063D01*
X16747784Y4493824D01*
X16743718Y4482200D01*
X16737164Y4471771D01*
X16728456Y4463062D01*
X16718028Y4456510D01*
X16706403Y4452442D01*
X16694164Y4451063D01*
X15404164D01*
X15391927Y4452442D01*
X15380301Y4456510D01*
X15369872Y4463062D01*
X15361163Y4471771D01*
X15354611Y4482199D01*
X15350543Y4493824D01*
X15349164Y4506063D01*
Y5796063D01*
X15350543Y5808302D01*
X15354611Y5819926D01*
X15361163Y5830355D01*
X15369872Y5839064D01*
X15380301Y5845616D01*
X15391927Y5849684D01*
X15404164Y5851063D01*
X16694164D01*
X16706403Y5849685D01*
X16718028Y5845616D01*
X16728456Y5839064D01*
X16737164Y5830355D01*
X16743718Y5819927D01*
X16747784Y5808302D01*
X16749164Y5796063D01*
D02*
G37*
G36*
X17225414Y9606064D02*
Y8316064D01*
X17224036Y8303825D01*
X17219968Y8292200D01*
X17213416Y8281772D01*
X17204706Y8273062D01*
X17194278Y8266510D01*
X17182652Y8262442D01*
X17170415Y8261063D01*
X15880414Y8261062D01*
X15868176Y8262442D01*
X15856551Y8266509D01*
X15846123Y8273062D01*
X15837415Y8281771D01*
X15830861Y8292200D01*
X15826793Y8303824D01*
X15825414Y8316063D01*
Y9606063D01*
X15826793Y9618301D01*
X15830861Y9629926D01*
X15837415Y9640355D01*
X15846123Y9649064D01*
X15856551Y9655616D01*
X15868176Y9659684D01*
X15880414Y9661063D01*
X17170415Y9661064D01*
X17182652Y9659684D01*
X17194278Y9655617D01*
X17204706Y9649064D01*
X17213416Y9640356D01*
X17219968Y9629926D01*
X17224036Y9618302D01*
X17225414Y9606064D01*
D02*
G37*
G36*
X15830415Y2646063D02*
X14839165Y2646063D01*
X14815800Y2648695D01*
X14793607Y2656461D01*
X14773698Y2668971D01*
X14757072Y2685597D01*
X14744563Y2705505D01*
X14736798Y2727698D01*
X14734164Y2751063D01*
Y4041063D01*
X14736798Y4064428D01*
X14744563Y4086621D01*
X14757072Y4106529D01*
X14773698Y4123155D01*
X14793607Y4135665D01*
X14815800Y4143430D01*
X14839165Y4146063D01*
X15830415D01*
X15853780Y4143430D01*
X15875972Y4135665D01*
X15895882Y4123155D01*
X15912508Y4106529D01*
X15925017Y4086621D01*
X15932782Y4064428D01*
X15935414Y4041063D01*
Y2751063D01*
X15932782Y2727698D01*
X15925017Y2705505D01*
X15912508Y2685597D01*
X15895882Y2668971D01*
X15875972Y2656461D01*
X15853780Y2648696D01*
X15830415Y2646063D01*
D02*
G37*
G36*
X8597913Y10166062D02*
X7307915D01*
X7295676Y10167441D01*
X7284051Y10171509D01*
X7273622Y10178061D01*
X7264913Y10186771D01*
X7258360Y10197199D01*
X7254293Y10208824D01*
X7252914Y10221063D01*
X7252914Y11511063D01*
X7254293Y11523301D01*
X7258360Y11534925D01*
X7264913Y11545355D01*
X7273622Y11554063D01*
X7284050Y11560616D01*
X7295676Y11564683D01*
X7307914Y11566063D01*
X8597913D01*
X8610152Y11564683D01*
X8621777Y11560616D01*
X8632205Y11554063D01*
X8640914Y11545355D01*
X8647468Y11534925D01*
X8651535Y11523301D01*
X8652913Y11511063D01*
X8652914Y10221063D01*
X8651535Y10208824D01*
X8647468Y10197199D01*
X8640915Y10186771D01*
X8632205Y10178061D01*
X8621777Y10171509D01*
X8610152Y10167441D01*
X8597913Y10166062D01*
D02*
G37*
G36*
X9312290Y6356062D02*
X7546039Y6356062D01*
X7533800Y6357441D01*
X7522176Y6361509D01*
X7511747Y6368061D01*
X7503039Y6376770D01*
X7496486Y6387199D01*
X7492418Y6398823D01*
X7491039Y6411062D01*
Y7701062D01*
X7492418Y7713301D01*
X7496486Y7724925D01*
X7503039Y7735355D01*
X7511747Y7744063D01*
X7522176Y7750616D01*
X7533800Y7754683D01*
X7546039Y7756063D01*
X9312290D01*
X9324528Y7754684D01*
X9336153Y7750616D01*
X9346582Y7744063D01*
X9355290Y7735355D01*
X9361842Y7724926D01*
X9365910Y7713301D01*
X9367290Y7701063D01*
Y6411063D01*
X9365910Y6398824D01*
X9361842Y6387199D01*
X9355290Y6376771D01*
X9346582Y6368062D01*
X9336153Y6361509D01*
X9324528Y6357441D01*
X9312290Y6356062D01*
D02*
G37*
G36*
X30267291Y2546064D02*
X28739166Y2546064D01*
X28726926Y2547443D01*
X28715302Y2551511D01*
X28704874Y2558063D01*
X28696164Y2566772D01*
X28689609Y2577201D01*
X28685544Y2588825D01*
X28684164Y2601064D01*
Y3891064D01*
X28685544Y3903303D01*
X28689609Y3914928D01*
X28696164Y3925356D01*
X28704874Y3934065D01*
X28715302Y3940617D01*
X28726926Y3944686D01*
X28739166Y3946064D01*
X30267291D01*
X30279529Y3944686D01*
X30291153Y3940617D01*
X30301581Y3934065D01*
X30310291Y3925356D01*
X30316843Y3914928D01*
X30320911Y3903303D01*
X30322290Y3891064D01*
Y2601064D01*
X30320911Y2588826D01*
X30316843Y2577201D01*
X30310291Y2566772D01*
X30301581Y2558064D01*
X30291153Y2551511D01*
X30279529Y2547443D01*
X30267291Y2546064D01*
D02*
G37*
G36*
X35882916Y7756065D02*
X37172913D01*
X37185153Y7754686D01*
X37196777Y7750618D01*
X37207205Y7744066D01*
X37215915Y7735357D01*
X37222467Y7724928D01*
X37226535Y7713303D01*
X37227914Y7701065D01*
Y6411065D01*
X37226535Y6398826D01*
X37222467Y6387201D01*
X37215915Y6376773D01*
X37207205Y6368064D01*
X37196777Y6361512D01*
X37185153Y6357444D01*
X37172913Y6356065D01*
X35882916Y6356065D01*
X35870676Y6357444D01*
X35859052Y6361511D01*
X35848624Y6368064D01*
X35839914Y6376773D01*
X35833359Y6387201D01*
X35829294Y6398826D01*
X35827914Y6411065D01*
Y7701065D01*
X35829291Y7713303D01*
X35833359Y7724928D01*
X35839914Y7735357D01*
X35848624Y7744066D01*
X35859052Y7750618D01*
X35870676Y7754686D01*
X35882916Y7756065D01*
D02*
G37*
G36*
Y3946065D02*
X37172913Y3946065D01*
X37185153Y3944686D01*
X37196777Y3940618D01*
X37207205Y3934066D01*
X37215915Y3925357D01*
X37222467Y3914928D01*
X37226535Y3903304D01*
X37227914Y3891065D01*
Y2601065D01*
X37226535Y2588826D01*
X37222467Y2577202D01*
X37215915Y2566773D01*
X37207205Y2558064D01*
X37196777Y2551512D01*
X37185153Y2547444D01*
X37172913Y2546065D01*
X35882916D01*
X35870676Y2547444D01*
X35859052Y2551512D01*
X35848624Y2558064D01*
X35839914Y2566773D01*
X35833359Y2577202D01*
X35829294Y2588826D01*
X35827914Y2601065D01*
Y3891065D01*
X35829294Y3903303D01*
X35833359Y3914928D01*
X35839914Y3925357D01*
X35848624Y3934065D01*
X35859052Y3940618D01*
X35870676Y3944686D01*
X35882916Y3946065D01*
D02*
G37*
G36*
X35322913Y5796065D02*
Y4506065D01*
X35321536Y4493826D01*
X35317468Y4482201D01*
X35310916Y4471773D01*
X35302206Y4463064D01*
X35291779Y4456511D01*
X35280151Y4452444D01*
X35267914Y4451065D01*
X33977914D01*
X33965677Y4452444D01*
X33954050Y4456511D01*
X33943622Y4463064D01*
X33934915Y4471773D01*
X33928360Y4482201D01*
X33924295Y4493826D01*
X33922916Y4506065D01*
Y5796065D01*
X33924295Y5808303D01*
X33928360Y5819928D01*
X33934915Y5830357D01*
X33943622Y5839065D01*
X33954050Y5845618D01*
X33965677Y5849686D01*
X33977914Y5851065D01*
X35267914D01*
X35280151Y5849686D01*
X35291779Y5845618D01*
X35302206Y5839065D01*
X35310916Y5830357D01*
X35317468Y5819928D01*
X35321536Y5808303D01*
X35322913Y5796065D01*
D02*
G37*
G36*
X32703540D02*
Y4506065D01*
X32702161Y4493826D01*
X32698093Y4482201D01*
X32691541Y4471773D01*
X32682831Y4463064D01*
X32672403Y4456511D01*
X32660779Y4452443D01*
X32648541Y4451065D01*
X31358539D01*
X31346301Y4452443D01*
X31334677Y4456511D01*
X31324246Y4463064D01*
X31315540Y4471773D01*
X31308987Y4482201D01*
X31304919Y4493826D01*
X31303540Y4506065D01*
Y5796065D01*
X31304919Y5808303D01*
X31308987Y5819928D01*
X31315540Y5830357D01*
X31324246Y5839065D01*
X31334677Y5845618D01*
X31346301Y5849686D01*
X31358539Y5851065D01*
X32648541D01*
X32660779Y5849686D01*
X32672403Y5845618D01*
X32682831Y5839065D01*
X32691541Y5830357D01*
X32698093Y5819928D01*
X32702161Y5808303D01*
X32703540Y5796065D01*
D02*
G37*
G36*
X32465414Y9606065D02*
Y8316065D01*
X32464035Y8303826D01*
X32459967Y8292201D01*
X32453415Y8281773D01*
X32444705Y8273063D01*
X32434277Y8266511D01*
X32422653Y8262443D01*
X32410413Y8261065D01*
X31120416D01*
X31108176Y8262443D01*
X31096552Y8266511D01*
X31086124Y8273063D01*
X31077414Y8281773D01*
X31070859Y8292201D01*
X31066791Y8303826D01*
X31065414Y8316065D01*
Y9606065D01*
X31066791Y9618303D01*
X31070859Y9629928D01*
X31077414Y9640357D01*
X31086124Y9649065D01*
X31096552Y9655618D01*
X31108176Y9659686D01*
X31120416Y9661065D01*
X32410413D01*
X32422653Y9659686D01*
X32434277Y9655618D01*
X32444705Y9649065D01*
X32453415Y9640357D01*
X32459967Y9629928D01*
X32464035Y9618303D01*
X32465414Y9606065D01*
D02*
G37*
G36*
X32732288Y6411065D02*
Y7701065D01*
X32733667Y7713303D01*
X32737735Y7724928D01*
X32744287Y7735357D01*
X32752997Y7744065D01*
X32763425Y7750618D01*
X32775049Y7754686D01*
X32787289Y7756065D01*
X34077289D01*
X34089529Y7754686D01*
X34101151Y7750618D01*
X34111581Y7744066D01*
X34120288Y7735357D01*
X34126843Y7724928D01*
X34130911Y7713303D01*
X34132291Y7701065D01*
Y6411065D01*
X34130911Y6398826D01*
X34126843Y6387201D01*
X34120291Y6376773D01*
X34111581Y6368064D01*
X34101154Y6361511D01*
X34089529Y6357444D01*
X34077289Y6356065D01*
X32787289D01*
X32775049Y6357443D01*
X32763428Y6361511D01*
X32752997Y6368064D01*
X32744290Y6376773D01*
X32737735Y6387201D01*
X32733667Y6398826D01*
X32732288Y6411065D01*
D02*
G37*
G36*
X34498541Y10138564D02*
X34497849Y10144684D01*
X34495816Y10150496D01*
X34492538Y10155710D01*
X34488184Y10160065D01*
X34482971Y10163342D01*
X34477158Y10165376D01*
X34471039Y10166065D01*
X32869788D01*
X32863669Y10165375D01*
X32857855Y10163342D01*
X32852643Y10160065D01*
X32848288Y10155710D01*
X32845013Y10150496D01*
X32842978Y10144684D01*
X32842288Y10138564D01*
Y10071064D01*
X32839655Y10047699D01*
X32831891Y10025507D01*
X32819382Y10005598D01*
X32802753Y9988973D01*
X32782846Y9976463D01*
X32760654Y9968697D01*
X32737289Y9966065D01*
X32222290D01*
X32198923Y9968697D01*
X32176733Y9976463D01*
X32156821Y9988973D01*
X32140195Y10005598D01*
X32127686Y10025507D01*
X32119922Y10047699D01*
X32117291Y10071064D01*
Y10138564D01*
X32116599Y10144684D01*
X32114566Y10150496D01*
X32111288Y10155710D01*
X32106934Y10160065D01*
X32101721Y10163342D01*
X32095908Y10165375D01*
X32089789Y10166065D01*
X32072916D01*
X32060675Y10167443D01*
X32049051Y10171511D01*
X32038623Y10178063D01*
X32029913Y10186773D01*
X32023361Y10197201D01*
X32019293Y10208826D01*
X32017914Y10221065D01*
Y11511065D01*
X32019293Y11523303D01*
X32023361Y11534927D01*
X32029913Y11545357D01*
X32038623Y11554065D01*
X32049051Y11560618D01*
X32060675Y11564685D01*
X32072916Y11566065D01*
X35267914D01*
X35280151Y11564686D01*
X35291779Y11560618D01*
X35302206Y11554066D01*
X35310916Y11545357D01*
X35317468Y11534928D01*
X35321533Y11523303D01*
X35322913Y11511065D01*
Y10221065D01*
X35321533Y10208826D01*
X35317468Y10197201D01*
X35310916Y10186773D01*
X35302206Y10178064D01*
X35291779Y10171511D01*
X35280151Y10167443D01*
X35267914Y10166065D01*
X35251038D01*
X35244919Y10165376D01*
X35239105Y10163342D01*
X35233893Y10160065D01*
X35229538Y10155710D01*
X35226263Y10150496D01*
X35224228Y10144684D01*
X35223538Y10138564D01*
Y10071064D01*
X35220905Y10047701D01*
X35213141Y10025507D01*
X35200632Y10005598D01*
X35184003Y9988973D01*
X35164096Y9976463D01*
X35141904Y9968697D01*
X35118539Y9966065D01*
X34603540D01*
X34580173Y9968697D01*
X34557983Y9976463D01*
X34538071Y9988973D01*
X34521445Y10005598D01*
X34508936Y10025507D01*
X34501172Y10047701D01*
X34498541Y10071064D01*
Y10138564D01*
D02*
G37*
G36*
X35882916Y11566065D02*
X37172913D01*
X37185153Y11564686D01*
X37196777Y11560618D01*
X37207205Y11554066D01*
X37215915Y11545357D01*
X37222467Y11534928D01*
X37226535Y11523303D01*
X37227914Y11511065D01*
Y10221065D01*
X37226535Y10208826D01*
X37222467Y10197202D01*
X37215915Y10186773D01*
X37207205Y10178064D01*
X37196777Y10171511D01*
X37185153Y10167444D01*
X37172913Y10166065D01*
X35882916D01*
X35870676Y10167443D01*
X35859052Y10171511D01*
X35848624Y10178064D01*
X35839914Y10186773D01*
X35833359Y10197201D01*
X35829291Y10208826D01*
X35827914Y10221065D01*
Y11511065D01*
X35829291Y11523303D01*
X35833359Y11534928D01*
X35839914Y11545357D01*
X35848624Y11554066D01*
X35859052Y11560618D01*
X35870676Y11564686D01*
X35882916Y11566065D01*
D02*
G37*
G36*
X30981665Y6356065D02*
X29691666Y6356064D01*
X29679425Y6357443D01*
X29667801Y6361511D01*
X29657373Y6368063D01*
X29648663Y6376772D01*
X29642111Y6387201D01*
X29638043Y6398825D01*
X29636664Y6411064D01*
Y7701064D01*
X29638043Y7713303D01*
X29642111Y7724927D01*
X29648663Y7735357D01*
X29657373Y7744065D01*
X29667801Y7750618D01*
X29679425Y7754685D01*
X29691666Y7756065D01*
X30981665D01*
X30993903Y7754686D01*
X31005527Y7750618D01*
X31015955Y7744065D01*
X31024664Y7735357D01*
X31031219Y7724928D01*
X31035284Y7713303D01*
X31036664Y7701065D01*
Y6411065D01*
X31035287Y6398826D01*
X31031219Y6387201D01*
X31024664Y6376773D01*
X31015955Y6368064D01*
X31005527Y6361511D01*
X30993903Y6357443D01*
X30981665Y6356065D01*
D02*
G37*
G36*
X33756146Y12139064D02*
X33752917Y12172205D01*
X33756619Y12205296D01*
X33767090Y12236905D01*
X33783875Y12265663D01*
X33806250Y12290323D01*
X33833243Y12309818D01*
X33863687Y12323305D01*
X33896265Y12330196D01*
X33929562D01*
X33962140Y12323305D01*
X33992584Y12309818D01*
X34019580Y12290323D01*
X34041953Y12265664D01*
X34058740Y12236906D01*
X34069208Y12205297D01*
X34072910Y12172206D01*
X34069681Y12139065D01*
X34068130Y12122003D01*
X34070370Y12105016D01*
X34076282Y12088937D01*
X34085583Y12074549D01*
X34097821Y12062558D01*
X34112393Y12053548D01*
X34128589Y12047959D01*
X34145615Y12046065D01*
X36305014D01*
X36322260Y12044122D01*
X36338641Y12038390D01*
X36353336Y12029157D01*
X36365607Y12016885D01*
X36374841Y12002191D01*
X36380569Y11985810D01*
X36382513Y11968565D01*
Y11896065D01*
X36380569Y11878820D01*
X36374841Y11862439D01*
X36365607Y11847745D01*
X36353336Y11835473D01*
X36338641Y11826240D01*
X36322260Y11820508D01*
X36305014Y11818565D01*
X30253314Y11818564D01*
X30236069Y11820508D01*
X30219687Y11826239D01*
X30204993Y11835472D01*
X30192722Y11847744D01*
X30183487Y11862438D01*
X30177759Y11878819D01*
X30175812Y11896065D01*
Y11968564D01*
X30177759Y11985810D01*
X30183487Y12002190D01*
X30192722Y12016884D01*
X30204993Y12029157D01*
X30219687Y12038389D01*
X30236069Y12044121D01*
X30253314Y12046064D01*
X33680212D01*
X33697241Y12047958D01*
X33713437Y12053547D01*
X33728006Y12062558D01*
X33740244Y12074549D01*
X33749545Y12088936D01*
X33755460Y12105016D01*
X33757697Y12122002D01*
X33756146Y12139064D01*
D02*
G37*
G36*
X10411146Y12139062D02*
X10407917Y12172203D01*
X10411618Y12205294D01*
X10422088Y12236903D01*
X10438875Y12265661D01*
X10461249Y12290321D01*
X10488243Y12309816D01*
X10518688Y12323302D01*
X10551265Y12330193D01*
X10584563D01*
X10617139Y12323302D01*
X10647584Y12309816D01*
X10674579Y12290321D01*
X10696953Y12265662D01*
X10713739Y12236904D01*
X10724208Y12205295D01*
X10727909Y12172204D01*
X10724682Y12139063D01*
X10723131Y12122001D01*
X10725367Y12105014D01*
X10731282Y12088935D01*
X10740584Y12074547D01*
X10752821Y12062556D01*
X10767392Y12053546D01*
X10783587Y12047957D01*
X10800615Y12046063D01*
X14227515D01*
X14244759Y12044120D01*
X14261140Y12038388D01*
X14275835Y12029155D01*
X14288106Y12016883D01*
X14297339Y12002189D01*
X14303072Y11985808D01*
X14305014Y11968563D01*
Y11896063D01*
X14303072Y11878818D01*
X14297339Y11862437D01*
X14288106Y11847743D01*
X14275835Y11835471D01*
X14261140Y11826238D01*
X14244759Y11820506D01*
X14227515Y11818563D01*
X8175814Y11818562D01*
X8158568Y11820506D01*
X8142187Y11826237D01*
X8127493Y11835470D01*
X8115222Y11847742D01*
X8105988Y11862436D01*
X8100257Y11878817D01*
X8098313Y11896063D01*
Y11968562D01*
X8100257Y11985808D01*
X8105988Y12002188D01*
X8115222Y12016882D01*
X8127493Y12029155D01*
X8142187Y12038387D01*
X8158568Y12044119D01*
X8175814Y12046062D01*
X10335212D01*
X10352240Y12047956D01*
X10368435Y12053545D01*
X10383007Y12062556D01*
X10395244Y12074547D01*
X10404546Y12088934D01*
X10410459Y12105014D01*
X10412696Y12122000D01*
X10411146Y12139062D01*
D02*
G37*
G36*
X9074164Y2546062D02*
X7546039D01*
X7533801Y2547441D01*
X7522176Y2551509D01*
X7511747Y2558062D01*
X7503039Y2566770D01*
X7496487Y2577199D01*
X7492419Y2588824D01*
X7491039Y2601062D01*
X7491039Y3891062D01*
X7492419Y3903301D01*
X7496487Y3914926D01*
X7503039Y3925354D01*
X7511747Y3934063D01*
X7522176Y3940615D01*
X7533800Y3944684D01*
X7546039Y3946062D01*
X9074164Y3946063D01*
X9086403Y3944684D01*
X9098028Y3940616D01*
X9108456Y3934063D01*
X9117165Y3925355D01*
X9123718Y3914926D01*
X9127785Y3903301D01*
X9129164Y3891063D01*
X9129164Y2601062D01*
X9127786Y2588824D01*
X9123719Y2577199D01*
X9117165Y2566770D01*
X9108456Y2558062D01*
X9098028Y2551509D01*
X9086403Y2547441D01*
X9074164Y2546062D01*
D02*
G37*
G36*
X13499165Y5851063D02*
X14789165Y5851063D01*
X14801402Y5849684D01*
X14813028Y5845616D01*
X14823456Y5839064D01*
X14832166Y5830355D01*
X14838718Y5819926D01*
X14842786Y5808302D01*
X14844164Y5796063D01*
Y4506063D01*
X14842786Y4493824D01*
X14838718Y4482199D01*
X14832166Y4471771D01*
X14823456Y4463062D01*
X14813028Y4456510D01*
X14801402Y4452442D01*
X14789165Y4451063D01*
X13499165Y4451062D01*
X13486926Y4452442D01*
X13475301Y4456509D01*
X13464873Y4463062D01*
X13456165Y4471771D01*
X13449611Y4482199D01*
X13445544Y4493824D01*
X13444165Y4506063D01*
X13444165Y5796063D01*
X13445543Y5808301D01*
X13449609Y5819926D01*
X13456165Y5830355D01*
X13464873Y5839063D01*
X13475301Y5845616D01*
X13486926Y5849684D01*
X13499165Y5851063D01*
D02*
G37*
G36*
X11510414Y9606063D02*
X11510414Y8316063D01*
X11509035Y8303824D01*
X11504968Y8292199D01*
X11498415Y8281771D01*
X11489706Y8273062D01*
X11479278Y8266509D01*
X11467652Y8262441D01*
X11455414Y8261062D01*
X10165415D01*
X10153176Y8262441D01*
X10141551Y8266509D01*
X10131123Y8273061D01*
X10122414Y8281771D01*
X10115860Y8292199D01*
X10111793Y8303824D01*
X10110415Y8316063D01*
X10110414Y9606063D01*
X10111793Y9618301D01*
X10115860Y9629926D01*
X10122413Y9640355D01*
X10131122Y9649063D01*
X10141551Y9655616D01*
X10153176Y9659684D01*
X10165415Y9661063D01*
X11455413D01*
X11467652Y9659684D01*
X11479277Y9655616D01*
X11489705Y9649064D01*
X11498415Y9640355D01*
X11504968Y9629926D01*
X11509035Y9618301D01*
X11510414Y9606063D01*
D02*
G37*
G36*
X11986664Y7701063D02*
Y6411063D01*
X11985285Y6398824D01*
X11981218Y6387199D01*
X11974665Y6376771D01*
X11965956Y6368062D01*
X11955528Y6361509D01*
X11943902Y6357442D01*
X11931664Y6356062D01*
X10641665D01*
X10629426Y6357442D01*
X10617801Y6361509D01*
X10607373Y6368062D01*
X10598664Y6376771D01*
X10592110Y6387199D01*
X10588043Y6398824D01*
X10586665Y6411063D01*
Y7701063D01*
X10588043Y7713301D01*
X10592110Y7724926D01*
X10598664Y7735355D01*
X10607373Y7744063D01*
X10617801Y7750616D01*
X10629426Y7754684D01*
X10641665Y7756063D01*
X11931664D01*
X11943902Y7754684D01*
X11955528Y7750616D01*
X11965956Y7744064D01*
X11974665Y7735355D01*
X11981218Y7724926D01*
X11985285Y7713301D01*
X11986664Y7701063D01*
D02*
G37*
G36*
X13891664Y7701063D02*
Y6411063D01*
X13890285Y6398824D01*
X13886218Y6387199D01*
X13879665Y6376771D01*
X13870956Y6368062D01*
X13860529Y6361510D01*
X13848903Y6357442D01*
X13836664Y6356063D01*
X12546665Y6356062D01*
X12534426Y6357442D01*
X12522801Y6361509D01*
X12512373Y6368062D01*
X12503664Y6376771D01*
X12497110Y6387199D01*
X12493043Y6398824D01*
X12491665Y6411063D01*
Y7701063D01*
X12493043Y7713301D01*
X12497110Y7724926D01*
X12503664Y7735355D01*
X12512373Y7744064D01*
X12522801Y7750616D01*
X12534426Y7754684D01*
X12546665Y7756063D01*
X13836664D01*
X13848903Y7754684D01*
X13860529Y7750616D01*
X13870956Y7744064D01*
X13879665Y7735355D01*
X13886218Y7724926D01*
X13890285Y7713301D01*
X13891664Y7701063D01*
D02*
G37*
G36*
X12308539Y3946063D02*
X13836665Y3946063D01*
X13848903Y3944684D01*
X13860529Y3940616D01*
X13870956Y3934064D01*
X13879665Y3925355D01*
X13886218Y3914926D01*
X13890286Y3903302D01*
X13891666Y3891063D01*
Y2601063D01*
X13890286Y2588824D01*
X13886218Y2577200D01*
X13879665Y2566771D01*
X13870956Y2558062D01*
X13860529Y2551510D01*
X13848903Y2547442D01*
X13836665Y2546063D01*
X12308539D01*
X12296301Y2547442D01*
X12284676Y2551510D01*
X12274247Y2558062D01*
X12265539Y2566771D01*
X12258987Y2577200D01*
X12254919Y2588824D01*
X12253539Y2601063D01*
X12253539Y3891063D01*
X12254919Y3903301D01*
X12258987Y3914926D01*
X12265539Y3925355D01*
X12274247Y3934063D01*
X12284676Y3940616D01*
X12296300Y3944684D01*
X12308539Y3946063D01*
D02*
G37*
G36*
X10557913Y11511063D02*
X10557914Y10221063D01*
X10556535Y10208824D01*
X10552468Y10197199D01*
X10545915Y10186771D01*
X10537205Y10178061D01*
X10526777Y10171509D01*
X10515152Y10167441D01*
X10502913Y10166062D01*
X9212915D01*
X9200676Y10167441D01*
X9189051Y10171509D01*
X9178622Y10178061D01*
X9169913Y10186771D01*
X9163360Y10197199D01*
X9159293Y10208824D01*
X9157914Y10221063D01*
X9157914Y11511063D01*
X9159293Y11523301D01*
X9163360Y11534925D01*
X9169913Y11545355D01*
X9178622Y11554063D01*
X9189050Y11560616D01*
X9200676Y11564683D01*
X9212914Y11566063D01*
X10502913D01*
X10515152Y11564683D01*
X10526777Y11560616D01*
X10537205Y11554063D01*
X10545914Y11545355D01*
X10552468Y11534925D01*
X10556535Y11523301D01*
X10557913Y11511063D01*
D02*
G37*
G36*
X10076664Y4251062D02*
X10053299Y4253695D01*
X10031107Y4261461D01*
X10011198Y4273970D01*
X9994573Y4290596D01*
X9982063Y4310504D01*
X9974297Y4332698D01*
X9971665Y4356062D01*
X9971665Y5646062D01*
X9974297Y5669427D01*
X9982062Y5691620D01*
X9994572Y5711529D01*
X10011198Y5728155D01*
X10031107Y5740664D01*
X10053299Y5748430D01*
X10076664Y5751062D01*
X10591664D01*
X10615029Y5748430D01*
X10637222Y5740665D01*
X10657130Y5728155D01*
X10673756Y5711529D01*
X10686266Y5691620D01*
X10694031Y5669427D01*
X10696664Y5646063D01*
X10696664Y4356063D01*
X10694032Y4332698D01*
X10686266Y4310505D01*
X10673756Y4290596D01*
X10657131Y4273971D01*
X10637222Y4261461D01*
X10615030Y4253695D01*
X10591665Y4251062D01*
X10076664D01*
D02*
G37*
G36*
X19075414Y8261063D02*
X17785414D01*
X17773177Y8262442D01*
X17761551Y8266510D01*
X17751122Y8273062D01*
X17742413Y8281772D01*
X17735861Y8292200D01*
X17731793Y8303825D01*
X17730414Y8316064D01*
Y9606064D01*
X17731793Y9618302D01*
X17735861Y9629926D01*
X17742413Y9640356D01*
X17751122Y9649064D01*
X17761551Y9655617D01*
X17773177Y9659684D01*
X17785414Y9661064D01*
X19075414D01*
X19087653Y9659684D01*
X19099278Y9655617D01*
X19109706Y9649064D01*
X19118414Y9640356D01*
X19124966Y9629926D01*
X19129034Y9618302D01*
X19130414Y9606064D01*
Y8316064D01*
X19129034Y8303825D01*
X19124966Y8292200D01*
X19118414Y8281772D01*
X19109706Y8273062D01*
X19099278Y8266510D01*
X19087653Y8262442D01*
X19075414Y8261063D01*
D02*
G37*
G36*
X10724683Y1973062D02*
X10727910Y1939921D01*
X10724209Y1906830D01*
X10713740Y1875222D01*
X10696954Y1846464D01*
X10674580Y1821804D01*
X10647586Y1802309D01*
X10617140Y1788823D01*
X10584564Y1781931D01*
X10551266D01*
X10518689Y1788823D01*
X10488244Y1802309D01*
X10461250Y1821804D01*
X10438876Y1846464D01*
X10422089Y1875222D01*
X10411620Y1906830D01*
X10407918Y1939921D01*
X10411147Y1973062D01*
X10412697Y1990125D01*
X10410460Y2007111D01*
X10404547Y2023191D01*
X10395245Y2037578D01*
X10383008Y2049570D01*
X10368436Y2058580D01*
X10352241Y2064169D01*
X10335213Y2066063D01*
X8175815Y2066063D01*
X8158569Y2068005D01*
X8142188Y2073738D01*
X8127494Y2082970D01*
X8115223Y2095242D01*
X8105989Y2109937D01*
X8100258Y2126317D01*
X8098315Y2143562D01*
Y2216062D01*
X8100258Y2233307D01*
X8105989Y2249688D01*
X8115223Y2264383D01*
X8127494Y2276654D01*
X8142188Y2285887D01*
X8158569Y2291619D01*
X8175815Y2293562D01*
X14227515Y2293563D01*
X14244760Y2291620D01*
X14261140Y2285888D01*
X14275835Y2276655D01*
X14288107Y2264383D01*
X14297340Y2249689D01*
X14303072Y2233308D01*
X14305016Y2216063D01*
Y2143563D01*
X14303072Y2126318D01*
X14297340Y2109937D01*
X14288107Y2095243D01*
X14275835Y2082971D01*
X14261140Y2073738D01*
X14244760Y2068006D01*
X14227515Y2066063D01*
X10800616Y2066063D01*
X10783588Y2064169D01*
X10767393Y2058580D01*
X10752822Y2049570D01*
X10740585Y2037578D01*
X10731283Y2023191D01*
X10725368Y2007111D01*
X10723132Y1990125D01*
X10724683Y1973062D01*
D02*
G37*
G36*
X27365414Y3973564D02*
X27366104Y3967444D01*
X27368137Y3961632D01*
X27371414Y3956418D01*
X27375769Y3952064D01*
X27380981Y3948787D01*
X27386795Y3946754D01*
X27392914Y3946064D01*
X27886041D01*
X27898279Y3944685D01*
X27909903Y3940617D01*
X27920331Y3934065D01*
X27929041Y3925356D01*
X27935593Y3914927D01*
X27939661Y3903303D01*
X27941040Y3891064D01*
Y2601064D01*
X27939661Y2588825D01*
X27935593Y2577201D01*
X27929041Y2566772D01*
X27920331Y2558063D01*
X27909903Y2551511D01*
X27898279Y2547443D01*
X27886041Y2546064D01*
X26596039Y2546064D01*
X26583801Y2547443D01*
X26572177Y2551511D01*
X26561746Y2558063D01*
X26553040Y2566772D01*
X26546487Y2577201D01*
X26542419Y2588825D01*
X26541040Y2601064D01*
Y3891064D01*
X26542419Y3903303D01*
X26546487Y3914927D01*
X26553040Y3925356D01*
X26561746Y3934065D01*
X26572177Y3940617D01*
X26583801Y3944685D01*
X26596039Y3946064D01*
X26612915D01*
X26619034Y3946754D01*
X26624847Y3948787D01*
X26630060Y3952064D01*
X26634415Y3956418D01*
X26637692Y3961632D01*
X26639725Y3967444D01*
X26640417Y3973564D01*
Y4041064D01*
X26643048Y4064429D01*
X26650812Y4086622D01*
X26663321Y4106530D01*
X26679947Y4123156D01*
X26699857Y4135666D01*
X26722049Y4143431D01*
X26745416Y4146064D01*
X27260416D01*
X27283780Y4143431D01*
X27305972Y4135666D01*
X27325879Y4123156D01*
X27342505Y4106530D01*
X27355017Y4086622D01*
X27362781Y4064429D01*
X27365414Y4041064D01*
Y3973564D01*
D02*
G37*
G36*
X28655414Y9606065D02*
Y8316065D01*
X28654034Y8303826D01*
X28649969Y8292201D01*
X28643414Y8281773D01*
X28634705Y8273063D01*
X28624277Y8266511D01*
X28612653Y8262443D01*
X28600415Y8261065D01*
X27310416Y8261063D01*
X27298175Y8262443D01*
X27286551Y8266510D01*
X27276123Y8273063D01*
X27267413Y8281772D01*
X27260861Y8292201D01*
X27256793Y8303825D01*
X27255414Y8316064D01*
Y9606064D01*
X27256793Y9618302D01*
X27260861Y9629927D01*
X27267413Y9640356D01*
X27276123Y9649065D01*
X27286551Y9655617D01*
X27298175Y9659685D01*
X27310416Y9661064D01*
X28600415Y9661065D01*
X28612653Y9659685D01*
X28624277Y9655618D01*
X28634705Y9649065D01*
X28643414Y9640357D01*
X28649969Y9629927D01*
X28654034Y9618303D01*
X28655414Y9606065D01*
D02*
G37*
G36*
X29607913Y11511065D02*
Y10221065D01*
X29606534Y10208826D01*
X29602469Y10197201D01*
X29595914Y10186773D01*
X29587207Y10178063D01*
X29576779Y10171511D01*
X29565152Y10167443D01*
X29552914Y10166065D01*
X28262915D01*
X28250677Y10167443D01*
X28239050Y10171511D01*
X28228622Y10178063D01*
X28219913Y10186773D01*
X28213361Y10197201D01*
X28209293Y10208826D01*
X28207916Y10221065D01*
Y11511065D01*
X28209293Y11523303D01*
X28213361Y11534927D01*
X28219913Y11545357D01*
X28228622Y11554065D01*
X28239050Y11560618D01*
X28250677Y11564685D01*
X28262915Y11566065D01*
X29552914D01*
X29565152Y11564685D01*
X29576779Y11560618D01*
X29587207Y11554065D01*
X29595914Y11545357D01*
X29602469Y11534927D01*
X29606534Y11523303D01*
X29607913Y11511065D01*
D02*
G37*
G36*
X19452290Y3946064D02*
X21932915D01*
X21945152Y3944685D01*
X21956779Y3940617D01*
X21967207Y3934064D01*
X21975916Y3925356D01*
X21982468Y3914927D01*
X21986536Y3903302D01*
X21987915Y3891064D01*
Y2601064D01*
X21986536Y2588825D01*
X21982468Y2577200D01*
X21975916Y2566772D01*
X21967207Y2558063D01*
X21956779Y2551510D01*
X21945152Y2547443D01*
X21932915Y2546063D01*
X19449789Y2546063D01*
X19438107Y2547379D01*
X19427011Y2551263D01*
X19417056Y2557517D01*
X19408743Y2565830D01*
X19402489Y2575785D01*
X19398605Y2586881D01*
X19397290Y2598564D01*
Y3891064D01*
X19398668Y3903302D01*
X19402736Y3914927D01*
X19409290Y3925356D01*
X19417998Y3934064D01*
X19428426Y3940617D01*
X19440051Y3944685D01*
X19452290Y3946064D01*
D02*
G37*
G36*
X23892914Y11511064D02*
Y10221064D01*
X23891534Y10208825D01*
X23887466Y10197200D01*
X23880914Y10186772D01*
X23872206Y10178063D01*
X23861778Y10171510D01*
X23850153Y10167442D01*
X23837914Y10166063D01*
X22547914D01*
X22535675Y10167442D01*
X22524049Y10171510D01*
X22513622Y10178063D01*
X22504913Y10186772D01*
X22498360Y10197200D01*
X22494292Y10208825D01*
X22492914Y10221064D01*
Y11511064D01*
X22494292Y11523302D01*
X22498360Y11534927D01*
X22504913Y11545356D01*
X22513622Y11554065D01*
X22524049Y11560617D01*
X22535675Y11564685D01*
X22547914Y11566064D01*
X23837914D01*
X23850153Y11564685D01*
X23861778Y11560617D01*
X23872206Y11554065D01*
X23880914Y11545356D01*
X23887466Y11534927D01*
X23891534Y11523302D01*
X23892914Y11511064D01*
D02*
G37*
G36*
X22464165Y5796064D02*
Y4506064D01*
X22462785Y4493825D01*
X22458717Y4482200D01*
X22452165Y4471772D01*
X22443457Y4463063D01*
X22433028Y4456510D01*
X22421404Y4452443D01*
X22409164Y4451063D01*
X21119165D01*
X21106926Y4452442D01*
X21095300Y4456510D01*
X21084872Y4463063D01*
X21076164Y4471772D01*
X21069611Y4482200D01*
X21065543Y4493825D01*
X21064165Y4506064D01*
Y5796064D01*
X21065543Y5808302D01*
X21069611Y5819927D01*
X21076164Y5830356D01*
X21084872Y5839064D01*
X21095300Y5845617D01*
X21106926Y5849685D01*
X21119165Y5851064D01*
X22409164D01*
X22421404Y5849685D01*
X22433028Y5845617D01*
X22443457Y5839064D01*
X22452165Y5830356D01*
X22458717Y5819927D01*
X22462785Y5808302D01*
X22464165Y5796064D01*
D02*
G37*
G36*
X20082915Y11511064D02*
Y10221064D01*
X20081535Y10208825D01*
X20077467Y10197200D01*
X20070915Y10186772D01*
X20062206Y10178062D01*
X20051778Y10171510D01*
X20040152Y10167442D01*
X20027914Y10166063D01*
X18737914D01*
X18725674Y10167442D01*
X18714050Y10171510D01*
X18703622Y10178062D01*
X18694914Y10186772D01*
X18688361Y10197200D01*
X18684293Y10208825D01*
X18682915Y10221064D01*
Y11511064D01*
X18684293Y11523302D01*
X18688361Y11534926D01*
X18694914Y11545356D01*
X18703622Y11554064D01*
X18714050Y11560617D01*
X18725674Y11564684D01*
X18737914Y11566064D01*
X20027914D01*
X20040152Y11564684D01*
X20051778Y11560617D01*
X20062206Y11554064D01*
X20070915Y11545356D01*
X20077467Y11534926D01*
X20081535Y11523302D01*
X20082915Y11511064D01*
D02*
G37*
G36*
X24845415Y9606064D02*
Y8316064D01*
X24844035Y8303825D01*
X24839967Y8292200D01*
X24833415Y8281772D01*
X24824706Y8273063D01*
X24814278Y8266510D01*
X24802652Y8262442D01*
X24790414Y8261063D01*
X23500414D01*
X23488174Y8262442D01*
X23476550Y8266510D01*
X23466122Y8273063D01*
X23457414Y8281772D01*
X23450861Y8292200D01*
X23446793Y8303825D01*
X23445415Y8316064D01*
Y9606064D01*
X23446793Y9618302D01*
X23450861Y9629927D01*
X23457414Y9640356D01*
X23466122Y9649065D01*
X23476550Y9655617D01*
X23488174Y9659685D01*
X23500414Y9661064D01*
X24790414D01*
X24802652Y9659685D01*
X24814278Y9655617D01*
X24824706Y9649065D01*
X24833415Y9640356D01*
X24839967Y9629927D01*
X24844035Y9618302D01*
X24845415Y9606064D01*
D02*
G37*
G36*
X20559164Y5796064D02*
Y4506064D01*
X20557785Y4493825D01*
X20553719Y4482200D01*
X20547165Y4471772D01*
X20538457Y4463063D01*
X20528027Y4456510D01*
X20516403Y4452442D01*
X20504166Y4451063D01*
X19214165Y4451063D01*
X19201926Y4452442D01*
X19190302Y4456510D01*
X19179874Y4463062D01*
X19171164Y4471771D01*
X19164610Y4482200D01*
X19160542Y4493824D01*
X19159164Y4506063D01*
Y5796063D01*
X19160542Y5808302D01*
X19164610Y5819927D01*
X19171164Y5830355D01*
X19179874Y5839064D01*
X19190302Y5845616D01*
X19201926Y5849685D01*
X19214165Y5851063D01*
X20504166Y5851064D01*
X20516403Y5849685D01*
X20528027Y5845617D01*
X20538457Y5839064D01*
X20547165Y5830356D01*
X20553719Y5819927D01*
X20557785Y5808302D01*
X20559164Y5796064D01*
D02*
G37*
G36*
X21035414Y9606064D02*
Y8316064D01*
X21034035Y8303825D01*
X21029967Y8292200D01*
X21023415Y8281772D01*
X21014706Y8273062D01*
X21004279Y8266510D01*
X20992651Y8262442D01*
X20980414Y8261063D01*
X19690414D01*
X19678175Y8262442D01*
X19666551Y8266510D01*
X19656122Y8273062D01*
X19647414Y8281772D01*
X19640860Y8292200D01*
X19636794Y8303825D01*
X19635414Y8316064D01*
Y9606064D01*
X19636794Y9618302D01*
X19640860Y9629927D01*
X19647414Y9640356D01*
X19656122Y9649064D01*
X19666551Y9655617D01*
X19678175Y9659685D01*
X19690414Y9661064D01*
X20980414D01*
X20992651Y9659685D01*
X21004279Y9655617D01*
X21014706Y9649064D01*
X21023415Y9640356D01*
X21029967Y9629927D01*
X21034035Y9618302D01*
X21035414Y9606064D01*
D02*
G37*
G36*
X24369165Y5796064D02*
Y4506064D01*
X24367786Y4493825D01*
X24363718Y4482200D01*
X24357166Y4471772D01*
X24348457Y4463063D01*
X24338028Y4456510D01*
X24326402Y4452443D01*
X24314165Y4451063D01*
X23024165D01*
X23011926Y4452443D01*
X23000301Y4456510D01*
X22989873Y4463063D01*
X22981165Y4471772D01*
X22974611Y4482200D01*
X22970543Y4493825D01*
X22969165Y4506064D01*
Y5796064D01*
X22970543Y5808302D01*
X22974611Y5819927D01*
X22981165Y5830356D01*
X22989873Y5839064D01*
X23000301Y5845617D01*
X23011926Y5849685D01*
X23024165Y5851064D01*
X24314165D01*
X24326402Y5849685D01*
X24338028Y5845617D01*
X24348457Y5839064D01*
X24357166Y5830356D01*
X24363718Y5819927D01*
X24367786Y5808302D01*
X24369165Y5796064D01*
D02*
G37*
G36*
X24929166Y5851064D02*
X26219165Y5851064D01*
X26231403Y5849685D01*
X26243027Y5845617D01*
X26253458Y5839065D01*
X26262164Y5830356D01*
X26268719Y5819927D01*
X26272784Y5808303D01*
X26274164Y5796064D01*
Y4506064D01*
X26272784Y4493825D01*
X26268719Y4482200D01*
X26262164Y4471772D01*
X26253458Y4463063D01*
X26243027Y4456511D01*
X26231403Y4452443D01*
X26219165Y4451064D01*
X24929166Y4451063D01*
X24916927Y4452443D01*
X24905301Y4456510D01*
X24894873Y4463063D01*
X24886163Y4471772D01*
X24879611Y4482200D01*
X24875543Y4493825D01*
X24874165Y4506064D01*
Y5796064D01*
X24875543Y5808302D01*
X24879611Y5819927D01*
X24886163Y5830356D01*
X24894873Y5839064D01*
X24905301Y5845617D01*
X24916927Y5849685D01*
X24929166Y5851064D01*
D02*
G37*
G36*
X26302914Y11511064D02*
X26304291Y11523302D01*
X26308359Y11534927D01*
X26314914Y11545356D01*
X26323621Y11554065D01*
X26334052Y11560617D01*
X26345676Y11564685D01*
X26357913Y11566064D01*
X27647913D01*
X27660153Y11564685D01*
X27671777Y11560617D01*
X27682205Y11554065D01*
X27690915Y11545356D01*
X27697467Y11534927D01*
X27701535Y11523302D01*
X27702914Y11511064D01*
Y10221064D01*
X27701535Y10208825D01*
X27697467Y10197201D01*
X27690915Y10186772D01*
X27682205Y10178063D01*
X27671777Y10171510D01*
X27660153Y10167443D01*
X27647913Y10166063D01*
X26357913D01*
X26345676Y10167443D01*
X26334052Y10171510D01*
X26323621Y10178063D01*
X26314914Y10186772D01*
X26308359Y10197201D01*
X26304291Y10208825D01*
X26302914Y10221064D01*
Y11511064D01*
D02*
G37*
G36*
X16272914Y11511063D02*
Y10221063D01*
X16271535Y10208824D01*
X16267467Y10197200D01*
X16260915Y10186771D01*
X16252206Y10178062D01*
X16241777Y10171509D01*
X16230151Y10167442D01*
X16217914Y10166062D01*
X14927914D01*
X14915675Y10167442D01*
X14904050Y10171509D01*
X14893622Y10178062D01*
X14884914Y10186771D01*
X14878360Y10197200D01*
X14874294Y10208824D01*
X14872914Y10221063D01*
Y11511063D01*
X14874294Y11523301D01*
X14878360Y11534926D01*
X14884914Y11545355D01*
X14893622Y11554064D01*
X14904050Y11560616D01*
X14915675Y11564684D01*
X14927914Y11566063D01*
X16217914D01*
X16230151Y11564684D01*
X16241777Y11560616D01*
X16252206Y11554064D01*
X16260915Y11545355D01*
X16267467Y11534926D01*
X16271535Y11523301D01*
X16272914Y11511063D01*
D02*
G37*
G36*
X17701665Y7701063D02*
Y6411063D01*
X17700285Y6398824D01*
X17696217Y6387200D01*
X17689665Y6376771D01*
X17680956Y6368062D01*
X17670528Y6361510D01*
X17658904Y6357442D01*
X17646664Y6356063D01*
X16356664D01*
X16344426Y6357442D01*
X16332800Y6361510D01*
X16322372Y6368062D01*
X16313664Y6376771D01*
X16307111Y6387199D01*
X16303043Y6398824D01*
X16301665Y6411063D01*
Y7701063D01*
X16303043Y7713301D01*
X16307111Y7724926D01*
X16313664Y7735355D01*
X16322372Y7744064D01*
X16332800Y7750616D01*
X16344426Y7754684D01*
X16356664Y7756063D01*
X17646664Y7756064D01*
X17658904Y7754684D01*
X17670528Y7750617D01*
X17680956Y7744064D01*
X17689665Y7735356D01*
X17696217Y7724926D01*
X17700285Y7713302D01*
X17701665Y7701063D01*
D02*
G37*
G36*
X18599165Y4451063D02*
X17309164D01*
X17296925Y4452442D01*
X17285301Y4456510D01*
X17274872Y4463062D01*
X17266164Y4471771D01*
X17259612Y4482200D01*
X17255544Y4493824D01*
X17254164Y4506063D01*
Y5796063D01*
X17255544Y5808302D01*
X17259612Y5819927D01*
X17266164Y5830355D01*
X17274872Y5839064D01*
X17285301Y5845616D01*
X17296925Y5849685D01*
X17309164Y5851063D01*
X18599165D01*
X18611403Y5849685D01*
X18623029Y5845616D01*
X18633456Y5839064D01*
X18642165Y5830355D01*
X18648718Y5819927D01*
X18652785Y5808302D01*
X18654166Y5796063D01*
Y4506063D01*
X18652785Y4493824D01*
X18648718Y4482200D01*
X18642165Y4471771D01*
X18633456Y4463062D01*
X18623029Y4456510D01*
X18611403Y4452442D01*
X18599165Y4451063D01*
D02*
G37*
G36*
X7784165Y8261062D02*
X7771926Y8262441D01*
X7760301Y8266509D01*
X7749873Y8273061D01*
X7741164Y8281771D01*
X7734610Y8292199D01*
X7730543Y8303824D01*
X7729165Y8316063D01*
X7729164Y9606063D01*
X7730543Y9618301D01*
X7734610Y9629926D01*
X7741163Y9640355D01*
X7749872Y9649063D01*
X7760301Y9655616D01*
X7771926Y9659684D01*
X7784165Y9661063D01*
X9074163D01*
X9086402Y9659684D01*
X9098027Y9655616D01*
X9108455Y9649063D01*
X9117165Y9640355D01*
X9123718Y9629926D01*
X9127785Y9618301D01*
X9129164Y9606063D01*
X9129164Y8316063D01*
X9127785Y8303824D01*
X9123718Y8292199D01*
X9117165Y8281771D01*
X9108456Y8273061D01*
X9098028Y8266509D01*
X9086402Y8262441D01*
X9074164Y8261062D01*
X7784165D01*
D02*
G37*
G36*
X8210415Y4251062D02*
X7695414D01*
X7672049Y4253695D01*
X7649857Y4261461D01*
X7629948Y4273970D01*
X7613323Y4290596D01*
X7600813Y4310504D01*
X7593047Y4332697D01*
X7590415Y4356062D01*
X7590415Y5646062D01*
X7593047Y5669427D01*
X7600812Y5691620D01*
X7613322Y5711529D01*
X7629948Y5728155D01*
X7649857Y5740664D01*
X7672049Y5748429D01*
X7695414Y5751062D01*
X8210414D01*
X8233779Y5748430D01*
X8255972Y5740664D01*
X8275880Y5728155D01*
X8292506Y5711529D01*
X8305016Y5691620D01*
X8312781Y5669427D01*
X8315414Y5646062D01*
X8315414Y4356062D01*
X8312782Y4332698D01*
X8305016Y4310504D01*
X8292506Y4290596D01*
X8275881Y4273970D01*
X8255972Y4261461D01*
X8233780Y4253695D01*
X8210415Y4251062D01*
D02*
G37*
G36*
X35882916Y9661065D02*
X37172913D01*
X37185153Y9659686D01*
X37196777Y9655618D01*
X37207205Y9649066D01*
X37215915Y9640357D01*
X37222467Y9629928D01*
X37226535Y9618303D01*
X37227914Y9606065D01*
Y8316065D01*
X37226535Y8303826D01*
X37222467Y8292202D01*
X37215915Y8281773D01*
X37207205Y8273064D01*
X37196777Y8266511D01*
X37185153Y8262444D01*
X37172913Y8261065D01*
X35882916D01*
X35870676Y8262443D01*
X35859052Y8266511D01*
X35848624Y8273064D01*
X35839914Y8281773D01*
X35833359Y8292201D01*
X35829291Y8303826D01*
X35827914Y8316065D01*
Y9606065D01*
X35829291Y9618303D01*
X35833359Y9629928D01*
X35839914Y9640357D01*
X35848624Y9649066D01*
X35859052Y9655618D01*
X35870676Y9659686D01*
X35882916Y9661065D01*
D02*
G37*
G36*
Y5851065D02*
X37172913Y5851065D01*
X37185153Y5849686D01*
X37196777Y5845618D01*
X37207205Y5839066D01*
X37215915Y5830357D01*
X37222467Y5819928D01*
X37226535Y5808304D01*
X37227914Y5796065D01*
Y4506065D01*
X37226535Y4493826D01*
X37222467Y4482201D01*
X37215915Y4471773D01*
X37207205Y4463064D01*
X37196777Y4456512D01*
X37185153Y4452444D01*
X37172913Y4451065D01*
X35882916Y4451065D01*
X35870676Y4452444D01*
X35859052Y4456511D01*
X35848624Y4463064D01*
X35839914Y4471773D01*
X35833359Y4482201D01*
X35829294Y4493826D01*
X35827914Y4506065D01*
Y5796065D01*
X35829294Y5808303D01*
X35833359Y5819928D01*
X35839914Y5830357D01*
X35848624Y5839065D01*
X35859052Y5845618D01*
X35870676Y5849686D01*
X35882916Y5851065D01*
D02*
G37*
G36*
X35322913Y3891065D02*
Y2601065D01*
X35321536Y2588826D01*
X35317468Y2577202D01*
X35310916Y2566773D01*
X35302206Y2558064D01*
X35291779Y2551511D01*
X35280151Y2547444D01*
X35267914Y2546065D01*
X33977914D01*
X33965677Y2547444D01*
X33954050Y2551511D01*
X33943622Y2558064D01*
X33934915Y2566773D01*
X33928360Y2577201D01*
X33924295Y2588826D01*
X33922916Y2601065D01*
Y3891065D01*
X33924295Y3903303D01*
X33928360Y3914928D01*
X33934915Y3925357D01*
X33943622Y3934065D01*
X33954050Y3940618D01*
X33965677Y3944686D01*
X33977914Y3946065D01*
X35267914D01*
X35280151Y3944686D01*
X35291779Y3940618D01*
X35302206Y3934065D01*
X35310916Y3925357D01*
X35317468Y3914928D01*
X35321536Y3903303D01*
X35322913Y3891065D01*
D02*
G37*
G36*
X33417914D02*
Y2601065D01*
X33416537Y2588826D01*
X33412469Y2577201D01*
X33405914Y2566773D01*
X33397205Y2558064D01*
X33386777Y2551511D01*
X33375153Y2547444D01*
X33362915Y2546065D01*
X32072916Y2546064D01*
X32060675Y2547443D01*
X32049051Y2551511D01*
X32038623Y2558064D01*
X32029913Y2566772D01*
X32023361Y2577201D01*
X32019293Y2588826D01*
X32017914Y2601064D01*
Y3891065D01*
X32019293Y3903303D01*
X32023361Y3914928D01*
X32029913Y3925357D01*
X32038623Y3934065D01*
X32049051Y3940618D01*
X32060675Y3944686D01*
X32072916Y3946065D01*
X33362915D01*
X33375153Y3944686D01*
X33386777Y3940618D01*
X33397205Y3934065D01*
X33405914Y3925357D01*
X33412469Y3914928D01*
X33416537Y3903303D01*
X33417914Y3891065D01*
D02*
G37*
G36*
X34846664Y9606065D02*
Y8316065D01*
X34845285Y8303826D01*
X34841217Y8292201D01*
X34834665Y8281773D01*
X34825955Y8273064D01*
X34815527Y8266511D01*
X34803903Y8262443D01*
X34791663Y8261065D01*
X33501666D01*
X33489426Y8262443D01*
X33477802Y8266511D01*
X33467374Y8273063D01*
X33458664Y8281773D01*
X33452109Y8292201D01*
X33448041Y8303826D01*
X33446664Y8316065D01*
Y9606065D01*
X33448041Y9618303D01*
X33452109Y9629928D01*
X33458664Y9640357D01*
X33467374Y9649065D01*
X33477802Y9655618D01*
X33489426Y9659686D01*
X33501666Y9661065D01*
X34791663D01*
X34803903Y9659686D01*
X34815527Y9655618D01*
X34825955Y9649066D01*
X34834665Y9640357D01*
X34841217Y9629928D01*
X34845285Y9618303D01*
X34846664Y9606065D01*
D02*
G37*
G36*
X32499164Y7656064D02*
X32522528Y7653432D01*
X32544720Y7645666D01*
X32564630Y7633157D01*
X32581256Y7616531D01*
X32593765Y7596622D01*
X32601532Y7574429D01*
X32604163Y7551064D01*
X32604166Y6261064D01*
X32601532Y6237700D01*
X32593768Y6215506D01*
X32581256Y6195598D01*
X32564630Y6178972D01*
X32544724Y6166463D01*
X32522528Y6158697D01*
X32499164Y6156064D01*
X31984164D01*
X31960800Y6158697D01*
X31938608Y6166463D01*
X31918698Y6178972D01*
X31902072Y6195598D01*
X31889563Y6215506D01*
X31881796Y6237700D01*
X31879166Y6261064D01*
X31879163Y7551064D01*
X31881796Y7574429D01*
X31889560Y7596622D01*
X31902072Y7616531D01*
X31918698Y7633157D01*
X31938605Y7645666D01*
X31960800Y7653432D01*
X31984164Y7656064D01*
X32499164D01*
D02*
G37*
G36*
X34365414Y6156065D02*
X34342050Y6158697D01*
X34319858Y6166463D01*
X34299948Y6178973D01*
X34283322Y6195598D01*
X34270813Y6215507D01*
X34263046Y6237700D01*
X34260416Y6261065D01*
X34260413Y7551065D01*
X34263046Y7574429D01*
X34270810Y7596622D01*
X34283322Y7616531D01*
X34299948Y7633157D01*
X34319855Y7645667D01*
X34342050Y7653432D01*
X34365414Y7656065D01*
X34880414D01*
X34903778Y7653432D01*
X34925970Y7645667D01*
X34945880Y7633157D01*
X34962506Y7616531D01*
X34975015Y7596622D01*
X34982782Y7574429D01*
X34985413Y7551065D01*
X34985416Y6261065D01*
X34982782Y6237700D01*
X34975018Y6215507D01*
X34962506Y6195598D01*
X34945880Y6178973D01*
X34925974Y6166463D01*
X34903778Y6158697D01*
X34880414Y6156065D01*
X34365414D01*
D02*
G37*
G36*
X30167914Y11566065D02*
X31457913D01*
X31470151Y11564685D01*
X31481778Y11560618D01*
X31492206Y11554065D01*
X31500916Y11545357D01*
X31507468Y11534927D01*
X31511533Y11523303D01*
X31512915Y11511065D01*
Y10221065D01*
X31511533Y10208826D01*
X31507468Y10197201D01*
X31500916Y10186773D01*
X31492206Y10178063D01*
X31481778Y10171511D01*
X31470151Y10167443D01*
X31457913Y10166065D01*
X30167914D01*
X30155676Y10167443D01*
X30144052Y10171511D01*
X30133624Y10178063D01*
X30124915Y10186773D01*
X30118359Y10197201D01*
X30114291Y10208826D01*
X30112915Y10221065D01*
Y11511065D01*
X30114291Y11523303D01*
X30118359Y11534927D01*
X30124915Y11545357D01*
X30133624Y11554065D01*
X30144052Y11560618D01*
X30155676Y11564685D01*
X30167914Y11566065D01*
D02*
G37*
G36*
X30505414Y8261065D02*
X29215414D01*
X29203177Y8262443D01*
X29191550Y8266511D01*
X29181122Y8273063D01*
X29172415Y8281773D01*
X29165860Y8292201D01*
X29161792Y8303826D01*
X29160416Y8316065D01*
Y9606065D01*
X29161792Y9618303D01*
X29165860Y9629927D01*
X29172415Y9640357D01*
X29181122Y9649065D01*
X29191550Y9655618D01*
X29203177Y9659685D01*
X29215414Y9661065D01*
X30505414D01*
X30517651Y9659685D01*
X30529279Y9655618D01*
X30539706Y9649065D01*
X30548416Y9640357D01*
X30554968Y9629927D01*
X30559033Y9618303D01*
X30560413Y9606065D01*
Y8316065D01*
X30559033Y8303826D01*
X30554968Y8292201D01*
X30548416Y8281773D01*
X30539706Y8273063D01*
X30529279Y8266511D01*
X30517651Y8262443D01*
X30505414Y8261065D01*
D02*
G37*
G36*
X30029163Y4451064D02*
X28739166D01*
X28726926Y4452443D01*
X28715302Y4456511D01*
X28704874Y4463063D01*
X28696164Y4471772D01*
X28689609Y4482201D01*
X28685544Y4493825D01*
X28684164Y4506064D01*
Y5796064D01*
X28685544Y5808303D01*
X28689609Y5819928D01*
X28696164Y5830356D01*
X28704874Y5839065D01*
X28715302Y5845617D01*
X28726926Y5849686D01*
X28739166Y5851064D01*
X30029163D01*
X30041403Y5849686D01*
X30053027Y5845617D01*
X30063455Y5839065D01*
X30072165Y5830356D01*
X30078717Y5819928D01*
X30082785Y5808303D01*
X30084164Y5796064D01*
Y4506064D01*
X30082785Y4493825D01*
X30078717Y4482201D01*
X30072165Y4471772D01*
X30063455Y4463063D01*
X30053027Y4456511D01*
X30041403Y4452443D01*
X30029163Y4451064D01*
D02*
G37*
G36*
X22083646Y12139063D02*
X22080418Y12172204D01*
X22084119Y12205295D01*
X22094589Y12236904D01*
X22111375Y12265662D01*
X22133749Y12290322D01*
X22160744Y12309817D01*
X22191188Y12323303D01*
X22223766Y12330194D01*
X22257062Y12330195D01*
X22289639Y12323304D01*
X22320084Y12309817D01*
X22347078Y12290322D01*
X22369453Y12265663D01*
X22386240Y12236905D01*
X22396709Y12205296D01*
X22400410Y12172205D01*
X22397182Y12139064D01*
X22395631Y12122002D01*
X22397868Y12105015D01*
X22403783Y12088936D01*
X22413084Y12074548D01*
X22425320Y12062557D01*
X22439893Y12053547D01*
X22456088Y12047958D01*
X22473116Y12046064D01*
X25900015D01*
X25917258Y12044121D01*
X25933640Y12038389D01*
X25948334Y12029156D01*
X25960605Y12016884D01*
X25969839Y12002190D01*
X25975571Y11985809D01*
X25977515Y11968564D01*
Y11896064D01*
X25975571Y11878819D01*
X25969839Y11862438D01*
X25960605Y11847744D01*
X25948334Y11835472D01*
X25933640Y11826239D01*
X25917258Y11820507D01*
X25900015Y11818564D01*
X18580814Y11818563D01*
X18563568Y11820507D01*
X18547188Y11826238D01*
X18532494Y11835471D01*
X18520222Y11847743D01*
X18510989Y11862437D01*
X18505257Y11878818D01*
X18503314Y11896064D01*
Y11968563D01*
X18505257Y11985809D01*
X18510989Y12002189D01*
X18520222Y12016883D01*
X18532494Y12029156D01*
X18547188Y12038388D01*
X18563568Y12044120D01*
X18580814Y12046063D01*
X22007713D01*
X22024741Y12047957D01*
X22040936Y12053546D01*
X22055507Y12062557D01*
X22067744Y12074548D01*
X22077046Y12088935D01*
X22082961Y12105015D01*
X22085197Y12122001D01*
X22083646Y12139063D01*
D02*
G37*
G36*
X34069681Y1973064D02*
X34072910Y1939923D01*
X34069211Y1906832D01*
X34058740Y1875224D01*
X34041953Y1846466D01*
X34019580Y1821806D01*
X33992587Y1802311D01*
X33962140Y1788825D01*
X33929562Y1781933D01*
X33896265D01*
X33863690Y1788825D01*
X33833243Y1802311D01*
X33806250Y1821806D01*
X33783875Y1846466D01*
X33767090Y1875224D01*
X33756619Y1906832D01*
X33752921Y1939923D01*
X33756146Y1973064D01*
X33757697Y1990127D01*
X33755463Y2007113D01*
X33749545Y2023193D01*
X33740244Y2037580D01*
X33728006Y2049572D01*
X33713437Y2058582D01*
X33697241Y2064171D01*
X33680212Y2066065D01*
X30253314Y2066065D01*
X30236069Y2068007D01*
X30219687Y2073740D01*
X30204996Y2082972D01*
X30192722Y2095244D01*
X30183490Y2109939D01*
X30177759Y2126319D01*
X30175815Y2143564D01*
Y2216064D01*
X30177759Y2233309D01*
X30183490Y2249690D01*
X30192722Y2264385D01*
X30204996Y2276656D01*
X30219687Y2285890D01*
X30236069Y2291621D01*
X30253314Y2293564D01*
X36305014Y2293565D01*
X36322260Y2291622D01*
X36338641Y2285890D01*
X36353336Y2276657D01*
X36365607Y2264385D01*
X36374841Y2249691D01*
X36380573Y2233310D01*
X36382513Y2216065D01*
Y2143565D01*
X36380573Y2126320D01*
X36374841Y2109939D01*
X36365607Y2095245D01*
X36353336Y2082973D01*
X36338641Y2073740D01*
X36322260Y2068008D01*
X36305014Y2066065D01*
X34145615Y2066065D01*
X34128589Y2064171D01*
X34112393Y2058582D01*
X34097821Y2049572D01*
X34085583Y2037580D01*
X34076282Y2023193D01*
X34070370Y2007113D01*
X34068130Y1990127D01*
X34069681Y1973064D01*
D02*
G37*
G36*
X22397182Y1973063D02*
X22400410Y1939922D01*
X22396710Y1906831D01*
X22386240Y1875223D01*
X22369453Y1846465D01*
X22347079Y1821805D01*
X22320085Y1802310D01*
X22289639Y1788824D01*
X22257063Y1781932D01*
X22223766D01*
X22191190Y1788824D01*
X22160745Y1802310D01*
X22133749Y1821805D01*
X22111375Y1846465D01*
X22094591Y1875223D01*
X22084120Y1906831D01*
X22080418Y1939922D01*
X22083647Y1973063D01*
X22085197Y1990126D01*
X22082961Y2007112D01*
X22077048Y2023192D01*
X22067744Y2037579D01*
X22055508Y2049571D01*
X22040936Y2058581D01*
X22024741Y2064170D01*
X22007713Y2066064D01*
X18580815Y2066064D01*
X18563570Y2068006D01*
X18547188Y2073739D01*
X18532494Y2082971D01*
X18520222Y2095243D01*
X18510989Y2109938D01*
X18505258Y2126318D01*
X18503314Y2143563D01*
Y2216063D01*
X18505258Y2233308D01*
X18510989Y2249689D01*
X18520222Y2264384D01*
X18532494Y2276655D01*
X18547188Y2285888D01*
X18563570Y2291620D01*
X18580815Y2293563D01*
X25900015Y2293564D01*
X25917261Y2291621D01*
X25933640Y2285889D01*
X25948334Y2276656D01*
X25960608Y2264384D01*
X25969839Y2249690D01*
X25975571Y2233309D01*
X25977515Y2216064D01*
Y2143564D01*
X25975571Y2126319D01*
X25969839Y2109938D01*
X25960608Y2095244D01*
X25948334Y2082972D01*
X25933640Y2073739D01*
X25917261Y2068007D01*
X25900015Y2066064D01*
X22473116Y2066064D01*
X22456088Y2064170D01*
X22439893Y2058581D01*
X22425320Y2049571D01*
X22413084Y2037579D01*
X22403783Y2023192D01*
X22397868Y2007112D01*
X22395631Y1990126D01*
X22397182Y1973063D01*
D02*
G37*
G36*
X14451665Y7756063D02*
X15741664D01*
X15753903Y7754684D01*
X15765527Y7750616D01*
X15775957Y7744064D01*
X15784665Y7735355D01*
X15791219Y7724926D01*
X15795285Y7713301D01*
X15796664Y7701063D01*
Y6411063D01*
X15795285Y6398824D01*
X15791219Y6387199D01*
X15784665Y6376771D01*
X15775957Y6368062D01*
X15765527Y6361510D01*
X15753903Y6357442D01*
X15741664Y6356063D01*
X14451665D01*
X14439426Y6357442D01*
X14427802Y6361510D01*
X14417372Y6368062D01*
X14408664Y6376771D01*
X14402110Y6387199D01*
X14398042Y6398824D01*
X14396664Y6411063D01*
Y7701063D01*
X14398042Y7713301D01*
X14402110Y7724926D01*
X14408664Y7735355D01*
X14417372Y7744064D01*
X14427802Y7750616D01*
X14439426Y7754684D01*
X14451665Y7756063D01*
D02*
G37*
G36*
X13022914Y11566063D02*
X14312914D01*
X14325153Y11564684D01*
X14336777Y11560616D01*
X14347206Y11554064D01*
X14355914Y11545355D01*
X14362466Y11534926D01*
X14366534Y11523301D01*
X14367914Y11511063D01*
Y10221063D01*
X14366534Y10208824D01*
X14362466Y10197200D01*
X14355914Y10186771D01*
X14347206Y10178062D01*
X14336777Y10171509D01*
X14325153Y10167442D01*
X14312914Y10166062D01*
X13022916D01*
X13010677Y10167441D01*
X12999051Y10171509D01*
X12988622Y10178062D01*
X12979913Y10186771D01*
X12973360Y10197199D01*
X12969293Y10208824D01*
X12967914Y10221063D01*
X12967914Y11511063D01*
X12969293Y11523301D01*
X12973360Y11534926D01*
X12979913Y11545355D01*
X12988622Y11554064D01*
X12999049Y11560616D01*
X13010677Y11564684D01*
X13022914Y11566063D01*
D02*
G37*
G36*
X13415414Y9606063D02*
X13415414Y8316063D01*
X13414035Y8303824D01*
X13409969Y8292199D01*
X13403415Y8281771D01*
X13394707Y8273062D01*
X13384277Y8266509D01*
X13372652Y8262441D01*
X13360414Y8261062D01*
X12070415D01*
X12058176Y8262441D01*
X12046551Y8266509D01*
X12036123Y8273062D01*
X12027414Y8281771D01*
X12020860Y8292199D01*
X12016793Y8303824D01*
X12015415Y8316063D01*
X12015414Y9606063D01*
X12016793Y9618301D01*
X12020860Y9629926D01*
X12027413Y9640355D01*
X12036122Y9649064D01*
X12046551Y9655616D01*
X12058176Y9659684D01*
X12070415Y9661063D01*
X13360413D01*
X13372652Y9659684D01*
X13384277Y9655616D01*
X13394705Y9649064D01*
X13403415Y9640355D01*
X13409969Y9629926D01*
X13414035Y9618301D01*
X13415414Y9606063D01*
D02*
G37*
G36*
X12462913Y11511063D02*
X12462914Y10221063D01*
X12461535Y10208824D01*
X12457468Y10197199D01*
X12450915Y10186771D01*
X12442205Y10178062D01*
X12431777Y10171509D01*
X12420152Y10167441D01*
X12407913Y10166062D01*
X11117915D01*
X11105676Y10167441D01*
X11094051Y10171509D01*
X11083622Y10178062D01*
X11074913Y10186771D01*
X11068360Y10197199D01*
X11064293Y10208824D01*
X11062914Y10221063D01*
X11062914Y11511063D01*
X11064293Y11523301D01*
X11068360Y11534926D01*
X11074913Y11545355D01*
X11083622Y11554064D01*
X11094050Y11560616D01*
X11105676Y11564684D01*
X11117914Y11566063D01*
X12407913D01*
X12420152Y11564684D01*
X12431777Y11560616D01*
X12442205Y11554064D01*
X12450914Y11545355D01*
X12457468Y11534926D01*
X12461535Y11523301D01*
X12462913Y11511063D01*
D02*
G37*
G36*
X12939165Y5796063D02*
X12939165Y4506063D01*
X12937785Y4493824D01*
X12933717Y4482199D01*
X12927165Y4471771D01*
X12918456Y4463062D01*
X12908028Y4456509D01*
X12896404Y4452442D01*
X12884164Y4451062D01*
X11594165D01*
X11581926Y4452442D01*
X11570301Y4456509D01*
X11559873Y4463062D01*
X11551164Y4471771D01*
X11544611Y4482199D01*
X11540544Y4493824D01*
X11539165Y4506063D01*
X11539165Y5796063D01*
X11540543Y5808301D01*
X11544610Y5819926D01*
X11551164Y5830355D01*
X11559873Y5839063D01*
X11570301Y5845616D01*
X11581926Y5849684D01*
X11594165Y5851063D01*
X12884164D01*
X12896402Y5849684D01*
X12908028Y5845616D01*
X12918456Y5839063D01*
X12927165Y5830355D01*
X12933717Y5819926D01*
X12937785Y5808301D01*
X12939165Y5796063D01*
D02*
G37*
G36*
X11455414Y2546062D02*
X9927289D01*
X9915051Y2547442D01*
X9903426Y2551509D01*
X9892997Y2558062D01*
X9884289Y2566771D01*
X9877737Y2577199D01*
X9873669Y2588824D01*
X9872289Y2601063D01*
X9872289Y3891063D01*
X9873669Y3903301D01*
X9877737Y3914926D01*
X9884289Y3925355D01*
X9892997Y3934063D01*
X9903426Y3940616D01*
X9915050Y3944684D01*
X9927289Y3946063D01*
X11455414D01*
X11467653Y3944684D01*
X11479278Y3940616D01*
X11489706Y3934063D01*
X11498415Y3925355D01*
X11504968Y3914926D01*
X11509035Y3903301D01*
X11510414Y3891063D01*
X11510414Y2601063D01*
X11509036Y2588824D01*
X11504969Y2577199D01*
X11498415Y2566771D01*
X11489706Y2558062D01*
X11479278Y2551509D01*
X11467653Y2547442D01*
X11455414Y2546062D01*
D02*
G37*
G36*
X8443539Y4506063D02*
X8443539Y5796063D01*
X8444918Y5808301D01*
X8448986Y5819926D01*
X8455539Y5830355D01*
X8464247Y5839063D01*
X8474676Y5845616D01*
X8486300Y5849683D01*
X8498539Y5851063D01*
X9788540D01*
X9800778Y5849683D01*
X9812403Y5845616D01*
X9822832Y5839063D01*
X9831540Y5830355D01*
X9838092Y5819926D01*
X9842160Y5808301D01*
X9843540Y5796063D01*
X9843540Y4506063D01*
X9842160Y4493824D01*
X9838092Y4482199D01*
X9831540Y4471771D01*
X9822832Y4463062D01*
X9812403Y4456509D01*
X9800779Y4452441D01*
X9788540Y4451062D01*
X8498539D01*
X8486300Y4452441D01*
X8474676Y4456509D01*
X8464247Y4463062D01*
X8455539Y4471771D01*
X8448987Y4482199D01*
X8444919Y4493824D01*
X8443539Y4506063D01*
D02*
G37*
G36*
X13975414Y9661063D02*
X15265414D01*
X15277654Y9659684D01*
X15289278Y9655616D01*
X15299706Y9649064D01*
X15308415Y9640355D01*
X15314967Y9629926D01*
X15319035Y9618301D01*
X15320415Y9606063D01*
Y8316063D01*
X15319035Y8303824D01*
X15314967Y8292200D01*
X15308415Y8281771D01*
X15299706Y8273062D01*
X15289278Y8266509D01*
X15277654Y8262442D01*
X15265414Y8261062D01*
X13975414D01*
X13963176Y8262442D01*
X13951550Y8266509D01*
X13941122Y8273062D01*
X13932414Y8281771D01*
X13925861Y8292200D01*
X13921793Y8303824D01*
X13920415Y8316063D01*
Y9606063D01*
X13921793Y9618301D01*
X13925861Y9629926D01*
X13932414Y9640355D01*
X13941122Y9649064D01*
X13951550Y9655616D01*
X13963176Y9659684D01*
X13975414Y9661063D01*
D02*
G37*
G36*
X18177914Y10221064D02*
X18176535Y10208825D01*
X18172467Y10197200D01*
X18165915Y10186772D01*
X18157207Y10178062D01*
X18146777Y10171510D01*
X18135152Y10167442D01*
X18122914Y10166063D01*
X16832915D01*
X16820676Y10167442D01*
X16809050Y10171510D01*
X16798622Y10178062D01*
X16789912Y10186772D01*
X16783360Y10197200D01*
X16779292Y10208825D01*
X16777914Y10221064D01*
Y11511064D01*
X16779292Y11523302D01*
X16783360Y11534926D01*
X16789912Y11545356D01*
X16798622Y11554064D01*
X16809050Y11560617D01*
X16820676Y11564684D01*
X16832915Y11566064D01*
X18122914D01*
X18135152Y11564684D01*
X18146777Y11560617D01*
X18157207Y11554064D01*
X18165915Y11545356D01*
X18172467Y11534926D01*
X18176535Y11523302D01*
X18177914Y11511064D01*
Y10221064D01*
D02*
G37*
D11*
X22528729Y1801064D02*
X26152914Y1801064D01*
X26181842Y1804323D01*
X26209320Y1813938D01*
X26233969Y1829426D01*
X26254553Y1850010D01*
X26270041Y1874659D01*
X26279654Y1902136D01*
X26282916Y1931064D01*
Y2216064D01*
X26284857Y2233309D01*
X26290591Y2249690D01*
X26299823Y2264384D01*
X26312094Y2276656D01*
X26326788Y2285889D01*
X26343170Y2291621D01*
X26360413Y2293564D01*
X29792914Y2293564D01*
X29810162Y2291621D01*
X29826541Y2285890D01*
X29841235Y2276656D01*
X29853506Y2264385D01*
X29862738Y2249690D01*
X29868472Y2233309D01*
X29870413Y2216064D01*
Y1931065D01*
X29873672Y1902137D01*
X29883289Y1874659D01*
X29898776Y1850011D01*
X29919360Y1829426D01*
X29944012Y1813938D01*
X29971487Y1804324D01*
X30000415Y1801064D01*
X33624600Y1801065D01*
X33651007Y1798355D01*
X33676312Y1790337D01*
X33699463Y1777347D01*
X33719489Y1759925D01*
X33760315Y1724412D01*
X33807504Y1697932D01*
X33859088Y1681589D01*
X33912915Y1676065D01*
X33966742Y1681589D01*
X34018326Y1697932D01*
X34065515Y1724412D01*
X34106342Y1759925D01*
X34126370Y1777347D01*
X34149518Y1790337D01*
X34174823Y1798355D01*
X34201230Y1801065D01*
X36557916Y1801065D01*
X36586841Y1804324D01*
X36614319Y1813939D01*
X36638968Y1829427D01*
X36659552Y1850011D01*
X36675040Y1874660D01*
X36684656Y1902137D01*
X36687915Y1931065D01*
Y2216065D01*
X36689859Y2233310D01*
X36695590Y2249691D01*
X36704822Y2264385D01*
X36717093Y2276657D01*
X36731790Y2285890D01*
X36748169Y2291622D01*
X36765414Y2293565D01*
X37402914D01*
X37420160Y2295508D01*
X37436542Y2301240D01*
X37451236Y2310473D01*
X37463507Y2322744D01*
X37472739Y2337439D01*
X37478473Y2353820D01*
X37480414Y2371065D01*
Y11741065D01*
X37478473Y11758310D01*
X37472739Y11774691D01*
X37463507Y11789386D01*
X37451236Y11801657D01*
X37436539Y11810890D01*
X37420160Y11816622D01*
X37402914Y11818565D01*
X36765414D01*
X36748169Y11820508D01*
X36731790Y11826240D01*
X36717093Y11835473D01*
X36704822Y11847745D01*
X36695590Y11862439D01*
X36689856Y11878820D01*
X36687915Y11896065D01*
Y12181065D01*
X36684656Y12209992D01*
X36675040Y12237470D01*
X36659552Y12262118D01*
X36638968Y12282703D01*
X36614319Y12298191D01*
X36586841Y12307806D01*
X36557916Y12311065D01*
X34201227D01*
X34174823Y12313775D01*
X34149518Y12321792D01*
X34126370Y12334783D01*
X34106339Y12352204D01*
X34065515Y12387717D01*
X34018326Y12414197D01*
X33966742Y12430541D01*
X33912912Y12436065D01*
X33859085Y12430540D01*
X33807504Y12414197D01*
X33760315Y12387717D01*
X33719489Y12352204D01*
X33699460Y12334782D01*
X33676312Y12321792D01*
X33651007Y12313775D01*
X33624600Y12311064D01*
X30000412D01*
X29971484Y12307805D01*
X29944009Y12298190D01*
X29919360Y12282702D01*
X29898776Y12262118D01*
X29883289Y12237469D01*
X29873672Y12209992D01*
X29870413Y12181064D01*
Y11896065D01*
X29868472Y11878819D01*
X29862738Y11862438D01*
X29853506Y11847744D01*
X29841235Y11835472D01*
X29826541Y11826239D01*
X29810159Y11820508D01*
X29792914Y11818564D01*
X26360413D01*
X26343170Y11820507D01*
X26326788Y11826239D01*
X26312094Y11835472D01*
X26299823Y11847744D01*
X26290588Y11862438D01*
X26284857Y11878819D01*
X26282913Y11896064D01*
Y12181064D01*
X26279654Y12209991D01*
X26270041Y12237469D01*
X26254553Y12262117D01*
X26233969Y12282702D01*
X26209320Y12298190D01*
X26181842Y12307805D01*
X26152914Y12311064D01*
X22528728D01*
X22502322Y12313774D01*
X22477016Y12321791D01*
X22453868Y12334782D01*
X22433839Y12352203D01*
X22393013Y12387716D01*
X22345825Y12414196D01*
X22294241Y12430540D01*
X22240414Y12436064D01*
X22186586Y12430539D01*
X22135002Y12414196D01*
X22087814Y12387716D01*
X22046988Y12352203D01*
X22026961Y12334781D01*
X22003812Y12321791D01*
X21978506Y12313774D01*
X21952100Y12311063D01*
X18327914D01*
X18298987Y12307804D01*
X18271509Y12298189D01*
X18246861Y12282701D01*
X18226276Y12262117D01*
X18210788Y12237468D01*
X18201173Y12209991D01*
X18197914Y12181063D01*
Y11896064D01*
X18195972Y11878818D01*
X18190239Y11862437D01*
X18181006Y11847743D01*
X18168735Y11835471D01*
X18154041Y11826238D01*
X18137659Y11820507D01*
X18120415Y11818563D01*
X14687914D01*
X14670668Y11820506D01*
X14654288Y11826238D01*
X14639594Y11835471D01*
X14627322Y11847743D01*
X14618089Y11862437D01*
X14612357Y11878818D01*
X14610414Y11896063D01*
Y12181063D01*
X14607153Y12209990D01*
X14597540Y12237468D01*
X14582053Y12262116D01*
X14561467Y12282701D01*
X14536818Y12298189D01*
X14509341Y12307804D01*
X14480414Y12311063D01*
X10856227D01*
X10829821Y12313773D01*
X10804517Y12321790D01*
X10781367Y12334781D01*
X10761340Y12352202D01*
X10720514Y12387715D01*
X10673325Y12414195D01*
X10621742Y12430539D01*
X10567914Y12436063D01*
X10514086Y12430537D01*
X10462503Y12414195D01*
X10415314Y12387715D01*
X10374488Y12352202D01*
X10354459Y12334779D01*
X10331311Y12321790D01*
X10306006Y12313773D01*
X10279599Y12311062D01*
X7922913D01*
X7893986Y12307803D01*
X7866509Y12298188D01*
X7841860Y12282700D01*
X7821276Y12262116D01*
X7805788Y12237467D01*
X7796173Y12209990D01*
X7792914Y12181062D01*
Y11896063D01*
X7790970Y11878817D01*
X7785239Y11862436D01*
X7776006Y11847742D01*
X7763735Y11835470D01*
X7749039Y11826237D01*
X7732659Y11820506D01*
X7715414Y11818562D01*
X7077914D01*
X7060669Y11816619D01*
X7044288Y11810887D01*
X7029593Y11801654D01*
X7017322Y11789383D01*
X7008089Y11774688D01*
X7002356Y11758307D01*
X7000414Y11741063D01*
X7000415Y2371062D01*
X7002357Y2353817D01*
X7008090Y2337436D01*
X7017323Y2322742D01*
X7029594Y2310471D01*
X7044289Y2301237D01*
X7060670Y2295505D01*
X7077915Y2293562D01*
X7715415D01*
X7732660Y2291619D01*
X7749040Y2285887D01*
X7763736Y2276654D01*
X7776007Y2264383D01*
X7785240Y2249688D01*
X7790971Y2233307D01*
X7792915Y2216062D01*
Y1931063D01*
X7796174Y1902135D01*
X7805789Y1874657D01*
X7821277Y1850009D01*
X7841861Y1829424D01*
X7866510Y1813936D01*
X7893987Y1804322D01*
X7922914Y1801062D01*
X10279600Y1801063D01*
X10306007Y1798353D01*
X10331312Y1790335D01*
X10354460Y1777345D01*
X10374489Y1759923D01*
X10415315Y1724410D01*
X10462504Y1697930D01*
X10514087Y1681587D01*
X10567915Y1676063D01*
X10621743Y1681587D01*
X10673326Y1697930D01*
X10720515Y1724410D01*
X10761341Y1759923D01*
X10781368Y1777345D01*
X10804518Y1790335D01*
X10829822Y1798353D01*
X10856228Y1801063D01*
X14480415Y1801063D01*
X14509343Y1804322D01*
X14536819Y1813937D01*
X14561469Y1829425D01*
X14582053Y1850009D01*
X14597540Y1874658D01*
X14607155Y1902135D01*
X14610416Y1931063D01*
Y2216063D01*
X14612358Y2233308D01*
X14618089Y2249689D01*
X14627322Y2264383D01*
X14639594Y2276655D01*
X14654289Y2285888D01*
X14670670Y2291620D01*
X14687915Y2293563D01*
X18120415Y2293563D01*
X18137660Y2291620D01*
X18154041Y2285888D01*
X18168735Y2276655D01*
X18181007Y2264384D01*
X18190240Y2249689D01*
X18195972Y2233308D01*
X18197916Y2216063D01*
Y1931064D01*
X18201173Y1902136D01*
X18210789Y1874658D01*
X18226276Y1850010D01*
X18246861Y1829425D01*
X18271510Y1813937D01*
X18298987Y1804323D01*
X18327914Y1801063D01*
X21952101Y1801064D01*
X21978506Y1798354D01*
X22003812Y1790336D01*
X22026961Y1777346D01*
X22046989Y1759924D01*
X22087814Y1724411D01*
X22135004Y1697931D01*
X22186588Y1681588D01*
X22240414Y1676064D01*
X22294243Y1681588D01*
X22345827Y1697931D01*
X22393015Y1724411D01*
X22433839Y1759924D01*
X22453870Y1777346D01*
X22477017Y1790336D01*
X22502322Y1798354D01*
X22528729Y1801064D01*
%TF.MD5,bd9d14bde7bcf3ce269df5607ca51faa*%
M02*
