%TF.GenerationSoftware,Altium Limited,Altium Designer,21.6.4 (81)*%
G04 Layer_Physical_Order=2*
G04 Layer_Color=16711680*
%FSLAX45Y45*%
%MOMM*%
%TF.SameCoordinates,9FA947FD-24AC-44E9-AB3F-4C708A796988*%
%TF.FilePolarity,Positive*%
%TF.FileFunction,Copper,L2,Bot,Signal*%
%TF.Part,Single*%
G01*
G75*
G36*
X33961453Y12405051D02*
X34007971Y12390313D01*
X34050522Y12366434D01*
X34089343Y12332666D01*
X34089343Y12332665D01*
X34089343Y12332665D01*
X34109372Y12315243D01*
X34111679Y12313926D01*
X34113696Y12312199D01*
X34136844Y12299209D01*
X34139368Y12298386D01*
X34141696Y12297105D01*
X34167001Y12289088D01*
X34169641Y12288795D01*
X34172177Y12288014D01*
X34198584Y12285304D01*
X34199915Y12285430D01*
X34201227Y12285169D01*
X36556461D01*
X36581042Y12282399D01*
X36603012Y12274712D01*
X36622717Y12262329D01*
X36639178Y12245870D01*
X36651559Y12226163D01*
X36659247Y12204193D01*
X36662018Y12179610D01*
Y11896065D01*
X36662305Y11894626D01*
X36662180Y11893165D01*
X36664124Y11875921D01*
X36665005Y11873148D01*
X36665414Y11870266D01*
X36671146Y11853886D01*
X36672623Y11851379D01*
X36673663Y11848661D01*
X36682895Y11833967D01*
X36684894Y11831853D01*
X36686511Y11829433D01*
X36698782Y11817162D01*
X36701202Y11815545D01*
X36703317Y11813546D01*
X36718011Y11804313D01*
X36720728Y11803275D01*
X36723236Y11801797D01*
X36739615Y11796065D01*
X36742496Y11795658D01*
X36745270Y11794774D01*
X36762515Y11792832D01*
X36763977Y11792955D01*
X36765414Y11792669D01*
X37401459D01*
X37414362Y11791215D01*
X37425232Y11787411D01*
X37434985Y11781282D01*
X37443130Y11773137D01*
X37449261Y11763384D01*
X37453064Y11752511D01*
X37454517Y11739611D01*
Y2372518D01*
X37453064Y2359619D01*
X37449261Y2348746D01*
X37443130Y2338993D01*
X37434985Y2330847D01*
X37425235Y2324719D01*
X37414359Y2320915D01*
X37401459Y2319461D01*
X36765414D01*
X36763977Y2319175D01*
X36762515Y2319298D01*
X36745270Y2317355D01*
X36742496Y2316472D01*
X36739615Y2316065D01*
X36723236Y2310333D01*
X36720731Y2308855D01*
X36718011Y2307817D01*
X36703317Y2298584D01*
X36701202Y2296585D01*
X36698782Y2294968D01*
X36686511Y2282697D01*
X36684894Y2280278D01*
X36682895Y2278163D01*
X36673663Y2263469D01*
X36672623Y2260749D01*
X36671146Y2258242D01*
X36665414Y2241861D01*
X36665009Y2238983D01*
X36664124Y2236212D01*
X36662180Y2218967D01*
X36662305Y2217504D01*
X36662018Y2216065D01*
Y1932520D01*
X36659247Y1907936D01*
X36651562Y1885967D01*
X36639178Y1866259D01*
X36622720Y1849801D01*
X36603012Y1837418D01*
X36581042Y1829731D01*
X36556461Y1826961D01*
X34201230Y1826961D01*
X34199918Y1826700D01*
X34198587Y1826826D01*
X34172177Y1824115D01*
X34169641Y1823334D01*
X34167001Y1823041D01*
X34141696Y1815024D01*
X34139368Y1813743D01*
X34136844Y1812921D01*
X34113696Y1799931D01*
X34111679Y1798204D01*
X34109372Y1796885D01*
X34089346Y1779464D01*
X34089346Y1779463D01*
X34050522Y1745695D01*
X34007971Y1721816D01*
X33961456Y1707079D01*
X33912915Y1702097D01*
X33864377Y1707079D01*
X33817856Y1721817D01*
X33775305Y1745695D01*
X33736484Y1779464D01*
X33716458Y1796885D01*
X33714154Y1798204D01*
X33712134Y1799931D01*
X33688983Y1812921D01*
X33686459Y1813744D01*
X33684134Y1815024D01*
X33658829Y1823041D01*
X33656189Y1823334D01*
X33653650Y1824115D01*
X33627246Y1826826D01*
X33625912Y1826700D01*
X33624600Y1826961D01*
X30001871Y1826961D01*
X29977286Y1829731D01*
X29955319Y1837418D01*
X29935608Y1849801D01*
X29919150Y1866259D01*
X29906769Y1885967D01*
X29899081Y1907936D01*
X29896310Y1932519D01*
Y2216064D01*
X29896024Y2217503D01*
X29896146Y2218964D01*
X29894205Y2236208D01*
X29893320Y2238981D01*
X29892914Y2241863D01*
X29887183Y2258244D01*
X29885703Y2260749D01*
X29884668Y2263466D01*
X29875436Y2278161D01*
X29873438Y2280277D01*
X29871817Y2282698D01*
X29859543Y2294969D01*
X29857126Y2296584D01*
X29855014Y2298583D01*
X29840320Y2307816D01*
X29837601Y2308854D01*
X29835095Y2310332D01*
X29818713Y2316064D01*
X29815833Y2316471D01*
X29813062Y2317355D01*
X29795816Y2319298D01*
X29794354Y2319175D01*
X29792914Y2319461D01*
X26360413Y2319460D01*
X26358975Y2319174D01*
X26357513Y2319297D01*
X26340271Y2317354D01*
X26337497Y2316471D01*
X26334616Y2316064D01*
X26318237Y2310332D01*
X26315729Y2308854D01*
X26313010Y2307816D01*
X26298315Y2298583D01*
X26296201Y2296584D01*
X26293784Y2294967D01*
X26281512Y2282696D01*
X26279895Y2280277D01*
X26277896Y2278162D01*
X26268661Y2263468D01*
X26267624Y2260750D01*
X26266147Y2258243D01*
X26260413Y2241863D01*
X26260007Y2238980D01*
X26259125Y2236208D01*
X26257181Y2218963D01*
X26257303Y2217502D01*
X26257019Y2216064D01*
Y1932519D01*
X26254248Y1907935D01*
X26246561Y1885966D01*
X26234177Y1866259D01*
X26217719Y1849800D01*
X26198013Y1837417D01*
X26176044Y1829730D01*
X26151459Y1826960D01*
X22528729Y1826960D01*
X22527415Y1826699D01*
X22526083Y1826825D01*
X22499680Y1824114D01*
X22497142Y1823333D01*
X22494501Y1823041D01*
X22469196Y1815023D01*
X22466870Y1813743D01*
X22464343Y1812920D01*
X22441196Y1799930D01*
X22439177Y1798203D01*
X22436873Y1796885D01*
X22416844Y1779463D01*
X22378024Y1745694D01*
X22335471Y1721815D01*
X22288956Y1707078D01*
X22240414Y1702096D01*
X22191875Y1707078D01*
X22145358Y1721815D01*
X22102806Y1745694D01*
X22063985Y1779463D01*
D01*
X22063985Y1779463D01*
X22043958Y1796885D01*
X22041650Y1798203D01*
X22039635Y1799930D01*
X22016486Y1812920D01*
X22013960Y1813743D01*
X22011633Y1815023D01*
X21986328Y1823040D01*
X21983688Y1823333D01*
X21981151Y1824114D01*
X21954745Y1826825D01*
X21953413Y1826699D01*
X21952101Y1826960D01*
X18329370Y1826960D01*
X18304787Y1829730D01*
X18282816Y1837417D01*
X18263110Y1849799D01*
X18246651Y1866258D01*
X18234268Y1885965D01*
X18226581Y1907935D01*
X18223811Y1932518D01*
Y2216063D01*
X18223524Y2217502D01*
X18223648Y2218964D01*
X18221706Y2236209D01*
X18220821Y2238981D01*
X18220415Y2241861D01*
X18214684Y2258242D01*
X18213205Y2260749D01*
X18212167Y2263467D01*
X18202934Y2278162D01*
X18200935Y2280276D01*
X18199318Y2282695D01*
X18187047Y2294966D01*
X18184628Y2296583D01*
X18182513Y2298582D01*
X18167819Y2307815D01*
X18165100Y2308853D01*
X18162595Y2310332D01*
X18146213Y2316063D01*
X18143332Y2316470D01*
X18140559Y2317354D01*
X18123314Y2319297D01*
X18121854Y2319174D01*
X18120415Y2319460D01*
X14687915Y2319459D01*
X14686476Y2319173D01*
X14685014Y2319296D01*
X14667770Y2317353D01*
X14664996Y2316470D01*
X14662115Y2316063D01*
X14645737Y2310331D01*
X14643230Y2308853D01*
X14640511Y2307815D01*
X14625816Y2298582D01*
X14623701Y2296583D01*
X14621283Y2294966D01*
X14609012Y2282695D01*
X14607394Y2280276D01*
X14605396Y2278161D01*
X14596162Y2263466D01*
X14595125Y2260748D01*
X14593646Y2258242D01*
X14587915Y2241861D01*
X14587508Y2238980D01*
X14586624Y2236208D01*
X14584682Y2218963D01*
X14584804Y2217501D01*
X14584518Y2216063D01*
Y1932518D01*
X14581749Y1907934D01*
X14574062Y1885966D01*
X14561678Y1866257D01*
X14545219Y1849799D01*
X14525513Y1837416D01*
X14503545Y1829729D01*
X14478960Y1826959D01*
X10856228Y1826959D01*
X10854916Y1826698D01*
X10853584Y1826824D01*
X10827178Y1824113D01*
X10824640Y1823332D01*
X10822001Y1823039D01*
X10796696Y1815022D01*
X10794370Y1813742D01*
X10791845Y1812919D01*
X10768696Y1799929D01*
X10766678Y1798202D01*
X10764372Y1796883D01*
X10744345Y1779462D01*
X10744345D01*
X10705524Y1745693D01*
X10662971Y1721814D01*
X10616455Y1707077D01*
X10567915Y1702095D01*
X10519375Y1707077D01*
X10472859Y1721814D01*
X10430306Y1745693D01*
X10391485Y1779462D01*
D01*
X10391485Y1779462D01*
X10371456Y1796884D01*
X10369151Y1798202D01*
X10367133Y1799929D01*
X10343985Y1812919D01*
X10341460Y1813741D01*
X10339133Y1815022D01*
X10313829Y1823039D01*
X10311189Y1823332D01*
X10308651Y1824113D01*
X10282245Y1826824D01*
X10280913Y1826698D01*
X10279600Y1826959D01*
X7924369Y1826959D01*
X7899786Y1829729D01*
X7877816Y1837416D01*
X7858110Y1849798D01*
X7841651Y1866257D01*
X7829268Y1885964D01*
X7821581Y1907934D01*
X7818811Y1932517D01*
Y2216062D01*
X7818525Y2217501D01*
X7818649Y2218963D01*
X7816705Y2236208D01*
X7815821Y2238980D01*
X7815415Y2241860D01*
X7809684Y2258241D01*
X7808205Y2260748D01*
X7807167Y2263466D01*
X7797934Y2278161D01*
X7795935Y2280275D01*
X7794318Y2282694D01*
X7782047Y2294965D01*
X7779627Y2296582D01*
X7777513Y2298581D01*
X7762818Y2307815D01*
X7760099Y2308852D01*
X7757593Y2310330D01*
X7741214Y2316062D01*
X7738332Y2316469D01*
X7735560Y2317353D01*
X7718314Y2319296D01*
X7716853Y2319173D01*
X7715415Y2319459D01*
X7079370D01*
X7066468Y2320912D01*
X7055596Y2324716D01*
X7045843Y2330845D01*
X7037698Y2338990D01*
X7031569Y2348744D01*
X7027764Y2359616D01*
X7026311Y2372516D01*
X7026310Y11739609D01*
X7027763Y11752508D01*
X7031568Y11763381D01*
X7037696Y11773134D01*
X7045842Y11781279D01*
X7055595Y11787408D01*
X7066468Y11791213D01*
X7079368Y11792666D01*
X7715414D01*
X7716852Y11792952D01*
X7718314Y11792829D01*
X7735559Y11794772D01*
X7738332Y11795656D01*
X7741212Y11796063D01*
X7757592Y11801794D01*
X7760098Y11803272D01*
X7762817Y11804310D01*
X7777512Y11813543D01*
X7779627Y11815542D01*
X7782046Y11817159D01*
X7794317Y11829430D01*
X7795934Y11831849D01*
X7797933Y11833964D01*
X7807166Y11848658D01*
X7808204Y11851377D01*
X7809683Y11853884D01*
X7815414Y11870265D01*
X7815821Y11873145D01*
X7816704Y11875917D01*
X7818648Y11893162D01*
X7818524Y11894624D01*
X7818810Y11896063D01*
Y12179607D01*
X7821580Y12204191D01*
X7829268Y12226161D01*
X7841650Y12245868D01*
X7858108Y12262326D01*
X7877815Y12274708D01*
X7899785Y12282396D01*
X7924368Y12285166D01*
X10279599D01*
X10280912Y12285427D01*
X10282244Y12285301D01*
X10308651Y12288012D01*
X10311189Y12288793D01*
X10313828Y12289086D01*
X10339132Y12297103D01*
X10341459Y12298384D01*
X10343983Y12299206D01*
X10367132Y12312196D01*
X10369150Y12313922D01*
X10371456Y12315241D01*
X10391484Y12332663D01*
D01*
X10430305Y12366432D01*
X10472857Y12390311D01*
X10519374Y12405048D01*
X10567914Y12410030D01*
X10616454Y12405049D01*
X10662970Y12390311D01*
X10705523Y12366432D01*
X10744344Y12332663D01*
X10764371Y12315242D01*
X10766676Y12313924D01*
X10768694Y12312197D01*
X10791844Y12299207D01*
X10794369Y12298384D01*
X10796695Y12297103D01*
X10822000Y12289086D01*
X10824640Y12288793D01*
X10827178Y12288012D01*
X10853584Y12285302D01*
X10854915Y12285428D01*
X10856227Y12285167D01*
X14478960D01*
X14503542Y12282397D01*
X14525513Y12274710D01*
X14545219Y12262327D01*
X14561678Y12245868D01*
X14574060Y12226161D01*
X14581747Y12204192D01*
X14584517Y12179608D01*
Y11896063D01*
X14584802Y11894624D01*
X14584680Y11893163D01*
X14586623Y11875918D01*
X14587508Y11873146D01*
X14587914Y11870265D01*
X14593645Y11853884D01*
X14595123Y11851378D01*
X14596162Y11848660D01*
X14605394Y11833965D01*
X14607393Y11831851D01*
X14609010Y11829430D01*
X14621281Y11817160D01*
X14623701Y11815544D01*
X14625815Y11813545D01*
X14640511Y11804311D01*
X14643228Y11803274D01*
X14645734Y11801795D01*
X14662114Y11796063D01*
X14664996Y11795656D01*
X14667769Y11794772D01*
X14685014Y11792830D01*
X14686476Y11792953D01*
X14687914Y11792667D01*
X18120415D01*
X18121854Y11792953D01*
X18123315Y11792830D01*
X18140559Y11794773D01*
X18143330Y11795657D01*
X18146211Y11796064D01*
X18162592Y11801795D01*
X18165099Y11803273D01*
X18167818Y11804311D01*
X18182512Y11813544D01*
X18184625Y11815543D01*
X18187045Y11817160D01*
X18199316Y11829431D01*
X18200932Y11831850D01*
X18202933Y11833965D01*
X18212166Y11848659D01*
X18213203Y11851377D01*
X18214682Y11853884D01*
X18220415Y11870264D01*
X18220821Y11873147D01*
X18221706Y11875919D01*
X18223647Y11893165D01*
X18223524Y11894625D01*
X18223810Y11896064D01*
Y12179608D01*
X18226579Y12204192D01*
X18234267Y12226162D01*
X18246651Y12245868D01*
X18263109Y12262327D01*
X18282816Y12274710D01*
X18304785Y12282397D01*
X18329369Y12285167D01*
X21952100D01*
X21953412Y12285428D01*
X21954745Y12285302D01*
X21981149Y12288013D01*
X21983687Y12288794D01*
X21986327Y12289087D01*
X22011632Y12297104D01*
X22013959Y12298384D01*
X22016484Y12299207D01*
X22039632Y12312197D01*
X22041650Y12313923D01*
X22043956Y12315242D01*
X22063985Y12332664D01*
D01*
X22102805Y12366433D01*
X22145357Y12390312D01*
X22191875Y12405049D01*
X22240414Y12410031D01*
X22288954Y12405050D01*
X22335471Y12390312D01*
X22378023Y12366433D01*
X22416843Y12332664D01*
X22416843D01*
X22416844Y12332664D01*
X22436871Y12315243D01*
X22439177Y12313924D01*
X22441194Y12312198D01*
X22464343Y12299208D01*
X22466869Y12298385D01*
X22469196Y12297104D01*
X22494501Y12289087D01*
X22497141Y12288794D01*
X22499678Y12288013D01*
X22526083Y12285303D01*
X22527415Y12285429D01*
X22528728Y12285168D01*
X26151459D01*
X26176044Y12282398D01*
X26198013Y12274711D01*
X26217719Y12262328D01*
X26234177Y12245869D01*
X26246561Y12226162D01*
X26254248Y12204193D01*
X26257016Y12179609D01*
Y11896064D01*
X26257303Y11894624D01*
X26257181Y11893163D01*
X26259125Y11875919D01*
X26260007Y11873147D01*
X26260413Y11870267D01*
X26266144Y11853886D01*
X26267624Y11851379D01*
X26268661Y11848660D01*
X26277896Y11833966D01*
X26279895Y11831852D01*
X26281512Y11829432D01*
X26293781Y11817161D01*
X26296201Y11815545D01*
X26298315Y11813546D01*
X26313010Y11804312D01*
X26315729Y11803275D01*
X26318234Y11801796D01*
X26334616Y11796064D01*
X26337497Y11795657D01*
X26340271Y11794773D01*
X26357516Y11792831D01*
X26358975Y11792954D01*
X26360413Y11792668D01*
X29792914D01*
X29794351Y11792954D01*
X29795813Y11792831D01*
X29813058Y11794774D01*
X29815833Y11795658D01*
X29818710Y11796064D01*
X29835092Y11801796D01*
X29837601Y11803274D01*
X29840320Y11804313D01*
X29855014Y11813546D01*
X29857126Y11815545D01*
X29859546Y11817161D01*
X29871817Y11829432D01*
X29873434Y11831851D01*
X29875433Y11833966D01*
X29884665Y11848660D01*
X29885703Y11851378D01*
X29887183Y11853885D01*
X29892914Y11870265D01*
X29893320Y11873148D01*
X29894205Y11875920D01*
X29896146Y11893166D01*
X29896024Y11894626D01*
X29896310Y11896065D01*
Y12179609D01*
X29899081Y12204194D01*
X29906769Y12226162D01*
X29919150Y12245870D01*
X29935608Y12262328D01*
X29955316Y12274711D01*
X29977283Y12282398D01*
X30001868Y12285168D01*
X33624600D01*
X33625912Y12285429D01*
X33627246Y12285303D01*
X33653650Y12288014D01*
X33656189Y12288795D01*
X33658829Y12289088D01*
X33684134Y12297105D01*
X33686459Y12298386D01*
X33688983Y12299208D01*
X33712131Y12312198D01*
X33714151Y12313925D01*
X33716455Y12315244D01*
X33736484Y12332666D01*
X33736484Y12332666D01*
X33775305Y12366434D01*
X33817859Y12390313D01*
X33864374Y12405050D01*
X33912915Y12410032D01*
X33961453Y12405051D01*
D02*
G37*
%LPC*%
G36*
X33929562Y12356094D02*
X33896265D01*
X33893610Y12355566D01*
X33890906Y12355533D01*
X33858328Y12348642D01*
X33855841Y12347576D01*
X33853198Y12346983D01*
X33822754Y12333497D01*
X33820541Y12331939D01*
X33818079Y12330813D01*
X33791086Y12311318D01*
X33789243Y12309336D01*
X33787070Y12307725D01*
X33764694Y12283065D01*
X33763303Y12280744D01*
X33761508Y12278718D01*
X33744724Y12249961D01*
X33743842Y12247402D01*
X33742505Y12245048D01*
X33732034Y12213439D01*
X33731702Y12210754D01*
X33730884Y12208176D01*
X33727179Y12175085D01*
X33727411Y12172388D01*
X33727142Y12169694D01*
X33730362Y12136628D01*
X33731644Y12122527D01*
X33730161Y12111252D01*
X33726236Y12100578D01*
X33720062Y12091031D01*
X33711938Y12083070D01*
X33702264Y12077088D01*
X33691516Y12073378D01*
X33678778Y12071961D01*
X30253314D01*
X30251874Y12071675D01*
X30250415Y12071799D01*
X30233170Y12069856D01*
X30230396Y12068972D01*
X30227515Y12068565D01*
X30211133Y12062833D01*
X30208630Y12061355D01*
X30205911Y12060318D01*
X30191217Y12051086D01*
X30189099Y12049086D01*
X30186679Y12047468D01*
X30174408Y12035196D01*
X30172791Y12032777D01*
X30170795Y12030663D01*
X30161560Y12015969D01*
X30160522Y12013249D01*
X30159042Y12010742D01*
X30153314Y11994362D01*
X30152905Y11991482D01*
X30152023Y11988712D01*
X30150079Y11971466D01*
X30150201Y11970004D01*
X30149915Y11968564D01*
Y11896065D01*
X30150201Y11894625D01*
X30150079Y11893163D01*
X30152023Y11875917D01*
X30152905Y11873147D01*
X30153314Y11870268D01*
X30159042Y11853887D01*
X30160522Y11851379D01*
X30161560Y11848659D01*
X30170795Y11833965D01*
X30172794Y11831851D01*
X30174408Y11829431D01*
X30186679Y11817160D01*
X30189099Y11815543D01*
X30191214Y11813544D01*
X30205911Y11804311D01*
X30208627Y11803273D01*
X30211136Y11801795D01*
X30227515Y11796063D01*
X30230396Y11795657D01*
X30233167Y11794773D01*
X30250412Y11792829D01*
X30251874Y11792953D01*
X30253314Y11792667D01*
X36305014Y11792668D01*
X36306451Y11792954D01*
X36307913Y11792830D01*
X36325159Y11794773D01*
X36327933Y11795657D01*
X36330814Y11796064D01*
X36347195Y11801796D01*
X36349698Y11803274D01*
X36352417Y11804312D01*
X36367114Y11813545D01*
X36369226Y11815544D01*
X36371646Y11817161D01*
X36383920Y11829432D01*
X36385535Y11831852D01*
X36387534Y11833966D01*
X36396768Y11848660D01*
X36397806Y11851380D01*
X36399286Y11853888D01*
X36405014Y11870269D01*
X36405420Y11873148D01*
X36406305Y11875918D01*
X36408249Y11893163D01*
X36408127Y11894625D01*
X36408411Y11896065D01*
Y11968565D01*
X36408127Y11970005D01*
X36408249Y11971468D01*
X36406305Y11988712D01*
X36405420Y11991481D01*
X36405014Y11994361D01*
X36399286Y12010742D01*
X36397806Y12013250D01*
X36396768Y12015970D01*
X36387534Y12030664D01*
X36385535Y12032778D01*
X36383920Y12035198D01*
X36371646Y12047469D01*
X36369226Y12049086D01*
X36367114Y12051085D01*
X36352417Y12060318D01*
X36349701Y12061356D01*
X36347195Y12062834D01*
X36330814Y12068566D01*
X36327933Y12068973D01*
X36325159Y12069857D01*
X36307913Y12071800D01*
X36306451Y12071676D01*
X36305014Y12071962D01*
X34147052D01*
X34134314Y12073379D01*
X34123563Y12077089D01*
X34113892Y12083069D01*
X34105768Y12091030D01*
X34099594Y12100580D01*
X34095670Y12111252D01*
X34094183Y12122528D01*
X34095468Y12136671D01*
X34098685Y12169695D01*
X34098419Y12172389D01*
X34098648Y12175086D01*
X34094946Y12208177D01*
X34094125Y12210755D01*
X34093793Y12213440D01*
X34083325Y12245048D01*
X34081989Y12247403D01*
X34081107Y12249962D01*
X34064319Y12278719D01*
X34062524Y12280745D01*
X34061133Y12283066D01*
X34038757Y12307726D01*
X34036584Y12309337D01*
X34034741Y12311319D01*
X34007745Y12330814D01*
X34005286Y12331939D01*
X34003073Y12333497D01*
X33972629Y12346983D01*
X33969989Y12347576D01*
X33967499Y12348642D01*
X33934924Y12355533D01*
X33932217Y12355566D01*
X33929562Y12356094D01*
D02*
G37*
G36*
X22257062Y12356093D02*
X22223764Y12356092D01*
X22221111Y12355564D01*
X22218405Y12355531D01*
X22185828Y12348640D01*
X22183340Y12347574D01*
X22180701Y12346981D01*
X22150255Y12333496D01*
X22148042Y12331938D01*
X22145581Y12330812D01*
X22118587Y12311317D01*
X22116743Y12309335D01*
X22114571Y12307724D01*
X22092195Y12283064D01*
X22090804Y12280743D01*
X22089009Y12278717D01*
X22072223Y12249959D01*
X22071341Y12247402D01*
X22070004Y12245047D01*
X22059535Y12213438D01*
X22059201Y12210752D01*
X22058382Y12208174D01*
X22054681Y12175083D01*
X22054910Y12172387D01*
X22054642Y12169693D01*
X22057863Y12136627D01*
X22059145Y12122526D01*
X22057660Y12111252D01*
X22053734Y12100577D01*
X22047560Y12091029D01*
X22039438Y12083069D01*
X22029765Y12077087D01*
X22019014Y12073377D01*
X22006277Y12071960D01*
X18580814D01*
X18579376Y12071674D01*
X18577914Y12071798D01*
X18560669Y12069855D01*
X18557896Y12068971D01*
X18555014Y12068564D01*
X18538634Y12062832D01*
X18536128Y12061354D01*
X18533411Y12060316D01*
X18518716Y12051084D01*
X18516602Y12049085D01*
X18514182Y12047468D01*
X18501909Y12035196D01*
X18500291Y12032776D01*
X18498293Y12030661D01*
X18489061Y12015966D01*
X18488023Y12013249D01*
X18486545Y12010743D01*
X18480814Y11994363D01*
X18480406Y11991481D01*
X18479523Y11988708D01*
X18477580Y11971462D01*
X18477702Y11970001D01*
X18477417Y11968563D01*
Y11896064D01*
X18477702Y11894625D01*
X18477580Y11893165D01*
X18479523Y11875919D01*
X18480406Y11873146D01*
X18480814Y11870264D01*
X18486545Y11853883D01*
X18488023Y11851377D01*
X18489061Y11848660D01*
X18498293Y11833965D01*
X18500291Y11831850D01*
X18501910Y11829429D01*
X18514182Y11817158D01*
X18516602Y11815542D01*
X18518715Y11813544D01*
X18533409Y11804310D01*
X18536128Y11803273D01*
X18538635Y11801794D01*
X18555016Y11796062D01*
X18557895Y11795656D01*
X18560667Y11794772D01*
X18577913Y11792828D01*
X18579375Y11792952D01*
X18580814Y11792666D01*
X25900015Y11792667D01*
X25901453Y11792953D01*
X25902914Y11792829D01*
X25920157Y11794772D01*
X25922931Y11795656D01*
X25925812Y11796063D01*
X25942194Y11801795D01*
X25944702Y11803274D01*
X25947418Y11804311D01*
X25962112Y11813545D01*
X25964227Y11815544D01*
X25966647Y11817160D01*
X25978918Y11829431D01*
X25980536Y11831851D01*
X25982535Y11833965D01*
X25991766Y11848659D01*
X25992804Y11851378D01*
X25994284Y11853886D01*
X26000015Y11870267D01*
X26000421Y11873148D01*
X26001306Y11875919D01*
X26003250Y11893163D01*
X26003125Y11894625D01*
X26003412Y11896064D01*
Y11968564D01*
X26003125Y11970003D01*
X26003250Y11971465D01*
X26001306Y11988709D01*
X26000421Y11991481D01*
X26000015Y11994362D01*
X25994284Y12010742D01*
X25992804Y12013250D01*
X25991766Y12015969D01*
X25982535Y12030663D01*
X25980536Y12032777D01*
X25978918Y12035197D01*
X25966647Y12047468D01*
X25964227Y12049084D01*
X25962112Y12051083D01*
X25947418Y12060317D01*
X25944702Y12061354D01*
X25942194Y12062833D01*
X25925812Y12068565D01*
X25922931Y12068972D01*
X25920157Y12069856D01*
X25902914Y12071799D01*
X25901453Y12071675D01*
X25900015Y12071961D01*
X22474551D01*
X22461813Y12073378D01*
X22451064Y12077088D01*
X22441389Y12083069D01*
X22433269Y12091029D01*
X22427094Y12100579D01*
X22423167Y12111251D01*
X22421683Y12122528D01*
X22422966Y12136650D01*
X22426186Y12169694D01*
X22425917Y12172388D01*
X22426147Y12175084D01*
X22422446Y12208175D01*
X22421626Y12210754D01*
X22421294Y12213439D01*
X22410823Y12245048D01*
X22409486Y12247402D01*
X22408604Y12249960D01*
X22391820Y12278718D01*
X22390025Y12280744D01*
X22388632Y12283066D01*
X22366257Y12307725D01*
X22364082Y12309336D01*
X22362241Y12311317D01*
X22335246Y12330812D01*
X22332787Y12331938D01*
X22330573Y12333496D01*
X22300130Y12346982D01*
X22297487Y12347575D01*
X22295000Y12348641D01*
X22262422Y12355532D01*
X22259715Y12355565D01*
X22257062Y12356093D01*
D02*
G37*
G36*
X10584563Y12356091D02*
X10551265D01*
X10548610Y12355563D01*
X10545905Y12355530D01*
X10513328Y12348638D01*
X10510840Y12347573D01*
X10508199Y12346980D01*
X10477755Y12333495D01*
X10475541Y12331937D01*
X10473081Y12330811D01*
X10446087Y12311316D01*
X10444244Y12309334D01*
X10442069Y12307723D01*
X10419695Y12283063D01*
X10418302Y12280742D01*
X10416509Y12278716D01*
X10399722Y12249958D01*
X10398841Y12247401D01*
X10397504Y12245046D01*
X10387034Y12213437D01*
X10386701Y12210751D01*
X10385881Y12208173D01*
X10382180Y12175082D01*
X10382410Y12172386D01*
X10382142Y12169692D01*
X10385363Y12136626D01*
X10386644Y12122525D01*
X10385159Y12111250D01*
X10381234Y12100576D01*
X10375061Y12091029D01*
X10366937Y12083068D01*
X10357264Y12077086D01*
X10346514Y12073376D01*
X10333777Y12071959D01*
X8175814D01*
X8174376Y12071673D01*
X8172915Y12071797D01*
X8155669Y12069854D01*
X8152897Y12068970D01*
X8150015Y12068563D01*
X8133633Y12062831D01*
X8131127Y12061353D01*
X8128410Y12060315D01*
X8113716Y12051083D01*
X8111600Y12049084D01*
X8109180Y12047466D01*
X8096909Y12035194D01*
X8095292Y12032775D01*
X8093294Y12030661D01*
X8084061Y12015967D01*
X8083023Y12013248D01*
X8081544Y12010741D01*
X8075813Y11994361D01*
X8075406Y11991481D01*
X8074522Y11988708D01*
X8072579Y11971463D01*
X8072702Y11970001D01*
X8072416Y11968562D01*
Y11896063D01*
X8072702Y11894624D01*
X8072579Y11893162D01*
X8074522Y11875917D01*
X8075406Y11873145D01*
X8075812Y11870264D01*
X8081544Y11853884D01*
X8083023Y11851376D01*
X8084061Y11848657D01*
X8093294Y11833963D01*
X8095293Y11831849D01*
X8096909Y11829429D01*
X8109181Y11817158D01*
X8111600Y11815542D01*
X8113714Y11813543D01*
X8128409Y11804309D01*
X8131127Y11803271D01*
X8133635Y11801792D01*
X8150016Y11796061D01*
X8152896Y11795654D01*
X8155668Y11794771D01*
X8172914Y11792827D01*
X8174376Y11792951D01*
X8175814Y11792665D01*
X14227515Y11792666D01*
X14228952Y11792952D01*
X14230412Y11792828D01*
X14247658Y11794771D01*
X14250430Y11795655D01*
X14253313Y11796061D01*
X14269695Y11801794D01*
X14272202Y11803273D01*
X14274919Y11804310D01*
X14289613Y11813544D01*
X14291727Y11815543D01*
X14294147Y11817159D01*
X14306418Y11829430D01*
X14308034Y11831850D01*
X14310033Y11833964D01*
X14319267Y11848658D01*
X14320303Y11851377D01*
X14321783Y11853884D01*
X14327515Y11870265D01*
X14327922Y11873146D01*
X14328806Y11875918D01*
X14330750Y11893163D01*
X14330624Y11894624D01*
X14330911Y11896063D01*
Y11968563D01*
X14330624Y11970001D01*
X14330750Y11971463D01*
X14328806Y11988708D01*
X14327922Y11991480D01*
X14327515Y11994361D01*
X14321783Y12010742D01*
X14320303Y12013249D01*
X14319267Y12015968D01*
X14310033Y12030662D01*
X14308034Y12032776D01*
X14306418Y12035196D01*
X14294147Y12047467D01*
X14291727Y12049083D01*
X14289613Y12051082D01*
X14274919Y12060316D01*
X14272202Y12061353D01*
X14269695Y12062832D01*
X14253313Y12068564D01*
X14250430Y12068971D01*
X14247658Y12069855D01*
X14230412Y12071798D01*
X14228952Y12071674D01*
X14227515Y12071960D01*
X10802051D01*
X10789313Y12073377D01*
X10778562Y12077087D01*
X10768891Y12083067D01*
X10760767Y12091028D01*
X10754593Y12100578D01*
X10750668Y12111250D01*
X10749183Y12122525D01*
X10750466Y12136646D01*
X10753685Y12169694D01*
X10753417Y12172387D01*
X10753647Y12175083D01*
X10749945Y12208174D01*
X10749126Y12210752D01*
X10748793Y12213438D01*
X10738324Y12245046D01*
X10736988Y12247401D01*
X10736106Y12249959D01*
X10719319Y12278717D01*
X10717525Y12280743D01*
X10716132Y12283064D01*
X10693758Y12307724D01*
X10691583Y12309335D01*
X10689741Y12311316D01*
X10662747Y12330811D01*
X10660286Y12331937D01*
X10658073Y12333495D01*
X10627627Y12346980D01*
X10624987Y12347572D01*
X10622499Y12348638D01*
X10589923Y12355530D01*
X10587217Y12355563D01*
X10584563Y12356091D01*
D02*
G37*
G36*
X37172913Y11591962D02*
X35882916D01*
X35881476Y11591676D01*
X35880017Y11591800D01*
X35867776Y11590421D01*
X35865005Y11589537D01*
X35862122Y11589130D01*
X35850497Y11585062D01*
X35847992Y11583584D01*
X35845273Y11582546D01*
X35834845Y11575994D01*
X35832730Y11573995D01*
X35830310Y11572378D01*
X35821600Y11563669D01*
X35819986Y11561250D01*
X35817987Y11559136D01*
X35811432Y11548708D01*
X35810394Y11545989D01*
X35808917Y11543482D01*
X35804849Y11531857D01*
X35804440Y11528974D01*
X35803558Y11526200D01*
X35802179Y11513961D01*
X35802304Y11512502D01*
X35802017Y11511065D01*
Y10221065D01*
X35802304Y10219628D01*
X35802179Y10218168D01*
X35803558Y10205929D01*
X35804440Y10203156D01*
X35804849Y10200272D01*
X35808917Y10188647D01*
X35810394Y10186140D01*
X35811432Y10183422D01*
X35817987Y10172993D01*
X35819986Y10170879D01*
X35821603Y10168459D01*
X35830310Y10159751D01*
X35832730Y10158135D01*
X35834842Y10156137D01*
X35845270Y10149584D01*
X35847989Y10148546D01*
X35850497Y10147067D01*
X35862122Y10142999D01*
X35865005Y10142592D01*
X35867776Y10141708D01*
X35880017Y10140330D01*
X35881476Y10140453D01*
X35882916Y10140167D01*
X37172913D01*
X37174353Y10140453D01*
X37175815Y10140330D01*
X37188055Y10141710D01*
X37190826Y10142593D01*
X37193704Y10143000D01*
X37205328Y10147067D01*
X37207837Y10148545D01*
X37210556Y10149584D01*
X37220984Y10156137D01*
X37223099Y10158135D01*
X37225516Y10159751D01*
X37234225Y10168459D01*
X37235843Y10170880D01*
X37237842Y10172994D01*
X37244397Y10183423D01*
X37245435Y10186143D01*
X37246912Y10188651D01*
X37250980Y10200275D01*
X37251385Y10203155D01*
X37252271Y10205925D01*
X37253647Y10218163D01*
X37253525Y10219625D01*
X37253812Y10221065D01*
Y11511065D01*
X37253525Y11512504D01*
X37253647Y11513966D01*
X37252271Y11526205D01*
X37251385Y11528974D01*
X37250980Y11531853D01*
X37246915Y11543479D01*
X37245435Y11545987D01*
X37244397Y11548708D01*
X37237842Y11559136D01*
X37235843Y11561250D01*
X37234229Y11563669D01*
X37225519Y11572378D01*
X37223099Y11573995D01*
X37220984Y11575994D01*
X37210556Y11582546D01*
X37207837Y11583584D01*
X37205331Y11585062D01*
X37193707Y11589130D01*
X37190823Y11589537D01*
X37188052Y11590421D01*
X37175812Y11591800D01*
X37174353Y11591676D01*
X37172913Y11591962D01*
D02*
G37*
G36*
X35267914D02*
X32072916D01*
X32071475Y11591676D01*
X32070013Y11591799D01*
X32057776Y11590420D01*
X32055005Y11589536D01*
X32052124Y11589130D01*
X32040500Y11585063D01*
X32037991Y11583584D01*
X32035272Y11582546D01*
X32024844Y11575992D01*
X32022729Y11573994D01*
X32020312Y11572378D01*
X32011603Y11563670D01*
X32009985Y11561250D01*
X32007986Y11559135D01*
X32001431Y11548706D01*
X32000394Y11545988D01*
X31998917Y11543482D01*
X31994849Y11531858D01*
X31994440Y11528974D01*
X31993558Y11526200D01*
X31992181Y11513961D01*
X31992303Y11512502D01*
X31992017Y11511065D01*
Y10221065D01*
X31992303Y10219628D01*
X31992181Y10218168D01*
X31993558Y10205929D01*
X31994440Y10203156D01*
X31994849Y10200272D01*
X31998917Y10188647D01*
X32000394Y10186140D01*
X32001434Y10183422D01*
X32007986Y10172993D01*
X32009985Y10170879D01*
X32011600Y10168460D01*
X32020309Y10159751D01*
X32022729Y10158134D01*
X32024844Y10156135D01*
X32035272Y10149583D01*
X32037991Y10148546D01*
X32040497Y10147067D01*
X32052121Y10142999D01*
X32055005Y10142592D01*
X32057776Y10141708D01*
X32070016Y10140330D01*
X32071478Y10140453D01*
X32072916Y10140167D01*
X32088336D01*
X32090109Y10139967D01*
X32090414Y10139861D01*
X32090686Y10139690D01*
X32090912Y10139462D01*
X32091083Y10139190D01*
X32091193Y10138881D01*
X32091391Y10137108D01*
Y10071064D01*
X32091678Y10069627D01*
X32091556Y10068166D01*
X32094186Y10044801D01*
X32095071Y10042028D01*
X32095477Y10039145D01*
X32103244Y10016953D01*
X32104721Y10014447D01*
X32105759Y10011729D01*
X32118268Y9991821D01*
X32120267Y9989706D01*
X32121884Y9987286D01*
X32138510Y9970660D01*
X32140930Y9969043D01*
X32143045Y9967045D01*
X32162952Y9954535D01*
X32165674Y9953496D01*
X32168179Y9952018D01*
X32190369Y9944253D01*
X32193250Y9943846D01*
X32196024Y9942963D01*
X32219391Y9940330D01*
X32220850Y9940453D01*
X32222290Y9940167D01*
X32737289D01*
X32738727Y9940453D01*
X32740189Y9940330D01*
X32763553Y9942963D01*
X32766324Y9943846D01*
X32769205Y9944253D01*
X32791400Y9952018D01*
X32793906Y9953497D01*
X32796625Y9954535D01*
X32816534Y9967045D01*
X32818646Y9969043D01*
X32821066Y9970659D01*
X32837692Y9987285D01*
X32839310Y9989704D01*
X32841309Y9991820D01*
X32853818Y10011729D01*
X32854858Y10014448D01*
X32856335Y10016955D01*
X32864099Y10039147D01*
X32864508Y10042027D01*
X32865390Y10044799D01*
X32868024Y10068164D01*
X32867899Y10069625D01*
X32868185Y10071064D01*
Y10137112D01*
X32868387Y10138885D01*
X32868491Y10139186D01*
X32868665Y10139463D01*
X32868893Y10139691D01*
X32869162Y10139860D01*
X32869467Y10139967D01*
X32871243Y10140167D01*
X34469586D01*
X34471359Y10139967D01*
X34471661Y10139862D01*
X34471936Y10139690D01*
X34472162Y10139462D01*
X34472333Y10139190D01*
X34472443Y10138881D01*
X34472641Y10137108D01*
Y10071064D01*
X34472928Y10069626D01*
X34472806Y10068166D01*
X34475436Y10044802D01*
X34476321Y10042030D01*
X34476727Y10039147D01*
X34484494Y10016953D01*
X34485971Y10014447D01*
X34487009Y10011729D01*
X34499518Y9991821D01*
X34501517Y9989706D01*
X34503134Y9987286D01*
X34519760Y9970660D01*
X34522180Y9969043D01*
X34524295Y9967045D01*
X34544202Y9954535D01*
X34546924Y9953496D01*
X34549429Y9952018D01*
X34571619Y9944253D01*
X34574500Y9943846D01*
X34577274Y9942963D01*
X34600641Y9940330D01*
X34602100Y9940453D01*
X34603540Y9940167D01*
X35118539D01*
X35119977Y9940453D01*
X35121439Y9940330D01*
X35144803Y9942963D01*
X35147574Y9943846D01*
X35150455Y9944253D01*
X35172650Y9952018D01*
X35175156Y9953497D01*
X35177875Y9954535D01*
X35197784Y9967045D01*
X35199896Y9969043D01*
X35202316Y9970659D01*
X35218942Y9987285D01*
X35220560Y9989704D01*
X35222559Y9991820D01*
X35235068Y10011729D01*
X35236108Y10014449D01*
X35237585Y10016955D01*
X35245349Y10039149D01*
X35245758Y10042029D01*
X35246640Y10044800D01*
X35249274Y10068164D01*
X35249149Y10069625D01*
X35249435Y10071064D01*
Y10137112D01*
X35249637Y10138885D01*
X35249741Y10139186D01*
X35249915Y10139463D01*
X35250143Y10139691D01*
X35250415Y10139861D01*
X35250717Y10139967D01*
X35252493Y10140167D01*
X35267914D01*
X35269351Y10140453D01*
X35270813Y10140330D01*
X35283051Y10141708D01*
X35285825Y10142592D01*
X35288705Y10142999D01*
X35300330Y10147067D01*
X35302838Y10148546D01*
X35305557Y10149584D01*
X35315985Y10156137D01*
X35318100Y10158135D01*
X35320517Y10159751D01*
X35329227Y10168459D01*
X35330844Y10170879D01*
X35332843Y10172993D01*
X35339395Y10183421D01*
X35340433Y10186142D01*
X35341913Y10188651D01*
X35345981Y10200276D01*
X35346387Y10203155D01*
X35347269Y10205925D01*
X35348648Y10218163D01*
X35348526Y10219625D01*
X35348810Y10221065D01*
Y11511065D01*
X35348526Y11512504D01*
X35348648Y11513966D01*
X35347269Y11526205D01*
X35346387Y11528974D01*
X35345981Y11531853D01*
X35341913Y11543479D01*
X35340433Y11545987D01*
X35339395Y11548708D01*
X35332843Y11559136D01*
X35330844Y11561250D01*
X35329227Y11563669D01*
X35320517Y11572378D01*
X35318097Y11573995D01*
X35315982Y11575994D01*
X35305554Y11582546D01*
X35302838Y11583584D01*
X35300330Y11585062D01*
X35288705Y11589130D01*
X35285825Y11589537D01*
X35283051Y11590421D01*
X35270813Y11591800D01*
X35269351Y11591676D01*
X35267914Y11591962D01*
D02*
G37*
G36*
X31457913D02*
X30167914D01*
X30166476Y11591676D01*
X30165015Y11591799D01*
X30152774Y11590420D01*
X30150003Y11589536D01*
X30147125Y11589130D01*
X30135498Y11585063D01*
X30132993Y11583584D01*
X30130273Y11582546D01*
X30119843Y11575992D01*
X30117731Y11573994D01*
X30115311Y11572378D01*
X30106601Y11563670D01*
X30104984Y11561250D01*
X30102985Y11559135D01*
X30096432Y11548706D01*
X30095395Y11545988D01*
X30093915Y11543482D01*
X30089847Y11531858D01*
X30089441Y11528974D01*
X30088556Y11526200D01*
X30087180Y11513961D01*
X30087302Y11512502D01*
X30087018Y11511065D01*
Y10221065D01*
X30087302Y10219628D01*
X30087180Y10218168D01*
X30088556Y10205929D01*
X30089441Y10203156D01*
X30089847Y10200272D01*
X30093915Y10188647D01*
X30095395Y10186140D01*
X30096432Y10183422D01*
X30102985Y10172993D01*
X30104984Y10170879D01*
X30106601Y10168460D01*
X30115311Y10159751D01*
X30117731Y10158134D01*
X30119846Y10156135D01*
X30130273Y10149583D01*
X30132990Y10148546D01*
X30135498Y10147067D01*
X30147122Y10142999D01*
X30150003Y10142592D01*
X30152777Y10141708D01*
X30165015Y10140330D01*
X30166476Y10140453D01*
X30167914Y10140167D01*
X31457913D01*
X31459351Y10140453D01*
X31460812Y10140330D01*
X31473053Y10141708D01*
X31475824Y10142592D01*
X31478705Y10142999D01*
X31490332Y10147067D01*
X31492838Y10148546D01*
X31495557Y10149583D01*
X31505984Y10156135D01*
X31508099Y10158134D01*
X31510519Y10159751D01*
X31519226Y10168460D01*
X31520844Y10170879D01*
X31522842Y10172993D01*
X31529395Y10183421D01*
X31530435Y10186142D01*
X31531915Y10188651D01*
X31535980Y10200276D01*
X31536386Y10203155D01*
X31537268Y10205925D01*
X31538647Y10218163D01*
X31538525Y10219625D01*
X31538812Y10221065D01*
Y11511065D01*
X31538525Y11512504D01*
X31538647Y11513966D01*
X31537268Y11526205D01*
X31536386Y11528975D01*
X31535980Y11531854D01*
X31531912Y11543478D01*
X31530435Y11545986D01*
X31529395Y11548706D01*
X31522842Y11559135D01*
X31520844Y11561250D01*
X31519226Y11563670D01*
X31510516Y11572378D01*
X31508099Y11573994D01*
X31505984Y11575992D01*
X31495557Y11582545D01*
X31492838Y11583584D01*
X31490329Y11585063D01*
X31478705Y11589130D01*
X31475824Y11589536D01*
X31473053Y11590420D01*
X31460815Y11591799D01*
X31459354Y11591676D01*
X31457913Y11591962D01*
D02*
G37*
G36*
X29552914D02*
X28262915D01*
X28261475Y11591676D01*
X28260013Y11591799D01*
X28247775Y11590420D01*
X28245004Y11589536D01*
X28242123Y11589130D01*
X28230499Y11585063D01*
X28227991Y11583584D01*
X28225272Y11582546D01*
X28214844Y11575992D01*
X28212729Y11573994D01*
X28210312Y11572378D01*
X28201602Y11563670D01*
X28199985Y11561250D01*
X28197986Y11559135D01*
X28191431Y11548706D01*
X28190396Y11545988D01*
X28188916Y11543482D01*
X28184848Y11531858D01*
X28184442Y11528974D01*
X28183557Y11526200D01*
X28182181Y11513961D01*
X28182303Y11512502D01*
X28182016Y11511065D01*
Y10221065D01*
X28182303Y10219628D01*
X28182181Y10218168D01*
X28183557Y10205929D01*
X28184442Y10203156D01*
X28184848Y10200272D01*
X28188916Y10188647D01*
X28190396Y10186140D01*
X28191434Y10183422D01*
X28197986Y10172993D01*
X28199985Y10170879D01*
X28201602Y10168460D01*
X28210309Y10159751D01*
X28212729Y10158134D01*
X28214844Y10156135D01*
X28225272Y10149583D01*
X28227991Y10148546D01*
X28230496Y10147067D01*
X28242123Y10142999D01*
X28245004Y10142592D01*
X28247778Y10141708D01*
X28260016Y10140330D01*
X28261478Y10140453D01*
X28262915Y10140167D01*
X29552914D01*
X29554352Y10140453D01*
X29555814Y10140330D01*
X29568051Y10141708D01*
X29570825Y10142592D01*
X29573706Y10142999D01*
X29585330Y10147067D01*
X29587839Y10148546D01*
X29590555Y10149583D01*
X29600983Y10156135D01*
X29603098Y10158134D01*
X29605518Y10159751D01*
X29614227Y10168460D01*
X29615845Y10170879D01*
X29617841Y10172993D01*
X29624396Y10183421D01*
X29625433Y10186142D01*
X29626913Y10188651D01*
X29630981Y10200276D01*
X29631387Y10203155D01*
X29632269Y10205925D01*
X29633649Y10218163D01*
X29633524Y10219625D01*
X29633810Y10221065D01*
Y11511065D01*
X29633524Y11512504D01*
X29633649Y11513966D01*
X29632269Y11526205D01*
X29631384Y11528975D01*
X29630978Y11531854D01*
X29626913Y11543478D01*
X29625436Y11545986D01*
X29624396Y11548706D01*
X29617844Y11559135D01*
X29615842Y11561250D01*
X29614227Y11563670D01*
X29605518Y11572378D01*
X29603098Y11573994D01*
X29600986Y11575992D01*
X29590558Y11582545D01*
X29587836Y11583584D01*
X29585330Y11585063D01*
X29573703Y11589130D01*
X29570825Y11589536D01*
X29568054Y11590420D01*
X29555814Y11591799D01*
X29554352Y11591676D01*
X29552914Y11591962D01*
D02*
G37*
G36*
X27647913Y11591961D02*
X26357913D01*
X26356476Y11591675D01*
X26355014Y11591799D01*
X26342776Y11590420D01*
X26340002Y11589536D01*
X26337122Y11589129D01*
X26325497Y11585061D01*
X26322989Y11583583D01*
X26320273Y11582545D01*
X26309845Y11575993D01*
X26307727Y11573993D01*
X26305307Y11572376D01*
X26296600Y11563667D01*
X26294983Y11561248D01*
X26292987Y11559135D01*
X26286432Y11548707D01*
X26285394Y11545988D01*
X26283917Y11543481D01*
X26279849Y11531856D01*
X26279440Y11528974D01*
X26278558Y11526201D01*
X26277179Y11513963D01*
X26277301Y11512502D01*
X26277017Y11511064D01*
Y10221064D01*
X26277301Y10219625D01*
X26277179Y10218165D01*
X26278558Y10205926D01*
X26279440Y10203153D01*
X26279849Y10200270D01*
X26283917Y10188646D01*
X26285394Y10186140D01*
X26286432Y10183422D01*
X26292987Y10172993D01*
X26294983Y10170879D01*
X26296600Y10168459D01*
X26305310Y10159751D01*
X26307727Y10158135D01*
X26309842Y10156136D01*
X26320270Y10149583D01*
X26322992Y10148544D01*
X26325497Y10147066D01*
X26337122Y10142999D01*
X26340002Y10142592D01*
X26342773Y10141709D01*
X26355014Y10140329D01*
X26356476Y10140452D01*
X26357913Y10140166D01*
X27647913D01*
X27649353Y10140452D01*
X27650815Y10140329D01*
X27663055Y10141709D01*
X27665826Y10142592D01*
X27668704Y10142999D01*
X27680328Y10147066D01*
X27682837Y10148544D01*
X27685556Y10149583D01*
X27695984Y10156136D01*
X27698099Y10158134D01*
X27700516Y10159750D01*
X27709225Y10168458D01*
X27710843Y10170879D01*
X27712842Y10172993D01*
X27719397Y10183422D01*
X27720435Y10186142D01*
X27721912Y10188650D01*
X27725980Y10200274D01*
X27726385Y10203154D01*
X27727271Y10205924D01*
X27728647Y10218162D01*
X27728525Y10219624D01*
X27728812Y10221064D01*
Y11511064D01*
X27728525Y11512503D01*
X27728647Y11513965D01*
X27727271Y11526204D01*
X27726385Y11528973D01*
X27725980Y11531852D01*
X27721915Y11543478D01*
X27720435Y11545986D01*
X27719397Y11548707D01*
X27712842Y11559135D01*
X27710843Y11561249D01*
X27709229Y11563668D01*
X27700519Y11572377D01*
X27698099Y11573994D01*
X27695984Y11575993D01*
X27685556Y11582545D01*
X27682837Y11583583D01*
X27680331Y11585061D01*
X27668707Y11589129D01*
X27665823Y11589536D01*
X27663052Y11590420D01*
X27650812Y11591799D01*
X27649353Y11591675D01*
X27647913Y11591961D01*
D02*
G37*
G36*
X25742914D02*
X24452914D01*
X24451476Y11591675D01*
X24450015Y11591799D01*
X24437776Y11590420D01*
X24435004Y11589536D01*
X24432121Y11589129D01*
X24420496Y11585061D01*
X24417990Y11583583D01*
X24415273Y11582545D01*
X24404845Y11575993D01*
X24402728Y11573993D01*
X24400308Y11572376D01*
X24391600Y11563667D01*
X24389984Y11561248D01*
X24387987Y11559135D01*
X24381433Y11548707D01*
X24380396Y11545988D01*
X24378915Y11543481D01*
X24374847Y11531856D01*
X24374442Y11528974D01*
X24373558Y11526201D01*
X24372179Y11513963D01*
X24372302Y11512502D01*
X24372015Y11511064D01*
Y10221064D01*
X24372302Y10219625D01*
X24372179Y10218165D01*
X24373558Y10205926D01*
X24374442Y10203153D01*
X24374847Y10200271D01*
X24378915Y10188646D01*
X24380396Y10186139D01*
X24381433Y10183421D01*
X24387987Y10172992D01*
X24389986Y10170878D01*
X24391602Y10168459D01*
X24400310Y10159751D01*
X24402728Y10158135D01*
X24404842Y10156136D01*
X24415269Y10149583D01*
X24417989Y10148545D01*
X24420496Y10147066D01*
X24432121Y10142998D01*
X24435004Y10142591D01*
X24437776Y10141707D01*
X24450015Y10140329D01*
X24451476Y10140452D01*
X24452914Y10140166D01*
X25742914D01*
X25744354Y10140452D01*
X25745816Y10140329D01*
X25758054Y10141709D01*
X25760825Y10142592D01*
X25763705Y10142999D01*
X25775330Y10147066D01*
X25777835Y10148544D01*
X25780557Y10149583D01*
X25790985Y10156136D01*
X25793100Y10158134D01*
X25795517Y10159750D01*
X25804227Y10168458D01*
X25805844Y10170879D01*
X25807843Y10172995D01*
X25814395Y10183424D01*
X25815433Y10186141D01*
X25816910Y10188646D01*
X25820978Y10200270D01*
X25821387Y10203153D01*
X25822269Y10205926D01*
X25823648Y10218164D01*
X25823526Y10219625D01*
X25823810Y10221064D01*
Y11511064D01*
X25823526Y11512502D01*
X25823648Y11513962D01*
X25822269Y11526201D01*
X25821387Y11528974D01*
X25820978Y11531856D01*
X25816910Y11543481D01*
X25815433Y11545988D01*
X25814395Y11548705D01*
X25807843Y11559134D01*
X25805844Y11561248D01*
X25804227Y11563668D01*
X25795517Y11572377D01*
X25793097Y11573994D01*
X25790982Y11575993D01*
X25780554Y11582545D01*
X25777838Y11583583D01*
X25775330Y11585061D01*
X25763705Y11589129D01*
X25760825Y11589536D01*
X25758051Y11590420D01*
X25745813Y11591799D01*
X25744351Y11591675D01*
X25742914Y11591961D01*
D02*
G37*
G36*
X23837914D02*
X22547914D01*
X22546477Y11591675D01*
X22545015Y11591799D01*
X22532776Y11590420D01*
X22530003Y11589536D01*
X22527121Y11589129D01*
X22515495Y11585061D01*
X22512990Y11583583D01*
X22510272Y11582545D01*
X22499844Y11575993D01*
X22497728Y11573993D01*
X22495308Y11572376D01*
X22486600Y11563667D01*
X22484984Y11561248D01*
X22482986Y11559135D01*
X22476433Y11548707D01*
X22475395Y11545988D01*
X22473917Y11543481D01*
X22469849Y11531856D01*
X22469441Y11528974D01*
X22468558Y11526201D01*
X22467178Y11513963D01*
X22467302Y11512502D01*
X22467017Y11511064D01*
Y10221064D01*
X22467302Y10219625D01*
X22467178Y10218165D01*
X22468558Y10205926D01*
X22469441Y10203153D01*
X22469849Y10200271D01*
X22473917Y10188646D01*
X22475395Y10186139D01*
X22476433Y10183421D01*
X22482986Y10172992D01*
X22484985Y10170878D01*
X22486601Y10168459D01*
X22495309Y10159751D01*
X22497728Y10158135D01*
X22499841Y10156136D01*
X22510271Y10149583D01*
X22512988Y10148545D01*
X22515495Y10147066D01*
X22527121Y10142998D01*
X22530003Y10142591D01*
X22532776Y10141707D01*
X22545015Y10140329D01*
X22546477Y10140452D01*
X22547914Y10140166D01*
X23837914D01*
X23839352Y10140452D01*
X23840813Y10140329D01*
X23853052Y10141707D01*
X23855824Y10142591D01*
X23858707Y10142998D01*
X23870331Y10147066D01*
X23872838Y10148545D01*
X23875557Y10149583D01*
X23885985Y10156136D01*
X23888100Y10158134D01*
X23890517Y10159750D01*
X23899226Y10168458D01*
X23900844Y10170879D01*
X23902843Y10172994D01*
X23909395Y10183422D01*
X23910432Y10186140D01*
X23911911Y10188646D01*
X23915979Y10200271D01*
X23916386Y10203153D01*
X23917270Y10205926D01*
X23918649Y10218164D01*
X23918526Y10219625D01*
X23918811Y10221064D01*
Y11511064D01*
X23918526Y11512502D01*
X23918649Y11513962D01*
X23917270Y11526201D01*
X23916386Y11528974D01*
X23915979Y11531856D01*
X23911911Y11543481D01*
X23910432Y11545988D01*
X23909395Y11548705D01*
X23902843Y11559134D01*
X23900844Y11561248D01*
X23899226Y11563668D01*
X23890518Y11572377D01*
X23888098Y11573994D01*
X23885983Y11575993D01*
X23875555Y11582545D01*
X23872838Y11583583D01*
X23870331Y11585061D01*
X23858707Y11589129D01*
X23855824Y11589536D01*
X23853052Y11590420D01*
X23840813Y11591799D01*
X23839352Y11591675D01*
X23837914Y11591961D01*
D02*
G37*
G36*
X21932915D02*
X20642914D01*
X20641475Y11591675D01*
X20640013Y11591798D01*
X20627774Y11590419D01*
X20625003Y11589535D01*
X20622124Y11589129D01*
X20610498Y11585062D01*
X20607991Y11583583D01*
X20605270Y11582545D01*
X20594843Y11575991D01*
X20592728Y11573993D01*
X20590309Y11572376D01*
X20581601Y11563668D01*
X20579984Y11561248D01*
X20577986Y11559134D01*
X20571432Y11548705D01*
X20570395Y11545987D01*
X20568916Y11543481D01*
X20564848Y11531857D01*
X20564441Y11528974D01*
X20563557Y11526201D01*
X20562180Y11513963D01*
X20562302Y11512502D01*
X20562016Y11511064D01*
Y10221064D01*
X20562302Y10219625D01*
X20562180Y10218165D01*
X20563557Y10205926D01*
X20564441Y10203153D01*
X20564848Y10200271D01*
X20568916Y10188646D01*
X20570395Y10186139D01*
X20571432Y10183421D01*
X20577986Y10172992D01*
X20579984Y10170879D01*
X20581599Y10168460D01*
X20590308Y10159751D01*
X20592729Y10158134D01*
X20594844Y10156134D01*
X20605272Y10149582D01*
X20607990Y10148545D01*
X20610497Y10147066D01*
X20622121Y10142998D01*
X20625003Y10142591D01*
X20627776Y10141707D01*
X20640015Y10140329D01*
X20641476Y10140452D01*
X20642914Y10140166D01*
X21932915D01*
X21934352Y10140452D01*
X21935812Y10140329D01*
X21948051Y10141707D01*
X21950824Y10142591D01*
X21953706Y10142998D01*
X21965331Y10147066D01*
X21967838Y10148545D01*
X21970555Y10149582D01*
X21980984Y10156134D01*
X21983099Y10158133D01*
X21985518Y10159750D01*
X21994228Y10168459D01*
X21995844Y10170879D01*
X21997842Y10172994D01*
X22004395Y10183422D01*
X22005434Y10186140D01*
X22006911Y10188646D01*
X22010979Y10200271D01*
X22011386Y10203153D01*
X22012270Y10205926D01*
X22013649Y10218164D01*
X22013525Y10219625D01*
X22013811Y10221064D01*
Y11511064D01*
X22013525Y11512502D01*
X22013649Y11513962D01*
X22012270Y11526201D01*
X22011386Y11528975D01*
X22010979Y11531857D01*
X22006911Y11543481D01*
X22005434Y11545986D01*
X22004396Y11548703D01*
X21997844Y11559133D01*
X21995844Y11561248D01*
X21994226Y11563669D01*
X21985516Y11572377D01*
X21983099Y11573993D01*
X21980984Y11575991D01*
X21970557Y11582544D01*
X21967838Y11583583D01*
X21965329Y11585062D01*
X21953703Y11589129D01*
X21950826Y11589535D01*
X21948055Y11590419D01*
X21935815Y11591798D01*
X21934354Y11591675D01*
X21932915Y11591961D01*
D02*
G37*
G36*
X20027914D02*
X18737914D01*
X18736475Y11591675D01*
X18735013Y11591798D01*
X18722774Y11590419D01*
X18720003Y11589535D01*
X18717123Y11589129D01*
X18705498Y11585062D01*
X18702991Y11583583D01*
X18700272Y11582545D01*
X18689842Y11575991D01*
X18687727Y11573993D01*
X18685309Y11572376D01*
X18676601Y11563668D01*
X18674985Y11561248D01*
X18672986Y11559134D01*
X18666432Y11548705D01*
X18665395Y11545987D01*
X18663916Y11543481D01*
X18659848Y11531857D01*
X18659441Y11528974D01*
X18658559Y11526201D01*
X18657179Y11513963D01*
X18657301Y11512502D01*
X18657016Y11511064D01*
Y10221064D01*
X18657301Y10219625D01*
X18657179Y10218165D01*
X18658559Y10205926D01*
X18659441Y10203153D01*
X18659848Y10200271D01*
X18663916Y10188646D01*
X18665395Y10186139D01*
X18666434Y10183421D01*
X18672986Y10172992D01*
X18674985Y10170879D01*
X18676601Y10168460D01*
X18685307Y10159751D01*
X18687729Y10158134D01*
X18689844Y10156134D01*
X18700272Y10149582D01*
X18702991Y10148545D01*
X18705496Y10147066D01*
X18717120Y10142998D01*
X18720003Y10142591D01*
X18722775Y10141707D01*
X18735014Y10140329D01*
X18736476Y10140452D01*
X18737914Y10140166D01*
X20027914D01*
X20029352Y10140452D01*
X20030814Y10140329D01*
X20043053Y10141707D01*
X20045824Y10142591D01*
X20048706Y10142998D01*
X20060332Y10147066D01*
X20062839Y10148545D01*
X20065555Y10149582D01*
X20075984Y10156134D01*
X20078099Y10158133D01*
X20080518Y10159750D01*
X20089227Y10168459D01*
X20090845Y10170879D01*
X20092844Y10172994D01*
X20099396Y10183422D01*
X20100433Y10186140D01*
X20101910Y10188646D01*
X20105978Y10200271D01*
X20106386Y10203153D01*
X20107269Y10205926D01*
X20108649Y10218164D01*
X20108525Y10219625D01*
X20108810Y10221064D01*
Y11511064D01*
X20108525Y11512502D01*
X20108649Y11513962D01*
X20107269Y11526201D01*
X20106386Y11528975D01*
X20105978Y11531857D01*
X20101910Y11543481D01*
X20100433Y11545986D01*
X20099396Y11548703D01*
X20092844Y11559133D01*
X20090845Y11561248D01*
X20089226Y11563669D01*
X20080518Y11572377D01*
X20078099Y11573993D01*
X20075986Y11575991D01*
X20065556Y11582544D01*
X20062837Y11583583D01*
X20060329Y11585062D01*
X20048705Y11589129D01*
X20045825Y11589535D01*
X20043054Y11590419D01*
X20030815Y11591798D01*
X20029353Y11591675D01*
X20027914Y11591961D01*
D02*
G37*
G36*
X18122914D02*
X16832915D01*
X16831474Y11591675D01*
X16830013Y11591798D01*
X16817773Y11590419D01*
X16815002Y11589535D01*
X16812123Y11589129D01*
X16800497Y11585062D01*
X16797990Y11583583D01*
X16795271Y11582545D01*
X16784843Y11575992D01*
X16782729Y11573993D01*
X16780310Y11572377D01*
X16771600Y11563669D01*
X16769984Y11561248D01*
X16767984Y11559133D01*
X16761432Y11548704D01*
X16760394Y11545986D01*
X16758916Y11543480D01*
X16754849Y11531856D01*
X16754442Y11528975D01*
X16753558Y11526202D01*
X16752179Y11513964D01*
X16752303Y11512502D01*
X16752016Y11511064D01*
Y10221064D01*
X16752303Y10219625D01*
X16752179Y10218163D01*
X16753558Y10205925D01*
X16754442Y10203153D01*
X16754848Y10200272D01*
X16758916Y10188647D01*
X16760394Y10186140D01*
X16761433Y10183421D01*
X16767986Y10172993D01*
X16769984Y10170879D01*
X16771600Y10168460D01*
X16780309Y10159751D01*
X16782729Y10158134D01*
X16784843Y10156134D01*
X16795273Y10149582D01*
X16797990Y10148545D01*
X16800496Y10147066D01*
X16812122Y10142998D01*
X16815002Y10142591D01*
X16817776Y10141707D01*
X16830016Y10140329D01*
X16831476Y10140452D01*
X16832915Y10140166D01*
X18122914D01*
X18124352Y10140452D01*
X18125813Y10140329D01*
X18138052Y10141707D01*
X18140823Y10142591D01*
X18143706Y10142998D01*
X18155331Y10147066D01*
X18157838Y10148545D01*
X18160555Y10149582D01*
X18170984Y10156134D01*
X18173099Y10158133D01*
X18175517Y10159750D01*
X18184227Y10168459D01*
X18185844Y10170879D01*
X18187843Y10172994D01*
X18194395Y10183422D01*
X18195433Y10186140D01*
X18196912Y10188646D01*
X18200980Y10200271D01*
X18201385Y10203153D01*
X18202271Y10205926D01*
X18203648Y10218164D01*
X18203525Y10219625D01*
X18203812Y10221064D01*
Y11511064D01*
X18203525Y11512502D01*
X18203648Y11513962D01*
X18202271Y11526201D01*
X18201385Y11528975D01*
X18200980Y11531857D01*
X18196912Y11543481D01*
X18195433Y11545986D01*
X18194395Y11548703D01*
X18187843Y11559133D01*
X18185844Y11561248D01*
X18184225Y11563669D01*
X18175517Y11572377D01*
X18173099Y11573993D01*
X18170985Y11575991D01*
X18160558Y11582544D01*
X18157837Y11583583D01*
X18155328Y11585062D01*
X18143704Y11589129D01*
X18140825Y11589535D01*
X18138054Y11590419D01*
X18125815Y11591798D01*
X18124353Y11591675D01*
X18122914Y11591961D01*
D02*
G37*
G36*
X16217914Y11591960D02*
X14927914D01*
X14926476Y11591674D01*
X14925015Y11591797D01*
X14912776Y11590419D01*
X14910002Y11589535D01*
X14907121Y11589128D01*
X14895496Y11585060D01*
X14892992Y11583582D01*
X14890273Y11582545D01*
X14879845Y11575992D01*
X14877730Y11573993D01*
X14875310Y11572376D01*
X14866600Y11563666D01*
X14864984Y11561247D01*
X14862985Y11559133D01*
X14856433Y11548705D01*
X14855396Y11545986D01*
X14853915Y11543479D01*
X14849847Y11531854D01*
X14849442Y11528974D01*
X14848558Y11526201D01*
X14847179Y11513963D01*
X14847302Y11512501D01*
X14847015Y11511063D01*
Y10221063D01*
X14847302Y10219624D01*
X14847179Y10218162D01*
X14848558Y10205924D01*
X14849442Y10203151D01*
X14849849Y10200270D01*
X14853915Y10188646D01*
X14855394Y10186141D01*
X14856432Y10183422D01*
X14862984Y10172993D01*
X14864984Y10170878D01*
X14866602Y10168458D01*
X14875310Y10159750D01*
X14877728Y10158134D01*
X14879843Y10156135D01*
X14890271Y10149581D01*
X14892992Y10148543D01*
X14895499Y10147065D01*
X14907123Y10142997D01*
X14910004Y10142591D01*
X14912775Y10141708D01*
X14925014Y10140328D01*
X14926476Y10140451D01*
X14927914Y10140165D01*
X16217914D01*
X16219353Y10140451D01*
X16220815Y10140328D01*
X16233054Y10141708D01*
X16235825Y10142591D01*
X16238705Y10142997D01*
X16250330Y10147065D01*
X16252837Y10148543D01*
X16255556Y10149581D01*
X16265985Y10156135D01*
X16268098Y10158133D01*
X16270518Y10159750D01*
X16279227Y10168458D01*
X16280843Y10170878D01*
X16282843Y10172993D01*
X16289397Y10183422D01*
X16290433Y10186141D01*
X16291911Y10188646D01*
X16295979Y10200270D01*
X16296385Y10203151D01*
X16297269Y10205924D01*
X16298650Y10218162D01*
X16298524Y10219624D01*
X16298811Y10221063D01*
Y11511063D01*
X16298524Y11512501D01*
X16298650Y11513963D01*
X16297269Y11526201D01*
X16296387Y11528974D01*
X16295979Y11531854D01*
X16291911Y11543479D01*
X16290433Y11545986D01*
X16289395Y11548705D01*
X16282841Y11559133D01*
X16280844Y11561247D01*
X16279227Y11563666D01*
X16270518Y11572376D01*
X16268098Y11573993D01*
X16265984Y11575993D01*
X16255554Y11582545D01*
X16252837Y11583582D01*
X16250331Y11585060D01*
X16238707Y11589128D01*
X16235825Y11589535D01*
X16233052Y11590419D01*
X16220813Y11591797D01*
X16219353Y11591674D01*
X16217914Y11591960D01*
D02*
G37*
G36*
X14312914D02*
X13022914D01*
X13021477Y11591674D01*
X13020015Y11591797D01*
X13007776Y11590419D01*
X13005003Y11589535D01*
X13002122Y11589128D01*
X12990495Y11585060D01*
X12987990Y11583582D01*
X12985272Y11582544D01*
X12974844Y11575992D01*
X12972729Y11573993D01*
X12970309Y11572376D01*
X12961601Y11563667D01*
X12959984Y11561248D01*
X12957986Y11559134D01*
X12951433Y11548706D01*
X12950394Y11545986D01*
X12948915Y11543478D01*
X12944849Y11531853D01*
X12944443Y11528973D01*
X12943558Y11526200D01*
X12942178Y11513962D01*
X12942303Y11512501D01*
X12942017Y11511063D01*
X12942017Y10221063D01*
X12942303Y10219624D01*
X12942180Y10218164D01*
X12943558Y10205925D01*
X12944443Y10203152D01*
X12944849Y10200272D01*
X12948915Y10188647D01*
X12950394Y10186140D01*
X12951433Y10183420D01*
X12957986Y10172991D01*
X12959985Y10170877D01*
X12961601Y10168457D01*
X12970311Y10159749D01*
X12972729Y10158133D01*
X12974843Y10156135D01*
X12985271Y10149582D01*
X12987990Y10148544D01*
X12990497Y10147065D01*
X13002122Y10142997D01*
X13005003Y10142590D01*
X13007777Y10141706D01*
X13020015Y10140328D01*
X13021477Y10140451D01*
X13022916Y10140165D01*
X14312914D01*
X14314352Y10140451D01*
X14315816Y10140328D01*
X14328053Y10141708D01*
X14330824Y10142591D01*
X14333705Y10142997D01*
X14345329Y10147065D01*
X14347836Y10148543D01*
X14350555Y10149581D01*
X14360985Y10156135D01*
X14363100Y10158133D01*
X14365518Y10159750D01*
X14374226Y10168458D01*
X14375842Y10170878D01*
X14377843Y10172993D01*
X14384396Y10183422D01*
X14385432Y10186141D01*
X14386911Y10188646D01*
X14390979Y10200270D01*
X14391385Y10203151D01*
X14392268Y10205924D01*
X14393649Y10218162D01*
X14393526Y10219624D01*
X14393811Y10221063D01*
Y11511063D01*
X14393526Y11512501D01*
X14393649Y11513963D01*
X14392268Y11526201D01*
X14391386Y11528974D01*
X14390979Y11531854D01*
X14386913Y11543479D01*
X14385432Y11545986D01*
X14384395Y11548705D01*
X14377843Y11559133D01*
X14375844Y11561247D01*
X14374226Y11563666D01*
X14365520Y11572376D01*
X14363100Y11573993D01*
X14360983Y11575993D01*
X14350554Y11582545D01*
X14347836Y11583582D01*
X14345331Y11585060D01*
X14333707Y11589128D01*
X14330824Y11589535D01*
X14328052Y11590419D01*
X14315813Y11591797D01*
X14314352Y11591674D01*
X14312914Y11591960D01*
D02*
G37*
G36*
X12407913D02*
X11117914D01*
X11116476Y11591674D01*
X11115015Y11591797D01*
X11102776Y11590419D01*
X11100004Y11589535D01*
X11097122Y11589128D01*
X11085496Y11585060D01*
X11082990Y11583582D01*
X11080272Y11582544D01*
X11069844Y11575992D01*
X11067729Y11573993D01*
X11065310Y11572376D01*
X11056601Y11563667D01*
X11054984Y11561248D01*
X11052986Y11559134D01*
X11046433Y11548706D01*
X11045394Y11545986D01*
X11043915Y11543478D01*
X11039848Y11531853D01*
X11039442Y11528973D01*
X11038558Y11526200D01*
X11037179Y11513962D01*
X11037303Y11512501D01*
X11037017Y11511063D01*
X11037017Y10221063D01*
X11037303Y10219624D01*
X11037180Y10218164D01*
X11038558Y10205925D01*
X11039442Y10203152D01*
X11039848Y10200272D01*
X11043915Y10188647D01*
X11045394Y10186140D01*
X11046433Y10183420D01*
X11052986Y10172991D01*
X11054985Y10170877D01*
X11056602Y10168457D01*
X11065311Y10159749D01*
X11067730Y10158133D01*
X11069843Y10156135D01*
X11080271Y10149582D01*
X11082990Y10148544D01*
X11085497Y10147065D01*
X11097122Y10142997D01*
X11100004Y10142590D01*
X11102777Y10141706D01*
X11115015Y10140328D01*
X11116476Y10140451D01*
X11117915Y10140165D01*
X12407913D01*
X12409352Y10140451D01*
X12410812Y10140328D01*
X12423051Y10141706D01*
X12425824Y10142590D01*
X12428706Y10142997D01*
X12440331Y10147065D01*
X12442838Y10148544D01*
X12445557Y10149582D01*
X12455985Y10156135D01*
X12458099Y10158133D01*
X12460517Y10159749D01*
X12469226Y10168457D01*
X12470843Y10170877D01*
X12472842Y10172991D01*
X12479395Y10183419D01*
X12480434Y10186139D01*
X12481913Y10188647D01*
X12485980Y10200272D01*
X12486386Y10203152D01*
X12487270Y10205925D01*
X12488648Y10218163D01*
X12488525Y10219624D01*
X12488811Y10221063D01*
X12488811Y11511063D01*
X12488525Y11512501D01*
X12488648Y11513961D01*
X12487269Y11526200D01*
X12486386Y11528973D01*
X12485979Y11531853D01*
X12481912Y11543478D01*
X12480434Y11545985D01*
X12479395Y11548706D01*
X12472842Y11559134D01*
X12470843Y11561248D01*
X12469227Y11563667D01*
X12460518Y11572376D01*
X12458098Y11573993D01*
X12455983Y11575992D01*
X12445555Y11582544D01*
X12442837Y11583582D01*
X12440331Y11585060D01*
X12428706Y11589128D01*
X12425824Y11589535D01*
X12423051Y11590419D01*
X12410812Y11591797D01*
X12409351Y11591674D01*
X12407913Y11591960D01*
D02*
G37*
G36*
X10502913D02*
X9212914D01*
X9211475Y11591674D01*
X9210013Y11591797D01*
X9197774Y11590418D01*
X9195003Y11589534D01*
X9192123Y11589128D01*
X9180499Y11585061D01*
X9177992Y11583582D01*
X9175271Y11582544D01*
X9164843Y11575990D01*
X9162729Y11573992D01*
X9160311Y11572376D01*
X9151602Y11563668D01*
X9149984Y11561248D01*
X9147985Y11559133D01*
X9141432Y11548704D01*
X9140394Y11545985D01*
X9138915Y11543478D01*
X9134848Y11531854D01*
X9134442Y11528973D01*
X9133558Y11526200D01*
X9132179Y11513962D01*
X9132303Y11512501D01*
X9132017Y11511063D01*
X9132017Y10221063D01*
X9132303Y10219624D01*
X9132180Y10218164D01*
X9133558Y10205925D01*
X9134442Y10203152D01*
X9134848Y10200272D01*
X9138915Y10188647D01*
X9140394Y10186140D01*
X9141433Y10183420D01*
X9147986Y10172991D01*
X9149984Y10170877D01*
X9151601Y10168458D01*
X9160310Y10159749D01*
X9162730Y10158132D01*
X9164845Y10156133D01*
X9175273Y10149581D01*
X9177991Y10148544D01*
X9180497Y10147065D01*
X9192122Y10142997D01*
X9195004Y10142590D01*
X9197777Y10141706D01*
X9210015Y10140328D01*
X9211476Y10140451D01*
X9212915Y10140165D01*
X10502913D01*
X10504352Y10140451D01*
X10505812Y10140328D01*
X10518051Y10141706D01*
X10520824Y10142590D01*
X10523706Y10142997D01*
X10535331Y10147065D01*
X10537838Y10148544D01*
X10540555Y10149581D01*
X10550983Y10156133D01*
X10553098Y10158132D01*
X10555518Y10159749D01*
X10564227Y10168458D01*
X10565843Y10170877D01*
X10567842Y10172991D01*
X10574395Y10183419D01*
X10575434Y10186139D01*
X10576913Y10188647D01*
X10580980Y10200272D01*
X10581386Y10203152D01*
X10582270Y10205925D01*
X10583648Y10218163D01*
X10583525Y10219624D01*
X10583811Y10221063D01*
X10583811Y11511063D01*
X10583525Y11512501D01*
X10583648Y11513961D01*
X10582269Y11526200D01*
X10581386Y11528973D01*
X10580979Y11531854D01*
X10576912Y11543478D01*
X10575434Y11545984D01*
X10574396Y11548704D01*
X10567842Y11559133D01*
X10565843Y11561248D01*
X10564226Y11563668D01*
X10555517Y11572376D01*
X10553098Y11573992D01*
X10550985Y11575990D01*
X10540557Y11582543D01*
X10537836Y11583582D01*
X10535329Y11585061D01*
X10523704Y11589128D01*
X10520825Y11589534D01*
X10518053Y11590418D01*
X10505814Y11591797D01*
X10504352Y11591674D01*
X10502913Y11591960D01*
D02*
G37*
G36*
X8597913D02*
X7307914D01*
X7306475Y11591674D01*
X7305013Y11591797D01*
X7292774Y11590418D01*
X7290003Y11589534D01*
X7287123Y11589128D01*
X7275499Y11585061D01*
X7272992Y11583582D01*
X7270271Y11582544D01*
X7259843Y11575990D01*
X7257729Y11573992D01*
X7255311Y11572376D01*
X7246602Y11563668D01*
X7244984Y11561248D01*
X7242985Y11559133D01*
X7236432Y11548704D01*
X7235394Y11545985D01*
X7233915Y11543478D01*
X7229848Y11531854D01*
X7229442Y11528973D01*
X7228558Y11526200D01*
X7227179Y11513962D01*
X7227303Y11512501D01*
X7227017Y11511063D01*
X7227017Y10221063D01*
X7227303Y10219624D01*
X7227180Y10218164D01*
X7228558Y10205925D01*
X7229442Y10203152D01*
X7229848Y10200272D01*
X7233915Y10188647D01*
X7235394Y10186140D01*
X7236433Y10183420D01*
X7242986Y10172991D01*
X7244984Y10170877D01*
X7246601Y10168458D01*
X7255310Y10159749D01*
X7257730Y10158132D01*
X7259845Y10156133D01*
X7270273Y10149581D01*
X7272991Y10148544D01*
X7275497Y10147065D01*
X7287122Y10142997D01*
X7290004Y10142590D01*
X7292777Y10141706D01*
X7305015Y10140328D01*
X7306476Y10140451D01*
X7307915Y10140165D01*
X8597913D01*
X8599352Y10140451D01*
X8600812Y10140328D01*
X8613051Y10141706D01*
X8615824Y10142590D01*
X8618706Y10142997D01*
X8630331Y10147065D01*
X8632838Y10148544D01*
X8635555Y10149581D01*
X8645983Y10156133D01*
X8648098Y10158132D01*
X8650518Y10159749D01*
X8659227Y10168458D01*
X8660843Y10170877D01*
X8662842Y10172991D01*
X8669395Y10183419D01*
X8670434Y10186139D01*
X8671913Y10188647D01*
X8675980Y10200272D01*
X8676386Y10203152D01*
X8677270Y10205925D01*
X8678648Y10218163D01*
X8678525Y10219624D01*
X8678811Y10221063D01*
X8678811Y11511063D01*
X8678525Y11512501D01*
X8678648Y11513961D01*
X8677269Y11526200D01*
X8676386Y11528973D01*
X8675979Y11531854D01*
X8671912Y11543478D01*
X8670434Y11545984D01*
X8669396Y11548704D01*
X8662842Y11559133D01*
X8660843Y11561248D01*
X8659226Y11563668D01*
X8650517Y11572376D01*
X8648098Y11573992D01*
X8645985Y11575990D01*
X8635557Y11582543D01*
X8632836Y11583582D01*
X8630329Y11585061D01*
X8618704Y11589128D01*
X8615825Y11589534D01*
X8613053Y11590418D01*
X8600814Y11591797D01*
X8599352Y11591674D01*
X8597913Y11591960D01*
D02*
G37*
G36*
X37172913Y9686962D02*
X35882916D01*
X35881476Y9686676D01*
X35880017Y9686800D01*
X35867776Y9685421D01*
X35865005Y9684537D01*
X35862122Y9684130D01*
X35850497Y9680062D01*
X35847992Y9678584D01*
X35845273Y9677546D01*
X35834845Y9670994D01*
X35832730Y9668995D01*
X35830310Y9667378D01*
X35821600Y9658669D01*
X35819986Y9656250D01*
X35817987Y9654136D01*
X35811432Y9643708D01*
X35810394Y9640989D01*
X35808917Y9638482D01*
X35804849Y9626857D01*
X35804440Y9623974D01*
X35803558Y9621200D01*
X35802179Y9608961D01*
X35802304Y9607502D01*
X35802017Y9606065D01*
Y8316065D01*
X35802304Y8314628D01*
X35802179Y8313168D01*
X35803558Y8300929D01*
X35804440Y8298156D01*
X35804849Y8295272D01*
X35808917Y8283647D01*
X35810394Y8281140D01*
X35811432Y8278422D01*
X35817987Y8267993D01*
X35819986Y8265879D01*
X35821603Y8263459D01*
X35830310Y8254751D01*
X35832730Y8253135D01*
X35834842Y8251137D01*
X35845270Y8244584D01*
X35847989Y8243546D01*
X35850497Y8242067D01*
X35862122Y8237999D01*
X35865005Y8237592D01*
X35867776Y8236708D01*
X35880017Y8235330D01*
X35881476Y8235453D01*
X35882916Y8235167D01*
X37172913D01*
X37174353Y8235453D01*
X37175815Y8235330D01*
X37188055Y8236710D01*
X37190826Y8237593D01*
X37193704Y8238000D01*
X37205328Y8242067D01*
X37207837Y8243545D01*
X37210556Y8244584D01*
X37220984Y8251137D01*
X37223099Y8253135D01*
X37225516Y8254751D01*
X37234225Y8263459D01*
X37235843Y8265880D01*
X37237842Y8267994D01*
X37244397Y8278423D01*
X37245435Y8281143D01*
X37246912Y8283651D01*
X37250980Y8295275D01*
X37251385Y8298155D01*
X37252271Y8300925D01*
X37253647Y8313163D01*
X37253525Y8314625D01*
X37253812Y8316065D01*
Y9606065D01*
X37253525Y9607504D01*
X37253647Y9608966D01*
X37252271Y9621205D01*
X37251385Y9623974D01*
X37250980Y9626853D01*
X37246915Y9638479D01*
X37245435Y9640987D01*
X37244397Y9643708D01*
X37237842Y9654136D01*
X37235843Y9656250D01*
X37234229Y9658669D01*
X37225519Y9667378D01*
X37223099Y9668995D01*
X37220984Y9670994D01*
X37210556Y9677546D01*
X37207837Y9678584D01*
X37205331Y9680062D01*
X37193707Y9684130D01*
X37190823Y9684537D01*
X37188052Y9685421D01*
X37175812Y9686800D01*
X37174353Y9686676D01*
X37172913Y9686962D01*
D02*
G37*
G36*
X34791663D02*
X33501666D01*
X33500226Y9686676D01*
X33498767Y9686800D01*
X33486526Y9685421D01*
X33483755Y9684537D01*
X33480872Y9684130D01*
X33469247Y9680062D01*
X33466739Y9678583D01*
X33464023Y9677546D01*
X33453592Y9670992D01*
X33451480Y9668994D01*
X33449060Y9667378D01*
X33440353Y9658670D01*
X33438736Y9656250D01*
X33436737Y9654136D01*
X33430182Y9643708D01*
X33429144Y9640989D01*
X33427667Y9638482D01*
X33423599Y9626857D01*
X33423190Y9623974D01*
X33422308Y9621200D01*
X33420929Y9608961D01*
X33421054Y9607502D01*
X33420767Y9606065D01*
Y8316065D01*
X33421054Y8314628D01*
X33420929Y8313168D01*
X33422308Y8300929D01*
X33423190Y8298156D01*
X33423599Y8295272D01*
X33427667Y8283647D01*
X33429144Y8281140D01*
X33430182Y8278422D01*
X33436737Y8267993D01*
X33438736Y8265879D01*
X33440350Y8263460D01*
X33449060Y8254751D01*
X33451480Y8253134D01*
X33453595Y8251135D01*
X33464023Y8244583D01*
X33466742Y8243546D01*
X33469247Y8242067D01*
X33480872Y8237999D01*
X33483755Y8237592D01*
X33486526Y8236708D01*
X33498767Y8235330D01*
X33500226Y8235453D01*
X33501666Y8235167D01*
X34791663D01*
X34793103Y8235453D01*
X34794562Y8235330D01*
X34806802Y8236708D01*
X34809573Y8237592D01*
X34812457Y8237999D01*
X34824081Y8242067D01*
X34826587Y8243546D01*
X34829306Y8244584D01*
X34839734Y8251137D01*
X34841849Y8253135D01*
X34844266Y8254751D01*
X34852975Y8263459D01*
X34854593Y8265879D01*
X34856592Y8267993D01*
X34863144Y8278421D01*
X34864185Y8281142D01*
X34865665Y8283651D01*
X34869730Y8295276D01*
X34870135Y8298155D01*
X34871021Y8300925D01*
X34872397Y8313163D01*
X34872275Y8314625D01*
X34872562Y8316065D01*
Y9606065D01*
X34872275Y9607504D01*
X34872397Y9608966D01*
X34871021Y9621205D01*
X34870135Y9623974D01*
X34869730Y9626853D01*
X34865665Y9638479D01*
X34864185Y9640987D01*
X34863147Y9643708D01*
X34856592Y9654136D01*
X34854593Y9656250D01*
X34852979Y9658669D01*
X34844269Y9667378D01*
X34841849Y9668995D01*
X34839734Y9670994D01*
X34829306Y9677546D01*
X34826587Y9678584D01*
X34824081Y9680062D01*
X34812457Y9684130D01*
X34809573Y9684537D01*
X34806802Y9685421D01*
X34794562Y9686800D01*
X34793103Y9686676D01*
X34791663Y9686962D01*
D02*
G37*
G36*
X32410413D02*
X31120416D01*
X31118976Y9686676D01*
X31117517Y9686800D01*
X31105276Y9685421D01*
X31102505Y9684537D01*
X31099622Y9684130D01*
X31087997Y9680062D01*
X31085489Y9678583D01*
X31082773Y9677546D01*
X31072342Y9670992D01*
X31070230Y9668994D01*
X31067810Y9667378D01*
X31059103Y9658670D01*
X31057486Y9656250D01*
X31055487Y9654136D01*
X31048932Y9643708D01*
X31047894Y9640989D01*
X31046417Y9638482D01*
X31042349Y9626857D01*
X31041940Y9623974D01*
X31041058Y9621200D01*
X31039679Y9608961D01*
X31039804Y9607502D01*
X31039517Y9606065D01*
Y8316065D01*
X31039804Y8314628D01*
X31039679Y8313168D01*
X31041058Y8300929D01*
X31041940Y8298156D01*
X31042349Y8295272D01*
X31046417Y8283647D01*
X31047894Y8281140D01*
X31048932Y8278422D01*
X31055487Y8267993D01*
X31057486Y8265879D01*
X31059100Y8263460D01*
X31067810Y8254751D01*
X31070230Y8253134D01*
X31072345Y8251135D01*
X31082773Y8244583D01*
X31085492Y8243546D01*
X31087997Y8242067D01*
X31099622Y8237999D01*
X31102505Y8237592D01*
X31105276Y8236708D01*
X31117517Y8235330D01*
X31118976Y8235453D01*
X31120416Y8235167D01*
X32410413D01*
X32411853Y8235453D01*
X32413312Y8235330D01*
X32425552Y8236708D01*
X32428323Y8237592D01*
X32431207Y8237999D01*
X32442831Y8242067D01*
X32445337Y8243546D01*
X32448056Y8244583D01*
X32458484Y8251135D01*
X32460599Y8253134D01*
X32463019Y8254751D01*
X32471729Y8263460D01*
X32473343Y8265879D01*
X32475342Y8267993D01*
X32481894Y8278421D01*
X32482935Y8281142D01*
X32484415Y8283651D01*
X32488480Y8295276D01*
X32488885Y8298155D01*
X32489771Y8300925D01*
X32491147Y8313163D01*
X32491025Y8314625D01*
X32491312Y8316065D01*
Y9606065D01*
X32491025Y9607504D01*
X32491147Y9608966D01*
X32489771Y9621205D01*
X32488885Y9623974D01*
X32488480Y9626853D01*
X32484415Y9638479D01*
X32482935Y9640987D01*
X32481897Y9643708D01*
X32475342Y9654136D01*
X32473343Y9656250D01*
X32471725Y9658670D01*
X32463016Y9667378D01*
X32460599Y9668994D01*
X32458484Y9670992D01*
X32448056Y9677545D01*
X32445337Y9678583D01*
X32442831Y9680062D01*
X32431207Y9684130D01*
X32428323Y9684537D01*
X32425552Y9685421D01*
X32413312Y9686800D01*
X32411853Y9686676D01*
X32410413Y9686962D01*
D02*
G37*
G36*
X30505414D02*
X29215414D01*
X29213977Y9686676D01*
X29212515Y9686799D01*
X29200275Y9685420D01*
X29197504Y9684536D01*
X29194623Y9684130D01*
X29182999Y9680063D01*
X29180493Y9678584D01*
X29177771Y9677546D01*
X29167343Y9670992D01*
X29165231Y9668994D01*
X29162811Y9667378D01*
X29154102Y9658670D01*
X29152484Y9656250D01*
X29150485Y9654135D01*
X29143933Y9643706D01*
X29142896Y9640988D01*
X29141415Y9638482D01*
X29137347Y9626858D01*
X29136942Y9623974D01*
X29136057Y9621200D01*
X29134680Y9608961D01*
X29134802Y9607502D01*
X29134518Y9606065D01*
Y8316065D01*
X29134802Y8314628D01*
X29134680Y8313168D01*
X29136057Y8300929D01*
X29136942Y8298156D01*
X29137347Y8295272D01*
X29141415Y8283647D01*
X29142896Y8281140D01*
X29143933Y8278422D01*
X29150485Y8267993D01*
X29152484Y8265879D01*
X29154102Y8263460D01*
X29162811Y8254751D01*
X29165231Y8253134D01*
X29167346Y8251135D01*
X29177774Y8244583D01*
X29180490Y8243546D01*
X29182996Y8242067D01*
X29194623Y8237999D01*
X29197504Y8237592D01*
X29200278Y8236708D01*
X29212515Y8235330D01*
X29213977Y8235453D01*
X29215414Y8235167D01*
X30505414D01*
X30506851Y8235453D01*
X30508313Y8235330D01*
X30520551Y8236708D01*
X30523325Y8237592D01*
X30526205Y8237999D01*
X30537830Y8242067D01*
X30540338Y8243546D01*
X30543054Y8244583D01*
X30553485Y8251135D01*
X30555600Y8253134D01*
X30558017Y8254751D01*
X30566727Y8263460D01*
X30568344Y8265879D01*
X30570343Y8267993D01*
X30576895Y8278421D01*
X30577933Y8281142D01*
X30579413Y8283651D01*
X30583481Y8295276D01*
X30583887Y8298155D01*
X30584769Y8300925D01*
X30586148Y8313163D01*
X30586026Y8314625D01*
X30586310Y8316065D01*
Y9606065D01*
X30586026Y9607504D01*
X30586148Y9608966D01*
X30584769Y9621205D01*
X30583884Y9623975D01*
X30583478Y9626854D01*
X30579413Y9638478D01*
X30577936Y9640986D01*
X30576895Y9643706D01*
X30570343Y9654135D01*
X30568344Y9656250D01*
X30566727Y9658670D01*
X30558017Y9667378D01*
X30555600Y9668994D01*
X30553485Y9670992D01*
X30543057Y9677545D01*
X30540338Y9678584D01*
X30537830Y9680063D01*
X30526205Y9684130D01*
X30523325Y9684536D01*
X30520554Y9685420D01*
X30508316Y9686799D01*
X30506854Y9686676D01*
X30505414Y9686962D01*
D02*
G37*
G36*
X28600415D02*
X27310416Y9686961D01*
X27308978Y9686675D01*
X27307516Y9686799D01*
X27295276Y9685420D01*
X27292505Y9684536D01*
X27289621Y9684129D01*
X27277997Y9680061D01*
X27275491Y9678583D01*
X27272772Y9677545D01*
X27262344Y9670993D01*
X27260229Y9668994D01*
X27257809Y9667377D01*
X27249100Y9658668D01*
X27247485Y9656249D01*
X27245486Y9654135D01*
X27238934Y9643707D01*
X27237894Y9640988D01*
X27236417Y9638481D01*
X27232349Y9626856D01*
X27231940Y9623973D01*
X27231058Y9621199D01*
X27229681Y9608960D01*
X27229803Y9607501D01*
X27229517Y9606064D01*
Y8316064D01*
X27229803Y8314626D01*
X27229681Y8313167D01*
X27231058Y8300928D01*
X27231940Y8298154D01*
X27232349Y8295270D01*
X27236417Y8283646D01*
X27237894Y8281140D01*
X27238931Y8278422D01*
X27245486Y8267993D01*
X27247485Y8265878D01*
X27249103Y8263458D01*
X27257812Y8254750D01*
X27260229Y8253134D01*
X27262344Y8251136D01*
X27272772Y8244583D01*
X27275491Y8243544D01*
X27278000Y8242066D01*
X27289624Y8237999D01*
X27292502Y8237592D01*
X27295276Y8236709D01*
X27307513Y8235329D01*
X27308975Y8235452D01*
X27310416Y8235166D01*
X28600415Y8235167D01*
X28601852Y8235453D01*
X28603314Y8235330D01*
X28615552Y8236708D01*
X28618323Y8237592D01*
X28621207Y8237999D01*
X28632831Y8242067D01*
X28635339Y8243546D01*
X28638055Y8244583D01*
X28648483Y8251135D01*
X28650598Y8253134D01*
X28653018Y8254751D01*
X28661728Y8263460D01*
X28663345Y8265879D01*
X28665341Y8267993D01*
X28671896Y8278421D01*
X28672934Y8281142D01*
X28674414Y8283651D01*
X28678479Y8295276D01*
X28678885Y8298155D01*
X28679770Y8300925D01*
X28681149Y8313163D01*
X28681024Y8314625D01*
X28681311Y8316065D01*
Y9606065D01*
X28681024Y9607504D01*
X28681149Y9608966D01*
X28679770Y9621205D01*
X28678885Y9623975D01*
X28678479Y9626854D01*
X28674414Y9638478D01*
X28672934Y9640986D01*
X28671896Y9643706D01*
X28665344Y9654135D01*
X28663342Y9656250D01*
X28661725Y9658670D01*
X28653018Y9667378D01*
X28650598Y9668994D01*
X28648486Y9670992D01*
X28638058Y9677545D01*
X28635336Y9678584D01*
X28632828Y9680063D01*
X28621204Y9684130D01*
X28618326Y9684536D01*
X28615555Y9685420D01*
X28603314Y9686799D01*
X28601852Y9686676D01*
X28600415Y9686962D01*
D02*
G37*
G36*
X26695413Y9686961D02*
X25405414D01*
X25403976Y9686675D01*
X25402515Y9686799D01*
X25390276Y9685420D01*
X25387503Y9684536D01*
X25384621Y9684129D01*
X25372997Y9680061D01*
X25370491Y9678583D01*
X25367773Y9677546D01*
X25357346Y9670994D01*
X25355229Y9668994D01*
X25352808Y9667376D01*
X25344099Y9658667D01*
X25342484Y9656248D01*
X25340486Y9654135D01*
X25333932Y9643707D01*
X25332893Y9640987D01*
X25331416Y9638479D01*
X25327348Y9626854D01*
X25326942Y9623975D01*
X25326059Y9621204D01*
X25324680Y9608965D01*
X25324802Y9607503D01*
X25324516Y9606064D01*
Y8316064D01*
X25324802Y8314624D01*
X25324680Y8313162D01*
X25326059Y8300924D01*
X25326942Y8298152D01*
X25327348Y8295272D01*
X25331416Y8283648D01*
X25332893Y8281142D01*
X25333932Y8278422D01*
X25340486Y8267993D01*
X25342484Y8265879D01*
X25344101Y8263459D01*
X25352809Y8254751D01*
X25355229Y8253134D01*
X25357343Y8251135D01*
X25367772Y8244582D01*
X25370493Y8243544D01*
X25372998Y8242066D01*
X25384622Y8237999D01*
X25387502Y8237592D01*
X25390274Y8236709D01*
X25402513Y8235329D01*
X25403975Y8235452D01*
X25405414Y8235166D01*
X26695413D01*
X26696854Y8235452D01*
X26698315Y8235329D01*
X26710553Y8236709D01*
X26713324Y8237592D01*
X26716205Y8237999D01*
X26727829Y8242066D01*
X26730338Y8243544D01*
X26733057Y8244583D01*
X26743484Y8251136D01*
X26745599Y8253134D01*
X26748016Y8254750D01*
X26756726Y8263458D01*
X26758344Y8265879D01*
X26760342Y8267993D01*
X26766895Y8278422D01*
X26767935Y8281142D01*
X26769412Y8283650D01*
X26773480Y8295274D01*
X26773886Y8298154D01*
X26774768Y8300924D01*
X26776147Y8313162D01*
X26776025Y8314624D01*
X26776312Y8316064D01*
Y9606064D01*
X26776025Y9607503D01*
X26776147Y9608965D01*
X26774768Y9621204D01*
X26773886Y9623973D01*
X26773480Y9626852D01*
X26769415Y9638478D01*
X26767935Y9640986D01*
X26766895Y9643707D01*
X26760342Y9654135D01*
X26758344Y9656249D01*
X26756726Y9658668D01*
X26748019Y9667377D01*
X26745599Y9668994D01*
X26743484Y9670993D01*
X26733057Y9677545D01*
X26730338Y9678583D01*
X26727832Y9680061D01*
X26716205Y9684129D01*
X26713324Y9684536D01*
X26710553Y9685420D01*
X26698312Y9686799D01*
X26696851Y9686675D01*
X26695413Y9686961D01*
D02*
G37*
G36*
X24790414D02*
X23500414D01*
X23498976Y9686675D01*
X23497514Y9686799D01*
X23485275Y9685420D01*
X23482503Y9684536D01*
X23479620Y9684129D01*
X23467996Y9680061D01*
X23465491Y9678583D01*
X23462775Y9677546D01*
X23452345Y9670994D01*
X23450229Y9668994D01*
X23447807Y9667376D01*
X23439101Y9658667D01*
X23437485Y9656248D01*
X23435486Y9654135D01*
X23428934Y9643707D01*
X23427895Y9640987D01*
X23426416Y9638479D01*
X23422350Y9626854D01*
X23421942Y9623975D01*
X23421059Y9621204D01*
X23419679Y9608965D01*
X23419801Y9607503D01*
X23419516Y9606064D01*
Y8316064D01*
X23419801Y8314624D01*
X23419679Y8313162D01*
X23421059Y8300924D01*
X23421942Y8298153D01*
X23422350Y8295273D01*
X23426416Y8283648D01*
X23427895Y8281141D01*
X23428934Y8278421D01*
X23435486Y8267992D01*
X23437485Y8265878D01*
X23439101Y8263459D01*
X23447809Y8254751D01*
X23450229Y8253134D01*
X23452344Y8251135D01*
X23462772Y8244582D01*
X23465491Y8243545D01*
X23467996Y8242066D01*
X23479620Y8237998D01*
X23482503Y8237591D01*
X23485275Y8236707D01*
X23497514Y8235329D01*
X23498976Y8235452D01*
X23500414Y8235166D01*
X24790414D01*
X24791852Y8235452D01*
X24793314Y8235329D01*
X24805553Y8236707D01*
X24808324Y8237591D01*
X24811206Y8237998D01*
X24822832Y8242066D01*
X24825339Y8243545D01*
X24828056Y8244583D01*
X24838486Y8251136D01*
X24840599Y8253134D01*
X24843018Y8254750D01*
X24851726Y8263458D01*
X24853345Y8265879D01*
X24855344Y8267994D01*
X24861896Y8278422D01*
X24862933Y8281140D01*
X24864410Y8283646D01*
X24868478Y8295271D01*
X24868886Y8298153D01*
X24869769Y8300926D01*
X24871149Y8313164D01*
X24871025Y8314625D01*
X24871310Y8316064D01*
Y9606064D01*
X24871025Y9607502D01*
X24871149Y9608962D01*
X24869769Y9621201D01*
X24868886Y9623974D01*
X24868478Y9626856D01*
X24864410Y9638481D01*
X24862933Y9640988D01*
X24861896Y9643705D01*
X24855344Y9654134D01*
X24853345Y9656248D01*
X24851727Y9658668D01*
X24843018Y9667377D01*
X24840598Y9668994D01*
X24838483Y9670993D01*
X24828055Y9677545D01*
X24825339Y9678583D01*
X24822832Y9680061D01*
X24811206Y9684129D01*
X24808324Y9684536D01*
X24805553Y9685420D01*
X24793314Y9686799D01*
X24791852Y9686675D01*
X24790414Y9686961D01*
D02*
G37*
G36*
X22885414D02*
X21595415D01*
X21593976Y9686675D01*
X21592516Y9686799D01*
X21580276Y9685420D01*
X21577502Y9684536D01*
X21574622Y9684129D01*
X21562996Y9680061D01*
X21560490Y9678583D01*
X21557771Y9677545D01*
X21547343Y9670992D01*
X21545229Y9668993D01*
X21542809Y9667376D01*
X21534100Y9658668D01*
X21532484Y9656249D01*
X21530486Y9654135D01*
X21523933Y9643707D01*
X21522894Y9640987D01*
X21521416Y9638479D01*
X21517349Y9626854D01*
X21516942Y9623975D01*
X21516058Y9621204D01*
X21514679Y9608965D01*
X21514803Y9607503D01*
X21514516Y9606064D01*
Y8316064D01*
X21514803Y8314624D01*
X21514679Y8313162D01*
X21516058Y8300924D01*
X21516942Y8298153D01*
X21517349Y8295273D01*
X21521416Y8283648D01*
X21522894Y8281141D01*
X21523933Y8278421D01*
X21530486Y8267992D01*
X21532484Y8265879D01*
X21534100Y8263460D01*
X21542809Y8254751D01*
X21545229Y8253133D01*
X21547345Y8251133D01*
X21557774Y8244581D01*
X21560490Y8243544D01*
X21562996Y8242066D01*
X21574620Y8237998D01*
X21577502Y8237591D01*
X21580276Y8236707D01*
X21592516Y8235329D01*
X21593976Y8235452D01*
X21595415Y8235166D01*
X22885414D01*
X22886852Y8235452D01*
X22888313Y8235329D01*
X22900552Y8236707D01*
X22903323Y8237591D01*
X22906206Y8237998D01*
X22917831Y8242066D01*
X22920338Y8243545D01*
X22923058Y8244583D01*
X22933485Y8251136D01*
X22935599Y8253134D01*
X22938017Y8254750D01*
X22946725Y8263458D01*
X22948344Y8265879D01*
X22950343Y8267994D01*
X22956895Y8278422D01*
X22957933Y8281140D01*
X22959412Y8283646D01*
X22963480Y8295271D01*
X22963885Y8298153D01*
X22964771Y8300926D01*
X22966148Y8313164D01*
X22966025Y8314625D01*
X22966312Y8316064D01*
Y9606064D01*
X22966025Y9607502D01*
X22966148Y9608962D01*
X22964771Y9621201D01*
X22963885Y9623974D01*
X22963480Y9626856D01*
X22959412Y9638481D01*
X22957933Y9640988D01*
X22956895Y9643705D01*
X22950343Y9654134D01*
X22948344Y9656248D01*
X22946727Y9658668D01*
X22938017Y9667377D01*
X22935599Y9668994D01*
X22933482Y9670993D01*
X22923055Y9677545D01*
X22920338Y9678583D01*
X22917831Y9680061D01*
X22906206Y9684129D01*
X22903323Y9684536D01*
X22900552Y9685420D01*
X22888313Y9686799D01*
X22886852Y9686675D01*
X22885414Y9686961D01*
D02*
G37*
G36*
X20980414D02*
X19690414D01*
X19688976Y9686675D01*
X19687515Y9686799D01*
X19675276Y9685420D01*
X19672504Y9684536D01*
X19669621Y9684129D01*
X19657996Y9680061D01*
X19655490Y9678583D01*
X19652773Y9677545D01*
X19642343Y9670992D01*
X19640228Y9668993D01*
X19637810Y9667376D01*
X19629102Y9658668D01*
X19627486Y9656249D01*
X19625487Y9654135D01*
X19618933Y9643707D01*
X19617894Y9640987D01*
X19616415Y9638479D01*
X19612349Y9626854D01*
X19611942Y9623975D01*
X19611060Y9621204D01*
X19609679Y9608965D01*
X19609802Y9607503D01*
X19609515Y9606064D01*
Y8316064D01*
X19609802Y8314624D01*
X19609679Y8313162D01*
X19611060Y8300924D01*
X19611942Y8298153D01*
X19612349Y8295273D01*
X19616415Y8283648D01*
X19617894Y8281141D01*
X19618933Y8278421D01*
X19625487Y8267992D01*
X19627484Y8265879D01*
X19629100Y8263460D01*
X19637808Y8254751D01*
X19640228Y8253133D01*
X19642345Y8251133D01*
X19652774Y8244581D01*
X19655492Y8243544D01*
X19657996Y8242066D01*
X19669620Y8237998D01*
X19672504Y8237591D01*
X19675276Y8236707D01*
X19687515Y8235329D01*
X19688976Y8235452D01*
X19690414Y8235166D01*
X20980414D01*
X20981853Y8235452D01*
X20983313Y8235329D01*
X20995552Y8236707D01*
X20998325Y8237591D01*
X21001205Y8237998D01*
X21012831Y8242066D01*
X21015338Y8243545D01*
X21018056Y8244582D01*
X21028484Y8251134D01*
X21030598Y8253133D01*
X21033018Y8254750D01*
X21041727Y8263459D01*
X21043344Y8265879D01*
X21045343Y8267994D01*
X21051895Y8278422D01*
X21052933Y8281140D01*
X21054411Y8283646D01*
X21058479Y8295271D01*
X21058887Y8298153D01*
X21059770Y8300926D01*
X21061150Y8313164D01*
X21061024Y8314625D01*
X21061311Y8316064D01*
Y9606064D01*
X21061024Y9607502D01*
X21061150Y9608962D01*
X21059770Y9621201D01*
X21058887Y9623974D01*
X21058479Y9626856D01*
X21054411Y9638481D01*
X21052933Y9640988D01*
X21051895Y9643705D01*
X21045343Y9654134D01*
X21043343Y9656249D01*
X21041727Y9658669D01*
X21033017Y9667377D01*
X21030598Y9668993D01*
X21028485Y9670991D01*
X21018057Y9677544D01*
X21015338Y9678582D01*
X21012831Y9680061D01*
X21001205Y9684129D01*
X20998325Y9684536D01*
X20995552Y9685420D01*
X20983313Y9686799D01*
X20981853Y9686675D01*
X20980414Y9686961D01*
D02*
G37*
G36*
X19075414D02*
X17785414D01*
X17783975Y9686675D01*
X17782513Y9686798D01*
X17770274Y9685419D01*
X17767503Y9684535D01*
X17764622Y9684129D01*
X17752998Y9680062D01*
X17750491Y9678583D01*
X17747772Y9677545D01*
X17737343Y9670992D01*
X17735229Y9668993D01*
X17732809Y9667377D01*
X17724101Y9658669D01*
X17722484Y9656248D01*
X17720485Y9654133D01*
X17713931Y9643704D01*
X17712895Y9640986D01*
X17711417Y9638480D01*
X17707349Y9626856D01*
X17706943Y9623975D01*
X17706059Y9621202D01*
X17704678Y9608964D01*
X17704803Y9607502D01*
X17704517Y9606064D01*
Y8316064D01*
X17704803Y8314625D01*
X17704678Y8313163D01*
X17706059Y8300925D01*
X17706943Y8298153D01*
X17707349Y8295272D01*
X17711417Y8283647D01*
X17712895Y8281140D01*
X17713933Y8278421D01*
X17720486Y8267993D01*
X17722484Y8265879D01*
X17724101Y8263460D01*
X17732809Y8254751D01*
X17735229Y8253134D01*
X17737344Y8251134D01*
X17747774Y8244582D01*
X17750491Y8243545D01*
X17752995Y8242066D01*
X17764621Y8237998D01*
X17767503Y8237591D01*
X17770276Y8236707D01*
X17782515Y8235329D01*
X17783977Y8235452D01*
X17785414Y8235166D01*
X19075414D01*
X19076852Y8235452D01*
X19078313Y8235329D01*
X19090552Y8236707D01*
X19093324Y8237591D01*
X19096207Y8237998D01*
X19107831Y8242066D01*
X19110338Y8243545D01*
X19113055Y8244582D01*
X19123483Y8251134D01*
X19125600Y8253133D01*
X19128018Y8254750D01*
X19136726Y8263459D01*
X19138344Y8265879D01*
X19140343Y8267994D01*
X19146895Y8278422D01*
X19147932Y8281140D01*
X19149411Y8283646D01*
X19153479Y8295271D01*
X19153886Y8298153D01*
X19154770Y8300926D01*
X19156149Y8313164D01*
X19156026Y8314625D01*
X19156311Y8316064D01*
Y9606064D01*
X19156026Y9607502D01*
X19156149Y9608962D01*
X19154770Y9621201D01*
X19153886Y9623975D01*
X19153479Y9626857D01*
X19149411Y9638481D01*
X19147932Y9640986D01*
X19146896Y9643703D01*
X19140344Y9654133D01*
X19138344Y9656248D01*
X19136726Y9658669D01*
X19128017Y9667377D01*
X19125600Y9668993D01*
X19123485Y9670991D01*
X19113057Y9677544D01*
X19110336Y9678583D01*
X19107829Y9680062D01*
X19096204Y9684129D01*
X19093324Y9684535D01*
X19090553Y9685419D01*
X19078316Y9686798D01*
X19076852Y9686675D01*
X19075414Y9686961D01*
D02*
G37*
G36*
X17170415D02*
X15880414Y9686960D01*
X15878976Y9686674D01*
X15877515Y9686797D01*
X15865276Y9685419D01*
X15862503Y9684535D01*
X15859621Y9684128D01*
X15847997Y9680060D01*
X15845491Y9678582D01*
X15842773Y9677545D01*
X15832346Y9670992D01*
X15830231Y9668993D01*
X15827809Y9667376D01*
X15819101Y9658666D01*
X15817484Y9656247D01*
X15815486Y9654133D01*
X15808932Y9643705D01*
X15807895Y9640986D01*
X15806416Y9638479D01*
X15802348Y9626854D01*
X15801942Y9623974D01*
X15801059Y9621201D01*
X15799680Y9608963D01*
X15799803Y9607501D01*
X15799516Y9606063D01*
Y8316063D01*
X15799803Y8314624D01*
X15799680Y8313162D01*
X15801059Y8300924D01*
X15801942Y8298151D01*
X15802348Y8295270D01*
X15806416Y8283646D01*
X15807895Y8281141D01*
X15808932Y8278422D01*
X15815485Y8267993D01*
X15817484Y8265878D01*
X15819102Y8263458D01*
X15827811Y8254750D01*
X15830229Y8253134D01*
X15832343Y8251135D01*
X15842772Y8244581D01*
X15845493Y8243543D01*
X15848000Y8242065D01*
X15859624Y8237997D01*
X15862505Y8237591D01*
X15865274Y8236708D01*
X15877513Y8235328D01*
X15878975Y8235451D01*
X15880414Y8235165D01*
X17170415Y8235166D01*
X17171852Y8235452D01*
X17173312Y8235329D01*
X17185551Y8236707D01*
X17188326Y8237591D01*
X17191206Y8237998D01*
X17202832Y8242066D01*
X17205338Y8243544D01*
X17208055Y8244582D01*
X17218484Y8251134D01*
X17220598Y8253133D01*
X17223019Y8254751D01*
X17231728Y8263460D01*
X17233344Y8265879D01*
X17235342Y8267993D01*
X17241895Y8278421D01*
X17242934Y8281140D01*
X17244412Y8283647D01*
X17248480Y8295272D01*
X17248886Y8298153D01*
X17249770Y8300925D01*
X17251149Y8313163D01*
X17251025Y8314625D01*
X17251312Y8316064D01*
Y9606064D01*
X17251025Y9607502D01*
X17251149Y9608964D01*
X17249770Y9621202D01*
X17248886Y9623975D01*
X17248479Y9626856D01*
X17244412Y9638480D01*
X17242934Y9640986D01*
X17241896Y9643704D01*
X17235342Y9654133D01*
X17233344Y9656248D01*
X17231728Y9658669D01*
X17223018Y9667377D01*
X17220599Y9668993D01*
X17218484Y9670992D01*
X17208057Y9677545D01*
X17205338Y9678583D01*
X17202831Y9680062D01*
X17191205Y9684129D01*
X17188326Y9684535D01*
X17185555Y9685419D01*
X17173315Y9686798D01*
X17171854Y9686675D01*
X17170415Y9686961D01*
D02*
G37*
G36*
X15265414Y9686960D02*
X13975414D01*
X13973976Y9686674D01*
X13972514Y9686797D01*
X13960275Y9685419D01*
X13957503Y9684535D01*
X13954620Y9684128D01*
X13942998Y9680060D01*
X13940491Y9678582D01*
X13937773Y9677545D01*
X13927345Y9670992D01*
X13925230Y9668993D01*
X13922809Y9667376D01*
X13914101Y9658666D01*
X13912485Y9656247D01*
X13910486Y9654133D01*
X13903934Y9643705D01*
X13902895Y9640986D01*
X13901416Y9638479D01*
X13897350Y9626854D01*
X13896942Y9623974D01*
X13896059Y9621201D01*
X13894679Y9608963D01*
X13894803Y9607501D01*
X13894518Y9606063D01*
Y8316063D01*
X13894803Y8314624D01*
X13894679Y8313162D01*
X13896059Y8300924D01*
X13896942Y8298151D01*
X13897350Y8295270D01*
X13901418Y8283646D01*
X13902895Y8281141D01*
X13903932Y8278422D01*
X13910484Y8267993D01*
X13912485Y8265878D01*
X13914102Y8263458D01*
X13922810Y8254750D01*
X13925229Y8253134D01*
X13927344Y8251135D01*
X13937772Y8244581D01*
X13940492Y8243543D01*
X13942999Y8242065D01*
X13954623Y8237997D01*
X13957504Y8237591D01*
X13960274Y8236708D01*
X13972513Y8235328D01*
X13973975Y8235451D01*
X13975414Y8235165D01*
X15265414D01*
X15266853Y8235451D01*
X15268315Y8235328D01*
X15280554Y8236708D01*
X15283325Y8237591D01*
X15286205Y8237997D01*
X15297830Y8242065D01*
X15300337Y8243543D01*
X15303056Y8244581D01*
X15313486Y8251135D01*
X15315599Y8253133D01*
X15318018Y8254750D01*
X15326727Y8263458D01*
X15328345Y8265878D01*
X15330344Y8267993D01*
X15336896Y8278422D01*
X15337933Y8281141D01*
X15339412Y8283646D01*
X15343478Y8295270D01*
X15343886Y8298151D01*
X15344769Y8300924D01*
X15346149Y8313162D01*
X15346027Y8314624D01*
X15346312Y8316063D01*
Y9606063D01*
X15346027Y9607501D01*
X15346149Y9608963D01*
X15344769Y9621201D01*
X15343886Y9623974D01*
X15343480Y9626854D01*
X15339412Y9638479D01*
X15337933Y9640986D01*
X15336896Y9643705D01*
X15330344Y9654133D01*
X15328345Y9656247D01*
X15326727Y9658666D01*
X15318019Y9667376D01*
X15315599Y9668993D01*
X15313484Y9670993D01*
X15303055Y9677545D01*
X15300339Y9678582D01*
X15297832Y9680060D01*
X15286208Y9684128D01*
X15283327Y9684535D01*
X15280553Y9685419D01*
X15268314Y9686797D01*
X15266852Y9686674D01*
X15265414Y9686960D01*
D02*
G37*
G36*
X13360413D02*
X12070415D01*
X12068976Y9686674D01*
X12067516Y9686797D01*
X12055277Y9685419D01*
X12052504Y9684535D01*
X12049622Y9684128D01*
X12037997Y9680060D01*
X12035490Y9678582D01*
X12032773Y9677544D01*
X12022345Y9670992D01*
X12020230Y9668993D01*
X12017810Y9667376D01*
X12009101Y9658667D01*
X12007484Y9656248D01*
X12005486Y9654134D01*
X11998933Y9643706D01*
X11997894Y9640986D01*
X11996415Y9638478D01*
X11992348Y9626853D01*
X11991942Y9623973D01*
X11991058Y9621200D01*
X11989680Y9608962D01*
X11989803Y9607501D01*
X11989517Y9606063D01*
X11989517Y8316063D01*
X11989803Y8314624D01*
X11989680Y8313164D01*
X11991059Y8300925D01*
X11991942Y8298152D01*
X11992349Y8295272D01*
X11996416Y8283647D01*
X11997894Y8281140D01*
X11998933Y8278420D01*
X12005486Y8267991D01*
X12007485Y8265877D01*
X12009102Y8263457D01*
X12017811Y8254749D01*
X12020230Y8253133D01*
X12022343Y8251135D01*
X12032771Y8244582D01*
X12035490Y8243544D01*
X12037997Y8242065D01*
X12049622Y8237997D01*
X12052504Y8237590D01*
X12055277Y8236706D01*
X12067516Y8235328D01*
X12068977Y8235451D01*
X12070415Y8235165D01*
X13360414D01*
X13361852Y8235451D01*
X13363313Y8235328D01*
X13375552Y8236706D01*
X13378323Y8237590D01*
X13381206Y8237997D01*
X13392831Y8242065D01*
X13395338Y8243544D01*
X13398058Y8244582D01*
X13408485Y8251135D01*
X13410599Y8253133D01*
X13413017Y8254749D01*
X13421725Y8263457D01*
X13423343Y8265877D01*
X13425342Y8267991D01*
X13431895Y8278419D01*
X13432935Y8281139D01*
X13434413Y8283647D01*
X13438480Y8295272D01*
X13438885Y8298152D01*
X13439771Y8300925D01*
X13441148Y8313163D01*
X13441025Y8314624D01*
X13441312Y8316063D01*
X13441312Y9606063D01*
X13441025Y9607501D01*
X13441148Y9608961D01*
X13439771Y9621200D01*
X13438885Y9623973D01*
X13438480Y9626853D01*
X13434413Y9638478D01*
X13432935Y9640985D01*
X13431895Y9643706D01*
X13425342Y9654134D01*
X13423343Y9656248D01*
X13421727Y9658667D01*
X13413017Y9667376D01*
X13410599Y9668993D01*
X13408482Y9670992D01*
X13398055Y9677544D01*
X13395337Y9678582D01*
X13392831Y9680060D01*
X13381206Y9684128D01*
X13378323Y9684535D01*
X13375551Y9685419D01*
X13363313Y9686797D01*
X13361852Y9686674D01*
X13360413Y9686960D01*
D02*
G37*
G36*
X11455413D02*
X10165415D01*
X10163976Y9686674D01*
X10162516Y9686797D01*
X10150277Y9685419D01*
X10147504Y9684535D01*
X10144622Y9684128D01*
X10132997Y9680060D01*
X10130490Y9678581D01*
X10127771Y9677544D01*
X10117343Y9670990D01*
X10115229Y9668992D01*
X10112811Y9667376D01*
X10104102Y9658668D01*
X10102485Y9656248D01*
X10100486Y9654134D01*
X10093933Y9643706D01*
X10092894Y9640986D01*
X10091415Y9638478D01*
X10087348Y9626853D01*
X10086942Y9623973D01*
X10086058Y9621200D01*
X10084680Y9608962D01*
X10084803Y9607501D01*
X10084517Y9606063D01*
X10084517Y8316063D01*
X10084803Y8314624D01*
X10084680Y8313164D01*
X10086059Y8300925D01*
X10086942Y8298152D01*
X10087349Y8295272D01*
X10091416Y8283647D01*
X10092894Y8281140D01*
X10093933Y8278420D01*
X10100486Y8267991D01*
X10102485Y8265877D01*
X10104101Y8263458D01*
X10112810Y8254749D01*
X10115230Y8253132D01*
X10117345Y8251133D01*
X10127773Y8244581D01*
X10130491Y8243544D01*
X10132997Y8242065D01*
X10144622Y8237997D01*
X10147504Y8237590D01*
X10150277Y8236706D01*
X10162516Y8235328D01*
X10163977Y8235451D01*
X10165415Y8235165D01*
X11455414D01*
X11456852Y8235451D01*
X11458313Y8235328D01*
X11470552Y8236706D01*
X11473324Y8237590D01*
X11476206Y8237997D01*
X11487831Y8242065D01*
X11490338Y8243544D01*
X11493057Y8244582D01*
X11503485Y8251135D01*
X11505599Y8253133D01*
X11508017Y8254749D01*
X11516726Y8263457D01*
X11518343Y8265877D01*
X11520342Y8267991D01*
X11526895Y8278419D01*
X11527934Y8281139D01*
X11529413Y8283647D01*
X11533480Y8295272D01*
X11533886Y8298152D01*
X11534770Y8300925D01*
X11536149Y8313163D01*
X11536025Y8314624D01*
X11536311Y8316063D01*
X11536311Y9606063D01*
X11536025Y9607501D01*
X11536148Y9608961D01*
X11534770Y9621200D01*
X11533886Y9623973D01*
X11533480Y9626853D01*
X11529413Y9638478D01*
X11527934Y9640985D01*
X11526895Y9643706D01*
X11520342Y9654134D01*
X11518343Y9656248D01*
X11516727Y9658667D01*
X11508018Y9667376D01*
X11505598Y9668993D01*
X11503483Y9670992D01*
X11493055Y9677544D01*
X11490337Y9678582D01*
X11487831Y9680060D01*
X11476206Y9684128D01*
X11473324Y9684535D01*
X11470551Y9685419D01*
X11458313Y9686797D01*
X11456852Y9686674D01*
X11455413Y9686960D01*
D02*
G37*
G36*
X9074163D02*
X7784165D01*
X7782726Y9686674D01*
X7781266Y9686797D01*
X7769027Y9685419D01*
X7766254Y9684535D01*
X7763372Y9684128D01*
X7751747Y9680060D01*
X7749240Y9678581D01*
X7746521Y9677544D01*
X7736093Y9670990D01*
X7733979Y9668992D01*
X7731561Y9667376D01*
X7722852Y9658668D01*
X7721235Y9656248D01*
X7719236Y9654134D01*
X7712683Y9643706D01*
X7711644Y9640986D01*
X7710165Y9638478D01*
X7706098Y9626853D01*
X7705692Y9623973D01*
X7704808Y9621200D01*
X7703430Y9608962D01*
X7703553Y9607501D01*
X7703267Y9606063D01*
X7703267Y8316063D01*
X7703553Y8314624D01*
X7703430Y8313164D01*
X7704809Y8300925D01*
X7705692Y8298152D01*
X7706099Y8295272D01*
X7710166Y8283647D01*
X7711644Y8281140D01*
X7712683Y8278420D01*
X7719236Y8267991D01*
X7721235Y8265877D01*
X7722851Y8263458D01*
X7731560Y8254749D01*
X7733980Y8253132D01*
X7736095Y8251133D01*
X7746523Y8244581D01*
X7749241Y8243544D01*
X7751747Y8242065D01*
X7763372Y8237997D01*
X7766254Y8237590D01*
X7769027Y8236706D01*
X7781266Y8235328D01*
X7782727Y8235451D01*
X7784165Y8235165D01*
X9074164D01*
X9075602Y8235451D01*
X9077063Y8235328D01*
X9089302Y8236706D01*
X9092074Y8237590D01*
X9094956Y8237997D01*
X9106581Y8242065D01*
X9109088Y8243544D01*
X9111805Y8244581D01*
X9122234Y8251133D01*
X9124349Y8253132D01*
X9126768Y8254749D01*
X9135477Y8263458D01*
X9137094Y8265877D01*
X9139092Y8267991D01*
X9145645Y8278419D01*
X9146684Y8281139D01*
X9148163Y8283647D01*
X9152230Y8295272D01*
X9152636Y8298152D01*
X9153520Y8300925D01*
X9154899Y8313163D01*
X9154775Y8314624D01*
X9155061Y8316063D01*
X9155061Y9606063D01*
X9154775Y9607501D01*
X9154898Y9608961D01*
X9153520Y9621200D01*
X9152636Y9623973D01*
X9152230Y9626853D01*
X9148163Y9638478D01*
X9146684Y9640985D01*
X9145645Y9643706D01*
X9139092Y9654134D01*
X9137093Y9656248D01*
X9135476Y9658668D01*
X9126767Y9667376D01*
X9124348Y9668992D01*
X9122235Y9670990D01*
X9111807Y9677543D01*
X9109088Y9678581D01*
X9106581Y9680060D01*
X9094956Y9684128D01*
X9092074Y9684535D01*
X9089301Y9685419D01*
X9077063Y9686797D01*
X9075602Y9686674D01*
X9074163Y9686960D01*
D02*
G37*
G36*
X37172913Y7781962D02*
X35882916D01*
X35881476Y7781676D01*
X35880017Y7781800D01*
X35867776Y7780421D01*
X35865005Y7779537D01*
X35862122Y7779130D01*
X35850497Y7775062D01*
X35847992Y7773584D01*
X35845273Y7772546D01*
X35834845Y7765994D01*
X35832730Y7763995D01*
X35830310Y7762378D01*
X35821600Y7753669D01*
X35819986Y7751250D01*
X35817987Y7749136D01*
X35811432Y7738708D01*
X35810394Y7735989D01*
X35808917Y7733482D01*
X35804849Y7721857D01*
X35804440Y7718974D01*
X35803558Y7716200D01*
X35802179Y7703961D01*
X35802304Y7702502D01*
X35802017Y7701065D01*
Y6411065D01*
X35802304Y6409625D01*
X35802179Y6408163D01*
X35803561Y6395925D01*
X35804443Y6393155D01*
X35804849Y6390276D01*
X35808914Y6378651D01*
X35810394Y6376144D01*
X35811432Y6373422D01*
X35817987Y6362994D01*
X35819986Y6360879D01*
X35821603Y6358460D01*
X35830310Y6349751D01*
X35832730Y6348135D01*
X35834845Y6346136D01*
X35845273Y6339583D01*
X35847992Y6338546D01*
X35850497Y6337067D01*
X35862122Y6332999D01*
X35865005Y6332593D01*
X35867776Y6331709D01*
X35880014Y6330330D01*
X35881476Y6330453D01*
X35882916Y6330167D01*
X37172913Y6330167D01*
X37174353Y6330453D01*
X37175812Y6330330D01*
X37188052Y6331709D01*
X37190823Y6332593D01*
X37193707Y6333000D01*
X37205331Y6337068D01*
X37207837Y6338546D01*
X37210556Y6339584D01*
X37220984Y6346137D01*
X37223099Y6348135D01*
X37225519Y6349752D01*
X37234229Y6358460D01*
X37235843Y6360880D01*
X37237842Y6362994D01*
X37244394Y6373422D01*
X37245432Y6376140D01*
X37246912Y6378647D01*
X37250980Y6390272D01*
X37251389Y6393156D01*
X37252271Y6395930D01*
X37253650Y6408168D01*
X37253525Y6409628D01*
X37253812Y6411065D01*
Y7701065D01*
X37253525Y7702505D01*
X37253647Y7703967D01*
X37252271Y7716205D01*
X37251385Y7718974D01*
X37250980Y7721853D01*
X37246915Y7733479D01*
X37245435Y7735987D01*
X37244397Y7738708D01*
X37237842Y7749136D01*
X37235843Y7751250D01*
X37234229Y7753669D01*
X37225519Y7762378D01*
X37223099Y7763995D01*
X37220984Y7765994D01*
X37210556Y7772546D01*
X37207837Y7773584D01*
X37205331Y7775062D01*
X37193707Y7779130D01*
X37190823Y7779537D01*
X37188052Y7780421D01*
X37175812Y7781800D01*
X37174353Y7781676D01*
X37172913Y7781962D01*
D02*
G37*
G36*
X34077289D02*
X32787289D01*
X32785852Y7781676D01*
X32784390Y7781800D01*
X32772150Y7780421D01*
X32769379Y7779537D01*
X32766495Y7779130D01*
X32754871Y7775062D01*
X32752365Y7773583D01*
X32749646Y7772546D01*
X32739218Y7765992D01*
X32737103Y7763994D01*
X32734686Y7762378D01*
X32725977Y7753670D01*
X32724359Y7751248D01*
X32722357Y7749133D01*
X32715808Y7738705D01*
X32714771Y7735988D01*
X32713293Y7733482D01*
X32709225Y7721857D01*
X32708817Y7718976D01*
X32707935Y7716205D01*
X32706555Y7703966D01*
X32706677Y7702504D01*
X32706390Y7701065D01*
Y6411065D01*
X32706677Y6409625D01*
X32706555Y6408163D01*
X32707935Y6395925D01*
X32708817Y6393153D01*
X32709225Y6390272D01*
X32713293Y6378647D01*
X32714771Y6376140D01*
X32715808Y6373422D01*
X32722363Y6362993D01*
X32724359Y6360880D01*
X32725977Y6358462D01*
X32734683Y6349753D01*
X32737103Y6348135D01*
X32739221Y6346135D01*
X32749649Y6339582D01*
X32752368Y6338545D01*
X32754871Y6337068D01*
X32766495Y6333000D01*
X32769376Y6332592D01*
X32772150Y6331708D01*
X32784390Y6330330D01*
X32785852Y6330453D01*
X32787289Y6330167D01*
X34077289D01*
X34078729Y6330453D01*
X34080191Y6330330D01*
X34092429Y6331709D01*
X34095200Y6332593D01*
X34098080Y6332999D01*
X34109705Y6337067D01*
X34112213Y6338546D01*
X34114932Y6339583D01*
X34125360Y6346136D01*
X34127475Y6348135D01*
X34129895Y6349751D01*
X34138602Y6358460D01*
X34140222Y6360881D01*
X34142221Y6362997D01*
X34148773Y6373425D01*
X34149808Y6376142D01*
X34151285Y6378647D01*
X34155353Y6390272D01*
X34155762Y6393153D01*
X34156644Y6395925D01*
X34158023Y6408163D01*
X34157901Y6409625D01*
X34158188Y6411065D01*
Y7701065D01*
X34157901Y7702504D01*
X34158023Y7703966D01*
X34156644Y7716205D01*
X34155762Y7718976D01*
X34155353Y7721857D01*
X34151285Y7733482D01*
X34149808Y7735989D01*
X34148770Y7738708D01*
X34142215Y7749136D01*
X34140219Y7751249D01*
X34138602Y7753667D01*
X34129895Y7762376D01*
X34127475Y7763994D01*
X34125357Y7765995D01*
X34114926Y7772548D01*
X34112210Y7773584D01*
X34109708Y7775062D01*
X34098083Y7779130D01*
X34095200Y7779537D01*
X34092429Y7780421D01*
X34080188Y7781800D01*
X34078729Y7781676D01*
X34077289Y7781962D01*
D02*
G37*
G36*
X30981665D02*
X29691666D01*
X29690225Y7781676D01*
X29688763Y7781799D01*
X29676526Y7780420D01*
X29673755Y7779536D01*
X29670874Y7779130D01*
X29659250Y7775063D01*
X29656741Y7773584D01*
X29654022Y7772546D01*
X29643594Y7765992D01*
X29641479Y7763994D01*
X29639062Y7762378D01*
X29630353Y7753670D01*
X29628735Y7751250D01*
X29626736Y7749135D01*
X29620181Y7738706D01*
X29619144Y7735988D01*
X29617667Y7733482D01*
X29613599Y7721858D01*
X29613190Y7718974D01*
X29612308Y7716200D01*
X29610931Y7703961D01*
X29611053Y7702501D01*
X29610767Y7701064D01*
Y6411064D01*
X29611053Y6409625D01*
X29610931Y6408163D01*
X29612311Y6395924D01*
X29613193Y6393155D01*
X29613599Y6390275D01*
X29617664Y6378650D01*
X29619144Y6376143D01*
X29620184Y6373422D01*
X29626736Y6362993D01*
X29628735Y6360879D01*
X29630353Y6358459D01*
X29639062Y6349751D01*
X29641479Y6348134D01*
X29643594Y6346135D01*
X29654022Y6339583D01*
X29656741Y6338545D01*
X29659247Y6337066D01*
X29670874Y6332999D01*
X29673755Y6332592D01*
X29676526Y6331708D01*
X29688766Y6330329D01*
X29690225Y6330452D01*
X29691666Y6330166D01*
X30981665Y6330167D01*
X30983102Y6330453D01*
X30984564Y6330330D01*
X30996802Y6331708D01*
X30999573Y6332592D01*
X31002457Y6332999D01*
X31014081Y6337067D01*
X31016589Y6338546D01*
X31019305Y6339583D01*
X31029733Y6346136D01*
X31031848Y6348135D01*
X31034268Y6349751D01*
X31042978Y6358460D01*
X31044592Y6360879D01*
X31046591Y6362993D01*
X31053146Y6373421D01*
X31054184Y6376140D01*
X31055661Y6378647D01*
X31059729Y6390272D01*
X31060138Y6393156D01*
X31061020Y6395929D01*
X31062399Y6408168D01*
X31062277Y6409628D01*
X31062561Y6411065D01*
Y7701065D01*
X31062274Y7702504D01*
X31062399Y7703966D01*
X31061020Y7716205D01*
X31060135Y7718974D01*
X31059729Y7721853D01*
X31055664Y7733479D01*
X31054184Y7735987D01*
X31053146Y7738708D01*
X31046591Y7749136D01*
X31044592Y7751250D01*
X31042975Y7753670D01*
X31034268Y7762378D01*
X31031848Y7763994D01*
X31029736Y7765992D01*
X31019308Y7772545D01*
X31016589Y7773583D01*
X31014081Y7775062D01*
X31002457Y7779130D01*
X30999573Y7779537D01*
X30996802Y7780421D01*
X30984564Y7781800D01*
X30983102Y7781676D01*
X30981665Y7781962D01*
D02*
G37*
G36*
X29076663D02*
X27786664Y7781961D01*
X27785226Y7781675D01*
X27783765Y7781799D01*
X27771527Y7780420D01*
X27768753Y7779536D01*
X27765872Y7779129D01*
X27754248Y7775061D01*
X27751740Y7773583D01*
X27749023Y7772545D01*
X27738596Y7765993D01*
X27736481Y7763994D01*
X27734061Y7762377D01*
X27725351Y7753668D01*
X27723734Y7751249D01*
X27721735Y7749135D01*
X27715182Y7738707D01*
X27714145Y7735988D01*
X27712665Y7733481D01*
X27708597Y7721856D01*
X27708191Y7718973D01*
X27707306Y7716199D01*
X27705930Y7703961D01*
X27706052Y7702501D01*
X27705768Y7701064D01*
Y6411064D01*
X27706052Y6409625D01*
X27705930Y6408163D01*
X27707309Y6395924D01*
X27708194Y6393154D01*
X27708600Y6390275D01*
X27712665Y6378650D01*
X27714145Y6376142D01*
X27715182Y6373421D01*
X27721735Y6362993D01*
X27723734Y6360879D01*
X27725351Y6358459D01*
X27734061Y6349751D01*
X27736481Y6348134D01*
X27738593Y6346135D01*
X27749023Y6339583D01*
X27751740Y6338545D01*
X27754248Y6337067D01*
X27765872Y6332999D01*
X27768753Y6332592D01*
X27771527Y6331708D01*
X27783765Y6330329D01*
X27785226Y6330452D01*
X27786664Y6330166D01*
X29076663D01*
X29078101Y6330452D01*
X29079565Y6330329D01*
X29091803Y6331708D01*
X29094574Y6332592D01*
X29097455Y6332999D01*
X29109079Y6337066D01*
X29111588Y6338545D01*
X29114307Y6339583D01*
X29124734Y6346136D01*
X29126849Y6348134D01*
X29129269Y6349751D01*
X29137976Y6358459D01*
X29139594Y6360879D01*
X29141592Y6362993D01*
X29148145Y6373422D01*
X29149185Y6376140D01*
X29150662Y6378646D01*
X29154730Y6390271D01*
X29155136Y6393154D01*
X29156021Y6395929D01*
X29157401Y6408167D01*
X29157275Y6409627D01*
X29157562Y6411064D01*
Y7701064D01*
X29157275Y7702503D01*
X29157397Y7703965D01*
X29156018Y7716204D01*
X29155136Y7718974D01*
X29154730Y7721854D01*
X29150662Y7733478D01*
X29149185Y7735986D01*
X29148145Y7738706D01*
X29141592Y7749135D01*
X29139594Y7751250D01*
X29137976Y7753670D01*
X29129266Y7762378D01*
X29126849Y7763994D01*
X29124734Y7765992D01*
X29114307Y7772545D01*
X29111588Y7773584D01*
X29109079Y7775063D01*
X29097455Y7779130D01*
X29094574Y7779536D01*
X29091803Y7780420D01*
X29079565Y7781799D01*
X29078104Y7781676D01*
X29076663Y7781962D01*
D02*
G37*
G36*
X27171664Y7781961D02*
X25881665D01*
X25880225Y7781675D01*
X25878766Y7781799D01*
X25866525Y7780420D01*
X25863754Y7779536D01*
X25860870Y7779129D01*
X25849246Y7775061D01*
X25846741Y7773583D01*
X25844025Y7772546D01*
X25833594Y7765994D01*
X25831479Y7763994D01*
X25829059Y7762376D01*
X25820349Y7753667D01*
X25818735Y7751248D01*
X25816736Y7749135D01*
X25810184Y7738707D01*
X25809143Y7735987D01*
X25807666Y7733479D01*
X25803598Y7721854D01*
X25803192Y7718975D01*
X25802310Y7716204D01*
X25800928Y7703965D01*
X25801053Y7702503D01*
X25800766Y7701064D01*
X25800766Y6411064D01*
X25801053Y6409626D01*
X25800931Y6408165D01*
X25802310Y6395926D01*
X25803192Y6393154D01*
X25803598Y6390271D01*
X25807666Y6378646D01*
X25809146Y6376140D01*
X25810184Y6373422D01*
X25816736Y6362994D01*
X25818735Y6360879D01*
X25820352Y6358459D01*
X25829062Y6349751D01*
X25831479Y6348134D01*
X25833594Y6346135D01*
X25844022Y6339583D01*
X25846741Y6338545D01*
X25849246Y6337067D01*
X25860873Y6332999D01*
X25863754Y6332592D01*
X25866528Y6331708D01*
X25878766Y6330329D01*
X25880228Y6330452D01*
X25881665Y6330166D01*
X27171664D01*
X27173102Y6330452D01*
X27174564Y6330329D01*
X27186801Y6331708D01*
X27189575Y6332592D01*
X27192456Y6332999D01*
X27204080Y6337067D01*
X27206589Y6338545D01*
X27209305Y6339583D01*
X27219733Y6346136D01*
X27221848Y6348134D01*
X27224268Y6349751D01*
X27232977Y6358459D01*
X27234592Y6360879D01*
X27236591Y6362993D01*
X27243146Y6373421D01*
X27244183Y6376139D01*
X27245663Y6378646D01*
X27249731Y6390271D01*
X27250137Y6393155D01*
X27251022Y6395929D01*
X27252399Y6408167D01*
X27252277Y6409627D01*
X27252560Y6411064D01*
Y7701064D01*
X27252274Y7702504D01*
X27252399Y7703966D01*
X27251019Y7716204D01*
X27250137Y7718973D01*
X27249731Y7721852D01*
X27245663Y7733478D01*
X27244183Y7735986D01*
X27243146Y7738707D01*
X27236591Y7749135D01*
X27234595Y7751249D01*
X27232977Y7753668D01*
X27224268Y7762377D01*
X27221848Y7763994D01*
X27219733Y7765993D01*
X27209305Y7772545D01*
X27206589Y7773583D01*
X27204080Y7775061D01*
X27192456Y7779129D01*
X27189575Y7779536D01*
X27186801Y7780420D01*
X27174564Y7781799D01*
X27173102Y7781675D01*
X27171664Y7781961D01*
D02*
G37*
G36*
X25266664D02*
X23976665D01*
X23975226Y7781675D01*
X23973766Y7781799D01*
X23961526Y7780420D01*
X23958752Y7779536D01*
X23955872Y7779129D01*
X23944246Y7775061D01*
X23941740Y7773583D01*
X23939024Y7772546D01*
X23928595Y7765994D01*
X23926479Y7763994D01*
X23924059Y7762376D01*
X23915350Y7753667D01*
X23913734Y7751248D01*
X23911736Y7749135D01*
X23905183Y7738707D01*
X23904144Y7735987D01*
X23902666Y7733479D01*
X23898599Y7721854D01*
X23898192Y7718975D01*
X23897308Y7716204D01*
X23895929Y7703965D01*
X23896053Y7702503D01*
X23895766Y7701064D01*
X23895767Y6411064D01*
X23896053Y6409625D01*
X23895930Y6408165D01*
X23897308Y6395926D01*
X23898192Y6393152D01*
X23898599Y6390271D01*
X23902667Y6378646D01*
X23904144Y6376140D01*
X23905183Y6373423D01*
X23911736Y6362994D01*
X23913734Y6360880D01*
X23915352Y6358459D01*
X23924062Y6349750D01*
X23926480Y6348134D01*
X23928593Y6346135D01*
X23939021Y6339582D01*
X23941740Y6338545D01*
X23944247Y6337066D01*
X23955873Y6332998D01*
X23958754Y6332592D01*
X23961526Y6331708D01*
X23973766Y6330329D01*
X23975226Y6330452D01*
X23976665Y6330166D01*
X25266666Y6330166D01*
X25268103Y6330452D01*
X25269563Y6330329D01*
X25281802Y6331708D01*
X25284576Y6332592D01*
X25287457Y6332999D01*
X25299081Y6337067D01*
X25301588Y6338545D01*
X25304305Y6339582D01*
X25314734Y6346135D01*
X25316850Y6348134D01*
X25319270Y6349752D01*
X25327979Y6358460D01*
X25329594Y6360879D01*
X25331592Y6362993D01*
X25338145Y6373421D01*
X25339185Y6376141D01*
X25340663Y6378648D01*
X25344730Y6390273D01*
X25345135Y6393153D01*
X25346021Y6395924D01*
X25347398Y6408163D01*
X25347276Y6409625D01*
X25347562Y6411064D01*
X25347562Y7701064D01*
X25347275Y7702502D01*
X25347398Y7703963D01*
X25346021Y7716201D01*
X25345135Y7718974D01*
X25344730Y7721856D01*
X25340662Y7733481D01*
X25339183Y7735988D01*
X25338145Y7738705D01*
X25331593Y7749134D01*
X25329594Y7751248D01*
X25327977Y7753668D01*
X25319267Y7762377D01*
X25316849Y7763994D01*
X25314732Y7765993D01*
X25304305Y7772545D01*
X25301588Y7773583D01*
X25299081Y7775061D01*
X25287456Y7779129D01*
X25284573Y7779536D01*
X25281802Y7780420D01*
X25269563Y7781799D01*
X25268102Y7781675D01*
X25266664Y7781961D01*
D02*
G37*
G36*
X23361664D02*
X22071664D01*
X22070226Y7781675D01*
X22068765Y7781799D01*
X22056526Y7780420D01*
X22053754Y7779536D01*
X22050871Y7779129D01*
X22039246Y7775061D01*
X22036740Y7773583D01*
X22034023Y7772545D01*
X22023593Y7765992D01*
X22021478Y7763993D01*
X22019060Y7762376D01*
X22010352Y7753668D01*
X22008736Y7751249D01*
X22006737Y7749135D01*
X22000183Y7738707D01*
X21999144Y7735987D01*
X21997665Y7733479D01*
X21993599Y7721854D01*
X21993192Y7718975D01*
X21992310Y7716204D01*
X21990929Y7703965D01*
X21991052Y7702503D01*
X21990765Y7701064D01*
X21990767Y6411064D01*
X21991052Y6409625D01*
X21990930Y6408165D01*
X21992310Y6395926D01*
X21993192Y6393153D01*
X21993599Y6390271D01*
X21997667Y6378646D01*
X21999146Y6376139D01*
X22000183Y6373422D01*
X22006735Y6362994D01*
X22008736Y6360879D01*
X22010352Y6358459D01*
X22019061Y6349750D01*
X22021480Y6348134D01*
X22023595Y6346135D01*
X22034023Y6339582D01*
X22036740Y6338545D01*
X22039247Y6337066D01*
X22050871Y6332998D01*
X22053754Y6332591D01*
X22056528Y6331707D01*
X22068765Y6330329D01*
X22070227Y6330452D01*
X22071664Y6330166D01*
X23361665D01*
X23363103Y6330452D01*
X23364565Y6330329D01*
X23376804Y6331708D01*
X23379576Y6332592D01*
X23382457Y6332999D01*
X23394081Y6337066D01*
X23396587Y6338544D01*
X23399306Y6339582D01*
X23409734Y6346134D01*
X23411850Y6348134D01*
X23414270Y6349751D01*
X23422978Y6358460D01*
X23424594Y6360878D01*
X23426593Y6362993D01*
X23433147Y6373421D01*
X23434184Y6376141D01*
X23435663Y6378648D01*
X23439729Y6390272D01*
X23440137Y6393153D01*
X23441020Y6395924D01*
X23442400Y6408162D01*
X23442276Y6409624D01*
X23442561Y6411064D01*
X23442561Y7701064D01*
X23442274Y7702502D01*
X23442400Y7703962D01*
X23441020Y7716201D01*
X23440137Y7718974D01*
X23439729Y7721856D01*
X23435661Y7733481D01*
X23434183Y7735988D01*
X23433145Y7738705D01*
X23426593Y7749134D01*
X23424594Y7751248D01*
X23422977Y7753668D01*
X23414268Y7762377D01*
X23411848Y7763994D01*
X23409734Y7765993D01*
X23399306Y7772545D01*
X23396588Y7773583D01*
X23394081Y7775061D01*
X23382455Y7779129D01*
X23379575Y7779536D01*
X23376802Y7780420D01*
X23364563Y7781799D01*
X23363103Y7781675D01*
X23361664Y7781961D01*
D02*
G37*
G36*
X21456664D02*
X20166664D01*
X20165227Y7781675D01*
X20163765Y7781799D01*
X20151526Y7780420D01*
X20148753Y7779536D01*
X20145871Y7779129D01*
X20134245Y7775061D01*
X20131740Y7773583D01*
X20129022Y7772545D01*
X20118593Y7765992D01*
X20116479Y7763993D01*
X20114059Y7762376D01*
X20105351Y7753668D01*
X20103735Y7751249D01*
X20101736Y7749135D01*
X20095183Y7738707D01*
X20094144Y7735987D01*
X20092667Y7733479D01*
X20088599Y7721854D01*
X20088193Y7718975D01*
X20087309Y7716204D01*
X20085928Y7703965D01*
X20086052Y7702503D01*
X20085767Y7701064D01*
X20085767Y6411064D01*
X20086053Y6409625D01*
X20085930Y6408165D01*
X20087309Y6395926D01*
X20088193Y6393153D01*
X20088599Y6390271D01*
X20092667Y6378646D01*
X20094147Y6376139D01*
X20095183Y6373422D01*
X20101735Y6362994D01*
X20103735Y6360879D01*
X20105351Y6358459D01*
X20114061Y6349750D01*
X20116479Y6348134D01*
X20118594Y6346135D01*
X20129022Y6339582D01*
X20131740Y6338545D01*
X20134247Y6337066D01*
X20145872Y6332998D01*
X20148753Y6332591D01*
X20151527Y6331707D01*
X20163766Y6330329D01*
X20165227Y6330452D01*
X20166666Y6330166D01*
X21456665D01*
X21458102Y6330452D01*
X21459564Y6330329D01*
X21471803Y6331707D01*
X21474576Y6332591D01*
X21477458Y6332998D01*
X21489082Y6337066D01*
X21491588Y6338545D01*
X21494305Y6339582D01*
X21504733Y6346134D01*
X21506850Y6348134D01*
X21509270Y6349751D01*
X21517978Y6358460D01*
X21519594Y6360879D01*
X21521593Y6362992D01*
X21528145Y6373420D01*
X21529184Y6376140D01*
X21530663Y6378648D01*
X21534731Y6390273D01*
X21535136Y6393152D01*
X21536020Y6395924D01*
X21537399Y6408162D01*
X21537276Y6409624D01*
X21537563Y6411064D01*
X21537561Y7701064D01*
X21537276Y7702502D01*
X21537399Y7703962D01*
X21536020Y7716201D01*
X21535136Y7718974D01*
X21534729Y7721856D01*
X21530661Y7733481D01*
X21529182Y7735988D01*
X21528145Y7738705D01*
X21521593Y7749134D01*
X21519592Y7751249D01*
X21517976Y7753669D01*
X21509267Y7762377D01*
X21506850Y7763993D01*
X21504735Y7765991D01*
X21494307Y7772544D01*
X21491588Y7773582D01*
X21489081Y7775061D01*
X21477457Y7779129D01*
X21474574Y7779536D01*
X21471802Y7780420D01*
X21459563Y7781799D01*
X21458102Y7781675D01*
X21456664Y7781961D01*
D02*
G37*
G36*
X19551665D02*
X18261664D01*
X18260225Y7781675D01*
X18258763Y7781798D01*
X18246524Y7780419D01*
X18243752Y7779535D01*
X18240872Y7779128D01*
X18229248Y7775061D01*
X18226743Y7773583D01*
X18224022Y7772545D01*
X18213593Y7765992D01*
X18211479Y7763993D01*
X18209059Y7762376D01*
X18200351Y7753668D01*
X18198734Y7751248D01*
X18196736Y7749134D01*
X18190182Y7738705D01*
X18189143Y7735986D01*
X18187666Y7733479D01*
X18183598Y7721855D01*
X18183192Y7718974D01*
X18182309Y7716203D01*
X18180930Y7703964D01*
X18181052Y7702502D01*
X18180766Y7701063D01*
X18180766Y6411063D01*
X18181053Y6409625D01*
X18180930Y6408164D01*
X18182309Y6395925D01*
X18183192Y6393152D01*
X18183598Y6390270D01*
X18187666Y6378646D01*
X18189145Y6376140D01*
X18190182Y6373422D01*
X18196735Y6362994D01*
X18198734Y6360879D01*
X18200352Y6358458D01*
X18209061Y6349750D01*
X18211481Y6348133D01*
X18213594Y6346134D01*
X18224022Y6339582D01*
X18226741Y6338544D01*
X18229248Y6337065D01*
X18240874Y6332998D01*
X18243755Y6332591D01*
X18246526Y6331707D01*
X18258765Y6330328D01*
X18260226Y6330451D01*
X18261665Y6330165D01*
X19551665Y6330166D01*
X19553104Y6330452D01*
X19554564Y6330329D01*
X19566803Y6331707D01*
X19569576Y6332591D01*
X19572458Y6332998D01*
X19584082Y6337066D01*
X19586588Y6338545D01*
X19589305Y6339582D01*
X19599734Y6346134D01*
X19601849Y6348134D01*
X19604269Y6349751D01*
X19612978Y6358460D01*
X19614594Y6360879D01*
X19616592Y6362992D01*
X19623145Y6373420D01*
X19624184Y6376140D01*
X19625664Y6378648D01*
X19629730Y6390273D01*
X19630136Y6393152D01*
X19631020Y6395924D01*
X19632399Y6408162D01*
X19632275Y6409624D01*
X19632562Y6411064D01*
X19632561Y7701064D01*
X19632275Y7702502D01*
X19632399Y7703962D01*
X19631020Y7716201D01*
X19630136Y7718974D01*
X19629729Y7721856D01*
X19625661Y7733481D01*
X19624184Y7735988D01*
X19623145Y7738705D01*
X19616592Y7749134D01*
X19614594Y7751249D01*
X19612976Y7753669D01*
X19604266Y7762377D01*
X19601849Y7763993D01*
X19599734Y7765991D01*
X19589307Y7772544D01*
X19586588Y7773582D01*
X19584081Y7775061D01*
X19572456Y7779129D01*
X19569574Y7779536D01*
X19566801Y7780420D01*
X19554562Y7781799D01*
X19553102Y7781675D01*
X19551665Y7781961D01*
D02*
G37*
G36*
X17646664D02*
X16356664Y7781960D01*
X16355226Y7781674D01*
X16353764Y7781797D01*
X16341525Y7780419D01*
X16338753Y7779535D01*
X16335870Y7779128D01*
X16324248Y7775060D01*
X16321741Y7773582D01*
X16319023Y7772545D01*
X16308595Y7765992D01*
X16306480Y7763993D01*
X16304059Y7762376D01*
X16295351Y7753666D01*
X16293735Y7751247D01*
X16291736Y7749133D01*
X16285184Y7738705D01*
X16284145Y7735986D01*
X16282666Y7733479D01*
X16278600Y7721854D01*
X16278192Y7718974D01*
X16277309Y7716201D01*
X16275929Y7703963D01*
X16276053Y7702501D01*
X16275768Y7701063D01*
Y6411063D01*
X16276053Y6409625D01*
X16275929Y6408163D01*
X16277309Y6395924D01*
X16278192Y6393152D01*
X16278600Y6390271D01*
X16282666Y6378646D01*
X16284145Y6376139D01*
X16285184Y6373421D01*
X16291736Y6362992D01*
X16293735Y6360878D01*
X16295351Y6358459D01*
X16304060Y6349750D01*
X16306479Y6348134D01*
X16308594Y6346134D01*
X16319023Y6339581D01*
X16321741Y6338544D01*
X16324246Y6337066D01*
X16335870Y6332998D01*
X16338753Y6332591D01*
X16341525Y6331707D01*
X16353764Y6330328D01*
X16355226Y6330451D01*
X16356664Y6330165D01*
X17646664D01*
X17648103Y6330451D01*
X17649564Y6330328D01*
X17661803Y6331707D01*
X17664575Y6332591D01*
X17667456Y6332998D01*
X17679082Y6337065D01*
X17681589Y6338544D01*
X17684306Y6339582D01*
X17694734Y6346134D01*
X17696849Y6348134D01*
X17699269Y6349750D01*
X17707977Y6358459D01*
X17709595Y6360878D01*
X17711594Y6362993D01*
X17718146Y6373422D01*
X17719183Y6376141D01*
X17720662Y6378646D01*
X17724730Y6390271D01*
X17725137Y6393152D01*
X17726019Y6395924D01*
X17727399Y6408163D01*
X17727277Y6409625D01*
X17727562Y6411063D01*
Y7701063D01*
X17727277Y7702501D01*
X17727399Y7703963D01*
X17726019Y7716202D01*
X17725136Y7718975D01*
X17724728Y7721856D01*
X17720662Y7733480D01*
X17719183Y7735986D01*
X17718146Y7738704D01*
X17711594Y7749133D01*
X17709595Y7751248D01*
X17707977Y7753669D01*
X17699268Y7762377D01*
X17696851Y7763993D01*
X17694736Y7765992D01*
X17684306Y7772545D01*
X17681587Y7773583D01*
X17679080Y7775062D01*
X17667455Y7779129D01*
X17664575Y7779535D01*
X17661804Y7780419D01*
X17649565Y7781798D01*
X17648103Y7781675D01*
X17646664Y7781961D01*
D02*
G37*
G36*
X15741664Y7781960D02*
X14451665D01*
X14450226Y7781674D01*
X14448766Y7781797D01*
X14436526Y7780419D01*
X14433752Y7779535D01*
X14430872Y7779128D01*
X14419247Y7775060D01*
X14416740Y7773582D01*
X14414023Y7772545D01*
X14403595Y7765992D01*
X14401480Y7763993D01*
X14399059Y7762376D01*
X14390350Y7753666D01*
X14388734Y7751247D01*
X14386736Y7749133D01*
X14380183Y7738705D01*
X14379144Y7735986D01*
X14377666Y7733479D01*
X14373599Y7721854D01*
X14373192Y7718974D01*
X14372308Y7716201D01*
X14370929Y7703963D01*
X14371053Y7702501D01*
X14370767Y7701063D01*
Y6411063D01*
X14371053Y6409625D01*
X14370929Y6408163D01*
X14372308Y6395924D01*
X14373192Y6393152D01*
X14373599Y6390271D01*
X14377666Y6378646D01*
X14379144Y6376139D01*
X14380183Y6373421D01*
X14386736Y6362992D01*
X14388734Y6360878D01*
X14390350Y6358459D01*
X14399060Y6349750D01*
X14401479Y6348134D01*
X14403593Y6346134D01*
X14414023Y6339581D01*
X14416740Y6338544D01*
X14419246Y6337066D01*
X14430872Y6332998D01*
X14433752Y6332591D01*
X14436526Y6331707D01*
X14448766Y6330328D01*
X14450226Y6330451D01*
X14451665Y6330165D01*
X15741664D01*
X15743102Y6330451D01*
X15744563Y6330328D01*
X15756802Y6331707D01*
X15759576Y6332591D01*
X15762457Y6332998D01*
X15774081Y6337066D01*
X15776588Y6338544D01*
X15779306Y6339582D01*
X15789734Y6346134D01*
X15791849Y6348134D01*
X15794269Y6349750D01*
X15802977Y6358459D01*
X15804594Y6360878D01*
X15806593Y6362993D01*
X15813145Y6373421D01*
X15814183Y6376139D01*
X15815662Y6378646D01*
X15819730Y6390271D01*
X15820135Y6393152D01*
X15821021Y6395924D01*
X15822398Y6408163D01*
X15822276Y6409625D01*
X15822562Y6411063D01*
Y7701063D01*
X15822276Y7702501D01*
X15822398Y7703963D01*
X15821021Y7716201D01*
X15820135Y7718974D01*
X15819730Y7721854D01*
X15815662Y7733479D01*
X15814183Y7735986D01*
X15813145Y7738705D01*
X15806593Y7749133D01*
X15804594Y7751247D01*
X15802979Y7753666D01*
X15794269Y7762376D01*
X15791849Y7763993D01*
X15789734Y7765993D01*
X15779305Y7772545D01*
X15776588Y7773582D01*
X15774081Y7775060D01*
X15762457Y7779128D01*
X15759576Y7779535D01*
X15756802Y7780419D01*
X15744563Y7781797D01*
X15743102Y7781674D01*
X15741664Y7781960D01*
D02*
G37*
G36*
X13836664D02*
X12546665D01*
X12545227Y7781674D01*
X12543766Y7781797D01*
X12531527Y7780419D01*
X12528754Y7779535D01*
X12525872Y7779128D01*
X12514247Y7775060D01*
X12511741Y7773582D01*
X12509023Y7772544D01*
X12498595Y7765992D01*
X12496480Y7763993D01*
X12494060Y7762376D01*
X12485351Y7753667D01*
X12483735Y7751248D01*
X12481736Y7749134D01*
X12475183Y7738706D01*
X12474144Y7735986D01*
X12472666Y7733478D01*
X12468599Y7721853D01*
X12468192Y7718973D01*
X12467309Y7716200D01*
X12465930Y7703962D01*
X12466053Y7702501D01*
X12465767Y7701063D01*
Y6411063D01*
X12466053Y6409624D01*
X12465930Y6408164D01*
X12467309Y6395925D01*
X12468192Y6393153D01*
X12468599Y6390271D01*
X12472666Y6378647D01*
X12474144Y6376140D01*
X12475183Y6373420D01*
X12481736Y6362992D01*
X12483735Y6360877D01*
X12485352Y6358458D01*
X12494061Y6349749D01*
X12496480Y6348133D01*
X12498594Y6346134D01*
X12509022Y6339581D01*
X12511741Y6338544D01*
X12514248Y6337065D01*
X12525873Y6332997D01*
X12528754Y6332591D01*
X12531526Y6331707D01*
X12543765Y6330328D01*
X12545226Y6330451D01*
X12546665Y6330165D01*
X13836664Y6330165D01*
X13838103Y6330451D01*
X13839563Y6330328D01*
X13851802Y6331707D01*
X13854576Y6332591D01*
X13857457Y6332998D01*
X13869083Y6337066D01*
X13871588Y6338544D01*
X13874306Y6339582D01*
X13884734Y6346134D01*
X13886848Y6348134D01*
X13889268Y6349750D01*
X13897977Y6358459D01*
X13899594Y6360878D01*
X13901593Y6362993D01*
X13908145Y6373421D01*
X13909183Y6376139D01*
X13910661Y6378646D01*
X13914729Y6390271D01*
X13915137Y6393152D01*
X13916020Y6395924D01*
X13917400Y6408163D01*
X13917276Y6409625D01*
X13917561Y6411063D01*
Y7701063D01*
X13917276Y7702501D01*
X13917400Y7703963D01*
X13916020Y7716201D01*
X13915137Y7718974D01*
X13914729Y7721854D01*
X13910661Y7733479D01*
X13909183Y7735986D01*
X13908145Y7738705D01*
X13901593Y7749133D01*
X13899594Y7751247D01*
X13897978Y7753666D01*
X13889268Y7762376D01*
X13886848Y7763993D01*
X13884734Y7765993D01*
X13874306Y7772545D01*
X13871588Y7773582D01*
X13869083Y7775060D01*
X13857457Y7779128D01*
X13854576Y7779535D01*
X13851802Y7780419D01*
X13839563Y7781797D01*
X13838103Y7781674D01*
X13836664Y7781960D01*
D02*
G37*
G36*
X11931664D02*
X10641665D01*
X10640227Y7781674D01*
X10638766Y7781797D01*
X10626527Y7780419D01*
X10623754Y7779535D01*
X10620872Y7779128D01*
X10609247Y7775060D01*
X10606740Y7773581D01*
X10604022Y7772544D01*
X10593593Y7765990D01*
X10591480Y7763992D01*
X10589061Y7762376D01*
X10580352Y7753668D01*
X10578735Y7751248D01*
X10576736Y7749134D01*
X10570183Y7738706D01*
X10569144Y7735986D01*
X10567666Y7733478D01*
X10563599Y7721853D01*
X10563192Y7718973D01*
X10562309Y7716200D01*
X10560930Y7703962D01*
X10561053Y7702501D01*
X10560767Y7701063D01*
Y6411063D01*
X10561053Y6409624D01*
X10560930Y6408164D01*
X10562309Y6395925D01*
X10563192Y6393152D01*
X10563599Y6390272D01*
X10567666Y6378647D01*
X10569144Y6376140D01*
X10570183Y6373420D01*
X10576736Y6362991D01*
X10578735Y6360877D01*
X10580352Y6358458D01*
X10589061Y6349749D01*
X10591480Y6348133D01*
X10593594Y6346134D01*
X10604022Y6339581D01*
X10606741Y6338544D01*
X10609248Y6337065D01*
X10620873Y6332997D01*
X10623754Y6332591D01*
X10626526Y6331707D01*
X10638765Y6330328D01*
X10640226Y6330451D01*
X10641665Y6330165D01*
X11931664D01*
X11933102Y6330451D01*
X11934564Y6330328D01*
X11946803Y6331707D01*
X11949575Y6332591D01*
X11952455Y6332997D01*
X11964080Y6337065D01*
X11966587Y6338544D01*
X11969306Y6339581D01*
X11979734Y6346134D01*
X11981849Y6348133D01*
X11984268Y6349749D01*
X11992977Y6358458D01*
X11994593Y6360877D01*
X11996593Y6362992D01*
X12003146Y6373420D01*
X12004184Y6376140D01*
X12005663Y6378647D01*
X12009730Y6390271D01*
X12010137Y6393153D01*
X12011020Y6395925D01*
X12012399Y6408163D01*
X12012275Y6409624D01*
X12012561Y6411063D01*
Y7701063D01*
X12012275Y7702501D01*
X12012399Y7703961D01*
X12011020Y7716200D01*
X12010136Y7718973D01*
X12009730Y7721853D01*
X12005663Y7733478D01*
X12004184Y7735985D01*
X12003146Y7738706D01*
X11996592Y7749134D01*
X11994594Y7751248D01*
X11992977Y7753667D01*
X11984268Y7762376D01*
X11981848Y7763993D01*
X11979733Y7765992D01*
X11969306Y7772544D01*
X11966588Y7773582D01*
X11964081Y7775060D01*
X11952456Y7779128D01*
X11949574Y7779535D01*
X11946802Y7780419D01*
X11934563Y7781797D01*
X11933102Y7781674D01*
X11931664Y7781960D01*
D02*
G37*
G36*
X9312290D02*
X7546039D01*
X7544600Y7781674D01*
X7543138Y7781797D01*
X7530899Y7780418D01*
X7528127Y7779534D01*
X7525247Y7779127D01*
X7513623Y7775060D01*
X7511117Y7773582D01*
X7508397Y7772544D01*
X7497968Y7765991D01*
X7495854Y7763992D01*
X7493434Y7762375D01*
X7484726Y7753667D01*
X7483109Y7751247D01*
X7481109Y7749132D01*
X7474557Y7738702D01*
X7473520Y7735985D01*
X7472042Y7733480D01*
X7467974Y7721856D01*
X7467567Y7718974D01*
X7466684Y7716202D01*
X7465304Y7703963D01*
X7465427Y7702501D01*
X7465141Y7701062D01*
Y6411062D01*
X7465427Y6409623D01*
X7465304Y6408161D01*
X7466684Y6395922D01*
X7467567Y6393150D01*
X7467974Y6390269D01*
X7472042Y6378645D01*
X7473520Y6376139D01*
X7474558Y6373421D01*
X7481110Y6362993D01*
X7483108Y6360879D01*
X7484726Y6358458D01*
X7493434Y6349750D01*
X7495854Y6348132D01*
X7497969Y6346133D01*
X7508398Y6339580D01*
X7511117Y6338543D01*
X7513622Y6337065D01*
X7525246Y6332997D01*
X7528127Y6332590D01*
X7530900Y6331706D01*
X7543139Y6330327D01*
X7544600Y6330450D01*
X7546039Y6330164D01*
X9312290Y6330165D01*
X9313728Y6330451D01*
X9315189Y6330328D01*
X9327428Y6331706D01*
X9330201Y6332590D01*
X9333083Y6332997D01*
X9344707Y6337065D01*
X9347213Y6338544D01*
X9349930Y6339581D01*
X9360359Y6346133D01*
X9362475Y6348133D01*
X9364895Y6349750D01*
X9373603Y6358459D01*
X9375219Y6360878D01*
X9377218Y6362993D01*
X9383770Y6373421D01*
X9384808Y6376139D01*
X9386286Y6378645D01*
X9390354Y6390270D01*
X9390761Y6393151D01*
X9391645Y6395923D01*
X9393024Y6408161D01*
X9392901Y6409623D01*
X9393187Y6411063D01*
Y7701063D01*
X9392901Y7702502D01*
X9393024Y7703964D01*
X9391645Y7716202D01*
X9390761Y7718974D01*
X9390354Y7721855D01*
X9386286Y7733480D01*
X9384808Y7735987D01*
X9383770Y7738704D01*
X9377218Y7749133D01*
X9375219Y7751247D01*
X9373602Y7753667D01*
X9364894Y7762375D01*
X9362475Y7763992D01*
X9360360Y7765991D01*
X9349931Y7772544D01*
X9347213Y7773581D01*
X9344707Y7775060D01*
X9333083Y7779128D01*
X9330201Y7779535D01*
X9327428Y7780419D01*
X9315189Y7781797D01*
X9313728Y7781674D01*
X9312290Y7781960D01*
D02*
G37*
G36*
X34880414Y7681963D02*
X34365414D01*
X34363974Y7681677D01*
X34362512Y7681800D01*
X34339148Y7679167D01*
X34336377Y7678283D01*
X34333496Y7677876D01*
X34311304Y7670111D01*
X34308795Y7668632D01*
X34306076Y7667594D01*
X34286169Y7655085D01*
X34284055Y7653086D01*
X34281635Y7651470D01*
X34265009Y7634844D01*
X34263394Y7632425D01*
X34261395Y7630311D01*
X34248883Y7610402D01*
X34247845Y7607682D01*
X34246368Y7605175D01*
X34238602Y7582982D01*
X34238196Y7580102D01*
X34237311Y7577330D01*
X34234680Y7553966D01*
X34234802Y7552504D01*
X34234515Y7551065D01*
X34234518Y6261065D01*
X34234805Y6259628D01*
X34234680Y6258167D01*
X34237311Y6234802D01*
X34238196Y6232028D01*
X34238602Y6229146D01*
X34246368Y6206953D01*
X34247849Y6204447D01*
X34248886Y6201729D01*
X34261395Y6181821D01*
X34263394Y6179706D01*
X34265009Y6177286D01*
X34281635Y6160660D01*
X34284055Y6159043D01*
X34286169Y6157044D01*
X34306079Y6144535D01*
X34308798Y6143497D01*
X34311304Y6142019D01*
X34333496Y6134253D01*
X34336377Y6133846D01*
X34339151Y6132963D01*
X34362515Y6130330D01*
X34363977Y6130453D01*
X34365414Y6130167D01*
X34880414D01*
X34881854Y6130453D01*
X34883316Y6130330D01*
X34906680Y6132963D01*
X34909451Y6133846D01*
X34912332Y6134253D01*
X34934525Y6142019D01*
X34937033Y6143498D01*
X34939752Y6144536D01*
X34959659Y6157045D01*
X34961774Y6159044D01*
X34964194Y6160660D01*
X34980820Y6177286D01*
X34982434Y6179705D01*
X34984433Y6181819D01*
X34996945Y6201727D01*
X34997983Y6204448D01*
X34999463Y6206955D01*
X35007227Y6229148D01*
X35007632Y6232027D01*
X35008517Y6234800D01*
X35011148Y6258164D01*
X35011026Y6259626D01*
X35011313Y6261065D01*
X35011310Y7551065D01*
X35011023Y7552503D01*
X35011148Y7553963D01*
X35008517Y7577328D01*
X35007632Y7580101D01*
X35007224Y7582984D01*
X34999460Y7605176D01*
X34997980Y7607682D01*
X34996942Y7610400D01*
X34984433Y7630309D01*
X34982437Y7632423D01*
X34980820Y7634844D01*
X34964194Y7651470D01*
X34961774Y7653087D01*
X34959659Y7655086D01*
X34939749Y7667595D01*
X34937030Y7668633D01*
X34934525Y7670111D01*
X34912332Y7677876D01*
X34909451Y7678283D01*
X34906680Y7679167D01*
X34883313Y7681800D01*
X34881851Y7681677D01*
X34880414Y7681963D01*
D02*
G37*
G36*
X32499164Y7681962D02*
X31984164D01*
X31982724Y7681676D01*
X31981262Y7681799D01*
X31957901Y7679167D01*
X31955127Y7678283D01*
X31952246Y7677876D01*
X31930051Y7670110D01*
X31927545Y7668632D01*
X31924826Y7667594D01*
X31904919Y7655085D01*
X31902805Y7653085D01*
X31900385Y7651469D01*
X31883759Y7634843D01*
X31882144Y7632424D01*
X31880145Y7630311D01*
X31867633Y7610402D01*
X31866595Y7607682D01*
X31865118Y7605175D01*
X31857352Y7582982D01*
X31856946Y7580102D01*
X31856061Y7577330D01*
X31853430Y7553965D01*
X31853552Y7552504D01*
X31853265Y7551064D01*
X31853268Y6261064D01*
X31853555Y6259626D01*
X31853430Y6258166D01*
X31856061Y6234802D01*
X31856946Y6232029D01*
X31857352Y6229146D01*
X31865118Y6206953D01*
X31866599Y6204446D01*
X31867636Y6201729D01*
X31880145Y6181820D01*
X31882144Y6179705D01*
X31883759Y6177286D01*
X31900385Y6160660D01*
X31902805Y6159043D01*
X31904919Y6157044D01*
X31924829Y6144534D01*
X31927548Y6143497D01*
X31930054Y6142018D01*
X31952246Y6134253D01*
X31955127Y6133846D01*
X31957901Y6132962D01*
X31981265Y6130330D01*
X31982727Y6130453D01*
X31984164Y6130167D01*
X32499164D01*
X32500604Y6130453D01*
X32502066Y6130330D01*
X32525430Y6132962D01*
X32528201Y6133845D01*
X32531082Y6134252D01*
X32553275Y6142018D01*
X32555783Y6143497D01*
X32558502Y6144535D01*
X32578409Y6157044D01*
X32580524Y6159044D01*
X32582944Y6160660D01*
X32599570Y6177286D01*
X32601184Y6179704D01*
X32603183Y6181818D01*
X32615695Y6201727D01*
X32616733Y6204448D01*
X32618213Y6206955D01*
X32625977Y6229148D01*
X32626382Y6232028D01*
X32627267Y6234800D01*
X32629898Y6258164D01*
X32629776Y6259625D01*
X32630063Y6261064D01*
X32630060Y7551064D01*
X32629776Y7552502D01*
X32629898Y7553963D01*
X32627267Y7577328D01*
X32626382Y7580101D01*
X32625974Y7582984D01*
X32618210Y7605176D01*
X32616730Y7607682D01*
X32615692Y7610400D01*
X32603183Y7630309D01*
X32601184Y7632423D01*
X32599570Y7634843D01*
X32582944Y7651469D01*
X32580524Y7653086D01*
X32578409Y7655085D01*
X32558499Y7667595D01*
X32555780Y7668632D01*
X32553275Y7670110D01*
X32531082Y7677876D01*
X32528201Y7678283D01*
X32525430Y7679167D01*
X32502063Y7681799D01*
X32500601Y7681676D01*
X32499164Y7681962D01*
D02*
G37*
G36*
X37172913Y5876963D02*
X35882916Y5876962D01*
X35881476Y5876676D01*
X35880017Y5876800D01*
X35867776Y5875421D01*
X35865005Y5874537D01*
X35862122Y5874130D01*
X35850497Y5870062D01*
X35847989Y5868583D01*
X35845273Y5867546D01*
X35834845Y5860993D01*
X35832730Y5858995D01*
X35830310Y5857378D01*
X35821603Y5848670D01*
X35819986Y5846250D01*
X35817987Y5844136D01*
X35811432Y5833708D01*
X35810394Y5830987D01*
X35808914Y5828479D01*
X35804849Y5816853D01*
X35804443Y5813974D01*
X35803561Y5811205D01*
X35802179Y5798966D01*
X35802304Y5797504D01*
X35802017Y5796065D01*
Y4506065D01*
X35802304Y4504625D01*
X35802179Y4503163D01*
X35803561Y4490925D01*
X35804443Y4488155D01*
X35804849Y4485276D01*
X35808914Y4473651D01*
X35810394Y4471144D01*
X35811432Y4468422D01*
X35817987Y4457994D01*
X35819986Y4455879D01*
X35821603Y4453460D01*
X35830310Y4444751D01*
X35832730Y4443135D01*
X35834845Y4441136D01*
X35845273Y4434583D01*
X35847992Y4433546D01*
X35850497Y4432067D01*
X35862122Y4427999D01*
X35865005Y4427593D01*
X35867776Y4426709D01*
X35880014Y4425330D01*
X35881476Y4425453D01*
X35882916Y4425167D01*
X37172913Y4425167D01*
X37174353Y4425453D01*
X37175812Y4425330D01*
X37188052Y4426709D01*
X37190823Y4427593D01*
X37193707Y4428000D01*
X37205331Y4432068D01*
X37207837Y4433546D01*
X37210556Y4434584D01*
X37220984Y4441137D01*
X37223099Y4443135D01*
X37225519Y4444752D01*
X37234229Y4453460D01*
X37235843Y4455880D01*
X37237842Y4457994D01*
X37244394Y4468422D01*
X37245432Y4471140D01*
X37246912Y4473647D01*
X37250980Y4485272D01*
X37251389Y4488156D01*
X37252271Y4490930D01*
X37253650Y4503168D01*
X37253525Y4504628D01*
X37253812Y4506065D01*
Y5796065D01*
X37253525Y5797502D01*
X37253650Y5798962D01*
X37252271Y5811201D01*
X37251385Y5813975D01*
X37250980Y5816858D01*
X37246912Y5828483D01*
X37245435Y5830988D01*
X37244397Y5833707D01*
X37237842Y5844136D01*
X37235843Y5846251D01*
X37234229Y5848670D01*
X37225519Y5857379D01*
X37223099Y5858995D01*
X37220984Y5860994D01*
X37210556Y5867546D01*
X37207837Y5868584D01*
X37205331Y5870063D01*
X37193704Y5874130D01*
X37190826Y5874537D01*
X37188052Y5875421D01*
X37175815Y5876800D01*
X37174353Y5876677D01*
X37172913Y5876963D01*
D02*
G37*
G36*
X35267914Y5876962D02*
X33977914D01*
X33976477Y5876676D01*
X33975015Y5876800D01*
X33962778Y5875421D01*
X33960004Y5874537D01*
X33957123Y5874130D01*
X33945496Y5870062D01*
X33942990Y5868583D01*
X33940271Y5867546D01*
X33929843Y5860993D01*
X33927731Y5858995D01*
X33925311Y5857378D01*
X33916602Y5848670D01*
X33914984Y5846250D01*
X33912985Y5844136D01*
X33906433Y5833708D01*
X33905396Y5830987D01*
X33903915Y5828479D01*
X33899850Y5816853D01*
X33899442Y5813974D01*
X33898560Y5811205D01*
X33897180Y5798966D01*
X33897302Y5797504D01*
X33897018Y5796065D01*
Y4506065D01*
X33897302Y4504625D01*
X33897180Y4503163D01*
X33898560Y4490925D01*
X33899442Y4488155D01*
X33899850Y4485276D01*
X33903915Y4473651D01*
X33905396Y4471144D01*
X33906433Y4468422D01*
X33912985Y4457994D01*
X33914984Y4455879D01*
X33916602Y4453460D01*
X33925311Y4444751D01*
X33927731Y4443135D01*
X33929843Y4441136D01*
X33940271Y4434583D01*
X33942990Y4433546D01*
X33945499Y4432067D01*
X33957123Y4427999D01*
X33960004Y4427593D01*
X33962775Y4426709D01*
X33975015Y4425330D01*
X33976477Y4425453D01*
X33977914Y4425167D01*
X35267914D01*
X35269351Y4425453D01*
X35270813Y4425330D01*
X35283054Y4426709D01*
X35285825Y4427593D01*
X35288705Y4427999D01*
X35300330Y4432067D01*
X35302838Y4433546D01*
X35305557Y4434583D01*
X35315985Y4441136D01*
X35318100Y4443135D01*
X35320517Y4444751D01*
X35329227Y4453460D01*
X35330844Y4455879D01*
X35332843Y4457994D01*
X35339395Y4468422D01*
X35340433Y4471141D01*
X35341913Y4473647D01*
X35345981Y4485272D01*
X35346387Y4488155D01*
X35347272Y4490929D01*
X35348648Y4503168D01*
X35348526Y4504628D01*
X35348810Y4506065D01*
Y5796065D01*
X35348526Y5797502D01*
X35348648Y5798962D01*
X35347272Y5811200D01*
X35346387Y5813974D01*
X35345981Y5816857D01*
X35341913Y5828482D01*
X35340433Y5830989D01*
X35339395Y5833708D01*
X35332843Y5844136D01*
X35330844Y5846250D01*
X35329227Y5848670D01*
X35320517Y5857378D01*
X35318097Y5858995D01*
X35315985Y5860993D01*
X35305557Y5867546D01*
X35302838Y5868583D01*
X35300330Y5870062D01*
X35288705Y5874130D01*
X35285825Y5874537D01*
X35283051Y5875421D01*
X35270813Y5876800D01*
X35269351Y5876676D01*
X35267914Y5876962D01*
D02*
G37*
G36*
X32648541D02*
X31358539D01*
X31357101Y5876676D01*
X31355640Y5876800D01*
X31343399Y5875420D01*
X31340628Y5874536D01*
X31337747Y5874129D01*
X31326123Y5870062D01*
X31323618Y5868584D01*
X31320901Y5867547D01*
X31310471Y5860994D01*
X31308353Y5858994D01*
X31305933Y5857376D01*
X31297226Y5848667D01*
X31295609Y5846249D01*
X31293613Y5844136D01*
X31287057Y5833707D01*
X31286020Y5830988D01*
X31284543Y5828482D01*
X31280475Y5816858D01*
X31280066Y5813977D01*
X31279184Y5811205D01*
X31277805Y5798966D01*
X31277927Y5797504D01*
X31277640Y5796065D01*
Y4506065D01*
X31277927Y4504625D01*
X31277805Y4503163D01*
X31279184Y4490925D01*
X31280066Y4488153D01*
X31280475Y4485272D01*
X31284543Y4473647D01*
X31286020Y4471140D01*
X31287057Y4468422D01*
X31293613Y4457993D01*
X31295609Y4455880D01*
X31297226Y4453462D01*
X31305933Y4444753D01*
X31308353Y4443135D01*
X31310471Y4441135D01*
X31320901Y4434582D01*
X31323618Y4433545D01*
X31326123Y4432068D01*
X31337744Y4428000D01*
X31340628Y4427592D01*
X31343402Y4426708D01*
X31355640Y4425330D01*
X31357101Y4425453D01*
X31358539Y4425167D01*
X32648541D01*
X32649979Y4425453D01*
X32651440Y4425330D01*
X32663678Y4426708D01*
X32666449Y4427592D01*
X32669333Y4427999D01*
X32680957Y4432067D01*
X32683463Y4433546D01*
X32686182Y4434583D01*
X32696609Y4441136D01*
X32698724Y4443135D01*
X32701144Y4444751D01*
X32709854Y4453460D01*
X32711472Y4455881D01*
X32713470Y4457996D01*
X32720020Y4468424D01*
X32721057Y4471142D01*
X32722537Y4473647D01*
X32726605Y4485272D01*
X32727011Y4488153D01*
X32727896Y4490925D01*
X32729276Y4503163D01*
X32729150Y4504625D01*
X32729437Y4506065D01*
Y5796065D01*
X32729150Y5797504D01*
X32729276Y5798966D01*
X32727896Y5811205D01*
X32727011Y5813977D01*
X32726605Y5816858D01*
X32722537Y5828482D01*
X32721060Y5830987D01*
X32720023Y5833704D01*
X32713470Y5844133D01*
X32711472Y5846248D01*
X32709854Y5848670D01*
X32701144Y5857378D01*
X32698724Y5858995D01*
X32696609Y5860993D01*
X32686182Y5867546D01*
X32683463Y5868584D01*
X32680957Y5870062D01*
X32669330Y5874130D01*
X32666452Y5874537D01*
X32663678Y5875420D01*
X32651440Y5876800D01*
X32649979Y5876676D01*
X32648541Y5876962D01*
D02*
G37*
G36*
X30029163Y5876962D02*
X28739166D01*
X28737726Y5876676D01*
X28736267Y5876799D01*
X28724026Y5875420D01*
X28721255Y5874537D01*
X28718372Y5874130D01*
X28706747Y5870062D01*
X28704239Y5868583D01*
X28701523Y5867545D01*
X28691095Y5860993D01*
X28688980Y5858994D01*
X28686560Y5857378D01*
X28677853Y5848669D01*
X28676236Y5846250D01*
X28674237Y5844136D01*
X28667682Y5833707D01*
X28666644Y5830987D01*
X28665164Y5828478D01*
X28661099Y5816853D01*
X28660693Y5813974D01*
X28659811Y5811204D01*
X28658429Y5798965D01*
X28658554Y5797503D01*
X28658267Y5796064D01*
Y4506064D01*
X28658554Y4504625D01*
X28658429Y4503163D01*
X28659811Y4490924D01*
X28660693Y4488155D01*
X28661099Y4485275D01*
X28665164Y4473650D01*
X28666644Y4471143D01*
X28667682Y4468422D01*
X28674237Y4457993D01*
X28676236Y4455879D01*
X28677853Y4453459D01*
X28686560Y4444751D01*
X28688980Y4443134D01*
X28691095Y4441135D01*
X28701523Y4434583D01*
X28704242Y4433545D01*
X28706747Y4432066D01*
X28718372Y4427999D01*
X28721255Y4427592D01*
X28724026Y4426708D01*
X28736264Y4425329D01*
X28737726Y4425452D01*
X28739166Y4425166D01*
X30029163D01*
X30030603Y4425452D01*
X30032065Y4425329D01*
X30044302Y4426708D01*
X30047076Y4427592D01*
X30049954Y4427999D01*
X30061581Y4432066D01*
X30064087Y4433545D01*
X30066806Y4434583D01*
X30077234Y4441136D01*
X30079349Y4443134D01*
X30081769Y4444751D01*
X30090479Y4453459D01*
X30092093Y4455879D01*
X30094092Y4457993D01*
X30100647Y4468422D01*
X30101685Y4471140D01*
X30103162Y4473646D01*
X30107230Y4485271D01*
X30107635Y4488154D01*
X30108521Y4490929D01*
X30109900Y4503167D01*
X30109775Y4504627D01*
X30110062Y4506064D01*
Y5796064D01*
X30109775Y5797501D01*
X30109900Y5798961D01*
X30108521Y5811200D01*
X30107639Y5813973D01*
X30107230Y5816857D01*
X30103162Y5828482D01*
X30101685Y5830989D01*
X30100647Y5833707D01*
X30094092Y5844136D01*
X30092093Y5846250D01*
X30090479Y5848669D01*
X30081769Y5857378D01*
X30079349Y5858994D01*
X30077234Y5860993D01*
X30066806Y5867545D01*
X30064087Y5868583D01*
X30061581Y5870062D01*
X30049957Y5874130D01*
X30047073Y5874537D01*
X30044302Y5875420D01*
X30032062Y5876799D01*
X30030603Y5876676D01*
X30029163Y5876962D01*
D02*
G37*
G36*
X28124164D02*
X26834164D01*
X26832727Y5876676D01*
X26831265Y5876799D01*
X26819025Y5875420D01*
X26816254Y5874536D01*
X26813373Y5874129D01*
X26801749Y5870062D01*
X26799240Y5868583D01*
X26796521Y5867545D01*
X26786093Y5860993D01*
X26783981Y5858994D01*
X26781561Y5857378D01*
X26772852Y5848669D01*
X26771234Y5846250D01*
X26769235Y5844135D01*
X26762683Y5833706D01*
X26761646Y5830985D01*
X26760165Y5828478D01*
X26756100Y5816853D01*
X26755692Y5813975D01*
X26754810Y5811204D01*
X26753430Y5798965D01*
X26753552Y5797503D01*
X26753268Y5796064D01*
Y4506064D01*
X26753552Y4504625D01*
X26753430Y4503163D01*
X26754810Y4490924D01*
X26755692Y4488154D01*
X26756100Y4485275D01*
X26760165Y4473650D01*
X26761646Y4471142D01*
X26762683Y4468421D01*
X26769235Y4457993D01*
X26771234Y4455879D01*
X26772852Y4453459D01*
X26781561Y4444751D01*
X26783981Y4443134D01*
X26786093Y4441135D01*
X26796521Y4434583D01*
X26799240Y4433545D01*
X26801746Y4432067D01*
X26813373Y4427999D01*
X26816254Y4427592D01*
X26819028Y4426708D01*
X26831265Y4425329D01*
X26832727Y4425452D01*
X26834164Y4425166D01*
X28124164D01*
X28125601Y4425452D01*
X28127063Y4425329D01*
X28139304Y4426708D01*
X28142075Y4427592D01*
X28144955Y4427999D01*
X28156580Y4432066D01*
X28159088Y4433545D01*
X28161807Y4434583D01*
X28172235Y4441136D01*
X28174350Y4443134D01*
X28176767Y4444751D01*
X28185477Y4453459D01*
X28187094Y4455879D01*
X28189093Y4457993D01*
X28195645Y4468422D01*
X28196683Y4471140D01*
X28198163Y4473646D01*
X28202231Y4485271D01*
X28202637Y4488154D01*
X28203522Y4490929D01*
X28204898Y4503167D01*
X28204776Y4504627D01*
X28205060Y4506064D01*
Y5796064D01*
X28204776Y5797501D01*
X28204898Y5798961D01*
X28203522Y5811200D01*
X28202637Y5813973D01*
X28202231Y5816857D01*
X28198163Y5828482D01*
X28196683Y5830989D01*
X28195645Y5833707D01*
X28189093Y5844136D01*
X28187094Y5846250D01*
X28185477Y5848669D01*
X28176767Y5857378D01*
X28174347Y5858994D01*
X28172235Y5860993D01*
X28161807Y5867545D01*
X28159088Y5868583D01*
X28156580Y5870062D01*
X28144955Y5874130D01*
X28142075Y5874537D01*
X28139301Y5875420D01*
X28127063Y5876799D01*
X28125601Y5876676D01*
X28124164Y5876962D01*
D02*
G37*
G36*
X26219165D02*
X24929166Y5876961D01*
X24927727Y5876675D01*
X24926266Y5876799D01*
X24914027Y5875420D01*
X24911253Y5874536D01*
X24908372Y5874129D01*
X24896747Y5870061D01*
X24894240Y5868582D01*
X24891522Y5867545D01*
X24881094Y5860992D01*
X24878979Y5858994D01*
X24876561Y5857377D01*
X24867851Y5848669D01*
X24866234Y5846248D01*
X24864235Y5844133D01*
X24857683Y5833705D01*
X24856647Y5830988D01*
X24855167Y5828481D01*
X24851099Y5816856D01*
X24850693Y5813974D01*
X24849809Y5811201D01*
X24848430Y5798963D01*
X24848553Y5797502D01*
X24848267Y5796064D01*
Y4506064D01*
X24848553Y4504625D01*
X24848430Y4503165D01*
X24849809Y4490926D01*
X24850693Y4488152D01*
X24851099Y4485271D01*
X24855167Y4473646D01*
X24856645Y4471140D01*
X24857683Y4468423D01*
X24864235Y4457994D01*
X24866234Y4455880D01*
X24867851Y4453459D01*
X24876561Y4444750D01*
X24878979Y4443134D01*
X24881094Y4441135D01*
X24891522Y4434582D01*
X24894241Y4433545D01*
X24896748Y4432066D01*
X24908372Y4427998D01*
X24911253Y4427592D01*
X24914026Y4426708D01*
X24926265Y4425329D01*
X24927727Y4425452D01*
X24929166Y4425166D01*
X26219165Y4425166D01*
X26220602Y4425452D01*
X26222064Y4425329D01*
X26234302Y4426708D01*
X26237076Y4427592D01*
X26239957Y4427999D01*
X26251581Y4432067D01*
X26254089Y4433545D01*
X26256805Y4434582D01*
X26267233Y4441135D01*
X26269351Y4443134D01*
X26271771Y4444752D01*
X26280478Y4453460D01*
X26282095Y4455879D01*
X26284091Y4457993D01*
X26290646Y4468421D01*
X26291684Y4471141D01*
X26293164Y4473648D01*
X26297229Y4485273D01*
X26297635Y4488153D01*
X26298520Y4490924D01*
X26299899Y4503163D01*
X26299777Y4504625D01*
X26300061Y4506064D01*
Y5796064D01*
X26299777Y5797503D01*
X26299899Y5798965D01*
X26298520Y5811204D01*
X26297635Y5813975D01*
X26297229Y5816855D01*
X26293164Y5828480D01*
X26291684Y5830987D01*
X26290646Y5833706D01*
X26284094Y5844135D01*
X26282095Y5846249D01*
X26280478Y5848668D01*
X26271771Y5857377D01*
X26269351Y5858994D01*
X26267233Y5860993D01*
X26256805Y5867546D01*
X26254086Y5868584D01*
X26251581Y5870062D01*
X26239957Y5874129D01*
X26237076Y5874536D01*
X26234305Y5875420D01*
X26222064Y5876799D01*
X26220602Y5876676D01*
X26219165Y5876962D01*
D02*
G37*
G36*
X24314165Y5876961D02*
X23024165D01*
X23022726Y5876675D01*
X23021266Y5876799D01*
X23009027Y5875420D01*
X23006255Y5874536D01*
X23003372Y5874129D01*
X22991747Y5870061D01*
X22989240Y5868582D01*
X22986522Y5867545D01*
X22976094Y5860992D01*
X22973981Y5858994D01*
X22971561Y5857377D01*
X22962852Y5848669D01*
X22961234Y5846248D01*
X22959235Y5844133D01*
X22952682Y5833705D01*
X22951646Y5830988D01*
X22950166Y5828481D01*
X22946098Y5816856D01*
X22945692Y5813974D01*
X22944809Y5811201D01*
X22943430Y5798963D01*
X22943553Y5797502D01*
X22943266Y5796064D01*
Y4506064D01*
X22943553Y4504625D01*
X22943430Y4503165D01*
X22944809Y4490926D01*
X22945692Y4488152D01*
X22946098Y4485271D01*
X22950166Y4473646D01*
X22951645Y4471140D01*
X22952682Y4468423D01*
X22959235Y4457994D01*
X22961234Y4455880D01*
X22962852Y4453459D01*
X22971561Y4444750D01*
X22973981Y4443134D01*
X22976094Y4441135D01*
X22986522Y4434582D01*
X22989241Y4433545D01*
X22991748Y4432066D01*
X23003374Y4427998D01*
X23006255Y4427592D01*
X23009026Y4426708D01*
X23021265Y4425329D01*
X23022726Y4425452D01*
X23024165Y4425166D01*
X24314165D01*
X24315604Y4425452D01*
X24317065Y4425329D01*
X24329305Y4426708D01*
X24332076Y4427592D01*
X24334956Y4427999D01*
X24346581Y4432066D01*
X24349088Y4433544D01*
X24351805Y4434582D01*
X24362234Y4441134D01*
X24364349Y4443134D01*
X24366769Y4444751D01*
X24375478Y4453460D01*
X24377094Y4455878D01*
X24379092Y4457993D01*
X24385646Y4468421D01*
X24386684Y4471141D01*
X24388164Y4473648D01*
X24392230Y4485272D01*
X24392638Y4488153D01*
X24393520Y4490924D01*
X24394899Y4503162D01*
X24394775Y4504624D01*
X24395062Y4506064D01*
Y5796064D01*
X24394775Y5797503D01*
X24394899Y5798965D01*
X24393520Y5811204D01*
X24392636Y5813975D01*
X24392230Y5816855D01*
X24388164Y5828479D01*
X24386684Y5830986D01*
X24385646Y5833707D01*
X24379092Y5844135D01*
X24377094Y5846249D01*
X24375478Y5848667D01*
X24366769Y5857376D01*
X24364349Y5858993D01*
X24362234Y5860993D01*
X24351805Y5867546D01*
X24349088Y5868583D01*
X24346582Y5870061D01*
X24334958Y5874129D01*
X24332076Y5874536D01*
X24329303Y5875420D01*
X24317064Y5876799D01*
X24315604Y5876675D01*
X24314165Y5876961D01*
D02*
G37*
G36*
X22409164D02*
X21119165D01*
X21117726Y5876675D01*
X21116264Y5876799D01*
X21104025Y5875419D01*
X21101254Y5874536D01*
X21098373Y5874129D01*
X21086748Y5870061D01*
X21084241Y5868583D01*
X21081522Y5867545D01*
X21071094Y5860992D01*
X21068980Y5858994D01*
X21066560Y5857377D01*
X21057852Y5848669D01*
X21056235Y5846249D01*
X21054234Y5844133D01*
X21047684Y5833704D01*
X21046646Y5830987D01*
X21045168Y5828481D01*
X21041100Y5816857D01*
X21040692Y5813975D01*
X21039809Y5811201D01*
X21038429Y5798963D01*
X21038553Y5797502D01*
X21038268Y5796064D01*
Y4506064D01*
X21038553Y4504625D01*
X21038429Y4503165D01*
X21039809Y4490926D01*
X21040692Y4488153D01*
X21041100Y4485271D01*
X21045168Y4473646D01*
X21046646Y4471139D01*
X21047684Y4468422D01*
X21054234Y4457994D01*
X21056235Y4455879D01*
X21057852Y4453459D01*
X21066560Y4444750D01*
X21068980Y4443134D01*
X21071094Y4441135D01*
X21081522Y4434582D01*
X21084241Y4433545D01*
X21086748Y4432066D01*
X21098372Y4427998D01*
X21101254Y4427591D01*
X21104027Y4426707D01*
X21116266Y4425329D01*
X21117728Y4425452D01*
X21119165Y4425166D01*
X22409164D01*
X22410603Y4425452D01*
X22412065Y4425329D01*
X22424304Y4426708D01*
X22427077Y4427592D01*
X22429958Y4427999D01*
X22441582Y4432066D01*
X22444087Y4433544D01*
X22446805Y4434582D01*
X22457234Y4441134D01*
X22459351Y4443134D01*
X22461771Y4444751D01*
X22470477Y4453460D01*
X22472095Y4455878D01*
X22474094Y4457993D01*
X22480646Y4468421D01*
X22481683Y4471141D01*
X22483163Y4473648D01*
X22487230Y4485272D01*
X22487637Y4488153D01*
X22488519Y4490924D01*
X22489899Y4503162D01*
X22489777Y4504624D01*
X22490062Y4506064D01*
Y5796064D01*
X22489777Y5797503D01*
X22489899Y5798965D01*
X22488519Y5811204D01*
X22487636Y5813975D01*
X22487230Y5816855D01*
X22483163Y5828479D01*
X22481683Y5830986D01*
X22480646Y5833707D01*
X22474092Y5844135D01*
X22472095Y5846249D01*
X22470477Y5848667D01*
X22461771Y5857376D01*
X22459351Y5858993D01*
X22457234Y5860993D01*
X22446805Y5867546D01*
X22444089Y5868583D01*
X22441582Y5870061D01*
X22429958Y5874129D01*
X22427077Y5874536D01*
X22424303Y5875420D01*
X22412064Y5876799D01*
X22410603Y5876675D01*
X22409164Y5876961D01*
D02*
G37*
G36*
X20504166D02*
X19214165Y5876961D01*
X19212727Y5876675D01*
X19211266Y5876798D01*
X19199026Y5875419D01*
X19196254Y5874536D01*
X19193372Y5874129D01*
X19181747Y5870061D01*
X19179240Y5868582D01*
X19176521Y5867544D01*
X19166093Y5860992D01*
X19163980Y5858993D01*
X19161562Y5857377D01*
X19152852Y5848668D01*
X19151234Y5846248D01*
X19149236Y5844133D01*
X19142683Y5833705D01*
X19141646Y5830987D01*
X19140167Y5828481D01*
X19136099Y5816856D01*
X19135692Y5813974D01*
X19134808Y5811201D01*
X19133430Y5798962D01*
X19133553Y5797501D01*
X19133267Y5796063D01*
Y4506063D01*
X19133553Y4504625D01*
X19133430Y4503164D01*
X19134808Y4490925D01*
X19135692Y4488152D01*
X19136099Y4485270D01*
X19140167Y4473646D01*
X19141644Y4471140D01*
X19142683Y4468422D01*
X19149236Y4457994D01*
X19151234Y4455879D01*
X19152852Y4453458D01*
X19161562Y4444750D01*
X19163980Y4443133D01*
X19166093Y4441134D01*
X19176521Y4434582D01*
X19179240Y4433544D01*
X19181747Y4432065D01*
X19193373Y4427998D01*
X19196254Y4427591D01*
X19199026Y4426707D01*
X19211266Y4425328D01*
X19212726Y4425451D01*
X19214165Y4425165D01*
X20504166Y4425166D01*
X20505603Y4425452D01*
X20507063Y4425329D01*
X20519302Y4426707D01*
X20522076Y4427591D01*
X20524957Y4427998D01*
X20536581Y4432066D01*
X20539088Y4433545D01*
X20541805Y4434582D01*
X20552234Y4441134D01*
X20554350Y4443134D01*
X20556770Y4444751D01*
X20565479Y4453460D01*
X20567094Y4455879D01*
X20569092Y4457992D01*
X20575645Y4468420D01*
X20576685Y4471140D01*
X20578163Y4473648D01*
X20582230Y4485273D01*
X20582635Y4488152D01*
X20583521Y4490924D01*
X20584898Y4503162D01*
X20584776Y4504624D01*
X20585062Y4506064D01*
Y5796064D01*
X20584776Y5797503D01*
X20584898Y5798965D01*
X20583521Y5811204D01*
X20582635Y5813974D01*
X20582230Y5816855D01*
X20578163Y5828479D01*
X20576685Y5830986D01*
X20575645Y5833706D01*
X20569093Y5844135D01*
X20567094Y5846249D01*
X20565479Y5848667D01*
X20556770Y5857376D01*
X20554350Y5858993D01*
X20552234Y5860993D01*
X20541805Y5867546D01*
X20539087Y5868583D01*
X20536581Y5870061D01*
X20524957Y5874129D01*
X20522076Y5874535D01*
X20519304Y5875419D01*
X20507065Y5876799D01*
X20505603Y5876675D01*
X20504166Y5876961D01*
D02*
G37*
G36*
X18599165Y5876961D02*
X17309164D01*
X17307726Y5876675D01*
X17306265Y5876798D01*
X17294026Y5875419D01*
X17291254Y5874535D01*
X17288371Y5874128D01*
X17276747Y5870060D01*
X17274242Y5868582D01*
X17271523Y5867545D01*
X17261095Y5860992D01*
X17258978Y5858993D01*
X17256560Y5857376D01*
X17247852Y5848667D01*
X17246234Y5846248D01*
X17244237Y5844134D01*
X17237683Y5833706D01*
X17236646Y5830987D01*
X17235165Y5828480D01*
X17231099Y5816855D01*
X17230692Y5813974D01*
X17229810Y5811202D01*
X17228429Y5798963D01*
X17228552Y5797501D01*
X17228267Y5796063D01*
Y4506063D01*
X17228552Y4504625D01*
X17228429Y4503163D01*
X17229810Y4490924D01*
X17230692Y4488152D01*
X17231099Y4485271D01*
X17235165Y4473646D01*
X17236646Y4471139D01*
X17237683Y4468422D01*
X17244235Y4457993D01*
X17246236Y4455878D01*
X17247852Y4453459D01*
X17256560Y4444750D01*
X17258978Y4443134D01*
X17261095Y4441134D01*
X17271523Y4434581D01*
X17274242Y4433543D01*
X17276749Y4432066D01*
X17288371Y4427998D01*
X17291254Y4427591D01*
X17294025Y4426707D01*
X17306264Y4425328D01*
X17307726Y4425451D01*
X17309164Y4425165D01*
X18599165D01*
X18600603Y4425451D01*
X18602065Y4425328D01*
X18614304Y4426707D01*
X18617076Y4427591D01*
X18619957Y4427998D01*
X18631581Y4432066D01*
X18634087Y4433544D01*
X18636806Y4434581D01*
X18647234Y4441134D01*
X18649350Y4443133D01*
X18651770Y4444751D01*
X18660478Y4453459D01*
X18662094Y4455878D01*
X18664093Y4457992D01*
X18670647Y4468421D01*
X18671684Y4471140D01*
X18673163Y4473647D01*
X18677229Y4485272D01*
X18677637Y4488153D01*
X18678520Y4490923D01*
X18679900Y4503162D01*
X18679776Y4504624D01*
X18680061Y4506063D01*
Y5796063D01*
X18679776Y5797502D01*
X18679900Y5798964D01*
X18678520Y5811203D01*
X18677637Y5813974D01*
X18677229Y5816854D01*
X18673163Y5828479D01*
X18671684Y5830986D01*
X18670647Y5833706D01*
X18664091Y5844135D01*
X18662094Y5846248D01*
X18660478Y5848667D01*
X18651770Y5857376D01*
X18649350Y5858993D01*
X18647234Y5860992D01*
X18636806Y5867545D01*
X18634088Y5868582D01*
X18631583Y5870060D01*
X18619958Y5874128D01*
X18617076Y5874536D01*
X18614304Y5875419D01*
X18602065Y5876798D01*
X18600603Y5876675D01*
X18599165Y5876961D01*
D02*
G37*
G36*
X16694164D02*
X15404164D01*
X15402727Y5876675D01*
X15401263Y5876798D01*
X15389024Y5875419D01*
X15386253Y5874535D01*
X15383372Y5874128D01*
X15371748Y5870061D01*
X15369241Y5868582D01*
X15366524Y5867545D01*
X15356094Y5860992D01*
X15353979Y5858993D01*
X15351559Y5857376D01*
X15342851Y5848667D01*
X15341235Y5846248D01*
X15339235Y5844133D01*
X15332683Y5833705D01*
X15331644Y5830985D01*
X15330167Y5828480D01*
X15326099Y5816855D01*
X15325693Y5813974D01*
X15324809Y5811202D01*
X15323428Y5798963D01*
X15323553Y5797501D01*
X15323267Y5796063D01*
Y4506063D01*
X15323553Y4504625D01*
X15323428Y4503163D01*
X15324809Y4490924D01*
X15325693Y4488152D01*
X15326099Y4485271D01*
X15330167Y4473646D01*
X15331645Y4471139D01*
X15332683Y4468421D01*
X15339236Y4457992D01*
X15341235Y4455878D01*
X15342851Y4453459D01*
X15351559Y4444750D01*
X15353979Y4443134D01*
X15356094Y4441134D01*
X15366524Y4434581D01*
X15369241Y4433544D01*
X15371745Y4432066D01*
X15383371Y4427998D01*
X15386253Y4427591D01*
X15389026Y4426707D01*
X15401265Y4425328D01*
X15402727Y4425451D01*
X15404164Y4425165D01*
X16694164D01*
X16695602Y4425451D01*
X16697064Y4425328D01*
X16709303Y4426707D01*
X16712074Y4427591D01*
X16714957Y4427998D01*
X16726581Y4432065D01*
X16729088Y4433544D01*
X16731805Y4434582D01*
X16742233Y4441134D01*
X16744350Y4443134D01*
X16746770Y4444750D01*
X16755476Y4453459D01*
X16757094Y4455878D01*
X16759093Y4457993D01*
X16765646Y4468422D01*
X16766684Y4471141D01*
X16768163Y4473646D01*
X16772231Y4485271D01*
X16772636Y4488152D01*
X16773520Y4490924D01*
X16774899Y4503163D01*
X16774776Y4504625D01*
X16775063Y4506063D01*
Y5796063D01*
X16774776Y5797501D01*
X16774899Y5798963D01*
X16773520Y5811202D01*
X16772636Y5813974D01*
X16772231Y5816855D01*
X16768163Y5828480D01*
X16766682Y5830987D01*
X16765645Y5833706D01*
X16759093Y5844134D01*
X16757094Y5846248D01*
X16755476Y5848667D01*
X16746770Y5857376D01*
X16744350Y5858993D01*
X16742233Y5860992D01*
X16731805Y5867545D01*
X16729086Y5868582D01*
X16726582Y5870060D01*
X16714957Y5874128D01*
X16712076Y5874535D01*
X16709302Y5875419D01*
X16697063Y5876798D01*
X16695602Y5876675D01*
X16694164Y5876961D01*
D02*
G37*
G36*
X14789165D02*
X13499165Y5876960D01*
X13497726Y5876674D01*
X13496266Y5876797D01*
X13484027Y5875419D01*
X13481255Y5874535D01*
X13478372Y5874128D01*
X13466747Y5870060D01*
X13464240Y5868581D01*
X13461522Y5867544D01*
X13451094Y5860991D01*
X13448981Y5858993D01*
X13446561Y5857376D01*
X13437852Y5848667D01*
X13436235Y5846248D01*
X13434236Y5844134D01*
X13427682Y5833706D01*
X13426643Y5830986D01*
X13425166Y5828478D01*
X13421098Y5816853D01*
X13420692Y5813973D01*
X13419809Y5811200D01*
X13418430Y5798962D01*
X13418553Y5797501D01*
X13418266Y5796063D01*
X13418266Y4506063D01*
X13418553Y4504624D01*
X13418430Y4503164D01*
X13419809Y4490925D01*
X13420692Y4488153D01*
X13421098Y4485271D01*
X13425166Y4473647D01*
X13426645Y4471140D01*
X13427682Y4468420D01*
X13434236Y4457992D01*
X13436235Y4455877D01*
X13437852Y4453458D01*
X13446561Y4444749D01*
X13448981Y4443133D01*
X13451096Y4441134D01*
X13461522Y4434581D01*
X13464241Y4433544D01*
X13466748Y4432065D01*
X13478374Y4427997D01*
X13481255Y4427591D01*
X13484026Y4426707D01*
X13496265Y4425328D01*
X13497726Y4425451D01*
X13499165Y4425165D01*
X14789165Y4425165D01*
X14790602Y4425451D01*
X14792062Y4425328D01*
X14804301Y4426707D01*
X14807076Y4427591D01*
X14809956Y4427998D01*
X14821582Y4432066D01*
X14824088Y4433544D01*
X14826807Y4434582D01*
X14837234Y4441134D01*
X14839349Y4443134D01*
X14841769Y4444750D01*
X14850478Y4453459D01*
X14852094Y4455878D01*
X14854092Y4457993D01*
X14860645Y4468421D01*
X14861684Y4471139D01*
X14863162Y4473646D01*
X14867230Y4485271D01*
X14867636Y4488152D01*
X14868520Y4490924D01*
X14869899Y4503163D01*
X14869775Y4504625D01*
X14870062Y4506063D01*
Y5796063D01*
X14869775Y5797501D01*
X14869899Y5798963D01*
X14868520Y5811202D01*
X14867636Y5813974D01*
X14867230Y5816855D01*
X14863162Y5828480D01*
X14861684Y5830987D01*
X14860646Y5833705D01*
X14854092Y5844133D01*
X14852094Y5846248D01*
X14850478Y5848667D01*
X14841769Y5857376D01*
X14839349Y5858993D01*
X14837234Y5860992D01*
X14826807Y5867545D01*
X14824086Y5868583D01*
X14821581Y5870061D01*
X14809956Y5874128D01*
X14807076Y5874535D01*
X14804303Y5875419D01*
X14792064Y5876798D01*
X14790604Y5876675D01*
X14789165Y5876961D01*
D02*
G37*
G36*
X12884164Y5876960D02*
X11594165D01*
X11592727Y5876674D01*
X11591266Y5876797D01*
X11579027Y5875419D01*
X11576254Y5874535D01*
X11573372Y5874128D01*
X11561747Y5870060D01*
X11559240Y5868581D01*
X11556522Y5867544D01*
X11546094Y5860991D01*
X11543980Y5858993D01*
X11541561Y5857376D01*
X11532852Y5848667D01*
X11531235Y5846248D01*
X11529236Y5844134D01*
X11522683Y5833706D01*
X11521644Y5830986D01*
X11520166Y5828478D01*
X11516099Y5816853D01*
X11515692Y5813973D01*
X11514809Y5811200D01*
X11513430Y5798962D01*
X11513553Y5797501D01*
X11513267Y5796063D01*
X11513267Y4506063D01*
X11513553Y4504624D01*
X11513430Y4503164D01*
X11514809Y4490925D01*
X11515692Y4488153D01*
X11516099Y4485271D01*
X11520166Y4473647D01*
X11521645Y4471140D01*
X11522683Y4468420D01*
X11529236Y4457992D01*
X11531235Y4455877D01*
X11532852Y4453458D01*
X11541561Y4444749D01*
X11543980Y4443133D01*
X11546095Y4441134D01*
X11556522Y4434581D01*
X11559241Y4433544D01*
X11561748Y4432065D01*
X11573373Y4427997D01*
X11576254Y4427591D01*
X11579026Y4426707D01*
X11591265Y4425328D01*
X11592727Y4425451D01*
X11594165Y4425165D01*
X12884164D01*
X12885602Y4425451D01*
X12887064Y4425328D01*
X12899303Y4426707D01*
X12902075Y4427591D01*
X12904956Y4427997D01*
X12916582Y4432065D01*
X12919089Y4433544D01*
X12921806Y4434581D01*
X12932236Y4441134D01*
X12934349Y4443133D01*
X12936768Y4444749D01*
X12945477Y4453458D01*
X12947095Y4455877D01*
X12949094Y4457992D01*
X12955646Y4468420D01*
X12956683Y4471140D01*
X12958163Y4473647D01*
X12962230Y4485271D01*
X12962637Y4488153D01*
X12963519Y4490925D01*
X12964899Y4503163D01*
X12964777Y4504624D01*
X12965062Y4506063D01*
X12965060Y5796063D01*
X12964775Y5797501D01*
X12964899Y5798961D01*
X12963519Y5811200D01*
X12962636Y5813973D01*
X12962230Y5816853D01*
X12958163Y5828478D01*
X12956683Y5830985D01*
X12955646Y5833706D01*
X12949092Y5844134D01*
X12947093Y5846248D01*
X12945477Y5848667D01*
X12936768Y5857376D01*
X12934348Y5858993D01*
X12932234Y5860991D01*
X12921806Y5867544D01*
X12919089Y5868581D01*
X12916582Y5870060D01*
X12904956Y5874128D01*
X12902074Y5874535D01*
X12899303Y5875419D01*
X12887064Y5876797D01*
X12885602Y5876674D01*
X12884164Y5876960D01*
D02*
G37*
G36*
X9788540D02*
X8498539D01*
X8497100Y5876674D01*
X8495639Y5876797D01*
X8483400Y5875418D01*
X8480627Y5874534D01*
X8477746Y5874128D01*
X8466122Y5870060D01*
X8463617Y5868582D01*
X8460898Y5867545D01*
X8450469Y5860992D01*
X8448354Y5858992D01*
X8445934Y5857375D01*
X8437226Y5848666D01*
X8435609Y5846247D01*
X8433610Y5844132D01*
X8427058Y5833703D01*
X8426021Y5830986D01*
X8424542Y5828480D01*
X8420474Y5816856D01*
X8420067Y5813975D01*
X8419184Y5811203D01*
X8417804Y5798964D01*
X8417927Y5797502D01*
X8417641Y5796063D01*
X8417641Y4506063D01*
X8417928Y4504623D01*
X8417804Y4503161D01*
X8419184Y4490923D01*
X8420067Y4488151D01*
X8420474Y4485270D01*
X8424542Y4473645D01*
X8426021Y4471138D01*
X8427058Y4468421D01*
X8433611Y4457993D01*
X8435609Y4455878D01*
X8437226Y4453459D01*
X8445934Y4444750D01*
X8448354Y4443133D01*
X8450469Y4441133D01*
X8460898Y4434581D01*
X8463616Y4433544D01*
X8466121Y4432065D01*
X8477746Y4427997D01*
X8480628Y4427590D01*
X8483401Y4426706D01*
X8495640Y4425328D01*
X8497101Y4425451D01*
X8498539Y4425165D01*
X9788540D01*
X9789978Y4425451D01*
X9791439Y4425328D01*
X9803678Y4426706D01*
X9806451Y4427590D01*
X9809333Y4427997D01*
X9820957Y4432065D01*
X9823463Y4433544D01*
X9826180Y4434581D01*
X9836610Y4441133D01*
X9838725Y4443133D01*
X9841145Y4444750D01*
X9849853Y4453459D01*
X9851470Y4455878D01*
X9853469Y4457993D01*
X9860021Y4468421D01*
X9861058Y4471139D01*
X9862537Y4473645D01*
X9866605Y4485270D01*
X9867012Y4488151D01*
X9867895Y4490923D01*
X9869275Y4503161D01*
X9869151Y4504623D01*
X9869438Y4506063D01*
X9869437Y5796063D01*
X9869151Y5797502D01*
X9869274Y5798964D01*
X9867895Y5811203D01*
X9867011Y5813975D01*
X9866604Y5816856D01*
X9862536Y5828480D01*
X9861058Y5830986D01*
X9860021Y5833703D01*
X9853468Y5844132D01*
X9851470Y5846246D01*
X9849853Y5848666D01*
X9841145Y5857375D01*
X9838725Y5858992D01*
X9836609Y5860992D01*
X9826180Y5867545D01*
X9823462Y5868582D01*
X9820956Y5870060D01*
X9809332Y5874128D01*
X9806451Y5874534D01*
X9803679Y5875418D01*
X9791440Y5876797D01*
X9789978Y5876674D01*
X9788540Y5876960D01*
D02*
G37*
G36*
X10591664Y5776960D02*
X10076664D01*
X10075226Y5776674D01*
X10073765Y5776797D01*
X10050400Y5774165D01*
X10047627Y5773281D01*
X10044745Y5772874D01*
X10022553Y5765108D01*
X10020047Y5763630D01*
X10017328Y5762592D01*
X9997420Y5750083D01*
X9995305Y5748084D01*
X9992886Y5746467D01*
X9976260Y5729841D01*
X9974643Y5727422D01*
X9972645Y5725308D01*
X9960135Y5705399D01*
X9959097Y5702680D01*
X9957618Y5700173D01*
X9949853Y5677980D01*
X9949446Y5675099D01*
X9948562Y5672327D01*
X9945930Y5648962D01*
X9946053Y5647501D01*
X9945767Y5646062D01*
X9945767Y4356062D01*
X9946053Y4354624D01*
X9945930Y4353163D01*
X9948563Y4329799D01*
X9949446Y4327026D01*
X9949853Y4324145D01*
X9957618Y4301952D01*
X9959097Y4299445D01*
X9960135Y4296726D01*
X9972645Y4276817D01*
X9974643Y4274703D01*
X9976260Y4272284D01*
X9992886Y4255658D01*
X9995306Y4254041D01*
X9997420Y4252042D01*
X10017328Y4239533D01*
X10020047Y4238495D01*
X10022553Y4237016D01*
X10044746Y4229251D01*
X10047627Y4228844D01*
X10050400Y4227960D01*
X10073765Y4225328D01*
X10075226Y4225451D01*
X10076664Y4225165D01*
X10591665D01*
X10593103Y4225451D01*
X10594564Y4225328D01*
X10617929Y4227960D01*
X10620702Y4228844D01*
X10623584Y4229251D01*
X10645776Y4237017D01*
X10648282Y4238495D01*
X10651001Y4239533D01*
X10670909Y4252043D01*
X10673023Y4254042D01*
X10675443Y4255658D01*
X10692069Y4272284D01*
X10693685Y4274703D01*
X10695684Y4276817D01*
X10708194Y4296726D01*
X10709232Y4299445D01*
X10710711Y4301952D01*
X10718476Y4324145D01*
X10718883Y4327026D01*
X10719766Y4329799D01*
X10722399Y4353164D01*
X10722276Y4354625D01*
X10722562Y4356063D01*
X10722561Y5646063D01*
X10722275Y5647501D01*
X10722399Y5648962D01*
X10719766Y5672327D01*
X10718883Y5675099D01*
X10718476Y5677981D01*
X10710711Y5700173D01*
X10709232Y5702679D01*
X10708194Y5705399D01*
X10695684Y5725308D01*
X10693685Y5727422D01*
X10692069Y5729842D01*
X10675443Y5746468D01*
X10673023Y5748084D01*
X10670909Y5750083D01*
X10651000Y5762593D01*
X10648282Y5763630D01*
X10645775Y5765109D01*
X10623583Y5772874D01*
X10620701Y5773281D01*
X10617929Y5774165D01*
X10594564Y5776797D01*
X10593103Y5776674D01*
X10591664Y5776960D01*
D02*
G37*
G36*
X8210414D02*
X7695414D01*
X7693976Y5776674D01*
X7692514Y5776797D01*
X7669149Y5774164D01*
X7666377Y5773281D01*
X7663496Y5772874D01*
X7641303Y5765109D01*
X7638797Y5763630D01*
X7636078Y5762592D01*
X7616170Y5750083D01*
X7614055Y5748084D01*
X7611636Y5746467D01*
X7595010Y5729841D01*
X7593393Y5727422D01*
X7591395Y5725308D01*
X7578885Y5705399D01*
X7577847Y5702680D01*
X7576368Y5700173D01*
X7568603Y5677980D01*
X7568196Y5675098D01*
X7567312Y5672326D01*
X7564680Y5648962D01*
X7564803Y5647501D01*
X7564517Y5646062D01*
X7564517Y4356062D01*
X7564803Y4354624D01*
X7564680Y4353163D01*
X7567313Y4329798D01*
X7568196Y4327026D01*
X7568603Y4324144D01*
X7576368Y4301952D01*
X7577847Y4299445D01*
X7578885Y4296726D01*
X7591395Y4276817D01*
X7593393Y4274703D01*
X7595010Y4272284D01*
X7611636Y4255658D01*
X7614056Y4254041D01*
X7616170Y4252042D01*
X7636078Y4239533D01*
X7638797Y4238495D01*
X7641303Y4237016D01*
X7663496Y4229251D01*
X7666377Y4228844D01*
X7669150Y4227960D01*
X7692515Y4225328D01*
X7693976Y4225451D01*
X7695414Y4225165D01*
X8210415D01*
X8211853Y4225451D01*
X8213314Y4225328D01*
X8236679Y4227960D01*
X8239452Y4228844D01*
X8242333Y4229251D01*
X8264526Y4237016D01*
X8267032Y4238495D01*
X8269751Y4239533D01*
X8289659Y4252042D01*
X8291773Y4254041D01*
X8294193Y4255658D01*
X8310819Y4272284D01*
X8312435Y4274703D01*
X8314434Y4276817D01*
X8326944Y4296726D01*
X8327982Y4299445D01*
X8329461Y4301952D01*
X8337226Y4324145D01*
X8337633Y4327026D01*
X8338516Y4329799D01*
X8341149Y4353163D01*
X8341026Y4354624D01*
X8341312Y4356062D01*
X8341311Y5646062D01*
X8341025Y5647501D01*
X8341149Y5648962D01*
X8338516Y5672327D01*
X8337633Y5675099D01*
X8337226Y5677981D01*
X8329461Y5700173D01*
X8327982Y5702680D01*
X8326944Y5705399D01*
X8314434Y5725308D01*
X8312435Y5727422D01*
X8310819Y5729841D01*
X8294193Y5746467D01*
X8291773Y5748084D01*
X8289659Y5750083D01*
X8269750Y5762592D01*
X8267032Y5763630D01*
X8264526Y5765108D01*
X8242333Y5772874D01*
X8239451Y5773281D01*
X8236679Y5774165D01*
X8213314Y5776797D01*
X8211853Y5776674D01*
X8210414Y5776960D01*
D02*
G37*
G36*
X27260416Y4171961D02*
X26745416D01*
X26743976Y4171675D01*
X26742517Y4171799D01*
X26719150Y4169166D01*
X26716376Y4168282D01*
X26713495Y4167875D01*
X26691302Y4160110D01*
X26688797Y4158632D01*
X26686081Y4157594D01*
X26666171Y4145084D01*
X26664056Y4143085D01*
X26661636Y4141468D01*
X26645010Y4124843D01*
X26643393Y4122423D01*
X26641394Y4120308D01*
X26628885Y4100400D01*
X26627847Y4097682D01*
X26626370Y4095176D01*
X26618604Y4072983D01*
X26618195Y4070100D01*
X26617313Y4067327D01*
X26614682Y4043962D01*
X26614804Y4042502D01*
X26614517Y4041064D01*
Y3975020D01*
X26614319Y3973248D01*
X26614209Y3972939D01*
X26614038Y3972666D01*
X26613812Y3972439D01*
X26613538Y3972267D01*
X26613235Y3972162D01*
X26611462Y3971962D01*
X26596039D01*
X26594601Y3971676D01*
X26593140Y3971799D01*
X26580899Y3970420D01*
X26578128Y3969536D01*
X26575247Y3969129D01*
X26563623Y3965061D01*
X26561118Y3963584D01*
X26558401Y3962547D01*
X26547971Y3955994D01*
X26545853Y3953994D01*
X26543433Y3952375D01*
X26534726Y3943667D01*
X26533109Y3941249D01*
X26531113Y3939135D01*
X26524557Y3928706D01*
X26523520Y3925988D01*
X26522043Y3923482D01*
X26517975Y3911857D01*
X26517566Y3908976D01*
X26516684Y3906204D01*
X26515305Y3893965D01*
X26515427Y3892503D01*
X26515140Y3891064D01*
Y2601064D01*
X26515427Y2599625D01*
X26515305Y2598163D01*
X26516684Y2585924D01*
X26517566Y2583152D01*
X26517975Y2580271D01*
X26522043Y2568646D01*
X26523520Y2566141D01*
X26524557Y2563422D01*
X26531113Y2552993D01*
X26533109Y2550879D01*
X26534726Y2548461D01*
X26543433Y2539752D01*
X26545853Y2538134D01*
X26547971Y2536134D01*
X26558401Y2529581D01*
X26561118Y2528544D01*
X26563623Y2527067D01*
X26575247Y2522999D01*
X26578128Y2522592D01*
X26580899Y2521708D01*
X26593140Y2520329D01*
X26594601Y2520452D01*
X26596039Y2520166D01*
X27886041Y2520166D01*
X27887479Y2520452D01*
X27888940Y2520329D01*
X27901178Y2521708D01*
X27903952Y2522592D01*
X27906830Y2522999D01*
X27918457Y2527066D01*
X27920963Y2528545D01*
X27923682Y2529583D01*
X27934109Y2536136D01*
X27936224Y2538134D01*
X27938644Y2539751D01*
X27947354Y2548459D01*
X27948972Y2550881D01*
X27950970Y2552996D01*
X27957523Y2563425D01*
X27958557Y2566141D01*
X27960037Y2568646D01*
X27964105Y2580271D01*
X27964511Y2583152D01*
X27965396Y2585924D01*
X27966776Y2598163D01*
X27966650Y2599625D01*
X27966937Y2601064D01*
Y3891064D01*
X27966650Y3892503D01*
X27966776Y3893965D01*
X27965396Y3906204D01*
X27964511Y3908976D01*
X27964105Y3911857D01*
X27960037Y3923482D01*
X27958560Y3925986D01*
X27957523Y3928703D01*
X27950970Y3939132D01*
X27948972Y3941248D01*
X27947354Y3943669D01*
X27938644Y3952378D01*
X27936224Y3953994D01*
X27934109Y3955993D01*
X27923682Y3962545D01*
X27920963Y3963583D01*
X27918457Y3965062D01*
X27906830Y3969129D01*
X27903952Y3969536D01*
X27901178Y3970420D01*
X27888940Y3971799D01*
X27887479Y3971676D01*
X27886041Y3971962D01*
X27394370D01*
X27392593Y3972162D01*
X27392288Y3972268D01*
X27392017Y3972439D01*
X27391791Y3972667D01*
X27391620Y3972938D01*
X27391513Y3973243D01*
X27391312Y3975017D01*
Y4041064D01*
X27391025Y4042503D01*
X27391150Y4043964D01*
X27388516Y4067329D01*
X27387634Y4070101D01*
X27387225Y4072981D01*
X27379462Y4095174D01*
X27377982Y4097681D01*
X27376944Y4100402D01*
X27364432Y4120310D01*
X27362436Y4122424D01*
X27360818Y4124843D01*
X27344193Y4141468D01*
X27341776Y4143085D01*
X27339658Y4145084D01*
X27319751Y4157593D01*
X27317032Y4158632D01*
X27314526Y4160110D01*
X27292334Y4167876D01*
X27289453Y4168282D01*
X27286679Y4169166D01*
X27263315Y4171799D01*
X27261853Y4171675D01*
X27260416Y4171961D01*
D02*
G37*
G36*
X25355414D02*
X24840414D01*
X24838976Y4171675D01*
X24837514Y4171799D01*
X24814151Y4169166D01*
X24811378Y4168283D01*
X24808498Y4167876D01*
X24786304Y4160110D01*
X24783798Y4158632D01*
X24781078Y4157594D01*
X24761169Y4145084D01*
X24759055Y4143085D01*
X24756636Y4141468D01*
X24740010Y4124843D01*
X24738394Y4122423D01*
X24736394Y4120308D01*
X24723885Y4100400D01*
X24722847Y4097681D01*
X24721368Y4095175D01*
X24713603Y4072982D01*
X24713196Y4070100D01*
X24712312Y4067328D01*
X24709680Y4043963D01*
X24709802Y4042502D01*
X24709517Y4041064D01*
Y2751064D01*
X24709802Y2749625D01*
X24709680Y2748164D01*
X24712312Y2724800D01*
X24713196Y2722027D01*
X24713603Y2719145D01*
X24721368Y2696952D01*
X24722847Y2694446D01*
X24723885Y2691728D01*
X24736394Y2671820D01*
X24738393Y2669705D01*
X24740010Y2667285D01*
X24756636Y2650659D01*
X24759055Y2649043D01*
X24761169Y2647044D01*
X24781078Y2634534D01*
X24783797Y2633496D01*
X24786304Y2632017D01*
X24808498Y2624252D01*
X24811378Y2623845D01*
X24814151Y2622962D01*
X24837514Y2620329D01*
X24838976Y2620452D01*
X24840414Y2620166D01*
X25355414D01*
X25356853Y2620452D01*
X25358315Y2620329D01*
X25381679Y2622962D01*
X25384451Y2623845D01*
X25387332Y2624252D01*
X25409526Y2632017D01*
X25412033Y2633496D01*
X25414752Y2634534D01*
X25434660Y2647044D01*
X25436774Y2649043D01*
X25439194Y2650659D01*
X25455820Y2667285D01*
X25457436Y2669705D01*
X25459435Y2671819D01*
X25471944Y2691728D01*
X25472981Y2694446D01*
X25474460Y2696952D01*
X25482227Y2719145D01*
X25482634Y2722028D01*
X25483517Y2724800D01*
X25486150Y2748164D01*
X25486026Y2749625D01*
X25486313Y2751064D01*
Y4041064D01*
X25486026Y4042502D01*
X25486150Y4043963D01*
X25483517Y4067328D01*
X25482632Y4070101D01*
X25482227Y4072983D01*
X25474460Y4095176D01*
X25472981Y4097682D01*
X25471944Y4100400D01*
X25459435Y4120308D01*
X25457437Y4122423D01*
X25455820Y4124843D01*
X25439194Y4141468D01*
X25436774Y4143085D01*
X25434660Y4145084D01*
X25414751Y4157594D01*
X25412032Y4158632D01*
X25409526Y4160110D01*
X25387334Y4167876D01*
X25384451Y4168282D01*
X25381679Y4169166D01*
X25358315Y4171799D01*
X25356853Y4171675D01*
X25355414Y4171961D01*
D02*
G37*
G36*
X15830415Y4171960D02*
X14839165D01*
X14837726Y4171674D01*
X14836266Y4171798D01*
X14812900Y4169165D01*
X14810127Y4168281D01*
X14807246Y4167875D01*
X14785052Y4160109D01*
X14782549Y4158630D01*
X14779829Y4157593D01*
X14759920Y4145083D01*
X14757806Y4143084D01*
X14755386Y4141468D01*
X14738760Y4124842D01*
X14737143Y4122422D01*
X14735144Y4120308D01*
X14722635Y4100399D01*
X14721597Y4097680D01*
X14720119Y4095174D01*
X14712354Y4072981D01*
X14711946Y4070099D01*
X14711063Y4067327D01*
X14708430Y4043962D01*
X14708554Y4042501D01*
X14708269Y4041063D01*
Y2751063D01*
X14708554Y2749624D01*
X14708430Y2748163D01*
X14711063Y2724799D01*
X14711946Y2722027D01*
X14712354Y2719145D01*
X14720119Y2696952D01*
X14721597Y2694446D01*
X14722635Y2691727D01*
X14735144Y2671818D01*
X14737143Y2669704D01*
X14738760Y2667284D01*
X14755386Y2650658D01*
X14757806Y2649042D01*
X14759920Y2647043D01*
X14779828Y2634533D01*
X14782547Y2633495D01*
X14785054Y2632016D01*
X14807246Y2624251D01*
X14810127Y2623844D01*
X14812900Y2622961D01*
X14836266Y2620328D01*
X14837726Y2620451D01*
X14839165Y2620165D01*
X15830415Y2620166D01*
X15831853Y2620452D01*
X15833315Y2620329D01*
X15856679Y2622961D01*
X15859451Y2623844D01*
X15862334Y2624251D01*
X15884526Y2632017D01*
X15887033Y2633495D01*
X15889751Y2634533D01*
X15909660Y2647043D01*
X15911774Y2649042D01*
X15914194Y2650658D01*
X15930820Y2667284D01*
X15932436Y2669704D01*
X15934435Y2671818D01*
X15946945Y2691727D01*
X15947983Y2694446D01*
X15949461Y2696952D01*
X15957227Y2719145D01*
X15957632Y2722027D01*
X15958517Y2724799D01*
X15961150Y2748163D01*
X15961026Y2749625D01*
X15961311Y2751063D01*
Y4041063D01*
X15961026Y4042501D01*
X15961150Y4043962D01*
X15958517Y4067327D01*
X15957632Y4070099D01*
X15957227Y4072981D01*
X15949461Y4095174D01*
X15947983Y4097680D01*
X15946945Y4100399D01*
X15934435Y4120308D01*
X15932436Y4122422D01*
X15930820Y4124842D01*
X15914194Y4141468D01*
X15911774Y4143084D01*
X15909659Y4145083D01*
X15889751Y4157593D01*
X15887032Y4158630D01*
X15884526Y4160109D01*
X15862334Y4167875D01*
X15859451Y4168281D01*
X15856679Y4169165D01*
X15833315Y4171798D01*
X15831853Y4171674D01*
X15830415Y4171960D01*
D02*
G37*
G36*
X37172913Y3971963D02*
X35882916Y3971962D01*
X35881476Y3971676D01*
X35880017Y3971800D01*
X35867776Y3970421D01*
X35865005Y3969537D01*
X35862122Y3969130D01*
X35850497Y3965062D01*
X35847989Y3963583D01*
X35845273Y3962546D01*
X35834845Y3955993D01*
X35832730Y3953995D01*
X35830310Y3952378D01*
X35821603Y3943670D01*
X35819986Y3941250D01*
X35817987Y3939136D01*
X35811432Y3928708D01*
X35810394Y3925987D01*
X35808914Y3923479D01*
X35804849Y3911853D01*
X35804443Y3908974D01*
X35803561Y3906205D01*
X35802179Y3893966D01*
X35802304Y3892504D01*
X35802017Y3891065D01*
Y2601065D01*
X35802304Y2599626D01*
X35802179Y2598164D01*
X35803561Y2585925D01*
X35804443Y2583155D01*
X35804849Y2580276D01*
X35808914Y2568651D01*
X35810394Y2566144D01*
X35811432Y2563423D01*
X35817987Y2552994D01*
X35819986Y2550879D01*
X35821603Y2548460D01*
X35830310Y2539751D01*
X35832730Y2538135D01*
X35834845Y2536136D01*
X35845273Y2529584D01*
X35847992Y2528546D01*
X35850497Y2527067D01*
X35862122Y2523000D01*
X35865005Y2522593D01*
X35867776Y2521709D01*
X35880014Y2520330D01*
X35881476Y2520453D01*
X35882916Y2520167D01*
X37172913D01*
X37174353Y2520453D01*
X37175815Y2520330D01*
X37188052Y2521709D01*
X37190826Y2522593D01*
X37193704Y2523000D01*
X37205331Y2527067D01*
X37207837Y2528546D01*
X37210556Y2529584D01*
X37220984Y2536136D01*
X37223099Y2538135D01*
X37225519Y2539751D01*
X37234229Y2548460D01*
X37235843Y2550879D01*
X37237842Y2552994D01*
X37244397Y2563423D01*
X37245435Y2566141D01*
X37246912Y2568647D01*
X37250980Y2580272D01*
X37251385Y2583155D01*
X37252271Y2585929D01*
X37253650Y2598168D01*
X37253525Y2599628D01*
X37253812Y2601065D01*
Y3891065D01*
X37253525Y3892502D01*
X37253650Y3893962D01*
X37252271Y3906201D01*
X37251385Y3908975D01*
X37250980Y3911858D01*
X37246912Y3923483D01*
X37245435Y3925988D01*
X37244397Y3928707D01*
X37237842Y3939136D01*
X37235843Y3941251D01*
X37234229Y3943670D01*
X37225519Y3952379D01*
X37223099Y3953995D01*
X37220984Y3955994D01*
X37210556Y3962546D01*
X37207837Y3963584D01*
X37205331Y3965063D01*
X37193704Y3969130D01*
X37190826Y3969537D01*
X37188052Y3970421D01*
X37175815Y3971800D01*
X37174353Y3971677D01*
X37172913Y3971963D01*
D02*
G37*
G36*
X35267914Y3971962D02*
X33977914D01*
X33976477Y3971676D01*
X33975015Y3971800D01*
X33962778Y3970421D01*
X33960004Y3969537D01*
X33957123Y3969130D01*
X33945496Y3965062D01*
X33942990Y3963583D01*
X33940271Y3962546D01*
X33929843Y3955993D01*
X33927731Y3953995D01*
X33925311Y3952378D01*
X33916602Y3943670D01*
X33914984Y3941250D01*
X33912985Y3939136D01*
X33906433Y3928708D01*
X33905396Y3925987D01*
X33903915Y3923479D01*
X33899850Y3911853D01*
X33899442Y3908974D01*
X33898560Y3906205D01*
X33897180Y3893966D01*
X33897302Y3892504D01*
X33897018Y3891065D01*
Y2601065D01*
X33897302Y2599625D01*
X33897180Y2598163D01*
X33898560Y2585925D01*
X33899442Y2583155D01*
X33899850Y2580276D01*
X33903915Y2568651D01*
X33905396Y2566144D01*
X33906433Y2563422D01*
X33912985Y2552994D01*
X33914984Y2550879D01*
X33916602Y2548460D01*
X33925311Y2539751D01*
X33927731Y2538135D01*
X33929843Y2536136D01*
X33940271Y2529583D01*
X33942990Y2528546D01*
X33945499Y2527067D01*
X33957123Y2522999D01*
X33960004Y2522593D01*
X33962775Y2521709D01*
X33975015Y2520330D01*
X33976477Y2520453D01*
X33977914Y2520167D01*
X35267914D01*
X35269351Y2520453D01*
X35270813Y2520330D01*
X35283054Y2521709D01*
X35285825Y2522593D01*
X35288705Y2522999D01*
X35300330Y2527067D01*
X35302838Y2528546D01*
X35305557Y2529583D01*
X35315985Y2536136D01*
X35318100Y2538135D01*
X35320517Y2539751D01*
X35329227Y2548460D01*
X35330844Y2550879D01*
X35332843Y2552994D01*
X35339395Y2563423D01*
X35340433Y2566141D01*
X35341913Y2568647D01*
X35345981Y2580272D01*
X35346387Y2583155D01*
X35347272Y2585929D01*
X35348648Y2598168D01*
X35348526Y2599628D01*
X35348810Y2601065D01*
Y3891065D01*
X35348526Y3892502D01*
X35348648Y3893962D01*
X35347272Y3906200D01*
X35346387Y3908974D01*
X35345981Y3911857D01*
X35341913Y3923482D01*
X35340433Y3925989D01*
X35339395Y3928708D01*
X35332843Y3939136D01*
X35330844Y3941250D01*
X35329227Y3943670D01*
X35320517Y3952378D01*
X35318097Y3953995D01*
X35315985Y3955993D01*
X35305557Y3962546D01*
X35302838Y3963583D01*
X35300330Y3965062D01*
X35288705Y3969130D01*
X35285825Y3969537D01*
X35283051Y3970421D01*
X35270813Y3971800D01*
X35269351Y3971676D01*
X35267914Y3971962D01*
D02*
G37*
G36*
X33362915D02*
X32072916D01*
X32071475Y3971676D01*
X32070016Y3971800D01*
X32057776Y3970420D01*
X32055005Y3969537D01*
X32052124Y3969130D01*
X32040497Y3965062D01*
X32037991Y3963584D01*
X32035272Y3962546D01*
X32024844Y3955993D01*
X32022729Y3953995D01*
X32020312Y3952378D01*
X32011603Y3943670D01*
X32009985Y3941250D01*
X32007986Y3939136D01*
X32001434Y3928707D01*
X32000394Y3925986D01*
X31998914Y3923478D01*
X31994849Y3911854D01*
X31994443Y3908975D01*
X31993561Y3906205D01*
X31992181Y3893966D01*
X31992303Y3892504D01*
X31992017Y3891065D01*
Y2601064D01*
X31992303Y2599625D01*
X31992181Y2598163D01*
X31993561Y2585924D01*
X31994443Y2583155D01*
X31994849Y2580275D01*
X31998914Y2568651D01*
X32000394Y2566143D01*
X32001434Y2563422D01*
X32007986Y2552993D01*
X32009985Y2550879D01*
X32011603Y2548459D01*
X32020312Y2539751D01*
X32022729Y2538134D01*
X32024844Y2536136D01*
X32035272Y2529583D01*
X32037991Y2528545D01*
X32040497Y2527067D01*
X32052124Y2522999D01*
X32055005Y2522592D01*
X32057776Y2521709D01*
X32070016Y2520329D01*
X32071475Y2520453D01*
X32072916Y2520167D01*
X33362915Y2520167D01*
X33364352Y2520453D01*
X33365814Y2520330D01*
X33378052Y2521709D01*
X33380826Y2522593D01*
X33383704Y2522999D01*
X33395331Y2527067D01*
X33397836Y2528546D01*
X33400555Y2529583D01*
X33410983Y2536136D01*
X33413098Y2538135D01*
X33415518Y2539751D01*
X33424228Y2548460D01*
X33425842Y2550879D01*
X33427844Y2552994D01*
X33434396Y2563422D01*
X33435434Y2566141D01*
X33436911Y2568647D01*
X33440979Y2580272D01*
X33441388Y2583155D01*
X33442270Y2585929D01*
X33443649Y2598168D01*
X33443527Y2599628D01*
X33443811Y2601065D01*
Y3891065D01*
X33443527Y3892502D01*
X33443649Y3893962D01*
X33442270Y3906200D01*
X33441388Y3908975D01*
X33440979Y3911858D01*
X33436911Y3923482D01*
X33435434Y3925988D01*
X33434396Y3928707D01*
X33427844Y3939136D01*
X33425842Y3941250D01*
X33424228Y3943670D01*
X33415518Y3952378D01*
X33413098Y3953995D01*
X33410983Y3955993D01*
X33400555Y3962546D01*
X33397836Y3963584D01*
X33395331Y3965062D01*
X33383704Y3969130D01*
X33380826Y3969537D01*
X33378052Y3970420D01*
X33365814Y3971800D01*
X33364352Y3971676D01*
X33362915Y3971962D01*
D02*
G37*
G36*
X30267291Y3971962D02*
X28739166D01*
X28737726Y3971676D01*
X28736267Y3971799D01*
X28724026Y3970420D01*
X28721255Y3969537D01*
X28718372Y3969130D01*
X28706747Y3965062D01*
X28704239Y3963583D01*
X28701523Y3962545D01*
X28691095Y3955993D01*
X28688980Y3953994D01*
X28686560Y3952378D01*
X28677853Y3943669D01*
X28676236Y3941250D01*
X28674237Y3939136D01*
X28667682Y3928707D01*
X28666644Y3925987D01*
X28665164Y3923478D01*
X28661099Y3911853D01*
X28660693Y3908974D01*
X28659811Y3906204D01*
X28658429Y3893965D01*
X28658554Y3892503D01*
X28658267Y3891064D01*
Y2601064D01*
X28658554Y2599625D01*
X28658429Y2598163D01*
X28659811Y2585924D01*
X28660693Y2583155D01*
X28661099Y2580275D01*
X28665164Y2568650D01*
X28666644Y2566143D01*
X28667682Y2563422D01*
X28674237Y2552993D01*
X28676236Y2550879D01*
X28677853Y2548459D01*
X28686560Y2539751D01*
X28688980Y2538134D01*
X28691095Y2536135D01*
X28701523Y2529583D01*
X28704242Y2528545D01*
X28706747Y2527066D01*
X28718372Y2522999D01*
X28721255Y2522592D01*
X28724026Y2521708D01*
X28736264Y2520329D01*
X28737726Y2520452D01*
X28739166Y2520166D01*
X30267291Y2520167D01*
X30268729Y2520453D01*
X30270190Y2520329D01*
X30282428Y2521709D01*
X30285202Y2522592D01*
X30288080Y2522999D01*
X30299707Y2527067D01*
X30302213Y2528545D01*
X30304932Y2529583D01*
X30315359Y2536136D01*
X30317474Y2538134D01*
X30319894Y2539751D01*
X30328604Y2548459D01*
X30330222Y2550881D01*
X30332220Y2552996D01*
X30338773Y2563425D01*
X30339807Y2566142D01*
X30341287Y2568647D01*
X30345355Y2580271D01*
X30345761Y2583152D01*
X30346646Y2585924D01*
X30348026Y2598163D01*
X30347900Y2599625D01*
X30348187Y2601064D01*
Y3891064D01*
X30347900Y3892503D01*
X30348026Y3893965D01*
X30346646Y3906204D01*
X30345761Y3908975D01*
X30345355Y3911857D01*
X30341287Y3923482D01*
X30339807Y3925987D01*
X30338770Y3928704D01*
X30332220Y3939133D01*
X30330222Y3941248D01*
X30328604Y3943669D01*
X30319894Y3952378D01*
X30317474Y3953994D01*
X30315359Y3955993D01*
X30304932Y3962545D01*
X30302213Y3963583D01*
X30299707Y3965062D01*
X30288083Y3969130D01*
X30285199Y3969537D01*
X30282428Y3970420D01*
X30270190Y3971799D01*
X30268729Y3971676D01*
X30267291Y3971962D01*
D02*
G37*
G36*
X21932915Y3971961D02*
X19452290D01*
X19450851Y3971675D01*
X19449390Y3971799D01*
X19437151Y3970419D01*
X19434380Y3969536D01*
X19431499Y3969129D01*
X19419873Y3965061D01*
X19417366Y3963583D01*
X19414647Y3962545D01*
X19404219Y3955992D01*
X19402106Y3953994D01*
X19399686Y3952377D01*
X19390977Y3943669D01*
X19389360Y3941249D01*
X19387360Y3939133D01*
X19380807Y3928704D01*
X19379771Y3925987D01*
X19378291Y3923481D01*
X19374223Y3911857D01*
X19373817Y3908975D01*
X19372934Y3906201D01*
X19371555Y3893963D01*
X19371678Y3892502D01*
X19371391Y3891064D01*
Y2598564D01*
X19371678Y2597124D01*
X19371555Y2595663D01*
X19372871Y2583980D01*
X19373755Y2581209D01*
X19374162Y2578329D01*
X19378044Y2567233D01*
X19379523Y2564726D01*
X19380560Y2562007D01*
X19386813Y2552053D01*
X19388812Y2549938D01*
X19390431Y2547518D01*
X19398744Y2539205D01*
X19401163Y2537588D01*
X19403278Y2535589D01*
X19413232Y2529334D01*
X19415950Y2528297D01*
X19418457Y2526818D01*
X19429553Y2522935D01*
X19432436Y2522528D01*
X19435208Y2521645D01*
X19446890Y2520328D01*
X19448351Y2520452D01*
X19449789Y2520166D01*
X21932915Y2520166D01*
X21934354Y2520452D01*
X21935815Y2520329D01*
X21948055Y2521708D01*
X21950826Y2522592D01*
X21953706Y2522998D01*
X21965331Y2527066D01*
X21967838Y2528545D01*
X21970557Y2529582D01*
X21980986Y2536135D01*
X21983099Y2538134D01*
X21985519Y2539751D01*
X21994228Y2548460D01*
X21995844Y2550878D01*
X21997842Y2552993D01*
X22004396Y2563421D01*
X22005434Y2566140D01*
X22006912Y2568646D01*
X22010980Y2580271D01*
X22011388Y2583152D01*
X22012271Y2585926D01*
X22013651Y2598164D01*
X22013525Y2599625D01*
X22013812Y2601064D01*
Y3891064D01*
X22013525Y3892502D01*
X22013651Y3893962D01*
X22012271Y3906201D01*
X22011388Y3908975D01*
X22010980Y3911857D01*
X22006912Y3923481D01*
X22005434Y3925987D01*
X22004396Y3928706D01*
X21997842Y3939135D01*
X21995844Y3941249D01*
X21994228Y3943668D01*
X21985519Y3952376D01*
X21983099Y3953993D01*
X21980984Y3955992D01*
X21970557Y3962545D01*
X21967838Y3963583D01*
X21965331Y3965061D01*
X21953706Y3969129D01*
X21950826Y3969536D01*
X21948055Y3970419D01*
X21935815Y3971799D01*
X21934354Y3971675D01*
X21932915Y3971961D01*
D02*
G37*
G36*
X13836665Y3971961D02*
X12308539Y3971960D01*
X12307101Y3971674D01*
X12305640Y3971797D01*
X12293401Y3970419D01*
X12290628Y3969535D01*
X12287746Y3969128D01*
X12276121Y3965060D01*
X12273616Y3963582D01*
X12270898Y3962545D01*
X12260469Y3955992D01*
X12258354Y3953992D01*
X12255934Y3952375D01*
X12247226Y3943666D01*
X12245609Y3941247D01*
X12243610Y3939132D01*
X12237058Y3928704D01*
X12236021Y3925987D01*
X12234542Y3923480D01*
X12230474Y3911855D01*
X12230067Y3908974D01*
X12229184Y3906202D01*
X12227804Y3893964D01*
X12227928Y3892502D01*
X12227641Y3891063D01*
X12227642Y2601063D01*
X12227928Y2599624D01*
X12227805Y2598162D01*
X12229184Y2585923D01*
X12230068Y2583151D01*
X12230475Y2580270D01*
X12234543Y2568645D01*
X12236021Y2566140D01*
X12237058Y2563422D01*
X12243611Y2552993D01*
X12245609Y2550879D01*
X12247226Y2548459D01*
X12255934Y2539750D01*
X12258354Y2538133D01*
X12260470Y2536134D01*
X12270899Y2529581D01*
X12273617Y2528543D01*
X12276123Y2527065D01*
X12287747Y2522998D01*
X12290628Y2522591D01*
X12293400Y2521707D01*
X12305639Y2520328D01*
X12307101Y2520451D01*
X12308539Y2520165D01*
X13836665D01*
X13838103Y2520451D01*
X13839565Y2520328D01*
X13851804Y2521707D01*
X13854576Y2522591D01*
X13857457Y2522997D01*
X13869081Y2527065D01*
X13871588Y2528544D01*
X13874306Y2529581D01*
X13884735Y2536134D01*
X13886850Y2538133D01*
X13889268Y2539750D01*
X13897978Y2548458D01*
X13899594Y2550878D01*
X13901595Y2552993D01*
X13908147Y2563421D01*
X13909184Y2566141D01*
X13910661Y2568646D01*
X13914729Y2580271D01*
X13915137Y2583152D01*
X13916020Y2585924D01*
X13917400Y2598163D01*
X13917276Y2599624D01*
X13917561Y2601063D01*
Y3891063D01*
X13917276Y3892501D01*
X13917400Y3893963D01*
X13916020Y3906202D01*
X13915137Y3908974D01*
X13914729Y3911855D01*
X13910663Y3923480D01*
X13909184Y3925987D01*
X13908147Y3928705D01*
X13901595Y3939133D01*
X13899594Y3941248D01*
X13897978Y3943668D01*
X13889268Y3952376D01*
X13886850Y3953993D01*
X13884735Y3955992D01*
X13874306Y3962545D01*
X13871587Y3963583D01*
X13869081Y3965061D01*
X13857457Y3969128D01*
X13854576Y3969535D01*
X13851804Y3970419D01*
X13839565Y3971798D01*
X13838103Y3971675D01*
X13836665Y3971961D01*
D02*
G37*
G36*
X11455414Y3971960D02*
X9927289D01*
X9925851Y3971674D01*
X9924389Y3971797D01*
X9912150Y3970418D01*
X9909377Y3969534D01*
X9906497Y3969128D01*
X9894873Y3965060D01*
X9892367Y3963582D01*
X9889648Y3962545D01*
X9879219Y3955992D01*
X9877104Y3953992D01*
X9874684Y3952375D01*
X9865976Y3943666D01*
X9864360Y3941247D01*
X9862360Y3939132D01*
X9855808Y3928703D01*
X9854771Y3925986D01*
X9853293Y3923480D01*
X9849225Y3911856D01*
X9848818Y3908975D01*
X9847934Y3906202D01*
X9846554Y3893964D01*
X9846678Y3892502D01*
X9846391Y3891063D01*
X9846392Y2601063D01*
X9846678Y2599623D01*
X9846555Y2598161D01*
X9847934Y2585923D01*
X9848818Y2583151D01*
X9849225Y2580270D01*
X9853293Y2568645D01*
X9854771Y2566139D01*
X9855808Y2563422D01*
X9862361Y2552993D01*
X9864359Y2550879D01*
X9865976Y2548459D01*
X9874684Y2539750D01*
X9877104Y2538133D01*
X9879220Y2536133D01*
X9889649Y2529581D01*
X9892367Y2528543D01*
X9894873Y2527065D01*
X9906497Y2522997D01*
X9909378Y2522591D01*
X9912150Y2521707D01*
X9924389Y2520328D01*
X9925851Y2520451D01*
X9927289Y2520165D01*
X11455414D01*
X11456853Y2520451D01*
X11458314Y2520328D01*
X11470553Y2521707D01*
X11473325Y2522591D01*
X11476206Y2522997D01*
X11487831Y2527065D01*
X11490338Y2528544D01*
X11493057Y2529581D01*
X11503485Y2536134D01*
X11505599Y2538133D01*
X11508018Y2539749D01*
X11516727Y2548458D01*
X11518344Y2550877D01*
X11520343Y2552992D01*
X11526896Y2563420D01*
X11527935Y2566140D01*
X11529413Y2568647D01*
X11533480Y2580271D01*
X11533887Y2583153D01*
X11534770Y2585925D01*
X11536149Y2598163D01*
X11536026Y2599624D01*
X11536312Y2601063D01*
X11536312Y3891063D01*
X11536026Y3892501D01*
X11536149Y3893961D01*
X11534770Y3906200D01*
X11533887Y3908973D01*
X11533480Y3911853D01*
X11529413Y3923478D01*
X11527935Y3925985D01*
X11526896Y3928706D01*
X11520342Y3939134D01*
X11518344Y3941248D01*
X11516727Y3943668D01*
X11508018Y3952376D01*
X11505599Y3953993D01*
X11503484Y3955991D01*
X11493057Y3962544D01*
X11490339Y3963581D01*
X11487832Y3965060D01*
X11476207Y3969128D01*
X11473325Y3969535D01*
X11470552Y3970419D01*
X11458313Y3971797D01*
X11456852Y3971674D01*
X11455414Y3971960D01*
D02*
G37*
G36*
X9074164D02*
X7546039Y3971960D01*
X7544601Y3971674D01*
X7543140Y3971797D01*
X7530901Y3970418D01*
X7528128Y3969535D01*
X7525246Y3969127D01*
X7513621Y3965059D01*
X7511116Y3963581D01*
X7508398Y3962544D01*
X7497969Y3955991D01*
X7495854Y3953992D01*
X7493434Y3952375D01*
X7484726Y3943666D01*
X7483109Y3941246D01*
X7481110Y3939132D01*
X7474558Y3928704D01*
X7473521Y3925986D01*
X7472042Y3923480D01*
X7467974Y3911855D01*
X7467567Y3908973D01*
X7466684Y3906202D01*
X7465304Y3893963D01*
X7465428Y3892501D01*
X7465141Y3891062D01*
X7465142Y2601062D01*
X7465428Y2599623D01*
X7465305Y2598161D01*
X7466684Y2585922D01*
X7467568Y2583150D01*
X7467975Y2580269D01*
X7472043Y2568645D01*
X7473521Y2566139D01*
X7474558Y2563422D01*
X7481111Y2552993D01*
X7483109Y2550879D01*
X7484726Y2548458D01*
X7493434Y2539750D01*
X7495854Y2538133D01*
X7497970Y2536133D01*
X7508399Y2529580D01*
X7511117Y2528543D01*
X7513623Y2527065D01*
X7525247Y2522997D01*
X7528128Y2522591D01*
X7530900Y2521707D01*
X7543139Y2520327D01*
X7544601Y2520451D01*
X7546039Y2520165D01*
X9074164D01*
X9075603Y2520451D01*
X9077064Y2520327D01*
X9089303Y2521707D01*
X9092075Y2522590D01*
X9094956Y2522997D01*
X9106581Y2527065D01*
X9109088Y2528543D01*
X9111807Y2529581D01*
X9122235Y2536134D01*
X9124349Y2538132D01*
X9126768Y2539749D01*
X9135477Y2548457D01*
X9137094Y2550877D01*
X9139093Y2552991D01*
X9145646Y2563420D01*
X9146685Y2566140D01*
X9148163Y2568647D01*
X9152230Y2580271D01*
X9152637Y2583153D01*
X9153520Y2585924D01*
X9154899Y2598163D01*
X9154776Y2599624D01*
X9155062Y2601062D01*
X9155062Y3891063D01*
X9154776Y3892501D01*
X9154899Y3893961D01*
X9153520Y3906200D01*
X9152637Y3908973D01*
X9152230Y3911854D01*
X9148163Y3923478D01*
X9146684Y3925985D01*
X9145646Y3928705D01*
X9139093Y3939134D01*
X9137094Y3941248D01*
X9135477Y3943668D01*
X9126768Y3952376D01*
X9124349Y3953993D01*
X9122234Y3955991D01*
X9111807Y3962544D01*
X9109088Y3963582D01*
X9106581Y3965060D01*
X9094956Y3969128D01*
X9092075Y3969535D01*
X9089303Y3970418D01*
X9077064Y3971797D01*
X9075602Y3971674D01*
X9074164Y3971960D01*
D02*
G37*
G36*
X36305014Y2319462D02*
X30253314Y2319462D01*
X30251874Y2319176D01*
X30250415Y2319299D01*
X30233170Y2317356D01*
X30230399Y2316472D01*
X30227518Y2316066D01*
X30211136Y2310334D01*
X30208630Y2308855D01*
X30205908Y2307817D01*
X30191214Y2298584D01*
X30189102Y2296585D01*
X30186682Y2294968D01*
X30174411Y2282697D01*
X30172794Y2280278D01*
X30170795Y2278164D01*
X30161563Y2263469D01*
X30160526Y2260751D01*
X30159045Y2258244D01*
X30153314Y2241863D01*
X30152908Y2238981D01*
X30152023Y2236208D01*
X30150079Y2218963D01*
X30150204Y2217503D01*
X30149918Y2216064D01*
Y2143564D01*
X30150204Y2142126D01*
X30150079Y2140665D01*
X30152023Y2123420D01*
X30152905Y2120648D01*
X30153314Y2117765D01*
X30159045Y2101384D01*
X30160526Y2098878D01*
X30161563Y2096160D01*
X30170795Y2081465D01*
X30172794Y2079351D01*
X30174411Y2076932D01*
X30186682Y2064661D01*
X30189102Y2063044D01*
X30191217Y2061045D01*
X30205908Y2051812D01*
X30208627Y2050774D01*
X30211136Y2049295D01*
X30227518Y2043563D01*
X30230399Y2043156D01*
X30233170Y2042273D01*
X30250415Y2040330D01*
X30251874Y2040453D01*
X30253314Y2040167D01*
X33678778Y2040167D01*
X33691516Y2038751D01*
X33702264Y2035041D01*
X33711938Y2029060D01*
X33720062Y2021099D01*
X33726236Y2011549D01*
X33730161Y2000877D01*
X33731644Y1989603D01*
X33730362Y1975474D01*
X33727145Y1942433D01*
X33727411Y1939741D01*
X33727182Y1937046D01*
X33730884Y1903954D01*
X33731702Y1901376D01*
X33732034Y1898690D01*
X33742505Y1867081D01*
X33743839Y1864727D01*
X33744724Y1862168D01*
X33761508Y1833410D01*
X33763303Y1831384D01*
X33764694Y1829064D01*
X33787070Y1804404D01*
X33789246Y1802793D01*
X33791086Y1800811D01*
X33818082Y1781316D01*
X33820541Y1780190D01*
X33822757Y1778632D01*
X33853201Y1765146D01*
X33855841Y1764554D01*
X33858331Y1763488D01*
X33890906Y1756597D01*
X33893610Y1756564D01*
X33896265Y1756036D01*
X33929562D01*
X33932217Y1756564D01*
X33934924Y1756597D01*
X33967499Y1763488D01*
X33969989Y1764554D01*
X33972629Y1765146D01*
X34003073Y1778632D01*
X34005289Y1780190D01*
X34007748Y1781316D01*
X34034741Y1800811D01*
X34036584Y1802793D01*
X34038757Y1804404D01*
X34061133Y1829064D01*
X34062527Y1831385D01*
X34064319Y1833410D01*
X34081107Y1862168D01*
X34081989Y1864726D01*
X34083325Y1867080D01*
X34093793Y1898689D01*
X34094128Y1901375D01*
X34094949Y1903954D01*
X34098648Y1937045D01*
X34098419Y1939741D01*
X34098685Y1942435D01*
X34095465Y1975501D01*
X34094183Y1989602D01*
X34095670Y2000877D01*
X34099594Y2011551D01*
X34105768Y2021099D01*
X34113892Y2029060D01*
X34123563Y2035041D01*
X34134314Y2038751D01*
X34147052Y2040167D01*
X36305014Y2040168D01*
X36306451Y2040454D01*
X36307913Y2040330D01*
X36325159Y2042273D01*
X36327933Y2043157D01*
X36330814Y2043564D01*
X36347195Y2049296D01*
X36349701Y2050774D01*
X36352420Y2051812D01*
X36367114Y2061045D01*
X36369229Y2063045D01*
X36371649Y2064661D01*
X36383920Y2076933D01*
X36385535Y2079351D01*
X36387534Y2081466D01*
X36396768Y2096160D01*
X36397806Y2098879D01*
X36399283Y2101385D01*
X36405017Y2117765D01*
X36405423Y2120648D01*
X36406308Y2123421D01*
X36408249Y2140666D01*
X36408127Y2142127D01*
X36408411Y2143565D01*
Y2216065D01*
X36408127Y2217503D01*
X36408249Y2218964D01*
X36406308Y2236209D01*
X36405423Y2238981D01*
X36405017Y2241864D01*
X36399283Y2258245D01*
X36397806Y2260752D01*
X36396768Y2263470D01*
X36387534Y2278164D01*
X36385535Y2280278D01*
X36383920Y2282698D01*
X36371646Y2294969D01*
X36369229Y2296585D01*
X36367114Y2298584D01*
X36352420Y2307818D01*
X36349701Y2308856D01*
X36347195Y2310334D01*
X36330811Y2316066D01*
X36327933Y2316473D01*
X36325159Y2317357D01*
X36307913Y2319300D01*
X36306451Y2319176D01*
X36305014Y2319462D01*
D02*
G37*
G36*
X25900015Y2319461D02*
X18580815Y2319461D01*
X18579378Y2319175D01*
X18577914Y2319298D01*
X18560670Y2317355D01*
X18557898Y2316472D01*
X18555016Y2316065D01*
X18538635Y2310333D01*
X18536128Y2308854D01*
X18533409Y2307816D01*
X18518715Y2298583D01*
X18516602Y2296584D01*
X18514182Y2294967D01*
X18501910Y2282696D01*
X18500294Y2280277D01*
X18498296Y2278163D01*
X18489061Y2263468D01*
X18488023Y2260750D01*
X18486543Y2258242D01*
X18480814Y2241861D01*
X18480408Y2238980D01*
X18479523Y2236209D01*
X18477580Y2218964D01*
X18477702Y2217502D01*
X18477417Y2216063D01*
Y2143563D01*
X18477702Y2142125D01*
X18477580Y2140663D01*
X18479523Y2123418D01*
X18480408Y2120645D01*
X18480814Y2117765D01*
X18486545Y2101385D01*
X18488023Y2098878D01*
X18489061Y2096159D01*
X18498296Y2081464D01*
X18500294Y2079350D01*
X18501910Y2076931D01*
X18514182Y2064660D01*
X18516600Y2063043D01*
X18518716Y2061043D01*
X18533411Y2051810D01*
X18536128Y2050773D01*
X18538634Y2049294D01*
X18555016Y2043562D01*
X18557898Y2043155D01*
X18560670Y2042272D01*
X18577916Y2040329D01*
X18579378Y2040452D01*
X18580815Y2040166D01*
X22006277Y2040166D01*
X22019016Y2038750D01*
X22029765Y2035040D01*
X22039439Y2029058D01*
X22047560Y2021099D01*
X22053735Y2011549D01*
X22057660Y2000876D01*
X22059145Y1989600D01*
X22057863Y1975478D01*
X22054643Y1942434D01*
X22054910Y1939740D01*
X22054681Y1937044D01*
X22058383Y1903953D01*
X22059203Y1901374D01*
X22059537Y1898688D01*
X22070006Y1867080D01*
X22071341Y1864726D01*
X22072223Y1862168D01*
X22089009Y1833410D01*
X22090804Y1831383D01*
X22092197Y1829062D01*
X22114571Y1804403D01*
X22116747Y1802791D01*
X22118588Y1800810D01*
X22145583Y1781315D01*
X22148042Y1780189D01*
X22150256Y1778631D01*
X22180701Y1765146D01*
X22183340Y1764553D01*
X22185829Y1763487D01*
X22218407Y1756596D01*
X22221112Y1756563D01*
X22223766Y1756035D01*
X22257063D01*
X22259718Y1756563D01*
X22262424Y1756596D01*
X22295000Y1763487D01*
X22297488Y1764553D01*
X22300130Y1765146D01*
X22330574Y1778631D01*
X22332787Y1780189D01*
X22335246Y1781315D01*
X22362242Y1800810D01*
X22364084Y1802792D01*
X22366258Y1804403D01*
X22388634Y1829063D01*
X22390025Y1831384D01*
X22391818Y1833409D01*
X22408606Y1862167D01*
X22409488Y1864725D01*
X22410825Y1867080D01*
X22421294Y1898688D01*
X22421626Y1901374D01*
X22422447Y1903953D01*
X22426147Y1937044D01*
X22425919Y1939740D01*
X22426187Y1942434D01*
X22422964Y1975500D01*
X22421684Y1989601D01*
X22423169Y2000875D01*
X22427095Y2011549D01*
X22433269Y2021099D01*
X22441391Y2029059D01*
X22451064Y2035039D01*
X22461815Y2038750D01*
X22474551Y2040166D01*
X25900015Y2040167D01*
X25901453Y2040453D01*
X25902914Y2040329D01*
X25920160Y2042272D01*
X25922934Y2043156D01*
X25925815Y2043563D01*
X25942194Y2049295D01*
X25944699Y2050773D01*
X25947418Y2051811D01*
X25962112Y2061044D01*
X25964227Y2063043D01*
X25966647Y2064659D01*
X25978918Y2076931D01*
X25980536Y2079351D01*
X25982535Y2081466D01*
X25991769Y2096161D01*
X25992804Y2098878D01*
X25994284Y2101384D01*
X26000015Y2117764D01*
X26000421Y2120647D01*
X26001306Y2123420D01*
X26003250Y2140665D01*
X26003125Y2142126D01*
X26003412Y2143564D01*
Y2216064D01*
X26003125Y2217502D01*
X26003250Y2218963D01*
X26001306Y2236208D01*
X26000424Y2238980D01*
X26000015Y2241863D01*
X25994284Y2258244D01*
X25992804Y2260750D01*
X25991769Y2263467D01*
X25982535Y2278162D01*
X25980536Y2280277D01*
X25978918Y2282697D01*
X25966647Y2294969D01*
X25964227Y2296585D01*
X25962112Y2298583D01*
X25947418Y2307817D01*
X25944702Y2308854D01*
X25942194Y2310333D01*
X25925815Y2316065D01*
X25922934Y2316472D01*
X25920160Y2317356D01*
X25902914Y2319299D01*
X25901453Y2319175D01*
X25900015Y2319461D01*
D02*
G37*
G36*
X14227515Y2319460D02*
X8175815Y2319460D01*
X8174377Y2319174D01*
X8172916Y2319297D01*
X8155670Y2317354D01*
X8152898Y2316471D01*
X8150016Y2316064D01*
X8133635Y2310332D01*
X8131128Y2308853D01*
X8128410Y2307815D01*
X8113715Y2298582D01*
X8111601Y2296583D01*
X8109182Y2294966D01*
X8096910Y2282695D01*
X8095294Y2280276D01*
X8093295Y2278162D01*
X8084062Y2263467D01*
X8083024Y2260749D01*
X8081545Y2258241D01*
X8075813Y2241860D01*
X8075407Y2238979D01*
X8074523Y2236208D01*
X8072580Y2218963D01*
X8072703Y2217501D01*
X8072417Y2216062D01*
Y2143562D01*
X8072703Y2142124D01*
X8072580Y2140662D01*
X8074523Y2123417D01*
X8075407Y2120644D01*
X8075814Y2117764D01*
X8081545Y2101384D01*
X8083023Y2098877D01*
X8084062Y2096158D01*
X8093295Y2081463D01*
X8095294Y2079349D01*
X8096910Y2076930D01*
X8109181Y2064659D01*
X8111600Y2063042D01*
X8113716Y2061042D01*
X8128410Y2051809D01*
X8131129Y2050772D01*
X8133634Y2049293D01*
X8150015Y2043561D01*
X8152898Y2043154D01*
X8155671Y2042270D01*
X8172916Y2040328D01*
X8174377Y2040451D01*
X8175815Y2040165D01*
X10333778Y2040165D01*
X10346516Y2038749D01*
X10357266Y2035039D01*
X10366938Y2029058D01*
X10375061Y2021097D01*
X10381235Y2011549D01*
X10385160Y2000875D01*
X10386645Y1989600D01*
X10385360Y1975457D01*
X10382143Y1942433D01*
X10382411Y1939739D01*
X10382181Y1937043D01*
X10385882Y1903951D01*
X10386702Y1901373D01*
X10387035Y1898687D01*
X10397505Y1867079D01*
X10398841Y1864725D01*
X10399723Y1862166D01*
X10416510Y1833408D01*
X10418304Y1831382D01*
X10419696Y1829062D01*
X10442071Y1804402D01*
X10444246Y1802790D01*
X10446088Y1800809D01*
X10473082Y1781314D01*
X10475543Y1780188D01*
X10477756Y1778630D01*
X10508200Y1765145D01*
X10510841Y1764552D01*
X10513329Y1763486D01*
X10545906Y1756595D01*
X10548611Y1756562D01*
X10551266Y1756034D01*
X10584564D01*
X10587218Y1756562D01*
X10589924Y1756595D01*
X10622500Y1763486D01*
X10624988Y1764552D01*
X10627628Y1765144D01*
X10658074Y1778630D01*
X10660287Y1780188D01*
X10662748Y1781314D01*
X10689742Y1800809D01*
X10691585Y1802791D01*
X10693759Y1804402D01*
X10716134Y1829062D01*
X10717526Y1831383D01*
X10719320Y1833408D01*
X10736106Y1862166D01*
X10736988Y1864724D01*
X10738324Y1867079D01*
X10748794Y1898688D01*
X10749127Y1901374D01*
X10749946Y1903952D01*
X10753648Y1937043D01*
X10753418Y1939739D01*
X10753686Y1942432D01*
X10750467Y1975487D01*
X10749184Y1989601D01*
X10750669Y2000875D01*
X10754594Y2011548D01*
X10760768Y2021097D01*
X10768892Y2029058D01*
X10778564Y2035039D01*
X10789314Y2038749D01*
X10802052Y2040165D01*
X14227515Y2040166D01*
X14228954Y2040452D01*
X14230414Y2040328D01*
X14247659Y2042271D01*
X14250430Y2043155D01*
X14253314Y2043562D01*
X14269695Y2049294D01*
X14272202Y2050772D01*
X14274919Y2051810D01*
X14289613Y2061043D01*
X14291730Y2063043D01*
X14294148Y2064659D01*
X14306419Y2076931D01*
X14308035Y2079349D01*
X14310034Y2081464D01*
X14319267Y2096158D01*
X14320306Y2098877D01*
X14321783Y2101384D01*
X14327516Y2117764D01*
X14327924Y2120645D01*
X14328806Y2123418D01*
X14330750Y2140663D01*
X14330626Y2142124D01*
X14330911Y2143563D01*
Y2216063D01*
X14330626Y2217501D01*
X14330750Y2218963D01*
X14328806Y2236208D01*
X14327924Y2238980D01*
X14327516Y2241861D01*
X14321783Y2258242D01*
X14320305Y2260749D01*
X14319267Y2263468D01*
X14310034Y2278162D01*
X14308035Y2280276D01*
X14306419Y2282696D01*
X14294148Y2294967D01*
X14291728Y2296583D01*
X14289613Y2298582D01*
X14274921Y2307816D01*
X14272202Y2308853D01*
X14269695Y2310332D01*
X14253313Y2316064D01*
X14250432Y2316471D01*
X14247659Y2317355D01*
X14230415Y2319298D01*
X14228954Y2319174D01*
X14227515Y2319460D01*
D02*
G37*
%LPD*%
%TF.MD5,bb004f4b42416458f5ef96cdbcc82385*%
M02*
